<?xml version="1.0" encoding="UTF-8"?>
<svg xmlns="http://www.w3.org/2000/svg" id="RSSicon" viewBox="0 0 512 512" width="512" height="512">
  <defs>
    <style type="text/css">
      svg {
        background: black;
        margin: calc(50vh - 256px) auto 0;
      }
      
      polygon {stroke: darkorange; fill: none;}
    </style>
  </defs>
  <polygon points="15.320660015099987 15.320660015099987 28.80006136625291 13.866605300413756 29.4265910338506 29.4265910338506 9.96832344829562 32.69834321837104"/><polygon points="51.88896902961352 9.222302362946852 71.478392156746 13.854941176587335 77.82161562685963 35.154948960192954 56.795425975102745 28.537907358230584"/><polygon points="101.83139832755619 16.498064994222865 111.44750487079727 16.55249512920272 118.82222623680184 33.48889290346852 91.44905465378253 36.550945346217475"/><polygon points="144.0531831348302 16.053183134830192 166.51365416501713 4.153012501649545 166.66357623938606 38.663576239386046 141.46038691886642 29.206279747800256"/><polygon points="185.0278215548117 14.36115488814505 206.6923153217387 6.641018011594621 198.5216152066552 27.85494853998854 183.31914122343844 30.014192109894893"/><polygon points="227.14637360500436 13.813040271671028 251.12977784743805 4.870222152561926 249.35245464928647 36.01912131595316 229.86052635158725 26.139473648412732"/><polygon points="269.71273560121597 13.712735601216004 290.02041155905795 8.646255107608694 287.79421249819404 31.79421249819405 261.73555173775617 36.93111492891049"/><polygon points="305.48015386630055 6.81348719963397 329.3102938754149 12.023039457918378 333.69092727940233 35.024260612735695 306.2815974588443 35.05173587448897"/><polygon points="351.8270450479513 10.493711714617971 369.598740364709 14.401259635290968 371.281310569522 29.9479772361887 346.8211471444801 37.178852855519835"/><polygon points="395.306865564516 11.306865564516027 420.5813410459411 6.085325620725586 419.82105063575847 35.82105063575849 394.56550443686314 32.10116222980349"/><polygon points="434.48642581755746 7.819759150890878 463.081681762959 6.251651570374269 462.9663675413722 36.299700874705636 430.648495587536 38.68483774579729"/><polygon points="474.6194853331001 5.286151999766776 501.43293915336733 10.567060846632621 501.385727670761 32.0523943374277 477.0978134827536 34.902186517246335"/><polygon points="5.244842883947971 47.91150955061464 32.485846087698874 52.84748724563446 37.03179628308845 79.69846294975511 7.442058537260051 77.89127479607328"/><polygon points="47.29198220625739 47.29198220625739 81.29125163094409 46.70874836905592 74.62946536516412 74.62946536516412 55.262364503038825 72.73763549696118"/><polygon points="92.17074104184866 49.504074375182 116.5945687649942 54.07209790167247 119.25531406531843 76.58864739865177 101.33729804218723 69.32936862447943"/><polygon points="137.5366459318553 52.20331259852195 155.6853163229746 57.64801701035876 165.86265492312856 80.52932158979523 138.4538691534157 74.87946417991765"/><polygon points="176.4398525400595 48.43985254005949 209.00747415772156 46.992525842278425 197.84088311707626 69.84088311707627 183.92568272304047 72.07431727695955"/><polygon points="220.27633690308656 49.60967023641991 245.64424682470892 53.022419841957756 244.41870185762426 73.7520351909576 222.7543490579547 75.91231760871196"/><polygon points="262.64183990757647 49.30850657424315 284.01471054911457 57.31862278421874 294.38902337140576 81.05569003807247 271.84575886295636 69.48757447037698"/><polygon points="310.8142142298675 54.81421422986753 326.7211920597648 57.27880794023513 335.853223594006 79.85322359400608 311.69552203145827 72.3044779685417"/><polygon points="351.18354136337 52.51687469670337 378.4503657092822 48.21630095738442 375.01254480261883 76.34587813595223 351.8974891570367 74.7691775096299"/><polygon points="396.7826457543738 55.449312421040496 410.62820051262327 58.70513282071006 420.1477108928876 78.81437755955426 391.80582113050457 77.52751220282875"/><polygon points="437.77779386477556 53.77779386477564 458.31850374742726 53.68149625257269 463.35885273393654 79.35885273393659 438.08826181588927 73.91173818411066"/><polygon points="478.6756264617296 52.00895979506298 502.8303741834111 51.83629248325553 502.23063530659573 75.56396863992913 479.09777854812677 75.56888811853985"/><polygon points="13.694020345208656 99.02735367854199 34.18521473720657 93.81478526279342 32.09259055158269 117.42592388491602 12.252418283655475 115.74758171634451"/><polygon points="47.019465958362424 89.68613262502907 69.82988226237609 100.83678440429057 71.84552275531476 114.51218942198142 50.87779016451023 119.78887650215643"/><polygon points="90.86068640880583 90.86068640880583 117.91346063232473 95.41987270100859 119.64088527208818 119.64088527208818 95.23340317885808 118.09993015447523"/><polygon points="138.23041955835888 95.56375289169219 157.47689900548613 98.52310099451385 163.00047718617097 120.33381051950428 138.03351128131135 117.96648871868867"/><polygon points="176.91811538011302 91.5847820467797 200.07743067280023 98.58923599386642 208.13841604879855 122.80508271546519 182.74791272087717 115.91875394578948"/><polygon points="225.80334596074414 97.80334596074414 246.52679920620545 94.80653412712786 239.4201636708759 111.42016367087588 225.55070174732623 115.78263158600708"/><polygon points="269.9993667173772 99.33270005071056 282.28009289481395 101.719907105186 288.52615417842924 117.85948751176257 259.87721881475704 124.12278118524296"/><polygon points="312.8621624153367 99.5288290820034 331.06365299061156 95.60301367605507 336.24373259229833 122.91039925896501 311.14138683035515 115.52527983631146"/><polygon points="349.25724736222804 93.25724736222809 379.65678960413516 89.6765437291981 374.9728154992239 118.97281549922388 353.98292480322675 115.35040853010656"/><polygon points="390.98337755034265 92.31671088367597 420.91735932536756 91.08264067463243 417.6731853746771 119.00651870801042 389.92562684376355 122.07437315623645"/><polygon points="437.5302640196021 96.19693068626879 465.0466693985957 89.61999726807086 461.0300492352911 119.69671590195779 433.0147208486929 121.65194581797374"/><polygon points="474.25049778599873 90.25049778599875 498.21614031994005 99.11719301339323 495.73931492919786 111.73931492919789 480.0009940251856 117.33233930814765"/><polygon points="5.719654439995285 133.71965443999528 28.070315230117803 142.59635143654887 27.261780061041925 155.26178006104195 9.264182677815073 161.4024839888516"/><polygon points="49.038351122444645 134.371684455778 80.61691379287339 132.71641954045995 69.20861373157814 154.54194706491148 58.79400350216166 154.53932983117167"/><polygon points="94.59484124250476 137.26150790917143 115.16495732892537 140.83504267107463 118.32753285418198 160.99419952084867 90.26079949575512 165.73920050424488"/><polygon points="136.14648378862336 136.14648378862336 164.91005076450395 133.75661590216274 162.06140149259184 162.06140149259184 143.24989778734903 155.41676887931766"/><polygon points="180.07890914153054 137.4122424748639 198.65927369002048 142.67405964331286 200.4926039402033 157.82593727353665 187.1549402321648 154.17839310116858"/><polygon points="221.3484113168105 136.0150779834772 252.09161364697772 131.90838635302228 247.04475768229923 161.71142434896592 219.30905156961433 164.69094843038567"/><polygon points="264.3605827150885 136.36058271508855 288.64024234336097 138.02642432330572 282.88719704847705 154.88719704847708 260.23422847373223 166.4324381929344"/><polygon points="306.43461108636274 135.76794441969614 328.6612456628559 140.67208767047737 327.7958613341385 157.12919466747195 307.42716391274274 161.90616942059054"/><polygon points="349.29452007830986 135.96118674497654 375.32694440437297 136.673055595627 371.5464736646385 158.21314033130523 355.4144435642783 156.58555643572166"/><polygon points="390.722939679913 134.72293967991303 419.49205558581 135.1746110808566 415.4377675735796 159.4377675735796 400.6339486419651 154.03271802470155"/><polygon points="441.88077183027065 143.21410516360402 459.4904411932976 137.84289214003567 462.940485417864 164.27381875119744 437.8513759262998 159.48195740703352"/><polygon points="478.42492754826674 137.09159421493345 507.5899805608866 132.41001943911337 501.8017112513424 160.46837791800908 485.5627078965634 154.4372921034366"/><polygon points="13.129982898140003 183.79664956480667 37.0326321981796 176.30070113515373 28.343878130471165 199.01054479713784 5.430646252570764 207.90268708076258"/><polygon points="52.284612745270195 180.2846127452702 79.70225772488563 176.29774227511436 75.91672620236982 203.9167262023698 52.46429641578176 203.53570358421823"/><polygon points="91.66680281864117 177.00013615197452 114.22184158187856 184.44482508478808 123.51305025619843 208.84638358953177 98.93964961237629 199.72701705429037"/><polygon points="138.21382154973415 180.8804882164008 154.99611961576142 186.33721371757193 161.94533740278607 204.61200406945272 139.71647562464207 201.61685770869127"/><polygon points="176.70185990822552 176.70185990822552 204.58546768813355 179.41453231186645 207.23449789315208 207.23449789315208 182.08069139456933 201.91930860543067"/><polygon points="219.81072584774364 177.14405918107698 245.35167606870786 181.3149905979588 248.31389871313863 205.64723204647197 221.94546255738138 204.72120410928528"/><polygon points="264.75697608110625 179.4236427477729 286.6094034836724 182.72392984966095 291.03698534067973 205.70365200734642 269.4843743672234 199.8489589661099"/><polygon points="305.20100374138985 177.2010037413899 337.06518545967066 174.9348145403293 332.95060200256154 204.9506020025616 310.19205911794796 201.80794088205195"/><polygon points="352.295895438451 181.6292287717844 372.48013617534264 182.186530491324 370.2041561641517 199.53748949748507 347.6731844616554 206.99348220501122"/><polygon points="399.74875869277986 186.41542535944654 421.66514660927527 175.66818672405805 414.17212515033646 200.83879181700314 391.61196036198965 205.7213729713437"/><polygon points="437.15409309655945 181.15409309655948 462.48884579750694 177.511154202493 461.8108886580103 205.81088865801033 431.68951026895144 208.3104897310485"/><polygon points="485.2332495389647 186.56658287229806 495.7877632598935 186.87890340677313 500.8368713700243 202.17020470335768 482.6457650434478 200.0209016232188"/><polygon points="14.530345733105367 227.8636790664387 36.79643862316258 219.2035613768374 36.13364484151441 249.46697817484772 15.192528371161178 240.8074716288388"/><polygon points="47.36288123652626 218.02954790319293 80.64113318824278 218.02553347842388 80.78426342429707 251.45093009096374 56.14423361398484 242.5224330526818"/><polygon points="94.22596192133943 222.22596192133943 114.24485505876642 227.08847827456688 121.58404424112209 249.5840442411221 99.92487284254088 241.40846049079244"/><polygon points="132.56583605067786 217.89916938401117 154.40939046387845 229.59060953612155 155.26676207979375 240.60009541312706 141.69994850602313 242.30005149397687"/><polygon points="186.7541639805881 229.42083064725475 203.8772150835852 222.78945158308144 204.71577770565492 247.38244437232157 175.31735582934485 251.3493108373218"/><polygon points="220.1410738981584 220.1410738981584 240.53719152512176 228.79614180821156 247.71302956183368 247.71302956183368 228.66379404681555 240.66953928651776"/><polygon points="272.483147670568 229.81648100390132 293.7612735265667 218.23872647343327 290.9698907826857 248.30322411601904 263.6745032981805 248.32549670181945"/><polygon points="312.149677767587 226.8163444342537 326.3175149620981 228.3491517045685 325.99085992337905 240.65752659004573 310.833178234852 243.83348843181454"/><polygon points="356.3697667785517 228.36976677855176 370.1028059559568 227.2305273773765 379.36384201320783 251.36384201320783 354.4147311797091 242.91860215362416"/><polygon points="396.25273517307846 225.58606850641183 422.0131290639907 217.98687093600932 414.83252275209014 244.16585608542348 399.00603289220993 240.99396710779004"/><polygon points="430.5870671405607 217.25373380722738 457.5007273546175 225.16593931204912 456.1626385335353 242.829305200202 442.59020828003327 240.07645838663336"/><polygon points="480.02076949775557 224.02076949775562 505.024422178654 220.30891115467927 501.04863033953575 245.0486303395358 474.2800253058261 251.0533080275072"/><polygon points="11.10004338961403 267.10004338961403 27.972099150675582 270.6945675159911 36.256219154402245 292.25621915440223 11.239063834654564 287.4276028320121"/><polygon points="56.93106766939852 270.26440100273186 73.87615062666414 267.4571827066692 77.39101231578074 290.72434564911407 59.2892719688738 282.04406136445954"/><polygon points="89.87492580043903 260.5415924671057 123.90229132808174 260.0977086719182 112.22244980136207 282.88911646802876 99.2089185658185 284.7910814341815"/><polygon points="138.41557166788158 266.4155716678815 154.85889835260465 271.807768314062 157.81428134061792 285.8142813406179 135.36486437025832 291.3018022964083"/><polygon points="183.77540338152915 269.10873671486246 203.02957983334136 266.30375349999196 203.47720898771294 288.8105423210462 175.37832179990002 293.9550115334333"/><polygon points="219.53824006421374 262.2049067308804 249.18564236302527 262.8143576369747 248.6088276290025 291.27549429566915 228.46916862306836 283.5308313769316"/><polygon points="263.9910466928045 263.9910466928045 294.3817635192066 260.28490314746006 292.95033108801107 292.95033108801107 270.0836689317104 284.5829977349562"/><polygon points="305.9810619188212 263.31439525215455 331.3695495312097 265.96378380212354 324.90219446474964 282.235527798083 304.11920425286866 293.2141290804646"/><polygon points="351.5063894329474 266.1730560996141 374.78206541658017 265.2179345834198 369.9831294710276 284.6497961376943 355.0012193695582 284.99878063044173"/><polygon points="396.1297150683222 268.1297150683222 412.97988375784166 269.68678290882497 410.21429848169356 282.21429848169356 398.4679188893322 284.1987477773344"/><polygon points="433.7315803162587 263.0649136495921 455.2062096930988 270.12712364023446 455.4750437338473 284.8083770671807 435.7729575977177 289.56037573561554"/><polygon points="477.1289362538124 263.7956029204791 500.6565962387918 267.34340376120815 505.31283068427376 291.97949735094045 477.88137004685933 290.1186299531406"/><polygon points="12.690997685584007 311.3576643522506 30.67299647344634 310.6603368598869 38.77026701600191 337.4369336826685 11.149129620270868 330.1842037130624"/><polygon points="48.39390988204812 304.39390988204804 70.14360290467981 313.8563970953201 75.89063448685737 331.8906344868573 54.885582390243876 329.11441760975606"/><polygon points="93.2584476584157 306.591780991749 124.14532262787668 302.52134403878995 120.23225628218655 333.56558961551985 96.0418846329602 330.6247820337064"/><polygon points="136.49769593100882 307.1643625976754 165.83800123055147 303.49533210278184 154.11518642557382 324.78185309224045 137.06229846449165 332.27103486884164"/><polygon points="177.18521073413024 305.1852107341302 208.63021642146404 303.36978357853593 199.28262485282343 327.2826248528234 186.33971444921795 325.66028555078196"/><polygon points="221.25155818935463 306.5848915226879 251.2430800090151 303.42358665765147 242.1245118030791 327.45784513641235 229.4774809401947 325.18918572647186"/><polygon points="264.51256071462933 307.17922738129596 289.3378394939969 307.99549383933635 286.6659312293077 329.33259789597435 269.07519510190025 328.258138231433"/><polygon points="312.25374285292054 312.25374285292054 336.81187357331686 303.188126426683 335.11248024779866 335.11248024779866 303.31742441125544 336.68257558874444"/><polygon points="351.9950934619018 309.3284267952351 373.8701258899064 308.7965407767602 367.3815041506378 324.7148374839711 357.2393526959058 325.4273139707608"/><polygon points="396.2392853715945 310.90595203826115 415.21046059894746 310.1228727343858 412.16966148444544 326.83632815111207 393.12650687215637 332.2068264611769"/><polygon points="435.5293333649276 307.5293333649276 464.9785124266967 303.0214875733032 455.39286798270734 327.39286798270734 433.36886634158026 334.6311336584196"/><polygon points="475.72398145187134 305.05731478520465 503.9562823976258 306.7103842690408 500.46249481863975 329.79582815197307 474.22243283295387 336.4442338337127"/><polygon points="8.131000132867271 349.46433346620057 32.32291184092637 351.6770881590736 30.281443447597944 371.61477678093127 9.420945249899342 374.5790547501006"/><polygon points="51.600521383670525 350.26718805033715 79.14843718008599 347.51822948658065 72.35796499993954 371.0246316666062 58.02585839787121 368.6408082687954"/><polygon points="96.02656796881169 352.02656796881166 120.01075341726491 349.3225799160684 123.9599193196025 379.9599193196025 96.52992173194878 372.80341160138454"/><polygon points="135.91777370623464 349.25110703956796 160.02617336266744 351.97382663733254 156.55850553186886 369.89183886520215 136.90255664895457 375.0974433510454"/><polygon points="185.62230152706613 356.2889681937328 209.3670291265524 345.2996375401142 197.96356003657414 368.63022670324074 177.89297900629074 376.77368766037586"/><polygon points="225.59211850756867 353.59211850756867 249.8602460113016 347.4730873220317 251.34081728227204 379.340817282272 224.68894409870742 372.64438923462586"/><polygon points="264.1103427509811 349.4436760843144 282.06451268295524 357.9354873170447 292.3507166412119 377.6840499745452 264.5051055572517 375.49489444274826"/><polygon points="313.20593687461366 355.87260354128034 332.8096528638573 349.85701380280926 329.46050838209993 372.1271750487666 304.07053520279436 378.5961314638722"/><polygon points="354.8187442467441 354.8187442467441 368.09748293556333 357.2358503977699 368.7242763786387 368.7242763786387 346.1419277334013 379.19140559993195"/><polygon points="400.5185050062545 357.8518383395878 422.7741231233012 345.22587687669875 419.47224047617374 376.80557380950705 393.1940865484481 374.8059134515518"/><polygon points="440.1197158415263 354.78638250819296 465.0441441253118 345.6225225413548 463.1130066382865 377.7796733049532 436.60285558472424 374.06381108194233"/><polygon points="483.1409138495289 355.1409138495289 497.1919940214496 356.14133931188366 505.599646630286 377.599646630286 474.7146769670456 378.61865636628767"/><polygon points="6.188393267800521 390.1883932678005 37.829709055650596 388.83695761101603 28.130054255462987 412.130054255463 14.569019263625078 412.09764740304155"/><polygon points="51.25722721540352 392.59056054873685 79.7854511451116 389.5478821882217 78.93027592018598 420.2636092535193 57.3502134011489 411.9831199321844"/><polygon points="93.7129172150669 392.37958388173354 121.3775388950348 390.62246110496517 121.10005122271986 419.76671788938654 98.08262149478624 413.9173785052137"/><polygon points="141.24090515077137 397.2409051507713 166.6898547630047 387.976811903662 162.4270040213481 418.42700402134807 137.51834342017406 417.1483232464926"/><polygon points="181.1169703687682 394.4503037021015 205.9922961908862 391.3410371424471 201.09648214021863 414.42981547355197 174.70956415508658 422.62376917824673"/><polygon points="229.28793953301866 399.9546061996853 251.15129961484743 388.84870038515254 248.1385191175576 418.80518578422425 224.64850700789654 415.35149299210343"/><polygon points="267.53698846409867 395.53698846409867 290.4611006320571 392.20556603460955 286.2839872352428 414.2839872352428 270.49834222286927 412.16832444379736"/><polygon points="308.00763875856137 393.34097209189474 336.2178028837377 389.11553044959555 335.4234429362068 420.7567762695402 302.82061505134084 422.5127182819924"/><polygon points="348.01018192380985 390.67684859047654 372.81525257515796 395.184747424842 371.6416757201167 414.3083423867834 354.66055946801856 413.3394405319814"/><polygon points="397.11535656920114 397.11535656920114 412.1429785888889 398.5236880777777 410.48696237423974 410.48696237423974 398.4208898030086 412.245776863658"/><polygon points="435.0511910485012 392.3845243818346 463.58053474246657 389.7527985908667 464.7406303122484 422.0739636455818 434.24123452337903 419.0920988099542"/><polygon points="485.0058065702912 399.6724732369579 500.0988305235686 395.90116947643133 501.1748883451576 415.8415550118243 474.6638381183437 421.33616188165627"/><polygon points="5.13622430541276 431.80289097207935 32.046627429366154 437.2867059039671 31.150178887358656 457.8168455540253 10.396073933869369 458.9372593994639"/><polygon points="51.43938375301892 435.4393837530189 73.26509042844384 438.7349095715561 72.9524055602021 456.95240556020207 55.40432253340252 456.5956774665974"/><polygon points="97.54937205544948 438.88270538878277 119.63055313064758 435.036113536019 118.99443816685407 460.32777150018734 92.5497958785337 462.1168707881329"/><polygon points="140.75030363431225 439.41697030097885 159.68212092473226 437.651212408601 159.84894187988297 458.5156085465496 132.15186067660687 465.18147265672644"/><polygon points="184.76225482073244 440.7622548207324 196.89668082074053 443.1033191792594 208.10360375469872 464.10360375469867 175.38640443567647 464.6135955643235"/><polygon points="220.0699110953385 433.40324442867177 251.9328390873119 430.73382757935474 243.31213538668123 456.64546872001455 228.93392350087228 453.7327431657943"/><polygon points="271.64323901073 442.3099056773966 283.6790350582176 441.65429827511565 284.3364246849177 455.0030913515843 264.8020279004631 460.53130543287017"/><polygon points="306.64030600453395 434.64030600453395 325.655244550766 442.3447554492339 325.36977483534616 453.36977483534616 308.30013808286907 459.6998619171308"/><polygon points="346.36118365608297 431.6945169894163 369.1306745592573 441.5359921074093 377.90053207393856 463.2338654072719 349.15185009203566 461.5148165746309"/><polygon points="396.3717730426996 439.03843970936623 415.05746272769096 438.2758706056423 422.2871887756857 464.95385544235234 392.84853112646357 460.4848022068697"/><polygon points="437.2612914742705 437.2612914742705 456.32616211481684 439.67383788518305 463.9961681439959 463.9961681439959 438.95235912427904 457.04764087572084"/><polygon points="479.3378914478723 436.67122478120564 507.4132793206126 431.25338734605396 506.89175594227083 464.22508927560415 476.73286903049444 461.93379763617213"/><polygon points="14.845564132004693 484.17889746533797 37.61703606337751 474.38296393662245 35.71641889910937 505.04975223244264 14.565268462403996 497.43473153759595"/><polygon points="52.159441630832816 478.82610829749945 80.69940074978153 473.9672659168851 74.48892819859375 501.1555948652604 58.984127113497806 495.6825395531688"/><polygon points="89.98868428208978 473.98868428208976 111.413013472564 485.92031986076927 115.66931353908551 499.66931353908546 96.89572225245686 500.4376110808764"/><polygon points="132.44135383391813 473.77468716725144 161.40182539357568 478.59817460642427 155.40799217293605 496.74132550626933 140.78901768476837 499.2109823152316"/><polygon points="178.4117418873534 477.07840855402003 204.93010143819643 477.73656522847017 197.13074195880188 495.7974086254685 177.03318738689202 505.63347927977463"/><polygon points="226.29931516048003 482.29931516048003 244.0720954170678 481.2612379162655 249.260758083281 505.26075808328096 217.60044753812969 507.7328857952036"/><polygon points="266.51502701857504 479.84836035190835 288.4760533465697 479.52394665343024 289.2723689000769 502.6057022334102 269.07520150559645 498.9247984944035"/><polygon points="306.82567683952124 477.4923435061879 325.1441373273719 485.5225293392947 332.02136402736227 502.68803069402895 311.9973269905206 498.66933967614597"/><polygon points="350.8631246397099 478.8631246397099 373.60517775170354 479.7281555816297 376.07815545893095 504.07815545893095 355.36310551865427 497.970227814679"/><polygon points="394.66373820583874 479.99707153917205 420.0969647354018 475.90303526459815 417.6674231199009 503.0007564532342 396.7415424948313 499.2584575051686"/><polygon points="438.66243214175125 481.32909880841794 457.79531005619555 480.871356610471 464.4652743422663 507.131941008933 432.15989796010126 506.5067687065653"/><polygon points="480.77239741160963 480.77239741160963 507.7787367361981 473.5545965971352 496.73981345513334 496.73981345513334 484.9281734741218 496.40515985921144"/>
</svg>
