<?xml version="1.0" encoding="UTF-8"?>
<svg xmlns="http://www.w3.org/2000/svg" id="RSSicon" viewBox="0 0 512 512" width="512" height="512">
  <defs>
    <style type="text/css">
      svg {
        background: black;
        margin: calc(50vh - 256px) auto 0;
      }
      
      polygon {stroke: darkorange; fill: none;}
    </style>
  </defs>
  <polygon points="3.8448536871662853 3.8448536871662853 37.48612477643603 5.180541890230636 30.130190354808406 30.130190354808406 16.599151125254668 26.067515541411996"/><polygon points="53.180238204000695 10.513571537334029 69.22173824138207 16.111595091951266 78.51715337855009 35.85048671188343 47.81791824033648 37.51541509299685"/><polygon points="99.78611403542253 14.452780702089203 114.62466454983513 13.375335450164854 121.24918256306034 35.915849229727016 89.85267985354356 38.14732014645643"/><polygon points="132.52364139825627 4.523641398256274 164.25359202008488 6.413074646581801 156.42826587610122 28.42826587610121 133.447238558787 37.219428107879665"/><polygon points="175.24409934575974 4.577432679093061 201.51950262221968 11.813830711113662 198.06782756837677 27.401160901710092 177.3129903132527 36.020343020080624"/><polygon points="220.37658438938604 7.043251056052723 250.30487706919286 5.695122930807122 248.21281345855425 34.87948012522091 228.16930453620188 27.8306954637981"/><polygon points="264.12768883260145 8.127688832601471 282.63087429112426 16.035792375542364 283.6621853523727 27.66218535237273 269.4057662626588 29.26090040400784"/><polygon points="314.2045694053405 15.537902738673916 332.1866068983288 9.146726435004485 328.42109637428706 29.75442970762046 310.90263601415006 30.43069731918321"/><polygon points="346.49660303987105 5.1632697065377435 376.5387186268524 7.461281373147575 377.72549623805764 36.39216290472433 355.8751730594964 28.124826940503596"/><polygon points="399.4220709294993 15.422070929499313 421.0344943153112 5.632172351355445 414.6891401145763 30.689140114576304 395.20531077832715 31.461355888339483"/><polygon points="437.39224820904235 10.725581542375737 453.3350647277399 15.998268605593356 461.0393124306133 34.37264576394669 442.528284331441 26.80504900189227"/><polygon points="474.3448676694163 5.011534336083024 507.85153002994696 4.148469970052986 497.9218929056902 28.588559572356882 483.8550336541179 28.14496634588204"/><polygon points="13.562263878971404 56.22893054563807 27.540370642250373 57.792962691082955 38.27356278589926 80.94022945256593 11.82627846874244 73.50705486459088"/><polygon points="59.09138259945314 59.09138259945314 72.20273447723588 55.79726552276412 80.69720707751168 80.69720707751168 47.874816504500856 80.12518349549914"/><polygon points="98.77857141731872 56.11190475065206 121.85243017806286 48.8142364886038 113.69129143973313 71.02462477306648 97.98322700360643 72.68343966306023"/><polygon points="133.58763529074213 48.25430195740878 163.99012542837653 49.3432079049568 163.40463699130487 78.07130365797151 143.11123659642755 70.2220967369058"/><polygon points="177.00571082812468 49.005710828124684 205.29043947658116 50.709560523418844 200.64958358865474 72.64958358865475 180.04451691586664 75.95548308413336"/><polygon points="220.9982533342562 50.33158666758953 250.0046868321515 48.66197983451515 244.8628931225243 74.19622645585764 218.10624449249622 80.56042217417044"/><polygon points="260.4422072751688 47.10887394183549 285.06733459663224 56.265998736701086 289.95953000674376 76.62619667341046 266.2213901772865 75.11194315604686"/><polygon points="305.0339008185436 49.03390081854368 330.73215811765033 53.26784188234959 328.7084500606731 72.70845006067317 311.7721018006515 72.22789819934843"/><polygon points="354.1538152761119 55.48714860944531 378.71826708062673 47.94839958603991 376.54752913795875 77.8808624712921 349.5310527773942 77.13561388927239"/><polygon points="399.100707081447 57.7673737481137 418.29122671856936 51.04210661476393 415.9963227341796 74.66298940084627 397.33611577844135 71.99721755489195"/><polygon points="433.83286672240496 49.83286672240502 460.0761358007006 51.92386419929932 455.3381729672336 71.3381729672337 435.31325202259643 76.68674797740351"/><polygon points="473.20020661013785 46.53353994347124 505.6751713305558 48.991495336110816 501.0075360976706 74.340869431004 480.86037427631544 73.80629239035116"/><polygon points="8.533101951051984 93.8664352843853 35.118482530017204 92.88151746998278 33.63765690366959 118.97099023700291 5.349230349982072 122.65076965001792"/><polygon points="59.282850024100874 101.94951669076754 78.90132768416686 91.7653389824998 77.33565416021204 120.0023208268787 59.27960157744083 111.38706508922583"/><polygon points="92.79032077641018 92.79032077641018 112.73240245531974 100.60093087801357 118.66491065240416 118.66491065240416 99.94147201745733 113.39186131587599"/><polygon points="138.28783665125036 95.62116998458366 154.22427611723833 101.77572388276167 156.77335900283106 114.10669233616439 135.26614661215544 120.73385338784456"/><polygon points="180.18054512739835 94.84721179406499 203.27880957855572 95.38785708811092 202.7008932353374 117.36755990200406 181.4972175683366 117.16944909833008"/><polygon points="220.8397369444584 92.83973694445841 248.07208103079932 93.26125230253399 240.73745668360164 112.73745668360164 218.9979679914876 122.33536534184572"/><polygon points="265.0863129572619 94.41964629059524 291.9823819149896 92.01761808501038 285.67613888004263 115.00947221337599 262.5571079770121 121.44289202298788"/><polygon points="304.4007533417533 91.06742000842 332.2821570597544 94.38450960691219 329.4312973143931 116.0979639810598 303.5574919526009 123.10917471406569"/><polygon points="353.753637476977 97.75363747697703 369.699853765519 99.63347956781432 376.2591955478448 120.25919554784483 347.10319589029547 122.2301374430378"/><polygon points="389.2241712188495 90.55750455218288 410.4909965083837 101.50900349161623 416.57322647707815 117.90655981041151 391.36525299280413 120.63474700719586"/><polygon points="438.51051891195846 97.17718557862518 457.060122112706 97.60654455396062 457.63782249264017 116.3044891593069 439.91779266968086 114.74887399698574"/><polygon points="473.3628232876447 89.3628232876447 499.38274617866904 97.95058715466425 505.28373415363035 121.28373415363039 477.5969170224097 119.73641631092359"/><polygon points="16.357267773454417 144.35726777345442 28.90162029051069 141.765046376156 30.72533820508375 158.72533820508377 11.156320746142837 159.51034592052383"/><polygon points="58.61156894781929 143.94490228115262 73.062210310086 140.27112302324736 78.08373079429506 163.4170641276284 50.676818566634914 162.65651476669842"/><polygon points="89.99105035533343 132.65771702200013 112.29402453408474 143.70597546591526 117.85452741688519 160.52119408355188 89.69350483954155 166.30649516045847"/><polygon points="139.28201336308362 139.28201336308362 162.90659858839575 135.76006807827093 156.09125094561963 156.09125094561963 144.5860531605507 154.08061350611598"/><polygon points="182.25720179335408 139.59053512668743 199.92876293833996 141.40457039499339 202.98420911152908 160.31754244486243 178.68341140742265 162.6499219259107"/><polygon points="220.16540626392418 134.83207293059087 244.48038735281247 139.51961264718753 251.72579335370276 166.39246002036944 217.37772722789714 166.62227277210286"/><polygon points="272.3001790759079 144.30017907590795 290.73940672668203 135.92725993998462 289.0878500578942 161.08785005789423 261.96119908977505 164.7054675768916"/><polygon points="312.3926844485922 141.7260177819256 333.5529072632197 135.78042607011358 329.93377658521536 159.26710991854875 304.9045837826151 164.42874955071818"/><polygon points="354.38978231133905 141.05644897800576 374.540937339348 137.45906266065197 374.7770568250717 161.4437234917384 351.80773980144454 160.1922601985554"/><polygon points="394.58188448075504 138.58188448075504 411.13912558923084 143.5275410774358 420.6138763482966 164.61387634829666 399.13830191411074 155.52836475255594"/><polygon points="437.59671832053766 138.93005165387103 458.54258122270085 138.7907521106324 454.3834457563055 155.7167790896389 432.4049842819229 164.92834905141038"/><polygon points="474.6514307142721 133.31809738093887 503.42641326650676 136.57358673349322 501.9182851413265 160.58495180799324 480.1519232133358 159.84807678666414"/><polygon points="15.569818903634683 186.23648557030134 32.969951153445116 180.36338217988822 32.59970455811654 203.2663712247832 11.386142001550665 201.94719133178268"/><polygon points="56.50206030977976 184.50206030977975 70.14344059796716 185.85655940203284 77.64691241356263 205.64691241356263 58.37472126707518 197.6252787329248"/><polygon points="95.17221003788134 180.50554337121469 115.06217867300724 183.6044879936594 119.63826142083396 204.97159475416728 99.51258524094796 199.1540814257187"/><polygon points="140.79824761124726 183.46491427791392 160.15408370315282 181.17924963018052 163.93774445441792 206.60441112108458 138.4281504027142 202.90518293061913"/><polygon points="179.70927869738514 179.70927869738514 202.50606469209887 181.49393530790113 200.08610925283108 200.08610925283108 175.04542130486635 208.95457869513365"/><polygon points="222.06747218815013 179.4008055214835 247.1943886827982 179.47227798386845 246.48932059895373 203.82265393228707 219.38020778747608 207.28645887919058"/><polygon points="272.2080903082338 186.8747569749005 286.23206150328366 183.10127183004965 285.658281471518 200.32494813818474 268.44659590129595 200.88673743203734"/><polygon points="307.5605584114112 179.56055841141125 335.62336885096624 176.37663114903373 335.8206704016071 207.82067040160717 303.3409410822745 208.65905891772545"/><polygon points="348.2250408682868 177.55837420162018 376.94678828542027 177.71987838124633 380.1195451503056 209.45287848363898 346.2673050949643 208.39936157170231"/><polygon points="399.6395254446659 186.30619211133254 413.7446914226931 183.5886419106402 421.9964843124096 208.66315097907628 397.93407718686274 199.39925614647058"/><polygon points="439.45456769836824 183.4545676983683 460.3528393809546 179.64716061904534 455.8437879213855 199.8437879213856 441.4301110110177 198.56988898898226"/><polygon points="480.2028248894743 181.5361582228077 498.658222488729 184.00844417793763 496.9600184215583 198.29335175489163 484.6872135366687 197.97945312999792"/><polygon points="5.356562127604837 218.68989546093817 32.43059957203875 223.56940042796123 32.102802064996446 245.43613539832978 14.388288222558245 241.61171177744174"/><polygon points="58.53363755401803 229.2003042206847 77.03919746593675 221.6274692007299 69.28930140368493 239.9559680703516 57.722905530874726 240.94376113579193"/><polygon points="91.97032909064582 219.9703290906458 119.2059202485346 222.12741308479872 111.49864445175217 239.49864445175217 96.02496977403048 245.30836355930285"/><polygon points="134.32094981713362 219.65428315046694 162.8925724866682 221.1074275133318 157.46066818169976 242.79400151503307 134.92406491469262 249.07593508530738"/><polygon points="180.42619935080472 223.09286601747138 202.9773485501141 223.68931811655256 209.06363059434074 251.7302972610074 182.09449185191735 244.5721748147493"/><polygon points="229.2776873174 229.2776873174 250.71741047230867 218.61592286102464 247.6184355110073 247.6184355110073 218.5012559427836 250.83207739054973"/><polygon points="265.2866051858973 222.61993851923063 292.34367215921 219.65632784079 292.5636472001509 249.89698053348428 268.3007158056596 243.69928419434038"/><polygon points="314.6114326923476 229.2780993590143 333.46445600505996 221.2022106616066 326.358824841391 241.0254915080577 314.85219045791814 239.81447620874846"/><polygon points="353.95485269847654 225.95485269847657 377.62644375390386 219.7068895794294 375.48141456248396 247.481414562484 348.9048246462911 248.42850868704215"/><polygon points="388.82123782082954 218.15457115416285 416.1393331990227 223.8606668009773 412.1226532224611 241.45598655579445 394.34366183354626 245.6563381664537"/><polygon points="435.38521618035793 222.05188284702461 455.28866538610106 227.3780012805655 460.63069936134224 247.29736602800895 432.5374154499616 250.12925121670497"/><polygon points="475.28155536474003 219.28155536474006 496.2192637276299 229.1140696057034 503.9657653957846 247.96576539578464 474.8169103244644 250.51642300886888"/><polygon points="9.68363560607214 265.68363560607213 28.893334493630395 269.77333217303624 36.505224085877224 292.5052240858772 10.525858806607992 288.14080786005866"/><polygon points="57.5959099241527 270.929243257486 73.67275110987734 267.660582223456 72.58337552164673 285.91670885498 58.430526454437306 282.902806878896"/><polygon points="92.66549199435123 263.3321586610179 122.79338822739504 261.20661177260496 119.27569939150008 289.9423660581667 97.8585396947961 286.1414603052039"/><polygon points="142.8678885876167 270.8678885876167 165.53815285723545 261.1285138094312 160.56332023265924 288.56332023265924 138.45916790538126 288.20749876128536"/><polygon points="185.01007878949198 270.3434121228253 208.19861850346047 261.13471482987285 207.43649451788517 292.76982785121845 179.7125067348387 289.6208265984946"/><polygon points="225.39299412421312 268.0596607908798 251.62927982037004 260.3707201796299 251.81101065627783 294.4776773229445 218.58660705015416 293.41339294984584"/><polygon points="268.21453421216245 268.21453421216245 287.3562211390042 267.3104455276624 294.20441432272384 294.20441432272384 261.53211857324413 293.1345480934225"/><polygon points="310.4944729058273 267.8278062391607 331.9002153226238 265.43311801070945 332.39901176055776 289.7323450938911 313.8246276465928 283.5087056867405"/><polygon points="351.9413417615268 266.6080084281935 370.8878627606424 269.11213723935754 377.38784265661474 292.0545093232814 355.15473025656223 284.8452697434377"/><polygon points="390.68351162945504 262.68351162945504 412.63732614249886 270.02934052416776 420.36607590993736 292.36607590993736 395.67988708376566 286.98677958290097"/><polygon points="437.14924503679873 266.4825783701321 453.5414641845805 271.79186914875277 463.7513529176265 293.08468625095986 435.014431244364 290.31890208896925"/><polygon points="476.0350250096654 262.7016916763321 506.1145375111301 261.88546248886985 497.79359089775295 284.46025756441963 476.8866034134059 291.11339658659404"/><polygon points="14.405875758393023 313.0725424250596 30.28457956609156 311.0487537672417 27.25424140280621 325.92090806947283 7.876061269723879 333.4572720636094"/><polygon points="54.11438027020555 310.1143802702055 70.4482373861031 313.5517626138968 73.02333069609277 329.0233306960927 51.140161479936296 332.85983852006365"/><polygon points="89.37778576368895 302.7111190970222 113.11950085849591 313.5471658081707 111.50754616121237 324.8408794945457 98.43589375166486 328.23077291500175"/><polygon points="139.3204928887842 309.9871595554508 162.3942364680108 306.9390968653225 165.46848515385537 336.13515182052197 135.57647924189124 333.75685409144205"/><polygon points="183.47421867763347 311.4742186776334 209.0904891789198 302.9095108210802 199.9389799754522 327.9389799754521 180.8323804537834 331.16761954621654"/><polygon points="217.76319659997975 303.09652993331304 245.20398346950097 309.46268319716563 250.58854671628998 335.92188004962327 229.06260407841728 325.60406258824935"/><polygon points="264.7894576475008 307.4561243141674 291.9388573485959 305.39447598473737 282.68844086092554 325.35510752759217 262.5499273514137 334.78340598191954"/><polygon points="310.3425116142157 310.3425116142157 326.8479956657114 313.1520043342885 337.16662693078825 337.16662693078825 306.2168528163313 333.7831471836686"/><polygon points="348.39059567825416 305.7239290115875 368.4309367694204 314.2357298972462 375.9647607829003 333.29809411623364 350.67933742500446 331.9873292416621"/><polygon points="388.3924630961387 303.05912976280536 422.2344678251573 303.09886550817595 411.98206851527783 326.64873518194446 399.7737619636423 325.55957136969096"/><polygon points="430.75107004486136 302.75107004486136 465.44274751920887 302.557252480791 460.09811100574404 332.09811100574404 440.0426884221138 327.95731157788606"/><polygon points="482.5141192155682 311.8474525489015 499.1167433314914 311.54992333517515 500.44941562036945 329.78274895370276 475.4575694978194 335.20909716884717"/><polygon points="16.00488383312429 357.3382171664576 33.70334403328122 350.29665596671873 30.475050461686905 371.8083837950202 6.542882334253658 377.4571176657463"/><polygon points="57.47991387552709 356.1465805421937 76.58607845051102 350.0805882161556 77.0998703025738 375.7665369692404 56.53894356750052 370.12772309916613"/><polygon points="91.08075936495521 347.08075936495516 121.03119626960971 348.3021370637236 117.1116669019584 373.11166690195836 92.27281844217272 377.06051489116055"/><polygon points="144.07773540135645 357.41106873468976 162.80373789656116 349.1962621034388 165.68946925536326 379.02280258869655 139.37449831296647 372.62550168703353"/><polygon points="184.67992456282002 355.34659122948665 201.944140837776 352.72252582889064 196.82621048734603 367.49287715401266 176.0277092388148 378.63895742785184"/><polygon points="218.66081043629126 346.66081043629123 239.90435277709952 357.4289805562338 248.47137446521907 376.471374465219 219.1048741710319 378.22845916230136"/><polygon points="265.2948187403974 350.6281520737307 282.79971395182 357.2002860481799 286.2742478230681 371.6075811564014 269.1230534110903 370.8769465889096"/><polygon points="315.2069061142736 357.87357278094026 336.86030828910214 345.80635837756444 333.8609332375513 376.527599904218 310.78056480008206 371.8861018665845"/><polygon points="347.39163130070347 347.39163130070347 377.2283460979342 348.10498723539905 371.9989423979642 371.9989423979642 349.9083793812761 375.42495395205714"/><polygon points="397.66707858684373 355.00041192017704 410.6897168859748 357.3102831140251 418.5255720381211 375.8589053714544 393.7048312684856 374.29516873151437"/><polygon points="433.22700523266894 347.89367189933563 456.2996459600207 354.36702070664586 464.3561269277065 379.0227935943732 432.59063812413933 378.07602854252724"/><polygon points="483.20708572554827 355.20708572554827 497.8951132613279 355.4382200720054 503.34051086954673 375.34051086954673 480.412251243848 372.92108208948525"/><polygon points="9.21875763903865 393.21875763903864 28.10884565834491 398.55782100832175 33.00578533787194 417.00578533787194 9.13891326306182 417.52775340360483"/><polygon points="46.92456383025818 388.2578971635915 80.17436439502156 389.1589689383118 72.39213606534415 413.7254693986775 49.44753365384875 419.8857996794846"/><polygon points="98.67869404870763 397.3453607153743 111.67790696721602 400.322093032784 115.67064950291159 414.33731616957823 90.00820800447538 421.9917919955246"/><polygon points="136.19510243404906 392.19510243404903 159.61644504459954 395.0502216220671 162.44877426408615 418.4487742640861 137.7007905540097 416.96587611265693"/><polygon points="179.89859215319981 393.23192548653316 204.85345714542171 392.4798761879116 198.2352189584603 411.56855229179365 179.10111994201935 418.23221339131396"/><polygon points="220.29506416546135 390.961730832128 249.14385719139347 390.85614280860653 240.33659312313887 411.0032597898055 228.26356779129318 411.7364322087068"/><polygon points="269.9309926915584 397.9309926915584 294.02166633749897 388.64500032916766 287.71110065422533 415.71110065422533 263.2236683152715 419.44299835139515"/><polygon points="310.7149009397877 396.04823427312107 336.06285545725234 389.2704778760809 333.99425803203354 419.3275913653669 314.0127987893548 411.32053454397845"/><polygon points="356.42191314009335 399.08857980676004 374.13340928055413 393.8665907194458 376.1933529046291 418.86001957129577 346.58209061430665 421.4179093856933"/><polygon points="390.7610897986368 390.7610897986368 415.45258721727413 395.2140794493925 411.49643245176634 411.49643245176634 397.44722304445867 413.21944362220796"/><polygon points="438.67853938869484 396.0118727220282 453.5064916727911 399.82684166054213 463.2551506928846 420.588484026218 435.4902293318295 417.8431040015038"/><polygon points="482.52941084027543 397.1960775069422 504.6548186953055 391.3451813046944 501.36344775366274 416.0301144203294 484.9278028882597 411.07219711174025"/><polygon points="15.943814118612707 442.6104807852793 27.06246539331989 442.2708679400134 29.777811566813675 456.4444782334803 14.005747957725431 455.32758537560784"/><polygon points="51.19119293195081 435.19119293195075 73.53857710935343 438.46142289064653 75.388501299887 459.38850129988697 52.98782266192448 459.01217733807545"/><polygon points="98.44999083157059 439.7833241649039 114.18791138051654 440.47875528615003 115.63460963445084 456.96794296778415 97.96724775907977 456.69941890758685"/><polygon points="138.17597485928573 436.84264152595233 161.17468512024732 436.158648213086 158.35641115565352 457.02307782232015 138.97965810926027 458.353675224073"/><polygon points="179.62504321941648 435.62504321941645 196.97288644279038 443.0271135572096 207.55345032187353 463.55345032187347 176.12358864553678 463.87641135446313"/><polygon points="224.67810561802986 438.0114389513631 252.0641370890039 430.6025295776627 245.88066052917486 459.2139938625081 224.67932990859617 457.9873367580704"/><polygon points="265.3704634396693 436.03713010633595 283.4813021292635 441.85203120406976 293.9960586117888 464.6627252784554 272.43115233274665 452.9021810005866"/><polygon points="303.1396880684524 431.1396880684524 329.27883088433487 438.721169115665 325.17273493047054 453.17273493047054 309.9259732682919 458.074026731708"/><polygon points="353.25438460896555 438.58771794229887 377.76249313081104 432.90417353585553 372.7127998291848 458.0461331625181 353.7951520154537 456.87151465121286"/><polygon points="399.1856922201427 441.8523588868093 412.2923609262913 441.040972407042 414.7710231000931 457.4376897667597 393.0157783185812 460.31755501475203"/><polygon points="435.61041518220117 435.61041518220117 461.2042184507101 434.7957815492898 456.1661505080451 456.1661505080451 435.83463377275615 460.16536622724374"/><polygon points="473.72181028556105 431.05514361889436 503.9088873157067 434.7577793509599 498.6304362784756 455.9637696118089 481.4820480911469 457.18461857551966"/><polygon points="12.576657273778153 481.90999060711147 32.88344234213663 479.1165576578633 34.76936756969532 504.1027009030286 5.290352829550347 506.7096471704496"/><polygon points="56.91057537351203 483.57724204017865 74.11142358910615 480.5552430775605 76.69587222735103 503.3625388940177 55.70487144421436 498.9617952224523"/><polygon points="96.19674549210174 480.1967454921017 118.66182901342201 478.67150431991126 122.21816378986354 506.2181637898635 96.92358024040466 500.4097530929286"/><polygon points="137.64043455262416 478.97376788595744 159.15160645099832 480.8483935490017 166.0755514248405 507.4088847581738 140.79569175241 499.20430824758995"/><polygon points="176.2718882584524 474.93855492511904 199.04322308075743 483.6234435859092 206.69718805136307 505.3638547180297 177.27506086089699 505.39160580576964"/><polygon points="228.6896326220792 484.68963262207916 247.35981431332948 477.97351902000383 247.69770923956344 503.6977092395634 221.19045890060738 504.14287443272593"/><polygon points="261.7474313122615 475.0807646455948 286.4916327685465 481.50836723145346 293.8251795750509 507.15851290838424 269.56731542734553 498.4326845726544"/><polygon points="315.10002020827716 485.76668687494384 334.0616309224278 476.60503574423876 334.4537253095232 505.12039197618986 306.98270599243756 503.68396067422907"/><polygon points="348.23309490815853 476.23309490815853 369.3334562146595 483.99987711867374 378.72577610314494 506.72577610314494 349.54151658530765 503.7918167480256"/><polygon points="388.64719354056797 473.9805268739013 412.0297877533908 483.97021224660915 420.344521032742 505.67785436607534 394.5738934002774 501.4261065997225"/><polygon points="441.49384230245204 484.1605089691187 455.11444604654884 483.55222062011774 453.1961369892814 495.8628036559481 439.4115989072484 499.2550677594182"/><polygon points="477.18235752290764 477.18235752290764 499.7574681244243 481.57586520890897 500.3157016089456 500.3157016089456 474.73621506345387 506.5971182698794"/>
</svg>
