<?xml version="1.0" encoding="UTF-8"?>
<svg xmlns="http://www.w3.org/2000/svg" id="RSSicon" viewBox="0 0 512 512" width="512" height="512">
  <defs>
    <style type="text/css">
      svg {
        background: black;
        margin: calc(50vh - 256px) auto 0;
      }
      
      polygon {stroke: darkorange; fill: none;}
    </style>
  </defs>
  <polygon points="16.017978655508927 16.017978655508927 35.9000728614886 6.76659380517806 32.91162951570762 32.91162951570762 7.085599437820253 35.58106722884641"/><polygon points="54.51702828187592 11.850361615209259 74.63353198172439 10.699801351608949 78.58121011084383 35.914543444177156 46.581124517378086 38.75220881595524"/><polygon points="100.69401183665369 15.360678503320358 120.63249812129064 7.367501878709344 123.43216540324116 38.09883206990783 99.2273196984487 28.77268030155129"/><polygon points="134.4888051616449 6.488805161644894 163.33581321256707 7.330853454099609 156.55051197761577 28.550511977615763 144.0968290559212 26.569837610745473"/><polygon points="176.8200960633537 6.1534293966870255 199.41742684868964 13.915906484643697 201.44777321679553 30.78110655012886 180.75643638754474 32.57689694578859"/><polygon points="227.85938533198006 14.526051998646746 240.8132603522444 15.186739647755568 251.22878639589817 37.895453062564854 227.81237621574513 28.18762378425487"/><polygon points="263.5045897810091 7.504589781009111 286.3550812684149 12.311585398251758 283.33258551653256 27.332585516532596 263.183264855877 35.48340181078966"/><polygon points="307.1710938187033 8.50442715203669 328.99162174058955 12.341711592743723 330.34424050572983 31.67757383906322 309.7246761664936 31.608657166839627"/><polygon points="355.2498131922605 13.916479858927222 374.7354910132158 9.264508986784193 368.79460651216027 27.461273178826985 355.31912537564887 28.68087462435108"/><polygon points="388.06094296104135 4.060942961041373 412.46950112950674 14.197165537159897 412.8282611343088 28.828261134308768 397.7007724064093 28.965894260257333"/><polygon points="437.1568276930881 10.490161026421472 464.2336556786808 5.099677654652492 453.50285717809464 26.83619051142803 440.94593843987474 28.387394893458517"/><polygon points="485.0931450672238 15.759811733890539 495.9297940217617 16.070205978238263 503.3161821334153 33.982848800082 482.18514382845103 29.814856171548946"/><polygon points="9.98793042040379 52.65459708707046 27.398906099724464 57.93442723360887 37.299233646988164 79.96590031365483 10.582501049388428 74.7508322839449"/><polygon points="54.227159233726056 54.227159233726056 72.74905431631788 55.250945683682126 71.62451322686012 71.62451322686012 57.89135223190219 70.10864776809781"/><polygon points="93.44659909835292 50.77993243168626 120.45305116596504 50.21361550070163 116.87493677236975 74.2082701057031 93.40334283635443 77.26332383031223"/><polygon points="144.4222818670199 59.088948533686555 162.49774519567384 50.83558813765951 154.09085073913073 68.75751740579739 137.51297187649484 75.8203614568385"/><polygon points="179.4495712170874 51.44957121708741 202.77018333129146 53.22981666870854 206.47125562472718 78.47125562472719 174.91535150550098 81.08464849449902"/><polygon points="218.30798319968818 47.641316533021524 249.06551736655615 49.601149300110514 239.87870136888444 69.21203470221779 227.45843468708622 71.20823197958045"/><polygon points="271.84876584200833 58.515432508675005 287.7258187333402 53.607514599993124 294.009510551507 80.67617721817366 260.9648177061992 80.36851562713412"/><polygon points="308.90014731305223 52.90014731305229 328.32484445534317 55.67515554465679 337.45177330137994 81.45177330137997 304.3230966862107 79.67690331378925"/><polygon points="354.56284233942364 55.896175672757 373.09070667393456 53.57595999273207 368.8094051595318 70.14273849286519 353.5790428293995 73.08762383726713"/><polygon points="399.0533326253467 57.719999292013384 412.66466637179457 56.66866696153875 416.52197102837005 75.18863769503675 388.78900460168194 80.54432873165138"/><polygon points="438.9429517115507 54.94295171155074 460.04355025406255 51.95644974593738 458.7462992442619 74.74629924426193 438.9357381085792 73.06426189142077"/><polygon points="483.46586703941193 56.799200372745325 496.2931717961694 58.37349487049724 502.3112690278123 75.64460236114562 484.9057040141449 69.76096265252174"/><polygon points="11.621195102720396 96.95452843605372 31.370804405957877 96.62919559404212 36.62423878736894 121.95757212070227 9.307796065126878 118.6922039348731"/><polygon points="51.006585942065286 93.67325260873194 81.38440814255259 89.28225852411407 74.29148122713639 116.95814789380304 58.941434452859106 111.72523221380756"/><polygon points="89.69915941942486 89.69915941942486 113.05897587179443 100.27435746153888 116.37338758929393 116.37338758929393 96.78752075253354 116.54581258079978"/><polygon points="132.73367839201487 90.06701172534818 163.48133769493901 92.51866230506099 157.1994257958458 114.5327591291791 141.5637964636409 114.4362035363591"/><polygon points="177.41955457787006 92.0862212445367 209.28689414761737 89.3797725190493 207.63579532893803 122.30246199560467 183.49482519529278 115.17184147137388"/><polygon points="222.96675968746635 94.96675968746635 247.0274977855057 94.30583554782763 249.0872672173494 121.08726721734939 217.4749055480097 123.8584277853236"/><polygon points="261.5076408418956 90.8409741752289 292.3165041856001 91.68349581439988 290.89248374992064 120.22581708325399 260.6320527486407 123.36794725135925"/><polygon points="311.51458591450796 98.18125258117469 332.072970720173 94.59369594649365 328.19757622042795 114.86424288709468 313.5066560718857 113.16001059478093"/><polygon points="354.0361657086747 98.03616570867472 378.65461142630585 90.67872190702744 370.04742462931983 114.04742462931985 351.84723518410993 117.48609814922337"/><polygon points="395.08697093838697 96.42030427172031 420.07914600844765 91.92085399155232 414.9608017500935 116.29413508342684 391.91377621446736 120.08622378553258"/><polygon points="435.96281844546695 94.62948511213368 454.2647446750293 100.40192199163728 455.64167427070987 114.30834093737656 437.34667777065124 117.31998889601535"/><polygon points="484.8815649251077 100.88156492510771 501.0131510589394 96.32018227439389 501.7375880532465 117.73758805324654 480.8738255522123 116.45950778112102"/><polygon points="5.952990094411875 133.9529900944119 34.070161943957075 136.5965047227096 35.24215556050157 163.2421555605016 10.33146056933577 160.3352060973309"/><polygon points="46.67389348926291 132.00722682259624 69.6360435442424 143.69728978909095 76.60517024510732 161.93850357844065 55.46163225807677 157.87170107525657"/><polygon points="95.89997262986729 138.566639296534 112.92820704220247 143.07179295779753 116.86681309719674 159.53347976386343 99.34752877801067 156.65247122198932"/><polygon points="134.22971169845928 134.22971169845928 163.93328918715542 134.73337747951126 159.6962931377223 159.6962931377223 134.64442590311634 164.02224076355034"/><polygon points="176.74887339711364 134.08220673044698 200.91385831587502 140.41947501745832 205.39076095622355 162.7240942895569 182.60781162193632 158.72552171139702"/><polygon points="217.5667521689668 132.23341883563347 240.77180988493623 143.22819011506377 247.16027690000985 161.82694356667653 229.54917022857853 154.45082977142147"/><polygon points="267.09046237392323 139.09046237392326 285.357405712445 141.30926095422168 289.5915954556548 161.59159545565484 269.96301349427324 156.70365317239344"/><polygon points="308.18380263070674 137.51713596404016 337.213032821069 132.12030051226427 336.6825737642137 166.0159070975471 308.4135871209293 160.91974621240394"/><polygon points="347.01622771349656 133.68289438016328 378.3432176764213 133.65678232357862 370.36436284896314 157.03102951562985 349.1054159452252 162.89458405477475"/><polygon points="392.7938802049691 136.79388020496918 413.9206766403077 140.74599002635895 410.1648469452435 154.16484694524354 388.68723873035583 165.97942793631083"/><polygon points="435.0476986419478 136.38103197528125 455.79050506803526 141.54282826529803 455.70145253524197 157.03478586857537 431.96158333761264 165.37174999572065"/><polygon points="480.06889507104967 138.73556173771638 498.63360509356903 141.36639490643097 505.9554298289231 164.6220964955898 478.39808611074517 161.6019138892548"/><polygon points="11.250732748337292 181.91739941500396 28.520600997960372 184.81273233537297 32.57955797564661 203.24622464231328 13.221205805801748 200.11212752753158"/><polygon points="53.12855427375985 181.12855427375985 78.50076739026021 177.49923260973978 75.13060940518808 203.13060940518807 54.33802171520796 201.66197828479204"/><polygon points="101.61442083677389 186.94775417010723 120.12382109644237 178.54284557022427 119.10826995497733 204.4416032883107 97.91450857592062 200.75215809074604"/><polygon points="134.13699844221603 176.80366510888268 160.42465248768886 180.90868084564448 156.6004881070829 199.26715477374955 132.99431115390786 208.33902217942546"/><polygon points="176.26088415139688 176.26088415139688 199.1970946609927 184.8029053390073 200.8091379856841 200.8091379856841 177.24851288588061 206.75148711411939"/><polygon points="228.75178256417684 186.08511589751018 247.62774818965624 179.03891847701044 239.6222157576112 196.95554909094454 220.94018196421695 205.7264847024497"/><polygon points="264.9817340711401 179.6484007378068 289.8043655057072 179.5289678276261 284.744390066003 199.41105673266966 270.32539808024694 199.00793525308634"/><polygon points="311.2528179648633 183.25281796486334 325.83591971663276 186.16408028336718 333.7538709754907 205.75387097549074 312.3683845036989 199.631615496301"/><polygon points="345.50185282899577 174.83518616232917 377.05170991471215 177.61495675195445 378.009099613797 207.34243294713036 346.38133206818736 208.28533459847927"/><polygon points="388.62357885199634 175.29024551866306 415.8574228726953 181.47591046063806 411.50684336181547 198.17351002848218 395.39346525959763 201.9398680737357"/><polygon points="442.9202020541478 186.9202020541479 457.29636556082835 182.70363443917157 457.5830675687022 201.58306756870226 439.32452181988816 200.6754781801118"/><polygon points="477.7346911494053 179.0680244827387 496.9566918263169 185.70997484034976 504.76765079887707 206.1009841322104 479.415169685194 203.25149698147263"/><polygon points="10.034063216061238 223.36739654939456 36.077278247308215 219.92272175269179 31.587117614903065 244.92045094823638 10.323082816739861 245.67691718326012"/><polygon points="52.32695535472673 222.99362202139338 77.5308932542253 221.13577341244135 73.55846143374578 244.22512810041243 48.71994027420226 249.9467263924644"/><polygon points="97.29384582237958 225.29384582237958 112.1097764636864 229.2235568696469 116.98616538923181 244.98616538923181 94.4986308656288 246.83470246770452"/><polygon points="133.2065420453834 218.53987537871672 166.34924285362652 217.65075714637348 166.16672995300215 251.50006328633546 143.06351820931977 240.93648179068023"/><polygon points="184.11373786031874 226.7804045269854 198.63135827514168 228.03530839152498 203.6421394515669 246.30880611823355 181.4021579199704 245.26450874669627"/><polygon points="221.68748074999633 221.68748074999633 241.58405548011348 227.74927785321984 244.9301521317431 244.9301521317431 228.39818934870732 240.935143984626"/><polygon points="265.7621252834163 223.09545861674965 294.68458509098406 217.31541490901589 285.3443549826941 242.6776883160274 263.12236235882983 248.87763764117014"/><polygon points="313.138522682823 227.80518934948975 331.69020393993793 222.9764627267287 331.619667203085 246.28633386975173 307.684538984128 246.98212768253865"/><polygon points="345.7003232254037 217.7003232254037 379.0822954241229 218.25103790921042 375.3266877765811 247.32668777658108 346.41568018038447 250.9176531529488"/><polygon points="389.4043347217475 218.7376680550808 418.63548574449567 221.3645142555043 421.86677229765496 251.20010563098828 394.52829310621075 245.47170689378925"/><polygon points="442.4354424087048 229.10210907537152 461.07871663461464 221.587950032052 461.55422815599013 248.22089482265687 433.3238086694443 249.34285799722227"/><polygon points="478.4151822687425 222.41518226874254 499.2878779867822 226.0454553465511 508.016656101474 252.016656101474 484.64398814739945 240.6893451859338"/><polygon points="12.457554163507188 268.45755416350715 32.599984827909374 266.0666818387573 31.360350029208895 287.36035002920886 14.541330947077297 284.1253357195894"/><polygon points="50.24140183305611 263.5747351663894 70.73421880800764 270.59911452532566 70.52537179091343 283.85870512424674 52.47181022339245 288.8615231099409"/><polygon points="93.76290085074665 264.4295675174133 123.22246758533805 260.7775324146619 117.37713133671267 288.0437980033793 89.96464284936411 294.03535715063583"/><polygon points="139.40297320858292 267.40297320858286 157.40304431530978 269.26362235135684 161.13353257994032 289.13353257994027 142.72927319304424 283.9373934736224"/><polygon points="185.41259233422747 270.7459256675608 208.31455818812464 261.0187751452087 207.11191566440237 292.4452489977357 177.51429608551743 291.8190372478159"/><polygon points="229.90938363659785 272.5760503032645 250.89861868591854 261.10138131408144 243.60843856977866 286.2751052364453 228.94973157324188 283.0502684267581"/><polygon points="270.3613570769337 270.3613570769337 282.9113394536121 271.75532721305456 283.528263459966 283.528263459966 267.83339366954345 286.8332729971232"/><polygon points="312.64052089205126 269.9738542253846 337.2726220955509 260.06071123778236 325.6915142782154 283.02484761154875 308.2276636785304 289.10566965480285"/><polygon points="349.2986641444014 263.9653308110681 377.06050489252215 262.9394951074778 368.93696600535384 283.6036326720205 355.9541241038832 284.04587589611674"/><polygon points="398.1288351093635 270.1288351093635 417.00154546146257 265.66512120520406 422.3749505278979 294.3749505278979 397.02034635826976 285.64632030839687"/><polygon points="436.3387723641638 265.67210569749716 454.7325650864849 270.60076824684836 458.22439076888844 287.5577241022218 434.3356569041647 290.99767642916856"/><polygon points="473.8862526860689 260.55291935273556 496.5266768402567 271.47332315974325 496.24167261655634 282.90833928322303 474.7807233962778 293.21927660372216"/><polygon points="4.751239410981665 303.4179060776483 30.26646830504326 311.06686502829 33.51138373018225 332.17805039684885 10.76060591624837 330.57272741708493"/><polygon points="48.1328442674794 304.13284426747936 81.40184824287952 302.59815175712043 73.73956025051427 329.7395602505142 49.19794120875241 334.80205879124753"/><polygon points="98.77185028167378 312.10518361500704 115.85033787189926 310.81632879476734 118.41304348931035 331.74637682264364 96.76600188516986 329.90066478149674"/><polygon points="132.19194073998148 302.8586074066481 154.29563118198536 315.03770215134796 162.47184845033115 333.1385151169977 133.32564405553953 336.00768927779376"/><polygon points="174.54056603360104 302.54056603360095 201.6875174397785 310.31248256022144 208.02530124789666 336.0253012478966 181.29662337075732 330.70337662924265"/><polygon points="227.15727248771677 312.49060582105005 248.28409354509247 306.3825731215741 251.7307420185928 337.0640753519261 220.29318575376337 334.37348091290323"/><polygon points="269.31220389549304 311.97887056215967 290.2892004644653 307.04413286886796 293.4313694483222 336.0980361149888 272.50209676503124 324.831236568302"/><polygon points="313.70649763472375 313.70649763472375 333.23244242057694 306.76755757942294 328.88271145783716 328.88271145783716 309.65632863679576 330.3436713632041"/><polygon points="350.4530868950326 307.7864202283659 376.2763258863139 306.3903407803527 379.85331949897807 337.1866528323113 356.3822363339285 326.284430332738"/><polygon points="398.3948465078466 313.0615131745132 421.259770344952 304.07356298838124 422.6953284581654 337.36199512483205 389.4788492416612 335.8544840916721"/><polygon points="441.25725254094044 313.25725254094044 464.2759384114654 303.7240615885345 462.38676606671595 334.38676606671595 439.0690938029365 328.9309061970634"/><polygon points="481.1313198444037 310.46465317773703 501.1389890737086 309.52767759295796 503.2959566568258 332.6292899901591 474.78556752685364 335.88109913981293"/><polygon points="9.385547768853582 350.71888110218686 31.22959200808682 352.77040799191315 35.63680494688245 376.97013828021574 4.945846775338563 379.0541532246614"/><polygon points="52.04371085458767 350.7103775212543 79.20031371979746 347.46635294686916 75.86021229714544 374.52687896381207 56.75260869673971 369.91405796992694"/><polygon points="100.40420699474903 356.404206994749 117.7739231455153 351.559410187818 112.79144762236412 368.7914476223641 89.37715199406418 379.9561813392691"/><polygon points="133.0049367332804 346.3382700666137 154.13563741274044 357.8643625872595 159.9396390982142 373.2729724315475 132.841346399853 379.158653600147"/><polygon points="183.97293273195461 354.63959939862127 197.35628291979995 357.31038374686665 200.48994590601396 371.1566125726806 181.79727769168647 372.86938897498015"/><polygon points="226.4843435027334 354.48434350273334 251.51997443657166 345.8133588967616 239.64764297487952 367.6476429748795 220.89007334937637 376.4432599839569"/><polygon points="262.80951529405223 348.14284862738555 293.6348111950816 346.3651888049183 292.4838459124254 377.8171792457587 263.21235333023384 376.7876466697661"/><polygon points="310.9535703087793 353.620236975446 334.95977643590896 347.7068902307576 331.77709354698703 374.4437602136537 307.1872927573761 375.4793739092905"/><polygon points="346.06081692082387 346.06081692082387 374.27270259847035 351.0606307348629 373.0911814702705 373.0911814702705 348.0748832618112 377.2584500715221"/><polygon points="398.1654752748998 355.4988086082331 421.0018073277904 346.99819267220954 422.2080526210879 379.54138595442123 393.8948420978904 374.10515790210957"/><polygon points="431.7609840237237 346.42765069039035 458.7206757036049 351.94599096306166 453.7742683107766 368.4409349774433 442.6528300347506 368.013836631916"/><polygon points="473.72477082773867 345.72477082773867 504.2130247264548 349.12030860687844 496.4514265640988 368.4514265640988 483.4841234603844 369.84920987294885"/><polygon points="5.7118002405795725 389.7118002405796 31.596508458292238 395.07015820837444 30.55824768301991 414.5582476830199 7.733044233889563 418.9336224327771"/><polygon points="52.21585185375157 393.5491851870849 80.14497190662738 389.1883614267059 73.5125838736347 414.845917206968 53.6874223472749 415.6459109860584"/><polygon points="94.02313869434535 392.689805361012 123.78443708849761 388.2155629115024 121.75538856952382 420.4220552361905 101.33309390638497 410.666906093615"/><polygon points="137.06313944884792 393.0631394488479 165.25959282041563 389.407073846251 162.72717760447347 418.7271776044734 139.43211555415675 415.2345511125099"/><polygon points="184.05909353624713 397.39242686958045 208.68017991982467 388.6531534135087 198.06618291834724 411.39951625168055 180.2761498972063 417.05718343612705"/><polygon points="221.498751051128 392.16541771779464 240.0720272389704 399.9279727610296 240.84402973967903 411.5106964063457 227.22204069584868 412.7779593041513"/><polygon points="266.3454422897153 394.3454422897153 290.1819567575542 392.48470990911244 289.93217089864726 417.93217089864726 265.29895433525996 417.36771233140666"/><polygon points="314.65498818928546 399.98832152261883 332.6266051314677 392.70672820186553 333.4668688522879 418.8002021856213 305.2756379590589 420.0576953742744"/><polygon points="348.72871377900276 391.39538044566945 377.2627934459237 390.73720655407624 377.6269764741537 420.2936431408204 357.726621508696 410.27337849130396"/><polygon points="391.42802880335284 391.42802880335284 413.57805824338914 397.0886084232775 413.60413358795483 413.60413358795483 394.8710143237342 415.79565234293244"/><polygon points="430.59746898595404 387.9308023192874 458.40709065177873 394.9262426815545 454.28629075665356 411.6196240899869 433.44805512650214 419.8852782068311"/><polygon points="477.05771533854397 391.72438200521066 507.31212493187815 388.6878750681218 502.4359259268995 417.10259259356616 484.7420398804685 411.25796011953145"/><polygon points="14.805153970787046 441.4718206374537 30.787717672789547 438.5456156605437 26.78007464930332 453.4467413159699 9.574515587088252 459.75881774624503"/><polygon points="50.7822645719757 434.78226457197565 80.73574184685611 431.2642581531438 79.84796975034264 463.8479697503426 47.04145235152994 464.95854764847"/><polygon points="91.89946418170032 433.2327975150336 114.88139355154418 439.78527311512244 113.22618601244753 454.5595193457808 89.21716632607337 465.4495003405932"/><polygon points="136.94764272459784 435.61430939126444 164.90641634248786 432.4269169908454 159.6087088832841 458.2753755499507 134.62925553534583 462.70407779798745"/><polygon points="179.32008338517042 435.3200833851704 200.56794439482803 439.4320556051719 207.72782743807548 463.72782743807545 184.21625579038803 455.7837442096119"/><polygon points="220.67491819378506 434.0082515271183 243.01489929393682 439.6517673727298 242.8694767979821 456.2028101313154 223.22430754846783 459.44235911819874"/><polygon points="265.8775804426977 436.54424710936433 286.3077371157653 439.02559621756797 282.73020600550984 453.39687267217647 263.8214481762741 461.51188515705917"/><polygon points="307.1416869405892 435.1416869405892 327.5780747984207 440.4219252015792 325.5474937131454 453.5474937131454 313.7721204458902 454.2278795541097"/><polygon points="355.254224407469 440.5875577408023 379.62462687020553 431.04203979646104 371.2627687856339 456.5961021189672 349.49283242754194 461.17383423912463"/><polygon points="393.00190872598796 435.6685753926546 418.5905912301681 434.74274210316514 416.35449305359367 459.0211597202603 391.19203794695466 462.1412953863786"/><polygon points="434.55636694186967 434.55636694186967 457.1814426013732 438.8185573986267 463.41351022470207 463.41351022470207 433.7583524688561 462.24164753114377"/><polygon points="483.53657438493485 440.86990771826817 501.8601068848099 436.80655978185666 505.9713684089582 463.3047017422915 484.184491382526 454.48217528414057"/><polygon points="3.9205861853070623 473.2539195186404 31.349278236048825 480.65072176395114 37.53051103520082 506.8638443685341 8.834009301101174 503.1659906988988"/><polygon points="47.17740254681904 473.8440692134857 77.16287493031001 477.5037917363566 71.34754389420655 498.01421056087315 57.729789049009625 496.936877617657"/><polygon points="99.53578892572541 483.5357889257254 122.07625819864106 475.25707513469223 122.15483366885621 506.1548336688562 96.40147445728944 500.93185887604386"/><polygon points="132.86995860621684 474.2032919395501 155.41002485696845 484.58997514303155 156.32072316077563 497.6540564941089 143.23353612413743 496.76646387586254"/><polygon points="176.55044733401832 475.21711400068494 200.5284430890424 482.1382235776242 198.30652872842668 496.97319539509334 185.47420316177346 497.19246350489317"/><polygon points="226.40502238281192 482.4050223828119 241.49695569799613 483.83637763533716 247.97827965819604 503.978279658196 223.01539562911395 502.31793770421933"/><polygon points="260.73025453765007 474.0635878709834 288.784384384826 479.21561561517393 283.52376819354816 496.8571015268815 266.7965720675339 501.20342793246607"/><polygon points="314.9986795546821 485.6653462213488 329.883586145368 480.7830805212986 333.1298976439262 503.7965643105929 310.2489492818312 500.4177173848354"/><polygon points="349.17917686246716 477.17917686246716 368.43730388227436 484.8960294510589 374.01763282362805 502.01763282362805 354.4792478944782 498.85408543885507"/><polygon points="391.09753556416223 476.43086889749554 412.32080552050917 483.6791944794908 422.056382226321 507.3897155596543 394.1755600584217 501.82443994157825"/><polygon points="435.65578637261905 478.32245303928573 459.7288337940247 478.9378328726419 459.592824754958 502.25949142162466 443.13449796357344 495.53216870309313"/><polygon points="475.7532752324282 475.7532752324282 501.2052495333033 480.12808380002997 498.55032368248357 498.55032368248357 477.4580945630503 503.875238770283"/>
</svg>
