<?xml version="1.0" encoding="UTF-8"?>
<svg xmlns="http://www.w3.org/2000/svg" id="RSSicon" viewBox="0 0 512 512" width="512" height="512">
  <defs>
    <style type="text/css">
      svg {
        background: black;
        margin: calc(50vh - 256px) auto 0;
      }
      
      polygon {stroke: darkorange; fill: none;}
    </style>
  </defs>
  <polygon points="5.311048870273954 5.311048870273954 34.26129621920091 8.405370447465755 29.516943789638802 29.516943789638802 13.823601610806296 28.843065055860368"/><polygon points="55.59410835027975 12.927441683613077 79.28927393498947 6.044059398343862 79.9768621858104 37.31019551914373 47.33060333307621 38.00273000025712"/><polygon points="91.56712931121254 6.233795977879213 115.03534250084836 12.964657499151627 118.92448220509132 33.591148871757994 100.78487693472557 27.21512306527442"/><polygon points="141.12121829669306 13.121218296693053 155.0247749721392 15.64189169452748 159.18466715223423 31.184667152234205 140.68937250694103 29.977294159725638"/><polygon points="181.24920158393547 10.582534917268795 201.08095751303827 12.252375820295065 206.06936114027022 35.40269447360355 186.34641276372503 26.986920569608294"/><polygon points="229.77936105978296 16.44602772644962 250.76119927421828 5.238800725781697 248.10030042386492 34.766967090531594 219.4697649173823 36.53023508261769"/><polygon points="265.5948005090264 9.594800509026417 290.3181446039497 8.348522062716976 285.8604273431989 29.860427343198957 263.0022250930963 35.664441573570365"/><polygon points="312.0765171295359 13.40985046286927 326.3617302891845 14.971603044148805 331.4719922380018 32.80532557133522 308.93525576255723 32.39807757077604"/><polygon points="354.9397292578685 13.606395924535247 367.61953716601715 16.380462833982804 376.8733537760145 35.54002044268118 351.80142972298853 32.19857027701144"/><polygon points="396.0073895265224 12.007389526522381 413.6276072745755 13.03905939209115 415.2310878811596 31.231087881159652 390.57302778442084 36.093638882245806"/><polygon points="439.31937581342845 12.652709146761845 455.552697269401 13.780636063932281 455.8848132622477 29.2181465955811 442.10930023211927 27.22403310121399"/><polygon points="484.4221428191946 15.088809485861347 502.9367404525643 9.063259547435642 497.05657998906406 27.723246655730748 478.19756706856646 33.802432931433515"/><polygon points="5.19539799608372 47.862064662750385 30.133927068275028 55.1994062650583 26.160816912078666 68.82748357874533 10.613478460030388 74.71985487330295"/><polygon points="54.20090630568457 54.20090630568457 73.52143161902993 54.478568380970074 71.92737305862465 71.92737305862465 47.55478709882493 80.44521290117507"/><polygon points="99.48080464148642 56.81413797481976 111.65529857168967 59.01136809497699 118.27685154511742 75.61018487845077 96.15636742918025 74.51029923748641"/><polygon points="135.44356248661052 50.11022915327716 161.376668673748 51.956664659585364 165.0387409036113 79.70540757027797 133.07504690859741 80.25828642473594"/><polygon points="183.90092707660364 55.90092707660362 199.9256695919469 56.07433040805311 208.3369504650747 80.3369504650747 186.62191683812267 69.37808316187731"/><polygon points="225.60050359744494 54.93383693077829 250.01071191653844 48.655954750128224 242.78197688835468 72.115310221688 218.05239446543555 80.61427220123112"/><polygon points="268.48710850070313 55.15377516736984 286.0079425277605 55.32539080557279 290.857108977286 77.52377564395265 265.535407955814 75.79792537751935"/><polygon points="302.55149583506494 46.551495835064976 328.99411634189744 55.00588365810249 333.8177979369266 77.81779793692661 306.17289234537634 77.82710765462359"/><polygon points="349.0891602172605 50.42249355059388 376.66924947963236 49.99741718703426 377.6837102864496 79.01704361978294 347.7659866528616 78.90068001380502"/><polygon points="399.41936538333596 58.08603205000266 419.19297127359164 50.14036205974166 419.7667063846209 78.43337305128757 396.00983007778825 73.32350325554503"/><polygon points="430.5975550686823 46.59755506868238 455.1530128625206 56.846987137479324 457.4876136775339 73.48761367753397 437.11955868979265 74.88044131020726"/><polygon points="484.54757463259176 57.880907965925125 505.32136112222486 49.34530554444178 500.96608775407447 74.29942108740784 480.0183379858488 74.64832868081785"/><polygon points="11.489147987298098 96.82248132063143 30.248680929506925 97.75131907049307 31.84796378235893 117.18129711569226 10.346054127293767 117.65394587270622"/><polygon points="59.234645128721795 101.90131179538845 74.36359403667028 96.30307262999638 68.71842555716101 111.38509222382767 48.40035613350025 122.2663105331664"/><polygon points="94.44840001379575 94.44840001379575 113.23627321391528 100.09706011941803 117.19910946364705 117.19910946364705 100.57218388580442 112.7611494475289"/><polygon points="131.95441561291338 89.2877489462467 154.96286806648706 101.03713193351295 158.49664303468566 115.82997636801898 135.98632735964927 120.01367264035073"/><polygon points="184.86180923282427 99.52847589949091 207.76947812665924 90.89718854000743 205.67843369102684 120.34510035769351 183.26727877895115 115.3993878877155"/><polygon points="217.48602696038546 89.48602696038546 243.65262082979066 97.68071250354264 244.9868033797933 116.98680337979329 217.84167463655342 123.4916586967799"/><polygon points="272.24909343971615 101.58242677304946 292.5005194205209 91.49948057947907 288.566418484043 117.89975181737636 270.65085551964995 113.34914448035002"/><polygon points="308.8858259895822 95.55249265624893 335.9319278141022 90.73473885256439 335.2088815796993 121.87554824636602 310.7013696819553 115.96529698471129"/><polygon points="353.71161174967364 97.7116117496737 378.1941595741451 91.13917375918821 371.13245754525894 115.13245754525896 357.0615939727852 112.27173936054808"/><polygon points="392.9432566032925 94.2765899366259 410.22777073446036 101.77222926553962 415.6367022640566 116.97003559738998 393.22250598648037 118.77749401351961"/><polygon points="433.5124739261412 92.17914059280787 463.542702473471 91.12396419319559 462.21292813070596 120.87959479737266 439.2664762183017 115.40019044836488"/><polygon points="484.9705013339435 100.9705013339435 501.9641667988246 95.36916653450872 496.62778341085726 112.6277834108573 479.55353793242097 117.77979540091232"/><polygon points="8.222526866173617 136.22252686617364 27.053604894738996 143.61306177192768 31.472050598190805 159.4720505981908 5.118522312350581 165.5481443543161"/><polygon points="54.18898184415128 139.52231517748461 78.46922027251324 134.8641130608201 78.30298970262686 163.6363230359602 52.89501427120398 160.43831906212935"/><polygon points="90.40120861679289 133.06787528345956 115.41872529983623 140.5812747001638 122.89655748904244 165.56322415570912 95.07262801023793 160.92737198976207"/><polygon points="138.07153696120704 138.07153696120704 162.50957930818848 136.1570873584782 161.71010126847568 161.71010126847568 135.26554695907683 163.40111970758986"/><polygon points="175.84033399549065 133.173667328824 201.04524378828305 140.2880895450503 201.402860804501 158.73619413783433 180.3903084614844 160.94302487184893"/><polygon points="222.18497531462228 136.85164198128896 245.71869054039536 138.28130945960464 250.20227788560368 164.86894455227036 221.50995281364033 162.49004718635967"/><polygon points="264.3943001803286 136.39430018032866 285.082279139525 141.58438752714167 282.4745480851372 154.47454808513726 263.62195265704065 163.04471400962603"/><polygon points="306.7166167835938 136.0499501169272 325.02185063330285 144.31148270003047 334.79758352175185 164.13091685508525 310.560132590848 158.77320074248527"/><polygon points="349.21437454162253 135.88104120828925 378.4412578939816 133.5587421060184 376.8495520167291 163.5162186833958 350.19728507874146 161.80271492125854"/><polygon points="398.13878833121663 142.13878833121663 417.92561870063395 136.74104796603268 415.9850831813203 159.9850831813203 389.438339779087 165.22832688757964"/><polygon points="438.198101997586 139.5314353309194 455.5124949287608 141.82083840457244 455.6439541986368 156.97728753197018 440.1930558039199 157.1402775294134"/><polygon points="483.0243812322499 141.69104789891657 506.7682273517982 133.23177264820174 505.7038660632887 164.37053272995536 478.3915145774197 161.6084854225803"/><polygon points="11.136967748974957 181.80363441564162 31.079588132541822 182.2537452007915 30.19676454467305 200.86343121133973 11.235159373042398 202.09817396029092"/><polygon points="55.128577638398525 183.12857763839853 69.75709091276866 186.24290908723134 71.91098473972696 199.91098473972696 47.86754054568368 208.13245945431632"/><polygon points="90.03746405593012 175.37079738926346 117.54937293119724 181.11729373546942 117.77154492659034 203.10487825992368 91.31585014404449 207.35081652262218"/><polygon points="138.78196910735988 181.44863577402654 157.61756312928065 183.7157702040527 161.9911604998304 204.65782716649707 143.41720984854774 197.9161234847856"/><polygon points="177.4767163122436 177.4767163122436 203.42325788372244 180.57674211627756 209.30061138318808 209.30061138318808 175.82997504389346 208.17002495610654"/><polygon points="222.4725603822073 179.80589371554063 251.38633745106256 175.2803292156041 239.49797819780716 196.8313115311405 222.50483448881056 204.1618321778561"/><polygon points="266.31882398402104 180.98549065068772 287.9678312429387 181.36550209039464 294.49318422187366 209.15985088854035 261.5097077684791 207.82362556485427"/><polygon points="306.37533337848953 178.3753333784896 327.99086320826393 184.009136791736 325.3305846146517 197.3305846146517 314.89636656994907 197.10363343005088"/><polygon points="353.97991094829973 183.3132442816331 378.43467438328537 176.2319922833813 374.2141932803861 203.54752661371947 345.8063874512437 208.86027921542293"/><polygon points="392.2153985271218 178.8820651937885 420.668029524319 176.6653038090143 417.40038330619325 204.06704997285996 392.8276787448858 204.50565458844753"/><polygon points="431.07368634423295 175.073686344233 456.196864494422 183.8031355055779 459.0644084736792 203.06440847367924 433.217636301062 206.78236369893798"/><polygon points="482.365105803061 183.69843913639434 497.27117806333797 185.39548860332866 508.0465472057845 209.3798805391179 477.6885288092133 204.97813785745333"/><polygon points="8.208251128970945 221.54158446230426 30.550580761932117 225.44941923806786 36.143367748365065 249.4767010816984 14.220325887841014 241.77967411215897"/><polygon points="59.034964094746755 229.7016307614134 76.02293027963354 222.6437363870331 78.76591080115675 249.4325774678234 48.68641434641358 249.98025232025307"/><polygon points="97.29543072657543 225.29543072657543 112.91129026732631 228.422043066007 112.81243631644155 240.81243631644156 90.77439821008569 250.5589351232476"/><polygon points="132.03392815284644 217.36726148617976 159.00629809327668 224.99370190672332 166.48593088937398 251.8192642227073 139.55800537641733 244.44199462358267"/><polygon points="177.34537003850193 220.01203670516858 207.92665587141562 218.74001079525104 208.4085368919533 251.07520355861996 175.24290021322335 251.4237664534433"/><polygon points="228.50812333499724 228.50812333499724 239.4207634379752 229.9125698953581 249.8115347331106 249.8115347331106 218.57034229924352 250.7629910340898"/><polygon points="268.2721786741799 225.60551200751325 287.82227481012166 224.17772518987832 283.5337989738778 240.86713230721116 260.0666150073488 251.93338499265116"/><polygon points="303.16068874208526 217.827355408752 331.3805717174296 223.286094949237 333.10185059563514 247.76851726230183 308.7033758613066 245.96329080536003"/><polygon points="345.9132932585555 217.9132932585555 373.82679070271666 223.5065426306166 373.0704049821368 245.0704049821368 353.791462868262 243.54187046507127"/><polygon points="390.819403841518 220.15273717485135 414.89912907475014 225.1008709252498 421.7863228943101 251.11965622764342 392.2953677758507 247.70463222414926"/><polygon points="433.10424737463177 219.77091404129848 458.9794357672094 223.6872308994572 457.3762387934032 244.04290546006993 437.01929733383395 245.64736933283265"/><polygon points="478.5741226661706 222.5741226661706 498.064092170674 227.26924116265928 503.3566647744579 247.35666477445793 476.781527123215 248.5518062101183"/><polygon points="12.632318009593824 268.6323180095938 38.13158470495339 260.5350819617133 31.739671449386748 287.7396714493867 5.1336059565451215 293.5330607101215"/><polygon points="47.55035182123188 260.88368515456517 73.96681263092388 267.36652070240945 75.31975701931732 288.6530903526506 51.53267609205087 289.80065724128247"/><polygon points="100.14087295755965 270.8075396242263 116.33814767539135 267.6618523246086 121.30962998498441 291.97629665165107 95.72320234358159 288.2767976564184"/><polygon points="136.256744826253 264.256744826253 154.62332318743353 272.0433434792331 155.70191928171525 283.7019192817152 138.80515141209065 287.86151525457603"/><polygon points="180.0109852565018 265.3443185898351 202.80780113937485 266.5255321939585 201.92587195607007 287.2592052894034 176.19973948153458 293.1335938517987"/><polygon points="227.02147091737703 269.6881375840437 242.8799121672543 269.1200878327457 247.58710548579955 290.2537721524662 226.89851968389536 285.10148031610464"/><polygon points="261.51581591870814 261.51581591870814 282.35502344280934 272.3116432238573 290.86134969619224 290.86134969619224 265.8467838638079 288.81988280285873"/><polygon points="302.9551350632206 260.288468396554 333.642385393765 263.6909479395683 327.97074119670896 285.3040745300423 313.0480715913239 284.28526174200937"/><polygon points="347.977906897356 262.64457356402266 377.35924495948393 262.640755040516 379.9472161606847 294.6138828273514 350.29018720278333 289.7098127972166"/><polygon points="390.27493396429867 262.27493396429867 420.40198648966344 262.2646801770032 419.7364883855696 291.7364883855696 392.7189267310864 289.9477399355802"/><polygon points="442.08101623184575 271.4143495651791 459.46568441710997 265.8676489162233 455.3371118187959 284.6704451521293 431.803760882936 293.52957245039727"/><polygon points="474.39765094700056 261.06431761366724 499.3826079105951 268.61739208940486 503.5769617870412 290.24362845370786 485.73496214660446 282.2650378533955"/><polygon points="6.254359383924664 304.92102605059125 33.29792574874502 308.03540758458826 32.521817228242696 331.1884838949093 8.091207384789257 333.242125948544"/><polygon points="57.595190476926255 313.5951904769262 74.09802982682119 309.90197017317877 74.59956688387206 330.599566883872 57.1768079784237 326.82319202157623"/><polygon points="98.21881201369044 311.5521453470237 117.06453655479474 309.6021301118719 113.26518512191598 326.5985184552493 97.26907912277161 329.397587543895"/><polygon points="132.25736517156395 302.9240318382306 157.50819273200236 311.82514060133093 165.91820929103648 336.5848759577031 140.22887338457932 329.10445994875397"/><polygon points="187.01994533988073 315.0199453398807 196.77261702418653 315.2273829758134 204.3918267056482 332.39182670564816 179.03912174619774 332.9608782538022"/><polygon points="224.9806218877564 310.3139552210897 244.60735821749498 310.0593084491716 245.92055531573595 331.25388864906927 223.5068074296025 331.1598592370641"/><polygon points="269.8996295078251 312.56629617449175 285.3420993453294 311.99123398800384 293.3752607032085 336.0419273698751 265.3504748637007 331.98285846963256"/><polygon points="307.8526903803023 307.8526903803023 326.7266374313143 313.27336256868557 326.3290169475397 326.3290169475397 303.1270661683129 336.87293383168696"/><polygon points="346.6796425386527 304.012975871986 372.56629345420873 310.10037321245784 368.75975520375744 326.09308853709075 356.06608794778776 326.6005787188788"/><polygon points="393.0591716535382 307.72583832020484 420.2086772821778 305.12465605115545 417.6620911169686 332.32875778363524 398.21578370912397 327.1175496242093"/><polygon points="437.9700596726374 309.9700596726374 463.77559274631835 304.22440725368153 453.85309016218656 325.85309016218656 437.8123103572062 330.1876896427937"/><polygon points="474.7744477663919 304.10778109972523 499.27272275653127 311.3939439101353 507.0004609289959 336.3337942623292 484.3285067874909 326.3381598791757"/><polygon points="8.653021328495662 349.98635466182895 38.03070156314397 345.969298436856 37.09528498190602 378.4286183152393 9.426397188569382 374.5736028114306"/><polygon points="49.34024128174128 348.0069079484079 69.01923713991768 357.64742952674897 78.33090963362886 376.99757630029546 57.369351482889634 369.297315183777"/><polygon points="96.70251949220399 352.702519492204 123.27650639477233 346.05682693856096 120.88813449907965 376.8881344990796 96.4101279986208 372.9232053347125"/><polygon points="133.29604064942066 346.629373982754 154.43658414977438 357.56341585022557 166.61496938085187 379.94830271418516 141.54275145752135 370.4572485424786"/><polygon points="176.760189796814 347.42685646348065 204.16711183387724 350.4995548327894 200.65224909579229 371.3189157624589 184.90091881025518 369.76574785641145"/><polygon points="227.72629303921846 355.72629303921843 248.2078205448348 349.1255127884985 244.40173579704785 372.4017357970478 226.477131902755 370.85620143057827"/><polygon points="260.3186577741506 345.6519911074839 287.0387864829013 352.96121351709866 287.4344120187898 372.76774535212314 261.9548546358017 378.0451453641982"/><polygon points="309.0270008865081 351.6936675531748 326.8418219673203 355.8248446993463 336.01269628991344 378.6793629565801 314.2729174902954 368.3937491763711"/><polygon points="351.7976977254941 351.7976977254941 368.4601975606835 356.87313577264973 378.6891893904801 378.6891893904801 356.09799486785295 369.2353384654803"/><polygon points="400.4443658912867 357.77769922462 414.11631581725834 353.8836841827416 419.5948245153471 376.9281578486804 392.09654561347355 375.9034543865264"/><polygon points="436.76073833497736 351.42740500164405 455.51722716833535 355.1494394983312 458.36980701697956 373.03647368364625 431.3888662899428 379.27780037672375"/><polygon points="481.2182571110927 353.2182571110927 496.464131551637 356.86920178169623 500.0404093634546 372.0404093634546 480.54202969401996 372.7913036393133"/><polygon points="11.908036749393448 395.90803674939343 27.275409598617813 399.39125706804884 30.616397677868175 414.6163976778682 10.369034052194982 416.29763261447164"/><polygon points="56.23016351408986 397.56349684742315 72.93583833659878 396.39749499673457 70.85632506039848 412.1896583937318 46.58897180146438 422.74436153186895"/><polygon points="95.89241799836721 394.5590846650339 112.55542169673626 399.4445783032637 113.08822404558087 411.7548907122475 92.30626745427423 419.69373254572577"/><polygon points="138.8943860365146 394.89438603651456 160.2113541384097 394.45531252825697 162.70412431416986 418.70412431416986 135.87307575332574 418.7935909133409"/><polygon points="180.17031786853687 393.5036512018702 203.87131899192056 393.4620143414127 203.13479528911512 416.46812862244843 175.37902555005994 421.95430778327335"/><polygon points="219.97247327189243 390.6391399385591 250.06095053047807 389.9390494695219 242.69764093369363 413.3643076003603 225.89944146865156 414.10055853134844"/><polygon points="260.79778198608267 388.79778198608267 290.67318776586023 391.9934789008064 293.60549151845976 421.60549151845976 269.6859588026351 412.9807078640315"/><polygon points="313.2941240089382 398.62745734227155 325.92320248324677 399.4101308500865 334.8625029245816 420.19583625791495 314.0335392386715 411.29979409466176"/><polygon points="347.343966229103 390.0106328957697 372.8222049383395 395.17779506166045 372.69359805951984 415.36026472618653 353.21959745423806 414.78040254576183"/><polygon points="388.87216572468077 388.87216572468077 415.9037567497881 394.7629099168785 410.23980235362455 410.23980235362455 396.3284747985103 414.33819186815634"/><polygon points="443.23290823733566 400.56624157066904 463.21241066497885 390.1209226683544 463.0740448680776 420.40737820141095 431.60178695425077 421.7315463790825"/><polygon points="475.988766250167 390.65543291683366 498.73537907459536 397.2646209254046 501.06297387983744 415.72964054650413 481.7166722718379 414.283327728162"/><polygon points="4.979036857591307 431.6457035242579 30.482895143558096 438.85043818977516 27.28934162659018 453.9560082932568 7.3613989627248095 461.97193437060844"/><polygon points="49.37979227727764 433.3797922772776 74.04803315966342 437.9519668403365 70.67371287926254 454.6737128792625 58.99111751478478 453.00888248521517"/><polygon points="95.59611566877845 436.92944900211177 114.00757736454214 440.65908930212447 114.09770674303898 455.43104007637226 95.83766366968668 458.8290029969799"/><polygon points="134.9057645294267 433.5724311960933 160.60686569082173 436.7264676425116 154.92456296098115 453.59122962764775 144.63744480617876 452.6958885271545"/><polygon points="186.60721734194155 442.6072173419415 198.7010117815426 441.29898821845734 203.83879791576425 459.8387979157642 174.78536789674038 465.2146321032596"/><polygon points="222.78317833215308 436.11651166548637 240.59375461726566 442.07291204940094 241.88620185555803 455.2195351888913 226.6872761735983 455.9793904930683"/><polygon points="272.21612231213686 442.8827889788035 283.7790095272774 441.55432380605583 282.74956538878337 453.41623205545 264.40285931934096 460.9304740139923"/><polygon points="309.33021576266947 437.33021576266947 329.3227165139814 438.6772834860185 336.41412916431136 464.41412916431136 306.75114433283403 461.24885566716586"/><polygon points="357.7557608994615 443.0890942327948 377.0228180385634 433.64384862810317 377.4083597632411 462.7416930965744 345.27070887089735 465.3959577957692"/><polygon points="391.00320806577116 433.6698747324378 414.03245193327217 439.3008814000611 410.9956417561729 453.66230842283954 388.99386097690467 464.3394723564286"/><polygon points="433.7349865685842 433.7349865685842 457.1337615861758 438.8662384138241 454.2053038152796 454.2053038152796 434.7806017196309 461.219398280369"/><polygon points="473.37367923533026 430.7070125686636 501.5427959708065 437.1238706958601 505.89198444234023 463.22531777567355 478.10432972513473 460.56233694153184"/><polygon points="12.443588699199353 481.77692203253264 32.82388847920973 479.17611152079024 26.305879341389062 495.63921267472233 9.308612570952778 502.69138742904715"/><polygon points="48.43649408069709 475.10316074736375 70.53624018457255 484.1304264820941 74.15204391179 500.81871057845666 50.58402124373663 504.08264542293"/><polygon points="94.04592951481352 478.0459295148135 115.6821685800272 481.6511647533061 116.7869998816678 500.7869998816678 93.69014299161316 503.6431903417201"/><polygon points="134.70291494596893 476.0362482793022 165.86470158162481 474.13529841837516 164.57789648615946 505.91122981949275 140.145042421008 499.854957578992"/><polygon points="183.24983704868293 481.91650371534956 200.19153935986074 482.4751273068059 201.24620856515872 499.91287523182535 175.51126573088084 507.1554009357858"/><polygon points="227.4435336663791 483.4435336663791 250.42418154370188 474.90915178963144 240.14140850329574 496.1414085032957 226.89991118972924 498.43342214360405"/><polygon points="267.4042145492131 480.73754788254644 287.84178985249855 480.1582101475014 285.27886601810735 498.61219935144067 263.8188566281445 504.18114337185546"/><polygon points="315.19561480100106 485.86228146766774 325.4929362094125 485.17373045725407 336.4312863705247 507.09795303719136 309.3590431050644 501.30762356160216"/><polygon points="353.00868489892514 481.00868489892514 371.5367185580433 481.79661477529 371.67526702968416 499.67526702968416 349.3730149385626 503.96031839477064"/><polygon points="388.0017904272785 473.3351237606118 414.605486009035 481.3945139909649 422.63347110578155 507.96680443911487 393.2115237431047 502.78847625689525"/><polygon points="438.3495727865393 481.01623945320597 461.12535904657665 477.5413076200899 464.9296954512616 507.59636211792827 441.31798490100937 497.3486817656572"/><polygon points="479.365201404081 479.365201404081 496.2215214516644 485.11181188166887 508.04885713121627 508.04885713121627 483.72401730855245 497.6093160247808"/>
</svg>
