<?xml version="1.0" encoding="UTF-8"?>
<svg xmlns="http://www.w3.org/2000/svg" id="RSSicon" viewBox="0 0 512 512" width="512" height="512">
  <defs>
    <style type="text/css">
      svg {
        background: black;
        margin: calc(50vh - 256px) auto 0;
      }
      
      polygon {stroke: darkorange; fill: none;}
    </style>
  </defs>
  <polygon points="6.114858916082406 6.114858916082406 29.45062684936272 13.216039817303944 34.04413067641374 34.04413067641374 14.460379926541968 28.206286740124696"/><polygon points="57.87148815147774 15.204821484811072 74.12950026117001 11.203833072163327 76.92059595262499 34.25392928595833 58.22947723472394 27.1038560986094"/><polygon points="101.11199357213371 15.778660238800382 123.79922117040412 4.200778829595862 118.57610332505719 33.24276999172387 98.60728235214668 29.392717647853303"/><polygon points="132.47703899228918 4.477038992289177 157.17816135501067 13.488505311656006 158.24318368633544 30.243183686335442 139.98434476904646 30.682321897620223"/><polygon points="179.3122337007417 8.645567034075032 204.39444012588788 8.938893207445448 197.7944427658433 27.127776099176632 178.17538427376786 35.15794905956547"/><polygon points="224.48699635630146 11.15366302296813 249.77501776777808 6.224982232221917 249.48159037348424 36.148257040150924 217.2424558102917 38.75754418970831"/><polygon points="271.6916950247848 15.691695024784824 283.9828354819425 14.683831184724138 289.2952864228701 33.295286422870106 268.09709697838883 30.56956968827783"/><polygon points="310.9870322417688 12.32036557510218 325.24289239164256 16.090440941690737 328.06197823708203 29.395311570415423 302.9428410659758 38.39049226735749"/><polygon points="350.65919431099263 9.325860977659355 378.8659715453546 5.134028454645325 369.8565854985706 28.523252165237324 356.2395016096168 27.760498390383127"/><polygon points="397.5186770988584 13.518677098858445 414.46306386437675 12.203602802289886 411.61523855529936 27.615238555299364 397.8323484841324 28.83431818253425"/><polygon points="438.9636407841702 12.296974117503607 464.9999535071113 4.333379826221986 459.40346082293144 32.73679415626485 441.3837718645533 27.949561468779958"/><polygon points="483.615523030479 14.282189697145675 499.497605831453 12.502394168546994 502.90200427048546 33.56867093715217 474.71267027021935 37.287329729780616"/><polygon points="10.19940862189748 52.86607528856415 34.754669307042164 50.57866402629117 34.80600398841659 77.47267065508326 13.372000349339547 71.96133298399378"/><polygon points="50.287624683370524 50.287624683370524 80.48463295617327 47.51536704382673 77.89516271749523 77.89516271749523 50.64679728840795 77.35320271159205"/><polygon points="100.53790999756139 57.87124333089473 113.56921114479788 57.09745552186878 114.53039071145574 71.86372404478908 95.85968948725183 74.80697717941483"/><polygon points="135.22977512657232 49.896441793238985 166.62653885974999 46.706794473583365 154.96136108484984 69.62802775151648 142.63060095849983 70.70273237483352"/><polygon points="185.0372497152136 57.037249715213584 196.98244619095095 59.01755380904906 207.47845753449587 79.47845753449587 183.20864036984176 72.79135963015823"/><polygon points="220.06096875226342 49.39430208559677 244.7198602114387 53.94680645522798 242.45154291660094 71.78487624993429 223.12228982355515 75.54437684311152"/><polygon points="268.25874559256874 54.925412259235415 286.19976016337205 55.13357316996125 285.99642877558585 72.66309544225251 261.1993674137471 80.1339659195862"/><polygon points="303.1671016190478 47.167101619047834 330.9112859319991 53.08871406800085 334.96214782521946 78.96214782521953 306.1686279838886 77.83137201611133"/><polygon points="346.8979173040761 48.23125063740943 378.9368624114192 47.72980425524741 378.1990226530957 79.5323559864291 355.19455673021 71.4721099364566"/><polygon points="397.76023187399574 56.42689854066241 415.8935741402656 53.43975919306766 413.2018977616963 71.86856442836294 395.99615678895543 73.3371765443779"/><polygon points="435.72006852754964 51.720068527549714 461.2979512586208 50.70204874137913 456.74621788004976 72.74621788004978 432.61220841459743 79.38779158540254"/><polygon points="480.7755292453298 54.10886257866314 504.2399499723682 50.42671669429843 502.36852714940795 75.7018604827413 475.09980749453223 79.5668591721344"/><polygon points="13.797177081501756 99.13051041483509 38.23241935974184 89.76758064025815 32.36735376329816 117.70068709663148 12.081928375414538 115.91807162458545"/><polygon points="51.99821830537984 94.6648849720465 78.0679235543706 92.59874311229606 81.30740625890154 123.9740729255682 51.586282656795426 119.08038400987124"/><polygon points="101.09505350615525 101.09505350615525 118.03013863697198 95.30319469636133 119.59622007553773 119.59622007553773 101.16237264772306 112.17096068561025"/><polygon points="138.14987974823546 95.48321308156878 158.18777012271255 97.81222987728745 161.40241778926634 118.73575112259964 136.96463173133986 119.03536826866014"/><polygon points="178.41774495420037 93.08441162086703 199.4219101772601 99.24475648940658 204.5016800548612 119.16834672152785 183.73137686157847 114.93528980508819"/><polygon points="225.29146913111148 97.29146913111148 244.2553239190011 97.0780094143322 252.01778160944775 124.01778160944775 223.85383122599276 117.47950210734055"/><polygon points="261.8429002147396 91.17623354807296 291.9237467566484 92.07625324335153 286.8186645197845 116.15199785311785 260.94936293764164 123.05063706235836"/><polygon points="314.2892325323773 100.95589919904403 332.95866589375373 93.70800077291284 336.99777406417036 123.66444073083706 313.8190227655788 112.84764390108782"/><polygon points="354.3830841996551 98.38308419965514 376.66146160148946 92.6718717318438 379.73835852112944 123.7383585211295 356.7004599025538 112.63287343077945"/><polygon points="400.3123390077759 101.64567234110923 422.4121004853903 89.5878995146097 416.7497447703711 118.08307810370441 396.96866024565355 115.03133975434639"/><polygon points="436.3254711899058 94.9921378565725 464.25872052114596 90.40794614552067 464.74521110523 123.41187777189671 440.55705862246543 114.10960804420117"/><polygon points="485.5062132662181 101.50621326621808 504.38323539174837 92.95009794158491 498.4148912061383 114.4148912061383 478.7057504863941 118.62758284693919"/><polygon points="13.55598118586789 141.5559811858679 30.31102484240772 140.35564182425895 29.809990548707972 157.809990548708 15.554410330651962 155.11225633601472"/><polygon points="58.83377338441361 144.16710671774695 80.97076239731086 132.36257093602248 73.00367675863102 158.33701009196437 56.293389040741076 157.03994429259225"/><polygon points="93.650639246234 136.31730591290068 119.72413458287369 136.2758654171263 117.52350323244238 160.19016989910907 97.694812310409 158.30518768959098"/><polygon points="142.68667047396667 142.68667047396667 154.71444360927245 143.95222305739424 161.24411772967863 161.24411772967863 132.72545158016482 165.94121508650187"/><polygon points="183.37344646658786 140.7067797999212 206.023518427686 135.30981490564733 201.73319168043983 159.06652501377317 176.1802033439165 165.15312998941687"/><polygon points="220.51680405329364 135.18347071996033 240.26412665426275 143.73587334573725 251.03685436451354 165.70352103118023 218.54451539917028 165.45548460082972"/><polygon points="272.2868169567473 144.28681695674734 285.9640853017664 140.70258136490028 292.3870556525668 164.38705565256686 261.22539825826533 165.44126840840133"/><polygon points="310.7143289590704 140.04766229240374 334.8997732319301 134.43356010140317 325.0769462541529 154.4102795874863 306.86769512756763 162.46563820576569"/><polygon points="355.2814302503697 141.94809691703642 374.9397363909206 137.06026360907936 380.05137782820617 166.71804449487288 345.5793474082166 166.42065259178332"/><polygon points="399.10557757549844 143.1055775754985 416.23093391379615 138.43573275287054 411.0508952803472 155.05089528034722 392.7669760780968 161.8996905885699"/><polygon points="435.5834441993794 136.91677753271279 464.12669345496033 133.20663987837295 458.7618542834954 160.09518761682878 443.0325425812971 154.30079075203616"/><polygon points="474.44958210808164 133.11624877474839 504.83624720642445 135.1637527935755 496.3128690871175 154.97953575378426 484.88209228739373 155.11790771260627"/><polygon points="6.858538251600601 177.52520491826726 29.783091554581283 183.55024177875205 26.393156171453143 197.0598228381198 5.729354573139354 207.60397876019397"/><polygon points="53.79122980766745 181.79122980766743 79.09983722734155 176.90016277265846 70.39978873278073 198.39978873278073 48.78104544016481 207.2189545598352"/><polygon points="94.85019414964115 180.18352748297448 120.76487957553732 177.90178709112934 117.4393797252924 202.77271305862575 90.46953826020761 208.19712840645906"/><polygon points="142.2924357708453 184.95910243751194 155.06426105734965 186.2690722759837 166.45892032894832 209.12558699561498 136.43688524951085 204.8964480838225"/><polygon points="180.86755097318294 180.86755097318294 203.72410826257283 180.27589173742717 198.86258863299622 198.86258863299622 180.43141309365095 203.56858690634905"/><polygon points="218.1177801831587 175.45111351649206 248.72827220769165 177.938394458975 242.20629735156803 199.53963068490137 228.71765309008552 197.94901357658114"/><polygon points="265.80270040685866 180.46936707352532 284.1959014834403 185.137431849893 286.1276965505875 200.79436321725416 260.1874250768736 209.14590825645973"/><polygon points="310.9021806594515 182.90218065945157 331.2722733586694 180.72772664133052 327.02376539726754 199.02376539726762 310.48403970945253 201.5159602905474"/><polygon points="354.3527583433856 183.68609167671895 376.0596284836099 178.6070381830567 374.3031982951732 203.63653162850662 347.8139508227013 206.85271584396529"/><polygon points="398.9427307503157 185.6093974169824 421.7890766516843 175.54425668164902 421.364958836468 208.0316255031347 392.1279979862144 205.20533534711893"/><polygon points="431.8767462056283 175.8767462056284 459.794948861633 180.205051138367 462.82705926403537 206.8270592640354 430.6047170066244 209.3952829933755"/><polygon points="482.95063430616347 184.28396763949684 495.45383966694214 187.21282699972446 503.32428930083 204.65762263416337 485.3248049343549 197.34186173231168"/><polygon points="14.285427342353035 227.61876067568636 32.1466989386335 223.8533010613665 32.67710278463028 246.0104361179636 4.54116873609799 251.458831263902"/><polygon points="54.92292469582256 225.58959136248922 68.96311122259986 229.7035554440668 71.10750018023096 241.77416684689763 55.71532076640716 242.9513459002595"/><polygon points="92.7291350141738 220.7291350141738 115.44698071569265 225.88635261764065 122.9279830054234 250.9279830054234 90.31975009793474 251.01358323539856"/><polygon points="139.60439602989632 224.93772936322964 159.78950540521654 224.21049459478346 159.5778072191039 244.91114055243722 132.4596595199591 251.5403404800409"/><polygon points="179.37382211001056 222.04048877667722 198.19079952051948 228.47586714614718 206.3314608724623 248.99812753912894 185.6188019998268 241.04786466683987"/><polygon points="226.42303632331576 226.42303632331576 246.77508170695415 222.55825162637916 242.214484429075 242.214484429075 222.63341901386036 246.69991431947295"/><polygon points="271.13017835909716 228.4635116924305 292.6926797744807 219.30732022551928 291.7895832800821 249.1229166134155 266.67087557884287 245.3291244211571"/><polygon points="313.11314459489154 227.77981126155825 331.66932948923113 222.99733717743544 328.8156171864009 243.48228385306766 303.6007016965923 251.06596497007433"/><polygon points="346.31013704865273 218.31013704865276 373.5676209990802 223.76571233425312 378.29272447444777 250.29272447444782 345.8462072830998 251.48712605023348"/><polygon points="396.3801283435537 225.71346167688705 410.37374099226463 229.62625900773534 412.2752742975889 241.60860763092225 390.8207618235309 249.17923817646906"/><polygon points="436.66188757758346 223.32855424425017 453.95305829434074 228.71360837232587 461.2444261893695 247.9110928560362 435.4353696925579 247.2312969741087"/><polygon points="477.21181508547846 221.2118150854785 505.150502843836 220.18283048949726 500.3616296922644 244.36162969226444 477.3701350205701 247.9631983127632"/><polygon points="7.193145665123085 263.19314566512304 35.078198112468826 263.5884685541978 29.159955570254105 285.1599555702541 15.893211180809198 282.7734554858574"/><polygon points="49.9570228954143 263.2903562287476 76.53387617946967 264.7994571538636 70.64799642612283 283.9813297594561 50.6834014498128 290.64993188352054"/><polygon points="95.12650103672131 265.79316770338795 115.40202339835288 268.5979766016471 115.60952323895448 286.27618990562115 95.04959743862499 288.950402561375"/><polygon points="142.81818606542927 270.81818606542924 166.05725347286003 260.60941319380663 163.01790415879242 291.01790415879236 134.01019410228798 292.6564725643787"/><polygon points="183.7599425281486 269.0932758614819 205.6319901444239 263.70134318890945 200.61133523819646 285.9446685715298 187.17758495220227 282.15574838113105"/><polygon points="229.31189190021826 271.9785585668849 240.94416604997113 271.05583395002884 248.32785985117334 290.99452651784003 223.34102108131648 288.6589789186835"/><polygon points="271.6769168952829 271.6769168952829 288.91655637287187 265.75011029379476 285.29267235589765 285.29267235589765 269.18869414116585 285.4779725255008"/><polygon points="309.31418703503283 266.6475203683662 335.19072085684803 262.1426124764852 330.8949627463433 288.2282960796767 306.8238526150224 290.50948071831084"/><polygon points="357.04147942495933 271.708146091626 368.8590473207165 271.14095267928343 375.22704798972404 289.8937146563907 351.0848261971606 288.9151738028393"/><polygon points="392.1899744560036 264.1899744560036 417.56638943149557 265.10027723517106 411.02509527506623 283.02509527506623 398.61220355452673 284.0544631121399"/><polygon points="437.4484737560333 266.7818070893667 461.8714566772657 263.46187665606755 462.0086462488157 291.34197958214907 432.0083605101858 293.32497282314745"/><polygon points="475.411560363843 262.0782270305097 501.6553999468008 266.3446000531992 506.14768535304256 292.81435201970925 484.6492188179888 283.35078118201113"/><polygon points="14.1468985199717 312.8135651866383 37.56483164822976 303.7685016851035 38.74871128620032 337.41537795286695 12.772114661295143 328.56121867203814"/><polygon points="51.419532599948795 307.41953259994875 81.10122237048762 302.8987776295123 75.30818911067692 331.30818911067684 52.58358015414948 331.41641984585044"/><polygon points="95.71939733358155 309.05273066691484 118.13689893794744 308.52976772871915 111.66264127590694 324.99597460924025 99.53001409997277 327.13665256669384"/><polygon points="137.09756587961016 307.7642325462768 162.8688680358476 306.4644652974857 164.05016509735304 334.7168317640197 138.49287474204874 330.8404585912845"/><polygon points="184.1790397945067 312.17903979450665 200.14337606679328 311.85662393320666 201.8218598130719 329.82185981307185 176.589962931197 335.4100370688029"/><polygon points="221.25480898103413 306.5881423143674 249.37692915181162 305.289737514855 244.32583102553343 329.65916435886675 224.60151974752972 330.06514691913685"/><polygon points="269.2973466605326 311.9640133271992 284.5664587006593 312.76687463267393 288.00593459476954 330.67260126143617 267.5074772025842 329.82585613074906"/><polygon points="313.9049026718059 313.9049026718059 335.5680993244149 304.431900675585 334.2109427101093 334.2109427101093 304.4722645848083 335.5277354151916"/><polygon points="353.6239769676044 310.9573103009377 375.80999107539515 306.8566755912714 373.81784377556045 331.15117710889376 354.5132008483534 328.1534658183132"/><polygon points="399.4395790714036 314.10624573807024 418.5211429183984 306.81219041493483 411.69235203838434 326.35901870505097 390.9464372454604 334.38689608787286"/><polygon points="431.22559661867405 303.22559661867405 455.96415309965494 312.03584690034495 456.48207708784133 328.48207708784133 438.3101142755522 329.68988572444766"/><polygon points="484.2512904249812 313.58462375831454 498.95537509956785 311.7112915670987 506.56693286498455 335.90026619831787 480.9524688249932 329.71419784167335"/><polygon points="9.138445020287856 350.4717783536212 28.542483547374598 355.4575164526254 31.86609509519225 373.19942842852555 9.279837898756298 374.72016210124366"/><polygon points="58.99790219812685 357.66456886479347 79.53435247376378 347.13231419290287 75.21746871145638 373.884135378123 53.97294140485991 372.6937252618067"/><polygon points="92.95736293320493 348.9573629332049 118.65370469531886 350.67962863801444 111.87783933540032 367.87783933540027 94.19307057628308 375.1402627570502"/><polygon points="144.6090939821345 357.9424273154678 158.47370152605214 353.52629847394786 164.29575324849557 377.62908658182886 135.8772234653616 376.1227765346384"/><polygon points="178.39081612004188 349.0574827867085 197.62027892192458 357.04638774474205 204.3872744092582 375.0539410759248 183.82348214575055 370.84318452091605"/><polygon points="218.0026451623791 346.0026451623791 250.01810165352052 347.31523167981277 241.8436395974438 369.84363959744377 226.19295509227064 371.14037824106265"/><polygon points="261.1062817203633 346.4396150536966 283.6008971605384 356.39910283946153 288.0429058419593 373.3762391752926 272.16778254526554 367.8322174547344"/><polygon points="314.7850152359585 357.4516819026252 335.7820965634741 346.88457010319246 327.0505186526801 369.7171853193468 307.74764506379364 374.91902160287293"/><polygon points="355.9237993882157 355.9237993882157 376.7658197248318 348.5675136085015 378.45071851485363 378.45071851485363 350.7161495853792 374.6171837479541"/><polygon points="397.95588672785544 355.28922006118876 420.8815593829253 347.11844061707467 418.48568197410196 375.8190153074353 397.14195127872006 370.8580487212799"/><polygon points="438.7816915179032 353.4483581845699 465.14558080102444 345.52108586564214 463.5402868893776 378.2069535560443 431.59402201971443 379.07264464695214"/><polygon points="481.0888189836237 353.0888189836237 505.74448679598186 347.5888465373514 506.36718909587574 378.36718909587574 475.16966390733427 378.163669425999"/><polygon points="16.349001148307345 400.3490011483073 37.64045940512072 389.02620726154595 29.843179166498714 413.8431791664987 7.198837743091225 419.46782892357544"/><polygon points="48.651269408769416 389.9846027421027 73.15400104482467 396.17933228850865 81.016132219338 422.34946555267135 50.30711968134163 419.02621365199167"/><polygon points="89.63371587078676 388.3003825374534 121.4894457413628 390.51055425863717 117.2613381381101 415.9280048047768 94.42902515043647 417.5709748495635"/><polygon points="139.28413216126913 395.2841321612691 166.6418171284139 388.02484953825274 155.1106060460759 411.1106060460759 134.61152384850345 420.0551428181632"/><polygon points="179.76538508613208 393.0987184194654 198.48990695839112 398.84342637494217 208.91344022924162 422.24677356257496 180.5753002161302 416.7580331172031"/><polygon points="221.55801525831893 392.2246819249856 244.87102791332129 395.1289720866787 241.55997089825644 412.2266375649231 217.81939089838642 422.1806091016136"/><polygon points="270.2900702495635 398.2900702495635 291.73595793267486 390.93070873399176 291.74314491023233 419.74314491023233 261.08839644758086 421.57827021908577"/><polygon points="312.0017603504392 397.3350936837726 334.0376954011919 391.29563793214135 336.00411230168237 421.33744563501574 303.20614990132066 422.1271834320126"/><polygon points="346.54853787087603 389.2152045375427 372.43311469935855 395.5668853006414 371.08913787136237 413.75580453802905 352.1431814209263 415.85681857907366"/><polygon points="396.63715052838955 396.63715052838955 418.1682171494843 392.49844951718234 411.8682191510497 411.8682191510497 392.9605991769492 417.70606748971744"/><polygon points="437.73169593111083 395.0650292644442 453.0153715105943 400.31796182273894 464.5550254055259 421.88835873885927 441.99094257329307 411.3423907600402"/><polygon points="476.2957512190009 390.9624178856676 502.3303648609473 393.6696351390526 504.50477078915515 419.17143745582183 479.7127189338324 416.28728106616757"/><polygon points="12.19816104996014 438.86482771662673 33.45476983608408 435.87856349724916 35.432660988235774 462.09932765490237 14.350311857740095 454.9830214755932"/><polygon points="59.30103225279562 443.30103225279555 73.8303378722045 438.16966212779545 78.84471681466026 462.8447168146602 54.85864732119101 457.1413526788089"/><polygon points="90.75686841059796 432.09020174393123 122.18651271909613 432.4801539475705 123.96292475738313 465.29625809071644 98.53570763733676 456.13095902932986"/><polygon points="137.75479767872395 436.4214643453906 154.78930973095214 442.5440236023812 165.47960610538837 464.14627277205494 140.01759290790463 457.31574042542866"/><polygon points="182.96002522404126 438.9600252240412 207.0427088934851 432.95729110651484 203.45760811740269 459.45760811740263 184.1884225437528 455.81157745624716"/><polygon points="223.92229001322465 437.2556233465579 250.42242920401853 432.2442374626481 240.60706991189977 453.94040324523303 217.36285019966678 465.3038164669998"/><polygon points="260.853566496976 431.5202331636426 291.3824538280912 433.9508795052421 287.011675903416 457.67834257008263 265.7609563761259 459.5723769572074"/><polygon points="304.36961498537045 432.36961498537045 334.18514383989736 433.8148561601025 333.06426801047417 461.06426801047417 302.7237826346334 465.2762173653665"/><polygon points="351.3325071553088 436.6658404886421 375.37446208477553 435.29220458189104 369.72165778414995 455.05499111748327 347.20574552751594 463.4609211391506"/><polygon points="396.785612016513 439.45227868317966 420.7568459576686 432.57648737566467 411.3510647189943 454.0177313856609 390.4659215854747 462.86741174785857"/><polygon points="439.9575263803066 439.9575263803066 457.31072504987355 438.68927495012633 457.87956604980985 457.87956604980985 430.6496281284012 465.35037187159867"/><polygon points="476.1152715446248 433.44860487795813 504.5313189087913 434.13534775787525 505.461247741334 462.7945810746673 473.80506924103844 464.86159742562813"/><polygon points="5.66310655819481 474.9964398915281 35.2083601220198 476.7916398779802 32.003244590202954 501.33657792353625 9.53335433225573 502.4666456677442"/><polygon points="50.147077575083884 476.8137442417505 79.98254971380175 474.6841169528649 69.60178406093453 496.26845072760113 52.345610953626135 502.3210557130405"/><polygon points="97.79195700307649 481.79195700307645 112.99536524878025 484.33796808455304 119.36246860443569 503.36246860443566 92.41849744381719 504.9148358895161"/><polygon points="137.00944041531304 478.3427737486463 154.75301273629367 485.2469872637063 158.58507395661655 499.91840728994987 133.13746749621825 506.8625325037817"/><polygon points="176.21701154793612 474.88367821460275 205.54890514487235 477.11776152179425 200.8172121859369 499.48387885260354 187.17574490961087 495.49092175705573"/><polygon points="225.4793666047644 481.4793666047644 249.42735774371184 475.90597558962145 246.8318979226794 502.83189792267933 218.2457931821654 507.0875401511679"/><polygon points="260.3719678626616 473.70530119599493 290.24710235591635 477.7528976440836 290.86381705885753 504.19715039219085 263.54806331038094 504.451936689619"/><polygon points="313.2583097663237 483.9249764329904 333.83386246482513 476.83280420184144 327.9905255241482 498.6571921908149 309.4994606850331 501.1672059816334"/><polygon points="352.34073404241815 480.34073404241815 374.24685081746975 479.0864825158635 371.2494114782088 499.2494114782088 352.15409858013135 501.1792347532019"/><polygon points="394.9425172689767 480.27585060231 414.89903054926924 481.1009694507307 422.7697970547142 508.10313038804753 394.4212288057518 501.57877119424813"/><polygon points="434.54487745501643 477.2115441216831 455.0638304420702 483.60283622459644 458.94302315584173 501.6096898225084 435.34077208774664 503.32589457891993"/><polygon points="479.68641985450415 479.68641985450415 505.7831967127688 475.55013662056444 507.2836286383725 507.2836286383725 478.44233562450745 502.8909977088258"/>
</svg>
