<?xml version="1.0" encoding="UTF-8"?>
<svg xmlns="http://www.w3.org/2000/svg" id="RSSicon" viewBox="0 0 512 512" width="512" height="512">
  <defs>
    <style type="text/css">
      svg {
        background: black;
        margin: calc(50vh - 256px) auto 0;
      }
      
      polygon {stroke: darkorange; fill: none;}
    </style>
  </defs>
  <polygon points="12.788236818111107 12.788236818111107 34.14436960711172 8.522297059554942 28.367529331314365 28.367529331314365 6.450291628525296 36.216375038141365"/><polygon points="49.77220109343944 7.105534426772772 79.64695223179777 5.686381101535558 74.05000456235958 31.383337895692904 52.135856352527284 33.197476980806044"/><polygon points="95.20833182762462 9.8749984942913 113.31515012284966 14.684849877150334 117.41613227658077 32.08279894324744 94.3802229993524 33.619777000647595"/><polygon points="140.60241646996295 12.602416469962945 162.65592450978585 8.01074215688084 158.94325696391633 30.94325696391632 139.26364098262772 31.40302568403896"/><polygon points="186.21013482112488 15.54346815445821 202.3238403194516 11.009493013881734 201.50781090350478 30.841144236838115 176.47851758475983 36.85481574857351"/><polygon points="228.20037555722107 14.86704222388775 250.18224294887955 5.817757051120434 249.32562078175908 35.992287448425756 222.77779413993676 33.222205860063234"/><polygon points="266.26811856365305 10.268118563653037 290.7184381578303 7.94822850883636 282.64987813885494 26.649878138854938 268.13861300205224 30.52805366461438"/><polygon points="303.253499470261 4.586832803594394 332.03623834093503 9.297094992398243 336.9948753638948 38.32820869722819 308.04575516668643 33.287578166646846"/><polygon points="356.5435916905158 15.210258357182543 370.1865239069253 13.813476093074655 370.15230511055825 28.818971777224938 349.7563080829393 34.243691917060644"/><polygon points="393.90205889401653 9.902058894016562 416.2833475350301 10.383319131636538 414.26805259865233 30.268052598652353 398.6642003532624 28.002466313404266"/><polygon points="442.8423989709998 16.17573230433321 454.56732327134284 14.766010061990418 461.4001624167002 34.7334957500336 442.00862959854953 27.324703734783718"/><polygon points="475.2926213827299 5.959288049396616 502.7218169744538 9.278183025546152 497.2988219857437 27.96548865241039 477.18357029878996 34.81642970121001"/><polygon points="13.23841033804207 55.90507700470874 33.37665365637394 51.956679676959396 31.930387718438553 74.59705438510522 13.516510843149806 71.81682249018353"/><polygon points="56.06034703577882 56.06034703577882 69.44740963244048 58.55259036755951 80.00051210401573 80.00051210401573 55.228702284810126 72.77129771518987"/><polygon points="90.68544526885839 48.01877860219173 115.95795825320779 54.708708413458865 116.40865126038251 73.74198459371586 89.6112176488578 81.05544901780885"/><polygon points="140.27254887689836 54.93921554356501 155.49038239357733 57.84295093975602 154.42291041742482 69.08957708409146 140.36964124822066 72.9636920851127"/><polygon points="174.62076626936786 46.62076626936788 205.3898482568677 50.61015174313229 206.34783706808662 78.3478370680866 182.52348307222366 73.47651692777634"/><polygon points="219.17344428584792 48.50677761918127 246.4137872628695 52.25287940379714 244.56304595762276 73.89637929095612 218.9971458263958 79.66952084027083"/><polygon points="262.5736357423543 49.24030240902102 291.5664855026246 49.766847830708734 290.5870821055436 77.25374877221029 271.50536558084605 69.82796775248727"/><polygon points="306.70793606385627 50.7079360638563 334.5637625161326 49.43623748386733 326.19076901867226 70.19076901867231 314.56335179081947 69.43664820918046"/><polygon points="349.07635818040376 50.40969151373715 372.9248709319818 53.74179573468483 375.0350553562428 76.36838868957621 351.6763125449197 74.99035412174693"/><polygon points="400.3241630808645 58.99082974753115 413.7789695080051 55.554363825328224 419.601968712353 78.26863537901971 391.8054552207585 77.5278781125748"/><polygon points="437.73769026251017 53.7376902625102 456.382405883272 55.61759411672797 461.1457160864946 77.14571608649463 441.78224650825786 70.21775349174209"/><polygon points="474.89538774930986 48.22872108264323 496.9654899450021 57.70117672166452 502.5182678957177 75.8516012290511 474.2389640219942 80.42770264467245"/><polygon points="4.572665128321994 89.90599846165532 29.427358461753748 98.57264153824624 30.93429276795057 116.2676261012839 6.8234337089149015 121.1765662910851"/><polygon points="46.508507868925996 89.17517453559265 74.91773714305846 95.7489295236082 74.12354716061374 116.7902138272804 50.24793917700123 120.41872748966543"/><polygon points="98.69920369940249 98.69920369940249 121.37989934562555 91.95343398770777 117.71667261024973 117.71667261024973 99.6368288144066 113.69650451892672"/><polygon points="136.39828863798144 93.73162197131475 155.41449865072238 100.58550134927762 154.24135436796539 111.57468770129869 135.16616937792512 120.83383062207488"/><polygon points="185.1980598327605 99.86472649942716 203.93827509058636 94.72839157608031 197.53267760840447 112.19934427507111 183.23148078548766 115.43518588117898"/><polygon points="226.04910075976616 98.04910075976616 243.60473921717133 97.72859411616199 246.18369930074428 118.18369930074427 221.60325050206743 119.73008283126589"/><polygon points="268.5965498366511 97.92988316998445 290.6412652982084 93.3587347017916 291.2070610968276 120.54039443016092 269.12551794690944 114.87448205309052"/><polygon points="308.50230345301054 95.16897011967723 327.4278624049341 99.23880426173253 335.3820104259929 122.04867709265963 311.55499482496805 115.11167184169858"/><polygon points="347.1574912375742 91.15749123757425 372.0080008105771 97.32533252275624 369.31946295012085 113.31946295012091 353.30917905079605 116.02415428253725"/><polygon points="394.7217061653917 96.05503949872504 417.057949709757 94.94205029024297 414.00519100251216 115.3385243358455 391.31017749745996 120.68982250254001"/><polygon points="440.6799839947071 99.34665066137376 455.2427546254433 99.42391204122329 455.69577051049237 114.36243717715908 435.47787398507216 119.18879268159444"/><polygon points="474.1748831768616 90.17488317686166 504.26810817039484 93.06522516293843 501.882982571369 117.88298257136901 484.7818063032592 112.55152703007407"/><polygon points="12.832457809860697 140.8324578098607 28.971726449413023 141.69494021725365 37.37539344126539 165.3753934412654 6.0684117970342975 164.59825486963237"/><polygon points="58.01154313460406 143.3448764679374 74.37400766620043 138.9593256671329 71.68212320012049 157.01545653345383 56.14790284395321 157.18543048938014"/><polygon points="92.26647942630606 134.93314609297275 120.61431864321392 135.38568135678608 120.43898224967839 163.10564891634507 94.43083668574249 161.5691633142575"/><polygon points="144.45881846892053 144.45881846892053 158.0498764601755 140.61679020649117 165.80247800764062 165.80247800764062 132.52199113796914 166.14467552869755"/><polygon points="176.78348277440278 134.1168161077361 205.8166725474605 135.51666078587283 201.2738390836106 158.60717241694394 182.6317724256955 158.70156090763786"/><polygon points="224.50830278424627 139.17496945091295 239.61016206026318 144.38983793973682 246.8217858734043 161.488452540071 229.13233830217624 154.86766169782376"/><polygon points="272.1061841437028 144.10618414370288 283.15066118413426 143.5160054825324 282.1400854280109 154.1400854280109 270.40524777078207 156.2614188958846"/><polygon points="309.7817227394805 139.11505607281387 331.2017054547456 138.1316278785877 327.2353955116404 156.5687288449738 307.11315764146764 162.22017569186562"/><polygon points="347.74401301210617 134.41067967877288 376.5043357090017 135.4956642909983 378.74439880471584 165.41106547138256 354.0263391500664 157.9736608499336"/><polygon points="390.0489851464804 134.04898514648042 412.599314800443 142.06735186622367 422.6164678554509 166.6164678554509 392.30893855241777 162.35772811424889"/><polygon points="433.5704917021844 134.90382503551783 461.55789911960136 135.77543421373196 463.9400172893704 165.27335062270382 436.8130060544539 160.5203272788794"/><polygon points="479.29609808325597 137.96276474992266 501.0528412768904 138.9471587231096 506.12148855338114 164.78815522004786 482.9722887089296 157.02771129107035"/><polygon points="7.679223718437795 178.34589038510447 27.36778694477392 185.9655463885594 36.97980608479482 207.6464727514615 15.343143547915108 197.99018978541824"/><polygon points="49.7990273727228 177.7990273727228 72.77482741681217 183.22517258318783 80.39081567163154 208.39081567163154 56.1866966895017 199.8133033104983"/><polygon points="90.24209059888935 175.5754239322227 111.8823508748179 186.78431579184877 120.48626546871789 205.81959880205122 92.93040573327401 205.73626093339266"/><polygon points="135.5912775978826 178.25794426454925 155.3628515176533 185.97048181568005 165.0874446376122 207.75411130427887 141.63807741921698 199.69525591411636"/><polygon points="183.49894773941526 183.49894773941526 201.0267091122332 182.9732908877668 203.44707115025307 203.44707115025307 180.1751368640058 203.8248631359942"/><polygon points="223.1403827347035 180.47371606803688 250.92744671651496 175.7392199501517 245.19164994315858 202.52498327649192 217.4827046487634 209.18396201790324"/><polygon points="263.1750399956378 177.8417066623045 287.5466101601464 181.7867231731869 293.5124000243928 208.1790666910595 264.01627997598905 205.3170533573443"/><polygon points="302.98143359279464 174.9814335927947 329.75873288301847 182.24126711698145 328.4164547482665 200.41645474826657 303.38381090023074 208.6161890997692"/><polygon points="348.265424093987 177.5987574273204 379.6203681171422 175.04629854952438 376.4688508676768 205.80218420101016 352.57053611663906 202.09613055002757"/><polygon points="396.85471623424934 183.52138290091602 413.32947489006426 184.00385844326908 418.2948866913981 204.96155335806483 398.10748377110036 199.22584956223295"/><polygon points="441.29531603641044 185.2953160364105 464.57913192571294 175.420868074287 464.31516130459227 208.31516130459232 433.06013379009323 206.9398662099067"/><polygon points="483.6146388057226 184.947972139056 505.3603634200218 177.3063032466448 502.75039681488636 204.08373014821973 478.52010334050414 204.1465633261625"/><polygon points="7.591645361403883 220.9249786947372 28.62067312175916 227.37932687824082 35.16622690037629 248.49956023370962 9.122539251750052 246.87746074824994"/><polygon points="55.40438939614088 226.07105606280754 68.85823637279375 229.8084302938729 77.70989060406475 248.3765572707314 58.457768876443915 240.20889779022275"/><polygon points="89.56450557242472 217.56450557242474 111.58615192129673 229.74718141203658 114.44848754805118 242.4484875480512 101.1147214312247 240.21861190210862"/><polygon points="132.81113074970546 218.14446408303877 156.3453843602146 227.6546156397854 163.8745426803274 249.20787601366072 140.4600199532323 243.5399800467677"/><polygon points="175.47006314530927 218.13672981197593 197.730770269335 228.93589639733165 205.271992889162 247.93865955582865 175.8118098633404 250.85485680332627"/><polygon points="222.27257523105754 222.27257523105754 242.2566907861055 227.0766425472278 248.98802946202537 248.98802946202537 219.63291246922955 249.70042086410376"/><polygon points="265.0283841128546 222.36171744618795 285.0708094499053 226.9291905500947 282.2448576258567 239.57819095919007 265.2298396698008 246.7701603301992"/><polygon points="304.8180203401571 219.4846870068238 336.8359720593934 217.83069460727322 328.5380300457188 243.20469671238553 306.5995239315254 248.06714273514118"/><polygon points="350.06937293352655 222.0693729335266 367.9309674558506 229.40236587748268 374.1840434468793 246.1840434468793 354.19696495022464 243.13636838310867"/><polygon points="397.75713260216077 227.0904659354941 420.9939192636737 219.00608073632625 417.68921928378796 247.0225526171213 398.4910568089166 241.50894319108338"/><polygon points="434.64975425282324 221.31642091948996 464.9100073008767 217.7566593657899 454.2737857214389 240.94045238810563 440.08282836294416 242.58383830372244"/><polygon points="475.13310578203493 219.13310578203496 503.23821505758326 222.09511827575 505.8693148675298 249.86931486752985 478.8568359006229 246.47649743271037"/><polygon points="5.438669835991332 261.43866983599133 30.944608022589108 267.72205864407755 34.7629035065211 290.76290350652107 5.842236777014499 292.82442988965215"/><polygon points="55.809704329533865 269.1430376628672 78.39320718596836 262.94012614736494 78.9468707564379 292.28020408977125 56.47731759897551 284.8560157343578"/><polygon points="98.43977208462933 269.10643875129597 120.46237393494549 263.5376260650545 119.47300250825225 290.13966917491894 99.47925199299772 284.5207480070022"/><polygon points="132.8452193148484 260.84521931484835 157.28671550443823 269.3799511622284 164.42361856350405 292.423618563504 141.70179702280117 284.9648696438655"/><polygon points="180.59988802671117 265.93322136004446 208.98896975498158 260.34436357835176 209.13822094271652 294.4715542760498 176.85810272163295 292.47523061170034"/><polygon points="220.28349124130585 262.95015790797254 245.6909760074546 266.3090239925454 251.9048856692974 294.57155233596404 225.88714584096866 286.1128541590313"/><polygon points="270.70007453462426 270.70007453462426 282.5280819041289 272.13858476253773 286.8714238832726 286.8714238832726 271.9659837789828 282.70068288768385"/><polygon points="307.33609484495435 264.6694281782877 326.66262152418744 270.6707118091458 335.69091693701597 293.02425027034934 305.56411563624397 291.7692176970893"/><polygon points="345.4778974233408 260.14456409000746 372.6247221712861 267.3752778287138 372.22308585334247 286.88975252000915 356.7936181793451 283.2063818206548"/><polygon points="397.97793904839256 269.97793904839256 417.72557678008184 264.9410898865848 410.76966232285224 282.76966232285224 400.38337223749784 282.2832944291688"/><polygon points="430.5271974363808 259.86053076971416 457.117894850523 268.21543848281027 459.3600342850637 288.6933676183971 438.2297719504555 287.1035613828778"/><polygon points="473.2584832976443 259.925149964311 503.99530611659395 264.004693883406 505.218257435696 291.8849241023627 482.55248345004543 285.4475165499545"/><polygon points="14.6789684291385 313.3456350958051 36.06165456860164 305.27167876473163 26.49446894573761 325.1611356124042 6.472328732635097 334.86100460069815"/><polygon points="53.92920288749568 309.92920288749565 81.01962016371695 302.980379836283 76.80046566793901 332.80046566793897 53.16210920091163 330.8378907990883"/><polygon points="92.8740635782294 306.2073969115627 120.58648081554978 306.0801858511168 116.47851870503746 329.8118520383707 100.00591241260126 326.66075425406535"/><polygon points="144.55150626682584 315.21817293349244 154.32277588668265 315.01055744665064 164.4586503553908 335.1253170220574 138.97496606342324 330.35836726991005"/><polygon points="177.2402216454435 305.24022164544346 207.72597858716347 304.2740214128365 199.7535661203415 327.7535661203415 177.92754015352114 334.0724598464788"/><polygon points="229.46758603452045 314.80091936785374 247.2901455442398 307.37652112242677 241.95025520853213 327.2835885418654 221.5986613367091 333.0680053299575"/><polygon points="264.41038545516227 307.0770521218289 289.8934705914055 307.43986274192775 293.1894686387039 335.8561353053705 260.30349684788666 337.0298364854466"/><polygon points="305.8487510456954 305.8487510456954 334.92922586250216 305.0707741374977 335.18416223072853 335.18416223072853 309.88608493808283 330.11391506191706"/><polygon points="352.71409134353365 310.04742467686697 378.21803354045073 304.44863312621584 372.91047892938263 330.24381226271595 345.77991555795217 336.8867511087144"/><polygon points="399.9038678408098 314.57053450747645 417.9245416929967 307.4087916403366 410.5800962247052 325.2467628913718 397.1046487217362 328.22868461159703"/><polygon points="433.33974841901284 305.33974841901284 462.7687747437348 305.2312252562651 454.31952052783805 326.31952052783805 431.30221129815203 336.69778870184786"/><polygon points="476.57787981190927 305.9112131452426 503.37205890038825 307.2946077662783 507.15378347520567 336.487116808539 481.428653970414 329.23801269625255"/><polygon points="9.118724435521951 350.45205776885524 37.31045142060508 346.6895485793949 26.77836111217689 368.1116944455102 14.590200233728496 369.4097997662715"/><polygon points="48.31655285856483 346.98321952523145 81.10061184180856 345.56605482485804 76.96669076417038 375.633357430837 47.08475556332253 379.5819111033441"/><polygon points="101.11584088564697 357.11584088564695 116.87792838009517 352.4554049532381 120.23839021042342 376.2383902104234 95.64814011123323 373.68519322210005"/><polygon points="139.34810752642028 352.6814408597536 164.98205423693602 347.01794576306395 161.68687200691113 375.0202053402444 143.34987799236097 368.65012200763897"/><polygon points="179.83365781019515 350.50032447686175 207.83842507184391 346.8282415948227 200.77124639183296 371.4379130584996 185.03141697738 369.63524968928664"/><polygon points="223.23962975201712 351.2396297520171 243.72169889025557 353.6116344430777 248.59787751996242 376.59787751996237 227.53111245989317 369.80222087344015"/><polygon points="264.3816226553871 349.7149559887204 294.41737007142876 345.5826299285712 286.9601798330784 372.29351316641174 261.1108809618215 378.8891190381784"/><polygon points="313.6163153357968 356.2829820024635 336.20486459917925 346.4618020674873 332.52314192271706 375.18980858938374 314.18199408173285 368.4846725849337"/><polygon points="350.82141679405197 350.82141679405197 377.7826109088408 347.55072242449245 372.2531308665996 372.2531308665996 355.6725038293811 369.66082950395213"/><polygon points="395.4174945755497 352.750827908883 410.0853249289029 357.91467507109707 420.25695177336684 377.59028510670015 389.32355684347795 378.676443156522"/><polygon points="439.48158978674945 354.14825645341614 460.8067535132086 349.85991315345797 453.55245198516576 368.21911865183245 438.6317156015678 372.03495106509877"/><polygon points="475.90420259560835 347.90420259560835 508.05550234058387 345.2778309927494 504.1616823083523 376.1616823083523 478.8486480242946 374.48468530903864"/><polygon points="16.531769049391777 400.53176904939176 28.795628353798463 397.87103831286817 35.83334535167946 419.83334535167944 8.679095422892399 417.98757124377425"/><polygon points="53.55109697002375 394.8844303033571 72.79237163511905 396.54096169821423 70.9057952748429 412.2391286081762 54.32360679291681 415.0097265404165"/><polygon points="97.23049417989677 395.8971608465634 113.40249738258318 398.5975026174168 117.75237513007696 416.4190417967436 99.6211819435348 412.3788180564652"/><polygon points="138.56239202636957 394.56239202636954 159.32381670315218 395.3428499635145 163.7299958628011 419.7299958628011 134.62828523243311 420.03838143423354"/><polygon points="177.73095299843098 391.06428633176427 199.16259187334032 398.170741459993 207.37021376098937 420.7035470943227 176.44489566818856 420.88843766514475"/><polygon points="227.28625718773154 397.9529238543982 244.36536427857743 395.6346357214225 240.74386884955427 411.41053551622093 217.69312621092416 422.3068737890758"/><polygon points="262.5105808363601 390.5105808363601 290.44666726399936 392.21999940266727 283.6278511478372 411.6278511478372 265.1278400899832 417.53882657668345"/><polygon points="305.6529138201339 390.9862471534673 329.6678285792269 395.66550475410634 334.9226796978906 420.256013031224 310.9774049256554 414.3559284076779"/><polygon points="357.4391955081059 400.1058621747726 379.71090739279 388.28909260720997 371.9061237387315 414.57279040539817 348.0946644977113 419.90533550228866"/><polygon points="388.73666375257756 388.73666375257756 421.4686967110549 389.1979699556117 417.64327062869916 417.64327062869916 399.3512298651471 411.3154368015195"/><polygon points="436.0829452463973 393.41627857973066 454.06606370049406 399.2672696328392 453.03373487411244 410.3670682074458 432.5538242719332 420.77950906140006"/><polygon points="483.2540372139023 397.92070388056896 500.6333604914434 395.36663950855655 502.22089452585953 416.8875611925262 479.0970769045286 416.90292309547135"/><polygon points="9.861314196953058 436.5279808636197 32.03626514919655 437.2970681841367 27.199774438749614 453.86644110541624 11.898854379738571 457.4344789535947"/><polygon points="56.26419465288886 440.2641946528888 71.7691899209862 440.23081007901374 75.17948980226582 459.1794898022658 47.41913871215747 464.5808612878425"/><polygon points="100.01270208611027 441.3460354194435 117.75274247393405 436.91392419273257 121.19812348953548 462.5314568228688 90.64980222196266 464.0168644447039"/><polygon points="132.26142819666615 430.9280948633327 159.1599360914133 438.17339724192 154.62712078984563 453.29378745651223 138.0589546035891 459.2743787297442"/><polygon points="184.85158893195845 440.8515889319584 199.36643595025052 440.63356404974945 209.0509351862666 465.05093518626654 178.03012631670427 461.9698736832957"/><polygon points="217.2863281763947 430.61966150972796 247.28588936533373 435.38077730133284 246.35734178063598 459.69067511396923 221.6855362595141 460.98113040715253"/><polygon points="270.79197137132985 441.4586380379965 282.7446973066021 442.58863602673114 287.5673891325305 458.2340557991971 264.4492381060858 460.8840952272475"/><polygon points="303.19018984874947 431.19018984874947 334.10687845164324 433.89312154835665 335.95583437830373 463.95583437830373 310.7409897490374 457.2590102509625"/><polygon points="349.1224894562606 434.4558227895939 379.3503976774473 431.3162689892193 371.2737925180655 456.6071258513988 349.0778834066134 461.58878326005316"/><polygon points="390.3298648165703 432.99653148323694 421.8908093860208 431.44252394731245 414.1206294469257 456.78729611359233 397.27170166042265 456.0616316729106"/><polygon points="438.49068392598235 438.49068392598235 462.8076612007833 433.1923387992166 463.371488085201 463.371488085201 439.16813623879244 456.83186376120744"/><polygon points="483.66240397898696 440.9957373123203 505.04754842995425 433.6191182367123 504.0036817357341 461.33701506906743 481.11314954497357 457.553517121693"/><polygon points="6.221509222339783 475.5548425556731 38.00687810901457 473.9931218909854 35.44505734365599 504.77839067698926 14.58936755430949 497.41063244569045"/><polygon points="54.97931412010769 481.6459807867743 78.26157636496629 476.40509030170034 70.43718067482898 497.1038473414956 59.015088609777116 495.6515780568895"/><polygon points="98.29119308692677 482.29119308692674 120.8338509240171 476.4994824093162 118.76744839293872 502.76744839293866 101.78869410041459 495.5446392329187"/><polygon points="140.2739435531519 481.6072768864852 157.31501518141903 482.6849848185809 158.77130363414042 500.1046369674737 138.53395539019752 501.46604460980245"/><polygon points="174.8009585509482 473.46762521761485 204.31047367610086 478.3561929905658 206.03196530039278 504.6986319670594 186.8886854544988 495.77798121216784"/><polygon points="224.46441935914578 480.4644193591457 240.83635419348792 484.4969791398454 249.6038487964673 505.6038487964673 223.21360534066207 502.1197279926712"/><polygon points="261.08840595216344 474.42173928549676 287.259708099562 480.74029190043797 282.6898495146657 496.023182847999 271.4829314446096 496.5170685553903"/><polygon points="302.84033535635547 473.50700202302215 336.04532163396675 474.6213450326998 325.90307608450047 496.56974275116715 304.2066633929814 506.4600032736852"/><polygon points="350.81631080306335 478.81631080306335 373.6581875230878 479.67514581024545 374.0286255904476 502.0286255904476 351.4642429423672 501.86909039096605"/><polygon points="393.15145084676 478.48478418009336 418.9488691918253 477.05113080817466 421.18175390332897 506.5150872366623 396.45708489202224 499.5429151079777"/><polygon points="440.5439534492139 483.2106201158806 462.2690838476966 476.39758281896997 461.908972985439 504.5756396521057 433.47039101346206 505.1962756532045"/><polygon points="484.8085148817265 484.8085148817265 505.42053482759707 475.9127985057362 501.8728301396952 501.8728301396952 478.3062224006219 503.02711093271137"/>
</svg>
