<?xml version="1.0" encoding="UTF-8"?>
<svg xmlns="http://www.w3.org/2000/svg" id="RSSicon" viewBox="0 0 512 512" width="512" height="512">
  <defs>
    <style type="text/css">
      svg {
        background: black;
        margin: calc(50vh - 256px) auto 0;
      }
      
      polygon {stroke: darkorange; fill: none;}
    </style>
  </defs>
  <polygon points="7.35357972787957 7.35357972787957 30.72043471464344 11.946231952023224 27.13557008942125 27.13557008942125 15.932621958805724 26.73404470786094"/><polygon points="57.85103614322195 15.184369476555275 78.11651247885649 7.21682085447684 79.45362609209351 36.78695942542684 56.35991935365878 28.973413979674547"/><polygon points="96.36157396929502 11.028240635961703 114.62712500762431 13.372874992375674 118.17589008110686 32.84255674777353 100.74194475462639 27.2580552453736"/><polygon points="142.47405192121846 14.474051921218464 163.82253144011167 6.844135226555013 159.0965863355263 31.096586335526275 136.84863153122592 33.81803513544074"/><polygon points="179.9799112607347 9.313244594068022 198.4542955000424 14.879037833290923 199.98126201260936 29.314595345942685 176.4148793570986 36.91845397623473"/><polygon points="222.67065077800152 9.337317444668193 239.97769299216066 16.022307007839323 240.19194970462797 26.858616371294637 220.89412700122256 35.10587299877743"/><polygon points="267.36188293501425 11.361882935014274 290.01370625449294 8.652960412173709 284.18576985227315 28.185769852273175 265.3685291314464 33.29813753522025"/><polygon points="303.2032833620577 4.536616695391061 330.9665268717621 10.366806461571196 331.7368834653896 33.07021679872298 308.47667632026736 32.85665701306593"/><polygon points="348.5640365798679 7.23070324653462 371.4616867085983 12.53831329140168 374.62991500413807 33.29658167080474 346.5452660789998 37.45473392100013"/><polygon points="394.97966519314394 10.979665193143951 413.83188799559025 12.83477867107642 414.9555567026583 30.955556702658374 388.62947315968944 38.03719350697722"/><polygon points="437.9006302973356 11.233963630669024 455.0476312766837 14.285702056649573 453.83179667431614 27.16513000764953 441.0439208775147 28.28941245581857"/><polygon points="479.47785950485496 10.144526171521662 504.5675227055526 7.432477294447326 504.3547991023557 35.02146576902239 482.31793895297403 29.68206104702592"/><polygon points="9.754717940751132 52.4213846074178 31.571212688450537 53.7621206448828 29.491721954245214 72.15838862091188 13.619273845184257 71.71405948814908"/><polygon points="48.49097661733816 48.49097661733816 74.92928089762894 53.07071910237106 68.84174283181203 68.84174283181203 50.09838911694317 77.90161088305683"/><polygon points="93.8465616428939 51.17989497622724 114.95439752847378 55.71226913819288 115.10774153898522 72.44107487231857 95.97803712131451 74.68862954535214"/><polygon points="133.1537041529104 47.820370819577036 162.80929185295835 50.524041480375 157.48708088062534 72.153747547292 135.8720582998464 77.46127503348694"/><polygon points="182.07771538547973 54.07771538547973 204.84356434190647 51.156435658093535 208.36031657276794 80.36031657276793 185.8020458031615 70.19795419683852"/><polygon points="227.28908992291608 56.62242325624941 240.59244049025148 58.07422617641518 240.84901701454532 70.18235034787867 219.47745499127782 79.18921167538883"/><polygon points="270.77798536619247 57.44465203285916 287.3988996739279 53.93443365940547 285.77831617315024 72.44498283981692 265.82076987201907 75.51256346131424"/><polygon points="308.38916592516654 52.389165925166594 330.7756796512142 53.22432034878575 330.55610421700504 74.55610421700507 313.95928036558115 70.0407196344188"/><polygon points="349.42101587661637 50.75434920994972 378.03789061348516 48.628776053181475 367.4652696026822 68.79860293601557 353.92811920811874 72.73854745854786"/><polygon points="396.28334560707805 54.95001227374473 412.1889319494344 57.14440138389895 414.1579535663379 72.82462023300458 392.08589565666944 77.2474376766639"/><polygon points="430.57820135308714 46.57820135308721 464.9946572449348 47.00534275506516 459.43933790577324 75.4393379057733 440.00854625678585 71.9914537432141"/><polygon points="478.30451105381115 51.63784438714453 495.57210306090406 59.0945636057626 505.9026274271601 79.23596076049344 475.5558421432369 79.11082452342974"/><polygon points="12.775166455613446 98.10849978894677 28.347639416102144 99.65236058389785 27.332618317080673 112.665951650414 10.165403278858287 117.83459672114171"/><polygon points="53.11729612589764 95.7839627925643 72.02002815705741 98.64663850960925 73.82923631011214 116.4959029767788 49.18523580278825 121.48143086387842"/><polygon points="97.01451861720116 97.01451861720116 123.0906873551994 90.24264597813391 119.9084193997359 119.9084193997359 94.41095717191203 118.92237616142128"/><polygon points="142.92909740449227 100.26243073782558 161.90036838478005 94.09963161521995 155.89345225317913 113.22678558651245 136.50093886543448 119.49906113456552"/><polygon points="176.87714649466005 91.54381316132671 203.60686478029413 95.05980188637251 203.14571348906762 117.81238015573427 179.75434945110175 118.91231721556491"/><polygon points="222.11816282640746 94.11816282640747 240.78580427280036 100.54752906053295 242.11354570476342 114.11354570476342 228.61762778276176 112.71570555057154"/><polygon points="268.1895171245769 97.5228504579103 292.9710767582134 91.02892324178656 288.0809210288429 117.41425436217624 267.3816663964464 116.61833360355357"/><polygon points="314.8238997904672 101.49056645713392 328.0037583449664 98.6629083217002 328.30477592104637 114.97144258771306 309.4573769695446 117.20928969712196"/><polygon points="355.7555063910354 99.7555063910354 373.22674984663155 96.10658348670175 369.4631363673193 113.46313636731934 346.62363432646134 122.70969900687194"/><polygon points="399.1660576869235 100.49939102025684 417.1250712795081 94.87492872049185 420.0878427384528 121.42117607178616 391.9323188512768 120.06768114872314"/><polygon points="438.5307523278077 97.19741899447445 456.55976664960804 98.10690001705858 455.14842082693855 113.81508749360525 436.7256638601515 117.94100280651513"/><polygon points="481.38062259176445 97.38062259176446 505.06244156292115 92.27089177041212 497.2174764069204 113.21747640692044 474.7324977144623 122.60083561887097"/><polygon points="8.348941077323703 136.3489410773237 35.96718869248249 134.6994779741842 37.162701427408614 165.16270142740862 4.1823570554663725 166.4843096112003"/><polygon points="49.308595565886804 134.64192889922015 75.99016970502807 137.34316362830526 79.65472486062441 164.98805819395776 50.96580832629755 162.3675250070358"/><polygon points="94.57833984901025 137.24500651567695 116.07618106005901 139.923818939941 118.66808620223591 161.3347528689026 101.58285207765 154.41714792235"/><polygon points="139.99548128472873 139.99548128472873 156.673888707942 141.99277795872467 155.26996567891783 155.26996567891783 137.80572930507617 160.86093736159052"/><polygon points="185.49842126798688 142.8317546013202 202.69214140427965 138.6411919290537 201.05329887755033 158.38663221088368 185.22738346871805 156.1059498646153"/><polygon points="229.1838596958418 143.85052636250848 249.97675101542242 134.02324898457758 250.15552772321465 164.82219438988133 227.86704341244908 156.13295658755092"/><polygon points="272.40103672352205 144.40103672352208 287.1584084304543 139.50825823621238 291.5520067284053 163.5520067284053 263.4029327737117 163.26373389295497"/><polygon points="307.2386572461762 136.57199057950962 329.73346774642084 139.59986558691241 328.4339729201084 157.7673062534418 307.97430470195314 161.35902863138017"/><polygon points="355.0972409832147 141.76390764988145 377.0474212898295 134.95257871017043 376.77786844956364 163.44453511623033 348.13589326367503 163.86410673632494"/><polygon points="391.45942320185515 135.45942320185517 421.8439695581756 132.82269710849107 417.2964096957213 161.2964096957213 396.8408953644233 157.82577130224334"/><polygon points="433.6228515021008 134.95618483543421 458.2072247684003 139.12610856493302 460.17652484921234 161.5098581825457 437.55100180244176 159.78233153089155"/><polygon points="481.05114321090764 139.71780987757438 498.31366236265586 141.6863376373441 499.68292031697393 158.34958698364065 477.52616266099614 162.47383733900386"/><polygon points="12.20646934638159 182.87313601304825 35.6076668979879 177.72566643534543 31.05226254450823 201.7189292111749 11.39996139158602 201.9333719417473"/><polygon points="53.658777739626785 181.6587777396268 81.48071264302283 174.51928735697717 70.93214503814387 198.93214503814386 57.95937237454258 198.04062762545743"/><polygon points="99.27147481140399 184.60480814473732 115.04772643344992 183.61894023321673 119.12492598366393 204.45825931699727 91.22897905887888 207.43768760778778"/><polygon points="139.27321204794035 181.939878714607 162.6990285219873 178.63430481134606 166.09070355679103 208.75737022345766 138.52504310564368 202.80829022768967"/><polygon points="178.10044230213964 178.10044230213964 208.22977154163328 175.77022845836672 199.5485158364951 199.5485158364951 179.979540657403 204.020459342597"/><polygon points="226.34775824940127 183.6810915827346 244.96686746936618 181.69979919730048 247.42861511465503 204.76194844798837 228.55096425221294 198.11570241445372"/><polygon points="264.7834003827078 179.45006704937447 290.0137670707712 179.31956626256212 291.89861610048996 206.56528276715667 266.58142282068906 202.75191051264423"/><polygon points="308.122955114249 180.12295511424904 329.8061424238037 182.19385757619628 333.9115848578272 205.91158485782725 311.74297556705994 200.25702443294"/><polygon points="350.4632649575159 179.79659829084923 379.6960064017971 174.97066026486954 379.5451403428254 208.87847367615873 354.91116258813634 199.7555040785303"/><polygon points="400.60406279666955 187.27072946333624 414.6694437360153 182.66388959731805 415.3725135492784 202.0391802159451 389.3276925226621 208.00564081067122"/><polygon points="441.79534527149553 185.79534527149556 461.5001147930307 178.49988520696925 462.2417861927762 206.24178619277623 436.32875449500983 203.6712455049901"/><polygon points="485.90085377520256 187.23418710853596 496.32360870432336 186.3430579623433 495.7215708652304 197.05490419856372 483.13037957600955 199.53628709065708"/><polygon points="15.594513293314643 228.92784662664798 30.004372644495113 225.99562735550487 37.637220714040325 250.97055404737364 9.389842508246533 246.61015749175345"/><polygon points="47.76294470522412 218.4296113718908 72.23139057189435 226.4352760947723 79.07801264887226 249.74467931553892 57.591914974722904 241.07475169194376"/><polygon points="91.97141049970128 219.97141049970128 118.68893291018053 222.64440042315277 123.0994894907288 251.09948949072879 91.92407237017022 249.4092609631631"/><polygon points="139.73084587039332 225.06417920372664 158.17858771159496 225.82141228840504 154.6954490694099 240.02878240274322 140.06452846812715 243.93547153187285"/><polygon points="181.70249162972956 224.36915829639622 198.64033506118363 228.02633160548305 200.14504243647934 242.811709103146 177.39354464611029 249.27312202055637"/><polygon points="218.83756617156735 218.83756617156735 239.64305528977047 229.69027804356284 248.93141478331393 248.93141478331393 217.71645572082585 251.61687761250747"/><polygon points="268.557599320893 225.89093265422636 286.17825505628474 225.82174494371526 284.8886939992332 242.22202733256657 272.45447691022474 239.54552308977526"/><polygon points="308.8181676254517 223.4848342921184 335.5709004099603 219.0957662567063 335.3765678216044 250.0432344882711 310.3217966168083 244.3448700498583"/><polygon points="350.643621201694 222.64362120169397 379.9911554772157 217.3421778561176 368.6917313471319 240.6917313471319 346.3208887847771 251.01244454855618"/><polygon points="397.27740434090225 226.6107376742356 419.2318929112213 220.76810708877866 415.8245083626933 245.1578416960266 393.6161455084089 246.38385449159102"/><polygon points="437.76151046546755 224.4281771321343 455.41619989777405 227.25046676889255 464.80484710689467 251.4715137735614 441.76547273666705 240.90119392999958"/><polygon points="484.0024825109415 228.0024825109415 502.5512776375978 222.78205569573547 499.12021101208217 243.12021101208217 474.4468820175999 250.88645131573338"/><polygon points="11.520356145838145 267.52035614583815 29.028218085518255 269.6384485811484 34.37371712233711 290.3737171223371 16.316105329090306 282.3505613375763"/><polygon points="54.00033306122077 267.3336663945541 74.99101868041559 266.3423146529177 80.4079222473753 293.74125558070864 51.051711835934725 290.2816214973986"/><polygon points="94.96603999298786 265.6327066596545 121.50062330694583 262.49937669305416 114.90483032261496 285.5714969892816 98.29841608046803 285.70158391953197"/><polygon points="144.29710901465444 272.29710901465444 163.4868060520861 263.17986061458055 158.51657890325262 286.5165789032526 139.7698011446218 286.8968655220449"/><polygon points="177.20144366248257 262.5347769958159 204.11920499151785 265.21412834181547 201.71451288390702 287.04784621724036 175.40299826912477 293.9303350642086"/><polygon points="225.3018324176507 267.96849908431733 251.4276929601951 260.5723070398049 250.8739637616386 293.5406304283053 226.38542086397615 285.6145791360238"/><polygon points="265.34998811549667 265.34998811549667 286.8370864540388 267.82958021262783 290.2361973994709 290.2361973994709 267.8530917259453 286.8135749407213"/><polygon points="310.1155356687073 267.4488690020407 325.6756654425269 271.65766789080635 333.1369168018676 290.47025013520096 314.6244496953455 282.70888363798775"/><polygon points="357.1247467411788 271.7914134078455 378.78002864616707 261.2199713538329 380.0446512388286 294.71131790549526 352.9029468475882 287.0970531524117"/><polygon points="392.87501584776686 264.87501584776686 415.4093213664334 267.2573453002332 411.2459902572768 283.2459902572768 389.0616391305248 293.60502753614185"/><polygon points="439.1983648492005 268.5316981825339 460.48193682090414 264.8513965124291 462.62891539503727 291.96224872837064 442.8786479656641 282.4546853676692"/><polygon points="473.423035469721 260.0897021363877 506.1939571663025 261.80604283369746 506.16525815316066 292.83192481982735 480.4852116482247 287.5147883517752"/><polygon points="11.207585983955868 309.87425265062245 26.808336371398955 314.52499696193433 27.774074591547553 326.4407412582142 4.5486000650308505 336.78473326830243"/><polygon points="50.137017326320596 306.1370173263205 81.25517375755011 302.74482624244985 79.20577781997886 335.2057778199788 52.39490879667004 331.6050912033299"/><polygon points="90.3079743053459 303.64130763867917 114.44229426648404 312.2243724001826 113.75592434765511 327.0892576809884 95.97420858158212 330.69245808508447"/><polygon points="133.18517251829982 303.8518391849664 164.77531819563944 304.5580151376938 158.49009808846088 329.1567647551275 131.9593917147541 337.3739416185792"/><polygon points="181.0311892969242 309.03118929692414 205.60937672396122 306.3906232760387 205.36965227885827 333.3696522788582 181.04519604525407 330.9548039547459"/><polygon points="218.60546955960666 303.93880289294 247.96970641561305 306.69696025105355 251.4300984838423 336.76343181717556 222.7019576043285 331.9647090623381"/><polygon points="261.5940592379735 304.26072590464014 286.16359922587253 311.1697341074607 294.8150431980925 337.4817098647591 262.0689497490284 335.2643835843049"/><polygon points="304.0938892610903 304.0938892610903 329.2563405474439 310.74365945255596 329.8216793805708 329.8216793805708 313.4382537395503 326.5617462604496"/><polygon points="346.1641098729157 303.497443206249 371.02461868425274 311.6420479824138 370.8840080065873 328.2173413399206 357.6224787922436 325.04418787442296"/><polygon points="389.48449368485706 304.1511603515237 412.1884723151235 313.1448610182098 420.5791708674555 335.24583753412213 391.50855421918743 333.8247791141458"/><polygon points="434.111795418167 306.111795418167 459.49482646104946 308.50517353895043 456.99236732772715 328.99236732772715 435.6452484419325 332.3547515580674"/><polygon points="485.3391906457932 314.67252397912654 500.82121974395375 309.8454469227128 499.9574307679883 329.2907641013216 484.0289484713875 326.6377181952791"/><polygon points="8.120493405776225 349.4538267391095 36.955683293020186 347.04431670697977 29.13878108890986 370.4721144222432 8.77822711951483 375.2217728804851"/><polygon points="51.990266226212356 350.65693289287896 78.7877284376856 347.87893822898104 76.82955002768185 375.49621669434845 51.26413157911144 375.4025350875552"/><polygon points="93.66060499908012 349.6606049990801 112.5299143528263 356.803418980507 117.73082337322866 373.73082337322865 95.73229011814693 373.60104321518634"/><polygon points="141.20230273559386 354.53563606892715 154.4562964724569 357.5437035275431 162.46912560957057 375.80245894290385 144.1051860535908 367.89481394640916"/><polygon points="187.06869417670333 357.73536084336996 197.8512985722986 356.81536809436807 206.399764637491 377.0664313041576 184.74342829448943 369.9232383721772"/><polygon points="226.3144821371352 354.3144821371352 241.29162591939973 356.0417074139336 242.34324177355322 370.3432417735532 218.38181725061406 378.9515160827192"/><polygon points="272.4594917685613 357.79282510189466 294.1397863049095 345.86021369509047 293.14704048623054 378.48037381956385 265.98416403047406 374.0158359695259"/><polygon points="304.40403527971745 347.07070194638413 334.05330478592447 348.6133618807421 327.200050747652 369.8667174143187 314.91438065933505 367.7522860073315"/><polygon points="352.04033580072405 352.04033580072405 374.2787957469476 351.05453758638566 374.8059967144583 374.8059967144583 352.00891467317314 373.3244186601601"/><polygon points="395.0030408100994 352.3363741434327 422.7483402125161 345.25165978748385 421.1364205667457 378.469753900079 391.79149144736834 376.2085085526316"/><polygon points="437.539611741581 352.20627840824767 464.23668225038665 346.4299844162799 457.52529432829976 372.19196099496645 430.92886905150516 379.7377976151614"/><polygon points="483.15764625216394 355.15764625216394 504.935405027635 348.39792830569826 497.0352451320005 369.0352451320005 477.8489845230248 375.48434881030846"/><polygon points="5.263400303963525 389.2634003039635 30.537859154171795 396.12880751249486 30.647207892600107 414.6472078926001 11.601023887435293 415.0656427792313"/><polygon points="52.07298036251022 393.40631369584355 71.12234604316663 398.21098729016666 72.06804629687868 413.401379630212 58.64999171665329 410.68334161668"/><polygon points="96.93550348948915 395.6021701561558 121.72565803707371 390.27434196292626 112.95858867536877 411.6252553420354 93.43430887134816 418.5656911286518"/><polygon points="144.40507309941793 400.4050730994179 157.07832465026257 397.5883420164041 155.24506133889966 411.24506133889963 133.31390322788013 421.3527634387865"/><polygon points="187.18618636350106 400.5195196968344 207.3170931071857 390.0162402261476 207.79236752300127 421.12570085633456 176.11523014741306 421.21810318592026"/><polygon points="222.10480821304463 392.77147487971126 244.5243083915956 395.47569160840436 239.89735037243145 410.5640170390981 229.2041463443842 410.79585365561576"/><polygon points="272.57557278763363 400.57557278763363 283.4982488127813 399.16841785388533 287.948432436874 415.948432436874 263.54293751393465 419.123729152732"/><polygon points="305.8777047277752 391.2110380611086 336.4898877231827 388.8434456101506 326.23284945858984 411.5661827919232 310.8973882914781 414.4359450418552"/><polygon points="346.067044180398 388.7337108470647 371.66211467755096 396.337885322449 372.30213539951075 414.96880206617743 356.75908135860675 411.2409186413932"/><polygon points="391.1889703678938 391.1889703678938 411.58098906651304 399.0856776001536 415.854445045472 415.854445045472 396.0410907150274 414.62557595163923"/><polygon points="443.0121641544962 400.34549748782956 462.4321419465845 390.90119138674874 457.377339991788 414.7106733251214 436.0729858475851 417.2603474857482"/><polygon points="473.5240410193177 388.19070768598436 498.49819021330404 397.5018097866959 506.9574672424726 421.6241339091393 483.51699497502085 412.4830050249791"/><polygon points="12.091563190553869 438.7582298572205 33.699612754001926 435.63372057933134 28.20335262004601 454.87001928671265 14.432088897037094 454.90124443629617"/><polygon points="59.25799108575937 443.25799108575933 79.77449169301177 432.22550830698816 79.28171843032545 463.2817184303254 48.93560838625342 463.0643916137465"/><polygon points="94.20017425944013 435.5335075927734 115.0271495276189 439.6395171390477 122.69708677657034 464.0304201099036 90.47585972329422 464.19080694337237"/><polygon points="139.0138853943704 437.68055206103696 159.47495916946679 437.85837416386653 154.9858876444881 453.6525543111547 135.55434510688363 461.77898822644966"/><polygon points="185.05016406384357 441.0501640638435 198.03351050189656 441.9664894981034 208.45524108258553 464.4552410825855 179.92627820163946 460.07372179836045"/><polygon points="221.63332804032078 434.96666137365406 248.5085054235679 434.15816124309873 244.83014387444655 458.1634772077798 223.56818294651922 459.0984837201474"/><polygon points="266.3323117437785 436.99897841044515 291.6757240476688 433.6576092856645 292.44615801863023 463.11282468529686 267.69784249037633 457.6354908429569"/><polygon points="310.04550355383276 438.04550355383276 326.30274216415756 441.6972578358423 326.08132973747746 454.08132973747746 313.8073301971642 454.19266980283567"/><polygon points="356.29130795071393 441.62464128404724 371.12669992830104 439.53996673836554 369.05332930547144 454.38666263880475 355.3865270765407 455.2801395901258"/><polygon points="389.7885095298381 432.45517619650474 419.16453037706077 434.1688029562725 422.6842725225957 465.3509391892623 389.8863842573216 463.44694907601166"/><polygon points="434.6409355740096 434.6409355740096 456.84744429751663 439.15255570248326 464.5403228857639 464.5403228857639 439.22855397851436 456.77144602148553"/><polygon points="476.83831586798897 434.1716492013223 507.8039256659752 430.86274100069136 505.3895936987748 462.7229270321081 477.0340793191509 461.63258734751565"/><polygon points="13.980807631976752 483.31414096531006 36.097370259881174 475.9026297401188 28.045332481695002 497.3786658150283 14.140551123712283 497.8594488762877"/><polygon points="47.79747172304032 474.46413838970693 74.97726531882925 479.68940134783736 79.25510287092973 505.92176953759633 53.34519075987937 501.32147590678727"/><polygon points="91.97869315057429 475.97869315057426 124.02454819190363 473.30878514142967 122.02676778782191 506.0267677878219 96.4927604092403 500.840572924093"/><polygon points="140.9928122888743 482.32614562220755 156.9670828098477 483.03291719015226 162.7971941089865 504.13052744231976 140.68785483672107 499.3121451632789"/><polygon points="185.08706858775798 483.7537352544246 200.52300891225138 482.14365775441524 198.9143130989727 497.58097976563937 179.4900681758474 503.17659849081923"/><polygon points="222.84742048383546 478.84742048383544 244.97456052425363 480.35877280907965 241.52763432966748 497.5276343296675 229.10036078296298 496.2329725503703"/><polygon points="269.1380812302302 482.47141456356354 290.5132908049076 477.4867091950923 282.5107668541595 495.8441001874928 267.16093688544026 500.8390631145596"/><polygon points="303.0974647580554 473.7641314247221 330.40965859198405 480.2570080746825 336.606651825642 507.2733184923087 306.15684799049257 504.50981867617395"/><polygon points="351.1963163169652 479.1963163169652 376.64557973363077 476.6877535997025 369.10895799622875 497.10895799622875 354.65281964889584 498.6805136844374"/><polygon points="388.9405744371895 474.27390777052284 410.8444290165542 485.1555709834457 417.5728205893204 502.9061539226537 389.5957855944007 506.40421440559925"/><polygon points="434.73078641608646 477.39745308275315 461.0669475498882 477.5997191167784 465.05165883211686 507.71832549878354 436.4754740510837 502.19119261558285"/><polygon points="480.895405015347 480.895405015347 502.56983961306884 478.7634937202644 502.69128418393393 502.69128418393393 480.6679539870925 500.66537934624074"/>
</svg>
