<?xml version="1.0" encoding="UTF-8"?>
<svg xmlns="http://www.w3.org/2000/svg" id="RSSicon" viewBox="0 0 512 512" width="512" height="512">
  <defs>
    <style type="text/css">
      svg {
        background: black;
        margin: calc(50vh - 256px) auto 0;
      }
      
      polygon {stroke: darkorange; fill: none;}
    </style>
  </defs>
  <polygon points="12.370597141557397 12.370597141557397 30.287651142309638 12.379015524357026 34.66962576370838 34.66962576370838 16.08583595416298 26.580830712503683"/><polygon points="54.125960259076436 11.459293592409772 75.8272427623332 9.506090571000133 71.76786462804796 29.101197961381292 49.05016719177271 36.28316614156062"/><polygon points="100.01659376764626 14.683260434312935 117.2091281447986 10.790871855201386 122.81826830238693 37.4849349690536 101.88267085389434 26.117329146105646"/><polygon points="142.51318297356 14.51318297355999 156.00136766683622 14.665298999830465 163.5114653857742 35.511465385774166 137.71273092103425 32.953935745632435"/><polygon points="182.12029381127766 11.453627144610987 202.38024832894462 10.953085004388702 197.10021064921654 26.43354398254987 184.65680506042696 28.67652827290636"/><polygon points="220.99003474874442 7.656701415411092 243.99669869859164 12.003301301408346 249.23232691281817 35.89899357948485 220.60676818561208 35.39323181438792"/><polygon points="267.3195469981146 11.319546998114618 284.98267544747864 13.683991219188027 294.1554487714851 38.155448771485155 265.73545400378435 32.931212662882274"/><polygon points="305.8129002313332 7.1462335646665665 328.1817998953783 13.151533437955019 335.55189523692786 36.885228570261226 303.1744165585984 38.15891677473486"/><polygon points="353.6174014995624 12.284068166229082 371.3620186763554 12.63798132364458 378.2758979253244 36.942564591991086 355.35172575427924 28.648274245720717"/><polygon points="399.45251529752403 15.452515297524066 414.83153920206075 11.835127464605876 410.10179096711255 26.101790967112592 397.919793787024 28.74687287964264"/><polygon points="440.5241288233485 13.85746215668193 455.39483360473974 13.938499728593545 455.32179434372784 28.655127677061238 441.3396773058955 27.993656027437762"/><polygon points="477.5296768226416 8.19634348930828 495.7879976309837 16.212002369016275 506.70123269625856 37.36789936292526 481.31888735556925 30.681112644430705"/><polygon points="5.890197737023993 48.55686440369066 29.821531702999003 55.51180163033433 27.320649392867473 69.98731605953414 8.610201190648693 76.72313214268463"/><polygon points="48.922930301627865 48.922930301627865 78.34486635408147 49.65513364591853 78.44146077213775 78.44146077213775 48.70711250912959 79.29288749087041"/><polygon points="90.32244684501458 47.655780178347925 112.90153921710215 57.76512744956451 112.45072617821566 69.784059511549 98.7139087962248 71.95275787044186"/><polygon points="138.43048437587134 53.09715104253799 164.15341527341752 49.179918059915806 155.91875128568338 70.58541795235004 141.4732598683824 71.86007346495096"/><polygon points="184.52861158856354 56.528611588563535 202.41792665475353 53.58207334524647 208.6283136021437 80.62831360214368 185.2957937007765 70.7042062992235"/><polygon points="218.14948511563566 47.482818448969006 240.40556093599153 58.26110573067513 247.972933855157 77.30626718849035 222.92817463538708 75.73849203127958"/><polygon points="272.2219638671056 58.888630533772286 282.84691749291443 58.486415840418864 291.2571012788551 77.92376794552175 270.33282909127365 71.00050424205966"/><polygon points="302.650312265414 46.65031226541407 336.5668001974786 47.43319980252136 329.2339297862355 73.23392978623552 315.15488946629506 68.8451105337049"/><polygon points="350.8491071939662 52.18244052729955 375.41695216857835 51.249714498088274 377.1123451586144 78.44567849194777 356.7667347054313 69.89993196123535"/><polygon points="394.45990565825963 53.1265723249263 411.22527728395823 58.10805604937509 417.3933704583797 76.06003712504638 394.1379446014473 75.19538873188597"/><polygon points="432.99453002027946 48.99453002027952 454.6466863279369 57.35331367206307 461.00312689571365 77.00312689571368 434.81618332949074 77.18381667050922"/><polygon points="480.7898656093861 54.12319894271943 499.72646514647204 54.94020152019461 503.2554447572966 76.58877809062994 478.15194609711665 76.51472056954997"/><polygon points="10.766221531709236 96.09955486504256 28.103350859160997 99.89664914083899 28.90886636735159 114.24219970068492 12.643074074628792 115.3569259253712"/><polygon points="53.59926612749258 96.26593279415923 70.70463412318671 99.96203254347995 74.87756357570818 117.54423024237484 52.12282593746468 118.54384072920197"/><polygon points="93.42152154856578 93.42152154856578 118.77463118155934 94.55870215177397 115.7941742034369 115.7941742034369 93.86636550994304 119.46696782339028"/><polygon points="134.94028040735697 92.2736137406903 158.96956218059512 97.03043781940488 163.59800319999087 120.93133653332418 134.73822523743144 121.26177476256858"/><polygon points="183.3409101179881 98.00757678465477 205.82351864991665 92.84314801675 196.8277952814733 111.49446194813997 184.92017892302488 113.7464877436418"/><polygon points="227.2256982789005 99.22569827890048 250.21557518204895 91.11775815128435 246.86365368122406 118.86365368122406 229.6806296402355 111.6527036930978"/><polygon points="271.31109598304045 100.64442931637377 283.0372563348081 100.96274366519187 282.68096516312846 112.01429849646183 261.5918328918378 122.40816710816217"/><polygon points="311.6276572740783 98.29432394074496 326.2446631987475 100.42200346791911 335.93812049268985 122.60478715935656 310.17872996116296 116.48793670550367"/><polygon points="348.5563636868919 92.55636368689198 374.7158186159538 94.61751471737944 369.36570377907816 113.36570377907819 353.10311261016386 116.23022072316945"/><polygon points="391.5234838916059 92.85681722493925 411.63007390141337 100.36992609858657 412.72498154619666 114.05831487953 399.5716146807739 112.42838531922605"/><polygon points="438.503199484022 97.16986615068873 459.08523097951644 95.58143568715018 455.43326277719257 114.09992944385928 438.8884475695311 115.77821909713552"/><polygon points="481.712433624756 97.712433624756 507.7109505893654 89.62238274396792 507.986254836963 123.98625483696301 473.98228735577214 123.35104597756117"/><polygon points="14.391072313293062 142.39107231329308 27.15651107999272 143.51015558667396 26.556105740209453 154.55610574020946 13.501623938148338 157.16504272851833"/><polygon points="57.66023252200529 142.99356585533863 76.03918378171468 137.29414955161866 74.46473646372638 159.79806979705972 47.77014928951874 165.5631840438146"/><polygon points="95.18851877055896 137.85518543722566 116.15386634174888 139.84613365825112 116.11093464456707 158.77760131123375 101.77203935889507 154.22796064110494"/><polygon points="134.5260373421287 134.5260373421287 160.3162810791209 138.3503855875458 162.85305220669125 162.85305220669125 136.3971389580408 162.26952770862587"/><polygon points="183.96779133355363 141.30112466688698 200.42204987700052 140.9112834563328 198.9809281618193 156.31426149515264 184.46632033258712 156.86701300074623"/><polygon points="224.46395302109534 139.13061968776202 244.13896428953274 139.86103571046726 240.4866619156304 155.1533285822971 226.52105359817986 157.47894640182014"/><polygon points="261.8528379569095 133.85283795690958 284.4359831265719 142.23068354009476 294.7129461194514 166.71294611945143 260.6609760546088 166.0056906120579"/><polygon points="308.62324596370473 137.95657929703813 337.3354759564483 131.99785737688498 332.5018826739411 161.8352160072745 306.1911990783657 163.1421342549676"/><polygon points="349.7297838986301 136.39645056529682 378.96668026627844 133.03331973372156 374.19811915069295 160.8647858173597 348.7501981922512 163.24980180774872"/><polygon points="390.364656693905 134.36465669390498 413.3945457156812 141.27212095098545 418.7177343803586 162.71773438035862 391.55691077275134 163.10975589391532"/><polygon points="437.2500895483072 138.58342288164062 454.39690073453403 142.93643259879923 463.0909059840707 164.42423931740407 440.19762352375443 157.13570980957886"/><polygon points="475.0046654774232 133.67133214408992 505.48183103036195 134.518168969638 498.321587775011 156.98825444167773 479.0369495379994 160.96305046200058"/><polygon points="11.013399728316347 181.68006639498302 26.569447643619952 186.7638856897134 32.01783953770205 202.68450620436872 13.889659287736727 199.4436740455966"/><polygon points="48.04093084068294 176.04093084068293 74.41249935110868 181.58750064889134 75.27682494838832 203.27682494838834 56.87912645221067 199.12087354778933"/><polygon points="90.55420744689009 175.88754078022345 119.10844864654678 179.55821802011988 118.72827229122431 204.06160562455764 95.353946196776 203.31272046989065"/><polygon points="141.29265604377167 183.95932271043833 159.15915510941613 182.1741782239172 160.99374229478587 203.66040896145253 140.71928521867693 200.6140481146564"/><polygon points="181.07162527746178 181.07162527746178 206.4488828700972 177.5511171299028 206.4999136596422 206.4999136596422 178.81809598264365 205.18190401735635"/><polygon points="229.26923117511305 186.6025645084464 246.30185207500995 180.3648145916567 245.49499297164698 202.82832630498032 223.99752991112683 202.66913675553982"/><polygon points="264.65547001283676 179.32213667950344 286.2973236181225 183.03600971521078 291.41016648838246 206.07683315504917 267.3300413218698 202.0032920114635"/><polygon points="312.75937222032474 184.75937222032482 333.98032198204925 178.0196780179507 326.52857455560854 198.5285745556086 306.8461301614616 205.15386983853836"/><polygon points="348.9197578618337 178.2530911951671 379.9016181978456 174.765048468821 370.249249360923 199.58258269425636 354.39709352925144 200.2695731374152"/><polygon points="395.55196577818634 182.21863244485306 421.3009506671898 176.0323826661435 413.6490021769238 200.31566884359046 389.01453421623864 208.31879911709467"/><polygon points="442.2499807074373 186.2499807074374 458.51384501885775 181.48615498114222 456.49288040188975 200.4928804018898 443.13422672848094 196.86577327151898"/><polygon points="479.84460378660054 181.17793711993392 501.97688994000947 180.68977672665716 496.4190162987638 197.75234963209715 473.53505908250344 209.13160758416316"/><polygon points="13.014171987697944 226.34750532103126 36.890439875548665 219.10956012445132 32.149067973823264 245.48240130715658 13.926080041827365 242.0739199581726"/><polygon points="50.609570594414066 221.27623726108072 74.03392925506631 224.63273741160035 80.82268698568811 251.48935365235477 55.054358313954715 243.61230835271195"/><polygon points="101.61217057161959 229.6121705716196 112.66750317621762 228.6658301571157 117.00667441493869 245.0066744149387 93.37494830282608 247.95838503050723"/><polygon points="140.8343853913442 226.1677187246775 165.687114448154 218.312885551846 160.91485205400588 246.2481853873392 132.54363530452167 251.45636469547833"/><polygon points="180.83472151575938 223.50138818242604 204.1369961928922 222.52967047377444 201.25135687267678 243.91802353934344 183.50252311931175 243.1641435473549"/><polygon points="225.03304179779596 225.03304179779596 243.04206696210585 226.29126637122747 240.6668255500988 240.6668255500988 227.90747108990254 241.42586224343077"/><polygon points="267.8109574466703 225.1442907800036 284.16635231568546 227.83364768431449 288.66825572735513 246.0015890606885 265.742526617502 246.257473382498"/><polygon points="307.29322416591225 221.95989083257894 327.1949005763687 227.4717660902979 334.70328718082396 249.36995384749065 311.3449941400382 243.32167252662842"/><polygon points="348.43613206159034 220.43613206159037 373.3056917251506 224.02764160818268 372.2656131976496 244.26561319764966 349.8676712323446 247.4656621009887"/><polygon points="394.1894991242259 223.52283245755925 422.69213735213395 217.307862647866 421.46417673122727 250.79751006456058 395.61739945658223 244.3826005434177"/><polygon points="441.45471713149595 228.1213837981627 462.9058463821517 219.76082028451486 455.07142289702875 241.73808956369547 435.8824182114907 246.78424845517594"/><polygon points="484.2822496509594 228.28224965095944 497.15761594752615 228.17571738580713 507.78035519056124 251.78035519056124 484.3613033299731 240.97203000336015"/><polygon points="9.988421684702715 265.9884216847027 38.70272920701878 259.96393745964787 37.5381071268595 293.5381071268595 12.260302890802581 286.40636377586407"/><polygon points="57.56121443376476 270.89454776709806 70.23005730350185 271.1032760298315 80.62837945126661 293.9617127845999 50.33363769999917 290.99969563333417"/><polygon points="96.5074959465299 267.17416261319653 120.41611483594104 263.5838851640589 118.63906690749569 289.30573357416233 100.7462059004772 283.2537940995228"/><polygon points="137.27999465598535 265.2799946559853 160.2612277704681 266.4054388961986 157.32940207612734 285.32940207612734 144.0840395973527 282.58262706931396"/><polygon points="175.48971621866005 260.82304955199334 200.12463924194225 269.20869409139107 201.91444806777278 287.2477814011061 179.42335262098888 289.9099807123444"/><polygon points="229.05727970690876 271.7239463735754 245.8356592660101 266.16434073398983 247.82717869357492 290.4938453602416 219.3010921364268 292.6989078635732"/><polygon points="265.6431311524593 265.6431311524593 287.73977270800106 266.9268939586656 285.54411516302645 285.54411516302645 263.3860869197639 291.28057974690273"/><polygon points="309.31050038597476 266.64383371930813 326.4279630376124 270.90537029572084 335.0976371063414 292.43097043967475 314.28335291297844 283.0499804203548"/><polygon points="348.7096240912729 263.37629075793956 373.6702017582627 266.32979824173725 370.9679766235023 285.634643290169 346.07572917818175 293.9242708218182"/><polygon points="398.4509091873488 270.4509091873488 415.5929762701679 267.0736903964987 416.78430180551567 288.78430180551567 393.54105072524203 289.1256159414246"/><polygon points="442.4864135166356 271.81974684996896 454.51640115292753 270.81693218040573 458.57246427804967 287.90579761138304 437.6838438956359 287.64948943769735"/><polygon points="481.0428731218374 267.70953978850406 497.56945166869235 270.4305483313076 507.4914525368331 294.1581192034998 476.12704258709516 291.8729574129047"/><polygon points="14.472842844077787 313.1395095107444 35.39686370571232 305.93646962762097 31.10219303347526 329.7688597001419 5.082060507529793 336.2512728258035"/><polygon points="51.79535825544446 307.7953582554444 79.60892883719794 304.391071162802 76.62920952850598 332.6292095285059 55.77764138365823 328.2223586163417"/><polygon points="90.8130595483808 304.14639288171406 116.83718498807852 309.8294816785881 112.45619240359005 325.78952573692334 97.55415742225003 329.1125092444166"/><polygon points="142.72453762676483 313.39120429343143 165.8168790468274 303.5164542865059 158.30609262195162 328.97275928861825 137.12460211703174 332.20873121630154"/><polygon points="182.32972937075203 310.329729370752 203.09903929702412 308.9009607029758 208.7872039877607 336.7872039877606 179.5957262354784 332.4042737645215"/><polygon points="221.83826896139763 307.1716022947309 244.6877089239628 309.9789577427038 242.78614982565557 328.1194831589888 229.1085593966808 325.5581072699858"/><polygon points="269.6115997137357 312.27826638040233 288.91205430450435 308.4212790288289 291.460554968144 334.1272216348106 261.43339319929964 335.8999401340336"/><polygon points="304.37472159194584 304.37472159194584 329.23450822381994 310.76549177617994 334.727681301853 334.727681301853 309.39768550843746 330.6023144915624"/><polygon points="354.4461391669341 311.7794725002674 371.2347291436481 311.4319375230185 371.1087415376159 328.4420748709492 353.53077752806206 329.1358891386045"/><polygon points="396.85332344050335 311.51999010717 420.3271425345112 305.00619079882205 417.3993108454708 332.0659775121374 395.85023863120597 329.4830947021273"/><polygon points="433.82959690015906 305.82959690015906 456.1959054185839 311.804094581416 461.66650015710485 333.66650015710485 440.7453984846154 327.2546015153845"/><polygon points="480.8657254536196 310.1990587869529 497.37622389136976 313.2904427752968 497.5033111468334 326.83664448016674 480.2220066678623 330.4446599988043"/><polygon points="12.575481211137014 353.9088145444703 26.62707892998204 357.3729210700179 27.183890621011663 368.51722395434496 12.486645687712427 371.51335431228756"/><polygon points="59.23610045733681 357.90276712400345 74.8846101319896 351.782056534677 73.96331178423394 372.6299784509006 49.24208863417976 377.42457803248686"/><polygon points="97.60026514756258 353.60026514756254 120.59719810551293 348.73613522782034 112.11745678502622 368.1174567850262 96.17828821682123 373.15504511651204"/><polygon points="131.8685178919018 345.2018512252351 165.45912883545847 346.5408711645415 162.12566679989484 375.45900013322813 142.5581817233999 369.44181827660003"/><polygon points="174.9014352846552 345.56810195132186 197.55168103878134 357.1149856278853 201.99735633180316 372.66402299846976 175.78608009651242 378.8805865701542"/><polygon points="217.5852985381315 345.5852985381315 246.52483706757755 350.80849626575576 240.02103738364664 368.0210373836466 217.4048160705193 379.928517262814"/><polygon points="264.5429016996017 349.876235032935 282.755233147782 357.24476685221794 293.76910024878373 379.10243358211704 272.2059394449305 367.79406055506945"/><polygon points="304.0965317654507 346.7631984321174 335.0428941089458 347.62377255772077 337.3891918306216 380.0558584972883 305.3113847501644 377.3552819165022"/><polygon points="352.96022852318436 352.96022852318436 375.10082523262116 350.2325081007121 378.7329310864358 378.7329310864358 352.63910012656476 372.6942332067685"/><polygon points="396.15427793250046 353.4876112658338 410.800051121094 357.19994887890596 414.41228831846627 371.7456216517996 388.37199664582846 379.6280033541715"/><polygon points="434.0618300855511 348.7284967522178 459.2352474115309 351.43141925513567 459.42793986464767 374.09460653131435 433.2902927688482 377.3763738978184"/><polygon points="476.016676628472 348.016676628472 500.6248291005327 352.7085042328006 502.33789024057296 374.33789024057296 479.4863332287316 373.84700010460165"/><polygon points="9.420132136726705 393.4201321367267 33.80920533394932 392.8574613327173 36.981665164953164 420.98166516495314 5.261874027345659 421.404792639321"/><polygon points="46.998132720190014 388.33146605352334 71.39769603379203 397.93563729954127 79.42207492360893 420.75540825694225 59.087245441476924 410.2460878918564"/><polygon points="91.8193460574249 390.48601272409155 118.09151136539425 393.9084886346057 118.84618384996627 417.5128505166329 96.6363179037702 415.36368209622975"/><polygon points="135.74866041874822 391.7486604187482 160.4504266700747 394.2162399965919 164.39886209443154 420.3988620944315 136.48238598237634 418.18428068429034"/><polygon points="186.33091822407061 399.66425155740393 203.73785426145076 393.59547907188255 201.49068250360318 414.8240158369365 185.5271959336936 411.8061373996397"/><polygon points="220.9422454044252 391.6089120710918 249.31588274057057 390.6841172594294 248.35262199614215 419.0192886628088 223.00513722976967 416.9948627702303"/><polygon points="264.9384014358572 392.9384014358572 293.1508012023496 389.515865464317 293.86395252388314 421.86395252388314 268.56598664910496 414.1006800175617"/><polygon points="310.8597582570437 396.1930915903771 330.25706838209857 395.0762649512347 328.21041622646175 413.5437495597951 309.8144970672722 415.51883626606104"/><polygon points="353.50676312985286 396.17342979651954 374.4808903963169 393.51910960368303 367.54839238274025 410.21505904940693 350.79428516330984 417.2057148366901"/><polygon points="388.6367140421097 388.6367140421097 411.7607324685554 398.90593419811125 411.7510531724968 411.7510531724968 390.67919405998 419.98747260668665"/><polygon points="432.91901535107354 390.2523486844069 464.9508436963152 388.38248963701807 452.8474840693837 410.1808174027171 432.0952300729064 421.23810326042684"/><polygon points="474.2544886733398 388.92115534000646 506.4574545935169 389.54254540648304 503.44669217921097 418.11335884587766 474.7012132556037 421.29878674439624"/><polygon points="10.244175954308975 436.9108426209756 31.741841418165677 437.5914919151676 29.443224419471903 456.10989108613853 9.261350636804426 460.07198269652883"/><polygon points="49.81999916181251 433.81999916181246 79.63838331547032 432.3616166845296 70.36223633989712 454.3622363398971 56.05947164058154 455.9405283594184"/><polygon points="95.57915132810145 436.91248466143475 122.11315537461255 432.55351129205405 111.98244360746524 453.3157769407985 98.69048023785341 455.9761864288132"/><polygon points="143.55071267081752 442.2173793374841 166.59868461689396 430.7346487164393 166.38179377261395 465.0484604392806 142.3048404903949 455.02849284293836"/><polygon points="183.34732739066453 439.3473273906645 198.86783481737422 441.1321651826257 205.97115905759466 461.9711590575946 182.38529377251248 457.6147062274875"/><polygon points="224.13789527653032 437.4712286098636 246.18288607762264 436.48378058904393 240.15339897106563 453.4867323043989 229.8401400966815 452.8265265699851"/><polygon points="271.4359822333574 442.102648900024 284.79905005740534 440.5342832759279 288.19016023590274 458.85682690256937 266.51109049964003 458.8222428336932"/><polygon points="309.20973601899374 437.20973601899374 324.95006860022255 443.04993139977734 336.29480669359765 464.29480669359765 309.6044425122947 458.39555748770516"/><polygon points="357.32940543180877 442.6627387651421 376.75328578240624 433.91338088426033 371.81932453914 457.1526578724733 350.5372852649765 460.12938140169007"/><polygon points="395.6381465720056 438.30481323867224 419.36561974722804 433.9677135861052 418.49121510853024 461.15788177519687 394.75370483513876 458.5796284981945"/><polygon points="432.7393554770777 432.7393554770777 454.4018546326423 441.5981453673576 461.4756138668668 461.4756138668668 435.68813168557324 460.31186831442665"/><polygon points="479.58508979983793 436.91842313317125 504.82006676365665 433.8465999030099 503.35012201571107 460.6834553490444 476.54323747956323 462.12342918710334"/><polygon points="6.832479089230274 476.1658124225636 30.421263811673363 481.5787361883266 37.19397211592379 506.5273054492571 8.046341341813012 503.95365865818695"/><polygon points="53.55247960981727 480.2191462764839 80.14390590617924 474.52276076048736 73.90866230299267 500.5753289696593 49.87106608800784 504.79560057865876"/><polygon points="99.67805139190126 483.67805139190125 118.55311083884412 478.7802224944892 121.37322390121713 505.3732239012171 94.3645520927358 502.9687812405975"/><polygon points="135.59264145962277 476.9259747929561 155.81828052587358 484.1817194741264 159.89464287011504 501.22797620344835 141.44235380244555 498.5576461975544"/><polygon points="181.79497821622164 480.46164488288827 200.2081573870691 482.45850927959754 206.21245501639171 504.8791216830583 178.4033657481535 504.26330091851315"/><polygon points="225.27164369379412 481.2716436937941 247.49033646651063 477.84299686682266 241.99036160489953 497.9903616048995 229.13254273485006 496.20079059848325"/><polygon points="272.47998542146297 485.8133187547963 289.78977630671125 478.21022369328875 285.8453813103036 499.1787146436369 266.9473033882714 501.05269661172855"/><polygon points="306.2436394231664 476.9103060898331 336.10896615812516 474.5577005085414 333.014976348991 503.6816430156577 302.85529531145426 507.8113713552123"/><polygon points="355.23881274392767 483.23881274392767 373.5657475308583 479.76758580247497 369.53598782277123 497.53598782277123 352.7890129775692 500.54432035576406"/><polygon points="396.6076725592678 481.94100589260114 420.6143633428825 475.38563665711746 412.2571440949355 497.5904774282688 397.8374475424645 498.16255245753547"/><polygon points="437.38054608694256 480.04721275360924 459.97281464369536 478.6938520229712 453.73685216810946 496.40351883477615 441.2514822144754 497.41518445219117"/><polygon points="482.37361184062655 482.37361184062655 495.58291170697134 485.7504216263619 505.2171007173427 505.2171007173427 478.2200307934106 503.11330253992264"/>
</svg>
