<?xml version="1.0" encoding="UTF-8"?>
<svg xmlns="http://www.w3.org/2000/svg" id="RSSicon" viewBox="0 0 512 512" width="512" height="512">
  <defs>
    <style type="text/css">
      svg {
        background: black;
        margin: calc(50vh - 256px) auto 0;
      }
      
      polygon {stroke: darkorange; fill: none;}
    </style>
  </defs>
  <polygon points="14.85009905668464 14.85009905668464 31.391476781757486 11.275189884909178 26.120221791346744 26.120221791346744 4.370650901981513 38.29601576468515"/><polygon points="50.74803572596771 8.081369059301046 76.53196211740651 8.801371215926826 71.58229520985623 28.91562854318956 48.46880428376291 36.86452904957042"/><polygon points="92.58273678390967 7.249403450576347 114.6184077962963 13.38159220370369 113.65943823278191 28.326104899448588 90.84561315402269 37.154386845977314"/><polygon points="141.32020371743914 13.320203717439131 156.43473806991094 14.231928596755749 159.9308933771646 31.930893377164587 139.57627145600932 31.090395210657363"/><polygon points="186.39097299606829 15.724306329401626 205.12413300561104 8.209200327722279 198.29379354563687 27.627126878970195 184.98134829371716 28.35198503961617"/><polygon points="218.84512927327606 5.511795939942733 239.70767145453198 16.292328545468003 249.1858195690849 35.85248623575158 222.63584048105452 33.364159518945485"/><polygon points="262.1511045361312 6.1511045361312195 290.23953578167914 8.427130884987536 288.5940631576859 32.59406315768592 272.4285038189068 26.238162847759853"/><polygon points="312.9365469518237 14.269880285157079 329.9340975909591 11.399235742374202 328.2185194978098 29.55185283114318 312.124102777851 29.209230555482268"/><polygon points="346.27244897244435 4.939115639111041 374.6900098850378 9.309990114962147 377.7394169845875 36.406083651254164 354.4654947315463 29.53450526845369"/><polygon points="396.4652092674354 12.465209267435444 416.37280225751965 10.293864409146998 422.6215913458045 38.621591345804546 391.95030706909245 34.71635959757421"/><polygon points="439.8115936116602 13.144926944993632 455.74217798576103 13.591155347572252 463.37080475984175 36.70413809317511 434.23169663566966 35.101636697663615"/><polygon points="476.3418275559723 7.008494222639042 507.50190906901474 4.498090930985221 507.5764028533791 38.24306952004581 479.09117153049397 32.908828469506"/><polygon points="10.224552015539366 52.89121868220603 36.837786996914275 48.49554633641905 29.195943709315436 71.8626103759821 7.024916454016228 78.30841687931711"/><polygon points="56.48036390188394 56.48036390188394 79.343206948872 48.656793051128 79.2619250183378 79.2619250183378 52.061598931491076 75.93840106850892"/><polygon points="98.42930101386438 55.76263434719771 111.36152562857633 59.30514103809032 116.54466138699907 73.87799472033241 92.38379306982942 78.28287359683723"/><polygon points="134.23419855831972 48.900865224986376 154.75339606784834 58.57993726548501 166.69942841617888 81.36609508284553 144.5948264318291 68.73850690150425"/><polygon points="181.96142345436317 53.96142345436318 208.0390128603241 47.96098713967588 206.88192931847985 78.88192931847983 186.78695057501224 69.21304942498776"/><polygon points="224.03581850739704 53.369151840730375 240.00922094551998 58.657445721146686 239.9445282647035 69.27786159803685 226.5107841115258 72.15588255514086"/><polygon points="264.19502182191934 50.861688488586 288.38427557211384 52.94905776121946 294.2280096533355 80.89467632000216 259.91367941349347 81.41965391983986"/><polygon points="314.0514556733548 58.05145567335486 336.36907804642664 47.630921953573306 326.12495705578164 70.12495705578172 304.91920751602225 79.08079248397772"/><polygon points="356.87468712824335 58.20802046157673 369.48401266238363 57.18265400428298 373.43311138486644 74.76644471819982 347.03059111771574 79.63607554895087"/><polygon points="396.22219606895095 54.888862735617614 413.3629638939319 55.970369439401374 422.7258990012852 81.39256566795191 397.40212921430157 71.93120411903175"/><polygon points="440.2363717121724 56.236371712172456 456.39508537421284 55.604914625787096 455.23357880450953 71.23357880450959 434.7950397376847 77.20496026231523"/><polygon points="483.54398510065414 56.877318433987504 495.54859954718864 59.11806711947797 508.1112844820834 81.44461781541679 481.388491942234 73.27817472443263"/><polygon points="10.681345479504051 96.01467881283737 34.441387612225114 93.55861238777487 27.081465236940392 112.41479857027372 15.882232212695914 112.11776778730408"/><polygon points="48.93247105955023 91.59913772621688 72.36664958060908 98.30001708605758 70.22587208508718 112.89253875175383 59.079264436369854 111.5874022302968"/><polygon points="100.46450457395541 100.46450457395541 116.50426191011252 96.8290714232208 121.46334579271073 121.46334579271073 90.07716290122319 123.25617043211012"/><polygon points="139.28337722741196 96.61671056074528 163.55017164335254 92.44982835664746 163.88391926738518 121.21725260071851 133.45601616775804 122.54398383224198"/><polygon points="176.59306070961972 91.25972737628636 198.4246095312613 100.24205713540536 200.00906928564217 114.67573595230881 175.0086524727691 123.65801419389754"/><polygon points="224.19208826722655 96.19208826722657 245.869523036207 95.4638102971263 242.88803759055224 114.88803759055223 225.80639822376284 115.52693510957047"/><polygon points="270.27132594510255 99.60465927843588 291.8383910922643 92.16160890773567 293.33002417577694 122.66335750911026 263.8929300223404 120.10706997765953"/><polygon points="313.5625787917696 100.22924545843632 327.64651130401074 99.02015536265584 331.9329810629128 118.59964772957954 314.322127298425 112.34453936824158"/><polygon points="354.8087936374274 98.80879363742743 373.09754938978097 96.23578394355235 371.35910890128 115.35910890128002 356.8568093317567 112.47652400157656"/><polygon points="400.1819138877041 101.51524722103746 417.84323849336783 94.15676150663215 416.14808685380586 117.4814201871392 391.9861497594901 120.01385024050985"/><polygon points="436.55625267374927 95.22291934041597 454.38520809837587 100.28145856829074 455.37509690759407 114.04176357426081 434.2382513994013 120.42841526726531"/><polygon points="477.7937661666409 93.79376616664096 496.2898950452401 101.04343828809318 501.3289464952603 117.32894649526031 473.48890857369054 123.84442475964278"/><polygon points="7.529014858537705 135.52901485853772 26.21771631610395 144.4489503505627 28.497423987191297 156.4974239871913 9.498946630864761 161.16772003580192"/><polygon points="46.916138890977166 132.2494722243105 80.67048266840824 132.66285066492512 79.90317368148492 165.23650701481827 50.3744847533161 162.95884858001725"/><polygon points="97.20353344548036 139.87020011214705 112.97349304627565 143.02650695372435 121.56693771251966 164.23360437918635 91.39484174113505 164.60515825886495"/><polygon points="143.27088223441655 143.27088223441655 164.0245351033682 134.64213156329848 160.29250777982574 160.29250777982574 137.95083488806995 160.71583177859674"/><polygon points="180.21878602339396 137.5521193567273 207.96313910696247 133.37019422637087 204.35165846639245 161.6849917997258 181.13958748561225 160.1937458477211"/><polygon points="226.68572707173044 141.35239373839713 239.3916058767543 144.6083941232457 241.24999236034535 155.91665902701203 220.2731198567815 163.7268801432185"/><polygon points="265.7078963815335 137.70789638153352 287.92721788240624 138.73944878426042 282.54015995953625 154.54015995953625 262.63054000099214 164.03612666567454"/><polygon points="306.81354773880895 136.14688107214235 326.91219518470973 142.42113814862356 332.42687081113843 161.76020414447186 311.43052228545827 157.90281104787505"/><polygon points="350.785704629427 137.45237129609373 378.3472773765541 133.6527226234459 379.1388143153733 165.80548098204002 355.0631312467678 156.93686875323218"/><polygon points="396.13294503024315 140.13294503024315 413.42347169080705 141.24319497585958 420.1082719128268 164.1082719128268 399.95403269790825 154.7126339687584"/><polygon points="442.73722573274165 144.07055906607505 462.44673417046897 134.88659916286434 460.1779245455117 161.5112578788451 431.2515700260062 166.08176330732707"/><polygon points="476.2728532139786 134.93951988064532 496.6326290370258 143.36737096297418 506.1828958309859 164.84956249765264 476.23054919164156 163.7694508083584"/><polygon points="8.12457688761864 178.7912435542853 28.403440161820416 184.9298931715129 31.647728311659844 202.3143949783265 4.309070950227085 209.02426238310625"/><polygon points="52.33074495567955 180.33074495567953 80.02120446272582 175.97879553727418 69.01014613087993 197.01014613087992 57.01820111248935 198.98179888751065"/><polygon points="101.54413237991474 186.87746571324809 111.42998922953436 187.2366774371323 123.53268368322374 208.86601701655707 95.3391773521632 203.32748931450345"/><polygon points="142.80585796204832 185.47252462871498 156.42937901210695 184.9039543212264 156.38931808565158 199.05598475231824 142.17316622909382 199.16016710423952"/><polygon points="179.9251121720673 179.9251121720673 198.24820812265483 185.75179187734517 197.5917717706452 197.5917717706452 185.8116775395907 198.1883224604093"/><polygon points="222.46512471156635 179.7984580448997 242.0494267918025 184.61723987486414 251.48324419963487 208.8165775329682 227.42980464909576 199.2368620175709"/><polygon points="262.7355993250195 177.4022659916862 289.1259380189861 180.20739531434717 289.9127442991043 204.57941096577102 267.92070174366677 201.41263158966655"/><polygon points="307.22114972251734 179.2211497225174 327.28972126938953 184.71027873061038 327.4988198828641 199.49881988286415 312.89432500159427 199.10567499840565"/><polygon points="352.18511390600304 181.51844723933638 367.45609109217446 187.21057557449214 379.08090087093893 208.4142342042723 346.2872356028153 208.3794310638513"/><polygon points="391.80396224844907 178.47062891511573 419.3884996801888 177.94483365314454 422.4511127009405 209.11777936760714 388.1650446662692 209.16828866706416"/><polygon points="431.87297694316356 175.8729769431636 460.48545601933836 179.51454398066159 461.14548762663884 205.1454876266389 431.41157408856435 208.5884259114356"/><polygon points="483.9904820946499 185.32381542798325 500.4938816457414 182.17278502092523 496.554528716211 197.88786204954437 478.4569867409459 204.20967992572074"/><polygon points="16.3261274244487 229.65946075778203 35.93539063028517 220.06460936971482 29.06991615879584 242.40324949212916 12.308179820027993 243.69182017997198"/><polygon points="46.544802068500076 217.21146873516673 77.1960509449907 221.47061572167596 79.66066816655633 250.327334833223 55.036746101829635 243.62992056483702"/><polygon points="101.48973724940446 229.48973724940444 118.32002020823347 223.01331312509984 113.2705907679961 241.2705907679961 97.8247826831192 243.50855065021412"/><polygon points="132.8316403240442 218.16497365737752 157.17754482093127 226.82245517906873 160.1415816167089 245.4749149500422 138.96225462929215 245.03774537070785"/><polygon points="181.53910155569545 224.2057682223621 205.6476923030015 221.01897436366517 202.5382517075417 245.20491837420835 181.23838550082297 245.42828116584369"/><polygon points="229.31516224839805 229.31516224839805 242.01312233854873 227.3202109947846 246.11245780448056 246.11245780448056 229.64013065735162 239.6932026759817"/><polygon points="263.34360684225715 220.67694017559052 285.59689519647486 226.4031048035251 293.4591817762791 250.79251510961242 266.9496499320311 245.0503500679689"/><polygon points="304.75167814865443 219.41834481532115 334.5379872628221 220.12867940384447 334.2244058151065 248.8910724817732 304.00191722319477 250.66474944347183"/><polygon points="347.28021117672563 219.28021117672566 376.12471953727 221.2086137960633 375.08181225400455 247.08181225400457 352.7687765033912 244.56455682994206"/><polygon points="399.66616595619985 228.9994992895332 417.4209826280318 222.57901737196812 420.63968902300866 249.973022356342 393.1071648917611 246.89283510823887"/><polygon points="441.13181557346576 227.7984822401325 457.90737726985304 224.75928939681356 463.29016952379953 249.95683619046625 438.14744141422597 244.51922525244066"/><polygon points="474.86644182707744 218.86644182707747 495.5559666902074 229.77736664312587 498.52437360350757 242.5243736035076 474.0969603215784 251.23637301175484"/><polygon points="7.384304777220358 263.38430477722034 36.82239651504008 261.8442701516266 26.58607279088688 282.5860727908869 4.574476962193732 294.0921897044729"/><polygon points="57.0585345895918 270.39186792292514 73.65712841709112 267.67620491624217 80.30962003959515 293.64295337292845 57.5791067568691 283.7542265764642"/><polygon points="90.06962980588 260.73629647254666 113.94754424675594 270.05245575324403 116.707396416218 287.3740630828847 91.39621611245262 292.60378388754737"/><polygon points="140.39734416464648 268.3973441646464 155.39615917484048 271.27050749182615 161.57036913434447 289.57036913434445 132.96507569333914 293.7015909733275"/><polygon points="177.36947379081985 262.7028071241532 199.72480927891422 269.6085240544191 197.34099715859927 282.67433049193255 175.11633499538974 294.2169983379436"/><polygon points="224.46092859930803 267.12759526597466 239.74786560409765 272.2521343959023 242.09077296847244 284.75743963513906 217.54526206198597 294.454737938014"/><polygon points="267.78653978934733 267.78653978934733 285.56473257320283 269.1019340934638 293.8055219181251 293.8055219181251 262.46516318713 292.20150347953665"/><polygon points="303.1665180142976 260.49985134763097 330.1596821058538 267.17365122747947 325.67496258724606 283.0082959205794 307.45627620885017 289.8770571244831"/><polygon points="346.96193452555804 261.6286011922247 372.95051083896567 267.0494891610343 378.84993581666356 293.51660248333025 346.9713644367286 293.02863556327134"/><polygon points="388.1275827552311 260.1275827552311 422.34864361605923 260.3180230506074 417.7785688134595 289.7785688134595 395.6610448329033 287.0056218337633"/><polygon points="438.07977219216684 267.4131055255002 458.2222081451923 267.11112518814093 461.6795526776934 291.01288601102675 436.5550868447449 288.77824648858837"/><polygon points="481.24323168733025 267.90989835399694 505.997246782631 262.00275321736893 508.09573067528476 294.76239734195144 485.29048245016816 282.70951754983173"/><polygon points="12.87544049066983 311.54210715733643 35.606219850343216 305.72711348299003 38.792928027064875 337.4595946937315 16.32281055325213 325.01052278008115"/><polygon points="47.51620634973486 303.51620634973483 81.18704988489547 302.81295011510446 75.64125599760072 331.6412559976007 57.840979972998376 326.1590200270016"/><polygon points="93.80008320159826 307.13341653493154 112.15417372805027 314.51249293861633 118.20106466935981 331.5343980026931 100.54752979296082 326.11913687370577"/><polygon points="134.96421671259017 305.6308833792568 165.04387401111157 304.2894593222217 166.0230471996043 336.6897138662709 133.3672326305067 335.96610070282657"/><polygon points="184.2666807099178 312.26668070991775 206.89619598774846 305.1038040122515 209.01448510654927 337.0144851065492 179.012340459624 332.98765954037594"/><polygon points="223.52219529860795 308.85552863194124 251.45208195917957 303.21458470748706 242.74279144441422 328.0761247777475 221.50308170701052 333.1635849596561"/><polygon points="269.3370067452768 312.00367341194345 289.840002032767 307.49333130056624 287.64609977259045 330.3127664392571 265.04598528520006 332.2873480481332"/><polygon points="304.3519803314332 304.3519803314332 325.51954238041367 314.4804576195862 334.67852932858636 334.67852932858636 306.71623165653205 333.28376834346784"/><polygon points="347.4260803055207 304.759413638854 377.1290684936813 305.53759817298527 376.77856793051916 334.1119012638525 348.99478597080065 333.6718806958659"/><polygon points="390.04458242805407 304.7112490947207 418.06487124556 307.26846208777323 411.1475687594258 325.8142354260924 390.7552291112868 334.5781042220465"/><polygon points="434.4297663614211 306.4297663614211 456.8796906855087 311.1203093144912 462.99763201367364 334.99763201367364 440.23723113857363 327.76276886142625"/><polygon points="483.1907256538209 312.5240589871542 500.74229885921267 309.9243678074539 497.9174438997922 327.2507772331255 485.0368491262685 325.629817540398"/><polygon points="15.655621649176602 356.9889549825099 30.593160430411718 353.4068395695882 34.5479189324398 375.88125226577307 5.515822167027254 378.4841778329727"/><polygon points="52.67659015958914 351.34325682625575 80.42259616494925 346.2440705017174 78.75325101720645 377.41991768387305 47.83840986542826 378.82825680123835"/><polygon points="99.78640243953531 355.78640243953527 118.01377700299416 351.31955633033914 119.74513646791561 375.7451364679156 89.56453381288006 379.76879952045323"/><polygon points="135.21667405657325 348.55000738990657 158.16113183010535 353.8388681698946 160.7963145131297 374.12964784646294 132.8997454124452 379.1002545875548"/><polygon points="177.96417575846056 348.6308424251272 197.73670837712947 356.9299582895372 203.63402416572274 374.30069083238936 184.72814085160064 369.938525815066"/><polygon points="227.26821773283928 355.2682177328393 250.55461494936432 346.77871838396896 247.34942331205912 375.3494233120591 222.73317858492308 374.6001547484102"/><polygon points="268.41334997923514 353.74668331256845 282.97060715504364 357.0293928449563 294.3452163009574 379.6785496342908 269.8785424404206 370.12145755957937"/><polygon points="311.30262527243605 353.96929193910273 324.6977574715271 357.9689091951395 327.1943318424297 369.86099850909636 303.47196380158437 379.1947028650822"/><polygon points="348.0881280942614 348.0881280942614 378.6935812311174 346.6397521022159 371.3855469776094 371.3855469776094 352.1477752033644 373.18555812996885"/><polygon points="396.7977508399185 354.1310841732518 422.57289585458153 345.4271041454184 412.7090420236285 370.0423753569618 389.88024033264895 378.119759667351"/><polygon points="437.4608756695604 352.12754233622707 456.09259766989413 354.57406899677244 465.1014034162728 379.76807008293946 432.8224161540774 377.84425051258916"/><polygon points="481.36645702176156 353.36645702176156 500.370832081627 352.96250125170627 503.7038104567134 375.7038104567134 474.58765198201434 378.7456813513189"/><polygon points="5.52046172142887 389.52046172142883 34.643356071694214 392.02331059497243 27.69544462910087 411.69544462910085 14.64881093200421 412.0178557346624"/><polygon points="46.7041963000476 388.0375296333809 76.81666169521145 392.51667163812186 73.26943963126386 414.6027729645972 53.059964823427975 416.2733685099053"/><polygon points="97.7178593234415 396.38452599010816 113.62617892165314 398.37382107834685 120.34705896067491 419.01372562734156 100.82206085337528 411.1779391466247"/><polygon points="141.29921188342095 397.2992118834209 154.42509092329624 400.2415757433704 166.45282746495621 422.45282746495616 136.5493362889643 418.1173303777024"/><polygon points="181.56247542708624 394.8958087604196 200.35260244040649 396.98073089292683 202.5960437577153 415.92937709104865 182.3396067893888 414.99372654394455"/><polygon points="226.63644010921465 397.3031067758813 239.79418603699287 400.2058139630071 247.8528037869029 418.51947045356957 220.49983463100037 419.5001653689996"/><polygon points="266.4107345472958 394.4107345472958 290.7492930643845 391.9173736022821 292.2723425050266 420.2723425050266 271.58620595254587 411.08046071412076"/><polygon points="309.98145197381484 395.3147853071482 332.2510755040879 393.08225782924535 332.97849926356497 418.31183259689834 309.13614162854935 416.1971917047839"/><polygon points="353.48853485762055 396.15520152428724 372.0004655341992 395.99953446580076 367.96252080825 410.6291874749167 348.69032718130984 419.3096728186901"/><polygon points="394.93523654141984 394.93523654141984 421.41029575097144 389.2563709156952 421.34414019700415 421.34414019700415 389.049706269319 421.6169603973476"/><polygon points="440.2986340959315 397.6319674292649 459.3227711580846 394.01056217524865 461.19438172377494 418.5277150571083 442.0610074674442 411.27232586588906"/><polygon points="473.8413795198401 388.50804618650676 496.40361266245554 399.5963873375444 501.37477297672547 416.04143964339215 485.38535969492597 410.614640305074"/><polygon points="8.011919447039224 434.6785861137058 35.891361464817095 433.4419718685162 33.15082881459354 459.81749548126015 10.665188849502156 458.6681444838311"/><polygon points="50.19251366714828 434.1925136671482 71.73099811614307 440.26900188385684 70.80232629528895 454.8023262952889 49.139429017027815 462.86057098297215"/><polygon points="99.17853987906835 440.51187321240167 122.0251186581701 432.6415480084965 114.26061774652923 455.5939510798625 93.5528937612932 461.11377290537337"/><polygon points="144.46994603483432 443.1366127015009 166.58183834758609 430.7514949857472 154.21070900017264 452.87737566683927 143.52842478657473 453.80490854675855"/><polygon points="177.76985229196885 433.7698522919688 200.95679614959425 439.0432038504057 201.46463567923956 457.4646356792395 181.02745757896005 458.97254242103986"/><polygon points="222.31663970874962 435.6499730420829 247.18357707505697 435.4830895916096 241.29752462628338 454.63085795961666 229.20381778405527 453.46284888261135"/><polygon points="268.2887449726625 438.95541163932916 291.2240985146657 434.1092348186676 284.047421757626 454.71408842429264 265.5536362501652 459.77969708316806"/><polygon points="309.342590704395 437.342590704395 328.49840339335253 439.50159660664735 335.53840610175786 463.53840610175786 314.7931281229223 453.20687187707756"/><polygon points="350.85328120566885 436.18661453900216 370.79998833259134 439.86667833407523 369.9856667981182 455.3190001314515 345.73372530468225 464.9329413619843"/><polygon points="388.2015017381294 430.86816840479605 418.9939727998235 434.33936053350976 415.51946322049486 458.1861298871615 396.3798154513954 456.95351788193784"/><polygon points="440.20962226356124 440.20962226356124 454.26066650476713 441.73933349523276 460.50188091664177 460.50188091664177 436.2148666526155 459.7851333473844"/><polygon points="481.56543952166305 438.89877285499637 497.65234461874667 441.0143220479199 497.24580064940767 454.579133982741 474.2229550856472 464.4437115810194"/><polygon points="16.46768279452506 485.80101612785836 38.28645993187679 473.71354006812317 32.60309253958008 501.9364258729134 16.560900779178258 495.43909922082173"/><polygon points="49.220861467263376 475.88752813393 80.85695215662409 473.80971451004257 69.58746811156132 496.254134778228 47.967765907522846 506.6989007591438"/><polygon points="99.6026502574899 483.60265025748987 113.31217119841132 484.02116213492195 113.39167744131751 497.3916774413175 99.43051070145606 497.9028226318772"/><polygon points="133.04015718028182 474.3734905136151 160.25836933726814 479.74163066273184 159.71649197850047 501.0498253118338 132.8021522804613 507.19784771953863"/><polygon points="185.1602300236323 483.8268966902989 198.25264248817066 484.414024178496 199.43931266125355 498.1059793279202 183.54324444869138 499.12342221797525"/><polygon points="218.09612605327516 474.09612605327516 243.1305443242224 482.2027890091109 248.04351599745615 504.0435159974561 223.13339890048476 502.1999344328485"/><polygon points="261.063341733601 474.39667506693434 286.1981880213673 481.80181197863266 288.7951667308098 502.1285000641431 270.0975440948423 497.90245590515764"/><polygon points="311.6139680189066 482.28063468557326 325.53739525567124 485.12927141099533 326.4562613094232 497.12292797608995 307.32537444265415 503.3412922240124"/><polygon points="351.45770948562017 479.45770948562017 377.96261655977537 475.3707167735579 378.25851617652086 506.25851617652086 350.39468556242224 502.938647770911"/><polygon points="398.3801300230902 483.7134633564235 410.3854187119981 485.61458128800183 422.5620103176431 507.89534365097643 390.46309538085205 505.5369046191479"/><polygon points="442.69066440845614 485.35733107512283 456.39592817285916 482.27073849380747 456.9300890730028 499.5967557396695 441.46235187053406 497.2043147961325"/><polygon points="479.98443100531523 479.98443100531523 500.9911220391358 480.34221129419745 504.8947850436909 504.8947850436909 480.40156723543515 500.9317660978981"/>
</svg>
