<?xml version="1.0" encoding="UTF-8"?>
<svg xmlns="http://www.w3.org/2000/svg" id="RSSicon" viewBox="0 0 512 512" width="512" height="512">
  <defs>
    <style type="text/css">
      svg {
        background: black;
        margin: calc(50vh - 256px) auto 0;
      }
      
      polygon {stroke: darkorange; fill: none;}
    </style>
  </defs>
  <polygon points="15.007933395656563 15.007933395656563 31.536926045568613 11.12974062109805 35.74330874108704 35.74330874108704 9.517410685590034 33.14925598107663"/><polygon points="53.52065401939253 10.853987352725865 72.66244755744343 12.670885775889907 77.42418289899953 34.75751623233286 48.088162323417826 37.2451710099155"/><polygon points="99.21042977707121 13.877096443737887 112.27425898870847 15.725741011291522 123.19694120473523 37.863607871401896 99.06707453074385 28.93292546925614"/><polygon points="134.8639973718212 6.863997371821183 161.29050243589518 9.376164230771503 158.50372514458394 30.50372514458394 134.47792722257998 36.18873944408669"/><polygon points="179.09782234706708 8.431155680400417 205.4733683554535 7.859964977879837 201.59509635373212 30.928429687065456 181.46887106746254 31.864462265870788"/><polygon points="226.42096468189385 13.087631348560528 247.8508181793354 8.14918182066461 246.68864453974197 33.35531120640866 227.96854043232682 28.031459567673178"/><polygon points="262.23164212567946 6.2316421256794605 287.82376527803405 10.842901388632582 292.49140886564356 36.49140886564356 263.81385700792464 34.85280965874199"/><polygon points="306.2635562658054 7.596889599138809 326.96055159532045 14.372781738012831 332.3447890248753 33.6781223582087 302.94863556388225 38.38469776945104"/><polygon points="357.6170552413272 16.283721907993908 373.3233202034384 10.676679796561535 377.0212040601076 35.68787072677431 352.733436376096 31.266563623903956"/><polygon points="398.88637978729395 14.886379787293958 415.0350882782189 11.631578388447753 411.9578852052486 27.957885205248594 392.15983197222903 34.5068346944376"/><polygon points="440.5664357619579 13.899769095291287 455.1872278073434 14.146105525989881 456.099067986734 29.43240132006735 442.6466866985499 26.686646634783393"/><polygon points="476.55895198779126 7.225618654457991 497.52268707649034 14.477312923509604 503.8972073991136 34.563874065780276 475.2875357118026 36.71246428819735"/><polygon points="16.3848936815414 59.05156034820807 34.343448992007794 50.98988434132554 38.01606684202336 80.68273350869003 10.92726923546374 74.40606409786959"/><polygon points="55.07452740605744 55.07452740605744 72.98875180473927 55.011248195260734 72.48674961033359 72.48674961033359 49.46278261082919 78.5372173891708"/><polygon points="100.28642433419299 57.61975766752632 111.52109909054279 59.14556757612387 121.0078672793484 78.34120061268175 90.67290761724081 79.99375904942585"/><polygon points="132.4237084374331 47.09037510409976 159.04258531492852 54.290748018404834 154.17442907827052 68.84109574493718 143.85041807272557 69.48291526060777"/><polygon points="183.035169558247 55.035169558247 204.8875685227538 51.1124314772462 200.00071813819943 72.00071813819943 174.6765227538416 81.3234772461584"/><polygon points="227.8295244655616 57.16285779889495 239.48420170310882 59.18246496355783 240.99660588340979 70.32993921674313 228.02049516396644 70.64617150270021"/><polygon points="266.3520079370358 53.01867460370248 293.57758179932887 47.75575153400442 286.3662507076065 73.03291737427318 260.1254380874703 81.20789524586303"/><polygon points="312.9291024089731 56.929102408973144 326.4776594480362 57.52234055196372 332.28405234147374 76.28405234147382 303.3608714490003 80.63912855099964"/><polygon points="355.30238866458456 56.63572199791791 368.0912650032627 58.57540166340394 367.87298552475187 69.20631885808521 354.7923820510424 71.87428461562419"/><polygon points="388.3840494492088 47.05071611587552 421.7577657961189 47.5755675372144 410.73053792619214 69.39720459285881 395.49944136224684 73.83389197108646"/><polygon points="433.1547522379913 49.154752237991396 464.9387669093349 47.061233090665056 463.8009503407086 79.80095034070862 442.9153608557775 69.08463914422241"/><polygon points="482.99498573148 56.32831906481337 502.60459026246446 52.06207640420217 504.77590742553315 78.10924075886652 482.9202067022809 71.74645996438576"/><polygon points="7.859584376492004 93.19291770982532 29.843539638115082 98.15646036188491 29.332423246397735 114.66575657973107 5.439020491211734 122.56097950878825"/><polygon points="52.12762739370911 94.79429406037576 79.59573767512956 91.0709289915371 73.74662952104359 116.41329618771024 59.139828996506836 111.52683767015982"/><polygon points="97.99276667761926 97.99276667761926 118.59866555726606 94.73466777606725 120.24617924973703 120.24617924973703 92.30853707503132 121.02479625830199"/><polygon points="143.74979708882339 101.08313042215669 159.08894497148927 96.91105502851073 162.11590743959212 119.44924077292544 138.52455391690916 117.47544608309084"/><polygon points="180.65975905417775 95.32642572084441 203.40189270683342 95.26477395983324 198.6107972350323 113.27746390169894 176.40492796057393 122.26173870609273"/><polygon points="227.93146652700548 99.93146652700548 251.90363255504596 89.42970077828735 239.4422415570793 111.44224155707931 229.7376292939987 111.59570403933462"/><polygon points="261.7267281001018 91.06006143343514 289.13536313246254 94.86463686753741 294.5113503813994 123.84468371473272 262.5906172098858 121.40938279011417"/><polygon points="313.3227294575532 99.98939612421987 324.8172849422948 101.84938172437181 325.0080735358169 111.67474020248363 305.3245625345863 121.34210413208034"/><polygon points="346.8809015245574 90.88090152455737 367.9165095028904 101.41682383044291 373.3452151948072 117.34521519480728 351.49787558699705 117.83545774633623"/><polygon points="397.37280530314865 98.70613863648202 410.3094528779889 101.69054712201107 413.25213056062006 114.58546389395343 399.0078414970351 112.9921585029649"/><polygon points="432.43445334270973 91.10112000937643 457.7271675849167 96.93949908174994 456.3127683918528 114.97943505851953 437.0120983117832 117.65456835488344"/><polygon points="474.12610761088683 90.12610761088686 505.05396868321753 92.27936465011577 506.7064901923846 122.70649019238459 477.71449464320773 119.61883869012554"/><polygon points="12.715666750968659 140.71566675096867 28.643246670288985 142.0234199963777 35.34117739587741 163.34117739587742 12.86272678862095 157.80393987804572"/><polygon points="54.640878894920334 139.9742122282537 69.54753565038341 143.78579768294992 78.26299268046273 163.59632601379607 48.089876955294926 165.24345637803842"/><polygon points="96.08424311136778 138.75090977803447 123.14237532508454 132.85762467491546 122.56365675983642 165.2303234265031 91.73561699551858 164.26438300448143"/><polygon points="137.98801534503673 137.98801534503673 165.7135664268455 132.9531002398212 158.51994396261094 158.51994396261094 140.8628897337819 157.80377693288477"/><polygon points="182.11996399844855 139.4532973317819 209.16327784224666 132.17005549108669 197.44185103822383 154.77518437155717 177.00448279073316 164.32885054260018"/><polygon points="223.2212424502279 137.88790911689458 249.28398461986916 134.71601538013084 244.20451161370954 158.87117828037623 218.7240577062251 165.2759422937749"/><polygon points="263.07592033777433 135.07592033777436 285.81752982534374 140.84913684132292 290.103766783137 162.10376678313705 272.0007575978292 154.66590906883744"/><polygon points="313.3799797372472 142.7133130705806 334.7513516565842 134.5819816767491 332.9804874006384 162.3138207339718 307.8811830102371 161.45215032309616"/><polygon points="357.1105462744504 143.77721294111714 375.3883953030158 136.6116046969842 379.91060927167905 166.57727593834576 350.18192288552876 161.81807711447118"/><polygon points="389.12106303979016 133.1210630397902 418.39195117500674 136.2747154916599 414.7485998370478 158.74859983704778 397.8868875038992 156.7797791627675"/><polygon points="439.2273877629676 140.56072109630105 463.77961679740986 133.55371653592346 453.3199702123877 154.65330354572112 431.141758032383 166.19157530095032"/><polygon points="473.5981929031848 132.2648595698515 501.64654247205624 138.35345752794373 507.32654876133824 165.99321542800493 482.2549665632156 157.74503343678435"/><polygon points="7.597148636469376 178.26381530313606 36.05325848053861 177.2800748527947 27.39041087239501 198.05707753906168 5.1246951156784455 208.20863821765488"/><polygon points="46.58789528405041 174.5878952840504 78.91300165192068 177.08699834807933 73.40345971077596 201.40345971077596 53.69614743399648 202.3038525660035"/><polygon points="101.88852469938713 187.2218580327205 120.53609828715838 178.13056837950828 122.07266994753697 207.4060032808703 98.73765655923341 199.92901010743324"/><polygon points="143.06887491225058 185.73554157891724 159.27862774778433 182.05470558554902 155.14248450089153 197.80915116755818 135.49589174192604 205.8374415914073"/><polygon points="178.82747807458563 178.82747807458563 206.60394559022794 177.39605440977206 200.19543013928006 200.19543013928006 178.8007429535984 205.1992570464016"/><polygon points="222.4943683757193 179.82770170905263 239.3717069226216 187.29495974404506 242.31902966563126 199.6523629989646 229.44325338704283 197.22341327962383"/><polygon points="262.21553576358184 176.88220243024853 283.9153476917513 185.417985641582 288.8180354516315 203.48470211829817 260.86764085885295 208.46569247448036"/><polygon points="313.869243818218 185.8692438182181 335.7840516629818 176.21594833701815 330.56872045913275 202.5687204591328 304.38758487032396 207.61241512967598"/><polygon points="350.27711261322287 179.6104459465562 372.5403499465416 182.12631672012503 373.5353853199599 202.8687186532933 348.4221757448334 206.24449092183323"/><polygon points="400.2315087897549 186.89817545642157 411.50757741306006 185.82575592027325 419.7825257952576 206.44919246192427 399.6961419702282 197.6371913631051"/><polygon points="439.44252388690626 183.44252388690632 457.4694945282339 182.53050547176605 457.3858051181732 201.38580511817324 434.87475799362215 205.1252420063778"/><polygon points="484.033816385542 185.36714971887542 503.6733120070535 178.99335465961317 499.2416845725292 200.57501790586255 474.64935256315067 208.01731410351596"/><polygon points="8.195708269905852 221.52904160323916 36.3518871805935 219.6481128194065 37.48606228586461 250.81939561919793 13.574409958147648 242.42559004185233"/><polygon points="53.89999292314775 224.5666595898144 79.87143171916213 218.79523494750453 73.60313835475928 244.26980502142592 48.950226774527295 249.71643989213936"/><polygon points="100.76763767404546 228.76763767404546 120.16315460668906 221.17017872664425 112.65744237816872 240.65744237816872 94.29919753176966 247.03413580156365"/><polygon points="142.78020439546842 228.11353772880173 162.43589225213748 221.56410774786252 162.54240023833916 247.87573357167247 132.0326300147075 251.9673699852925"/><polygon points="177.49111556314307 220.15778222980973 205.67477032378636 220.9918963428803 208.42145316786116 251.08811983452782 186.76856039252223 239.89810627414442"/><polygon points="219.5651695927223 219.5651695927223 250.96645019290366 218.36688314042965 242.2290628135879 242.2290628135879 219.3614161863409 249.9719171469924"/><polygon points="260.4813450334053 217.81467836673863 289.9128768856731 222.0871231143269 289.0470751241261 246.3804084574594 271.22699027552386 240.77300972447608"/><polygon points="303.89465883358474 218.56132550025146 327.4495036978038 227.21716296886282 333.762146503892 248.42881317055867 312.7139379466839 241.95272871998264"/><polygon points="346.4032369248463 218.40323692484628 368.45547692138257 228.87785641195072 378.5054073691324 250.50540736913243 351.55820837276957 245.77512496056374"/><polygon points="397.2765888721883 226.60992220552163 415.25754384910545 224.7424561508945 417.4331924691802 246.7665258025135 390.3671817100274 249.63281828997256"/><polygon points="436.4077899955535 223.07445666222026 460.5717739585382 222.0948927081284 464.5530272023978 251.2196938690645 431.22128534307535 251.44538132359128"/><polygon points="478.7570452623955 222.7570452623955 503.1771661239482 222.1561672093851 507.52165923623346 251.5216592362335 482.1607720885314 243.17256124480184"/><polygon points="15.569793297574064 271.56979329757405 27.43027425691737 271.23639240974927 31.442710360406082 287.44271036040607 14.11468069340621 284.55198597326046"/><polygon points="57.73240174878114 271.06573508211443 78.76259891721658 262.57073441611675 74.63684167673692 287.97017501007025 55.45829485518574 285.8750384781476"/><polygon points="93.39700647620477 264.06367314287144 112.84016964745243 271.15983035254754 121.24979866409528 291.9164653307619 93.85992928534357 290.1400707146564"/><polygon points="139.70838375817243 267.70838375817243 154.37772986974065 272.288936796926 158.89219251387127 286.89219251387124 137.3392783290904 289.3273883375762"/><polygon points="178.81056627296658 264.1438996062999 199.76393121159066 269.56940212174266 197.63552926360126 282.96886259693457 174.6522830868596 294.6810502464737"/><polygon points="227.00868820675575 269.6753548734224 247.69140926948342 264.3085907305165 243.98458306308183 286.6512497297485 220.55062478227836 291.4493752177216"/><polygon points="262.62927893491803 262.62927893491803 288.1272130162596 266.53945365040704 288.2228657742613 288.2228657742613 268.25711403897884 286.4095526276878"/><polygon points="311.7757578266395 269.1090911599729 326.7925615770992 270.54077175623405 332.7915065617254 290.12483989505876 309.4538926365831 287.8794406967502"/><polygon points="352.01747755908184 266.6841442257485 378.7428168972348 261.2571831027651 380.1522903741988 294.8189570408655 350.4309207026397 289.56907929736025"/><polygon points="395.1345434146934 267.1345434146934 420.10913919008283 262.5575274765838 416.07437612744764 288.07437612744764 392.19673812888857 290.46992853777806"/><polygon points="432.6896179948505 262.02295132818386 465.171597981667 260.16173535166627 454.5334563730623 283.86678970639565 438.66854180960325 286.66479152373"/><polygon points="481.69901207855037 268.36567874521705 498.4489453200819 269.551054679918 501.7450709380644 288.41173760473106 482.4013743800811 285.59862561991883"/><polygon points="5.085257759940621 303.7519244266072 29.94415008104976 311.3891832522835 28.140395780190016 326.8070624468566 10.103740690649222 331.22959264268405"/><polygon points="54.790516843739496 310.79051684373945 72.9226630891728 311.0773369108271 71.28835017722875 327.2883501772287 55.06424997690559 328.93575002309433"/><polygon points="99.15842492749256 312.49175826082586 111.64898683383178 315.0176798328348 111.98732725740031 325.3206605907336 97.93409634956961 328.732570317097"/><polygon points="134.71755187633886 305.3842185430055 164.52183158178258 304.81150175155074 161.138261210611 331.8049278772776 142.036189237763 327.2971440955703"/><polygon points="178.45290378232696 306.45290378232687 201.96179024758555 310.0382097524144 199.3589292284448 327.3589292284447 175.63371178910617 336.3662882108938"/><polygon points="221.03629348995523 306.3696268232885 243.7575571407806 310.90910952588604 249.94979372095983 335.2831270542931 219.82035129377516 334.8463153728914"/><polygon points="271.44832052785983 314.11498719452646 293.5096351487275 303.82369818460575 294.60318039800836 337.269847064675 269.22061927379514 328.1127140595381"/><polygon points="309.6899723134749 309.6899723134749 327.1041426833704 312.8958573166295 333.06864904655475 333.06864904655475 310.655313529835 329.3446864701649"/><polygon points="351.0644123737025 308.3977457070358 370.2728767813271 312.39378988533946 379.5936445137941 336.92697784712743 349.13327368262475 333.5333929840418"/><polygon points="397.34990444616903 312.01657111283566 420.36264879694994 304.9706845363833 413.66234595793924 328.32901262460587 391.8654025849713 333.46793074836194"/><polygon points="431.47094119534125 303.47094119534125 454.4446278556375 313.55537214436237 462.4426165127425 334.4426165127425 440.7731964252554 327.2268035747445"/><polygon points="478.33856403134456 307.6718973646779 498.4682528364683 312.19841383019826 502.1174281796375 331.4507615129708 481.37519507858315 329.2914715880834"/><polygon points="14.478111925572222 355.8114452589055 28.76713797026105 355.2328620297389 27.80211717313943 369.13545050647275 8.913508359239962 375.08649164076"/><polygon points="48.122573342309806 346.78924000897644 68.76475402832902 357.9019126383376 74.78028196350927 373.4469486301759 50.237190648122386 376.4294760185442"/><polygon points="99.88451055669013 355.8845105566901 114.99585636659205 354.33747696674124 113.79343554647438 369.79343554647437 99.69930633502354 369.63402699830976"/><polygon points="138.16979948093783 351.5031328142711 155.91342743570686 356.08657256429314 161.4656821511932 374.7990154845265 140.57541431312916 371.42458568687084"/><polygon points="175.11988808437727 345.7865547510439 207.7806403054069 346.8860263612597 207.1139159044521 377.78058257111877 181.320395795285 373.34627087138165"/><polygon points="222.26134260776098 350.261342607761 241.9199393767834 355.4133939565499 241.67230091567052 369.67230091567046 221.51040959017104 375.8229237431623"/><polygon points="271.10894592115596 356.4422792544893 282.08895718545307 357.9110428145469 292.09525620498357 377.4285895383168 268.12093022108 371.87906977891987"/><polygon points="305.54167290104203 348.2083395677087 327.3449929897734 355.32167367689317 330.52334815143513 373.1900148181018 315.08921324779243 367.57745341887414"/><polygon points="354.1628639148177 354.1628639148177 376.0618751525665 349.2714581807668 372.7312471563539 372.7312471563539 346.0449227319906 379.28841060134266"/><polygon points="388.08471665083096 345.41804998416427 415.215082875337 352.78491712466297 418.55035931419116 375.88369264752447 387.92377502005223 380.0762249799477"/><polygon points="438.026556130515 352.6932227971817 461.37235589802384 349.29431076864273 463.0258498763573 377.692516543024 431.16239242108037 379.5042742455862"/><polygon points="483.5428126268833 355.5428126268833 498.8431932535272 354.49014007980605 497.3032408565867 369.3032408565867 482.27541132703783 371.0579220062954"/><polygon points="13.475904977467195 397.47590497746717 30.301323557079755 396.3653431095869 29.244789783265148 413.2447897832651 9.368592656194304 417.29807401047236"/><polygon points="51.915409554146365 393.2487428874797 69.58168488987519 399.7516484434581 79.4292209837482 420.7625543170815 56.20919050314679 413.12414283018654"/><polygon points="95.62088341385603 394.2875500805227 111.80727064403115 400.1927293559688 111.59742698889872 410.2640936555654 96.59280003710359 415.40719996289636"/><polygon points="135.39854516048013 391.3985451604801 158.22981841332276 396.4368482533439 165.01558758782787 421.01558758782784 137.76492061650168 416.901746050165"/><polygon points="186.56663620781885 399.8999695411522 209.38200288694523 387.9513304463881 198.37758904446395 411.71092237779726 185.56858684069107 411.76474649264225"/><polygon points="228.27139984572494 398.93806651239163 242.84597148329112 397.1540285167089 244.4690225316536 415.1356891983202 218.28321371898826 421.7167862810117"/><polygon points="268.607227367944 396.607227367944 291.4523167263235 391.21434994034314 292.84548716864026 420.84548716864026 264.8404089407887 417.82625772587795"/><polygon points="304.96344072707626 390.29677406040963 335.1409293458357 390.1924039874976 335.0073863944049 420.34071972773825 309.57659857802366 415.7567347553096"/><polygon points="349.1297785742758 391.7964452409425 377.1796533568716 390.82034664312835 369.87874737079255 412.54541403745924 351.73961058343235 416.2603894165676"/><polygon points="396.32336166948403 396.32336166948403 417.0337385841177 393.6329280825489 419.00475262559274 419.00475262559274 388.54036955871635 422.1262971079503"/><polygon points="443.12126740990857 400.45460074324194 463.2290757174439 390.10425761588937 456.3928444381359 413.7261777714693 437.24585599050965 416.0874773428236"/><polygon points="485.79092030702014 400.45758697368683 505.57210130861483 390.4278986913851 505.13842566990115 419.80509233656784 484.3493309729993 411.6506690270006"/><polygon points="14.302916866905093 440.9695835335717 30.11322729439292 439.22010603894034 30.758811032179366 457.42547769884595 14.207553331108947 455.1257800022243"/><polygon points="56.907876295358015 440.90787629535794 70.20627279310868 441.7937272068913 70.02207199390114 454.0220719939011 50.07866414009693 461.921335859903"/><polygon points="99.67303342591264 441.0063667592459 113.86029089785823 440.8063757688084 122.78973780987627 464.1230711432096 95.57709971828982 459.0895669483768"/><polygon points="141.6792156585225 440.3458823251891 157.76254626923134 439.5707870641019 156.79247824597581 455.4591449126424 140.26179997882085 457.07153335451244"/><polygon points="186.47100773218233 442.4710077321823 205.27841775129508 434.72158224870486 203.4309252542449 459.4309252542448 182.43705409153876 457.5629459084612"/><polygon points="226.41194016406146 439.74527349739475 240.84843877080093 441.8182278958657 241.10617533727694 454.4395086706102 224.15130071871155 458.51536594795505"/><polygon points="272.3681840088954 443.03485067556204 294.77150700239196 430.5618263309413 287.9518432096722 458.6185098763388 270.72217942226064 454.6111539110726"/><polygon points="303.2876959820799 431.2876959820799 331.593423909902 436.4065760900979 328.6670732738411 456.6670732738411 310.51890939679646 457.4810906032034"/><polygon points="345.6602307602758 430.9935640936091 376.7625834414913 433.90408322517527 370.22943122850404 455.56276456183735 346.7190526440693 463.9476140225973"/><polygon points="393.7042908886032 436.37095755526985 413.19345641870177 440.1398769146315 412.88763552381624 455.5543021904829 392.4943279378664 460.83900539546687"/><polygon points="441.2226400290044 441.2226400290044 454.89602903261175 441.10397096738814 460.9384148609846 460.9384148609846 442.03018417144784 453.96981582855204"/><polygon points="484.9737290210754 442.30706235440874 502.01120477369636 436.6554618929702 503.7881696225432 461.1215029558765 476.79935627465517 461.8673103920114"/><polygon points="7.2584713107624825 476.59180464409576 35.5645736120177 476.43542638798226 27.57519130630651 496.90852463963984 4.018833983316693 507.9811660166833"/><polygon points="57.911786029475934 484.57845269614256 78.73005389060907 475.9366127760576 79.01410682282703 505.6807734894937 51.146509427919646 503.520157238747"/><polygon points="96.07041263829704 480.070412638297 111.68499820751566 485.64833512581765 118.90865249712387 502.90865249712385 92.61170740124228 504.721625932091"/><polygon points="141.3730208982247 482.70635423155795 156.89696659630266 483.1030334036973 164.1660338833221 505.4993672166554 140.7971033509979 499.20289664900207"/><polygon points="186.0872672237415 484.7539338904081 200.210168468157 482.4564981985096 199.33856712434843 498.00523379101503 176.04998548918908 506.6166811774776"/><polygon points="227.36713539290346 483.36713539290344 246.30386348643898 479.0294698468943 250.05504916132054 506.0550491613205 226.88976951274003 498.4435638205932"/><polygon points="261.46833524262763 474.80166857596095 290.85186552127175 477.1481344787282 282.53313394829235 495.86646728162566 271.08889275045294 496.911107249547"/><polygon points="311.09589967721723 481.7625663438839 327.4697317817355 483.19693488493107 330.73135534751964 501.3980220141863 305.1819649447969 505.48470172186967"/><polygon points="345.7739005713293 473.7739005713293 378.9704596240199 474.36287370931336 371.0528609018194 499.0528609018194 352.3072905242253 501.02604280910793"/><polygon points="399.5601230223824 484.8934563557157 421.6052624202512 474.3947375797487 417.97735701384124 503.31069034717456 396.7029635442865 499.29703645571345"/><polygon points="443.2898273417865 485.9564940084532 454.4020391208601 484.26462754580655 454.7644861491463 497.431152815813 434.7023495940083 503.9643170726583"/><polygon points="476.953267732986 476.953267732986 496.8741159428498 484.45921739048345 499.6623422011482 499.6623422011482 483.00860028683184 498.3247330465014"/>
</svg>
