<?xml version="1.0" encoding="UTF-8"?>
<svg xmlns="http://www.w3.org/2000/svg" id="RSSicon" viewBox="0 0 512 512" width="512" height="512">
  <defs>
    <style type="text/css">
      svg {
        background: black;
        margin: calc(50vh - 256px) auto 0;
      }
      
      polygon {stroke: darkorange; fill: none;}
    </style>
  </defs>
  <polygon points="11.348827541285873 11.348827541285873 33.23066585209732 9.436000814569345 33.192731826584776 33.192731826584776 15.5281316573604 27.138535009306267"/><polygon points="56.363068278858556 13.69640161219189 77.20222390734972 8.131109425983619 74.88866859697379 32.22200193030713 57.79846535411228 27.53486797922105"/><polygon points="101.92267202718752 16.589338693854188 122.1155065644586 5.884493435541396 112.29637049582465 26.963037162491325 97.87465233421824 30.12534766578175"/><polygon points="135.11727052440253 7.11727052440251 159.68457624264232 10.982090424024353 158.62105994828315 30.621059948283126 132.7789728072255 37.887693859441164"/><polygon points="184.06422287856466 13.397556211898 196.92470183486355 16.40863149846978 199.7247000204484 29.058033353781745 184.79187320930498 28.54146012402834"/><polygon points="226.7503363437278 13.417003010394492 249.81304052349316 6.186959476506823 246.21746321893104 32.88412988559772 226.73014165626483 29.269858343735148"/><polygon points="267.1073162021643 11.107316202164363 283.9652577222374 14.701408944429215 289.18005835842314 33.18005835842315 268.99206622402284 29.674600442643786"/><polygon points="315.0499043362745 16.383237669607865 325.5180073535176 15.815325979815709 326.2435058193996 27.576839152732987 308.8626625146968 32.47067081863645"/><polygon points="350.85162912711917 9.518295793785857 371.02980328511114 12.970196714888841 373.2397938500222 31.906460516688874 356.00724430112547 27.992755698874497"/><polygon points="395.46886015384007 11.468860153840076 410.06856311069015 16.598103555976515 415.5714543201991 31.5714543201991 394.4378941784897 32.22877248817694"/><polygon points="434.13958956804294 7.472922901376325 454.2434856611293 15.089847672204009 464.06504703852687 37.39838037186024 442.09447658506866 27.238856748264627"/><polygon points="482.38853911665774 13.055205783324423 505.9686174704247 6.031382529575234 505.0628233621276 35.72949002879427 485.18975163815 26.81024836184996"/><polygon points="16.454676200942462 59.12134286760913 36.491455278379576 48.84187805495375 30.39835477965704 73.06502144632371 15.51926702315812 69.8140663101752"/><polygon points="52.451987129405445 52.451987129405445 68.84827200965401 59.15172799034599 77.5335360151278 77.5335360151278 58.21005617879976 69.78994382120024"/><polygon points="95.04646384755685 52.37979718089019 119.70662662469226 50.9600400419744 118.26488924685265 75.59822258018599 95.2580835670199 75.40858309964676"/><polygon points="132.7970817914639 47.46374845813057 164.37013230657578 48.96320102675757 159.70233244771546 74.36899911438213 133.69544525548736 79.63788807784599"/><polygon points="182.63655564224436 54.636555642244375 208.29186753876886 47.70813246123115 198.9699547172881 70.96995471728809 182.18051512305078 73.81948487694922"/><polygon points="223.22916706679527 52.56250040012861 244.19297958856998 54.47368707809667 248.2326506663822 77.56598399971553 226.632182554569 72.03448411209767"/><polygon points="267.1914165917048 53.85808325837148 283.41377483522916 57.91955849810416 292.6976759341356 79.36434260080229 264.4629653515763 76.870367981757"/><polygon points="303.51771004149583 47.517710041495874 335.7456749213326 48.25432507866738 336.32649963694377 80.32649963694384 311.58331080217215 72.41668919782782"/><polygon points="357.04387213855205 58.37720547188544 371.3696054602474 55.29706120641923 369.78659674994543 71.11993008327879 348.3303804120254 78.33628625464124"/><polygon points="391.88726505657314 50.55393172323984 421.3691388208635 47.96419451246983 413.3923817801152 72.05904844678192 395.6748346545137 73.65849867881964"/><polygon points="430.9272662730375 46.927266273037546 461.55311444309575 50.44688555690417 454.15450026124114 70.15450026124118 432.7024026450314 79.29759735496854"/><polygon points="480.56010602890944 53.89343936224281 500.39510416088484 54.27156250578181 501.15833599942465 74.49166933275804 476.3401426542221 78.32652401244452"/><polygon points="11.607997980185699 96.94133131351903 34.64100387411457 93.35899612588543 28.182301570342712 113.51563490367604 5.481659018414181 122.51834098158581"/><polygon points="58.10596030269576 100.77262696936242 68.88054916576223 101.78611750090442 74.70297900725637 117.36964567392303 46.72338648390428 123.94328018276238"/><polygon points="100.12283337791324 100.12283337791324 122.27336062506134 91.05997270827197 111.45424285078686 111.45424285078686 95.95401473025143 117.37931860308188"/><polygon points="139.4580418125368 96.79137514587012 161.30772983214283 94.69227016785717 166.39464305427668 123.72797638761 139.71154233263516 116.28845766736484"/><polygon points="187.23818280989593 101.90484947656257 199.1602909179611 99.50637574870555 203.5845819997201 118.25124866638674 174.74512451482968 123.92154215183697"/><polygon points="223.19884303897345 95.19884303897345 240.30128941644773 101.03204391688558 249.53959803477326 121.53959803477326 226.7343843592287 114.59894897410462"/><polygon points="265.6108175195892 94.94415085292252 292.9026692992899 91.09733070071002 288.7185424127043 118.0518757460377 262.88717959079753 121.11282040920244"/><polygon points="304.8916083960767 91.55827506274343 325.67056264707287 100.99610401959373 333.9124579107133 120.57912457738 314.94127257124165 111.72539409542496"/><polygon points="350.0609704653633 94.06097046536334 368.65628067382477 100.67705265950855 372.84623339185663 116.84623339185663 354.7044670493785 114.62886628395482"/><polygon points="388.0153878554549 89.34872118878823 411.9778394601548 100.02216053984515 414.7978436013748 116.1311769347081 396.9816287347546 115.01837126524534"/><polygon points="435.3058416057041 93.9725082723708 454.8591944779868 99.80747218867977 465.0463812547214 123.7130479213881 432.3534699068042 122.31319675986241"/><polygon points="484.1897104980372 100.1897104980372 501.7958359816366 95.53749735169667 505.23689880474257 121.23689880474258 479.9624992292871 117.37083410404615"/><polygon points="10.398446112778624 138.39844611277863 33.87637460458781 136.79029206207886 26.186607595465603 154.1866075954656 8.543640376742314 162.12302628992435"/><polygon points="50.438674912161716 135.77200824549504 78.73337521206636 134.59995812126698 81.36753151327605 166.7008648466094 58.10830678231241 155.22502655102093"/><polygon points="93.82873451307906 136.49540117974573 122.64080647322665 133.35919352677334 120.91726011015723 163.58392677682392 89.43752302927498 166.56247697072502"/><polygon points="138.18669987851032 138.18669987851032 163.413583400072 135.25308326659467 155.63524836772845 155.63524836772845 137.18212332519434 161.48454334147235"/><polygon points="177.8200043222118 135.15333765554513 200.92023226640282 140.41310106693052 209.14227295349912 166.47560628683246 186.56384495740764 154.76948837592573"/><polygon points="224.92625756810688 139.59292423477356 243.54977390457086 140.45022609542914 249.05775690320485 163.72442356987153 219.56478801758615 164.43521198241385"/><polygon points="272.6324727322125 144.6324727322125 292.875973970946 133.79069269572062 282.886689842819 154.88668984281907 259.9026659903582 166.7640006763085"/><polygon points="310.38313066429833 139.7164639976317 334.9936481577668 134.3396851755665 334.93207902717637 164.26541236050977 308.97817318874735 160.3551601445859"/><polygon points="345.66282267183266 132.3294893384994 371.4057761305888 140.59422386941122 368.58517508490064 155.25184175156733 348.2945391759691 163.70546082403092"/><polygon points="390.1454763261212 134.14547632612118 418.42238156718383 136.24428509948285 416.61989933310247 160.61989933310252 388.592826185367 166.07384048129964"/><polygon points="434.90887181891 136.24220515224334 454.0145648738511 143.31876845948221 460.28573665997726 161.6190699933107 440.16322169761554 157.17011163571777"/><polygon points="483.6586108472049 142.3252775138716 505.1997870324243 134.80021296757565 500.96675140996905 159.63341807663576 480.4690259977309 159.53097400226903"/><polygon points="4.124092876923179 174.79075954358984 28.981709215863837 184.3516241174695 37.79433049166006 208.46099715832673 6.853510012786973 206.47982332054636"/><polygon points="50.492742111745436 178.49274211174543 71.44374268014629 184.55625731985373 73.34041868827649 201.3404186882765 49.27593754312598 206.72406245687404"/><polygon points="101.00913422459232 186.34246755792566 122.49142093097372 176.17524573569293 122.92138636363843 208.2547196969718 91.70492367126957 206.9617429953971"/><polygon points="135.99342479621907 178.66009146288573 161.58278538555845 179.7505479477749 155.46556307958414 198.1322297462508 137.60888728571393 203.7244460476194"/><polygon points="186.1486626245132 186.1486626245132 197.32589496374683 186.67410503625317 201.23712797382416 201.23712797382416 176.33436357892293 207.66563642107707"/><polygon points="220.7367668305124 178.07010016384575 248.14502471732018 178.52164194934647 248.4012622681618 205.73459560149513 218.9038649899895 207.76280167667716"/><polygon points="261.94298654883085 176.60965321549753 293.059277489646 176.27405584368734 294.40778238208276 209.07444904874944 259.8807015556886 209.45263177764474"/><polygon points="313.7927383071176 185.79273830711765 332.3368231334956 179.6631768665043 332.085874963909 204.08587496390905 311.32553680224686 200.67446319775308"/><polygon points="346.0310234613075 175.36435679464086 374.7412457254251 179.92542094124155 368.1665298879062 197.49986322123962 351.88822289515855 202.77844377150808"/><polygon points="388.52002684142315 175.1866935080898 418.6490332360268 178.68430009730653 419.90722484469603 206.5738915113627 397.9927399234651 199.34059340986823"/><polygon points="442.8154252548293 186.8154252548293 456.14836029509127 183.85163970490865 458.14020242142027 202.14020242142033 436.172728596383 203.82727140361695"/><polygon points="482.2211060669868 183.55443940032018 499.3053880984021 183.36127856826454 507.14255299491987 208.4758863282532 478.0797645757487 204.58690209091793"/><polygon points="11.457156876212304 224.79049020954562 32.45195731656857 223.54804268343142 29.969636429692986 243.3029697630263 14.469124610312708 241.53087538968728"/><polygon points="47.510327927523555 218.1769945941902 74.90562236104404 223.76104430562262 79.06870007070103 249.73536673736768 54.35460548613206 244.3120611805346"/><polygon points="101.09996336547478 229.0999633654748 113.20933828417117 228.12399504916215 120.8857682962052 248.88576829620519 92.55232647096803 248.7810068623653"/><polygon points="143.78155261658304 229.11488594991636 163.50434468429185 220.49565531570815 165.01041218821584 250.34374552154915 134.18596448415155 249.81403551584845"/><polygon points="176.0825380700915 218.74920473675814 208.23372463325254 218.43294203341412 199.56751431667874 242.2341809833454 177.59950706659117 249.06715960007548"/><polygon points="226.0315445315279 226.0315445315279 244.24994282031443 225.08339051301888 242.41284282024776 242.41284282024776 223.27164593304565 246.06168740028767"/><polygon points="267.250541052826 224.58387438615938 292.0935827782511 219.90641722174888 283.94200254135245 241.2753358746858 261.1519033166352 250.8480966833648"/><polygon points="308.5445843480726 223.21125101473928 329.26510949434123 225.40155717232537 325.2739437504995 239.94061041716623 308.82293128785045 245.84373537881615"/><polygon points="350.75263310303 222.75263310303004 379.2887673910618 218.0445659422715 379.3256716446093 251.32567164460934 349.8710862633487 247.4622470699846"/><polygon points="395.0737766526141 224.40710998594741 415.0384398320913 224.96156016790871 410.6277516107803 239.96108494411365 394.3710667672881 245.62893323271192"/><polygon points="431.5367118302182 218.20337849688494 461.89860399391864 220.768062672748 452.7510227280333 239.4176893947 434.27170564835126 248.39496101831537"/><polygon points="478.3717858204577 222.37178582045777 498.5973770478098 226.73595628552346 505.73451948982967 249.7345194898297 484.54675011898394 240.78658321434938"/><polygon points="4.516835432569831 260.5168354325698 36.299425362392924 262.3672413042737 27.769766820290876 283.76976682029084 16.02549821445755 282.6411684522091"/><polygon points="46.865233199633984 260.1985665329673 71.30122022416822 270.0321131091651 73.71821074156122 287.05154407489454 49.625861354320776 291.70747197901255"/><polygon points="95.74496747423369 266.41163414090033 116.41910163005515 267.5808983699448 114.35155751716829 285.01822418383495 101.23756320137541 282.76243679862455"/><polygon points="134.82711709300864 262.8271170930086 157.81725581580918 268.8494108508575 165.45698651880122 293.4569865188012 134.1757490652171 292.49091760144955"/><polygon points="181.27329218145175 266.60662551478504 205.87726906087352 263.4560642724598 198.31448801965377 283.6478213529871 186.87502203987242 282.4583112934609"/><polygon points="224.66684642313808 267.33351308980474 250.6859193422207 261.31408065777924 241.6310855830041 284.2977522496708 229.48769982686258 282.5123001731374"/><polygon points="268.28348838336876 268.28348838336876 290.89150574284633 263.7751609238203 285.2147518333294 285.2147518333294 266.85461421571637 287.81205245095026"/><polygon points="306.0473512394538 263.3806845727872 330.5682764937224 266.76505683961085 333.2142232248913 290.5475565582247 311.498183428189 285.83514990514425"/><polygon points="346.22779797955724 260.8944646462239 376.7980189538162 263.20198104618373 378.60200090758207 293.26866757424875 355.80806620344697 284.1919337965529"/><polygon points="399.04598475653387 271.04598475653387 422.041020257267 260.6256464093996 413.7466414098243 285.7466414098243 388.7939316727609 293.87273499390574"/><polygon points="436.2581358349734 265.5914691683068 453.3284703943733 272.00486293895995 461.87883934334434 291.2121726766777 430.7171811119818 294.61615222135146"/><polygon points="475.38535325522605 262.05201992189274 500.0994645140103 267.9005354859896 504.20342840813106 290.87009507479775 476.5330694727998 291.46693052720013"/><polygon points="14.257844940981673 312.9245116076483 29.554806674996797 311.7785266583365 28.2043709217951 326.8710375884617 4.964036380064844 336.3692969532684"/><polygon points="51.59086413810319 307.59086413810314 71.28582791678163 312.71417208321833 76.66207145316999 332.6620714531699 47.2222712746562 336.77772872534376"/><polygon points="91.56312101409192 304.8964543474252 117.41834708621255 309.24831958045405 121.07382662859791 334.4071599619312 91.65226482571512 335.0144018409515"/><polygon points="136.8493374729823 307.5160041396489 155.3661401016205 313.9671932317128 162.69157934548474 333.3582460121513 142.72926609938662 326.60406723394664"/><polygon points="175.31372783444522 303.31372783444516 199.76714307972267 312.23285692027724 199.33862889531724 327.3386288953172 178.74839085556408 333.25160914443586"/><polygon points="223.77410711966905 309.1074404530023 248.70436403636592 305.96230263030066 247.39475094844192 332.7280842817752 227.02044769748395 327.64621896918266"/><polygon points="268.63056885505137 311.297235521718 292.1511366220241 305.18219671130913 284.7910780983228 327.45774476498946 272.21146917788946 325.1218641554438"/><polygon points="308.8279606984888 308.8279606984888 329.26836815735896 310.7316318426409 337.4358033402526 337.4358033402526 305.4832865708121 334.5167134291878"/><polygon points="355.6654932451605 312.99882657849383 374.90713514257897 307.7595315240876 379.2475356024366 336.5808689357699 345.33577453965995 337.3308921270066"/><polygon points="395.03093264830227 309.6975993149689 420.4597345384636 304.8735987948697 416.76708895298145 331.4337556196481 392.5113669481445 332.8219663851888"/><polygon points="440.8844924741216 312.8844924741216 453.3067559098548 314.6932440901451 463.17893163429096 335.17893163429096 436.14650818285236 331.8534918171475"/><polygon points="473.40627759635663 302.73961092968995 505.8222080169133 304.8444586497533 497.45482423989745 326.78815757323076 475.3915627494894 335.27510391717715"/><polygon points="15.621198226495634 356.9545315598289 37.34436250842012 346.65563749157985 26.198707923636505 367.5320412569698 5.870799542169793 378.12920045783017"/><polygon points="49.92290440394861 348.58957107061525 75.50468418532184 351.1619824813448 72.15504973894159 370.8217164056082 47.40661152636759 379.260055140299"/><polygon points="89.36415312678673 345.36415312678673 120.99681613549691 348.3365171978364 121.70256431037906 377.70256431037905 101.15188997805491 368.18144335527836"/><polygon points="143.23535864210822 356.5686919754415 162.05923758226137 349.9407624177386 163.45540964842593 376.78874298175924 135.63738669263842 376.3626133073615"/><polygon points="180.18037497383182 350.84704164049845 199.3088912826781 355.35777538398855 203.49926015003865 374.1659268167053 177.6724862341393 376.99418043252734"/><polygon points="218.03563855463216 346.03563855463216 242.0031062382497 355.33022709508356 244.6670200934969 372.66702009349683 222.02219539734088 375.3111379359924"/><polygon points="267.89676777374456 353.23010110707787 293.36440033535735 346.63559966464265 286.1556735205692 371.48900685390254 263.4089467859666 376.59105321403337"/><polygon points="313.1509419439776 355.8176086106443 327.85204255353574 354.8146241131308 334.2880319283336 376.9546985950003 302.738135656578 379.9285310100886"/><polygon points="353.7179010993322 353.7179010993322 374.14935571640973 351.1839776169235 373.2293674545983 373.2293674545983 356.0384520032315 369.29488133010176"/><polygon points="392.1806585991785 349.51399193251183 420.1948952258706 347.80510477412935 410.7634486262491 368.0967819595824 399.51315242644245 368.4868475735575"/><polygon points="441.2576124206896 355.9242790873563 456.40188505222255 354.264781614444 464.02401952288886 378.69068618955555 434.33747247001816 376.3291941966484"/><polygon points="474.1056014960167 346.1056014960167 499.43165383897934 353.9016794943539 504.1185541911311 376.1185541911311 485.70665550631645 367.6266778270168"/><polygon points="5.398515485129058 389.39851548512905 30.826873456051985 395.8397932106147 31.421704384498522 415.4217043844985 14.061627471064014 412.6050391956026"/><polygon points="54.77720803133902 396.1105413646723 71.59425240722477 397.73908092610856 71.7134541266659 413.0467874599992 47.051075920879185 422.2822574124541"/><polygon points="97.15152904184934 395.818195708516 113.01033524303593 398.98966475696403 122.79318805307 421.45985471973665 97.65606359325218 414.3439364067478"/><polygon points="136.0124287123197 392.01242871231966 166.24577533586844 388.4208913307982 158.41625263343474 414.41625263343474 136.42235468898332 418.24431197768337"/><polygon points="183.65789388212949 396.9912272154628 209.2756882068963 388.057645126437 204.60671861189743 417.9400519452308 186.20264681045762 411.1306865228757"/><polygon points="218.21763968724383 388.8843063539105 242.44851891041222 397.55148108958775 246.6156278691782 417.28229453584487 229.37183548728078 410.6281645127192"/><polygon points="262.4946625617173 390.4946625617173 282.78570717586894 399.8809594907977 285.8341870197283 413.8341870197283 262.7536054593431 419.91306120732355"/><polygon points="304.7374125842713 390.07074591760465 325.40341191203925 399.929921421294 334.7828445645539 420.11617789788727 311.4707847938653 413.862548539468"/><polygon points="356.91463801512714 399.5813046817938 374.6972189232513 393.30278107674866 371.46808385450316 414.13475052116985 354.3028231724438 413.6971768275561"/><polygon points="398.08029974672525 398.08029974672525 416.84066957466797 393.82599709199866 414.8744401918524 414.8744401918524 398.9817590522806 411.684907614386"/><polygon points="439.10821990320795 396.4415532365413 455.4352999863164 397.89803334701685 453.7034231188757 411.0367564522091 432.47853559618085 420.8547977371524"/><polygon points="483.19389152839494 397.8605581950616 498.6114994502388 397.38850054976115 497.27049089815034 411.937157564817 482.7542474055702 413.24575259442975"/><polygon points="15.984980744701842 442.65164741136846 26.735367629511607 442.59796570382167 36.940085015953876 463.6067516826205 6.6893880068076506 462.6439453265256"/><polygon points="48.97829626338084 432.9782962633808 69.25919638691252 442.74080361308745 69.70625877643813 453.70625877643806 54.654472058846515 457.3455279411534"/><polygon points="89.96934815865032 431.3026814919836 124.04254747823028 430.62411918843634 122.76203233791134 464.0953656712446 95.19116838992004 459.4754982767466"/><polygon points="144.54241030237358 443.2090769690402 162.9841285330641 434.3492048002692 163.44099170493158 462.1076583715982 142.1955492427901 455.1377840905432"/><polygon points="178.5117781505386 434.51177815053853 206.79957315942576 433.2004268405742 204.37316882204658 460.3731688220465 180.68381076527166 459.31618923472826"/><polygon points="223.68510033818177 437.0184336715151 252.09886570595856 430.56780096070804 244.08992075449572 457.423254087829 223.67478312302114 458.9918835436455"/><polygon points="268.93183897207297 439.5985056387396 284.0406637421619 441.2926695911714 293.2288497917232 463.8955164583898 267.0311639098333 458.30216942349995"/><polygon points="309.0613329187688 437.0613329187688 328.1466586635234 439.8533413364765 333.80450057199005 461.80450057199005 307.3115610376566 460.6884389623433"/><polygon points="354.30070549882146 439.6340388321548 371.16622192943936 439.5004447372272 379.09972615989386 464.4330594932272 357.5724396521979 453.0942270144687"/><polygon points="388.36452073511776 431.0311874017844 413.84087060732753 439.4924627260057 410.5472686285196 453.2139352951862 391.6185630089201 461.71477032441317"/><polygon points="430.9172161535352 430.9172161535352 455.8761923490804 440.1238076509195 453.7470074438106 453.7470074438106 440.0050165675227 455.99498343247717"/><polygon points="481.44777630650043 438.78110963983374 505.8803625374216 432.78630412924497 500.4939949504663 457.8273282837996 479.44449084638626 459.2221758202803"/><polygon points="15.922728705421472 485.25606203875475 32.16806827999557 479.8319317200044 33.869935873766 503.2032692070993 8.614477728905952 503.38552227109403"/><polygon points="58.81683480432893 485.4835014709956 78.6470952825906 476.019571384076 75.43225435648368 502.0989210231503 53.03309147591936 501.63357519074725"/><polygon points="91.31775444207271 475.31775444207267 112.42897390497227 484.90435942836103 118.58533922783128 502.58533922783124 98.07868950198053 499.2546438313527"/><polygon points="135.43451386049992 476.76784719383323 162.82652071891386 477.17347928108614 159.2401348347759 500.5734681681092 132.89005161006887 507.1099483899311"/><polygon points="177.752702065599 476.41936873226564 205.07756481886682 477.58910184779984 209.09104899312925 507.7577156597959 183.97830809520065 498.688358571466"/><polygon points="229.90779423455402 485.907794234554 247.4065299796465 477.92680335368675 242.75467450541848 498.75467450541845 229.83256508040807 495.50076825292524"/><polygon points="261.2462948052795 474.5796281386128 285.92126456013915 482.0787354398608 286.7241702559687 500.05750358930203 264.4291010992078 503.57089890079214"/><polygon points="315.24988417725115 485.91655084391783 329.83057662608263 480.83609004058394 330.8467377393559 501.5134044060226 306.588797552054 504.07786911461255"/><polygon points="356.1488491685269 484.1488491685269 368.94657163151913 484.3867617018141 375.9694567773414 503.9694567773414 346.5402365004937 506.7930968328396"/><polygon points="389.80762456751955 475.14095790085287 420.47705717872833 475.5229428212716 411.92079382264296 497.2541271559763 393.87102348145885 502.1289765185411"/><polygon points="434.6767227349636 477.3433894016303 457.06389681995097 481.6027698467156 464.25545279168296 506.92211945834964 432.86098825086253 505.80567841580404"/><polygon points="483.55001785818183 483.55001785818183 500.9921557058586 480.3411776274747 498.9536310234602 498.9536310234602 477.47167681623426 503.861656517099"/>
</svg>
