<?xml version="1.0" encoding="UTF-8"?>
<svg xmlns="http://www.w3.org/2000/svg" id="RSSicon" viewBox="0 0 512 512" width="512" height="512">
  <defs>
    <style type="text/css">
      svg {
        background: black;
        margin: calc(50vh - 256px) auto 0;
      }
      
      polygon {stroke: darkorange; fill: none;}
    </style>
  </defs>
  <polygon points="13.950946361686224 13.950946361686224 28.79557609987442 13.871090566792244 29.525658486090066 29.525658486090066 9.878575806462653 32.78809086020401"/><polygon points="56.02117088799368 13.354504221327012 74.73499553971594 10.598337793617397 79.34497658813979 36.67830992147313 58.0334661268942 27.29986720643913"/><polygon points="101.74125053214871 16.407917198815383 114.27317467433257 13.726825325667418 123.89815577115047 38.56482243781714 100.31019111854741 27.689808881452585"/><polygon points="140.11353286128525 12.113532861285229 154.36850090825575 16.298165758410924 156.73078412136067 28.73078412136067 139.0665131012656 31.600153565401087"/><polygon points="185.7856793048563 15.119012638189643 207.10055780501287 6.232775528320456 201.33683548868328 30.67016882201662 179.87811427509595 33.45521905823739"/><polygon points="223.9916366326875 10.658303299354156 244.55636614838215 11.443633851617836 248.1657260532504 34.83239271991709 219.65838414428055 36.34161585571945"/><polygon points="263.95248805779215 7.952488057792163 291.409202745147 7.2574639215196495 289.3024075279389 33.30240752793891 265.2868418526142 33.37982481405245"/><polygon points="311.2833553205321 12.616688653865522 336.73668996491125 4.596643368422004 332.5047503203024 33.838083653635756 312.29054374908713 29.042789584246126"/><polygon points="352.8696334198439 11.536300086510618 368.001040555072 15.998959444927975 379.807333635081 38.47400030174773 348.888680232556 35.111319767443945"/><polygon points="397.1533498610764 13.153349861076382 410.12100099428966 16.545665672376984 416.7301666650185 32.7301666650185 393.32474565899673 33.34192100766994"/><polygon points="442.3488937949959 15.68222712832928 460.9674927890551 8.365840544278175 462.0409530378619 35.37428637119534 436.9375437745718 32.39578955876148"/><polygon points="478.7259542844008 9.392620951067489 499.97751968736577 12.022480312634208 506.74293637642376 37.40960304309047 482.5016048497821 29.49839515021788"/><polygon points="11.28290953940915 53.94957620607582 29.64796396742348 55.68536936590985 35.2100919315295 77.87675859819616 8.872395335369356 76.46093799796398"/><polygon points="51.38796748152001 51.38796748152001 74.12193961457476 53.878060385425236 69.24959550417663 69.24959550417663 46.95141525511637 81.04858474488363"/><polygon points="95.24244423562264 52.575777568955985 118.73967053696236 51.926996129704285 120.67317217269968 78.00650550603302 91.03511394549213 79.63155272117453"/><polygon points="137.37478859781623 52.041455264482885 154.68723837725253 58.6460949560808 157.18850388255308 71.85517054921975 132.52811073176355 80.80522260156978"/><polygon points="175.4904936775133 47.4904936775133 209.2732938104871 46.72670618951288 205.64695827830855 77.64695827830856 178.8454958878008 77.15450411219918"/><polygon points="224.50733530673608 53.840668640069424 247.4121261536132 51.25454051305344 245.83279861680788 75.16613195014122 218.19603566988806 80.4706309967786"/><polygon points="261.82804062152127 48.49470728818795 289.37031692075254 51.96301641258076 291.9162137235599 78.58288039022658 261.3871928232478 79.94614051008551"/><polygon points="306.3952186231128 50.395218623112854 329.25111841564416 54.7488815843558 327.62814447055536 71.62814447055543 302.93333507884364 81.0666649211563"/><polygon points="356.2881771997756 57.62151053310895 379.1431149901596 47.523551676507054 377.45994509158845 78.7932784249218 356.1502803183057 70.51638634836094"/><polygon points="397.54718564794047 56.213852314607145 414.78556906443356 54.54776426889976 414.8839207177975 73.55058738446417 391.1650495704109 78.16828376292247"/><polygon points="434.73520141751476 50.735201417514794 462.9754864373648 49.02451356263515 453.27556359980343 69.27556359980352 435.4836192524315 76.51638074756846"/><polygon points="481.4325484199476 54.76588175328096 507.90361913488005 46.76304753178656 500.75124877371104 74.08458210704441 480.6048595512521 74.06180711541451"/><polygon points="6.695147132836128 92.02848046616946 34.56451918927313 93.43548081072686 33.340903107472926 118.67423644080625 5.191538297879038 122.80846170212095"/><polygon points="52.65508135166513 95.32174801833179 72.77441577534245 97.89225089132421 73.52400762423181 116.19067429089847 56.360673553677366 114.30599311298928"/><polygon points="96.40752338518045 96.40752338518045 118.50911477120648 94.82421856212683 121.36354944304212 121.36354944304212 95.50704948905809 117.82628384427522"/><polygon points="136.1290458853622 93.46237921869552 161.40968473569 94.59031526431 163.54451568160837 120.87784901494167 136.2466321720264 119.7533678279736"/><polygon points="178.2297033608345 92.89637002750115 197.29890449772287 101.36776216894378 209.4859210326287 124.15258769929538 184.5888966289589 114.07777003770774"/><polygon points="227.16367918275623 99.16367918275623 244.8163711362672 96.5169621970661 245.2837962925821 117.28379629258211 217.47007118728405 123.86326214604928"/><polygon points="269.6344951030181 98.96782843635144 288.9792382316221 95.02076176837785 285.9684810866264 115.30181441995975 262.41497280022537 121.58502719977461"/><polygon points="308.0967513959011 94.76341806256781 330.05611595443133 96.61055071223528 335.10335861555194 121.77002528221867 306.01094521565074 120.65572145101589"/><polygon points="351.1652005779295 95.16520057792953 372.1512466887513 97.18208664458196 376.0425019500347 120.04250195003473 356.36640001175647 112.96693332157685"/><polygon points="392.5285083213558 93.86184165468912 420.48057493758813 91.51942506241187 414.86223044314534 116.19556377647868 394.9595697771034 117.04043022289655"/><polygon points="433.86211454438234 92.52878121104906 464.0164110062766 90.65025566038999 456.8306045240656 115.4972711907323 443.2888174086177 111.37784925804888"/><polygon points="479.1636655861244 95.16366558612444 496.355093700586 100.97823963274729 504.12197236130527 120.12197236130528 478.72157982533554 118.61175350799775"/><polygon points="8.497199687172197 136.4971996871722 33.1940612841183 137.47260538254838 29.070799765923653 157.07079976592365 14.243076766230542 156.42358990043613"/><polygon points="57.85223390482411 143.18556723815746 77.6843939789482 135.64893935438513 78.43109032484912 163.76442365818247 55.33835574841341 157.99497758491992"/><polygon points="97.57212661580996 140.23879328247665 112.48276612034678 143.51723387965322 116.8556789231738 159.52234558984048 89.20344118334242 166.79655881665758"/><polygon points="133.8052034148959 133.8052034148959 161.7113800207762 136.95528664589048 160.33127367106295 160.33127367106295 142.6173165713416 156.04935009532508"/><polygon points="181.25359936740483 138.58693270073817 197.65857268061163 143.67476065272172 204.30489025957894 161.6382235929123 184.81498617196934 156.51834716136398"/><polygon points="223.78582292528935 138.45248959195604 251.7829777477895 132.2170222522105 245.70031675745525 160.36698342412194 225.13483250879594 158.86516749120406"/><polygon points="267.80108170272257 139.80108170272257 286.42443635601205 140.24223031065458 288.0258552852168 160.02585528521684 268.059001033485 158.60766563318168"/><polygon points="302.85270726456827 132.18604059790164 333.31710356404113 136.01622976929212 327.824837271765 157.15817060509838 310.8205433231035 158.51279001022982"/><polygon points="349.3415083885249 136.00817505519166 379.4620386163153 132.5379613836847 378.78034413070714 165.44701079737388 353.3501853087659 158.64981469123407"/><polygon points="393.94750848186436 137.94750848186442 418.63242298342254 136.03424368324409 410.0283224944225 154.02832249442258 395.5058313111484 159.1608353555182"/><polygon points="441.0881176358278 142.42145096916124 453.780841530093 143.55249180324023 461.96829680958473 163.30163014291813 431.3596312845501 165.97370204878314"/><polygon points="475.95018021916263 134.61684688582935 497.76973219106947 142.23026780893053 505.17409490143496 163.84076156810167 474.60087225849776 165.39912774150224"/><polygon points="14.399686208019968 185.06635287468663 38.4556556429168 174.87767769041653 29.3265287036405 199.99319537030718 10.184546172381562 203.14878716095177"/><polygon points="48.40602411128383 176.40602411128384 77.34011673270679 178.6598832672932 71.17866548465089 199.1786654846509 58.627736665352145 197.37226333464784"/><polygon points="90.6100675365116 175.94340086984494 115.15100440159549 183.51566226507117 115.10241162714128 200.4357449604746 93.20903938696141 205.45762727970524"/><polygon points="141.16923335446583 183.8359000211325 164.96310799638465 176.3702253369487 157.23473837520282 199.90140504186948 143.1536176636023 198.17971566973105"/><polygon points="179.46003923163653 179.46003923163653 199.6060587526425 184.3939412473575 209.03329505515904 209.03329505515904 184.33358474422957 199.66641525577043"/><polygon points="218.2692193272518 175.60255266058513 251.78129693660821 174.88536973005844 246.1567614507179 203.49009478405125 228.57744497850211 198.08922168816454"/><polygon points="265.6386052512435 180.30527191791018 283.7992080264543 185.534125306879 294.0642755745175 208.73094224118424 267.9538770219989 201.37945631133445"/><polygon points="306.6229035391497 178.62290353914977 324.82669049309436 187.17330950690558 324.7503473107841 196.75034731078415 310.29646859960565 201.7035314003943"/><polygon points="345.7429461132563 175.0762794465897 368.9526934209998 185.71397324566684 372.0273396474144 201.36067298074775 357.59400247725114 197.0726641894155"/><polygon points="395.16323117685073 181.82989784351741 421.08997189773476 176.24336143559853 421.9862116113738 208.65287827804048 399.6294223793656 197.70391095396766"/><polygon points="432.37430257456884 176.3743025745689 464.94516321740986 175.0548367825901 463.41222672898334 207.4122267289834 434.3597419706955 205.64025802930448"/><polygon points="483.9744330901919 185.3077664235253 498.8404135356537 183.82625313101295 502.239415774142 203.57274910747535 476.92071115215265 205.74595551451398"/><polygon points="13.290255594277975 226.6235889276113 31.824999667915577 224.1750003320844 35.967416740156544 249.30075007348987 14.723466223181187 241.2765337768188"/><polygon points="53.067343835624285 223.73401050229094 71.41192376431722 227.25474290234942 69.79807173900872 240.46473840567538 56.45885768154081 242.20780898512584"/><polygon points="97.15710971942592 225.15710971942593 115.41221410795664 225.92111922537666 122.55767433502552 250.55767433502552 97.15077204631467 244.18256128701864"/><polygon points="142.5469479563355 227.8802812896688 154.84619692602365 229.15380307397635 165.93320023946592 251.26653357279923 143.32089158453152 240.67910841546848"/><polygon points="185.140713798991 227.80738046565762 197.51100473611237 229.1556619305543 205.39161304188696 248.0582797085536 177.40291379287206 249.2637528737946"/><polygon points="227.48645993105046 227.48645993105046 245.4089525755202 223.9243807578131 239.70668016231858 239.70668016231858 218.56044941785075 250.77288391548257"/><polygon points="267.9836161067764 225.31694944010977 291.08856249233224 220.91143750766776 294.1746114681836 251.50794480151697 266.36572749429456 245.63427250570538"/><polygon points="312.5745534413494 227.24122010801608 336.32230922121687 218.3443574454497 332.53011504101994 247.19678170768665 306.75615721881405 247.91050944785255"/><polygon points="347.11686981385486 219.1168698138549 375.16467213514187 222.16866119819142 377.18365036792557 249.1836503679256 347.9862092728486 249.3471240604847"/><polygon points="400.5538259739102 229.88715930724354 418.74251048924896 221.257489510751 412.91186348573666 242.24519681907 391.24923740738467 248.7507625926153"/><polygon points="433.4649044655261 220.13157113219285 457.90934604563694 224.75732062102963 461.9677093798212 248.63437604648792 442.3012470951809 240.36541957148572"/><polygon points="475.7437383281789 219.7437383281789 505.5152598213481 219.81807351198518 496.85451309699823 240.85451309699826 473.4963417785326 251.83699155480068"/><polygon points="4.978151470827644 260.97815147082764 34.66227569740782 264.00439096925885 33.75551473716463 289.7555147371646 15.923965727875919 282.74270093879073"/><polygon points="50.802563203782235 264.13589653711557 70.4958075477467 270.83752578558665 74.35727833689839 287.6906116702317 51.65623820291905 289.6770951304143"/><polygon points="92.98468532699579 263.65135199366244 117.99314618129381 266.0068538187062 113.86597384839423 284.5326405150609 97.77596715962862 286.22403284037136"/><polygon points="141.2985706518909 269.2985706518909 163.92648788163834 262.7401787850283 160.1292575920539 288.1292575920539 139.91328509402447 286.7533815726422"/><polygon points="184.51920317315478 269.8525365064881 204.05911546551775 265.2742178678156 208.12338590262223 293.4567192359556 184.37570459678273 284.9576287365506"/><polygon points="226.2316606933558 268.89832736002245 251.35515170857326 260.6448482914267 251.18818494817293 293.85485161483956 228.2145913802112 283.78540861978877"/><polygon points="261.18931767732875 261.18931767732875 285.83448761878753 268.8321790478791 286.1312023612142 286.1312023612142 265.04763208943075 289.6190345772359"/><polygon points="305.34597176368356 262.67930509701694 327.3433003604588 269.9900329728745 324.8636426902728 282.19697602360617 311.3003275474723 286.03300578586095"/><polygon points="356.65143806049593 271.3181047271626 370.49894722813593 269.501052771864 375.2137791826814 289.88044584934806 350.05130842977877 289.9486915702212"/><polygon points="394.5525496217018 266.5525496217018 415.8037946256387 266.8628720410279 413.2748558940403 285.2748558940403 388.1744500887241 294.49221657794254"/><polygon points="442.28414518402093 271.6174785173543 455.619938317768 269.71339501556525 462.8587018289762 292.1920351623096 440.5001148650806 284.83321846825265"/><polygon points="483.5802183093468 270.24688497601346 498.7951735310899 269.20482646891 503.2617546974216 289.9284213640883 475.15827289098223 292.8417271090177"/><polygon points="14.153694048017526 312.8203607146841 30.689126545552217 310.64420678778106 35.930711262462026 334.59737792912864 4.709011749569157 336.62432158376413"/><polygon points="51.22993550333742 307.22993550333734 70.6437367857246 313.3562632142753 71.39069158080737 327.3906915808073 57.366790561861706 326.63320943813824"/><polygon points="97.44544898297441 310.7787823163077 119.01618880608808 307.6504778605785 111.41453149392788 324.7478648272612 90.13429302527884 336.5323736413878"/><polygon points="142.5025979933924 313.169264660059 159.52289419082422 309.8104391425091 166.1706527350247 336.8373194016913 140.9359917718239 328.3973415615094"/><polygon points="180.69079716457966 308.6907971645796 206.7164305993079 305.28356940069204 207.33390126134037 335.3339012613403 178.18319610541795 333.816803894582"/><polygon points="221.18433369574424 306.51766702907753 251.55069963954205 303.11596702712455 251.01631821881352 336.3496515521468 222.77327147003587 331.89339519663076"/><polygon points="266.13246523960834 308.79913190627497 284.3865654071947 312.94676792613853 285.03086522383023 327.69753189049686 261.7450357177403 335.588297615593"/><polygon points="314.33203751155935 314.33203751155935 332.79788107569203 307.20211892430785 335.4346242348038 335.4346242348038 307.22003972272967 332.7799602772702"/><polygon points="357.6352665547639 314.96859988809723 378.54227305924644 304.12439360742013 374.2186491602471 331.5519824935804 349.58872953958985 333.0779371270767"/><polygon points="397.1551711750973 311.8218378417639 414.37273097739285 310.9606023559404 416.7894711992777 331.45613786594436 388.76348749531655 336.5698458380167"/><polygon points="437.2314254628924 309.2314254628924 458.9114545302696 309.08854546973026 462.22795746645875 334.22795746645875 440.14182499484014 327.85817500515975"/><polygon points="474.7082631767705 304.04159651010383 498.40414350326927 312.2625231633973 505.55152235081107 334.8848556841444 485.6617550532817 325.0049116133849"/><polygon points="15.767412625492751 357.10074595882605 29.308228463998745 354.6917715360012 28.746552532819067 370.0798858661524 14.829039111220593 369.17096088877935"/><polygon points="50.21906953722583 348.88573620389246 73.11510882690231 353.5515578397643 79.52510855190225 378.19177521856886 58.93291097499645 367.7337556916702"/><polygon points="92.30043275983743 348.3004327598374 115.14700645980379 354.1863268735295 123.92640845305506 379.92640845305505 91.45423331975054 377.87910001358273"/><polygon points="142.6016577032593 355.9349910365926 154.7190372214024 357.2809627785976 154.89632945499082 368.2296627883241 144.3051075717313 367.6948924282687"/><polygon points="186.11544199613832 356.78210866280494 202.75598501601283 351.9106816506538 207.03658532643453 377.70325199310116 183.4234742573682 371.24319240929844"/><polygon points="229.8574237500788 357.8574237500788 239.628584124174 357.7047492091593 246.24076409445667 374.2407640944566 223.64511686212276 373.6882164712105"/><polygon points="263.5992540510681 348.9325873844014 285.0732989963742 354.92670100362574 285.40796670845293 370.74130004178625 265.57685005870826 374.4231499412917"/><polygon points="312.3095216512443 354.976188317911 328.44834735753693 354.21831930912964 327.5684405824036 370.23510724907027 304.06453322624816 378.6021334404184"/><polygon points="350.46830508962336 350.46830508962336 375.86780466147195 349.4655286718613 377.6822182411603 377.6822182411603 355.1187047867576 370.2146285465757"/><polygon points="390.92551756636743 348.25885089970075 420.73587409088077 347.2641259091192 415.7763270072536 373.1096603405869 395.02539759749624 372.9746024025037"/><polygon points="433.93954214560534 348.60620881227203 465.1385927373921 345.52807392927446 465.12202097218886 379.78868763885555 437.3968240427276 373.269842623939"/><polygon points="480.2829860466862 352.2829860466862 497.1338680155657 356.19946531776753 495.65016165419433 367.65016165419433 484.2537150794587 369.07961825387457"/><polygon points="15.012209124836495 399.0122091248365 27.894354891519235 398.7723117751474 28.568122072631105 412.56812207263107 12.642373740146564 414.0242929265201"/><polygon points="49.25899712586196 390.5923304591953 78.68647794598617 390.64685538734716 73.29839059188997 414.6317239252233 53.34367850147837 415.9896548318549"/><polygon points="99.61018175861999 398.27684842528663 124.06340675153898 387.936593248461 111.4433008589408 410.1099675256075 91.99854425472739 420.00145574527255"/><polygon points="133.71818128625523 389.71818128625523 158.59786001895753 396.06880664770915 158.65284138791574 414.6528413879157 133.0005820707203 421.66608459594636"/><polygon points="177.1225289415525 390.4558622748858 198.681158373262 398.6521749600713 198.36041219326037 411.69374552659366 180.3993873856368 416.9339459476965"/><polygon points="227.6472171173407 398.3138837840074 241.88657407616927 398.1134259238307 251.95434037168283 422.6210070383495 217.46868825105682 422.53131174894315"/><polygon points="266.2639784333397 394.2639784333397 286.42570661711306 396.24096004955356 290.70397917167725 418.70397917167725 271.1963203413246 411.470346325342"/><polygon points="304.9571160400157 390.2904493733491 332.22185547126855 393.1114778620647 330.2837389383556 415.617072271689 303.4850158445248 421.84831748880845"/><polygon points="357.2004916125722 399.8671582792389 371.19289747057053 396.80710252942936 376.4713051765915 419.1379718432582 346.02395577017666 421.9760442298233"/><polygon points="400.2523300610631 400.2523300610631 413.7938566604801 396.8728100061865 410.9789438476691 410.9789438476691 390.317748738918 420.34891792774863"/><polygon points="433.067280574831 390.40061390816436 456.94123423835146 396.3920990949818 462.0896546527857 419.4229879861191 432.8146008625993 420.51873247073394"/><polygon points="480.3172510182107 394.9839176848774 501.85460011227764 394.1453998877223 506.1259319380898 420.7925986047565 478.8782987618887 417.12170123811126"/><polygon points="12.049526053255239 438.7161927199219 36.33265893747309 433.0006743958602 29.12862844541905 455.7952951120857 14.294542738283557 455.0387905950497"/><polygon points="57.359846276138896 441.35984627613885 69.17720022558558 442.82279977441436 77.66329733775764 461.66329733775757 56.982289864712016 455.0177101352879"/><polygon points="101.18896508827983 442.52229842161313 119.12160694901532 435.54505971765127 121.70052025293117 463.03385358626446 99.63383217150509 455.0328344951615"/><polygon points="132.783258588581 431.4499252552476 162.35185037656777 434.9814829567655 154.71457144405068 453.3812381107173 134.21829211248146 463.1150412208518"/><polygon points="180.90636551017514 436.9063655101751 197.0075672452649 442.99243275473503 199.756087744034 455.75608774403395 178.9546531024638 461.04534689753615"/><polygon points="229.15559874573313 442.4889320790664 241.86895770483224 440.79770896183436 241.8644846557538 455.1978179890871 225.41048488767922 457.2561817789874"/><polygon points="261.76369584549093 432.43036251215756 283.76061842849504 441.5727149048382 283.44011279586624 454.10677946253287 265.47514616605696 459.8581871672763"/><polygon points="306.2821058846009 434.2821058846009 329.01677911413793 438.98322088586195 331.2541462906132 459.2541462906132 314.8251620539143 453.1748379460856"/><polygon points="356.14639900690014 441.47973234023345 371.51041273931565 439.1562539273509 371.997411756541 457.3307450898743 353.87590692891877 456.7907597377478"/><polygon points="388.5173208664434 431.18398753311004 419.3134237199775 434.01990961335576 422.1543807836762 464.8210474503428 390.8375668952444 462.4957664380889"/><polygon points="442.8985287809962 442.8985287809962 464.0873689574129 431.912631042587 460.3769933779707 460.3769933779707 435.00626862500764 460.99373137499225"/><polygon points="483.998526972031 441.33186030536433 504.84387640007355 433.822790266593 496.90056017467714 454.23389350801045 482.9184724644131 455.74819420225344"/><polygon points="16.526367597743302 485.8597009310766 33.86802658930463 478.1319734106953 33.70518538524708 503.03851871858035 8.216366155017916 503.78363384498203"/><polygon points="47.83569524625336 474.50236191292 77.465798671926 477.20086799474063 70.59210261592493 497.2587692825916 54.24829121495109 500.4183754517155"/><polygon points="90.48057417092181 474.4805741709218 116.52155533668106 480.8117779966522 123.04088442980417 507.0408844298041 94.0339121538945 503.2994211794388"/><polygon points="140.4544376463758 481.7877709797091 155.48864758329506 484.5113524167049 157.1635432510621 498.4968765843954 132.70149017054968 507.29850982945027"/><polygon points="177.1919219426372 475.85858860930387 202.2766940717462 480.38997259492044 200.51888556671625 499.18555223338285 182.4272000212745 500.2394666453921"/><polygon points="224.20871942855757 480.2087194285576 244.22368934870875 481.10964398462454 239.55209300194136 495.55209300194133 228.81124004161558 496.5220932917177"/><polygon points="261.2006019011739 474.5339352345072 294.11987499253325 473.8801250074667 289.3490246514617 502.68235798479503 260.6098950576289 507.39010494237107"/><polygon points="312.5179759733987 483.18464264006536 333.38922172574325 477.2774449409233 334.9599232101644 505.6265898768311 314.47090855259245 496.1957581140741"/><polygon points="356.23637654997856 484.23637654997856 380.1090750130609 473.2242583202724 377.0613490572792 505.0613490572792 347.80231745330525 505.531015880028"/><polygon points="389.2158683378116 474.54920167114494 422.4060670661456 473.5939329338543 421.83746378492873 507.17079711826204 398.548926090889 497.45107390911096"/><polygon points="442.546268118935 485.2129347856017 452.8729111931986 485.79375547346797 456.00599708216726 498.67266374883394 431.75689666992224 506.90976999674433"/><polygon points="480.36061233720426 480.36061233720426 496.5008348109263 484.832498522407 501.18725077931606 501.18725077931606 475.57362831884257 505.7597050144907"/>
</svg>
