<?xml version="1.0" encoding="UTF-8"?>
<svg xmlns="http://www.w3.org/2000/svg" id="RSSicon" viewBox="0 0 512 512" width="512" height="512">
  <defs>
    <style type="text/css">
      svg {
        background: black;
        margin: calc(50vh - 256px) auto 0;
      }
      
      polygon {stroke: darkorange; fill: none;}
    </style>
  </defs>
  <polygon points="9.434466629431945 9.434466629431945 32.723446959980016 9.943219706686646 37.62843362239896 37.62843362239896 11.618861942642381 31.04780472402428"/><polygon points="46.701281169479984 4.034614502813319 78.37600751369293 6.957325819640404 79.16497323366315 36.498306566996476 47.133914454726266 38.19941887860706"/><polygon points="98.00397690688239 12.670643573549064 120.10478923646775 7.895210763532237 115.59012803263204 30.25679469929871 97.51787886822645 30.482121131773546"/><polygon points="134.66088350009352 6.660883500093496 164.8628487258267 5.803817940839984 158.83424951617658 30.834249516176577 138.23699520727916 32.429671459387514"/><polygon points="175.6388199306661 4.972153263999438 198.2078680399175 15.125465293415827 206.50346242230407 35.836795755637404 175.6170301280426 37.71630320529076"/><polygon points="219.85627720387006 6.522943870536743 249.69345936068777 6.30654063931223 246.00056778074403 32.667234447410706 220.4027660768051 35.59723392319487"/><polygon points="272.1822970622409 16.18229706224092 282.086607335526 16.580059331140603 290.5332304386493 34.53323043864934 270.5018751417823 28.164791524884347"/><polygon points="311.66348767767386 12.996821011007226 335.25870456843563 6.074628764897669 330.55234354540545 31.88567687873884 312.72608868528056 28.607244648052706"/><polygon points="355.3721195759019 14.038786242568598 370.9927717735767 13.007228226423269 368.64652251426213 27.31318918092886 351.9834466273568 32.01655337264317"/><polygon points="398.6057664844367 14.605766484436684 411.9722637045759 14.69440296209076 412.90705945570784 28.907059455707845 395.7141554381626 30.95251122850405"/><polygon points="432.1062352535135 5.4395685868468675 460.92228711249834 8.41104622083491 458.21417556953503 31.547508902868437 437.88139559369324 31.45193773964006"/><polygon points="480.65952350530665 11.326190171973373 507.050885824489 4.949114175510946 504.42627535086484 35.092942017531534 474.8968143147841 37.10318568521589"/><polygon points="4.590574349387172 47.25724101605384 32.89840989321985 52.43492344011348 33.72735924623408 76.39402591290074 9.667489327649513 75.66584400568382"/><polygon points="56.233563071734615 56.233563071734615 76.12723856921576 51.872761430784244 81.26057015328455 81.26057015328455 55.23183719232345 72.76816280767655"/><polygon points="99.76944001631063 57.10277334964396 113.69806965160431 56.968597015062336 115.82615790764723 73.15949124098057 100.9844188267751 69.68224783989156"/><polygon points="138.27433653252257 52.941003199189225 155.56884416651567 57.764489166817675 163.77125229630576 78.43791896297243 133.13373897267888 80.19959436065446"/><polygon points="185.36601571432763 57.36601571432763 204.442238288957 51.55776171104302 198.8467308411939 70.84673084119392 181.05784342285335 74.94215657714666"/><polygon points="227.65004006688886 56.983373400222206 245.7108105131496 52.95585615351707 240.32172677463095 69.6550601079643 227.3292715244513 71.33739514221537"/><polygon points="261.2852609731406 47.95192763980728 282.10118424167115 59.23214909166215 286.2419418003356 72.90860846700228 272.61148844221634 68.72184489111694"/><polygon points="309.0601194910553 53.06011949105533 334.3576884040107 49.642311595989256 334.23663169391676 78.23663169391682 312.96066245775637 71.03933754224356"/><polygon points="357.41862812371306 58.75196145704645 377.43671649743044 49.229950169236176 375.2294097516097 76.56274308494304 348.6331997727221 78.03346689394455"/><polygon points="394.76086895566476 53.427535622331455 416.5317406745166 52.80159265881673 416.4721263626746 75.1387930293413 391.57074994339365 77.76258338993968"/><polygon points="430.578287160163 46.57828716016303 462.08423747460995 49.91576252539 464.27204676722033 80.27204676722036 441.535764419469 70.46423558053095"/><polygon points="480.3647003585331 53.69803369186651 495.9985747880353 58.66809187863132 502.7645637666903 76.09789710002363 473.8852986494906 80.78136801717599"/><polygon points="14.497168107884418 99.83050144121775 37.35610121384798 90.64389878615202 37.37007512357385 122.70340845690717 6.5700235200975605 121.42997647990242"/><polygon points="47.89714547117213 90.5638121378388 74.42433976361326 96.2423269030534 68.8978660682202 111.56453273488685 57.89613136250583 112.77053530416083"/><polygon points="95.16675288510186 95.16675288510186 119.39804657959331 93.93528675374 122.30283133875895 122.30283133875895 91.92077336700402 121.4125599663293"/><polygon points="132.0364478506599 89.36978118399321 157.25991779550287 98.74008220449711 163.67470207554322 121.00803540887655 135.3584841513908 120.6415158486092"/><polygon points="178.56441379497514 93.2310804616418 209.3851407624314 89.28152590423525 199.16384936176271 113.83051602842939 177.5731918513087 121.09347481535795"/><polygon points="227.4678100220258 99.4678100220258 246.62503049125158 94.70830284208174 249.19573059975332 121.19573059975332 220.50990726345123 120.82342606988209"/><polygon points="262.0907161435172 91.42404947685054 291.47129072921626 92.52870927078374 292.4696380488932 121.80297138222656 263.79835071119606 120.20164928880389"/><polygon points="314.90476327576596 101.57142994243264 337.40040162745527 89.26626503921133 325.1855589800677 111.85222564673441 308.9398277783478 117.72683888831881"/><polygon points="350.36720550754916 94.36720550754919 374.97431655288534 94.35901678044792 373.0744568569048 117.07445685690485 345.36313117455524 123.97020215877806"/><polygon points="390.0025757529892 91.33590908632252 417.97893674234945 94.02106325765054 412.8950419854015 114.22837531873486 390.2125761958936 121.78742380410638"/><polygon points="431.8545288337414 90.52119550040814 460.1212319372052 94.54543472946138 459.59753710330756 118.26420376997427 437.89556674020196 116.77109992646461"/><polygon points="474.64209703823866 90.64209703823867 506.47140489944013 90.86192843389313 497.51600447494457 113.5160044749446 484.076457088606 113.25687624472732"/><polygon points="5.744382568429778 133.74438256842978 36.226833274155666 134.43983339251102 32.458230361645874 160.4582303616459 15.084881703068348 155.58178496359832"/><polygon points="48.34667785485037 133.68001118818373 77.15158746210216 136.1817458712312 73.46569535941963 158.79902869275298 54.95222997521342 158.38110335811993"/><polygon points="89.6795299423672 132.34619660903388 123.13869611616036 132.86130388383964 117.3817092878535 160.04837595452017 101.94686303291738 154.05313696708262"/><polygon points="143.90966634719106 143.90966634719106 161.03706783311975 137.62959883354694 155.20549751227009 155.20549751227009 136.67027340910468 161.996393257562"/><polygon points="174.65234162323355 131.9856749565669 202.96716469507672 138.36616863825662 197.36807935241984 154.70141268575318 182.0676391142817 159.26569421905165"/><polygon points="224.4593470557807 139.1260137224474 248.5416309996355 135.4583690003645 247.46706097935666 162.13372764602335 222.73829988551398 161.26170011448602"/><polygon points="268.577882401575 140.57788240157498 282.78361980288616 143.88304686378052 287.05881728523855 159.0588172852386 263.52952351988813 163.13714314677853"/><polygon points="314.5385058597519 143.87183919308532 335.9336720024812 133.39966133085204 333.43093900833014 162.76427234166357 302.5927129791988 166.74062035413453"/><polygon points="354.6201105603111 141.28677722697782 370.1016069716834 141.89839302831658 375.88403697815426 162.55070364482097 357.1163424383419 154.88365756165805"/><polygon points="389.9383376663173 133.9383376663173 421.4202124191945 133.24645424747217 419.5793957658077 163.57939576580773 391.04027940762927 163.62638725903736"/><polygon points="441.0058393603594 142.33917269369283 456.30732236309933 141.02601097023395 465.089859889218 166.42319322255142 431.0892061151239 166.2441272182094"/><polygon points="476.1785705292887 134.84523719595543 498.2695429274382 141.7304570725618 505.9691753839388 164.63584205060556 473.6926385892615 166.30736141073845"/><polygon points="5.596437698453787 176.26310436512045 32.17143034886779 181.16190298446554 26.38708327607049 197.05374994273717 12.945901788510946 200.3874315448224"/><polygon points="51.80237307734343 179.80237307734345 80.54776478898378 175.45223521101622 73.34667065742678 201.34667065742678 56.023488041081805 199.9765119589182"/><polygon points="95.40604417239017 180.73937750572352 115.00256063794768 183.66410602871898 119.57144628365464 204.90477961698798 100.02534476306806 198.6413219035986"/><polygon points="137.25656331186298 179.92322997852963 162.30720723287172 179.02612610046162 166.20160528153912 208.86827194820577 134.51850706247103 206.8148262708623"/><polygon points="187.01702854758537 187.01702854758537 196.9083232572084 187.0916767427916 201.4251652602956 201.4251652602956 177.80281856104753 206.19718143895247"/><polygon points="226.75470291854302 184.08803625187636 242.22375545884384 184.44291120782282 240.94973755133978 198.28307088467312 224.5972830694941 202.06938359717256"/><polygon points="272.0053892934531 186.67205596011976 289.1666186227738 180.16671471055952 294.3093501813465 208.9760168480132 264.0013482017533 205.33198513158004"/><polygon points="310.82566690493627 182.82566690493633 327.3729853614209 184.62701463857906 326.41293066358116 198.41293066358122 311.53171341728324 200.46828658271673"/><polygon points="346.4510302324352 175.78436356576853 378.18983010758467 176.47683655908196 369.8801905045182 199.21352383785157 349.46229168746106 205.20437497920557"/><polygon points="398.2327236051555 184.8993902718222 422.33835706959087 174.99497626374242 417.8587640702479 204.5254307369146 397.8022538425265 199.53107949080683"/><polygon points="431.86419801909597 175.864198019096 455.9655953189494 184.03440468105055 460.37515131815155 204.3751513181516 437.8518392280974 202.14816077190255"/><polygon points="484.2478697151703 185.58120304850365 498.5513504617632 184.11531620490342 501.3356170917956 202.66895042512897 476.6541119190143 206.01255474765227"/><polygon points="14.215086989284856 227.54842032261817 33.306926535339464 222.69307346466053 26.49454792148922 239.82788125482256 4.975218134277796 251.0247818657222"/><polygon points="57.9923646373593 228.65903130402594 80.17800601502746 218.48866065163918 74.12091294761959 244.78757961428624 59.05560534502079 239.61106132164588"/><polygon points="98.05203182600061 226.05203182600061 113.31866916338491 228.0146641699484 116.48405585579408 244.48405585579408 95.71822317254808 245.61511016078524"/><polygon points="143.26776031454995 228.60109364788326 165.0604827823856 218.9395172176144 166.31190103695818 251.6452343702915 141.94821973800816 242.05178026199184"/><polygon points="175.98624867814752 218.65291534481418 197.60903275526007 229.05763391140658 209.29204403573863 251.9587107024053 186.0859895665288 240.58067710013785"/><polygon points="220.09024899904736 220.09024899904736 246.2495299198735 223.0838034134598 244.04408976676118 244.04408976676118 224.1462571788017 245.1870761545316"/><polygon points="260.1652245881851 217.49855792151843 287.6809024879205 224.31909751207948 289.3468175787568 246.68015091209014 262.86552776300016 249.1344722369998"/><polygon points="303.90032861136905 218.56699527803576 326.71824187081245 227.94842479585412 329.1607948539292 243.8274615205959 307.62116113002287 247.04550553664376"/><polygon points="353.09579941247387 225.09579941247392 367.7212060487288 229.61212728460453 377.8746754562555 249.8746754562555 353.885234397899 243.4480989354343"/><polygon points="392.682764111294 222.01609744462732 421.81430879484435 218.18569120515562 416.15140582843253 245.48473916176587 392.32602414145504 247.6739758585449"/><polygon points="436.4792049190786 223.14587158574528 457.908414014921 224.75825265174558 459.36194355817304 246.02861022483975 442.2056931851924 240.46097348147418"/><polygon points="485.27716081748054 229.2771608174806 496.9623410552048 228.37099227812854 500.8756116703615 244.87561167036154 481.1929224601999 244.1404108731334"/><polygon points="15.629550555456474 271.62955055545643 27.68527020677881 270.98139645988783 26.193718687144855 282.19371868714484 15.508629140504533 283.1580375261621"/><polygon points="56.95957006239556 270.29290339572884 70.869454972517 270.4638783608163 81.39332718537989 294.72666051871323 48.269583167347115 293.0637501659862"/><polygon points="92.13850988026905 262.80517654693574 117.6138366622347 266.38616333776525 112.53118787052536 283.19785453719203 90.75448943144092 293.24551056855904"/><polygon points="133.81117891535348 261.8111789153535 156.23208518728038 270.4345814793863 159.6443539207597 287.64435392075967 135.76014476149882 290.90652190516784"/><polygon points="182.25349948553028 267.58683281886357 208.55875420992686 260.77457912340645 202.00781374582036 287.3411470791537 182.1019685861763 287.23136474715704"/><polygon points="218.4408917831145 261.10755844978115 239.78239002466526 272.2176099753347 249.3300106245169 291.9966772911836 222.42942563163209 289.5705743683679"/><polygon points="264.49389564385115 264.49389564385115 294.1151733997805 260.55149326688615 288.5187282978973 288.5187282978973 269.7462014283916 284.920465238275"/><polygon points="304.41264295118617 261.74597628451954 331.58708243849156 265.7462508948417 337.0258141847309 294.3591475180643 312.922748948562 284.41058438477125"/><polygon points="353.3910113874073 268.0576780540739 378.5030155446013 261.49698445539866 367.7388734609923 282.405540127659 349.5972537812247 290.40274621877523"/><polygon points="392.82289759006403 264.82289759006403 412.3148946424471 270.35177202421954 416.7324302423328 288.7324302423328 397.982871672053 284.6837949946136"/><polygon points="437.93001132233064 267.263344655664 462.72216113318274 262.6111722001505 455.2794959996249 284.61282933295826 435.20658984124685 290.1267434920864"/><polygon points="484.720758360801 271.3874250274677 502.4108242966882 265.58917570331175 507.45863799773986 294.12530466440654 483.7687582660771 284.23124173392284"/><polygon points="11.02672229242513 309.69338895909175 30.189049265909496 311.14428406742377 36.92993506008018 335.59660172674677 11.855974673589799 329.47735865974346"/><polygon points="52.86458594592627 308.8645859459262 79.23407590744637 304.7659240925536 80.14305366222445 336.14305366222436 57.10940849299465 326.8905915070053"/><polygon points="93.02250861936514 306.3558419526984 121.38978410976904 305.2768825568976 121.86485330532855 335.1981866386618 98.1047186127827 328.5619480538839"/><polygon points="135.157745763739 305.82441243040563 166.59317064254637 302.7401626907869 154.79121483564958 325.4578815023162 132.12554526370675 337.20778806962653"/><polygon points="181.89012064776307 309.890120647763 203.02772192726542 308.9722780727345 202.96556452821062 330.96556452821056 184.77652263467866 327.2234773653213"/><polygon points="217.58479463785855 302.91812797119184 243.59750697149485 311.0691596951717 239.4707233119181 324.8040566452514 218.17990264043067 336.4867640262359"/><polygon points="261.2920888619706 303.95875552863725 286.99143017914076 310.3419031541925 291.24466780514837 333.911334471815 271.654471765556 325.67886156777723"/><polygon points="302.6477031367965 302.6477031367965 329.61458661490065 310.38541338509924 336.92814385225495 336.92814385225495 312.25610106710326 327.7438989328966"/><polygon points="353.61142595520784 310.94475928854115 373.2869838136634 309.37968285300315 374.37889141701305 331.71222475034637 357.9554988923038 324.7111677743627"/><polygon points="389.1084808098987 303.77514747656534 417.23572041448887 308.0976129188444 414.85987755305393 329.52654421972056 392.88252712944484 332.4508062038884"/><polygon points="433.8412167209638 305.8412167209638 464.1853724639256 303.8146275360743 455.75521347949143 327.75521347949143 432.13900288583443 335.86099711416546"/><polygon points="480.74366941923574 310.07700275256906 506.85186145131513 303.81480521535144 504.35557990228466 333.688913235618 477.3819728720665 333.28469379460006"/><polygon points="10.445265212813224 351.7785985461465 31.370458979039768 352.6295410209602 28.03354261764958 369.3668759509829 13.899710001633128 370.10028999836686"/><polygon points="51.03881276461675 349.7054794312834 76.74341450640796 349.9232521602587 76.63582693006602 375.30249359673263 58.41850568630128 368.24816098036536"/><polygon points="93.40244230803737 349.40244230803734 111.45688222021214 357.87645111312116 113.8276675543392 369.8276675543392 91.89887963469116 377.43445369864213"/><polygon points="139.84948691423187 353.18282024756513 164.17862340203334 347.8213765979666 165.35582691777267 378.689160251106 136.0108228764532 375.98917712354677"/><polygon points="176.32736432242683 346.99403098909346 198.6415348106184 356.02513185604823 203.20509861883463 373.8717652855013 186.73127652270975 367.93539014395685"/><polygon points="229.61743496116316 357.61743496116316 240.4822413714548 356.8510919618785 248.09210410949584 376.09210410949584 220.05033147995306 377.2830018533802"/><polygon points="270.1948807608271 355.52821409416043 283.5350329219521 356.46496707804783 290.2461239752042 375.57945730853754 266.3325037119663 373.6674962880337"/><polygon points="307.2662133605804 349.9328800272471 331.3618885674746 351.304778099192 337.46889157895396 380.13555824562064 310.1331938947384 372.5334727719282"/><polygon points="354.36432940305923 354.36432940305923 377.46991500254927 347.863418330784 369.80567062233814 369.80567062233814 352.1750308189445 373.15830251438877"/><polygon points="391.58003759516106 348.9133709284944 413.3187069615195 354.6812930384804 411.3680575518857 368.70139088521904 395.2285403201372 372.77145967986274"/><polygon points="438.8619123638775 353.52857903054417 465.2421443765381 345.4245222901285 465.3033909626029 379.9700576292696 438.953886027923 371.7127806387436"/><polygon points="480.2726499705884 352.2726499705884 496.9553830414697 356.37795029186356 500.40506078394213 372.40506078394213 476.65261684858604 376.6807164847472"/><polygon points="15.765816631524377 399.76581663152433 35.72717083299699 390.93949583366964 36.78942761711651 420.7894276171165 12.053907915469933 414.61275875119674"/><polygon points="50.94133132308947 392.2746646564228 78.41757229252488 390.91576104080843 79.27340796949055 420.6067413028239 59.11831359228464 410.21501974104865"/><polygon points="96.38905637136281 395.0557230380295 116.7978173867873 395.2021826132127 112.02143116684357 410.6880978335102 95.62868071456603 416.37131928543397"/><polygon points="136.0591530688711 392.05915306887107 155.7863788279916 398.8802878386751 161.22008101769302 417.22008101769296 134.01666401507185 420.65000265159483"/><polygon points="186.16410028711266 399.497433620446 197.69858974001704 399.6347435933163 201.17218824773042 414.50552158106376 181.3040662500292 416.02926708330415"/><polygon points="228.77004777299126 399.4367144396579 248.58619758014513 391.41380241985485 244.77708038304496 415.44374704971165 224.727627560508 415.27237243949196"/><polygon points="269.363351638275 397.363351638275 287.22378932739156 395.44287733927507 285.3485682028646 413.3485682028646 260.44532861711076 422.22133804955587"/><polygon points="313.5436836137054 398.8770169470388 333.903619906329 391.42971342700423 329.79199970659425 415.1253330399276 312.8024126125711 412.53092072076214"/><polygon points="357.60212618846924 400.2687928551359 372.05010072173775 395.9498992782622 367.578070024192 410.2447366908587 349.79350701389905 418.2064929861009"/><polygon points="391.6774602048579 391.6774602048579 420.4766083027118 390.19005836395485 415.89297234530227 415.89297234530227 397.5970593269711 413.06960733969555"/><polygon points="436.65461466645485 393.9879479997882 463.52542162174893 389.8079117115843 453.32815742519665 410.66149075853 431.3390683517932 421.9942649815401"/><polygon points="484.03354028817563 398.7002069548423 501.4537190074026 394.54628099259736 497.0369401467794 411.7036068134461 481.2584956503893 414.74150434961064"/><polygon points="9.203218811189942 435.86988547785654 34.306295321247546 435.0270380120857 27.215904874526515 453.8825715411931 4.3571168806190315 464.97621645271425"/><polygon points="55.40041716438395 439.4004171643839 74.9014659318444 437.0985340681555 70.18008593603376 454.1800859360337 51.71290909413602 460.2870909058639"/><polygon points="89.9382617997889 431.2715951331222 123.03519311204883 431.6314735546178 123.67377858794099 465.00711192127426 101.03450116354658 453.63216550312"/><polygon points="134.76342509608173 433.43009176274836 161.34459310382715 435.98874022950616 163.04127983966384 461.7079465063304 133.59311740112926 463.740215932204"/><polygon points="182.33731082210096 438.3373108221009 203.87674884291567 436.12325115708427 204.61495877256837 460.6149587725683 175.20369289681418 464.79630710318577"/><polygon points="228.46864057337024 441.8019739067035 250.343383510952 432.3232831557146 251.39209870510763 464.7254320384409 229.1596733119435 453.5069933547231"/><polygon points="269.8283318373375 440.4949985040041 291.6671267328262 433.66620660050705 291.0679191714237 461.7345858380903 267.59387637328564 457.7394569600476"/><polygon points="303.2038985185263 431.2038985185263 336.9221943937347 431.0778056062652 326.4608125013186 454.4608125013186 309.4052084878882 458.59479151211167"/><polygon points="353.1418266638247 438.475159997158 376.3014636876993 434.36520297896726 375.5517746640873 460.8851079974206 355.5726663274909 455.0940003391757"/><polygon points="392.86101588094016 435.5276825476068 421.6161858596216 431.71714747371163 419.3783844685889 462.0450511352555 395.69523186830054 457.6381014650327"/><polygon points="434.06395368487415 434.06395368487415 459.9033877908135 436.0966122091864 455.2414780202857 455.2414780202857 441.9093953600477 454.0906046399522"/><polygon points="477.74719723599196 435.0805305693253 496.2057789398244 442.46088772684215 501.46997437455167 458.803307707885 483.0925024537164 455.57416421295017"/><polygon points="10.12831976900916 479.46165310234244 38.13203514817819 473.8679648518218 28.0109384288129 497.3442717621462 14.002013426654159 497.9979865733458"/><polygon points="56.72325277503046 483.3899194416971 80.11082431152089 474.5558423551457 74.15777231254744 500.82443897921405 57.54208435245124 497.1245823142154"/><polygon points="95.97012408768481 479.9701240876848 119.16312923963491 478.1702040936984 121.44296688592122 505.4429668859212 97.38743389650631 499.94589943682695"/><polygon points="141.39676601673267 482.730099350066 165.09054113891526 474.9094588610847 162.48097453602452 503.8143078693578 144.28628379786784 495.71371620213216"/><polygon points="183.8444673886034 482.51113405527 200.47346034436495 482.19320632230165 207.03877057571663 505.70543724238325 180.76844640597702 501.89822026068964"/><polygon points="220.26958797880533 476.2695879788053 246.83876256266598 478.49457077066734 246.6195943849849 502.6195943849849 222.26126268571608 503.0720706476172"/><polygon points="264.68460208361375 478.01793541694707 294.0730716351477 473.9269283648522 291.3269105567481 504.6602438900814 261.76931278037375 506.2306872196262"/><polygon points="305.32634341785274 475.99301008451937 330.20417842688204 480.46248823978453 324.7041711362745 495.3708378029412 312.09465314642887 498.5720135202377"/><polygon points="348.3000842704879 476.3000842704879 379.7924714298486 473.54086190348465 377.02563258472276 505.02563258472276 351.4740280371529 501.85930529618037"/><polygon points="388.4798289466208 473.8131622799541 417.18699838074417 478.8130016192558 410.1381038814443 495.47143721477767 389.64519662547656 506.3548033745234"/><polygon points="437.54943450741837 480.21610117408505 465.17199440154866 473.4946722651179 460.41613349406066 503.08280016072734 438.79314729620626 499.8735193704603"/><polygon points="474.96651706492344 474.96651706492344 497.51540722301684 483.8179261103164 502.60693207613815 502.60693207613815 479.1988868662426 502.13444646709064"/>
</svg>
