<?xml version="1.0" encoding="UTF-8"?>
<svg xmlns="http://www.w3.org/2000/svg" id="RSSicon" viewBox="0 0 512 512" width="512" height="512">
  <defs>
    <style type="text/css">
      svg {
        background: black;
        margin: calc(50vh - 256px) auto 0;
      }
      
      polygon {stroke: darkorange; fill: none;}
    </style>
  </defs>
  <polygon points="10.849289831887056 10.849289831887056 34.16573564321889 8.500931023447778 38.08746092588548 38.08746092588548 6.7880551304629595 35.87861153620371"/><polygon points="55.79526614574965 13.128599479082983 78.50389589045496 6.829437442878371 74.35321332322324 31.68654665655658 48.06705128706542 37.26628204626792"/><polygon points="91.26740028758819 5.9340669542548685 122.46568528644985 5.534314713550133 122.34844883310708 37.01511549977377 97.43214471751376 30.567855282486228"/><polygon points="138.03204098436225 10.032040984362252 165.86332925870664 4.803337407960033 161.2069781023245 33.206978102324506 138.54661757591515 32.12004909075153"/><polygon points="181.71565317801208 11.048986511345397 203.0300649144432 10.303268418890148 200.10722849428865 29.44056182762198 179.70169743408266 33.63163589925067"/><polygon points="227.39555785608658 14.062224522753255 249.59585724310318 6.4041427568968015 250.44350240332847 37.11016906999514 223.9288563831721 32.0711436168279"/><polygon points="264.18342949144136 8.183429491441366 294.0911993312737 4.575467335392947 291.76673259090234 35.76673259090236 269.7541051638731 28.91256150279358"/><polygon points="308.43214053535013 9.765473868683507 328.7752209683924 12.55811236494091 330.6268350445702 31.9601683779036 307.88291376605105 33.450419567282246"/><polygon points="351.7843279042715 10.450994570938214 377.2848720750452 6.715127924954745 376.262711580445 34.92937824711169 352.0407191807229 31.959280819277097"/><polygon points="393.3959366924012 9.395936692401246 417.78151818299733 8.885148483669315 416.24416310724644 32.24416310724642 398.58990874376906 28.0767579228976"/><polygon points="433.5989204023659 6.932253735699252 461.6761921375646 7.657141195768668 455.43268922691027 28.766022560243638 434.001279935768 35.332053397565254"/><polygon points="474.3209325186358 4.987599185302489 503.55888754444493 8.441112455555004 506.0386310159766 36.70529768264328 473.39978970688105 38.60021029311892"/><polygon points="15.882213238453662 58.54887990512033 37.34970604440001 47.98362728893332 26.309250147473485 68.97591681414015 13.208190554120945 72.12514277921238"/><polygon points="56.918395437514505 56.918395437514505 75.97042986067397 52.029570139326026 75.36109949356899 75.36109949356899 59.1121520630407 68.8878479369593"/><polygon points="89.49468419886631 46.82801753219965 113.39716251141125 57.269504155255404 121.47933402662898 78.81266735996232 90.48045668988499 80.18620997678167"/><polygon points="140.5594038501523 55.22607051681898 154.36606897607084 58.967264357262515 156.59468941869522 71.26135608536187 138.1906809865734 75.14265234675995"/><polygon points="180.5200849351765 52.5200849351765 203.1782874458508 52.821712554149194 204.69496701324422 76.69496701324424 181.21696734798834 74.78303265201166"/><polygon points="222.64046697804062 51.97380031137395 251.74200090380063 46.92466576286602 240.14482577041457 69.4781591037479 226.7976363430091 71.86903032365757"/><polygon points="260.5623636523652 47.22903031903191 289.31361181717125 52.01972151616206 291.65798628824996 78.32465295491667 263.3649284230865 77.96840491024682"/><polygon points="314.12473241419843 58.12473241419849 332.5256090251198 51.474390974880095 334.7182559156803 78.71825591568036 305.5948066363758 78.40519336362418"/><polygon points="351.3626818494416 52.69601518277499 378.7051914127321 47.96147525393451 375.4277578422052 76.76109117553855 357.88061443168334 68.78605223498332"/><polygon points="395.46267642589515 54.129343092561825 421.74764528568585 47.58568804764745 414.1546098929859 72.82127655965257 392.60979202929514 76.72354130403818"/><polygon points="442.37850981082636 58.37850981082644 460.66643388521726 51.3335661147827 456.4549098360435 72.45490983604356 441.00319227400325 70.99680772599667"/><polygon points="484.7673374088408 58.10067074217413 507.7531347002211 46.91353196644555 499.11509894397176 72.44843227730514 484.85979624520763 69.806870421459"/><polygon points="14.978687918182377 100.3120212515157 29.12759903512745 98.87240096487254 32.70514354075299 118.03847687408631 8.559718777798972 119.44028122220102"/><polygon points="49.5413241016846 92.20799076835127 80.72800980403957 89.93865686262708 76.41501403150737 119.08168069817403 48.39681301201387 122.26985365465278"/><polygon points="99.86395464722051 99.86395464722051 122.75672405676005 90.57660927657327 114.60386525898708 114.60386525898708 94.33173293994558 119.00160039338773"/><polygon points="139.96192150513235 97.29525483846567 161.47502073014783 94.52497926985218 163.67871749827114 121.01205083160445 133.22367966602755 122.77632033397245"/><polygon points="174.7147051960527 89.38137186271936 197.70592495622387 100.96074171044279 202.64097371297268 117.30764037963934 175.03535686252505 123.6313098041416"/><polygon points="228.16979076972137 100.16979076972139 248.60424654016856 92.72908679316475 249.52915030225458 121.52915030225458 228.51607254199118 112.81726079134212"/><polygon points="266.4462962675343 95.77962960086766 284.57628112009536 99.4237188799046 287.28948342192336 116.62281675525671 260.19170298505486 123.80829701494511"/><polygon points="304.57536436305924 91.24203102972598 332.3066736519867 94.35999301467987 335.86921768373793 122.53588435040466 308.2124897416283 118.4541769250383"/><polygon points="353.0199135438706 97.01991354387063 374.95898296019675 94.37435037313655 379.7647425088351 123.76474250883514 348.806805247198 120.5265280861353"/><polygon points="389.06973990339566 90.40307323672897 414.5500874432076 97.44991255679241 415.35741135966185 116.69074469299521 392.67588609912326 119.32411390087672"/><polygon points="443.0480409627684 101.71470762943515 463.32006720219994 91.34659946446669 453.92226824833654 112.58893491500326 438.3140112000119 116.35265546665467"/><polygon points="473.39580723627375 89.3958072362738 497.4311161686772 99.90221716465608 496.6524984647205 112.65249846472052 475.09020511283705 122.24312822049623"/><polygon points="10.215872420987909 138.21587242098792 34.11299779816751 136.55366886849916 33.95731661100244 161.95731661100245 10.758372663689691 159.908294002977"/><polygon points="52.200519823632426 137.53385315696576 73.04635865466024 140.2869746786731 74.97441036399425 160.3077436973276 47.75370828774177 165.57962504559157"/><polygon points="100.17072294425623 142.8373896109229 116.34917332167112 139.65082667832888 112.83024895330573 155.4969156199724 91.92917636294477 164.07082363705524"/><polygon points="139.2645975611764 139.2645975611764 154.69393912843455 143.97272753823214 162.70258645795212 162.70258645795212 140.0304312317151 158.63623543495157"/><polygon points="175.78189388080887 133.1152272141422 201.29788640309488 140.03544693023846 209.19895047778164 166.532283811115 175.22324024103784 166.1100930922955"/><polygon points="218.002085631354 132.66875229802068 241.48351410834874 142.51648589165126 242.48879025655935 157.15545692322604 225.77573616884186 158.22426383115814"/><polygon points="262.8615443674167 134.8615443674167 293.0219552027512 133.64471146391546 294.4205950966796 166.42059509667965 267.11822226042335 159.5484444062433"/><polygon points="310.81299028844427 140.14632362177767 325.5393540757376 143.79397925759568 332.6970731263555 162.03040645968895 314.0769171279044 155.25641620542893"/><polygon points="346.39108178945486 133.0577484561216 375.251501444053 136.74849855594692 379.5979982870985 166.26466495376525 349.4825973210251 162.51740267897486"/><polygon points="389.38314615612046 133.38314615612046 419.3217105230667 135.34495614359994 411.5871849787598 155.58718497875986 387.8473374209583 166.8193292457084"/><polygon points="430.8241332517873 132.15746658512074 459.72710033503927 137.60623299829402 460.21878833717466 161.55212167050803 432.8688738756797 164.46445945765362"/><polygon points="478.1688840949424 136.83555076160914 496.42892448494854 143.5710755150514 507.29518128251374 165.96184794918042 479.65254853956657 160.34745146043343"/><polygon points="8.72990011853842 179.3965667852051 28.776761028871526 184.5565723044618 37.30654686055295 207.97321352721963 6.720015462666195 206.61331787066715"/><polygon points="51.639098086435396 179.63909808643538 75.6282894401904 180.3717105598096 75.10634996054188 203.10634996054188 52.50458458713549 203.4954154128645"/><polygon points="96.89505966834119 182.22839300167453 112.54256679914492 186.12409986752175 118.81619492032436 204.1495282536577 93.66571897929576 205.00094768737088"/><polygon points="133.54726938909886 176.21393605576552 165.82113316291816 175.5122001704152 158.40577796662106 201.07244463328772 143.2482051775647 198.08512815576864"/><polygon points="176.86526253516553 176.86526253516553 207.71213535268478 176.28786464731522 201.96694386439162 201.96694386439162 176.01696889543274 207.98303110456726"/><polygon points="226.6856993811309 184.01903271446423 248.47827711067552 178.18838955599114 245.65116751140746 202.9845008447408 217.72724378311386 208.9394228835528"/><polygon points="268.0978127626673 182.764479429334 287.8535371719399 181.47979616139344 283.02745284211716 197.69411950878387 264.6820455953779 204.65128773795544"/><polygon points="304.684984885461 176.68498488546106 332.1330670266383 179.86693297336166 326.65465292066 198.65465292066006 305.39830109609704 206.60169890390293"/><polygon points="350.0955478615747 179.42888119490806 373.27080196844315 181.39586469822348 370.08674539800705 199.42007873134042 348.9420681453347 205.7245985213319"/><polygon points="398.37703508724314 185.04370175390986 410.503753403873 186.82957992946027 415.9774011138684 202.64406778053504 399.45204618636984 197.8812871469635"/><polygon points="442.081678154011 186.08167815401103 464.655825516238 175.34417448376198 464.0056213642822 208.0056213642823 441.4731550657776 198.5268449342224"/><polygon points="477.98539945121354 179.3187327845469 502.72572442188505 179.94094224478158 505.85811533328365 207.19144866661702 484.2156636847646 198.45100298190204"/><polygon points="13.763570565362247 227.0969038986956 33.958254672724365 222.04174532727563 33.207881814187544 246.54121514752086 12.72190098174861 243.27809901825137"/><polygon points="49.640863135390006 220.30752980205665 71.82016544612901 226.84650122053765 78.14014464703568 248.80681131370233 57.54968938706109 241.11697727960558"/><polygon points="95.53480012832838 223.53480012832838 117.7197699930112 223.61356334032212 118.94669071439364 246.94669071439364 101.69279354993849 239.64053978339481"/><polygon points="141.70999105963824 227.04332439297156 161.36667777331323 222.63332222668677 163.84525098983005 249.17858432316336 144.1564575623252 239.8435424376748"/><polygon points="177.11661993765978 219.78328660432643 204.87390490121328 221.79276176545338 201.74484403293934 244.411510699606 179.01201885680928 247.65464780985738"/><polygon points="225.92485682741426 225.92485682741426 247.22596589268733 222.107367440646 249.19764959222599 249.19764959222599 228.28324472530846 241.05008860802485"/><polygon points="263.96812762032164 221.30146095365495 283.25095802030785 228.74904197969212 293.65163060241446 250.98496393574777 267.834644832038 244.16535516796193"/><polygon points="309.58878645192857 224.25545311859526 326.8320620027736 227.83460466389297 335.4518806376754 250.1185473043421 314.34247457039766 240.32419209626894"/><polygon points="350.2122365735445 222.21223657354452 373.97635596834846 223.3569773649848 376.7122470735217 248.71224707352175 351.19676515412465 246.13656817920867"/><polygon points="392.5160671676819 221.84940050101525 412.18137561787773 227.8186243821222 410.33670475236073 239.67003808569407 396.0169387163806 243.98306128361938"/><polygon points="432.2077141363427 218.87438080300944 465.44018925619366 217.2264774104729 464.3816325768874 251.0482992435541 436.4762732587908 246.1903934078758"/><polygon points="481.81012197508505 225.8101219750851 500.3739537788729 224.9593795544604 503.4156603794966 247.41566037949661 473.82204974513155 251.5112835882017"/><polygon points="4.932284058086715 260.9322840580867 36.434327776972566 262.23233888969406 27.59044862711979 283.59044862711977 5.892914276326705 292.77375239033995"/><polygon points="48.24010770427779 261.57344103761113 80.49563879140216 260.83769454193117 72.76623734890678 286.0995706822401 54.230131865106976 287.10320146822636"/><polygon points="90.55718371336269 261.2238503800294 113.72473950516115 270.27526049483885 123.86129728985712 294.52796395652376 90.34225538915669 293.6577446108433"/><polygon points="134.39410939186635 262.3941093918663 164.42490110265356 262.24176556401306 155.01941579010222 283.0194157901022 140.4870313123594 286.17963535430727"/><polygon points="182.0492598004859 267.3825931338192 202.86964598063875 266.4636873526946 200.01750984060382 285.35084317393716 178.3863960591708 290.9469372741625"/><polygon points="225.29563149311716 267.9622981597838 241.714140859827 270.28585914017293 243.888108454291 286.5547751209577 218.53613764399574 293.46386235600426"/><polygon points="272.53565927889224 272.53565927889224 290.24816364670255 264.4185030199641 291.9237544885689 291.9237544885689 262.259892353747 292.40677431291965"/><polygon points="312.51715213916424 269.8504854724976 326.9015789235283 270.43175440980497 329.10085174266743 286.4341850760008 313.77524971003646 283.5580836232968"/><polygon points="357.69234843634985 272.35901510301653 369.66671265786925 270.3332873421307 373.1863463927909 287.85301305945757 349.5573574589186 290.44264254108134"/><polygon points="396.3178983435033 268.3178983435033 410.2017047994988 272.4649618671678 417.1905748306377 289.1905748306377 390.3598635020047 292.3068031646619"/><polygon points="437.9282469258693 267.2615802592027 463.8781073132651 261.45522602006815 454.6667213574834 284.0000546908168 439.75189715147553 285.5814361818577"/><polygon points="476.52333812219126 263.19000478885795 497.1886939588614 270.81130604113855 503.7066464907753 290.373313157442 481.8484572155541 286.15154278444584"/><polygon points="12.121627376007705 310.7882940426743 35.68476570426753 305.6485676290657 26.86881227430773 325.5354789409743 14.879369280432982 326.4539640529003"/><polygon points="48.660734808595805 304.66073480859575 69.91931742595362 314.0806825740463 68.72923390736057 324.7292339073605 49.07017095407929 334.92982904592066"/><polygon points="89.71367570459216 303.0470090379255 113.7859781423657 312.8806885243009 122.02453257199559 335.3578659053289 90.59669755371894 336.06996911294766"/><polygon points="142.91758776729867 313.58425443396527 159.68604729806648 309.6472860352668 161.24722904823554 331.91389571490214 142.664135167213 326.6691981661203"/><polygon points="183.53851025326995 311.53851025326986 203.63194096712292 308.368059032877 204.48629956957168 332.48629956957166 177.1568957638116 334.8431042361883"/><polygon points="219.55751682682302 304.89085016015633 250.93705076421497 303.7296159024516 247.02454876998635 332.35788210331964 225.89697654519514 328.76969012147146"/><polygon points="265.9555726582583 308.6222393249249 282.3272614865123 315.00607184682093 291.6628349739684 334.32950164063504 266.51577554717994 330.8175577861533"/><polygon points="311.3041841881189 311.3041841881189 331.82376644523805 308.17623355476184 330.4525094786862 330.4525094786862 308.4196603598281 331.5803396401718"/><polygon points="353.9743133921807 311.307646725514 376.528892581187 306.1377740854796 371.78784366655856 329.1211769998919 355.84585870711174 326.8208079595548"/><polygon points="391.7008127546789 306.36747942134554 421.13126150723605 304.2020718260972 415.5027973510119 330.16946401767854 389.549594068747 335.78373926458625"/><polygon points="441.2771857750497 313.2771857750497 454.25794654492427 313.7420534550756 458.1579598818109 330.1579598818109 435.62309549915625 332.37690450084364"/><polygon points="484.43460513103133 313.76793846436465 495.65690477023384 315.00976189643274 501.7111785756894 331.04451190902273 475.4625687776755 335.2040978889911"/><polygon points="11.504055183313518 352.8373885166468 37.22294111046708 346.7770588895329 30.926712224464303 372.2600455577976 16.302392072844796 367.69760792715516"/><polygon points="52.38796865013006 351.0546353167967 73.15286524665247 353.51380142001415 70.2319942271771 368.8986608938437 52.17287640406164 374.493790262605"/><polygon points="98.09077738480737 354.0907773848073 123.26834682661696 346.0649865067163 121.28675078522195 377.2867507852219 92.50014365852891 376.8331896748044"/><polygon points="139.06236773699897 352.3957010703323 154.67548390791328 357.3245160920867 157.14582920882194 370.4791625421552 132.38382815648737 379.61617184351263"/><polygon points="181.45848132087224 352.12514798753887 208.34553427587014 346.3211323907965 205.33697376292528 376.00364042959194 177.04919362139734 377.6174730452693"/><polygon points="227.25663511788576 355.2566351178857 245.65199604178474 351.6813372915485 247.6776466813318 375.67764668133174 220.97309615723094 376.3602371761023"/><polygon points="261.5266198770724 346.8599532104057 284.0957390273085 355.9042609726914 290.4378076754651 375.7711410087984 262.8956026236216 377.10439737637836"/><polygon points="311.6956389318911 354.3623055985578 326.1772987746971 356.4893678919695 337.42852875032617 380.09519541699285 309.2961463325795 373.3705203340871"/><polygon points="356.9639757695949 356.9639757695949 378.6138124861551 346.71952084717816 370.8273365616434 370.8273365616434 357.4747879864679 367.85854534686536"/><polygon points="389.0834209137741 346.4167542471074 416.5341685370427 351.4658314629572 417.25475040554306 374.58808373887643 396.78433536704955 371.2156646329504"/><polygon points="433.65350487563927 348.32017154230596 457.5304212309307 353.1362454357359 461.7650055151989 376.43167218186557 435.5923992244204 375.0742674422462"/><polygon points="482.1742040090106 354.1742040090106 503.5458740927013 349.78745924063196 501.80082856544635 373.80082856544635 475.4202282626743 377.91310507065896"/><polygon points="11.264210784705375 395.26421078470537 32.32278448147558 394.3438821851911 36.03302175134556 420.03302175134553 9.583970913764261 417.0826957529024"/><polygon points="49.08059925637342 390.41393258970675 68.72230100628876 400.61103232704454 75.65592378527272 416.989257118606 52.19901129672647 417.1343220366069"/><polygon points="90.03172884009453 388.6983955067612 115.4950237980794 396.50497620192056 114.65521475020715 413.3218814168738 101.55205885776822 410.44794114223174"/><polygon points="143.6585694088378 399.65856940883776 156.40089488598227 398.2657717806844 165.36212484048968 421.3621248404896 136.51902307728002 418.14764358938663"/><polygon points="182.75088494601022 396.08421827934353 205.62218052642726 391.71115280690606 202.96215441145327 416.29548774478656 174.89833656083528 422.43499677249804"/><polygon points="229.93589051828448 400.60255718495114 246.9461700962385 393.0538299037615 243.71657310577606 414.3832397724427 219.67158458930723 420.32841541069274"/><polygon points="266.3719535943335 394.3719535943335 284.6571148638484 398.00955180281824 294.17686614419557 422.17686614419557 269.49355381091806 413.17311285574857"/><polygon points="309.7661581869535 395.09949152028685 325.53083829771373 399.80249503561953 330.49521480179203 415.8285481351254 305.48418035708244 419.8491529762508"/><polygon points="350.4035317695702 393.07019843623686 371.29850115433544 396.7014988456645 373.778765793746 416.4454324604127 352.87755747094474 415.1224425290552"/><polygon points="388.26338093513505 388.26338093513505 411.49736148901115 399.1693051776555 411.16841316504247 411.16841316504247 392.76350221732866 417.90316444933796"/><polygon points="442.6820808999559 400.0154142332893 456.4485317814991 396.88480155183413 463.1591835328704 420.49251686620374 436.7343352785202 416.5989980548131"/><polygon points="485.3169851107496 399.9836517774163 496.03579424284635 399.9642057571536 507.194217715534 421.8608843822007 477.3907569001924 418.60924309980754"/><polygon points="9.205426899659063 435.8720935663257 26.76002877953681 442.57330455379645 31.276993127876757 457.94365979454335 13.433972541634501 455.89936079169877"/><polygon points="56.132237211954816 440.13223721195476 80.59055100384047 431.4094489961595 76.07611570419576 460.0761157041957 50.29843486894514 461.7015651310548"/><polygon points="97.99853870143701 439.3318720347703 120.30952741659347 434.35713925007315 113.86676545877314 455.2000987921064 98.49955591012119 456.1671107565454"/><polygon points="137.7618673777959 436.42853404446254 154.8950243113668 442.4383090219665 156.86915724483495 455.53582391150155 138.98443153979025 458.34890179354306"/><polygon points="175.4426199707742 431.4426199707741 201.5507124687966 438.4492875312033 206.66258732043033 462.6625873204303 186.87413236013361 453.1258676398663"/><polygon points="229.8027113858092 443.1360447191425 251.51930171535844 431.14736495130813 244.6441714495916 457.9775047829249 219.39261695517567 463.27404971149093"/><polygon points="271.9769114432265 442.64357810989316 292.00950373248895 433.3238296008443 282.66441590763776 453.3310825743044 262.1404097517392 463.1929235815941"/><polygon points="305.1858260734609 433.1858260734609 333.3438608498511 434.65613915014876 336.5356696762121 464.5356696762121 310.32625264411683 457.67374735588305"/><polygon points="348.54068074132454 433.87401407465785 373.826261854389 436.8404048122776 378.96570348448245 464.2990368178158 350.680318851239 459.98634781542756"/><polygon points="392.51901938160944 435.18568604827607 414.1541879981732 439.17914533516006 417.49788004047406 460.1645467071407 398.0258963748409 455.30743695849236"/><polygon points="434.3669524975442 434.3669524975442 463.108992420183 432.8910075798169 464.03348302407625 464.03348302407625 438.71878304306284 457.28121695693704"/><polygon points="481.61828125505315 438.95161458838646 505.4255269956058 433.24113967106075 497.9930362975546 455.32636963088794 475.26208887016446 463.4045777965021"/><polygon points="13.64979789874802 482.9831312320813 37.170204874480234 474.82979512551975 38.254158531963505 507.5874918652968 9.18665108166881 502.81334891833114"/><polygon points="51.47521374123633 478.14188040790293 80.01033913395736 474.65632753270927 80.02242972445212 506.68909639111877 46.59192210753643 508.0747445591302"/><polygon points="92.80135202437467 476.80135202437464 123.90854843475071 473.4247848985826 113.67335356115323 497.6733535611532 92.29512123202183 505.03821210131144"/><polygon points="140.70988734420243 482.0432206775357 157.06001887258898 482.939981127411 160.05668229418202 501.3900156275153 132.51231031212632 507.4876896878736"/><polygon points="178.1362149451969 476.80288161186354 207.02666393664893 475.6400027300177 202.77267293490047 501.4393396015671 186.79968006578412 495.8669866008825"/><polygon points="229.78446547558917 485.7844654755892 244.84041899501108 480.4929143383222 243.87162293197224 499.87162293197224 228.50204859336068 496.8312847399726"/><polygon points="269.56095416328105 482.89428749661437 287.18434379183077 480.8156562081692 294.04962605858714 507.38295939192045 265.3659521117048 502.6340478882952"/><polygon points="304.75633143787036 475.42299810453704 328.74017945240143 481.92648721426514 329.4191097996375 500.0857764663042 306.68067997786915 503.9859866887974"/><polygon points="353.89537520525215 481.89537520525215 369.18374854953385 484.1495847837994 368.975736899667 496.975736899667 347.709356607804 505.62397672552925"/><polygon points="389.05852410607355 474.39185743940686 421.86947638098803 474.1305236190119 415.7555232893211 501.0888566226544 395.4178122530952 500.58218774690476"/><polygon points="436.47751692892007 479.14418359558675 455.5551052616794 483.1115614049872 458.16400721482665 500.83067388149334 438.4304760899167 500.2361905767499"/><polygon points="477.3296968194437 477.3296968194437 498.2307640898263 483.10256924350693 503.2541513558704 503.2541513558704 478.0162910465061 503.31704228682713"/>
</svg>
