<?xml version="1.0" encoding="UTF-8"?>
<svg xmlns="http://www.w3.org/2000/svg" id="RSSicon" viewBox="0 0 512 512" width="512" height="512">
  <defs>
    <style type="text/css">
      svg {
        background: black;
        margin: calc(50vh - 256px) auto 0;
      }
      
      polygon {stroke: darkorange; fill: none;}
    </style>
  </defs>
  <polygon points="5.932077792711246 5.932077792711246 34.501206300267675 8.165460366398989 33.07569308249181 33.07569308249181 14.957750524644034 27.70891614202263"/><polygon points="50.37277517982908 7.7061085131624125 76.89828971625838 8.435043617074957 76.14078589205229 33.47411922538562 54.676255253721976 30.65707807961136"/><polygon points="97.00935831398411 11.676024980650777 117.60406168008562 10.395938319914368 113.77884183749518 28.445508504161854 95.73906790942462 32.260932090575366"/><polygon points="133.45532810035468 5.455328100354658 160.81928620955068 9.847380457115987 154.22637271792973 26.22637271792974 142.26430622783653 28.402360438830144"/><polygon points="180.56564544665585 9.898978779989182 202.16195632809448 11.171377005238845 198.43720965600784 27.77054298934116 180.37405745964233 32.95927587369101"/><polygon points="220.42812140645142 7.094788073118089 240.72596707739697 15.274032922603006 249.66201937995666 36.328686046623325 222.73039468665584 33.26960531334415"/><polygon points="269.48838656275785 13.488386562757894 283.7170300625651 14.949636604101551 294.2575961030324 38.25759610303245 271.6586770979133 27.007989568753334"/><polygon points="302.96346282469574 4.296796158029114 331.6416616348863 9.691671698446994 330.67010037047777 32.00343370381116 305.2836393119109 36.049694021422354"/><polygon points="354.1046871727326 12.771353839399314 373.38204130501583 10.61795869498414 373.2049237930055 31.87159045967222 355.6662210049344 28.333778995065554"/><polygon points="399.19724903287704 15.197249032877085 419.7697222972089 6.896944369457749 418.0724453162608 34.072445316260826 388.3470593361283 38.31960733053832"/><polygon points="437.199133121829 10.532466455162398 462.79299195376774 6.5403413795655325 454.5666847563802 27.90001808971359 437.8394356682794 31.493897665053844"/><polygon points="474.64885111695475 5.3155177836214484 502.2325036998774 9.767496300122588 501.4179774031078 32.08464406977447 479.2222904465376 32.77770955346234"/><polygon points="6.96750969308331 49.63417635974998 28.9186168902757 56.41471644305763 35.7441352799803 78.41080194664697 15.142626189652738 70.1907071436806"/><polygon points="55.47527998699659 55.47527998699659 77.33815601259363 50.66184398740637 77.76382792061771 77.76382792061771 52.05816273454769 75.9418372654523"/><polygon points="101.23472528696772 58.56805862030106 118.13579971388153 52.53086695278513 118.89326173241164 76.22659506574499 94.83361015477766 75.833056511889"/><polygon points="142.92348659151986 57.59015325818653 157.98381066320985 55.349522670123505 159.04155319631877 73.70821986298542 143.33231080226892 70.00102253106444"/><polygon points="177.2184194171924 49.21841941719239 198.36052685780032 57.63947314219967 203.43688410046244 75.43688410046244 179.68259554550755 76.31740445449246"/><polygon points="220.76409009213413 50.09742342546747 243.14609836056565 55.52056830610101 242.21093199357486 71.5442653269082 224.55372865729564 74.11293800937102"/><polygon points="268.5086156764569 55.175282343123584 289.3278822960152 52.0054510373181 287.79193720922433 74.45860387589101 263.87282271550083 77.46051061783247"/><polygon points="306.82372529134057 50.82372529134062 335.74129148111103 48.258708518888895 326.5547229727315 70.55472297273157 305.7862011516846 78.21379884831535"/><polygon points="346.7461841576243 48.079517490957706 379.83161965103204 46.83504701563457 375.5090153975617 76.84234873089508 349.4235043186757 77.2431623479909"/><polygon points="398.949109247739 57.61577591440565 422.18631246321974 47.14702087011358 422.6649649763601 81.33163164302684 396.26059426074863 73.07273907258465"/><polygon points="432.2648294064237 48.26482940642376 452.8120948318362 59.187905168163724 453.557241433121 69.5572414331211 437.13513131606436 74.86486868393555"/><polygon points="476.5218107494803 49.85514408281371 507.4351361364811 47.23153053018551 502.44427086566003 75.77760419899343 475.50959786367775 79.15706880298889"/><polygon points="11.015166055043814 96.34849938837714 29.729185768822624 98.27081423117737 38.54068606180057 123.8740193951339 4.459573570399119 123.54042642960087"/><polygon points="56.45116405675448 99.11783072342114 69.61842769959267 101.04823896707398 70.85882863854086 113.52549530520751 53.93476523351829 116.73190143314837"/><polygon points="89.22655637812711 89.22655637812711 123.82172702692255 89.51160630641077 122.9271613724127 122.9271613724127 96.80857431058419 116.52475902274912"/><polygon points="142.79813805585854 100.13147138919187 165.97112570857948 90.02887429142052 162.04780072341475 119.38113405674807 142.91032711449154 113.08967288550845"/><polygon points="185.64089420674654 100.30756087341318 206.0371195321424 92.62954713452424 202.26448652622904 116.93115319289569 181.14104367674116 117.5256229899255"/><polygon points="225.04775889577442 97.04775889577444 249.46814487870546 91.86518845462786 251.1093793627194 123.10937936271941 223.7218679303487 117.61146540298462"/><polygon points="260.1027602739795 89.43609360731286 293.77405348755957 90.22594651244037 285.7505231338777 115.08385646721108 267.10785655928805 116.89214344071189"/><polygon points="307.6252812598595 94.2919479265262 331.6810385447988 94.98562812186779 333.9597772249126 120.62644389157933 311.2689219399512 115.39774472671539"/><polygon points="355.892596409921 99.89259640992103 367.81445470984386 101.51887862348946 371.91437543163784 115.91437543163786 345.9375367701975 123.39579656313579"/><polygon points="389.2965593153443 90.62989264867764 421.43458286835585 90.5654171316441 411.41163693392065 112.74497026725399 400.15643987781937 111.84356012218063"/><polygon points="435.0028829397058 93.66954960637248 464.84045455587403 89.82621211079257 457.95996578126346 116.62663244793015 434.10216968874295 120.56449697792365"/><polygon points="474.96240490838034 90.96240490838036 504.5316702658264 92.80166306750687 499.5480145585994 115.5480145585994 480.7542040761073 116.57912925722594"/><polygon points="10.555702426134872 138.55570242613487 35.877655178673834 134.78901148799284 34.16236020550856 162.16236020550858 15.55057518436223 155.11609148230445"/><polygon points="58.450112025119864 143.7834453584532 72.60123783161673 140.73209550171663 75.66987573795893 161.00320907129228 57.76625855974749 155.56707477358586"/><polygon points="93.71242148422542 136.3790881508921 117.25723328372251 138.7427667162775 120.84015049314684 163.50681715981352 96.41152050728338 159.58847949271663"/><polygon points="142.10550464577003 142.10550464577003 162.71901276466195 135.94765390200473 155.48540462574212 155.48540462574212 137.631018314058 161.0356483526087"/><polygon points="183.97161444049732 141.30494777383063 204.36077312656172 136.97256020677162 200.18085106073912 157.51418439407246 181.97529198433043 159.35804134900292"/><polygon points="228.4842964713518 143.15096313801848 251.1980365112325 132.8019634887675 246.26575024542421 160.9324169120909 218.55221439022262 165.44778560977738"/><polygon points="271.6998304942996 143.69983049429962 291.9670951169758 134.69957154969086 284.732972946198 156.73297294619803 264.64868463969606 162.01798202697057"/><polygon points="309.67050509318653 139.0038384265199 335.5058763867667 133.8274569465666 328.1490415383915 157.4823748717249 306.04412372679445 163.28920960653883"/><polygon points="353.7192597534994 140.38592642016607 376.8869688777277 135.11303112227225 379.4037196448767 166.07038631154342 353.13088768234024 158.86911231765973"/><polygon points="395.3927954520791 139.3927954520791 414.6478951962793 140.01877147038735 421.43139660827495 165.431396608275 390.2473936958099 164.41927297085678"/><polygon points="441.8539502755071 143.1872836088405 464.0478151362453 133.285518197088 455.8390716807787 157.17240501411214 431.79803661177203 165.53529672156125"/><polygon points="479.62913526053495 138.29580192720167 503.4247388072072 136.5752611927928 502.7462705949903 161.41293726165702 483.47558551256293 156.52441448743704"/><polygon points="8.735756171081322 179.402422837748 37.05182299403509 176.28151033929825 29.41055949621697 200.07722616288365 8.514337400904996 204.81899593242832"/><polygon points="54.43065271613626 182.43065271613625 80.02905741109967 175.97094258890033 77.42024705804103 205.420247058041 58.29324450840563 197.70675549159438"/><polygon points="90.40010126828861 175.73343460162195 120.28073250618023 178.3859341604864 112.64424270571376 197.9775760390471 101.29392865542458 197.37273801124206"/><polygon points="141.99703868339446 184.66370535006112 164.37124669509035 176.962086638243 166.53148234140542 209.19814900807208 131.98385408228316 209.34947925105018"/><polygon points="176.75757023739985 176.75757023739985 198.57113033145114 185.42886966854886 202.77503584488494 202.77503584488494 180.08544047364416 203.91455952635584"/><polygon points="228.71841704184408 186.05175037517742 245.54343955797526 181.1232271086914 247.51377007502563 204.84710340835898 220.37837727287575 206.28828939379088"/><polygon points="269.2273117881454 183.8939784548121 285.5402343878541 183.79309894547916 289.2874219385636 203.95408860523028 264.4053084530594 204.9280248802739"/><polygon points="311.16419931466413 183.1641993146642 334.602278323197 177.39772167680292 335.8642474803821 207.8642474803822 308.26338879740354 203.7366112025964"/><polygon points="355.41938530861194 184.75271864194534 373.62907159482006 181.03759507184654 374.81197732149786 204.14531065483123 354.1750489718923 200.49161769477436"/><polygon points="393.4908143423457 180.15748100901237 414.6223707387868 182.7109625945465 417.7677163364329 204.43438300309958 395.1347529844343 202.19858034889904"/><polygon points="432.73201127858704 176.73201127858712 460.5307801293664 179.46921987063354 458.7113191994989 202.711319199499 431.05617980471436 208.94382019528558"/><polygon points="483.19315643885744 184.5264897721908 505.3379327696096 177.32873389705702 500.10975079845787 201.44308413179124 474.4986209849889 208.1680456816777"/><polygon points="5.319474866915105 218.65280820024844 31.850211666230763 224.14978833376924 27.617580878849417 240.95091421218274 8.318648675871614 247.68135132412837"/><polygon points="51.428546028526476 222.09521269519314 80.00931821247364 218.657348454193 71.97117641716133 242.637843083828 50.741841176063545 247.9248254906031"/><polygon points="95.78146692906627 223.78146692906626 119.4921540011438 221.8411793321895 114.84446155445995 242.84446155445994 90.45479105553156 250.87854227780176"/><polygon points="138.6900658686878 224.02339920202112 159.3675479811738 224.6324520188262 156.0452109855686 241.3785443189019 131.93010202444174 252.06989797555826"/><polygon points="177.41852262843395 220.08518929510058 203.73883613366533 222.92783053300133 199.12571626001264 241.7923829266793 185.4855918462043 241.18107482046236"/><polygon points="218.79044180115355 218.79044180115355 245.2832720238355 224.0500613094978 242.2531542397454 242.2531542397454 229.37764811202945 239.95568522130387"/><polygon points="261.1301003597379 218.4634336930713 285.563079736513 226.436920263487 291.239365178669 248.57269851200238 270.9124703045584 241.08752969544156"/><polygon points="306.01424854985635 220.68091521652303 332.47430867985736 222.1923579868092 327.8492356078828 242.51590227454955 314.5070089672288 240.15965769943784"/><polygon points="350.73992478513765 222.73992478513767 369.28239185068395 228.0509414826493 378.93460375810145 250.9346037581015 350.2000829771979 247.13325035613536"/><polygon points="396.1116092669506 225.44494260028398 414.29131293858075 225.70868706141923 418.4695906357061 247.80292396903945 398.9438149089275 241.0561850910725"/><polygon points="442.07054366772167 228.73721033438835 463.78215152921825 218.88451513744837 454.25466428518087 240.92133095184758 431.40435469211127 251.26231197455536"/><polygon points="477.15167614436757 221.15167614436757 500.3976361527867 224.93569718054658 503.8603700178086 247.86037001780858 474.9933939360838 250.33993939724945"/><polygon points="7.249654555701877 263.24965455570185 37.997207376431184 260.66945929023547 29.330483025134804 285.3304830251348 14.593812375139699 284.07285429152694"/><polygon points="50.646063669200814 263.97939700253414 78.3849169909379 262.94841634239543 70.00613769036796 283.33947102370126 53.275305830581615 288.0580275027517"/><polygon points="101.75164235340449 272.41830902007115 119.49076304388525 264.5092369561147 118.55475427325746 289.2214209399241 90.57243949322972 293.42756050677025"/><polygon points="141.6179215361799 269.61792153617984 164.60640154001445 262.0602651266522 160.10276009256765 288.1027600925676 132.0604874900424 294.60617917662427"/><polygon points="186.3352333043136 271.6685666376469 200.13445679599658 269.19887653733673 200.27014464822827 285.6034779815616 185.8005507695596 283.5327825637737"/><polygon points="226.1975748637199 268.86424153038655 243.43067111109633 268.5693288889036 243.3632276807993 286.0298943474659 224.50771074008796 287.492289259912"/><polygon points="269.7634451005101 269.7634451005101 282.9370781615771 271.7295885050895 289.3832420623508 289.3832420623508 265.6642692417243 289.00239742494233"/><polygon points="303.08710501368216 260.42043834701553 329.78158422157685 267.5517491117564 336.307594924365 293.64092825769836 304.67224688433197 292.6610864490013"/><polygon points="354.8562511029978 269.5229177696645 370.99819829310906 269.0018017068909 369.26778093754854 283.9344476042152 351.37942628094424 288.6205737190557"/><polygon points="396.0237326432578 268.0237326432578 420.2602635824169 262.40640308424975 421.8742351550796 293.8742351550796 394.2243282695942 288.44233839707243"/><polygon points="442.31684809719945 271.6501814305328 464.1121206695804 261.22121266375285 458.22144551322356 287.5547788465569 440.8631764821678 284.4701568511655"/><polygon points="479.1565504414776 265.82321710814426 498.8760644462599 269.1239355537401 497.4090736424214 284.0757403090881 473.52325155778317 294.4767484422168"/><polygon points="13.579000053632118 312.24566672029874 35.68215528373904 305.65117804959425 27.513308941664803 326.1799756083314 10.386076001506947 330.94725733182634"/><polygon points="57.77793514031026 313.7779351403102 79.90654060066612 304.0934593993338 75.73598995789754 331.7359899578975 48.667433695495134 335.3325663045048"/><polygon points="99.01319480301447 312.34652813634773 114.25531377598776 312.4113528906788 116.26953884672477 329.60287218005806 91.78603388866685 334.8806327779997"/><polygon points="137.4353884506155 308.1020551172821 164.12075170607457 305.2125816272587 158.02579857301444 328.69246523968104 135.2225252874985 334.1108080458348"/><polygon points="179.80178172191407 307.801781721914 197.7178316901424 314.2821683098575 208.74043789813152 336.74043789813146 182.28597803216428 329.71402196783566"/><polygon points="218.35755652756038 303.69088986089366 246.09355871780656 308.57310794886 249.35023996119256 334.68357329452584 219.8626162553338 334.8040504113328"/><polygon points="261.2223411367201 303.88900780338673 291.99678676910463 305.3365465642286 290.7853375454756 333.45200421214224 265.92406687912637 331.4092664542069"/><polygon points="308.8874578949374 308.8874578949374 334.22689461426444 305.77310538573545 327.4763076324065 327.4763076324065 314.17990942907835 325.82009057092154"/><polygon points="347.2407711279854 304.5741044613187 377.79109445984267 304.8755722068239 375.56806828776394 332.9014016210973 353.2308541375325 329.43581252913407"/><polygon points="391.1670900278118 305.83375669447844 412.7747850037735 312.55854832955976 412.2758330091183 326.9424996757849 388.0226478580657 337.3106854752676"/><polygon points="436.7666835703274 308.7666835703274 458.99665822657465 309.00334177342523 462.4106320566359 334.4106320566359 440.40056623348215 327.59943376651773"/><polygon points="473.6453089532225 302.97864228655584 501.32556661053496 309.3411000561316 507.84450083993767 337.177834173271 476.80413438153033 333.86253228513624"/><polygon points="11.06236308233555 352.39569641566885 37.070383122300754 346.92961687769923 31.440919705462207 372.7742530387955 15.429536043188973 368.570463956811"/><polygon points="49.7770725616774 348.44373922834404 76.4315478045694 350.23511886209724 70.50657338516073 369.17324005182735 50.726673865117846 375.9399928015488"/><polygon points="92.76619493805721 348.7661949380572 123.09595424306114 346.23737909027216 120.74468766913658 376.74468766913657 95.83048944419158 373.5028438891417"/><polygon points="136.48197634300928 349.81530967634257 159.6365050197753 352.3634949802247 161.01990602636988 374.3532393597032 132.48788050116968 379.5121194988303"/><polygon points="187.19319547707173 357.8598621437384 198.69146846325827 355.97519820340835 199.18242036946253 369.84908703612916 179.1235784260992 375.54308824056744"/><polygon points="224.2818387509855 352.28183875098546 249.40128128695736 347.93205204637593 248.9321344379278 376.9321344379278 226.76647265094 370.5668606823933"/><polygon points="269.68176213461555 355.01509546794887 293.05144336065706 346.9485566393429 284.3713974831106 369.70473081644394 260.6832539121905 379.31674608780946"/><polygon points="309.90880340855074 352.5754700752175 337.38399262406983 345.28267404259674 331.78025061207256 374.44691727873925 303.69558024842377 378.9710864182428"/><polygon points="346.2369707851644 346.2369707851644 371.80779411829906 353.5255392150342 371.2262506050884 371.2262506050884 346.4843426427701 378.84899069056314"/><polygon points="391.2915211914447 348.624854524778 419.2963930763199 348.70360692368007 410.4912922805741 367.8246256139074 398.638285531101 369.3617144688989"/><polygon points="440.3624968853078 355.0291635519745 458.5440434863843 352.1226231802823 462.92810737049643 377.5947740371631 435.4731962916999 375.1934703749667"/><polygon points="481.4521815376016 353.4521815376016 506.5780971539544 346.75523617937887 504.68257843173893 376.68257843173893 474.9829928985367 378.3503404347966"/><polygon points="6.643517685437997 390.643517685438 31.811741184191575 394.8549254824751 28.276246433895615 412.2762464338956 7.790378515188857 418.8762881514778"/><polygon points="46.6755274799677 388.008860813301 79.7312644932973 389.602068840036 77.23248668620761 418.5658200195409 51.66804372224236 417.66528961109094"/><polygon points="100.2137339263867 398.88040059305337 123.37383254346642 388.62616745653355 112.73582314935152 411.40248981601815 99.39847451898636 412.6015254810136"/><polygon points="144.29517245459195 400.2951724545919 160.32577598481268 394.340890681854 155.81621187387412 411.81621187387407 133.31461130207282 421.3520553645938"/><polygon points="176.21855309326926 389.55188642660255 200.38709319573184 396.9462401376015 201.95595386221376 415.2892871955471 182.07391477250198 415.25941856083136"/><polygon points="219.17768691585258 389.8443535825192 247.11530874928124 392.88469125071873 245.18902407884028 415.85569074550693 223.80561241447603 416.19438758552394"/><polygon points="266.5852095577813 394.5852095577813 284.91607894786233 397.7505877188043 287.97207409435254 415.97207409435254 265.5313349088794 417.13533175778724"/><polygon points="311.479150943652 396.81248427698534 328.7689399842803 396.564393349053 328.50131263784397 413.83464597117734 312.79637890722785 412.5369544261054"/><polygon points="357.25952803717996 399.92619470384665 369.9201899103771 398.07981008962287 372.7813109083358 415.4479775750025 354.1194651212756 413.88053487872435"/><polygon points="395.61434040313503 395.61434040313503 411.3840354381424 399.2826312285242 416.23711438085587 416.23711438085587 396.97916140702694 413.6875052596397"/><polygon points="430.73208963017106 388.06542296350443 460.39591536053274 392.9374179728005 464.7520088153808 422.0853421487142 439.19360480116535 414.1397285321679"/><polygon points="479.42923370703744 394.0959003737041 498.69583766269136 397.3041623373085 505.4262598193993 420.092926486066 483.69369061756856 412.3063093824314"/><polygon points="7.858816689509583 434.5254833561762 36.041857233880606 433.29147609945267 27.73680349676866 454.40347016343526 9.310127148026234 460.02320618530706"/><polygon points="49.806559767697856 433.8065597676978 77.12814552246749 434.87185447753245 80.88350804108146 464.8835080410814 49.518854476950274 462.4811455230497"/><polygon points="95.22982485836329 436.5631581916966 120.60894407926904 434.05772258739756 118.50383497694841 459.8371683102817 96.64837550722447 458.01829115944213"/><polygon points="134.4300388200573 433.0967054867239 162.82656449061236 434.50676884272093 165.27275051726 463.9394171839266 138.66531704653968 458.6680162867936"/><polygon points="176.38375818246266 432.3837581824626 201.12617018563492 438.873829814365 205.89531427487086 461.89531427487077 180.42680458925622 459.5731954107437"/><polygon points="224.77947905830612 438.1128123916394 243.17521245366822 439.4914542129984 249.88512355553624 463.2184568888695 229.1212282893234 453.5454383773432"/><polygon points="270.79449080832705 441.4611574749937 282.1575217947926 443.17581153854064 294.3927656098376 465.05943227650425 261.2486804698878 464.08465286344546"/><polygon points="307.2186773050031 435.2186773050031 330.86540093609955 437.13459906390034 335.04648440222087 463.04648440222087 302.9561856131562 465.0438143868437"/><polygon points="352.9518239930115 438.2851573263448 367.95792876600933 442.70873790065724 374.498987549323 459.8323208826563 348.21048043538525 462.4561862312813"/><polygon points="395.14098247238076 437.8076491390474 412.1039898601543 441.229343473179 417.7737535641629 460.44042023082955 396.67961183839645 456.6537214949368"/><polygon points="430.93157796144766 430.93157796144766 458.27519191515245 437.72480808484744 464.47824613155854 464.47824613155854 431.5455041999076 464.4544958000923"/><polygon points="475.22581160820715 432.55914494154047 501.21374036341246 437.4529263032541 505.6117706806109 462.9451040139442 481.9195874374931 456.7470792291735"/><polygon points="6.480529875968083 475.81386320930136 33.40914658181323 478.5908534181867 30.708208140629637 500.0415414739629 12.300635991048345 499.6993640089516"/><polygon points="49.697075305673025 476.36374197233965 70.87301433305507 483.7936523336116 74.34209829750789 501.00876496417453 48.183251261512865 506.4834154051538"/><polygon points="91.73762260384211 475.73762260384206 114.39957089212842 482.93376244120486 118.36539930107918 502.36539930107915 99.70328997382329 497.63004335951"/><polygon points="133.30454122194774 474.63787455528103 161.95718472943346 478.0428152705665 156.0412026921261 497.37453602545935 136.68423040272694 503.315769597273"/><polygon points="180.71580789411692 479.3824745607835 203.97570417132178 478.6909624953449 202.68570301894428 501.35236968561094 177.00444321992822 505.6622234467384"/><polygon points="223.2887580832675 479.2887580832675 239.7211332685513 485.612200064782 244.50469740643675 500.5046974064367 224.54359387434215 500.78973945899116"/><polygon points="269.47772093499367 482.811054268327 286.85911936324266 481.1408806367573 288.7300294745294 502.0633628078627 259.9060490506626 508.09395094933734"/><polygon points="303.4611991687907 474.1278658354573 333.4673838387509 477.1992828279157 329.9441880793915 500.6108547460582 304.43773184980364 506.22893481686293"/><polygon points="349.52016850874617 477.52016850874617 378.02236823386687 475.3109650994664 369.94373307892903 497.94373307892903 350.331994995371 503.00133833796224"/><polygon points="391.87133542461237 477.2046687579457 414.25957436209046 481.7404256379095 418.6317590486673 503.9650923820006 394.0290098777986 501.97099012220133"/><polygon points="440.20387875374985 482.87054542041653 456.69356971472376 481.9730969519428 464.46656496590106 507.13323163256774 439.57092393019155 499.095742736475"/><polygon points="479.76595133448296 479.76595133448296 502.612167747025 478.72116558630825 505.35510981310904 505.35510981310904 483.66887246818885 497.6644608651444"/>
</svg>
