<?xml version="1.0" encoding="UTF-8"?>
<svg xmlns="http://www.w3.org/2000/svg" id="RSSicon" viewBox="0 0 512 512" width="512" height="512">
  <defs>
    <style type="text/css">
      svg {
        background: black;
        margin: calc(50vh - 256px) auto 0;
      }
      
      polygon {stroke: darkorange; fill: none;}
    </style>
  </defs>
  <polygon points="6.626455366966857 6.626455366966857 30.485282236794035 12.18138442987263 26.494386079720464 26.494386079720464 5.550279001346267 37.116387665320396"/><polygon points="49.38477629533669 6.718109628670023 70.15099481072791 15.182338522605418 74.12451118658808 31.457844519921416 58.29096781705281 27.04236551628052"/><polygon points="95.53761407888082 10.204280745547493 119.28525793555191 8.714742064448084 124.07301708494074 38.739683751607416 95.5145063030713 32.48549369692869"/><polygon points="137.2031776104874 9.203177610487376 155.6363898866978 15.030276779968865 166.02291354923815 38.02291354923814 142.10936799730877 28.557298669357913"/><polygon points="177.80662334935676 7.139956682690094 209.43566952467305 3.897663808660276 198.47467853072064 27.808011864053963 187.18553191414503 26.147801419188312"/><polygon points="220.8122041987045 7.4788708653711815 242.98891386599783 13.01108613400215 239.67527706316508 26.34194372983176 221.97950884404736 34.02049115595264"/><polygon points="261.03956292109217 5.039562921092163 294.6983685423096 3.9682981243570623 287.0731593476468 31.07315934764682 268.59472749828905 30.07193916837759"/><polygon points="308.1738454248582 9.507178758191579 333.5936925604335 7.739640772899762 332.48071531070354 33.81404864403693 302.7506976988377 38.582635634495546"/><polygon points="353.55953599708704 12.226202663753742 368.5696950257627 15.430304974237268 371.18196815031024 29.848634816976972 346.7130432502919 37.28695674970808"/><polygon points="397.8316159306086 13.831615930608645 412.65849181416297 14.008174852503661 418.89475404081804 34.89475404081804 399.576528678359 27.09013798830761"/><polygon points="441.4276299447859 14.760963278119295 462.5841581579354 6.749175175397863 464.6633193854818 37.99665271881523 443.2843168633966 26.049016469936667"/><polygon points="476.02766657914304 6.69433324580976 502.7534193925368 9.2465806074632 501.27662771335304 31.94329438001971 476.70508174238046 35.2949182576195"/><polygon points="8.03683321062461 50.70349987729128 36.061549581682954 49.27178375165038 36.05510854998779 78.72177521665446 15.544235709986195 69.78909762334713"/><polygon points="58.95567964656262 58.95567964656262 79.48033707293365 48.519662927066356 79.59360652958031 79.59360652958031 50.68270177418407 77.31729822581593"/><polygon points="97.3976555690902 54.73098890242354 115.58013189565946 55.08653477100719 115.03601457687918 72.36934791021253 89.61995933367564 81.04670733299102"/><polygon points="133.1028382196086 47.76950488627524 164.31181354749114 49.02151978584219 154.69383455884028 69.36050122550695 138.3302179787313 75.00311535460204"/><polygon points="176.0998710500556 48.099871050055604 200.93263050188705 55.06736949811294 199.7692756197969 71.76927561979689 186.69820201198002 69.30179798801998"/><polygon points="219.4210813110608 48.75441464439412 245.91995843453 52.74670823213664 245.32792320838638 74.66125654171974 221.77629301627468 76.89037365039198"/><polygon points="269.76025768041626 56.42692434708295 290.8310873911414 50.50224594219189 282.4980388948709 69.16470556153757 260.29649976941823 81.03683356391505"/><polygon points="307.3975321737032 51.39753217370329 333.93397483265255 50.06602516734742 333.3509986566594 77.35099865665944 309.6411402484564 74.35885975154356"/><polygon points="346.8382518343636 48.17158516769697 377.2408432244082 49.42582344225841 379.8270820383599 81.16041537169328 357.1367760615902 69.52989060507643"/><polygon points="393.5219924849988 52.188659151665476 422.78166297830256 46.55167035503074 411.109298188398 69.77596485506467 390.78349642024034 78.54983691309297"/><polygon points="438.8233498090045 54.823349809004604 464.2363257007317 47.76367429926824 464.34521678347073 80.34521678347079 442.8297485989665 69.17025140103345"/><polygon points="481.77658391176647 55.10991724509982 501.12722284104996 53.53944382561667 505.42038499777914 78.75371833111254 477.51203561069514 77.1546310559715"/><polygon points="13.48404240208065 98.81737573541398 27.905500745609526 100.09449925439046 30.141129380729787 115.47446271406311 15.238481107542388 112.7615188924576"/><polygon points="58.93298764145576 101.59965430812241 79.47481496219473 91.19185170447193 69.27102171342483 111.93768838009149 48.9326278550895 121.73403881157715"/><polygon points="101.67131953683577 101.67131953683577 122.02320512412668 91.31012820920664 114.3234001258093 114.3234001258093 90.15671344644677 123.17661988688654"/><polygon points="144.54852380530673 101.88185713864003 157.92827744365917 98.07172255634082 155.89809674597927 113.2314300793126 141.69058697701203 114.30941302298798"/><polygon points="180.87657843841703 95.54324510508368 208.2107197474362 90.45594691923047 207.19655859327545 121.86322525994211 186.4719145542154 112.19475211245127"/><polygon points="222.16519830941843 94.16519830941841 251.65580455689087 89.67752877644246 244.04281433831625 116.04281433831625 228.88741453752206 112.44591879581124"/><polygon points="271.6720596977112 101.0053930310445 284.99507828929336 99.00492171070663 284.3793602185933 113.71269355192668 260.7056736333002 123.2943263666998"/><polygon points="304.2952254502119 90.96189211687859 333.95769573924355 92.70897092742302 327.86028485942694 114.52695152609363 308.5190079640888 118.1476587025778"/><polygon points="349.7063180802945 93.70631808029455 368.9533368521332 100.37999648120008 374.23626373201716 118.23626373201722 346.9736761932679 122.35965714006534"/><polygon points="390.75540284284153 92.08873617617489 417.3267132793426 94.6732867206574 418.83352992437665 120.16686325771002 394.9317658803716 117.06823411962839"/><polygon points="440.61989608620996 99.28656275287668 458.4281328444212 96.2385338222454 464.21540613431114 122.88207280097784 432.6996945392392 121.96697212742743"/><polygon points="475.6204143427169 91.62041434271691 505.0820532975544 92.25128003577886 497.12084927491776 113.12084927491779 475.57054983643815 121.76278349689515"/><polygon points="13.68504427833217 141.68504427833219 29.89920336399932 140.76746330266735 32.22221575843779 160.2222157584378 7.335299455468274 163.3313672111984"/><polygon points="49.65835275675556 134.9916860900889 71.92327142593359 141.41006190739975 80.5597463378986 165.89307967123193 57.66063463637471 155.67269869695863"/><polygon points="92.63151896190571 135.2981856285724 114.78556895462597 141.21443104537403 111.76176843622588 154.42843510289256 100.20087935781402 155.79912064218598"/><polygon points="139.07961751277622 139.07961751277622 160.18447034145504 138.48219632521165 154.94299818588308 154.94299818588308 144.31160730424804 154.35505936241864"/><polygon points="178.5601781302191 135.89351146355244 199.4630471112861 141.87028622204724 207.32994573192565 164.663279065259 186.89393943218286 154.43939390115048"/><polygon points="226.23450644907456 140.90117311574124 248.76122984949342 135.23877015050658 244.27731350776668 158.94398017443336 224.29809272205466 159.70190727794534"/><polygon points="264.43707837199355 136.4370783719936 283.57380227901064 143.09286438765605 292.52454633300925 164.52454633300928 270.7659950012215 155.90067166544517"/><polygon points="307.70366461612656 137.03699794945996 336.01242417104726 133.32090916228603 329.6528656500626 158.986198983396 304.17264815014676 165.1606851831865"/><polygon points="356.82920847079697 143.49587513746368 369.2377647838349 142.76223521616507 369.78086030852756 156.4475269751943 351.0364824079775 160.96351759202247"/><polygon points="389.2037918565571 133.20379185655707 413.56756656823757 141.09910009842912 420.2332163963022 164.23321639630225 389.92805639265305 164.7386102740136"/><polygon points="440.811842185816 142.14517551914938 459.9749304139989 137.35840291933442 453.41527499176686 154.74860832510024 433.60924758569166 163.72408574764165"/><polygon points="475.07453559191435 133.74120225858104 501.42991635223143 138.5700836477685 502.846453563879 161.51312023054572 485.80053679980614 154.19946320019386"/><polygon points="14.45680642721079 185.12347309387746 26.745154445065126 186.5881788882682 28.219485965015526 198.8861526316822 14.535109465053564 198.79822386827976"/><polygon points="54.44747114265182 182.44747114265184 72.33969566100953 183.66030433899047 70.61490935448155 198.61490935448157 47.94104845086629 208.05895154913372"/><polygon points="91.63012647477207 176.96345980810543 117.40810689325889 181.25855977340777 113.31078974475969 198.64412307809303 99.08153279775988 199.58513386890678"/><polygon points="142.50354186291185 185.1702085295785 155.603802974024 185.72953035930934 159.23449803210357 201.90116469877023 132.58525981707064 208.7480735162627"/><polygon points="184.4315054915917 184.4315054915917 198.39245429231056 185.60754570768944 205.49365782386093 205.49365782386093 182.91409193830725 201.08590806169275"/><polygon points="224.18197960667618 181.51531294000952 246.6084782513791 180.05818841528756 247.73357828810995 205.0669116214433 217.57604062131196 209.0906260453547"/><polygon points="263.6153221216398 178.28198878830648 292.4915402830753 176.84179305025796 282.5884455819213 197.25511224858798 270.16660840135586 199.16672493197748"/><polygon points="307.20468516832585 179.20468516832588 329.49612103930787 182.5038789606921 327.3052763292583 199.30527632925833 307.65565988930496 204.34434011069501"/><polygon points="346.06385264813116 175.39718598146453 377.0383900656924 177.6282766009742 369.4849481550994 198.81828148843277 346.2379420898874 208.42872457677927"/><polygon points="397.58208375284363 184.24875041951032 412.6641298735132 184.6692034598201 419.6570771057453 206.32374377241197 394.8912168475016 202.44211648583172"/><polygon points="437.5223347619911 181.52233476199115 465.19106278161746 174.80893721838248 453.5432320211916 197.5432320211917 443.027304294427 196.97269570557296"/><polygon points="477.1253144629005 178.4586477962339 504.7420481227654 177.9246185439012 502.84852786171587 204.18186119504924 481.6625553333505 201.00411133331616"/><polygon points="9.760063338165828 223.09339667149916 31.106242361610853 224.89375763838913 28.50336323853612 241.83669657186945 16.40487531260951 239.59512468739047"/><polygon points="55.23348186470628 225.90014853137293 70.31341460092293 228.35325206574373 79.00151318406395 249.6681798507306 55.38279028450118 243.2838763821655"/><polygon points="89.92209059237436 217.92209059237436 122.61268916157006 218.72064417176327 116.07019546300958 244.07019546300958 98.11647776097959 243.21685557235372"/><polygon points="132.5597908249327 217.893124158266 162.01162476128272 221.98837523871728 160.72296476386688 246.0562980972002 137.05395942029799 246.94604057970201"/><polygon points="179.3802604928229 222.04692715948957 203.53726873877918 223.12939792788745 202.031983063023 244.69864972968966 177.00021346240888 249.66645320425778"/><polygon points="219.66573992356146 219.66573992356146 247.4725314848443 221.86080184848902 246.15741351353572 246.15741351353572 220.58480394640904 248.74852938692428"/><polygon points="268.0959533665395 225.42928669987282 282.0805223732096 229.91947762679038 285.1973307184901 242.5306640518234 261.56171800186297 250.438281998137"/><polygon points="310.74831442379775 225.41498109046447 335.5431340050801 219.12353266158647 331.0422896153714 245.70895628203812 305.0788553626893 249.58781130397728"/><polygon points="350.2079201847616 222.2079201847616 368.3178022295456 229.0155311037877 372.99085933301217 244.99085933301217 351.02350894488825 246.309824388445"/><polygon points="389.9413775849153 219.27471091824867 410.0849374916842 229.91506250831583 418.3760539439129 247.70938727724624 393.7294696361562 246.2705303638438"/><polygon points="442.36447727084 229.03114393750667 459.47876900601483 223.18789766065177 463.41962005408993 250.08628672075665 436.3707309100052 246.2959357566614"/><polygon points="477.9641246772686 221.96412467726864 497.15588476089147 228.17744857244182 503.1520564179045 247.1520564179045 483.87177759114803 241.46155574218525"/><polygon points="11.325406711085282 267.3254067110853 29.19268304937619 269.47398361729046 37.51846612139806 293.51846612139803 10.245437246703544 288.4212294199631"/><polygon points="50.899159043956914 264.2324923772902 74.27967781664543 267.0536555166879 77.93762425439647 291.27095758772975 49.360423275003534 291.9729100583298"/><polygon points="93.57574902619501 264.2424156928617 111.46337888631274 272.53662111368726 123.76145319639261 294.42811986305924 99.74278243299493 284.25721756700506"/><polygon points="142.86816319491862 270.86816319491857 158.58040405001444 268.0862626166522 165.61676924204846 293.6167692420484 134.92950882601556 291.7371578406511"/><polygon points="178.33711468251758 263.67044801585087 202.74981989487006 266.5835134384632 199.84194319054012 285.17527652387344 182.8166976152862 286.51663571804716"/><polygon points="219.76839151714236 262.435058183809 245.4263191588172 266.57368084118275 243.05759824707087 285.7242649137375 221.18294084250977 290.8170591574902"/><polygon points="259.878151401243 259.878151401243 286.73316547328864 267.933501193378 290.0489130576988 290.0489130576988 267.6184445394569 287.0482221272097"/><polygon points="304.92851565780774 262.2618489911411 325.0296579135291 272.30367541980416 333.18051500038285 290.5138483337162 311.7737017117872 285.55963162154603"/><polygon points="348.386319607876 263.05298627454266 369.9388372667182 270.0611627332817 374.08747656486014 288.7541432315268 348.8061732855435 291.19382671445646"/><polygon points="392.25110292607206 264.25110292607206 416.8925397755107 265.7741268911559 421.22363618412805 293.22363618412805 394.04111109401674 288.6255555726499"/><polygon points="438.25366644886765 267.586999782201 453.6937681311341 271.63956520219915 456.5246813572197 285.8580146905531 440.7386072461069 284.5947260872264"/><polygon points="482.1143623883505 268.7810290550172 501.178988097101 266.82101190289893 506.2385947851528 292.9052614518195 481.9712932453086 286.02870675469137"/><polygon points="11.890889829473155 310.55755649613974 27.561282852396776 313.7720504809365 37.46045060853586 336.12711727520247 11.372495765291289 329.960837568042"/><polygon points="58.974437747917314 314.97443774791725 71.26242263047082 312.7375773695291 69.25221279768176 325.2522127976817 59.12712224250413 324.8728777574958"/><polygon points="98.6300635416991 311.9633968750324 114.46261611509 312.2040505515766 120.42148191639454 333.7548152497278 94.32932381567068 332.3373428509959"/><polygon points="137.34334818239063 308.01001484905726 162.9435638404754 306.38976949285785 158.84087453012432 329.50754119679095 138.36499590147474 330.9683374318585"/><polygon points="177.43857913308042 305.4385791330804 208.43147011432876 303.5685298856712 199.79546966860485 327.7954696686048 183.87936935906666 328.12063064093326"/><polygon points="221.613122356088 306.94645568942127 246.11213988248738 308.5545267841792 245.6837600223865 331.0170933557198 221.3367773410798 333.3298893255868"/><polygon points="263.3075118899741 305.9741785566407 285.4840127437652 311.84932058956804 283.41601586674864 326.08268253341527 270.53423453246114 326.7990988008721"/><polygon points="303.92294348834093 303.92294348834093 329.8742822475305 310.12571775246937 336.24578753814535 336.24578753814535 311.6865498072633 328.3134501927366"/><polygon points="356.44807745107136 313.78141078440467 372.03582862013127 310.6308380465353 377.40838645427783 334.74171978761115 346.08195993368554 336.58470673298103"/><polygon points="394.73626262655125 309.4029292932179 415.7868120981277 309.54652123520555 413.6965416940242 328.3632083606908 392.45033691397776 332.8829964193555"/><polygon points="441.61518901339946 313.61518901339946 462.95464361956886 305.04535638043103 457.41943047136175 329.41943047136175 437.0771477504968 330.9228522495031"/><polygon points="475.3904888749404 304.7238222082737 496.972876221507 313.69379044515955 500.09236492453215 329.42569825786546 479.2434246256588 331.42324204100777"/><polygon points="10.261637489325087 351.5949708226584 33.43902998853984 350.56097001146014 30.842016316318556 372.1753496496519 15.37452769968224 368.6254723003177"/><polygon points="47.756880861930185 346.4235475285968 71.22470510006238 355.4419615666043 72.91675481258211 371.5834214792487 56.846306950942726 369.8203597157239"/><polygon points="95.67323093696963 351.6732309369696 112.93400255387907 356.3993307794542 122.80533618433171 378.8053361843317 101.02224552120643 368.31108781212686"/><polygon points="142.3218178552928 355.6551511886261 155.57114777563646 356.4288522243635 161.25736220124793 374.59069553458124 136.00649454335309 375.99350545664686"/><polygon points="180.34157615651137 351.00824282317797 199.1515228613776 355.51514380528903 203.66273670174624 374.32940336841284 174.71105470316664 379.9556119635"/><polygon points="229.61133005628645 357.6113300562864 247.08120575141314 350.25212758192015 241.86553998532614 369.8655399853261 219.26584051486464 378.0674928184686"/><polygon points="260.8980260340914 346.2313593674247 294.4275482727314 345.5724517272686 287.90038554629626 373.2337188796296 269.07220704703883 370.9277929529611"/><polygon points="305.36936509880513 348.0360317654718 327.9423975947667 354.72426907189987 325.2149894422468 367.8816561089135 311.41630865162557 371.250358015041"/><polygon points="352.00316855284296 352.00316855284296 370.5476236284416 354.78570970489164 371.4484492480054 371.4484492480054 352.8452342223409 372.4880991109924"/><polygon points="394.48707748727094 351.82041082060425 419.3490950359082 348.65090496409175 419.82043194101675 377.15376527435006 392.32784809306287 375.6721519069371"/><polygon points="435.51031200210093 350.17697866876756 464.55148429818706 346.1151823684795 453.41689362328947 368.08356028995615 436.43445991837 374.23220674829656"/><polygon points="473.22271463687645 345.22271463687645 504.88757382987893 348.4457595034543 502.9166083353 374.9166083353 476.53801139973854 376.7953219335947"/><polygon points="7.789001153930629 391.7890011539306 26.24261673774283 400.4240499289238 28.684496717183972 412.68449671718395 3.909264507923048 422.7574021587436"/><polygon points="50.13833706472302 391.47167039805635 78.25456374829639 391.0787695850369 77.04546298005619 418.3787963133895 56.09676471389638 413.2365686194369"/><polygon points="94.40735823702553 393.0740249036922 115.46997393913591 396.53002606086403 114.03870423054781 412.70537089721444 90.36609188269958 421.6339081173004"/><polygon points="137.71732186458098 393.717321864581 164.43938287693106 390.2272837897356 165.6066986199743 421.6066986199743 133.99375535963048 420.67291130703614"/><polygon points="181.72988083411087 395.0632141674442 203.78445914774454 393.5488741855888 207.18678304228547 420.5201163756188 178.70894332585024 418.6243900074831"/><polygon points="223.01296354897062 393.67963021563725 249.6175606221309 390.38243937786905 246.84212406467577 417.50879073134246 226.68799077583603 413.31200922416394"/><polygon points="263.56539767369003 391.56539767369003 286.6458418663498 396.0208248003168 288.53793134340737 416.53793134340737 272.59142842151095 410.0752382451557"/><polygon points="309.13169722153054 394.4650305548639 334.4010599646653 390.93227336866795 329.226571386333 414.55990471966635 312.6999395631589 412.63339377017434"/><polygon points="353.8030403005932 396.46970696725987 377.9194599989661 390.08054000103385 371.92440560291595 414.59107226958264 347.3569417927812 420.64305820721876"/><polygon points="391.949725744548 391.949725744548 414.9261266508398 395.7405400158268 420.2731647797337 420.2731647797337 392.9547976597941 417.7118690068725"/><polygon points="432.37106857981496 389.70440191314833 462.27217089833954 391.0611624349937 453.2809881080885 410.61432144142185 434.449334785955 418.88399854737827"/><polygon points="484.2202211488221 398.88688781548876 497.8291568570263 398.1708431429736 507.423313121578 422.0899797882447 485.47737265784946 410.5226273421505"/><polygon points="13.569350627801837 440.23601729446847 27.347345657258693 441.98598767607456 36.727019055322664 463.3936857219893 5.445804326897159 463.8875290064361"/><polygon points="53.19889314949425 437.1988931494942 79.33980464989216 432.6601953501078 78.8996632686129 462.89966326861287 55.917409837516274 456.08259016248365"/><polygon points="90.09642692419368 431.429760257527 122.4852799078827 432.1813867587839 120.0021716682466 461.3355050015799 89.72661927347451 464.94004739319206"/><polygon points="140.82324877961585 439.48991544628245 163.98538935096894 433.34794398236437 156.1850355422172 454.8517022088838 136.0349977867397 461.2983355465936"/><polygon points="179.12097156372155 435.12097156372147 209.09378799563217 430.9062120043678 202.5307176469537 458.53071764695363 177.2452999802715 462.75470001972843"/><polygon points="222.79534231241337 436.1286756457466 250.40767242822167 432.2589942384449 244.11578010321958 457.44911343655286 220.76714706284355 461.899519603823"/><polygon points="259.94247328912206 430.6091399557887 290.3394365784244 434.99389675490886 283.17927012263647 453.8459367893031 260.34487632162535 464.9884570117079"/><polygon points="306.37235374924614 434.37235374924614 325.2716357933208 442.7283642066791 337.05246465804015 465.05246465804015 306.677540212255 461.3224597877449"/><polygon points="350.09492181281104 435.42825514614435 378.8354514010157 431.8312152656509 367.98274391892045 453.31607725225376 354.24870009541957 456.417966571247"/><polygon points="389.2735912384487 431.94025790511535 413.2319857445945 440.10134758873875 411.8347195367 454.5013862033666 393.59575575342615 459.7375775799071"/><polygon points="440.73255074844917 440.73255074844917 455.8757819126928 440.1242180873071 453.9430145446663 453.9430145446663 431.3736057706153 464.6263942293846"/><polygon points="483.0431487019596 440.3764820352929 505.9323038152229 432.7343628514437 495.6787285406324 453.0120618739657 475.4333079567738 463.2333587098928"/><polygon points="7.44338533227792 476.7767186656112 30.707164746582954 481.292835253417 35.91998207540055 505.25331540873384 4.483660858975554 507.5163391410244"/><polygon points="53.2209835158186 479.88765018248523 73.33631556764027 481.33035109902636 69.11591508407425 495.78258175074086 50.49250362016998 504.17416304649663"/><polygon points="91.76699719206758 475.76699719206755 119.51529613168478 477.8180372016485 115.92296417995422 499.9229641799542 95.07975660687359 502.2535767264597"/><polygon points="134.37673687058057 475.71007020391386 164.2807461607381 475.71925383926185 155.02130942325724 496.3546427565905 137.03258838393901 502.967411616061"/><polygon points="181.4682953956479 480.13496206231457 207.62219413149035 475.0444725351763 205.0937423066452 503.7604089733118 176.28309689852838 506.3835697681383"/><polygon points="229.6693333226436 485.6693333226436 240.6552480527355 484.67808528059777 242.21618309333138 498.2161830933313 223.35601210060983 501.97732123272345"/><polygon points="267.91199113498806 481.24532446832137 286.2148434480906 481.7851565519094 294.3805835641076 507.7139168974409 266.0719242027671 501.92807579723285"/><polygon points="312.27976651378117 482.94643318044785 324.86905772252453 485.79760894414204 330.3213855651352 500.9880522318019 306.58676025660907 504.07990641005756"/><polygon points="349.53003428886063 477.53003428886063 375.6053531403194 477.7279801930139 367.90962925192895 495.90962925192895 354.70792815915956 498.6254051741737"/><polygon points="389.4800854795673 474.81341881290064 420.41703580597306 475.5829641940269 413.0012976633075 498.33463099664084 395.9964504120921 500.00354958790786"/><polygon points="434.34578893467926 477.01245560134595 454.1135557323146 484.553110934352 459.1160778926922 501.7827445593589 432.1518516524125 506.51481501425405"/><polygon points="478.03070675146216 478.03070675146216 499.4761866400471 481.85714669328615 505.557952315147 505.557952315147 480.0570614563145 501.27627187701876"/>
</svg>
