<?xml version="1.0" encoding="UTF-8"?>
<svg xmlns="http://www.w3.org/2000/svg" id="RSSicon" viewBox="0 0 512 512" width="512" height="512">
  <defs>
    <style type="text/css">
      svg {
        background: black;
        margin: calc(50vh - 256px) auto 0;
      }
      
      polygon {stroke: darkorange; fill: none;}
    </style>
  </defs>
  <polygon points="13.883839817464356 13.883839817464356 30.44721824633821 12.219448420328456 32.88472162866944 32.88472162866944 4.194490413297185 38.47217625336948"/><polygon points="55.129151813782855 12.462485147116183 80.45193814767191 4.881395185661422 79.03987181926816 36.373205152601486 52.95667832985992 32.37665500347342"/><polygon points="101.31735381289113 15.984020479557802 122.01860695124769 5.981393048752302 118.76182082792039 33.42848749458706 96.64185876975448 31.358141230245515"/><polygon points="135.33019124148882 7.330191241488807 156.98802671389745 13.678639952769206 158.2996751353582 30.299675135358186 141.7920060138215 28.874660652845172"/><polygon points="179.3638551575511 8.697188490884422 196.7166192369725 16.616714096360845 209.4119481079739 38.74528144130723 179.47456158708454 33.858771746248806"/><polygon points="221.6964003818285 8.363067048495175 242.96923681861776 13.03076318138222 249.30261653118117 35.96928319784786 219.16000426436605 36.83999573563393"/><polygon points="270.21303591919934 14.213035919199369 286.00038440216883 12.666282264497802 292.6611723871954 36.66117238719543 260.2514861723798 38.41518049428681"/><polygon points="312.07246044404815 13.40579377738155 337.3506717279271 3.9826616054061788 325.63122805487023 26.9645613882036 310.4233421490427 30.909991184290575"/><polygon points="347.1423523889271 5.809019055593824 368.76536292305127 15.234637076948705 370.1845895205165 28.851256187183196 346.53434903087623 37.46565096912375"/><polygon points="393.6050752065526 9.605075206552616 413.2117135765571 13.454953090109559 422.72133876777997 38.72133876778001 397.4088514543506 29.257815212316054"/><polygon points="433.7736252620437 7.10695859537711 458.93964911573505 10.393684217598201 453.43732716786326 26.770660501196645 441.3437770590933 27.98955627423997"/><polygon points="483.49767858740336 14.164345254070081 505.3449957552158 6.655004244784147 506.5589824878698 37.22564915453651 481.31731637950486 30.682683620495084"/><polygon points="3.8554655615663407 46.522132228233005 28.422689542411558 56.910643790921775 31.338806144369386 74.00547281103606 5.122991579112071 80.21034175422126"/><polygon points="50.57188404923496 50.57188404923496 70.383643103256 57.616356896743994 81.22195952454518 81.22195952454518 58.68166538003016 69.31833461996985"/><polygon points="90.19266604287088 47.52599937620422 118.68430337297488 51.98236329369177 122.70591790975686 80.0392512430902 97.40358519156433 73.26308147510233"/><polygon points="134.24084920846857 48.907515875135246 161.86182754298744 51.4715057903459 161.77058724136106 76.43725390802773 140.60440225312036 72.72893108021299"/><polygon points="177.72400147391693 49.72400147391692 206.10647622498655 49.893523775013435 206.0421610358282 78.0421610358282 179.3224540232553 76.67754597674471"/><polygon points="219.13983114805254 48.47316448138589 244.20384484228094 54.462821824385706 245.84891025513002 75.18224358846336 221.8367393024109 76.82992736425575"/><polygon points="260.3639855350631 47.03065220172978 288.1792410878389 53.15409224549442 293.029787580946 79.69645424761265 264.6052099151012 76.72812341823212"/><polygon points="313.5534785353428 57.553478535342826 333.669445986078 50.33055401392194 330.8455854091122 74.84558540911223 307.19363807598523 76.80636192401472"/><polygon points="349.4458668229574 50.779200156290756 378.9237709589807 47.74289570768592 371.3510156374804 72.68434897081377 356.47066958626425 70.19599708040239"/><polygon points="400.19675148361137 58.86341815027807 421.4899157991479 47.84341753418537 412.44486256856834 71.11152923523505 394.4628612030764 74.87047213025693"/><polygon points="439.470506344042 55.470506344042036 458.4540515122028 53.54594848779713 459.1511271333128 75.15112713331283 438.19169691026224 73.80830308973772"/><polygon points="477.98354074422224 51.316874077555624 500.2503405683564 54.41632609831022 505.1060544403297 78.43938777366307 483.9190859886601 70.74758067800657"/><polygon points="5.0694478619649 90.40278119529822 32.89953238550122 95.10046761449877 38.238262739300694 123.57159607263402 15.511801114872146 112.48819888512784"/><polygon points="53.48489147603664 96.1515581427033 79.87278087345993 90.79388579320673 75.36208971461353 118.02875638128019 55.641442855214585 115.02522381145208"/><polygon points="91.98553266412685 91.98553266412685 117.64576347369567 95.68756985963765 120.87912233883384 120.87912233883384 99.10396843566593 114.22936489766738"/><polygon points="142.48543049284447 99.81876382617779 157.6193170186681 98.38068298133189 164.16589647704052 121.49922981037382 132.21894369677983 123.78105630322017"/><polygon points="185.14893030851383 99.81559697518047 205.14543977505258 93.52122689161408 198.5288445802336 113.19551124690025 183.167352590593 115.49931407607367"/><polygon points="228.9182683487989 100.91826834879889 247.48158797825715 93.85174535507615 245.09780177661037 117.09780177661037 227.86363030143417 113.46970303189914"/><polygon points="267.08896512056526 96.42229845389859 290.72811002414426 93.27188997585571 292.8885185651653 122.22185189849867 265.86879400811574 118.13120599188423"/><polygon points="304.4223122183489 91.0889788850156 332.1797069216221 94.48695974504452 335.65061420276015 122.31728086942685 311.7859894281845 114.88067723848211"/><polygon points="350.5908228684471 94.59082286844715 370.1298942343263 99.20343909900699 368.65859884519085 112.6585988451909 345.42381119344293 123.90952213989038"/><polygon points="399.5488913509776 100.88222468431096 410.79355948414326 101.20644051585674 418.59194177422904 119.9252751075624 400.0501078997332 111.94989210026682"/><polygon points="437.0916064516131 95.75827311827979 458.07953192682976 96.58713473983686 452.8619827485215 111.52864941518817 438.5014709954277 116.16519567123886"/><polygon points="481.6481178639207 97.64811786392072 502.5544285957348 94.77890473759847 497.3579843055744 113.35798430557442 478.86662686781244 118.46670646552086"/><polygon points="16.167185626994446 144.16718562699447 37.12786043633335 133.53880623033334 33.37266470113529 161.3726647011353 11.872289006023504 158.79437766064316"/><polygon points="57.362541423748134 142.69587475708147 69.68371024962279 143.64962308371057 72.75204517214445 158.0853785054778 56.788723184708346 156.544610148625"/><polygon points="90.28907499843419 132.95574166510087 119.41546337922975 136.58453662077025 116.41012081684887 159.07678748351555 92.86821790771857 163.1317820922814"/><polygon points="139.39999186136612 139.39999186136612 161.66647268760815 137.00019397905854 156.73779455730372 156.73779455730372 136.77857696184168 161.888089704825"/><polygon points="176.79865202841395 134.1319853617473 198.22853584639657 143.10479748693677 204.04663285307228 161.37996618640562 180.97172869431253 160.3616046390208"/><polygon points="228.6874416807211 143.35410834738778 245.41591143433317 138.58408856566683 250.19564257695788 164.86230924362457 219.59358261552407 164.40641738447593"/><polygon points="261.1578482857829 133.15784828578296 288.15631497463573 138.51035169203095 294.0719737297195 166.07197372971956 263.5989107594903 163.06775590717638"/><polygon points="313.4892558136127 142.82258914694614 326.92265116600373 142.41068216732955 327.1175066449663 156.4508399782997 308.8769080436676 160.4564252896657"/><polygon points="357.12352921735703 143.79019588402372 376.625494019765 135.374505980235 375.5869379450026 162.25360461166932 355.98617020404873 156.0138297959512"/><polygon points="399.9744733329354 143.97447333293545 418.0828946125478 136.58377205411884 410.5943297106519 154.59432971065195 388.0145356155623 166.65213105110436"/><polygon points="433.81200680034704 135.14534013368046 460.5887814252935 136.74455190803977 457.9765307400607 159.3098640733941 433.70911980459965 163.62421352873363"/><polygon points="477.20471231169114 135.87137897835788 507.2636575242549 132.73634247574506 499.58785504915096 158.25452171581765 479.16521840704996 160.83478159295004"/><polygon points="13.092022395589206 183.75868906225588 34.90188562650192 178.43144770683142 30.474858020403303 201.14152468706996 5.526048560200163 207.80728477313318"/><polygon points="50.09115268034101 178.09115268034103 75.84994330463995 180.15005669536006 72.95462237164301 200.954622371643 47.57135906453192 208.42864093546808"/><polygon points="101.78573150294646 187.11906483627982 113.63860072195399 185.02806594471267 115.51074232409688 200.84407565743024 91.8217651732761 206.84490149339055"/><polygon points="133.77788718456608 176.44455385123274 160.9313321852633 180.40200114807004 160.58142254626983 203.2480892129365 141.06045393826042 200.27287939507292"/><polygon points="174.5567883886619 174.5567883886619 198.2736886375118 185.7263113624882 197.5110044489834 197.5110044489834 175.09800275051407 208.90199724948593"/><polygon points="226.20945136869489 183.54278470202823 241.41839475546783 185.24827191119883 239.79398043364608 197.12731376697943 219.15693932712864 207.50972733953802"/><polygon points="262.2219290123185 176.88859567898524 287.8085582729525 181.52477506038085 284.2958417110602 198.96250837772686 267.6878084695886 201.64552486374467"/><polygon points="305.1498741851446 177.14987418514463 328.592089585936 183.40791041406396 328.7205318763694 200.72053187636948 309.7133844279128 202.28661557208716"/><polygon points="346.8276593803572 176.16099271369058 368.1934314442982 186.4732352223684 379.645782217738 208.97911555107137 356.50741846222996 198.15924820443664"/><polygon points="399.2639502704844 185.9306169371511 411.69456241027905 185.63877092305427 411.16387854005814 197.83054520672482 395.13776099961495 202.19557233371836"/><polygon points="431.5486778107447 175.54867781074478 465.4508291778302 174.54917082216974 461.99897554519964 205.99897554519973 440.2974084376191 199.7025915623809"/><polygon points="485.63643376334943 186.96976709668283 507.6116186690859 175.05504799758074 504.5916883748138 205.92502170814723 479.81648028610397 202.85018638056266"/><polygon points="8.363041689132523 221.69637502246584 38.6293524200333 217.3706475799667 37.743902541047404 251.07723587438073 4.641545753006781 251.3584542469932"/><polygon points="47.44665551478169 218.11332218144835 68.94639276685032 229.72027389981633 80.839485226566 251.50615189323267 54.14860611125407 244.51806055541257"/><polygon points="98.22946451059282 226.2294645105928 121.82250150524516 219.51083182808816 122.2726828981671 250.27268289816712 100.71400238358866 240.61933094974466"/><polygon points="132.66072421920785 217.99405755254116 163.93763344750656 220.06236655249344 158.2655269723244 243.59886030565772 136.02400536366994 247.97599463633006"/><polygon points="174.6330902762995 217.29975694296616 200.06330261971343 226.60336404695323 207.13376368137023 249.80043034803688 178.59055149008307 248.07611517658358"/><polygon points="222.12870460306237 222.12870460306237 245.18107891358974 224.15225441974357 251.8140192699863 251.8140192699863 222.92057759339454 246.41275573993877"/><polygon points="266.00745309391823 223.3407864272516 291.702027967145 220.297972032855 286.70389154517335 244.03722487850666 268.2835199071684 243.7164800928316"/><polygon points="312.1324094487953 226.79907611546196 329.59625850475277 225.07040816191383 336.59824162932836 251.2649082959951 311.887282232112 242.77938443455463"/><polygon points="354.2000913303119 226.20009133031195 369.5084835024453 227.82484983088798 371.113157297495 243.113157297495 345.64447653442926 251.68885679890403"/><polygon points="399.13304406865643 228.46637740198975 415.5400753690211 224.45992463097886 417.793202492407 247.12653582574032 391.37053695885874 248.62946304114124"/><polygon points="434.48907851362577 221.15574518029246 454.0744217013345 228.5922449653321 460.3546068306018 247.0212734972685 430.85717863266717 251.80948803399946"/><polygon points="482.36260462872934 226.36260462872937 505.20893562908634 220.12439770424692 504.27441840245297 248.27441840245302 473.3343112068029 251.99902212653038"/><polygon points="4.030750583228741 260.0307505832287 28.76812054219068 269.89854612447596 34.04552869125827 290.04552869125826 13.060657627962971 285.6060090387037"/><polygon points="48.967417763613255 262.30075109694656 77.5247271116159 263.8086062217174 81.47858038421101 294.8119137175443 53.47265446983005 287.86067886350327"/><polygon points="96.77525910622266 267.4419257728893 118.47527193240464 265.52472806759533 116.9860110452141 287.65267771188076 93.45337585840441 290.54662414159554"/><polygon points="142.49232095663785 270.49232095663785 166.50973318516083 260.1569334815058 159.0608932269339 287.0608932269339 141.9379710874064 284.72869557926026"/><polygon points="176.7849419610288 262.11827529436215 201.07185613452623 268.2614771988071 201.15841948760755 286.49175282094086 175.33360471371424 293.9997286196191"/><polygon points="229.6384110164366 272.30507768310326 239.59554371263175 272.4044562873682 247.00586121397956 289.6725278806462 226.75210246760273 285.24789753239725"/><polygon points="263.8116790670747 263.8116790670747 289.7069376806609 264.95972898600576 287.79960808834693 287.79960808834693 271.41669479538837 283.24997187127826"/><polygon points="313.96702060271366 271.30035393604703 335.5530529646984 261.78028036863486 325.3719005426402 282.7052338759736 312.8307284111602 284.5026049221731"/><polygon points="349.64449482687087 264.31116149353755 374.51748458023764 265.4825154197623 373.48218067507355 288.14884734174024 349.95736602966815 290.0426339703318"/><polygon points="399.73233279210774 271.73233279210774 410.2231429450084 272.4435237216582 416.358959506177 288.358959506177 393.9836142420355 288.6830524246311"/><polygon points="441.08884921787364 270.422182551207 462.2703949324846 263.0629384008487 454.7313822389143 284.0647155722477 438.5327305368738 286.80060279645943"/><polygon points="477.61130511289946 264.27797177956614 497.42029330165684 270.5797066983431 496.6715350019752 283.3382016686419 474.68573594642515 293.3142640535748"/><polygon points="5.364093469985248 304.03076013665185 26.146464958176672 315.1868683751566 32.73428140905992 331.40094807572655 8.863780633372466 332.4695526999608"/><polygon points="55.16088830098474 311.1608883009847 76.70627646514728 307.29372353485263 70.28606546152203 326.28606546152196 56.3756478073786 327.62435219262136"/><polygon points="101.01515887561068 314.348492208944 118.4191989791027 308.2474676875639 121.19490654649691 334.5282398798302 100.88282985335299 325.7838368133136"/><polygon points="134.5997410577451 305.2664077244117 159.689717009856 309.64361632347726 163.34262433129751 334.0092909979641 136.96003277217898 332.3733005611543"/><polygon points="179.6130559383323 307.61305593833225 207.19501152778096 304.80498847221895 202.98715079516572 330.9871507951657 177.22047831265374 334.77952168734623"/><polygon points="225.12050155635285 310.4538348896861 245.9093166583564 308.7573500083102 242.53656381415578 327.86989714748904 226.73331412085108 327.9333525458155"/><polygon points="266.35278226984815 309.0194489365148 291.6344532108383 305.698880122495 284.57052280748707 327.2371894741537 263.4508989414034 333.88243439192985"/><polygon points="314.04242318088603 314.04242318088603 325.69487405694906 314.3051259430508 330.2384404337245 330.2384404337245 305.67618154631555 334.32381845368434"/><polygon points="348.45812480161663 305.79145813494995 373.1122675386259 309.5543991280407 374.0017362783937 331.335069611727 351.3862141094025 331.2804525572641"/><polygon points="397.80229667862153 312.46896334528816 414.097001924262 311.2363314090713 419.9726210804349 334.63928774710155 393.4753483630319 331.85798497030135"/><polygon points="431.8315939244081 303.8315939244081 464.04192118129225 303.95807881870763 455.8339930411213 327.8339930411213 441.3437617977465 326.6562382022534"/><polygon points="478.9181765031862 308.2515098365195 497.1485109520762 313.51815571459036 503.8971505998347 333.230483933168 475.3097372024546 335.356929464212"/><polygon points="13.620016686819183 354.95335002015247 37.43406115348125 346.5659388465187 29.252175694837927 370.5855090281712 15.000691044145789 368.9993089558542"/><polygon points="57.516010746111036 356.18267741277765 75.20914983880938 351.45751682785726 78.31825151997678 376.9849181866434 47.30314845339777 379.36351821326883"/><polygon points="96.6534612757047 352.6534612757047 116.41986938042251 352.9134639529108 112.10264374704589 368.1026437470459 92.47026656764538 376.8630667656879"/><polygon points="139.7951638591989 353.12849719253217 163.14104564730243 348.85895435269754 161.37192159034484 374.7052549236781 135.97417428733672 376.0258257126632"/><polygon points="177.13085496943728 347.7975216361039 208.42420117394136 346.2424654927253 206.60964177977752 377.27630844644415 185.01619577442148 369.65047089224515"/><polygon points="227.3101377299994 355.3101377299994 240.38614600680353 356.9471873265298 242.18157150302548 370.18157150302545 223.91323150330504 373.4201018300282"/><polygon points="271.7843064674549 357.1176398007882 284.61304874329807 355.3869512567019 293.30426334995997 378.6375966832933 272.32542506401467 367.6745749359853"/><polygon points="304.27668126642084 346.9433479330875 336.22560755846143 346.44105910820514 335.75361455657884 378.4202812232455 315.1947934591159 367.4718732075507"/><polygon points="355.4358105537394 355.4358105537394 376.1530993981751 349.1802339351582 374.0939860659786 374.0939860659786 349.1070192551823 376.22631407815095"/><polygon points="388.4929575046787 345.826290838012 413.47545516264995 354.52454483735 411.40936118332735 368.74269451666066 391.566161324127 376.43383867587295"/><polygon points="436.99276314058807 351.65942980725475 463.89880539216557 346.767861274501 453.78445812745144 368.45112479411813 435.83872175505377 374.8279449116128"/><polygon points="474.58924765931584 346.58924765931584 498.0505552102947 355.28277812303855 505.16609141882697 377.16609141882697 473.3547633062061 379.97857002712715"/><polygon points="5.020406474219353 389.0204064742193 34.69379576261282 391.9728709040538 38.11943660484387 422.1194366048438 15.798564303227378 410.8681023634393"/><polygon points="52.42350106485368 393.756834398187 70.0605292384657 399.2728040948676 70.92603252692705 412.25936586026035 49.15530102307772 420.1780323102556"/><polygon points="92.81454226483655 391.4812089315032 113.3362395601161 398.6637604398839 117.10085024192848 415.76751690859516 91.79070091057162 420.2092990894284"/><polygon points="132.13732625792161 388.1373262579216 156.84550370013002 397.82116296653663 155.8962649065587 411.8962649065587 133.3730002050117 421.293666461655"/><polygon points="176.45030815595229 389.78364148928557 204.55933163215826 392.77400170117505 206.32968818979182 419.66302152312517 179.354257668028 417.9790756653053"/><polygon points="228.59504313220327 399.26170979886996 245.1223458364042 394.87765416359576 246.3670921215133 417.03375878817997 217.41195482971273 422.5880451702873"/><polygon points="262.3882517594758 390.3882517594758 290.39309972326276 392.27356694340386 293.23779420052597 421.23779420052597 264.8150749881521 417.8515916785145"/><polygon points="313.9854319268181 399.31876526015145 333.16616839371807 392.1671649396152 327.3100730314076 412.643406364741 307.5583954407565 417.77493789257676"/><polygon points="347.3641132425003 390.030779909167 367.5732786429437 400.42672135705624 367.6436819991662 410.31034866583286 348.71133882349426 419.2886611765057"/><polygon points="396.7190131391441 396.7190131391441 412.44089209667806 398.2257745699886 418.16560536122495 418.16560536122495 390.6652833012188 420.00138336544785"/><polygon points="440.9879131628005 398.3212464961339 461.0510913679422 392.28224196539105 463.53670234998884 420.8700356833222 430.78454215247797 422.5487911808553"/><polygon points="479.63324946969175 394.29991613635843 506.2873015869773 389.7126984130226 502.9582012968607 417.6248679635274 481.4120172826318 414.58798271736816"/><polygon points="9.48827687871741 436.154943545384 36.456241279337775 432.8770920539955 33.34220286655174 460.00886953321833 4.733018072948916 464.6003152603844"/><polygon points="51.118155201708724 435.11815520170865 72.7356674920159 439.264332507984 78.24276617056415 462.2427661705641 53.56050942109618 458.43949057890376"/><polygon points="89.37470476519991 430.7080380985332 114.25602156279838 440.4106451038682 114.80991993263073 456.143253265964 97.65479822421449 457.0118684424521"/><polygon points="139.49925223562292 438.1659189022895 160.0436135119961 437.28971982133714 154.43227593226106 453.09894259892764 138.66607722766184 458.66725610567147"/><polygon points="186.81111237111705 442.811112371117 203.58225997842683 436.4177400215731 203.74374845090787 459.74374845090784 177.1918918759161 462.80810812408384"/><polygon points="220.92986569489727 434.2631990282306 244.99859871813828 437.66806794852835 239.78096984647382 453.1143031798071 219.21230170812933 463.45436495853727"/><polygon points="262.341177867253 433.00784453391964 285.8348092745177 439.4985240588156 288.29366788648883 458.96033455315546 272.0784973454955 453.25483598783774"/><polygon points="303.3229423005033 431.3229423005033 332.42601535991633 435.57398464008355 327.04160200906534 455.04160200906534 302.59546322020753 465.40453677979235"/><polygon points="348.2598658155847 433.593199148918 373.8315495889049 436.83511707776165 379.0179966188046 464.3513299521379 348.4003217967338 462.26634486993277"/><polygon points="390.74966861500735 433.416335281674 415.21920834571426 438.114124987619 420.9635692413739 463.6302359080405 388.38360461072637 464.9497287226069"/><polygon points="439.6947245206585 439.6947245206585 455.37007670114036 440.6299232988595 456.7698930450011 456.7698930450011 441.96425258058633 454.03574741941355"/><polygon points="476.71760221403275 434.05093554736607 504.93902543732656 433.72764122934 501.4020188806698 458.7353522140031 479.6383239852928 459.0283426813738"/><polygon points="5.537978446300196 474.8713117796335 37.53705679663184 474.4629432033681 32.06745379687999 501.4007871302133 7.159912508138337 504.8400874918616"/><polygon points="48.37396536551502 475.04063203218163 80.03795693386562 474.628709732801 78.33541397758307 505.0020806442497 51.92711238518299 502.73955428148366"/><polygon points="99.96237831273154 483.9623783127315 116.14146803411722 481.19186529921603 115.88445095712325 499.8844509571232 98.70266336812054 498.63066996521275"/><polygon points="141.02403728442903 482.3573706177623 164.30896459150784 475.6910354084921 155.43639811300048 496.76973144633376 133.52442373361555 506.4755762663844"/><polygon points="185.8202746468814 484.486941313548 204.4114796197051 478.25518704696157 209.3241263056697 507.9907929723363 183.9372740473329 498.72939261933374"/><polygon points="226.19336971835935 482.19336971835935 239.87398011887683 485.4593532144564 241.81757513623882 497.8175751362388 229.90567551554582 495.42765781778746"/><polygon points="260.35315647512425 473.68648980845757 284.1518098990038 483.84819010099613 286.49548460618706 499.8288179395204 262.18919336501096 505.810806634989"/><polygon points="315.30412831698317 485.97079498364985 334.62353672089534 476.0431299457712 335.8893143202239 506.5559809868906 308.1523124376662 502.5143542290004"/><polygon points="347.8911455296439 475.8911455296439 372.1722896584748 481.16104367485843 371.3111793530659 499.3111793530659 346.33460838638746 506.9987249469458"/><polygon points="389.4472304242547 474.780563757588 413.3741466176696 482.6258533823303 410.77309088726486 496.10642422059817 395.7603793672576 500.23962063274234"/><polygon points="434.7578694078394 477.4245360745061 456.16748884331076 482.4991778233558 459.65865380950873 502.3253204761754 430.87690686417557 507.789759802491"/><polygon points="475.1504532819738 475.1504532819738 503.8770540495363 477.45627928379696 505.0856724395145 505.0856724395145 475.3041503788343 506.02918295449894"/>
</svg>
