<?xml version="1.0" encoding="UTF-8"?>
<svg xmlns="http://www.w3.org/2000/svg" id="RSSicon" viewBox="0 0 512 512" width="512" height="512">
  <defs>
    <style type="text/css">
      svg {
        background: black;
        margin: calc(50vh - 256px) auto 0;
      }
      
      polygon {stroke: darkorange; fill: none;}
    </style>
  </defs>
  <polygon points="7.828588703830002 7.828588703830002 36.63770440359342 6.028962263073247 29.860343056613445 29.860343056613445 8.023840627825793 34.64282603884087"/><polygon points="59.253245825365354 16.58657915869869 71.46743550987422 13.865897823459106 75.64534557051098 32.97867890384431 51.42857503337882 33.90475829995451"/><polygon points="92.40699015794058 7.073656824607257 116.411335572329 11.588664427670988 122.14138893818549 36.80805560485216 96.67044202729079 31.3295579727092"/><polygon points="139.2536339778993 11.2536339778993 161.06942568836587 9.597240978300817 161.26279866761962 33.26279866761961 143.9527486117963 26.713918054870376"/><polygon points="180.02991488282848 9.363248216161816 202.096561998629 11.236771334704327 197.0073744464391 26.34070777977241 175.47916799908188 37.85416533425145"/><polygon points="224.56179383274747 11.228460499414153 248.07996945630816 7.9200305436918175 251.80964634560692 38.4763130122736 220.61143158727657 35.38856841272343"/><polygon points="260.96015737085116 4.960157370851192 285.1147670010894 13.551899665577292 284.5068071962835 28.5068071962835 265.1347271688905 33.53193949777617"/><polygon points="306.1547653229863 7.488098656319668 332.3568491415425 8.976484191790735 337.1271801341502 38.460513467483565 307.20147293280326 34.131860400530044"/><polygon points="350.61918784438046 9.285854511047146 375.83181029543545 8.16818970456451 372.4960860631405 31.162752729807224 345.89880293051584 38.1011970694841"/><polygon points="396.225498335604 12.225498335604051 414.15466346733524 12.512003199331394 412.98331521851173 28.983315218511756 400.47926328058423 26.187403386082394"/><polygon points="442.44892105976555 15.782254393098945 460.6726005342657 8.660732799067574 462.77971528748446 36.11304862081788 438.12475719163734 31.208576141695907"/><polygon points="480.66336664895687 11.33003331562358 502.0635500258742 9.936449974125775 502.2735321044381 32.940198771104825 485.057874474755 26.94212552524497"/><polygon points="11.339722373222806 54.00638903988947 38.56698116521267 46.76635216812066 34.34755932637409 77.01422599304075 13.81157075281267 71.52176258052066"/><polygon points="49.039626678196655 49.039626678196655 80.9682265261346 47.03177347386539 71.27880856126754 71.27880856126754 50.27461947580882 77.72538052419118"/><polygon points="100.10981460453418 57.44314793786752 120.94602932898965 49.720637337677005 115.54370522594343 72.87703855927677 98.76502581830628 71.90164084836037"/><polygon points="139.30429371124217 53.97096037790881 155.02750627315302 58.30582706018031 157.38245011539001 72.04911678205669 141.0705052728818 72.26282806045153"/><polygon points="179.35178597966132 51.35178597966131 202.8099877423828 53.1900122576172 197.37427191591377 69.37427191591378 181.25864411485597 74.74135588514403"/><polygon points="223.84026744348904 53.17360077682238 245.00165107332936 53.66501559333731 247.92787968369922 77.26121301703256 220.8432225147072 77.82344415195944"/><polygon points="263.1893276550698 49.85599432173649 287.32539467002266 54.007938663310625 294.6610998902106 81.32776655687726 270.63727060039264 70.6960627329407"/><polygon points="312.0208091499 56.02080914990008 331.019606054849 52.98039394515094 326.620416311421 70.62041631142107 307.0044846715848 76.99551532841514"/><polygon points="351.5539958646746 52.887329198008 372.95405103646425 53.7126156302024 367.67224351963756 69.00557685297095 345.23836081213346 81.42830585453316"/><polygon points="389.75946849186073 48.42613515852739 421.3142456722312 48.01908766110208 414.64706826490885 73.31373493157552 390.45736532413963 78.87596800919367"/><polygon points="441.8379768759121 57.837976875912155 452.70424159611605 59.29575840388387 464.8966687703596 80.89666877035968 433.7336391791172 78.26636082088277"/><polygon points="473.2657211689644 46.59905450229775 503.26117625792574 51.40549040874087 501.80563580028286 75.13896913361623 484.80038253147035 69.86628413519631"/><polygon points="8.675867256946036 94.00920059027936 35.47720561930005 92.52279438069993 34.56155517838075 119.89488851171407 10.637966863354638 117.36203313664535"/><polygon points="51.66499141834947 94.33165808501613 75.66463829654637 95.00202837012029 72.57392166303033 115.24058832969699 53.67117668866874 116.99548997799792"/><polygon points="95.58590007510755 95.58590007510755 112.0927530007264 101.24058033260691 120.6962072684165 120.6962072684165 98.8386385980194 114.49469473531391"/><polygon points="140.6066994772154 97.9400328105487 157.1760995219279 98.82390047807209 159.81166745518934 117.14500078852267 136.1294624263985 119.87053757360148"/><polygon points="186.71812934161102 101.38479600827768 205.0235549351491 93.64311173151755 202.11414442146412 116.78081108813078 180.26252104637084 118.40414562029581"/><polygon points="223.80993366202705 95.80993366202703 247.48570393768807 93.84762939564523 242.6562090979325 114.6562090979325 224.72891874424243 116.60441458909087"/><polygon points="260.4529335719594 89.78626690529278 286.36922160264373 97.63077839735624 283.7606276255369 113.09396095887024 272.61230735510946 111.38769264489054"/><polygon points="313.84351626442833 100.51018293109503 330.32171685878853 96.3449498078781 330.4120118050953 117.07867847176202 307.8728889148464 118.79377775182022"/><polygon points="353.9040954838125 97.90409548381254 376.72002272958247 92.61331060375082 374.47937773345086 118.47937773345092 347.9180309262216 121.4153024071117"/><polygon points="399.08979347900384 100.42312681233722 421.66301194961653 90.33698805038343 414.42915947427724 115.76249280761057 388.09088456687607 123.9091154331239"/><polygon points="437.0882678175162 95.75493448418297 457.5026563017078 97.16401036495881 463.31609911294584 121.98276577961254 431.4171000927473 123.24956657391925"/><polygon points="474.7114011956534 90.71140119565345 503.47598920017344 93.85734413315981 499.3528253931851 115.35282539318513 479.04758503852645 118.28574829480684"/><polygon points="9.7244157273131 137.7244157273131 38.575960150099505 132.09070651656717 37.11706839654476 165.11706839654477 5.494341162102632 165.17232550456404"/><polygon points="57.309059025258634 142.64239235859196 73.63781363313782 139.69551970019552 70.20940443391503 155.54273776724838 53.67162783775451 159.66170549557884"/><polygon points="90.49887113644698 133.16553780311366 113.40746969484482 142.59253030515518 112.95914981401442 155.62581648068112 93.03715699934831 162.9628430006517"/><polygon points="134.34832614545755 134.34832614545755 154.66440539326624 144.00226127340045 164.70430198232032 164.70430198232032 136.5638686037744 162.10279806289228"/><polygon points="185.46724815554234 142.80058148887568 200.58574328134785 140.7475900519855 202.28521417206161 159.61854750539496 174.84789918617625 166.4854341471571"/><polygon points="223.2781305826739 137.94479724934058 251.88895435317357 132.11104564682643 244.61248426496476 159.27915093163145 223.04906712674517 160.95093287325483"/><polygon points="268.1104273587181 140.1104273587181 290.4272929976767 136.23937366898997 283.5902773981404 155.59027739814042 264.6163014361358 162.05036523053087"/><polygon points="311.9715577334552 141.30489106678857 327.44119073857576 141.89214259475753 335.7170190285578 165.05035236189119 311.6497046314527 157.6836287018806"/><polygon points="353.0078304627392 139.6744971294059 372.6340741914062 139.36592580859374 373.6732224349227 160.3398891015894 349.4668014444921 162.53319855550788"/><polygon points="398.3631888179685 142.3631888179685 420.5536050402996 134.11306162636706 412.20848403513565 156.2084840351357 392.87073214120653 161.79593452546013"/><polygon points="441.35190044177165 142.68523377510505 458.80496323816504 138.52837009516827 458.03888434102663 159.37221767436 440.1175655663739 157.21576776695935"/><polygon points="474.6017761553692 133.2684428220359 506.5122720556154 133.48772794438455 498.69546370753187 157.36213037419856 485.9603807315125 154.03961926848746"/><polygon points="4.322451315637824 174.9891179823045 37.51031241407577 175.82302091925757 37.9085910952457 208.57525776191235 13.821161210330217 199.51217212300313"/><polygon points="57.15869303853529 185.1586930385353 79.5336314755172 176.46636852448282 77.41275221872574 205.41275221872573 47.317343852965834 208.68265614703415"/><polygon points="95.72003554703556 181.0533688803689 118.88827608755834 179.7783905791083 115.90383498058294 201.2371683139163 96.63835614304713 202.02831052361952"/><polygon points="136.72927966119943 179.39594632786608 165.19572668169553 176.1376066516378 162.82961610324136 205.49628276990802 144.15278777829732 197.18054555503602"/><polygon points="176.5409708153327 176.5409708153327 196.79773681105996 187.20226318894004 203.9710650666195 203.9710650666195 176.59982421008996 207.40017578991004"/><polygon points="221.07748835960643 178.41082169293978 244.65890602947894 182.00776063718772 243.28061552091606 200.6139488542494 218.72994225281093 207.93672441385573"/><polygon points="269.87395294011907 184.54061960678575 293.3670417399865 175.9662915933468 288.6183770808792 203.28504374754593 261.5488291359646 207.78450419736873"/><polygon points="306.82689071562993 178.82689071563001 327.5506076596366 184.4493923403633 334.6938816528471 206.69388165284712 304.50646805713217 207.49353194286775"/><polygon points="357.8224909347519 187.15582426808524 379.60581327400314 175.0608533926635 379.3927621894195 208.72609552275287 348.8987442644999 205.76792240216673"/><polygon points="399.14436806558035 185.81103473224704 419.2349812806298 178.0983520527035 412.31973083250665 198.9863974991733 388.5982971266674 208.73503620666597"/><polygon points="439.16198807441924 183.1619880744193 456.7846037078947 183.21539629210528 455.22003498482894 199.220034984829 433.8345538312121 206.16544616878787"/><polygon points="484.0570939187157 185.39042725204905 506.63968212789047 176.02698453877616 502.9884383734023 204.32177170673563 474.92566083542624 207.74100583124041"/><polygon points="12.643616264257117 225.97694959759045 30.885142841714824 225.11485715828516 30.21056939176912 243.54390272510244 5.907071699013514 250.09292830098647"/><polygon points="53.5733964525624 224.24006311922906 74.2174052799263 224.44926138674037 69.6775558377919 240.34422250445854 58.63714390008859 240.02952276657805"/><polygon points="101.91234071122453 229.91234071122454 118.008639730427 223.3246936029063 115.17672464251176 243.17672464251174 92.08266181071888 249.25067152261443"/><polygon points="140.4988655749508 225.8321989082841 162.0859138157678 221.9140861842322 164.57840331330976 249.91173664664308 136.98356549364848 247.01643450635152"/><polygon points="174.7288000071992 217.39546667386583 200.1496613889229 226.51700527774375 203.8775285717201 246.54419523838675 177.20292215619318 249.46374451047348"/><polygon points="222.56666246721275 222.56666246721275 247.88187645587013 221.4514568774632 248.10354486793256 248.10354486793256 226.2952719605149 243.03806137281842"/><polygon points="269.7957985323623 227.12913186569565 284.55948720001805 227.4405127999819 292.6372072384689 249.97054057180222 260.58096207796166 251.41903792203829"/><polygon points="309.3277873905507 223.99445405721747 330.4857954283169 224.1808712383497 335.7873837030055 250.45405036967225 306.88765265176016 247.77901401490644"/><polygon points="357.01346638820377 229.01346638820377 375.8528269537345 221.4805063795988 376.2988565551356 248.29885655513564 353.0543552532596 244.27897808007373"/><polygon points="394.7331142418425 224.06644757517586 421.6623203350506 218.33767966494935 417.11533713091046 246.44867046424383 396.10636314467763 243.8936368553223"/><polygon points="434.6516732610954 221.31833992776217 452.7675016745311 229.8991649921355 454.75443337135044 241.42110003801713 432.1384858724348 250.52818079423184"/><polygon points="474.3718881448932 218.37188814489326 504.1701326430574 221.16320069027591 495.76791215962174 239.76791215962177 484.63468032397526 240.69865300935803"/><polygon points="13.616656826704057 269.61665682670406 32.812826379006516 265.85384028766015 28.788351161624995 284.788351161625 16.63395951860884 282.0327071480578"/><polygon points="58.911758233985665 272.245091567319 74.75823582201801 266.57509751131533 72.75205401452644 286.08538734785975 59.26843705432968 282.0648962790036"/><polygon points="95.79471827293847 266.4613849396051 121.05478565874293 262.94521434125704 111.83823440970653 282.5049010763732 93.34258474602709 290.6574152539729"/><polygon points="139.67265720406849 267.67265720406846 166.39795911864013 260.26870754802655 157.35809799939568 285.3580979993957 133.05586102015633 293.61080564651036"/><polygon points="176.90826515013867 262.241598483472 205.38394844843828 263.94938488489504 197.54520016984415 282.8785335031775 182.4408816544833 286.89245167885"/><polygon points="217.7015979201894 260.36826458685607 240.6846117487973 271.31538825120265 251.81681470753276 294.4834813741994 217.92745156300361 294.0725484369963"/><polygon points="269.5793505752424 269.5793505752424 283.2854081702665 271.3812584964001 292.33509926428536 292.33509926428536 260.0028991266328 294.6637675400338"/><polygon points="314.8680081769331 272.20134151026645 335.81910263249875 261.5142307008345 326.1118342937839 283.44516762711726 312.6113465896792 284.72198674365404"/><polygon points="350.125894203583 264.79256087024976 368.5953144745911 271.40468552540887 376.57538884659857 291.24205551326526 356.3061862591215 283.69381374087845"/><polygon points="398.33234509918634 270.33234509918634 413.3060723493508 269.3605943173158 410.8636486251159 282.8636486251159 398.8181654997681 283.84850116689853"/><polygon points="438.9505076245419 268.28384095787527 458.67304375076964 266.6602895825636 453.93933281514194 283.2726661484753 435.14059336742304 290.1927399659102"/><polygon points="476.1865223152054 262.8531889818721 506.0589344899666 261.94106551003335 498.0821498502317 284.7488165168984 485.1717953216152 282.82820467838474"/><polygon points="10.829181028265719 309.4958476949323 36.20395653246563 305.12937680086765 36.90821024405951 335.5748769107261 15.03528931262477 326.2980440207085"/><polygon points="50.35098842634181 306.35098842634176 80.0002538685944 303.9997461314056 73.98627037900602 329.986270379006 54.00892209421166 329.9910779057883"/><polygon points="90.39388248925817 303.72721582259146 118.4724557516824 308.1942109149842 113.99542078203476 327.32875411536804 89.89954442849105 336.76712223817555"/><polygon points="132.0430544386092 302.70972110527583 164.02610484195887 305.3072284913744 158.28289898240413 328.94956564907073 143.46910839597962 325.8642249373537"/><polygon points="179.41083708669663 307.4108370866966 202.10693639341343 309.8930636065865 204.0235173353199 332.02351733531987 182.68848942850747 329.3115105714925"/><polygon points="218.00701233240096 303.3403456657343 244.17414310500703 310.49252356165954 251.56306622432658 336.89639955765983 228.52479125849524 326.14187540817136"/><polygon points="264.572827319935 307.23949398660164 293.19104866485264 304.1422846684806 287.72645008649795 330.3931167531646 260.13577128508325 337.19756204825"/><polygon points="305.03780790878284 305.03780790878284 335.5451825941726 304.45481740582727 330.0180929960252 330.0180929960252 310.2626468269741 329.7373531730258"/><polygon points="346.21518834842516 303.5485216817585 370.8673422069896 311.799324459677 375.3960596520086 332.7293929853419 355.9010710466417 326.7655956200249"/><polygon points="399.2580487488738 313.92471541554045 418.7556257280162 306.5777076053171 415.1687715062027 329.8354381728693 391.51992936285586 333.8134039704774"/><polygon points="442.4306401244503 314.4306401244503 464.92904092231623 303.07095907768365 455.09461729285744 327.09461729285744 442.190050936184 325.8099490638159"/><polygon points="475.5727505053003 304.9060838386336 500.0467410416619 310.61992562500467 505.3955655970219 334.72889893035523 484.00826879414495 326.6583978725216"/><polygon points="6.129066709282236 347.4624000426155 29.59822534530005 354.4017746546999 29.821638697474953 371.15497203080827 6.1648308358485515 377.8351691641514"/><polygon points="54.9034672653856 353.5701339320522 70.77161034902515 355.8950563176415 72.29983544686723 370.96650211353386 47.787818200882256 378.87884846578436"/><polygon points="95.61054217058353 351.61054217058347 119.35575962303152 349.9775737103018 122.7213052581122 378.7213052581122 89.30216404189763 380.0311692914357"/><polygon points="139.8763109524456 353.2096442857789 155.48661195852515 356.51338804147485 154.25926443986816 367.5925977732014 142.93596674738794 369.06403325261203"/><polygon points="181.46121939844872 352.1278860651153 205.84021119464137 348.82645547202526 206.90195005619273 377.56861672285936 175.99588694660918 378.67077972005745"/><polygon points="219.55911978128694 347.55911978128694 245.260958660129 352.0723746732043 247.45922489934745 375.4592248993474 229.36568126594835 367.9676520673849"/><polygon points="269.3334906960901 354.6668240294234 288.687246796226 351.3127532037739 292.79130604644774 378.12463937978106 266.657753375463 373.3422466245369"/><polygon points="306.02763972035467 348.69430638702136 325.60928771084247 357.0573789558241 331.4053254896528 374.0719921563195 303.1027873073167 379.56387935934987"/><polygon points="347.6721542333064 347.6721542333064 369.49554392233966 355.8377894109936 378.19139989420916 378.19139989420916 353.78500992009117 371.5483234132421"/><polygon points="391.1387530387278 348.47208637206114 418.75864033489154 349.2413596651084 415.68341621038456 373.0167495437179 397.36975674329926 370.6302432567006"/><polygon points="437.07398493398586 351.74065160065254 456.4712667777867 354.1953998888799 459.2207956586905 373.8874623253572 434.7868708471402 375.8797958195263"/><polygon points="476.3796419413139 348.3796419413139 500.9781799286969 352.3551534046364 495.5542852757985 367.5542852757985 481.81441132522855 371.5189220081047"/><polygon points="10.176542024932347 394.1765420249323 31.585824594181737 395.0808420724849 26.718132257519976 410.71813225752 4.215516351876563 422.4511503147901"/><polygon points="56.77356458941881 398.1068979227521 76.49861796941208 392.83471536392125 77.13791955274876 418.4712528860821 49.18864146727101 420.1446918660623"/><polygon points="89.87145258807959 388.5381192547462 116.12234650264395 395.87765349735605 122.96195112574495 421.6286177924116 89.62741554647047 422.3725844535295"/><polygon points="143.83507132182268 399.8350713218226 156.8684450293882 397.79822163727846 166.67454848583264 422.6745484858326 141.74667573219511 412.91999093447157"/><polygon points="182.8910361504296 396.2243694837629 199.82966355175773 397.5036697815756 201.1481173448548 414.4814506781881 177.23954221073498 420.09379112259836"/><polygon points="226.68089433994402 397.34756100661065 240.84072751210888 399.1592724878911 242.43721310740747 413.10387977407413 219.23264277552894 420.767357224471"/><polygon points="271.2981162360259 399.2981162360259 283.4941056587573 399.17256100790934 282.76416366968874 410.76416366968874 260.92625492078975 421.7404117458769"/><polygon points="312.734773597291 398.06810693062437 329.899376869755 395.4339564635783 326.774020969187 412.1073543025204 307.6504169014486 417.6829164318847"/><polygon points="356.84785779553687 399.51452446220355 372.92737194520305 395.0726280547969 373.6487832886583 416.315449955325 357.8561396298312 410.14386037016874"/><polygon points="392.3861794224296 392.3861794224296 411.7519924763302 398.9146741903364 420.19719324856453 420.19719324856453 398.45163214341005 412.2150345232566"/><polygon points="430.8346343469625 388.1679676802959 464.8751893045085 388.45814402882473 457.4930652863433 414.8263986196767 437.7919804512104 415.54135288212285"/><polygon points="481.5974599214687 396.2641265881354 496.3445888763271 399.6554111236728 498.48538830462707 413.15205497129375 473.25117478655244 422.7488252134475"/><polygon points="16.585413578125173 443.2520802447918 36.102625245761395 433.2307080875719 32.45318381992322 459.1198504865898 5.836329396549528 463.49700393678376"/><polygon points="47.9177556380388 431.9177556380387 73.33716939772842 438.6628306022715 79.59774220065336 463.59774220065333 47.58748114398818 464.4125188560118"/><polygon points="97.67295735642244 439.00629068975576 124.12747934359506 430.53918732307153 114.39426908235305 455.7276024156863 99.59240693644371 455.0742597302229"/><polygon points="132.69210572620594 431.35877239287254 164.102188570377 433.2311447629563 163.4180158669247 462.0846825335913 143.3271972557 454.0061360776333"/><polygon points="175.08317982645016 431.08317982645013 205.82670788472268 434.17329211527726 197.83517343373177 453.8351734337317 181.7643528129181 458.23564718708184"/><polygon points="221.71226481510539 435.04559814843867 249.8953318770545 432.7713347896121 249.58201192371476 462.91534525704805 219.61947466070123 463.04719200596537"/><polygon points="270.5395114720904 441.206178138757 287.56057100298136 437.7727623303519 283.7200920802695 454.38675874693615 262.6713475073552 462.66198582597804"/><polygon points="307.53689662917634 435.53689662917634 332.68501693529356 435.3149830647063 329.77445879052357 457.77445879052357 310.05094221667485 457.94905778332503"/><polygon points="350.27458213717154 435.60791547050485 374.02465066484365 436.6420160018229 377.5487158838259 462.8820492171592 349.5954831285445 461.07118353812206"/><polygon points="388.053730478632 430.72039714529865 413.92367147234955 439.4096618609837 418.70104579613144 461.36771246279807 393.27960197136724 460.053731361966"/><polygon points="437.4945034420432 437.4945034420432 464.8944992184144 431.1055007815855 456.6275401920964 456.6275401920964 441.3510138711565 454.6489861288434"/><polygon points="474.18010898411904 431.51344231745236 506.61253170610354 432.05413496056303 498.0377149162337 455.371048249567 476.4152943615664 462.2513723051002"/><polygon points="16.31752449010506 485.65085782343834 29.765454434631536 482.2345455653684 33.38452017237098 502.7178535057043 10.819628482309287 501.1803715176907"/><polygon points="48.512721064314775 475.17938773098143 79.25652217700927 475.41014448965734 71.58334529617055 498.25001196283716 49.14309072062347 505.52357594604314"/><polygon points="100.82314885970892 484.8231488597089 116.38574725613947 480.9475860771938 119.29796528134213 503.2979652813421 95.08678784223524 502.24654549109806"/><polygon points="144.38964283423883 485.72297616757214 160.7986165050229 479.2013834949771 160.1098697668943 501.4432031002276 141.96170594164064 498.0382940583593"/><polygon points="182.84066006932704 481.5073267359937 199.45512282206204 483.2115438446046 198.33240698325682 496.99907364992345 185.47556589631526 497.1911007703514"/><polygon points="219.95173482601734 475.9517348260173 247.10797433625203 478.2253589970813 248.47908400642368 504.47908400642365 219.03442653064948 506.2989068026838"/><polygon points="261.77327680856024 475.10661014189355 288.61394617819957 479.3860538218004 285.26663569463534 498.59996902796865 262.09745686488725 505.9025431351127"/><polygon points="304.459878194853 475.1265448615197 335.560026182656 475.1066404840106 328.90929911644685 499.57596578311353 311.82351880306015 498.8431478636064"/><polygon points="348.1867628662031 476.1867628662031 372.786008478363 480.54732485497027 369.3892534331679 497.3892534331679 354.06060896762216 499.2727243657111"/><polygon points="395.2338475919114 480.5671809252447 413.68051404695234 482.3194859530476 410.17365482004755 495.50698815338086 396.7765768035938 499.22342319640615"/><polygon points="431.69583803148925 474.36250469815593 461.5265411662067 477.1401255004599 458.0444758782886 500.7111425449553 437.27521755802024 501.3914491086463"/><polygon points="480.2186391532158 480.2186391532158 495.3981500928282 485.93518324050507 497.16561575758374 497.16561575758374 478.9839646139564 502.34936871937686"/>
</svg>
