<?xml version="1.0" encoding="UTF-8"?>
<svg xmlns="http://www.w3.org/2000/svg" id="RSSicon" viewBox="0 0 512 512" width="512" height="512">
  <defs>
    <style type="text/css">
      svg {
        background: black;
        margin: calc(50vh - 256px) auto 0;
      }
      
      polygon {stroke: darkorange; fill: none;}
    </style>
  </defs>
  <polygon points="8.202795360338419 8.202795360338419 30.999911006900227 11.666755659766437 27.257571551841515 27.257571551841515 9.813301771988428 32.853364894678236"/><polygon points="59.00923382744584 16.342567160779176 71.61536048636427 13.717972846969069 80.41995356067119 37.75328689400452 47.38089877716321 37.95243455617012"/><polygon points="96.64742782816087 11.31409449482755 111.84300407938564 16.15699592061435 123.53022943673614 38.19689610340281 101.80181084933201 26.19818915066797"/><polygon points="137.8368819139951 9.83688191399508 163.98458948464452 6.682077182022146 165.73826280460662 37.73826280460659 143.60510738354418 27.06155928312249"/><polygon points="180.98187646925558 10.315209802588916 208.45558081198777 4.877752521345553 205.11320827055604 34.44654160388937 185.04391424038812 28.289419092945206"/><polygon points="220.45783004947165 7.124496716138321 244.59749539669613 11.402504603303846 240.68295348955007 27.349620156216744 219.54455276361236 36.45544723638764"/><polygon points="266.9301615570091 10.930161557009113 290.00654526646133 8.660121400205334 287.23266721946845 31.232667219468496 262.46363245484366 36.20303421182298"/><polygon points="310.6883118706987 12.021645204032115 329.45446276555816 11.87887056777513 330.33990842388914 31.67324175722255 311.0106637408024 30.3226695925309"/><polygon points="347.13073385869535 5.797400525362075 370.78301908293867 13.216980917061319 372.6421349444575 31.30880161112418 349.6167910623253 34.38320893767467"/><polygon points="397.1036405453153 13.103640545315272 418.3047600290087 8.361906637657928 416.9519541619632 32.95195416196323 389.5158423718371 37.150824294829576"/><polygon points="442.83440811350056 16.16774144683392 464.43462245930596 4.898710874027326 463.0450608944789 36.37839422781232 434.70776140054863 34.62557193278464"/><polygon points="484.2238288263734 14.89049549304007 498.18281447322096 13.817185526779024 505.39811465675393 36.064781323420654 477.13425519010536 34.86574480989461"/><polygon points="8.899158498931467 51.565825165598135 29.038863148812062 56.29447018452127 34.23641857586561 76.90308524253228 4.500338719078496 80.83299461425483"/><polygon points="52.20876039270069 52.20876039270069 80.44135973887722 47.558640261122775 76.71217760033556 76.71217760033556 55.448046930680654 72.55195306931934"/><polygon points="95.83962576303179 53.17295909636513 114.27858071013256 56.388085956534105 114.27939340632008 71.61272673965343 89.8367582280734 80.82990843859325"/><polygon points="139.92915315307917 54.59581981974584 154.38284139538354 58.9504919379498 155.4809303790841 70.14759704575074 139.78684680042846 73.54648653290488"/><polygon points="177.96933790646136 49.96933790646136 206.8772476133397 49.12275238666029 206.63236030797137 78.63236030797138 174.93452619886747 81.06547380113253"/><polygon points="227.4510463235708 56.78437965690415 243.29854911193434 55.36811755473233 241.42688588785563 70.76021922118898 227.7000952770432 70.96657138962344"/><polygon points="265.3680874889172 52.03475415558387 290.02249970549053 51.31083362784277 284.8641257906706 71.53079245733728 260.21216739739054 81.12116593594274"/><polygon points="306.23017518135094 50.23017518135102 326.9569966270558 57.043003372944156 335.1326495586492 79.13264955864922 311.69956109170823 72.30043890829172"/><polygon points="355.44960642549273 56.782939758826096 371.26238220880464 55.404284457861976 375.057946009041 76.39127934237439 349.39402808725305 77.27263857941357"/><polygon points="391.4767622069855 50.143428873652184 420.5667191646315 48.76661416870183 416.27903650270406 74.94570316937072 390.8635589249521 78.46977440838123"/><polygon points="436.1636335416179 52.163633541617955 457.9334885866724 54.066511413327554 453.65729963940515 69.65729963940518 442.79729709278797 69.20270290721196"/><polygon points="479.0580935036131 52.39142683694649 508.05055555868205 46.61611110798457 503.6600104040276 76.99334373736096 481.19712633756143 73.46954032910521"/><polygon points="6.89151789490146 92.22485122823478 35.171330928039325 92.82866907196066 26.184609576880135 111.51794291021346 5.106958121083466 122.89304187891652"/><polygon points="55.91500765523679 98.58167432190345 76.71384117612945 93.95282549053721 80.80036163662348 123.46702830329014 46.88243164332386 123.7842350233428"/><polygon points="92.33833456521076 92.33833456521076 116.25905296089401 97.0742803724393 118.63808104025915 118.63808104025915 93.64314787866672 119.69018545466659"/><polygon points="139.19111181775284 96.52444515108617 157.6271862426382 98.37281375736178 154.05718903934977 111.39052237268307 143.62554784750543 112.37445215249456"/><polygon points="181.59520670254594 96.2618733692126 207.84544167762152 90.82122498904513 205.73890843857882 120.40557510524546 179.93724990226926 118.7294167643974"/><polygon points="218.69796594194995 90.69796594194995 240.3619140655988 100.97141926773453 249.7323025976309 121.7323025976309 223.1964773105845 118.13685602274882"/><polygon points="270.1887861991479 99.52211953248127 289.74577704189517 94.25422295810479 286.33366158893926 115.66699492227261 260.56983472429636 123.43016527570362"/><polygon points="306.18288268939557 92.84954935606227 333.3050336484837 93.3616330181829 325.96113730687534 112.62780397354204 307.40655654484976 119.26011012181687"/><polygon points="347.03146418440355 91.03146418440357 378.40427123191483 90.92906210141847 371.4036833794081 115.40368337940814 346.0802571883878 123.25307614494548"/><polygon points="398.27846958744215 99.61180292077549 419.46330682413543 92.53669317586457 413.18255758814536 114.51589092147869 391.240214813019 120.75978518698098"/><polygon points="442.6334404437492 101.3001071104159 462.2083617669431 92.45830489972354 463.90743295181005 122.57409961847675 441.60474026808214 113.06192639858445"/><polygon points="475.56622110209025 91.56622110209031 501.5175523915559 95.81578094177738 504.6849329655719 120.6849329655719 473.8980629616353 123.435270371698"/><polygon points="16.134459140983143 144.13445914098315 27.958198747049465 142.70846791961722 33.76305386004317 161.7630538600432 4.5358369370969776 166.1308297295697"/><polygon points="46.633837099123625 131.96717043245698 72.52904998525861 140.80428334807473 71.1893851226337 156.52271845596704 50.64262886620368 162.69070446712965"/><polygon points="92.02361508256047 134.69028174922715 120.64797275114478 135.35202724885522 111.7071000302114 154.37376669687808 90.97939504924794 165.02060495075204"/><polygon points="140.11600627291472 140.11600627291472 163.7277779095839 134.9388887570828 160.66402798305973 160.66402798305973 140.9602269605672 157.70643970609947"/><polygon points="181.7261511703414 139.05948450367475 204.07927191656327 137.25406141677007 204.47487234147627 161.8082056748096 182.8837017097545 158.44963162357885"/><polygon points="219.6907084303026 134.3573750969693 246.58163241943546 137.41836758056454 239.8192961603425 154.4859628270092 228.9424639574398 155.0575360425602"/><polygon points="269.72097815623044 141.7209781562305 291.74873686329863 134.917929803368 287.16522657332956 159.16522657332962 267.04921662214537 159.6174500445213"/><polygon points="309.4587746810282 138.79210801436165 331.2956200487259 138.0377132846074 332.4966481915893 161.8299815249227 307.6675683035895 161.66576502974377"/><polygon points="348.4329803564917 135.09964702315844 367.65961111528435 144.34038888471562 372.87977971395253 159.54644638061922 354.1380914005619 157.86190859943807"/><polygon points="397.7156239373722 141.71562393737221 420.10927278815586 134.55739387851082 420.79597993485885 164.79597993485888 396.02290365590756 158.6437630107591"/><polygon points="436.532937650493 137.86627098382644 453.7279979619851 143.60533537134813 459.5172249770564 160.85055831038983 439.25466512235806 158.0786682109752"/><polygon points="475.51186782980864 134.17853449647538 505.2294431622345 134.7705568377655 505.18682009228473 163.85348675895142 480.059923196148 159.94007680385198"/><polygon points="10.119847427211795 180.78651409387845 26.53658944567337 186.79674388765997 34.21796026106605 204.8846269277327 5.363438594349512 207.9698947389838"/><polygon points="46.5843571955926 174.5843571955926 75.42185292445902 180.57814707554098 76.48684054719496 204.48684054719496 48.20046280468879 207.79953719531122"/><polygon points="91.16577318804684 176.49910652138018 115.07906326024172 183.58760340642493 116.65561459829395 201.98894793162728 92.18566262393398 206.48100404273268"/><polygon points="136.52067927183757 179.18734593850422 157.15711614783302 184.17621718550032 159.60733675753067 202.27400342419733 136.73804716670858 204.59528616662476"/><polygon points="183.1621970033711 183.1621970033711 203.5284320073305 180.4715679926695 203.5264606589649 203.5264606589649 178.68157866277522 205.31842133722478"/><polygon points="229.2490761840232 186.58240951735655 250.20006267900243 176.46660398766423 247.16382582328322 204.49715915661656 217.56018828819109 209.10647837847557"/><polygon points="272.2309112185617 186.89757788522837 284.24899311299 185.08434022034334 285.8397272848131 200.50639395147977 265.80282057429247 203.53051275904087"/><polygon points="303.5560728136715 175.55607281367156 330.75559850601957 181.2444014939804 324.9337242477152 196.93372424771525 309.98270412400603 202.0172958759939"/><polygon points="348.3349533873363 177.66828672066967 370.9490562860662 183.71761038060043 377.9097243284629 207.24305766179629 357.4448671106983 197.22179955596837"/><polygon points="395.68083445515344 182.34750112182013 412.6510599257372 184.6822734075961 416.03395302136636 202.70061968803304 397.8469832115039 199.48635012182942"/><polygon points="442.49063216088695 186.490632160887 463.8942439465211 176.10575605347887 458.10027243728365 202.10027243728373 439.72265361267523 200.27734638732474"/><polygon points="482.0576238028212 183.39095713615455 501.1359727148969 181.5306939517697 504.20702995503916 205.54036328837253 485.1674467582553 197.49921990841128"/><polygon points="16.465197389343018 229.79853072267633 31.473672126716874 224.52632787328312 30.861935922485344 244.19526925581866 8.31058919177675 247.68941080822324"/><polygon points="56.50594188531918 227.17260855198583 76.55096885341689 222.11569781324977 74.43853573022642 245.10520239689308 56.831056516197094 241.83561015046956"/><polygon points="98.59592396513798 226.59592396513798 113.1897429477614 228.1435903855719 119.70985039890475 247.70985039890473 95.0385788365341 246.29475449679921"/><polygon points="134.85537179947852 220.18870513281183 162.99078711599816 221.00921288400184 163.81820521023707 249.15153854357038 142.36833195956936 241.63166804043064"/><polygon points="181.12328259945585 223.7899492661225 205.45851426405116 221.2081524026155 202.85683535675187 245.52350202341853 185.43563709067456 241.2310295759921"/><polygon points="229.6950139998779 229.6950139998779 243.39766088624467 225.93567244708865 239.71916339454526 239.71916339454526 221.22638970980054 248.10694362353277"/><polygon points="263.34299215209 220.67632548542332 291.54648273982576 220.4535172601742 290.5968474460489 247.93018077938225 271.2126714519376 240.78732854806242"/><polygon points="304.04685474751096 218.7135214141777 325.4054731515811 229.2611935150855 334.39334123123746 249.06000789790414 310.3783941411069 244.28827252555968"/><polygon points="348.05351307852777 220.0535130785278 369.9846300729911 227.3487032603422 367.935576744087 239.935576744087 349.0367648032479 248.29656853008544"/><polygon points="393.6964923053762 223.0298256387095 410.6794471364495 229.3205528635505 421.93004559292945 251.26337892626276 399.25449894507506 240.74550105492494"/><polygon points="441.8352770345193 228.501943701186 459.3060446830529 223.36062198361373 461.8733629086063 248.54002957527297 437.21084255498704 245.45582411167956"/><polygon points="484.93024731306605 228.93024731306608 506.5818254885067 218.75150784482656 506.06126210872935 250.06126210872935 476.56968413144915 248.76364920188414"/><polygon points="5.624140454095986 261.624140454096 33.98334696083073 264.6833197058359 29.05379450465645 285.0537945046564 4.109391863323072 294.5572748033436"/><polygon points="48.494010846178924 261.82734417951224 71.9039860835721 269.42934724976124 71.53463220345807 284.86796553679136 46.809781741986086 294.5235515913472"/><polygon points="98.69089543350708 269.3575621001737 117.10009672764365 266.8999032723563 118.62658116727216 289.29324783393884 89.20460757588704 294.79539242411295"/><polygon points="144.3698806463324 272.3698806463324 162.76373687259837 263.9029297940683 160.36605850065757 288.3660585006575 134.29892315715657 292.3677435095101"/><polygon points="177.5764596853407 262.909793018674 201.35970039391262 267.97363293942067 203.1147705947013 288.44810392803464 182.90890430375347 286.42442902957987"/><polygon points="227.2144849480898 269.88115161475645 244.0110181299586 267.98898187004136 247.05837181493416 289.7250384816008 228.99264509854487 283.00735490145513"/><polygon points="268.89951270671276 268.89951270671276 286.93163375592223 267.7350329107444 288.46768986066843 288.46768986066843 266.91628114903125 287.7503855176354"/><polygon points="309.1746773304482 266.5080106637816 327.62238331578993 269.7109500175433 329.29847418730986 286.63180752064324 313.9530877319281 283.38024560140514"/><polygon points="349.4976116966493 264.164278363316 375.9061915522168 264.09380844778315 371.64336538537157 286.31003205203825 356.90528689402674 283.0947131059732"/><polygon points="394.4767748516343 266.4767748516343 420.83366695941584 261.8329997072508 415.430568049663 287.430568049663 399.84931589677404 282.8173507698926"/><polygon points="442.4136987624825 271.7470320958159 462.6313503725461 262.7019829607872 459.8659870585829 289.1993203919163 436.5658146005295 288.76751873280375"/><polygon points="476.75968938965093 263.4263560563176 495.6500745114722 272.34992548852773 496.1988087112013 282.865475377868 473.24834413694526 294.7516558630547"/><polygon points="9.306297172994102 307.97296383966074 38.676884210635805 302.6564491226975 29.861069341790127 328.5277360084567 4.209803946186291 337.12352938714696"/><polygon points="57.62239911284935 313.6223991128493 74.54295289950599 309.4570471004939 75.96832992503461 331.96832992503454 56.76881137976265 327.2311886202373"/><polygon points="95.38880708024352 308.7221404135768 119.4908366055758 307.17583006109083 113.09353120998024 326.4268645433135 91.5193274176022 335.1473392490644"/><polygon points="137.54746842383892 308.2141350905055 160.7343400906404 308.59899324269287 156.41669526376657 327.08336193043317 134.90837552017481 334.42495781315847"/><polygon points="176.66703314430913 304.6670331443091 202.3568089849987 309.6431910150012 199.40245744324986 327.4024574432498 184.26449368790585 327.7355063120941"/><polygon points="228.99008580689178 314.3234191402251 249.8936883414939 304.7729783251727 240.79001688494247 326.12335021827573 228.7872205864264 325.8794460802402"/><polygon points="270.6989505317763 313.3656171984429 285.96186335168693 311.3714699816463 292.39816119252697 335.0648278591936 269.66511638018494 327.6682169531483"/><polygon points="304.7043135699805 304.7043135699805 330.8806267007454 309.1193732992545 335.8900487857975 335.8900487857975 308.2297224475208 331.77027755247906"/><polygon points="354.705834439311 312.0391677726443 379.9444058476419 302.72226081902465 368.70006443109355 326.03339776442687 345.2652597213058 337.40140694536075"/><polygon points="393.8910736339138 308.5577403005804 414.5063513131895 310.82698202014376 419.66440336667955 334.3310700333462 392.18015321496586 333.1531801183674"/><polygon points="433.13961400047197 305.13961400047197 460.3280500993971 307.6719499006028 462.86234540213263 334.86234540213263 435.08453866368546 332.9154613363144"/><polygon points="479.5188595635102 308.8521928968435 496.19766358884533 314.46900307782124 498.6366736052676 327.97000693860093 484.3457676527656 326.320899013901"/><polygon points="14.889181735476004 356.2225150688093 36.37359171951161 347.62640828048836 29.641042959733827 370.9743762930671 13.35244845702658 370.64755154297336"/><polygon points="54.60826070651004 353.2749273731767 79.90441424246089 346.7622524242057 70.23828975018239 368.904956416849 57.901216401439434 368.7654502652272"/><polygon points="93.4838608772473 349.48386087724725 117.71487028829044 351.61846304504286 123.34959079441062 379.3495907944106 93.59158709224155 375.74174624109173"/><polygon points="134.69102911846178 348.02436245179507 160.9842516825324 351.01574831746757 156.02230176018085 369.35563509351414 133.5995330238323 378.4004669761677"/><polygon points="179.73824408409052 350.40491075075715 201.4638565296135 353.2028101370531 197.04413107713103 367.7107977437976 179.78656503570483 374.8801016309618"/><polygon points="229.45355854453973 357.4535585445397 249.57891527407006 347.75441805926323 241.42982259380105 369.429822593801 221.3160102105483 376.01732312278494"/><polygon points="266.38840091894303 351.72173425227635 283.00852818382816 356.9914718161718 286.3276695069478 371.6610028402811 269.6286635207531 370.37133647924685"/><polygon points="313.91344699372377 356.58011366039045 333.7944557238804 348.8722109427862 327.8301841874369 370.49685085410357 305.6897320278263 376.97693463884025"/><polygon points="345.5402507154437 345.5402507154437 379.76375328615745 345.5695800471758 374.5776156096252 374.5776156096252 345.8865129576534 379.44682037567986"/><polygon points="396.4962130747664 353.8295464080997 418.18264353589063 349.8173564641093 410.41922642242804 367.75255975576135 399.77364607345817 368.2263539265417"/><polygon points="438.69246944371054 353.3591361103772 461.11043675084755 349.556229915819 465.4900466613331 380.1567133279998 434.4346026079888 376.2320640586778"/><polygon points="484.5779028312381 356.5779028312381 499.65055785740776 353.6827754759255 504.1322196658805 376.1322196658805 481.51626143533645 371.8170718979968"/><polygon points="9.261715701991575 393.26171570199153 29.37233856100612 397.2943281056605 35.04092660818005 419.04092660818003 12.347155397628605 414.31951126903806"/><polygon points="50.64010279351344 391.97343612684676 77.0892384429424 392.2440948903909 73.50064598046323 414.83397931379653 48.338890007043794 420.9944433262895"/><polygon points="90.49921473093326 389.1658813975999 118.58332257235092 393.41667742764906 121.25762507385319 419.92429174051983 92.68703274106653 419.31296725893344"/><polygon points="138.1878836223273 394.18788362232726 165.44281178205276 389.2238548846139 156.42328729022415 412.42328729022415 138.48520158383678 416.18146508282985"/><polygon points="182.73964081667177 396.0729741500051 205.312731141502 392.0206021918313 203.9583424890368 417.2916758223701 175.17215157416504 422.16118175916824"/><polygon points="227.05979367500836 397.726460341675 241.0288124274326 398.9711875725674 245.71208037010527 416.3787470367719 226.08622994359135 413.9137700564086"/><polygon points="265.1052150868119 393.1052150868119 293.8286216455005 388.8380450211661 288.0598011394443 416.0598011394443 270.4500360904017 412.21663057626495"/><polygon points="312.3966547473043 397.72998808063767 332.1669257370299 393.1664075963034 330.4046841405494 415.7380174738828 306.94607515699323 418.38725817634"/><polygon points="354.95576449870106 397.62243116536774 372.41280913342473 395.5871908665752 370.5041519243104 413.1708185909771 355.2329731857598 412.7670268142401"/><polygon points="391.32272751297904 391.32272751297904 413.51940468290417 397.14726198376246 412.0564637861814 412.0564637861814 396.86884651315046 413.79782015351617"/><polygon points="431.1588493351109 388.4921826684443 458.15953943564443 395.1737938976888 456.96446491315174 414.2977982464851 436.2568227547957 417.0765105785376"/><polygon points="473.8055611666797 388.4722278333464 498.27780894992077 397.7221910500792 495.38637449220613 410.0530411588728 478.9492309873078 417.0507690126921"/><polygon points="7.892432047956527 434.55909871462313 37.72298288145376 431.6103504518795 28.186051466752993 454.8527181334196 4.520202956682272 464.813130376651"/><polygon points="51.73028832820404 435.730288328204 80.09527044804946 431.9047295519505 71.74123419771313 455.7412341977131 55.98781656298781 456.01218343701214"/><polygon points="100.97479142132865 442.30812475466195 122.11386585322921 432.5528008134374 115.1792146810063 456.5125480143396 89.46758476680135 465.19908189986523"/><polygon points="137.13145183366342 435.79811850033 154.99103662826406 442.3422967050692 163.1585959912673 461.82526265793393 144.373907123076 452.9594262102573"/><polygon points="176.1793131087855 432.17931310878544 207.1009017640655 432.89909823593445 202.97379514053867 458.9737951405386 182.69642810542183 457.3035718945781"/><polygon points="223.2434937746367 436.57682710796996 248.56584623034075 434.1008204363259 247.01109200181045 460.34442533514374 222.14308623208265 460.52358043458395"/><polygon points="261.96750119612375 432.6341678627904 290.11639278174715 435.2169405515861 284.5816357153001 455.2483023819667 265.34074671106896 459.9925866222643"/><polygon points="306.65818178029417 434.65818178029417 334.37132403539005 433.62867596460984 331.06496735234845 459.06496735234845 311.76064468041545 456.23935531958443"/><polygon points="354.50854224518326 439.8418755785166 374.4006563725369 436.26601029412967 380.092080407434 465.42541374076734 348.91610558280746 461.7505610838591"/><polygon points="391.0865561594634 433.75322282613 422.066621775843 431.2667115574903 420.9961545527699 463.6628212194365 396.180905079203 457.15242825413026"/><polygon points="430.78631072593583 430.78631072593583 453.8906244494901 442.1093755505098 453.91677840243403 453.91677840243403 441.2796156529426 454.7203843470573"/><polygon points="475.54936043740156 432.8826937707349 497.58869084111046 441.0779758255561 499.33103836246687 456.6643716958002 484.47476690844485 454.1918997582217"/><polygon points="11.97851614198695 481.31184947532023 37.58722064626801 474.41277935373193 31.928074743224915 501.2614080765582 7.8567186820164565 504.1432813179835"/><polygon points="48.67096559976017 475.3376322664268 71.03534434275865 483.63132232390797 79.45247819569019 506.11914486235685 52.07481331653982 502.5918533501268"/><polygon points="97.33592930159851 481.33592930159847 123.87400789235 473.4593254409833 114.77210309727164 498.7721030972716 101.89601743095406 495.4373159023792"/><polygon points="138.99278898906636 480.32612232239967 158.57207403086178 481.4279259691382 160.01710149112878 501.35043482446207 143.74016748401613 496.2598325159838"/><polygon points="177.69233767147566 476.3590043381423 201.7779596505286 480.888707016138 202.67556877909777 501.3422354457644 177.53854408135072 505.1281225853159"/><polygon points="220.19015696298948 476.1901569629895 251.04211198638862 474.29122134694467 246.96753585200776 502.9675358520077 218.5286959071975 506.8046374261358"/><polygon points="271.2111313228604 484.5444646561937 294.19465074202617 473.8053492579738 283.5065371907206 496.83987052405394 270.0099007369906 497.99009926300937"/><polygon points="308.0136479866326 478.68031465329926 332.40605801320896 478.2606086534576 326.5532335139521 497.21990018061877 311.34709034446297 499.3195763222036"/><polygon points="346.8801040879658 474.8801040879658 369.90645633701587 483.4268769963174 371.29310185432223 499.29310185432223 349.14188832546 504.19144500787326"/><polygon points="399.69434886887086 485.0276822022042 415.25852365005585 480.7414763499441 416.22430766815575 501.55764100148906 400.3834172246305 495.61658277536947"/><polygon points="432.25715855886125 474.92382522552793 459.52071876673756 479.145947899929 459.51381622955654 502.1804828962232 441.6577857776756 497.008880888991"/><polygon points="485.222905088466 485.222905088466 501.10332636086537 480.2300069724679 499.89132958113447 499.89132958113447 480.44685128185637 500.8864820514769"/>
</svg>
