<?xml version="1.0" encoding="UTF-8"?>
<svg xmlns="http://www.w3.org/2000/svg" id="RSSicon" viewBox="0 0 512 512" width="512" height="512">
  <defs>
    <style type="text/css">
      svg {
        background: black;
        margin: calc(50vh - 256px) auto 0;
      }
      
      polygon {stroke: darkorange; fill: none;}
    </style>
  </defs>
  <polygon points="4.480028690289423 4.480028690289423 36.001125770629606 6.665540896037056 34.323881280511515 34.323881280511515 12.33192320914179 30.334743457524873"/><polygon points="56.559079431878295 13.892412765211628 75.67498451712757 9.658348816205768 74.07770503715113 31.41103837048447 57.96502851379114 27.368304819542193"/><polygon points="89.43454771040139 4.101214377068068 115.92064259497721 12.07935740502278 123.29083085672424 37.95749752339091 93.99856348574507 34.00143651425493"/><polygon points="139.95027805711345 11.95027805711344 165.23644470451467 5.430221962152009 157.9185687330533 29.918568733053277 144.24553334934194 26.42113331732474"/><polygon points="182.83867796454464 12.172011297877985 200.15420538464414 13.179127948689198 206.9653423311655 36.29867566449882 177.39337274464197 35.93996058869137"/><polygon points="221.13307647558574 7.799743142252419 249.2645680082714 6.735431991728593 247.00248799087476 33.66915465754144 229.43415894334652 26.565841056653476"/><polygon points="264.4099184981329 8.409918498132932 282.129878142638 16.536788524028616 292.2738978311471 36.273897831147124 267.1652858899696 31.501380776697058"/><polygon points="303.79823118105605 5.131564514389417 336.3944035544865 4.938929778846777 327.3491487987915 28.682482132124854 310.9031670214572 30.43016631187606"/><polygon points="349.0405820611871 7.707248727853774 368.7014015793656 15.298598420634358 371.772666226664 30.4393328933307 354.3786815063122 29.621318493687756"/><polygon points="392.0590266357068 8.05902663570679 418.1435494568274 8.5231172098393 420.4969682511718 36.49696825117178 392.1985970170269 34.46806964963975"/><polygon points="434.4632282713136 7.796561604647014 461.60330444084354 7.730028892489738 460.0952629436616 33.42859627699499 438.8891335647048 30.444199768628458"/><polygon points="484.9124067445294 15.579073411196081 505.8463977243258 6.153602275674135 501.47465415225383 32.141320818920555 474.1950080594903 37.80499194050966"/><polygon points="11.117413942433956 53.78408060910063 27.858370813843162 57.47496251949017 27.0252923812113 69.69195904787797 10.121468647616638 75.21186468571669"/><polygon points="56.0970554320526 56.0970554320526 74.13793581414134 53.86206418585865 72.92547821628044 72.92547821628044 49.12123888198644 78.87876111801356"/><polygon points="97.93482959212565 55.26816292545899 116.20559476136893 54.461071905297736 119.21420520814283 76.54753854147617 100.44843315300666 70.21823351366"/><polygon points="132.95291592811708 47.61958259478374 157.10257271851296 56.23076061482037 154.80138110844157 69.46804777510823 141.9677221230758 71.36561121025754"/><polygon points="175.6940509722799 47.69405097227991 198.11580152625243 57.884198473747574 204.74279062593808 76.7427906259381 185.9415014821402 70.05849851785979"/><polygon points="221.4085047409069 50.741838074240235 241.65240358991178 57.01426307675489 241.3215045646281 70.65483789796144 225.63710536587078 73.02956130079589"/><polygon points="265.48222260330687 52.14888926997357 289.0837762415157 52.24955709181759 287.5914515587567 74.25811822542342 268.90959890751145 72.42373442582183"/><polygon points="308.7779730427576 52.77797304275762 327.2141020376801 56.78589796231984 326.6921715137047 70.69217151370475 305.8089590589748 78.19104094102515"/><polygon points="351.28385102729277 52.61718436062617 377.1588509879539 49.50781567871276 368.19142294029183 69.52475627362521 350.94664208836593 75.7200245783007"/><polygon points="391.76961703985125 50.43628370651791 421.02984794501464 48.303485388318684 422.23102854310366 80.89769520977035 399.53377099215226 69.79956234118104"/><polygon points="440.3690768735333 56.36907687353333 460.5578317673101 51.44216823268982 453.3800271578294 69.38002715782943 436.483624223171 75.516375776829"/><polygon points="473.82579539117216 47.15912872450552 500.8711710831422 53.79549558352442 504.23954281189833 77.57287614523173 478.03336864917605 76.63329801749059"/><polygon points="5.443204436871174 90.7765377702045 35.28115270422153 92.71884729577846 32.75774557987613 118.09107891320946 6.371845171260265 121.62815482873972"/><polygon points="57.03784128682217 99.70450795348883 74.28411483082701 96.38255183583965 74.39693774920687 117.06360441587353 51.55284658819078 119.11382007847587"/><polygon points="93.99890788344733 93.99890788344733 124.0858605654093 89.24747276792401 113.28920422211456 113.28920422211456 90.35871512518266 122.97461820815066"/><polygon points="134.33457549590156 91.66790882923488 165.87310342195136 90.12689657804864 158.99408038825518 116.32741372158851 136.36992223011367 119.63007776988634"/><polygon points="179.90569419166022 94.57236085832686 208.88302412983109 89.78364253683556 202.5873291082138 117.25399577488045 184.0002079786247 114.66645868804196"/><polygon points="225.0549444563058 97.0549444563058 247.6772691711992 93.6560641621341 245.13927508102265 117.13927508102265 217.698778695133 123.63455463820031"/><polygon points="262.308969294639 91.64230262797234 293.11831690358804 90.88168309641195 286.3714929299639 115.70482626329725 264.43305321086456 119.56694678913541"/><polygon points="307.2620525296554 93.92871919632213 325.67387546474475 100.99279120192188 333.49187781474967 120.1585444814164 302.8009243642733 123.8657423023933"/><polygon points="345.5918397513855 89.59183975138552 377.17969724801657 92.15363608531669 373.0508420686817 117.05084206868169 355.6999590097352 113.63337432359808"/><polygon points="394.3027927655325 95.63612609886586 415.1964133795441 96.80358662045589 414.60498890017266 115.93832223350599 398.4154790274067 113.58452097259325"/><polygon points="436.9548996458608 95.6215663125275 452.9703586931782 101.6963079734884 462.8210840164779 121.48775068314464 432.1133102429856 122.55335642368098"/><polygon points="477.302336141545 93.30233614154504 498.3352064300536 98.99812690327971 496.0875231862018 112.08752318620184 480.801300676133 116.5320326572003"/><polygon points="12.477882645379157 140.47788264537917 38.58219463580387 132.0844720308628 28.591732595568935 156.59173259556894 3.8574938680745205 166.80917279859216"/><polygon points="49.563314836337305 134.89664816967064 69.26086142699128 144.07247190634206 76.9312383425696 162.26457167590294 58.10687766475611 155.22645566857722"/><polygon points="101.68927615379765 144.35594282046432 115.89522077139728 140.10477922860272 120.31661761899879 162.9832842856655 90.96767352937022 165.03232647062978"/><polygon points="136.25258883172054 136.25258883172054 162.82620406530788 135.8404626013588 159.7243938325605 159.7243938325605 132.97684812014072 165.68981854652597"/><polygon points="181.3117647274963 138.64509806082964 208.5561941315903 132.77713920174304 204.7605395014244 162.09387283475775 185.9023662627019 155.43096707063145"/><polygon points="227.70451838703923 142.37118505370591 244.01180270968592 139.98819729031408 239.6852707893077 154.3519374559744 217.74059150544682 166.25940849455318"/><polygon points="260.12554072127 132.12554072127006 285.485414981974 141.18125168469268 283.6895292426352 155.68952924263527 260.2039425466362 166.46272412003046"/><polygon points="304.4688858976753 133.80221923100868 333.4280464036205 135.9052869297128 327.2894458088055 156.6227791421389 311.3629062493142 157.97042708401904"/><polygon points="354.1677086512285 140.8343753178952 369.9299130153564 142.07008698464358 370.5940381612828 157.2607048279495 354.1644370784448 157.83556292155518"/><polygon points="392.6437726197534 136.64377261975343 420.747098218978 133.91956844768865 420.7790647673556 164.77906476735564 391.8926906037962 162.77397606287042"/><polygon points="438.1229064151288 139.45623974846222 453.81268433436077 143.52064899897252 461.7033643892183 163.03669772255165 438.50988374007994 158.82344959325337"/><polygon points="479.3871052940818 138.0537719607485 496.4734396199684 143.52656038003155 501.95345716320617 160.62012382987285 482.2923490507314 157.70765094926858"/><polygon points="5.614825914189337 176.281492580856 36.017217392237924 177.3161159410954 28.55849217292357 199.22515883959025 15.048241398798817 198.2850919345345"/><polygon points="54.58747652758968 182.58747652758967 74.29863758449105 181.70136241550895 80.07602346420892 208.0760234642089 53.38767878534338 202.61232121465662"/><polygon points="94.2615122542039 179.59484558753724 115.64282276368213 183.0238439029845 113.66682354993218 199.0001568832655 100.60813195083027 198.05853471583637"/><polygon points="135.6742292413204 178.34089590798706 164.8395137109151 176.49381962241824 163.3451295231484 206.01179618981504 141.86601725222243 199.46731608111094"/><polygon points="180.84831240778473 180.84831240778473 209.4594150062869 174.5405849937131 205.661359763607 205.661359763607 180.44721877469388 203.55278122530612"/><polygon points="222.65697338273614 179.99030671606948 240.8018610078695 185.86480565879717 240.17173342898866 197.505066762322 219.79426415108964 206.87240251557702"/><polygon points="266.482539021033 181.14920568769966 290.1623769181006 179.1709564152327 289.75518421695585 204.42185088362257 268.3774398386915 200.95589349464183"/><polygon points="311.8567589157119 183.85675891571194 335.35292465383617 176.64707534616377 334.1557985059906 206.1557985059907 303.71747818763174 208.2825218123682"/><polygon points="345.63469705305033 174.9680303863837 370.3425518290474 184.3241148376192 367.4270849573889 196.7604182907223 357.4835396319928 197.1831270346738"/><polygon points="400.09043028367074 186.75709695033743 421.74977138946963 175.58356194386369 414.92869533761046 201.59536200427715 392.41281467338644 204.92051865994685"/><polygon points="437.6497182454547 181.6497182454548 455.3695996231778 184.6304003768221 454.34697773843806 198.3469777384381 441.84137272365564 198.15862727634433"/><polygon points="483.7881830441935 185.1215163775269 506.1732994575828 176.49336720908383 499.9074375308832 201.2407708642166 475.1141851433402 207.55248152332646"/><polygon points="12.479998144301026 225.81333147763436 29.06814724835673 226.93185275164325 32.754919706192695 246.08825303952602 12.928156220498025 243.07184377950196"/><polygon points="55.959969346542096 226.62663601320875 68.79718929340575 229.8694773732609 70.28290299263324 240.9495696592999 58.72181240706019 239.94485425960647"/><polygon points="97.62522655234383 225.62522655234383 115.71457617238806 225.61875716094525 120.57314211989141 248.57314211989143 96.8410285294157 244.49230480391762"/><polygon points="143.2970987448584 228.63043207819172 162.2175234076586 221.7824765923414 166.78753134314252 252.12086467647583 140.32370507532244 243.67629492467756"/><polygon points="184.89230875903667 227.55897542570335 206.1250607112334 220.54160595543325 197.3785346049465 240.04520127161317 177.02864315788395 249.6380235087827"/><polygon points="221.6625691752763 221.6625691752763 248.61314151440456 220.72019181892875 239.39018359983223 239.39018359983223 228.4082337674728 240.9250995658605"/><polygon points="272.607574885818 229.94090821915134 289.77650113908237 222.22349886091763 291.4072637917949 248.74059712512826 267.45633716337915 244.54366283662083"/><polygon points="309.3970663491481 224.0637330158148 335.32408096750794 219.34258569915866 331.7020692672479 246.3687359339146 315.02341568445075 239.64325098221585"/><polygon points="349.35977567415836 221.3597756741584 367.54911844583427 229.78421488749902 379.2514859911685 251.25148599116855 355.42641581779696 241.9069175155363"/><polygon points="400.0308419427736 229.3641752761069 421.5177263219192 218.48227367808076 411.46709476389435 240.8004280972277 399.6849799894112 240.31502001058874"/><polygon points="431.81944450529323 218.48611117195992 462.29064974943253 220.3760169172341 456.95796049807745 243.62462716474417 440.9756123359057 241.6910543307609"/><polygon points="482.3662895667255 226.36628956672553 495.71931149473033 229.61402183860292 497.9215485917947 241.92154859179476 482.71792034312625 242.61541299020703"/><polygon points="11.851958039495832 267.8519580394958 26.209940157630644 272.456726509036 30.60916183039304 286.609161830393 14.42547141387946 284.2411952527872"/><polygon points="48.30416014902628 261.6374934823596 72.99052670389335 268.34280662943996 73.15592765613057 286.4892609894639 50.77993380334348 290.55339952998986"/><polygon points="93.11712718542258 263.7837938520892 117.84261658069487 266.1573834193051 122.45970539378374 293.12637206045036 92.10313588669432 291.89686411330564"/><polygon points="137.5540066794744 265.55400667947436 158.34523069123503 268.3214359754316 162.22299001399153 290.22299001399153 137.79747300731248 288.86919365935415"/><polygon points="186.8792280992514 272.2125614325847 199.8818018823954 269.4515314509379 201.29062707223105 286.62396040556433 182.9357084137245 286.3976249196088"/><polygon points="222.87047153198944 265.53713819865607 240.83974513167996 271.16025486832 243.92249509252053 286.5891617591872 222.67857344432275 289.32142655567725"/><polygon points="272.40808348610364 272.40808348610364 285.40042587825894 269.2662407884077 286.7649370642705 286.7649370642705 272.26115267009436 282.40551399657227"/><polygon points="309.1867644182296 266.52009775156296 333.86534381783076 263.4679895155025 336.18999495456876 293.52332828790213 306.37082396091694 290.9625093724163"/><polygon points="351.71691370760357 266.38358037427025 375.335607777111 264.6643922228889 378.91571902838956 293.58238569505625 350.43365143180057 289.5663485681994"/><polygon points="398.34161077897977 270.34161077897977 418.1133199619916 264.55334670467505 419.36880413815004 291.36880413815004 399.40937253510606 283.25729413156057"/><polygon points="433.7083419044674 263.04167523780075 455.857775158087 269.47555817524625 462.09708735711934 291.4304206904527 432.8790492845963 292.45428404873695"/><polygon points="482.00396818962 268.6706348562867 504.15400205647734 263.8459979435226 495.4100349134717 282.0767015801384 484.86704255926213 283.1329574407378"/><polygon points="14.768435979446362 313.43510264611297 38.26389320020402 303.06944013312926 28.34578592753378 327.0124525942004 16.262697655370694 325.07063567796257"/><polygon points="46.724379341342136 302.72437934134206 71.30514025095567 312.69485974904427 81.00003686346976 337.0000368634697 51.18791914468939 332.81208085531057"/><polygon points="92.91260963939934 306.2459429727326 122.9362618120619 303.73040485460467 124.0500660484469 337.3833993817802 89.91285066746161 336.753815999205"/><polygon points="133.2622397836232 303.9289064502898 162.6984466796803 306.634886653653 158.71434073088804 329.38100739755464 132.04363457644172 337.28969875689154"/><polygon points="186.0964345155139 314.0964345155138 198.37308302633664 313.6269169736633 201.22833911213127 329.2283391121312 181.56551517898154 330.43448482101843"/><polygon points="225.46239209999655 310.79572543332984 250.19715505796947 304.46951160869713 246.64874828368664 331.9820816170199 217.5055817341697 337.1610849324969"/><polygon points="270.6188326207356 313.2854992874022 291.4545848011126 305.87874853222064 282.75621775821446 325.4228844248811 269.17096165972265 328.1623716736106"/><polygon points="310.7373367338477 310.7373367338477 336.25477433297885 303.74522566702103 333.30078124657797 333.30078124657797 305.05002066387067 334.9499793361292"/><polygon points="355.88989326387167 313.223226597205 369.10821895658114 313.55844771008543 375.01334559858196 332.3466789319153 354.2266110104291 328.44005565623746"/><polygon points="389.76250207395503 304.42916874062166 422.18441717942176 303.1489161539115 416.26236359109106 330.9290302577577 392.15836830263834 333.1749650306949"/><polygon points="431.217341495749 303.217341495749 460.31158551659627 307.6884144834036 464.34704437421266 336.34704437421266 438.6121327996722 329.38786720032766"/><polygon points="474.4243582348836 303.7576915682169 495.6448247449105 315.02184192175605 505.0765285176681 334.40986185100144 476.9687595831659 333.6979070835007"/><polygon points="13.690574798905363 355.02390813223866 36.7514413645782 347.2485586354218 32.86722512581153 374.2005584591448 8.323818096585406 375.67618190341454"/><polygon points="54.376707107132674 353.0433737737993 75.77428012053974 350.8923865461269 81.37998658222445 380.04665324889106 48.79239262724543 377.8742740394212"/><polygon points="95.09562390586977 351.09562390586973 115.50466252998206 353.8286708033512 119.83407904906049 375.83407904906045 97.04693471572932 372.28639861760394"/><polygon points="140.8427259823387 354.176059315672 155.11127243657512 356.8887275634248 164.50014011560503 377.8334734489383 136.79012917392402 375.209870826076"/><polygon points="178.4711259118842 349.13779257855083 197.01335616770976 357.6533104989569 203.3660036241208 374.0326702907874 176.5188289418267 378.1478377248399"/><polygon points="219.06131469727725 347.0613146972772 250.64627765340575 346.68705567992754 240.15737732686875 368.1573773268687 220.53004976001026 376.80328357332303"/><polygon points="261.6220260080667 346.9553593414 285.5325720482472 354.46742795175277 283.17024508048024 368.50357841381356 267.7131243951114 372.28687560488856"/><polygon points="311.7039029402767 354.3705696069434 329.7277499982751 352.93891666839147 327.5726166016152 370.2392832682819 311.17605896796596 371.4906076987006"/><polygon points="356.35912847802723 356.35912847802723 377.8755878103333 347.45774552299997 376.0981109044927 376.0981109044927 352.74178566668155 372.5915476666517"/><polygon points="389.8071140742803 347.14044740761364 414.5282854931018 353.47171450689814 417.5497319764156 374.88306530974893 389.3139178718128 378.68608212818714"/><polygon points="431.29126670555263 345.9579333722193 457.58812009163694 353.07854657502963 456.845405111094 371.51207177776064 434.7236960875348 375.9429705791318"/><polygon points="484.302332889709 356.302332889709 496.7150622096959 356.6182711236374 501.7053953063609 373.7053953063609 482.70002989295955 370.6333034403737"/><polygon points="12.0774597259077 396.07745972590766 29.42383364463126 397.24283302203537 36.58284769028322 420.5828476902832 5.616749726533856 421.0499169401328"/><polygon points="54.04884135016117 395.3821746834945 70.16068815566929 399.17264517766404 76.50834936599708 417.84168269933036 49.68798494202096 419.6453483913124"/><polygon points="95.2702482320158 393.93691489868246 114.33681196837298 397.663188031627 123.9037192584246 422.5703859250913 92.0513916579238 419.94860834207617"/><polygon points="137.41215168399162 393.4121516839916 166.69275655711067 387.97391010955596 157.08408444666975 413.0840844466697 132.68540682210357 421.98125984456306"/><polygon points="184.54698054822083 397.8803138815542 208.01942010863849 389.31391322469483 199.22715276498872 412.56048609832203 177.8374353633822 419.4958979699511"/><polygon points="217.58694650694684 388.2536131736135 250.6158558212102 389.38414417878977 243.90576308908746 414.5724297557541 227.3358828333065 412.6641171666935"/><polygon points="269.241662935998 397.241662935998 282.22652545562033 400.4401412110463 293.2137968300439 421.2137968300439 267.3693461492157 415.29732051745094"/><polygon points="304.8859537740031 390.21928710733647 324.9516504949054 400.3816828384279 328.40357293122327 413.73690626455664 312.3926034672696 412.94072986606363"/><polygon points="350.04102294972427 392.70768961639095 374.32780729121697 393.672192708783 368.6720743737462 411.3387410404129 353.91908871700707 414.0809112829929"/><polygon points="400.32287917673835 400.32287917673835 412.11319849038176 398.55346817628487 413.81824746421967 413.81824746421967 397.45256963125235 413.2140970354143"/><polygon points="438.9324553370596 396.26578867039296 463.41033581202737 389.9229975213059 459.0475539037971 416.3808872371305 440.17620616685247 413.1571271664808"/><polygon points="475.7448412812326 390.4115079478993 496.6102516451092 399.38974835489074 506.6862942736592 421.3529609403259 474.2616465210792 421.73835347892077"/><polygon points="12.425618037245824 439.0922847039124 37.43386935356678 431.8994639797665 28.182645986783193 454.84931265344983 7.159384082247147 462.1739492510861"/><polygon points="51.47649387700134 435.4764938770013 72.28786977421491 439.712130225785 80.91087054067285 464.9108705406728 53.0834674911048 458.91653250889516"/><polygon points="91.06485200951776 432.39818534285104 121.04626313145094 433.62040353521564 122.94870694834971 464.282040281683 95.1158798955845 459.55078677108213"/><polygon points="144.1050262574866 442.77169292415323 157.68400582645992 439.64932750687336 164.8575208622875 463.5241875289541 142.11338922507798 455.21994410825533"/><polygon points="184.3992084554735 440.39920845547346 205.5600321347442 434.4399678652557 204.47558135848888 460.47558135848885 185.18353128757 454.81646871243"/><polygon points="225.89227425715714 439.2256075904904 247.09150921631894 435.57515745034766 241.63741531549093 454.9707486488242 227.58304158953516 455.08362507713144"/><polygon points="260.05501773630624 430.72168440297287 282.2251985298824 443.10813480345087 286.6637882504954 457.330454917162 271.2102050140566 454.12312831927665"/><polygon points="311.0116485316377 439.0116485316377 326.4018041269031 441.5981958730968 328.02575400080127 456.02575400080127 310.16595007595964 457.83404992404024"/><polygon points="346.21737048813736 431.5507038214707 369.94525504158383 440.72141162508274 368.64696251565897 453.9802958489923 356.0987009779555 454.56796568871107"/><polygon points="390.5041831013288 433.17084976799543 417.8204219366732 435.51291139666006 418.71553230783815 461.3821989745048 393.57519785746086 459.7581354758724"/><polygon points="442.3824018366627 442.3824018366627 458.7014264467583 437.29857355324157 463.2484369769276 463.2484369769276 438.59620988393414 457.40379011606575"/><polygon points="479.08313860207795 436.41647193541127 505.4332728872221 433.23339377944455 503.1043998000024 460.4377331333357 485.46484891168296 453.2018177549836"/><polygon points="8.962576849069132 478.29591018240245 37.92415887473015 474.0758411252698 35.59456185943361 504.9278951927669 5.117254170996141 506.8827458290038"/><polygon points="58.28116418951507 484.94783085618167 79.37381452530369 475.29285214136297 68.95761673019031 495.6242833968569 56.273295811227456 498.3933708554392"/><polygon points="91.8166256485982 475.8166256485982 118.3063355862953 479.02699774703797 112.38605031305387 496.38605031305383 99.84901127608387 497.4843220572494"/><polygon points="141.9847310692861 483.3180644026194 163.32335497619914 476.6766450238008 165.54027661654092 506.8736099498742 141.8543533223301 498.1456466776699"/><polygon points="186.04387860518943 484.71054527185606 207.32760606574635 475.3390606009203 205.33792009337606 504.0045867600427 177.80950972639442 504.8571569402722"/><polygon points="229.76191505520728 485.7619150552072 245.07748015624804 480.2558531770852 242.74327211014483 498.7432721101448 221.10477940472717 504.2285539286061"/><polygon points="260.37893580556664 473.71226913889996 290.08371606782754 477.9162839321724 291.95434545775504 505.28767879108835 262.28533133063337 505.7146686693666"/><polygon points="313.6469847225884 484.3136513892551 336.4141860200955 474.2524806465711 335.1469162536867 505.8135829203534 314.1557310377426 496.51093562892396"/><polygon points="351.38020547594874 479.38020547594874 369.31410721184085 484.0192261214924 370.3440723002321 498.3440723002321 347.88059066743716 505.4527426658961"/><polygon points="396.85089214242754 482.18422547576085 412.43678735731527 483.5632126426847 414.9171560196408 500.2504893529741 399.65419180454967 496.3458081954503"/><polygon points="434.5886843974906 477.2553510641573 459.83878194062504 478.8278847260415 454.21009279820925 496.87675946487593 436.3664349956168 502.30023167104974"/><polygon points="485.76924616804223 485.76924616804223 498.3586644096788 482.97466892365446 499.687289446592 499.687289446592 473.36517206654656 507.9681612667867"/>
</svg>
