<?xml version="1.0" encoding="UTF-8"?>
<svg xmlns="http://www.w3.org/2000/svg" id="RSSicon" viewBox="0 0 512 512" width="512" height="512">
  <defs>
    <style type="text/css">
      svg {
        background: black;
        margin: calc(50vh - 256px) auto 0;
      }
      
      polygon {stroke: darkorange; fill: none;}
    </style>
  </defs>
  <polygon points="14.909307788046167 14.909307788046167 31.406236412274417 11.260430254392245 28.072851027044027 28.072851027044027 6.695269589316611 35.971397077350055"/><polygon points="57.99944017462167 15.332773507955 76.95522828652477 8.378105046808555 80.25753979235678 37.59087312569011 59.11004457153042 26.223288761802905"/><polygon points="96.36937736890981 11.036044035576479 116.55797527825997 11.442024721740019 122.2667288265472 36.93339549321387 97.08877544003434 30.911224559965653"/><polygon points="142.86883667353067 14.868836673530645 166.45183715002048 4.214829516646187 159.043171715659 31.043171715659007 136.9713995030901 33.69526716357656"/><polygon points="181.87735366493527 11.210686998268597 209.27094419717292 4.062389136160402 199.35863123695043 28.691964570283748 181.21829735063872 32.11503598269461"/><polygon points="227.52028235323115 14.186949019897824 241.22929081475945 14.770709185240527 245.24297940356522 31.909646070231894 228.15791363248056 27.84208636751944"/><polygon points="270.24807725077864 14.248077250778646 290.4885466033772 8.178120063289482 286.2093232725117 30.20932327251171 270.6262658329821 28.040400833684572"/><polygon points="308.5382310171106 9.87156435044402 328.0856961946802 13.247637138653065 335.7894943735019 37.12282770683528 308.88382407913537 32.44950925419791"/><polygon points="352.18288048142847 10.84954714809516 377.28021669065737 6.719783309342585 368.8510761384884 27.51774280515508 349.7391956128256 34.26080438717439"/><polygon points="396.26437906861383 12.26437906861388 411.4344424444854 15.232224222181223 413.247746754145 29.24774675414501 388.64191085501056 38.02475581165607"/><polygon points="436.21262959586693 9.54596292920029 461.00585586592365 8.327477467409597 464.2473216750668 37.5806550084002 431.53278717331074 37.800546160022535"/><polygon points="479.79357797962774 10.460244646294472 502.1331553529591 9.866844647040889 501.2880205391783 31.95468720584502 485.96173979027384 26.038260209726147"/><polygon points="11.262398202277911 53.92906486894458 33.340399540698144 51.99293379263519 34.560672901052925 77.22733956771958 14.971738128005306 70.36159520532803"/><polygon points="47.168236683913484 47.168236683913484 69.85972397163711 58.14027602836289 76.74285767287313 76.74285767287313 52.14950843170614 75.85049156829386"/><polygon points="94.33750155152295 51.6708348848563 115.55489176548089 55.11177490118576 119.04420423869223 76.37753757202557 89.8170172539566 80.84964941271005"/><polygon points="142.9819856330777 57.64865229974436 165.0718342971691 48.26149903616424 160.67861135629983 75.34527802296648 137.0086771314877 76.32465620184564"/><polygon points="180.02828906085657 52.02828906085656 209.24813976940882 46.75186023059116 202.7384887776751 74.7384887776751 178.84663680951041 77.1533631904896"/><polygon points="218.4714027635252 47.80473609685853 241.67886349530062 56.98780317136604 243.35659199434386 72.6899253276772 223.976182015158 74.69048465150864"/><polygon points="267.41602033379394 54.0826870004606 294.09191467189146 47.24141866144187 289.07825370135254 75.7449203680192 265.6249122044819 75.70842112885138"/><polygon points="307.78129955111234 51.78129955111241 330.95402883833736 53.045971161662585 335.319536102573 79.31953610257308 314.4316640429274 69.56833595707249"/><polygon points="349.70069481893677 51.03402815227017 379.94416185000324 46.72250481666339 374.464206566714 75.79753990004734 347.9841934757421 78.68247319092457"/><polygon points="396.05653278790015 54.723199454566824 412.18021848028604 57.153114853047285 417.941073913612 76.6077405802787 389.7707000385271 79.56263329480623"/><polygon points="433.5205010205264 49.52050102052648 462.45291409999857 49.54708590000135 455.1460832623096 71.14608326230969 437.2289116226039 74.77108837739604"/><polygon points="478.60469646371155 51.93802979704492 502.669845691254 51.996820975412625 497.4901439998516 70.82347733318497 473.52012401827807 81.14654264838859"/><polygon points="7.9318831012241 93.26521643455743 31.006520801161777 96.99347919883822 28.63290747373884 113.96624080707217 6.124722102963556 121.87527789703643"/><polygon points="53.92229387207882 96.58896053874548 75.71499350365316 94.9516731630135 75.41543016804438 118.08209683471104 55.01727400558592 115.64939266108074"/><polygon points="100.46818531810091 100.46818531810091 115.24708957690184 98.08624375643147 118.31419135510181 118.31419135510181 101.53907612385576 111.79425720947755"/><polygon points="141.89655104284773 99.22988437618106 154.8299384275004 101.17006157249962 155.7266178814151 113.05995121474842 142.24085278701205 113.75914721298795"/><polygon points="179.01325591334412 93.6799225800108 208.64150593136287 90.02516073530379 201.31149448387268 115.97816115053934 183.58043838079982 115.08622828586684"/><polygon points="219.28931727575005 91.28931727575005 247.97416046248483 93.35917287084848 247.70974650796853 119.70974650796852 220.90370175784972 120.4296315754836"/><polygon points="270.6769244286605 100.01025776199388 287.18000827719004 96.81999172280992 294.02408027786964 123.35741361120301 262.38796447503717 121.61203552496278"/><polygon points="308.97694352084056 95.64361018750729 326.3473640528892 100.31930261377741 326.0216113331576 112.68827799982431 305.9789025308272 120.68776413583936"/><polygon points="346.42374032047576 90.42374032047579 378.8668797726383 90.466453560695 372.1105498877729 116.11054988777292 353.11427137655943 116.21906195677388"/><polygon points="392.4010922162509 93.73442554958423 414.1615400053564 97.83845999464359 412.975836281915 114.30916961524836 394.2079032747325 117.79209672526747"/><polygon points="439.18249383523613 97.84916050190287 463.9611055520348 90.70556111463179 458.0454891627971 116.7121558294638 435.9882049143747 118.67846175229191"/><polygon points="480.9482896679533 96.94828966795335 502.8123702849378 94.5209630483955 507.8719232874697 123.87192328746974 484.94243965178083 112.39089368155246"/><polygon points="14.574346342379084 142.5743463423791 36.34154848918358 134.3251181774831 33.995075586587646 161.99507558658766 16.321836942987222 154.34482972367945"/><polygon points="48.3358456531693 133.66917898650266 73.59913739028096 139.73419594305238 75.3281023782769 160.66143571161024 51.743955416284415 161.58937791704892"/><polygon points="93.58572697360447 136.25239364027115 117.37106610729325 138.62893389270675 118.71344436713335 161.38011103380003 89.31915534435831 166.6808446556417"/><polygon points="138.97109569912234 138.97109569912234 162.39626836380856 136.27039830285813 156.49642512588989 156.49642512588989 135.64031868220823 163.02634798445845"/><polygon points="178.20311410743838 135.53644744077172 202.96134094966808 138.37199238366526 199.30201405475435 156.6353473880877 178.34762129008092 162.98571204325242"/><polygon points="229.05738853457999 143.72405520124667 244.70036223704713 139.29963776295287 250.12764173371298 164.79430840037966 225.36750007984844 158.63249992015156"/><polygon points="260.7594528170936 132.7594528170936 288.89928053148174 137.76738613518492 290.0104755373389 162.01047553733892 267.87058732902295 158.7960793376437"/><polygon points="314.9306294070031 144.2639627403365 332.192962241337 137.14037109199631 327.1121956887301 156.44552902206348 309.723341792002 159.6099915413313"/><polygon points="357.6750539868757 144.3417206535424 375.12990652811817 136.87009347188183 369.99965250462213 156.66631917128888 350.29957659776846 161.70042340223148"/><polygon points="392.9863391028272 136.98633910282723 414.7674585521231 139.89920811454357 412.41882808418296 156.418828084183 390.0326992110356 164.63396745563105"/><polygon points="434.78664970091364 136.11998303424704 454.5325352280054 142.8007981053279 457.14931263337274 158.48264596670614 435.3944516988247 161.9388816345086"/><polygon points="476.6269687529338 135.2936354196005 500.4122831073098 139.58771689269017 501.441630934945 160.1082976016117 484.01467361575044 155.98532638424953"/><polygon points="16.400589061578252 187.06725572824493 34.377230508152614 178.95610282518072 38.04777617407263 208.7144428407393 6.707269028507051 206.6260643048263"/><polygon points="47.1191700673822 175.11917006738219 76.42119387699643 179.57880612300357 74.95521394602667 202.95521394602667 55.29478050177488 200.70521949822512"/><polygon points="90.97185484590477 176.30518817923812 121.19833509085908 177.46833157580758 118.07774386523775 203.4110771985711 90.53004926127834 208.13661740538834"/><polygon points="136.8068167222625 179.47348338892917 160.01472828376365 181.3186050495697 160.5676905512285 203.23435721789514 133.26859636254088 208.06473697079247"/><polygon points="181.32983242781563 181.32983242781563 199.6402581990675 184.3597418009325 202.5560366103186 202.5560366103186 175.55207126387737 208.44792873612263"/><polygon points="218.53166237604188 175.86499570937525 248.08453251926355 178.5821341474031 243.64642291469957 200.9797562480329 218.23697000886378 208.42969665780288"/><polygon points="267.0623040547746 181.72897072144124 294.2070720370933 175.12626129623996 287.5110492105227 202.1777158771894 264.100595387915 205.2327379454183"/><polygon points="313.1743715477202 185.17437154772026 335.61848646316207 176.38151353683787 336.23469089206986 208.23469089206995 311.023032612026 200.97696738797396"/><polygon points="353.17490357876255 182.50823691209595 370.2953610094353 184.37130565723135 375.66805627955017 205.00138961288354 347.42025210950527 207.24641455716136"/><polygon points="390.3122446700361 176.97891133670277 418.6138656289297 178.7194677044036 410.3154901816246 196.9821568482913 393.0528628148056 204.28047051852772"/><polygon points="440.1818380656037 184.18183806560376 454.45144573356566 185.54855426643428 454.363353223331 198.36335322333102 439.56575589446743 200.4342441055325"/><polygon points="477.1130765987672 178.44640993210055 505.39278228794956 177.2738843787171 500.77938947402237 202.11272280735574 478.73171314992715 203.93495351673948"/><polygon points="12.267739454623095 225.6010727879564 34.9922053884555 221.00779461154448 35.63638520436471 248.96971853769804 4.373193170082075 251.6268068299179"/><polygon points="50.64307323058057 221.30973989724723 74.86656962829142 223.80009703837524 68.74734157376213 239.41400824042879 50.329779476792446 248.3368871898742"/><polygon points="99.24395022207676 227.24395022207676 113.08885689465667 228.24447643867663 121.70741504547256 249.70741504547254 100.49039328643508 240.84294004689824"/><polygon points="140.8507534851184 226.1840868184517 162.7577228383104 221.2422771616896 161.9074672523527 247.240800585686 135.26852091530043 248.73147908469957"/><polygon points="179.69242602792505 222.3590926945917 199.98933611953325 226.6773305471334 204.70609803687026 247.37276470353692 187.14706753766023 239.51959912900642"/><polygon points="226.80468616216422 226.80468616216422 241.10595660281038 228.22737673052293 244.79080969549528 244.79080969549528 225.38200782589772 243.9513255074356"/><polygon points="265.8452540739261 223.17858740725947 282.33662127424856 229.6633787257514 287.386288733296 244.7196220666293 261.28786444880467 250.71213555119533"/><polygon points="307.8694487842653 222.536115450932 326.4898594098481 228.1768072568185 327.11347726673546 241.78014393340214 302.7489397548718 251.91772691179477"/><polygon points="352.91015328001316 224.9101532800132 378.71666273400774 218.61667059932554 372.3661720043127 244.36617200431272 352.45726748882333 244.87606584450995"/><polygon points="388.9679008672346 218.30123420056796 412.17199393546844 227.82800606453154 411.6747744065561 241.00810773988943 396.8118059149102 243.18819408508975"/><polygon points="433.1792914042022 219.84595807086893 458.8010023782584 223.8656642884082 461.85229028737785 248.5189569540446 435.23849585487324 247.42817081179336"/><polygon points="483.57122128758743 227.5712212875875 507.784359757713 217.5489735756203 505.49742219679024 249.4974221967903 473.87390132242723 251.45943201090608"/><polygon points="5.78393328210282 261.7839332821028 32.966143646378576 265.7005230202881 30.35462385188744 286.3546238518874 15.220003737583594 283.44666292908306"/><polygon points="48.46384810727807 261.7971814406114 69.69245723610896 271.64087609722435 80.61130993617174 293.94464326950504 55.741559351384296 285.591773981949"/><polygon points="92.95570925736101 263.62237592402766 118.44636855290169 265.55363144709827 113.62250317469386 284.2891698413605 90.34131385912582 293.6586861408741"/><polygon points="135.8195494702846 263.8195494702846 155.42398152047363 271.242685146193 163.58536582576198 291.5853658257619 143.07746226060524 283.5892044060614"/><polygon points="175.0092632022382 260.3425965355715 207.22267784522242 262.11065548811087 201.26444613317585 286.59777946650917 174.95198603951107 294.3813472938222"/><polygon points="218.43445196745606 261.1011186341227 243.35543360603145 268.6445663939685 252.02268971225072 294.68935637891735 223.79292747099322 288.2070725290067"/><polygon points="269.9584544355938 269.9584544355938 294.25992430943467 260.40674235723196 284.76335038710664 284.76335038710664 270.7349406519123 283.9317260147543"/><polygon points="306.7767217089804 264.1100550423138 332.39702609481816 264.9363072385151 330.0530552545873 287.3863885879207 310.7813574160985 286.55197591723476"/><polygon points="354.74655806129715 269.41322472796384 371.1400007913512 268.85999920864873 378.04818797364476 292.71485464031144 355.60336767731513 284.3966323226848"/><polygon points="388.5163167806781 260.5163167806781 416.3891477966032 266.27751887006343 418.6566137679849 290.6566137679849 393.7514664412205 288.91520022544614"/><polygon points="441.5710495540581 270.9043828873915 461.62595830418206 263.7073750291512 460.04003745273627 289.37337078606964 437.35009571107673 287.9832376222565"/><polygon points="473.63930764410134 260.305974310768 506.9327713047356 261.06722869526436 507.4289832731057 294.0956499397724 473.657786341792 294.3422136582079"/><polygon points="14.429967089193852 313.09663375586047 27.22479411249583 314.10853922083743 33.89968554352432 332.5663522101909 6.060395892383658 335.2729374409496"/><polygon points="54.853219563450736 310.8532195634507 79.17304121286965 304.8269587871303 75.62255850460586 331.6225585046058 47.05967770265568 336.94032229734427"/><polygon points="90.94743819744605 304.2807715307793 114.25836283632412 312.40830383034245 116.04513904066208 329.37847237399535 89.77343466283031 336.89323200383626"/><polygon points="141.04789350505652 311.7145601717231 164.02463336068672 305.3086999726466 162.57437657775097 333.24104324441754 136.6068337961621 332.72649953717115"/><polygon points="175.07787333880933 303.07787333880924 200.2047073420051 311.7952926579948 197.07453100768953 325.0745310076895 182.8814345832093 329.1185654167906"/><polygon points="227.04041036380292 312.3737436971362 241.22784100203742 313.4388256646292 243.85086650691417 329.18419984024746 223.07345851824448 331.59320814842215"/><polygon points="260.00581241784107 302.6724790845077 288.6553836228254 308.67794971050785 289.4799090471334 332.1465757138 272.3964528145506 324.93688051878263"/><polygon points="303.05833537484835 303.05833537484835 330.1306053848499 309.86939461515 333.2631517535894 333.2631517535894 313.2169710338142 326.78302896618567"/><polygon points="348.63656847275587 305.9699018060892 373.78510540466186 308.8815612620047 372.1458602854235 329.4791936187568 357.54805891526945 325.1186077513971"/><polygon points="397.2521245088235 311.9187911754901 414.621243792233 310.7120895411003 412.2133735173019 326.8800401839685 399.54724121618324 325.78609211715"/><polygon points="438.1127116654302 310.1127116654302 456.17061638010995 311.82938361988994 456.884604354023 328.884604354023 436.073001884317 331.92699811568286"/><polygon points="475.6267283330161 304.9600616663494 501.8281592888684 308.8385073777982 502.38523309708205 331.71856643041536 474.40366640692196 336.2630002597446"/><polygon points="6.779395625423753 348.11272895875703 34.87559789970264 349.12440210029735 28.45749593725072 369.790829270584 9.56778159922768 374.4322184007723"/><polygon points="48.42163341459732 347.0883000812639 78.96915974741538 347.6975069192512 75.88845907895191 374.5551257456185 56.503128949553066 370.16353771711357"/><polygon points="100.5609467503051 356.5609467503051 115.39712075099858 353.9362125823347 112.02805764355735 368.0280576435573 97.34176594297816 371.99156739035516"/><polygon points="138.18153928256876 351.51487261590205 154.47344223061003 357.52655776938997 164.885201389811 378.2185347231443 136.2976424174832 375.70235758251675"/><polygon points="185.89518230723786 356.5618489739045 198.17754300973237 356.4891236569342 207.96812105090225 378.6347877175689 177.8868054411622 376.7798612255044"/><polygon points="223.0541960016169 351.05419600161684 244.5578276368391 352.7755056964942 248.32947841026916 376.32947841026913 222.8820257333905 374.4513075999428"/><polygon points="270.03532464353435 355.36865797686767 286.67590661936094 353.32409338063894 291.96027366249064 377.29360699582395 271.4822110708512 368.51778892914876"/><polygon points="309.41796024300515 352.08462690967184 330.8559097800527 351.8107568866139 337.2145551911053 379.881221857772 309.77058583192627 372.8960808347403"/><polygon points="353.73583218845044 353.73583218845044 378.57193062229305 346.7614027110402 368.4152408331913 368.4152408331913 353.7936326324023 371.53970070093095"/><polygon points="393.15000698026864 350.48334031360196 416.4169250361376 351.5830749638623 418.64425894387523 375.9775922772086 390.62858320903814 377.3714167909618"/><polygon points="431.0124534580628 345.6791201247295 456.8756734694485 353.7909931972181 463.35152646520515 378.01819313187184 434.0902096880754 376.5764569785912"/><polygon points="476.90482618567654 348.90482618567654 500.11285998592456 353.2204733474087 507.783419297672 379.783419297672 484.67353208781776 368.6598012455155"/><polygon points="6.121342769626102 390.1213427696261 35.84079487429873 390.82587179236793 26.430312170314366 410.4303121703143 14.035272873280011 412.6313937933866"/><polygon points="56.43725135119469 397.770584684528 68.89936671454127 400.43396661879206 76.68316584614394 418.01649917947725 49.64590410103109 419.68742923230224"/><polygon points="94.13043056475712 392.7970972314238 119.42948240136572 392.57051759863424 123.5486229303712 422.21528959703784 98.16254387981006 413.8374561201899"/><polygon points="132.73760388139172 388.7376038813917 160.2259050252722 394.4407616413945 159.97500786361874 415.9750078636187 142.86735415416715 411.7993125124995"/><polygon points="179.6321964507923 392.9655297841256 208.30012856188944 389.0332047714439 200.0941057461138 413.42743907944714 178.95905460264495 418.37427873068833"/><polygon points="226.32849589376502 396.9951625604317 246.75306105250365 393.2469389474963 249.09940750323818 419.76607416990487 227.92051889672285 412.0794811032771"/><polygon points="260.74646816433335 388.74646816433335 288.49621664269836 394.1704500239683 286.26133039183867 414.26133039183867 263.1690765241217 419.49759014254494"/><polygon points="307.3858560167353 392.7191893500687 326.6188704755721 398.71446285776113 328.0112425424755 413.34457587580886 308.1541200949991 417.17921323833417"/><polygon points="347.28295385323827 389.94962051990495 377.1227038568856 390.87729614311434 376.42439459188955 419.09106125855624 357.66532637838367 410.3346736216163"/><polygon points="390.6306746190351 390.6306746190351 422.2617362914823 388.40493037518434 414.9954904809727 414.9954904809727 388.0390227947326 422.627643871934"/><polygon points="442.85307995438615 400.1864132877195 457.4211465509651 395.91218678236817 462.86614158059865 420.199474913932 433.6731609091085 419.66017242422475"/><polygon points="483.52467880596896 398.19134547263565 500.5481844971658 395.45181550283417 500.4379376191491 415.1046042858158 479.35694917208326 416.6430508279167"/><polygon points="14.873183654898298 441.5398503215649 31.964071786367175 437.3692615469661 34.58542673014285 461.25209339680947 11.839850859773163 457.4934824735601"/><polygon points="58.47922852898594 442.4792285289859 80.73090581437123 431.2690941856287 73.81778329090253 457.81778329090247 50.7478467196457 461.25215328035426"/><polygon points="97.98923831425589 439.32257164758914 112.58616117015083 442.08050549651574 113.13331917500554 454.4666525083388 95.10638280565564 459.56028386101093"/><polygon points="137.75643045223092 436.42309711889754 164.50627149154892 432.82706184178437 159.15815812874717 457.82482479541375 140.70819004071498 456.6251432926183"/><polygon points="177.7382072073315 433.73820720733147 206.36997699372543 433.6300230062745 197.8048848620821 453.8048848620821 176.21791843538665 463.7820815646133"/><polygon points="226.36257204975698 439.69590538309023 245.61739121932712 437.0492754473395 245.47740922508677 458.81074255842003 219.14940774862646 463.5172589180401"/><polygon points="266.35772632882475 437.0243929954914 285.9390109070671 439.39432242626617 284.95377697158386 455.6204436382505 263.79855761239236 461.5347757209409"/><polygon points="303.59718122861483 431.59718122861483 326.6427328767121 441.3572671232878 332.322160740533 460.322160740533 304.37342326817895 463.62657673182093"/><polygon points="351.7973045468085 437.1306378801418 378.15049295709576 432.5161737095708 379.9504195279976 465.2837528613309 347.01372034873873 463.65294631792784"/><polygon points="400.1348224371918 442.80148910385844 417.9219430033192 435.41139033001406 420.6333046444031 463.2999713110697 388.45544383487436 464.8778894984589"/><polygon points="443.1544462946873 443.1544462946873 456.04094181784825 439.95905818215164 462.0347654945112 462.0347654945112 438.5352499590914 457.4647500409085"/><polygon points="482.8620588316449 440.1953921649782 498.93230857699376 439.7343580896728 499.8438762337064 457.1772095670397 479.2459047520665 459.42076191460006"/><polygon points="5.086207855965558 474.41954118929885 35.03409439319424 476.96590560680573 37.15737124636559 506.4907045796989 14.850872975286903 497.14912702471304"/><polygon points="55.737723296023496 482.4043899626901 75.63466471084297 479.03200195582366 73.33371811166165 500.0003847783283 59.09263495630992 495.57403171035673"/><polygon points="93.86853295066526 477.8685329506652 115.95293974351154 481.3803935898217 124.13520755683425 508.13520755683425 90.86573372630596 506.4675996070273"/><polygon points="134.10115119827302 475.4344845316063 160.3132853843208 479.68671461567914 162.59437909377166 503.92771242710495 136.76757218136802 503.23242781863195"/><polygon points="175.4557864540274 474.122453120694 200.10709707213138 482.5595695945352 209.42948040316537 508.096147069832 175.9074733260124 506.75919334065424"/><polygon points="226.6544744288883 482.65447442888825 246.54486355639764 478.78846977693564 247.26092670821672 503.2609267082167 228.88017687390052 496.45315645943276"/><polygon points="262.58724996783536 475.9205833011687 292.73753251529877 475.2624674847012 282.23061275151133 495.56394608484464 266.0453049935223 501.95469500647766"/><polygon points="306.74855177532623 477.4152184419929 327.8084381427389 482.85822852392766 330.7880094256044 501.4546760922711 307.94413793178126 502.7225287348853"/><polygon points="348.46358551473145 476.46358551473145 373.91852917643354 479.4148041568997 375.03500861050406 503.03500861050406 348.8332306822003 504.500102651133"/><polygon points="392.74841415762796 478.0817474909613 422.69508682815706 473.3049131718429 420.6884276984936 506.02176103182694 391.16893435336374 504.8310656466362"/><polygon points="438.82240886148816 481.48907552815484 456.1993676292034 482.4672990374632 453.1102810694302 495.7769477360969 434.14869061086085 504.5179760558057"/><polygon points="481.68834963399945 481.68834963399945 495.6721931353081 485.6611401980252 498.7315607696036 498.7315607696036 475.96569699208567 505.3676363412476"/>
</svg>
