<?xml version="1.0" encoding="UTF-8"?>
<svg xmlns="http://www.w3.org/2000/svg" id="RSSicon" viewBox="0 0 512 512" width="512" height="512">
  <defs>
    <style type="text/css">
      svg {
        background: black;
        margin: calc(50vh - 256px) auto 0;
      }
      
      polygon {stroke: darkorange; fill: none;}
    </style>
  </defs>
  <polygon points="14.328684633190973 14.328684633190973 32.27485987364914 10.391806793017523 31.003234038030843 31.003234038030843 7.592049758769193 35.07461690789747"/><polygon points="56.26877768833653 13.602111021669856 76.70705732930034 8.626276004032992 74.85034765347491 32.18368098680825 54.6262810353828 30.707052297950526"/><polygon points="97.12944558493024 11.796112251596913 116.53019707030427 11.469802929695726 116.1972122241498 30.863878890816466 100.36867763953049 27.631322360469497"/><polygon points="137.11741723742952 9.117417237429521 164.8803843720669 5.786282294599754 163.4824969694409 35.48249696944088 136.12033476820451 34.54633189846216"/><polygon points="186.14891062197904 15.482243955312377 208.7448413562945 4.588491977038828 198.0920790480651 27.42541238139843 181.56277385321846 31.77055948011488"/><polygon points="227.45705623890834 14.123722905575004 243.89251663496938 12.107483365030612 246.2956580869192 32.962324753585875 229.17785012580873 26.822149874191258"/><polygon points="269.2499673833004 13.249967383300376 291.1901416757428 7.476524990923885 284.2956880460806 28.295688046080603 264.2117221098694 34.45494455679723"/><polygon points="312.079181358678 13.412514692011413 329.7898460202166 11.543487313116701 331.01227003301983 32.3456033663532 302.8046603175919 38.52867301574133"/><polygon points="356.1044801395684 14.771146806235098 371.5006487329559 12.499351267044062 379.413078500912 38.079745167578665 350.00622634411843 33.993773655881526"/><polygon points="396.36579005277747 12.36579005277748 414.05961894264806 12.60704772401861 415.28005934372516 31.280059343725192 392.2192517553129 34.44741491135376"/><polygon points="433.43058631463236 6.763919647965759 455.23235672766384 14.100976605669445 464.42761390722967 37.760947240563056 436.8199443294885 32.51338900384476"/><polygon points="485.7358525041352 16.4025191708019 507.96597301193515 4.034026988064792 498.30676171723746 28.97342838390414 479.1430350143694 32.856964985630555"/><polygon points="15.316282262488045 57.982948929154716 35.13428712508823 50.1990462082451 36.67064016469214 79.3373068313588 9.517717705349988 75.81561562798335"/><polygon points="52.4819446452778 52.4819446452778 73.78635913580061 54.21364086419939 80.09124296472461 80.09124296472461 55.97375839091479 72.0262416090852"/><polygon points="95.64159524283869 52.97492857617203 113.73763530927204 56.92903135739462 120.00948868908081 77.34282202241415 90.79583803212252 79.87082863454414"/><polygon points="136.57023251246966 51.236899179136316 157.62274092003776 55.71059241329557 159.30537540541573 73.97204207208237 140.1776045747083 73.15572875862505"/><polygon points="185.8371427730347 57.837142773034714 200.45078276641337 55.54921723358662 205.60490848677378 77.6049084867738 176.0403441951268 79.9596558048732"/><polygon points="226.78394975127586 56.11728308460919 249.8791544352168 48.78751223144985 244.68404560933038 74.01737894266371 221.45763040451624 77.2090362621504"/><polygon points="264.2179336431091 50.88460030977579 294.3662463735436 46.96708695978968 293.2474029724631 79.91406963912978 268.08690200278187 73.24643133055145"/><polygon points="312.94973066325537 56.94973066325544 328.7998383819149 55.200161618085005 325.1773946977109 69.17739469771095 305.0497947358737 78.9502052641262"/><polygon points="351.5738464372993 52.90717977063271 380.1133375609491 46.553329105717545 368.5197741595937 69.85310749292707 356.55629391240427 70.11037275426236"/><polygon points="396.3265488223282 54.993215488994906 417.92119157436446 51.412141758968865 422.55485757280536 81.22152423947205 390.5718104852294 78.76152284810397"/><polygon points="433.51401997194273 49.5140199719428 460.4102287277793 51.58977127222062 459.359330438357 75.35933043835708 441.81146096105107 70.18853903894889"/><polygon points="480.04007538331524 53.37340871664863 507.9735888518901 46.69307781477653 501.9116113871666 75.24494472049997 483.7664862173807 70.90018044928593"/><polygon points="10.62452020053878 95.95785353387211 33.43462527117507 94.56537472882492 26.58913295037639 111.92246628370971 16.24387482058623 111.75612517941376"/><polygon points="49.89293575574112 92.55960242240778 73.62661099394964 97.04005567271702 73.10945352124341 115.77612018791007 50.16647875820875 120.5001879084579"/><polygon points="92.52003388507018 92.52003388507018 113.17441526163654 100.15891807169677 112.57581802986577 112.57581802986577 101.17688526973929 112.15644806359403"/><polygon points="139.42816757496223 96.76150090829555 159.4859806970471 96.51401930295289 162.0520048727952 119.38533820612854 135.51926561971496 120.48073438028503"/><polygon points="183.79934501802026 98.4660116846869 203.21959897112734 95.44706769553933 205.67284149013864 120.33950815680531 175.11758469472716 123.5490819719395"/><polygon points="223.01182241639987 95.01182241639988 244.04089011565043 97.29244321768289 243.20202820331588 115.20202820331589 218.73671690098178 122.59661643235155"/><polygon points="263.40373583772976 92.73706917106307 290.36503335858816 93.63496664141181 284.7559111286703 114.08924446200365 268.79557709073936 115.20442290926061"/><polygon points="302.52832114196445 89.19498780863114 328.84910401921815 97.81756264744844 330.73508112002617 117.40174778669285 308.0866078697725 118.58005879689412"/><polygon points="355.68908685817263 99.68908685817264 372.99841064602776 96.33492268730552 379.7123127220578 123.71231272205782 347.02575739917955 122.30757593415375"/><polygon points="395.0183197546531 96.35165308798642 415.92452719020775 96.07547280979222 414.69400270597686 116.02733603931019 391.1432553359276 120.85674466407235"/><polygon points="440.65779760338467 99.32446427005138 458.63058461310686 96.03608205355974 461.5872175370096 120.25388420367635 441.40913723939775 113.25752942726884"/><polygon points="483.9889206415084 99.98892064150844 496.37810010745585 100.95523322587742 506.22322619130836 122.22322619130836 480.9487870356282 116.38454629770509"/><polygon points="5.263423202560777 133.26342320256077 30.581833083644216 140.08483358302246 36.80684005796263 164.80684005796263 10.171582558946225 160.49508410772046"/><polygon points="47.495149743979354 132.8284830773127 80.95920490708065 132.3741284262527 81.37316868236303 166.70650201569637 47.62868680828922 165.70464652504413"/><polygon points="95.63562365111746 138.30229031778413 122.24389787011748 133.75610212988252 121.40004125375768 164.06670792042436 91.52883907687941 164.47116092312058"/><polygon points="137.12376379912075 137.12376379912075 160.00791238219207 138.6587542844746 164.74134137508938 164.74134137508938 137.65388677106165 161.01277989560504"/><polygon points="175.73573659938535 133.0690699327187 208.85962761900186 132.47370571433152 200.26060525362988 157.59393858696322 181.7733630563881 159.55997027694525"/><polygon points="220.63501611065337 135.30168277732005 243.11564975408302 140.88435024591698 241.10245883826744 155.76912550493412 226.69999935051834 157.30000064948166"/><polygon points="268.9123493031291 140.91234930312913 287.1596964931166 139.5069701735501 287.36486289005956 159.36486289005956 263.4804072084559 163.1862594582107"/><polygon points="303.82701239985994 133.1603457331933 331.3989254216009 137.93440791173242 332.3753477638497 161.70868109718305 305.2456317576078 164.08770157572548"/><polygon points="351.5237868030941 138.19045346976083 377.93189575857315 134.06810424142682 375.14749661562945 161.8141632822962 351.30975026007326 160.6902497399267"/><polygon points="398.4671603253074 142.46716032530742 418.84908658583106 135.81758008083557 411.7392104955989 155.73921049559894 388.2249099487073 166.44175671795938"/><polygon points="438.2134175375241 139.5467508708575 454.3626826041 142.97065072923328 463.0534486332727 164.38678196660607 437.0525750026124 160.2807583307209"/><polygon points="484.3088076132928 142.9754742799595 498.60263475250406 141.39736524749588 501.74894823992884 160.41561490659555 483.7208063701615 156.2791936298385"/><polygon points="16.00651555074461 186.67318221741127 28.59729666156824 184.73603667176508 36.04089238528094 206.7075590519476 4.983430984004745 208.3499023493286"/><polygon points="53.30687214418969 181.3068721441897 80.69533594707737 175.30466405292265 80.37787836313058 208.37787836313058 54.4182382140948 201.5817617859052"/><polygon points="89.41391186992011 174.74724520325344 122.50220469101926 176.16446197564738 113.64253178779639 198.97586512112971 98.0756454300344 200.59102123663226"/><polygon points="133.62117105842265 176.2878377250893 162.44166640110916 178.89166693222418 160.9851398664575 203.65180653312416 137.90656700492448 203.42676632840886"/><polygon points="177.7424367802334 177.7424367802334 206.34827561326293 177.65172438673707 207.9815331369911 207.9815331369911 179.3321003998165 204.6678996001835"/><polygon points="227.63140780522863 184.96474113856198 248.3174035797005 178.34926308696615 245.55105666953216 202.8843900028655 222.73345243633253 203.93321423033413"/><polygon points="269.6325402210966 184.29920688776326 290.9292547414861 178.40407859184722 289.8335286515846 204.50019531825123 268.70316470757757 200.63016862575577"/><polygon points="313.73584787314286 185.73584787314294 335.41954263595443 176.58045736404551 330.1988534383344 202.19885343833448 306.6416854573987 205.35831454260125"/><polygon points="351.05948859838014 180.39282193171354 372.35666789110536 182.30999877556127 375.2743165104362 204.60764984376956 346.62781312719244 208.03885353947422"/><polygon points="396.478361837809 183.14502850447573 413.1446210134185 184.18871231991486 410.181263272372 196.84792993903866 388.5137994206517 208.8195339126816"/><polygon points="437.2547813920448 181.25478139204483 460.6881653031621 179.3118346968378 460.4350897500411 204.4350897500411 434.70188660567703 205.2981133943229"/><polygon points="473.56567829142165 174.89901162475505 506.4789186714531 176.18774799521353 506.1817086682294 207.5150420015628 481.4866048576256 201.18006180904106"/><polygon points="9.716042105775227 223.04937543910856 33.68041772307481 222.3195822769252 38.37711663656219 251.71044996989554 15.462170295585 240.537829704415"/><polygon points="50.14607654415515 220.81274321082182 70.84759594566914 227.8190707209975 74.14744243709384 244.8141091037605 55.154267859560726 243.51239880710594"/><polygon points="100.91762171218535 228.91762171218534 118.01122034008189 223.3221129932514 123.36174756717986 251.36174756717986 93.32184236814082 248.01149096519248"/><polygon points="143.28746509782232 228.62079843115563 155.79026313766107 228.20973686233893 160.16561970008328 245.4989530334166 142.61018517790353 241.38981482209647"/><polygon points="180.21114073605642 222.87780740272308 200.70690748774314 225.95975917892352 208.0335619826086 250.70022864927526 185.04705267751498 241.61961398915167"/><polygon points="229.33252101278416 229.33252101278416 244.9685240470821 224.36480928625122 251.7131502480457 251.7131502480457 226.08721152079562 243.2461218125377"/><polygon points="271.4706431901737 228.80397652350703 287.17577286001614 224.82422713998383 283.85530639475195 241.1886397280853 270.306840477284 241.69315952271597"/><polygon points="311.22482713145826 225.89149379812497 328.5500581806411 226.1166084860255 331.7580299420582 246.42469660872496 308.51500821906563 246.151658447601"/><polygon points="348.70237889155993 220.70237889155996 378.6472693956084 218.68606393772484 369.5787445911182 241.57874459111827 349.81056869690417 247.52276463642912"/><polygon points="399.2330273816609 228.56636071499423 421.4604196552808 218.53958034471913 420.2140311685527 249.54736450188602 392.68593706114063 247.31406293885934"/><polygon points="437.37595967563095 224.04262634229767 461.42683900634256 221.23982766032407 453.59192614995425 240.25859281662096 438.9978868935524 243.66877977311424"/><polygon points="479.72488174773036 223.72488174773042 495.96036644239626 229.372966890937 501.69725136684804 245.6972513668481 484.429762741068 240.90357059226528"/><polygon points="4.136625361199243 260.1366253611992 38.67481897168179 259.99184769498487 34.5017638425333 290.5017638425333 5.397674087993421 293.26899257867325"/><polygon points="50.28614971561289 263.6194830489462 80.05188087544579 261.28145245788755 69.61533844548325 282.94867177881656 53.61281213959381 287.7205211937395"/><polygon points="91.28617099256702 261.9528376592337 118.93471038773892 265.06528961226104 114.7671152144241 285.43378188109074 101.48477154438872 282.51522845561124"/><polygon points="141.36544395558968 269.3654439555897 160.72623911820145 265.9404275484652 154.0487289977528 282.0487289977528 144.32480298666476 282.3418636800019"/><polygon points="176.9240604845175 262.2573938178508 200.68814461820622 268.64518871512706 199.09204348720766 284.425376820541 179.62213453883535 289.71119879449793"/><polygon points="226.63528561108956 269.3019522777562 243.56128259335148 268.4387174066485 247.79665122091632 290.463317887583 223.81577332093715 288.1842266790628"/><polygon points="261.8407262922543 261.8407262922543 284.50005170072734 270.1666149659393 282.0548450595987 282.0548450595987 262.77456639865187 291.89210026801476"/><polygon points="307.34752763582287 264.68086096915624 336.1896326928369 261.1437006404964 325.35055450699156 282.6838878403249 306.1686671437231 291.16466618961016"/><polygon points="349.8586694839989 264.52533615066557 370.47767145888685 269.5223285411131 376.2907391080134 290.95740577468007 355.1230804798577 284.8769195201422"/><polygon points="399.7194073465044 271.7194073465044 413.4355418416094 269.23112482505724 416.58016983033446 288.58016983033446 398.4953391585049 284.1713275081617"/><polygon points="438.3414982220236 267.67483155535695 462.4480933763183 262.88523995701496 454.14480693491896 283.47814026825233 442.76149632986795 282.5718370034653"/><polygon points="479.8044438316319 266.4711104982986 506.9848498557354 261.01515014426457 500.0295248513529 286.6961915180196 476.6501108903739 291.349889109626"/><polygon points="8.621112244961818 307.28777891162844 34.55030205668018 306.7830312766531 31.42464851253574 330.09131517920235 12.756522907286854 328.57681042604645"/><polygon points="48.083475177937146 304.0834751779371 75.64040845696518 308.35959154303475 75.20206122161038 331.20206122161034 52.484810736001805 331.51518926399814"/><polygon points="99.4039131319987 312.73724646533196 119.90095317044947 306.76571349621713 122.08144212646563 335.41477545979893 100.61084950100717 326.05581716565945"/><polygon points="133.13918187059335 303.8058485372599 154.0814853692271 315.2518479641062 165.5169605677695 336.1836272344361 133.82083765086378 335.5124956824695"/><polygon points="176.70861531921616 304.7086153192161 200.9666310180506 311.03336898194937 200.75587581806252 328.75587581806246 174.72222910844468 337.27777089155524"/><polygon points="226.08311589057274 311.416449223906 241.32600275738275 313.3406639092839 242.75227472106593 328.08560805439924 221.26710348812495 333.39956317854165"/><polygon points="267.1751402250129 309.84180689167954 289.0023293321306 308.33100400120264 290.18489004469853 332.85155671136516 265.9844600241907 331.34887330914256"/><polygon points="309.7597836035 309.7597836035 326.05398082606405 313.94601917393584 336.4132988843944 336.4132988843944 309.54641503496833 330.45358496503155"/><polygon points="355.22082985259783 312.55416318593115 367.66236855867976 315.0042981079868 370.4623529949806 327.79568632831393 347.81119962030897 334.8554670463576"/><polygon points="390.4846865191365 305.15135318580315 422.5918170909629 302.7415162423704 418.864226942398 333.5308936090646 388.12091019437935 337.2124231389539"/><polygon points="430.7859457032129 302.7859457032129 456.06762572766104 311.93237427233885 457.18006974706327 329.18006974706327 432.45421502769045 335.54578497230943"/><polygon points="484.54353351340274 313.87686684673605 498.913073898604 311.75359276806256 506.3874940914422 335.7208274247755 483.02522140905154 327.64144525761503"/><polygon points="6.799216101975176 348.1325494353085 33.4742213195602 350.52577868043977 36.13486308042719 377.4681964137605 15.935746893822424 368.06425310617755"/><polygon points="50.853132080351294 349.51979874701794 70.95667949437117 355.7099871722954 71.58062389399433 370.247290560661 54.075011567595375 372.59165509907126"/><polygon points="99.8886509123831 355.88865091238307 122.58594395632528 346.747389377008 112.6846197896819 368.6846197896819 94.04763083016718 375.28570250316614"/><polygon points="137.92032682776855 351.25366016110183 157.06539826629788 354.9346017337021 157.61512642899808 370.94845976233137 135.99919213401017 376.0008078659898"/><polygon points="176.6414029283154 347.30806959498204 205.4560985911315 349.2105680755351 204.25450265494564 374.9211693216123 175.79473449465743 378.8719321720092"/><polygon points="220.99769435647087 348.99769435647084 244.49605377094068 352.8372795623926 251.56675678907857 379.5667567890785 217.45887958359546 379.8744537497378"/><polygon points="263.52151898258353 348.85485231591684 282.7592857776209 357.24071422237904 293.6707040093138 379.0040373426471 267.25852179823596 372.741478201764"/><polygon points="307.7395431338186 350.40620980048527 326.6226879674855 356.0439786991811 330.8241252559011 373.4907919225678 315.1423457253375 367.52432094132905"/><polygon points="347.559494126813 347.559494126813 374.2609145322094 351.07241880112383 376.01867457050344 376.01867457050344 354.5091497025323 370.824183630801"/><polygon points="397.9927513707658 355.3260847040991 422.5098644991633 345.49013550083663 412.2561312083841 369.5894645417174 399.8697655442538 368.1302344557461"/><polygon points="431.2732684952531 345.9399351619198 453.9593076082818 356.7073590583848 454.58476674031255 369.25143340697923 439.2241419072639 371.44252475940266"/><polygon points="477.18387432105686 349.18387432105686 503.5841277342537 349.7492055990796 503.7264866262555 375.7264866262555 480.33623852826844 372.9970948050648"/><polygon points="10.457888377291907 394.4578883772919 37.61339598246434 389.0532706842023 37.42213556890297 421.42213556890295 16.23551079118981 410.43115587547686"/><polygon points="54.67072502250818 396.0040583558415 81.32783140571276 388.00550192762057 68.81502772175793 410.14836105509124 51.84662879194142 417.4867045413919"/><polygon points="93.56281659793669 392.22948326460335 115.6344299440578 396.36557005594216 113.9518518488045 412.6185185154712 101.56135854875231 410.43864145124763"/><polygon points="134.14624860499268 390.14624860499265 166.7447531448209 387.92191352184574 158.45242573925523 414.4524257392552 140.01158816870395 414.6550784979627"/><polygon points="184.66339702759757 397.9967303609309 203.0920807280649 394.2412526052684 207.12101370451126 420.45434703784457 187.2320165814544 410.1013167518789"/><polygon points="229.2124357042729 399.87910237093956 251.45161681898205 388.5483831810179 242.52416283646 413.1908295031266 222.26602844603278 417.7339715539672"/><polygon points="262.2260344578927 390.2260344578927 285.99063459284474 396.6760320738219 283.08146943070756 411.08146943070756 270.19342191045007 412.47324475621656"/><polygon points="307.99413810582394 393.3274714391573 337.4815953037897 387.8517380295436 336.7648064366762 422.0981397700096 311.15305893022236 414.1802744031109"/><polygon points="352.565116771449 395.2317834381157 378.2515510590373 389.74844894096265 367.6912052928191 410.3578719594858 349.89548528767693 418.104514712323"/><polygon points="393.9200428303151 393.9200428303151 421.5459732401815 389.1206934264851 410.70005446504194 410.70005446504194 393.4979400672975 417.1687265993691"/><polygon points="440.73473720699985 398.0680705403332 460.21476761535575 393.1185657179775 464.768068333389 422.1014016667224 432.883449325969 420.44988400736423"/><polygon points="484.3362086893347 399.00287535600137 503.4961760285111 392.5038239714888 498.00128221767466 412.66794888434134 476.8183999674466 419.1816000325533"/><polygon points="16.159516692536315 442.8261833592029 38.10516445248311 431.22816888085015 26.846342734561645 453.51300940122826 8.693073888891297 460.640259444442"/><polygon points="53.669900625398014 437.669900625398 73.25000097968389 438.74999902031607 70.51817626245686 454.5181762624568 54.297842345411496 457.70215765458846"/><polygon points="97.81173196030736 439.14506529364064 111.65634277213097 443.01032389453565 116.43737304778249 457.77070638111576 101.14718062186192 453.5194860448047"/><polygon points="142.30340582550852 440.9700724921751 155.80949002418055 441.52384330915277 162.72566207157976 461.39232873824636 144.35246102110878 452.9808723122245"/><polygon points="174.97199355675457 430.9719935567545 205.30064286150878 434.69935713849117 200.37466279351193 456.3746627935119 178.74569970564337 461.2543002943566"/><polygon points="228.92192652292283 442.2552598562561 249.9284408985341 432.7382257681325 246.34668259314532 459.68001592647863 223.59571926786515 459.0709473988015"/><polygon points="259.9049306623899 430.57159732905654 284.6494338605205 440.68389947281275 286.43001116463114 457.09667783129777 265.22114677965607 460.1121865536772"/><polygon points="305.43926091138707 433.43926091138707 325.93728824126697 442.0627117587329 331.7876865344669 459.7876865344669 311.1391361874877 456.8608638125122"/><polygon points="348.8431309915061 434.1764643248394 377.73825495199605 432.9284117146705 370.49594708261594 455.82928041594926 349.71814789495915 460.9485187717074"/><polygon points="395.0317954711058 437.6984621377724 411.84620393275145 441.4871294005818 414.5078724985518 457.17453916521845 390.459182262425 462.8741510709083"/><polygon points="436.2685423988758 436.2685423988758 461.2903150297062 434.70968497029367 464.7446590730064 464.7446590730064 437.759783727179 458.2402162728209"/><polygon points="474.3570713286736 431.6904046620069 495.9723436606541 442.6943230060125 505.16729999713107 462.5006333304644 473.73488539971424 464.9317812669523"/><polygon points="10.487916722785805 479.8212500561191 34.162801276042 477.83719872395795 35.401928177262675 504.735261510596 14.184752263218972 497.815247736781"/><polygon points="53.33933879913738 480.006005465804 78.16594530419664 476.50072136247 72.65248177025197 499.3191484369186 47.37648003271707 507.29018663394953"/><polygon points="101.31400002911643 485.3140000291164 120.87460322141519 476.4587301119181 117.65939087987202 501.659390879872 101.51099844692146 495.82233488641185"/><polygon points="144.59301139235012 485.9263447256834 155.7401495922128 484.2598504077872 158.1730540550388 499.5063873883721 137.55131593327164 502.44868406672833"/><polygon points="175.53753183351296 474.2041985001796 197.84633846635887 484.82032820030776 207.00970936520423 505.67637603187086 181.98192194659873 500.6847447200679"/><polygon points="228.27099793900103 484.270997939001 246.39371699363357 478.9396163396997 240.1575381930452 496.1575381930452 227.39968268622556 497.9336506471077"/><polygon points="269.09285571527084 482.42618904860416 290.9342224833358 477.0657775166641 283.90181439881496 497.2351477321483 263.9201098241482 504.07989017585174"/><polygon points="310.16478598038236 480.83145264704905 337.3703142414082 473.29635242525836 334.8542804677729 505.52094713443967 308.8713811578802 501.7952855087864"/><polygon points="348.600471179238 476.600471179238 376.59864671598183 476.73468661735143 374.1699175185449 502.1699175185449 353.75429586854904 499.5790374647842"/><polygon points="391.38254547678906 476.7158788101224 410.91123848693474 485.0887615130652 419.428691630843 504.7620249641763 393.98725470121417 502.0127452987858"/><polygon points="433.4897980913286 476.1564647579953 464.7220224423682 473.9446442242984 456.5527206211012 499.21938728776786 441.6318239803942 497.0348426862724"/><polygon points="485.77693831979104 485.77693831979104 502.19794657180285 479.1353867615304 506.13001855545605 506.13001855545605 485.5517400976537 495.78159323567957"/>
</svg>
