<?xml version="1.0" encoding="UTF-8"?>
<svg xmlns="http://www.w3.org/2000/svg" id="RSSicon" viewBox="0 0 512 512" width="512" height="512">
  <defs>
    <style type="text/css">
      svg {
        background: black;
        margin: calc(50vh - 256px) auto 0;
      }
      
      polygon {stroke: darkorange; fill: none;}
    </style>
  </defs>
  <polygon points="9.05851209382913 9.05851209382913 37.91649158682779 4.750175079838879 29.329959849977442 29.329959849977442 10.25750058836683 32.40916607829983"/><polygon points="56.48140571026888 13.814739043602213 80.42996614304269 4.903367190290645 80.77891856719371 38.11225190052705 58.490161166895845 26.843172166437483"/><polygon points="98.27728130637422 12.94394797304089 121.27699771826103 6.723002281738964 119.26173350396594 33.92840017063262 92.36945516727096 35.63054483272903"/><polygon points="132.31780966510678 4.317809665106772 159.20692533396561 11.45974133270107 159.1956821132138 31.19568211321377 132.97920453905712 37.68746212760954"/><polygon points="177.87860697636185 7.211940309695192 198.57753810302424 14.755795230309083 202.91690800356199 32.250241336895314 181.294204611532 32.03912872180134"/><polygon points="223.28516270051867 9.951829367185354 248.15969836479678 7.840301635203209 247.45973075249157 34.12639741915825 222.13141198692426 33.86858801307571"/><polygon points="266.84214186391876 10.84214186391876 282.70202507316844 15.964641593498204 292.8917326658503 36.89173266585034 265.8886765635583 32.777990103108344"/><polygon points="311.1449096894146 12.478243022747979 330.5563393616809 10.776993971652377 333.3572578082076 34.69059114154094 305.92825878551935 35.40507454781391"/><polygon points="357.2123911011388 15.879057767805513 380.03371870168405 3.9662812983158986 375.14611208186295 33.81277874852964 347.81111458382975 36.188885416170216"/><polygon points="387.97429004051315 3.974290040513168 412.79945720058305 13.867209466083601 422.7305442362009 38.73054423620091 397.1439252486798 29.522741417986822"/><polygon points="431.5393428828624 4.872676216195774 457.9855891606372 11.3477441726961 454.4126610745048 27.745994407838175 430.7155859032693 38.61774743006397"/><polygon points="476.5874532324323 7.254119899099022 507.6991581933418 4.300841806658134 495.71667616347213 26.383342830138822 478.94504889400554 33.05495110599442"/><polygon points="4.801182549874742 47.46784921654141 29.644389988881148 55.688943344452184 37.94401330372262 80.61067997038928 8.516225254043679 76.81710807928965"/><polygon points="49.37544788314166 49.37544788314166 74.77281196340049 53.227188036599514 78.57941499726815 78.57941499726815 50.89537962063426 77.10462037936574"/><polygon points="96.75797074986217 54.0913040831955 117.52820790269952 53.13845876396714 122.69441359498326 80.0277469283166 101.8835610640534 68.78310560261326"/><polygon points="143.6235266638614 58.29019333052807 159.85487311677662 53.478460216556726 161.65639684573972 76.32306351240636 137.59375461045354 75.73957872287981"/><polygon points="183.11574979674873 55.11574979674874 202.95483332253403 53.045166677465986 206.3079450462063 78.3079450462063 179.56538530247968 76.43461469752032"/><polygon points="223.6289483502679 52.96228168360125 246.58242806113162 52.08423860553504 251.85957136763676 81.1929047009701 218.4018374255533 80.26482924111333"/><polygon points="262.5363717192093 49.203038385875985 287.62308582564333 53.71024750768996 286.0187212850082 72.68538795167487 269.6271977062103 71.70613562712299"/><polygon points="315.2318597683488 59.23185976834887 332.752587193271 51.24741280672893 327.23146744673096 71.23146744673103 307.0591168996337 76.94088310036626"/><polygon points="357.0850283848031 58.41836171813644 367.5131627068063 59.15350395986029 372.0225950788231 73.35592841215643 345.80833901537295 80.85832765129366"/><polygon points="394.89298635372063 53.55965302038729 417.1298054929916 52.20352784034174 412.55335094138377 71.22001760805045 389.0761170060984 80.25721632723493"/><polygon points="439.9365989351574 55.936598935157434 453.7391962035115 58.26080379648848 458.10774561587004 74.10774561587013 438.3309966441425 73.66900335585746"/><polygon points="473.7469356562527 47.08026898958604 504.60442472400746 50.06224194265914 499.19222961876176 72.52556295209511 479.3199223184084 75.34674434825824"/><polygon points="13.650165485742075 98.9834988190754 35.002621946542305 92.99737805345768 30.225233650120074 115.5585669834534 13.417284812730726 114.58271518726926"/><polygon points="56.54594409668404 99.2126107633507 70.82602279681569 99.84064386985096 72.53202095196043 115.19868761862709 50.79981120113957 119.8668554655271"/><polygon points="100.87747769756263 100.87747769756263 117.42057705282346 95.91275628050985 119.87753810954082 119.87753810954082 91.40465657439982 121.92867675893349"/><polygon points="135.68739564631576 93.02072897964908 158.15848764899258 97.84151235100741 157.46293626638933 114.79626959972265 137.22296125949336 118.77703874050664"/><polygon points="184.7469820808995 99.41364874756617 204.79119409031466 93.87547257635198 201.0308009351127 115.69746760177937 185.08983949396165 113.576827172705"/><polygon points="220.22179871680342 92.2217987168034 246.67410444438784 94.65922888894548 241.0978730032169 113.0978730032169 228.72626354252594 112.60706979080737"/><polygon points="262.66594300931945 91.9992763426528 284.1571490845627 99.84285091543724 290.616022779638 119.94935611297133 271.2728767125901 112.72712328740985"/><polygon points="308.0682768864109 94.73494355307763 328.5504771569484 98.11618950971821 335.8750502657383 122.54171693240502 310.0961854360526 116.57048123061399"/><polygon points="355.70635700808475 99.70635700808475 374.05370842419245 95.27962490914084 367.83742863309334 111.83742863309335 356.16705333758034 113.16627999575296"/><polygon points="393.3149088336676 94.64824216700089 412.1672407192173 99.83275928078267 420.0975444162663 121.43087774959967 393.51778407436353 118.48221592563644"/><polygon points="434.6538713871467 93.32053805381341 460.92994150341235 93.73672516325423 452.94913937802306 111.61580604468979 434.75294193242377 119.91372473424283"/><polygon points="474.7834675429585 90.78346754295852 497.9870816822911 99.34625165104221 506.483504956034 122.48350495603401 473.39376627406637 123.93956705926693"/><polygon points="11.082801983376369 139.08280198337638 27.80645291469335 142.86021375197333 37.645080430211884 165.6450804302119 14.771910809263524 155.89475585740314"/><polygon points="48.00199414481766 133.335327478151 81.46755699603848 131.86577633729485 77.65374086679921 162.98707420013255 58.21488146457045 155.1184518687629"/><polygon points="95.18704926005 137.8537159267167 116.65488217555226 139.34511782444773 115.04759407764315 157.71426074430985 99.26142829438677 156.73857170561323"/><polygon points="134.84764200602572 134.84764200602572 162.21213165870955 136.45453500795713 166.11593755429342 166.11593755429342 140.30288907074646 158.36377759592023"/><polygon points="181.95121806050702 139.28455139384036 198.71747286797768 142.61586046535567 207.53018118617803 164.86351451951137 176.87144155870175 164.4618917746316"/><polygon points="217.70164450602013 132.36831117268682 248.1217851907173 135.8782148092827 240.26613446412838 154.93280113079507 227.50877866339502 156.49122133660498"/><polygon points="272.44378856227263 144.4437885622727 293.7850328315304 132.88163383513626 294.5646535294255 166.56465352942558 260.23185956863085 166.43480709803578"/><polygon points="308.2972892892837 137.6306226226171 332.522425600801 136.81090773253229 325.0600311689185 154.3933645022519 310.69635663693833 158.63697669639495"/><polygon points="348.65955330479517 135.32621997146185 379.7770762905233 132.22292370947662 374.27734891107923 160.94401557774597 356.3046408201462 155.69535917985382"/><polygon points="391.2567891462049 135.25678914620494 422.326385040948 132.34028162571863 417.399235733865 161.39923573386503 390.1262156582149 164.54045100845175"/><polygon points="437.8370390221433 139.17037235547673 462.5429312396373 134.79040209369597 457.26323711795936 158.59657045129276 433.8244311207019 163.50890221263137"/><polygon points="474.02655288904555 132.6932195557123 497.784474163165 142.21552583683496 504.75479125421356 163.4214579208803 485.10959492245917 154.89040507754083"/><polygon points="15.404294898007047 186.07096156467372 37.046392976321584 176.28694035701176 28.709152541874726 199.3758192085414 16.331142368700686 197.00219096463263"/><polygon points="53.67043121975108 181.6704312197511 80.2646247917981 175.7353752082019 74.39641087525511 202.39641087525513 55.126190627053376 200.87380937294662"/><polygon points="93.6687060607439 179.00203939407726 113.66181252664241 185.00485414002426 112.21958953610783 197.55292286944118 93.18064905910154 205.48601760756512"/><polygon points="134.92292314567047 177.58958981233712 154.4972940990836 186.83603923424974 157.8522305250336 200.51889719170026 141.43366299036927 199.89967034296407"/><polygon points="174.51524523260417 174.51524523260417 200.0711882317805 183.9288117682195 205.9904860770951 205.9904860770951 175.0777557500993 208.9222442499007"/><polygon points="227.78107503053428 185.11440836386762 244.97640271618508 181.69026395048158 247.4938332721661 204.82716660549946 229.3345029682699 197.33216369839676"/><polygon points="271.9516811532629 186.61834781992957 284.52106545655846 184.81226787677488 291.54559139338926 206.21225806005597 260.7766250826153 208.55670825071803"/><polygon points="303.1309454942596 175.13094549425966 333.3281061255544 178.67189387444554 331.15348480309734 203.1534848030974 309.9671246157375 202.03287538426244"/><polygon points="356.5422298689595 185.87556320229285 377.789847185631 176.87681948103565 368.62041386841906 197.95374720175244 354.780514176303 199.88615249036363"/><polygon points="391.142228384583 177.8088950512497 418.22636627009774 179.10696706323554 416.4874113292013 203.15407799586794 396.91148680480666 200.42184652852666"/><polygon points="440.77114729876183 184.77114729876186 456.18067958676505 183.81932041323486 464.77826608212155 208.77826608212163 442.1452170243931 197.85478297560684"/><polygon points="482.59291090163816 183.92624423497153 506.6469151420068 176.01975152465985 506.8228315413168 208.15616487465016 475.38564284144553 207.2810238252211"/><polygon points="5.442743664741547 218.77607699807487 34.09425498059184 221.90574501940816 34.35100725357502 247.68434058690835 6.664846263827128 249.33515373617286"/><polygon points="57.19455226246943 227.8612189291361 73.19381050271255 225.4728561639541 81.08314432442512 251.74981099109178 49.921519437968755 248.7451472286979"/><polygon points="94.09034258077855 222.09034258077855 115.88267072459473 225.45066260873858 120.34381009604581 248.34381009604581 89.65466077068095 251.67867256265237"/><polygon points="133.0961635787873 218.4294969121206 164.48329013516909 219.51670986483091 157.8884120896901 243.2217454230234 137.63752187688817 246.36247812311183"/><polygon points="181.33070579983686 223.99737246650352 205.71021765948416 220.9564490071825 204.82848253436367 247.49514920103033 182.29262026806057 244.37404639860608"/><polygon points="219.32592722002775 219.32592722002775 251.90376570184523 217.42956763148808 250.6491125670396 250.6491125670396 221.56940465270216 247.76392868063115"/><polygon points="262.08173949383666 219.41507282716998 286.71214815862527 225.28785184137467 287.4481340838265 244.78146741715986 262.9053382098029 249.0946617901971"/><polygon points="309.7158253670493 224.38249203371603 332.97835841035385 221.68830825631272 333.02905022958026 247.69571689624698 309.4192987104462 245.2473679562204"/><polygon points="352.50247648564533 224.50247648564536 377.9895437589946 219.34378957433867 369.8861330334494 241.88613303344943 356.0231551805896 241.31017815274367"/><polygon points="390.5153572465148 219.84869057984812 422.4535314216159 217.54646857838407 411.3179800951967 240.65131342853002 397.6114357508283 242.38856424917165"/><polygon points="432.91921409411935 219.58588076078604 460.6210943017755 222.04557236489114 457.10186305067816 243.7685297173449 441.2403627461401 241.4263039205265"/><polygon points="475.22984020759986 219.2298402075999 507.4420694813879 217.8912638519454 502.3629093471453 246.36290934714535 485.0439060956116 240.2894272377217"/><polygon points="14.696142088944242 270.6961420889442 35.71275516793218 262.95391149873444 28.938842974107043 284.93884297410705 7.121183970563045 291.5454826961036"/><polygon points="51.787611382111024 265.12094471544435 71.3950241861961 269.9383091471372 78.78778891847213 292.12112225180545 51.32126875339537 290.01206457993794"/><polygon points="95.92618339703989 266.5928500637066 119.20816205321564 264.7918379467843 115.97453814687883 286.64120481354547 101.14677874744659 282.8532212525534"/><polygon points="134.74729898756567 262.7472989875656 160.62540985888216 266.0412568077845 158.50585386740633 286.5058538674063 140.21021253732832 286.45645412933834"/><polygon points="178.69062254245455 264.02395587578786 205.48488966256915 263.84844367076414 207.98268252160693 293.31601585494025 185.65947057094604 283.6738627623873"/><polygon points="226.647354459717 269.3140211263837 241.50019360973874 270.49980639026126 244.9603953474337 287.6270620141003 225.0427787983828 286.95722120161713"/><polygon points="266.51624601777917 266.51624601777917 282.32277432266176 272.34389234400487 288.54271356163014 288.54271356163014 272.4572811756825 282.2093854909841"/><polygon points="313.41175144317003 270.7450847765034 327.64465339303877 269.6886799402945 325.4614181559199 282.79475148925326 303.4980975665022 293.83523576683103"/><polygon points="349.7242697965289 264.3909364631956 378.89802136225603 261.1019786377439 368.6585234961334 283.3251901628 346.1354212269888 293.86457877301115"/><polygon points="388.73474013371 260.73474013371 418.0675840753553 264.59908259131134 414.2163900451058 286.2163900451058 396.09616964115634 286.5704970255103"/><polygon points="431.65825223448064 260.991585567814 459.2603548061079 266.07297852722536 464.03974070689503 293.3730740402284 431.77038351329463 293.5629498200386"/><polygon points="481.3335821337038 268.0002488003705 503.93887583900647 264.0611241609935 501.37792535194853 288.0445920186152 481.14777531887063 286.8522246811293"/><polygon points="4.124369072106365 302.79103573877296 34.22468183887065 307.1086514944626 27.045078386366193 325.7117450530328 11.655342974040634 329.67799035929266"/><polygon points="56.60879792550047 312.6087979255004 71.09876454655183 312.9012354534481 75.46727515168593 331.46727515168584 53.762176844810085 330.23782315518986"/><polygon points="98.14480604344466 311.47813937677796 111.57358360174013 315.0930830649265 123.71536002993668 337.04869336326993 97.35305793589066 329.31360873077597"/><polygon points="138.43205499095205 309.0987216576186 160.38596288946417 308.9473704438691 158.91021828021044 329.57688494687704 142.7176424827484 326.6156908505849"/><polygon points="176.47872229652864 304.4787222965286 205.30833626763666 306.6916637323633 207.33328942652673 335.3332894265267 179.94003470679098 332.05996529320896"/><polygon points="228.61896419031416 313.9522975236475 242.2758122186498 312.3908544480168 241.20740603985297 326.5407393731862 220.1324003295953 334.5342663370713"/><polygon points="265.73026120857963 308.39692787524626 290.9025043705571 306.43082896277616 282.06334914757434 324.73001581424097 267.14277730938915 330.1905560239441"/><polygon points="308.01870587190115 308.01870587190115 335.078351035332 304.9216489646679 329.0714339788491 329.0714339788491 315.03289711353676 324.9671028864631"/><polygon points="347.77917806299683 305.11251139633015 375.51627811988556 307.150388546781 373.81598589099593 331.14931922432925 352.2135580699686 330.453108596698"/><polygon points="399.5185722478899 314.1852389145565 414.13720471669836 311.1961286166349 411.5445138828661 326.21118054953274 398.0422758507422 327.29105748259104"/><polygon points="436.97479971659 308.97479971659 452.98589052850446 315.01410947149543 454.3491388474288 326.3491388474288 440.6594543569345 327.3405456430654"/><polygon points="480.5729999649802 309.90633329831354 500.7981625425833 309.86850412408324 505.04002892349456 334.37336225682793 475.4592105666401 335.2074561000265"/><polygon points="6.7061699921637565 348.03950332549704 32.31389568821051 351.68610431178945 35.50659529452797 376.83992862786124 9.90538501626397 374.094614983736"/><polygon points="46.662181528034154 345.3288481947008 78.23393051354347 348.4327361531232 69.81995279536082 368.4866194620274 55.99199242005527 370.67467424661135"/><polygon points="90.67651828859918 346.67651828859914 121.67439732270005 347.6589360106332 120.82952296956199 376.829522969562 89.54866972210569 379.7846636112276"/><polygon points="143.43880315596965 356.7721364893029 157.60581348057468 354.39418651942526 157.21055701083873 370.543890344172 139.747171476544 372.252828523456"/><polygon points="180.71930877732618 351.3859754439928 200.2068825904297 354.45978407623693 197.38060259343115 368.0472692600978 185.63382515017213 369.0328415164945"/><polygon points="221.08748034383385 349.0874803438338 250.6337891300326 346.6995442033007 241.43098308590024 369.4309830859002 225.7725374200591 371.5607959132742"/><polygon points="260.7559506752834 346.0892840086167 292.86669257681865 347.1333074231813 292.44874292220726 377.7820762555406 262.6113321674809 377.38866783251905"/><polygon points="309.4369684430299 352.1036351096966 330.47869375465 352.18797291201656 333.43373960885526 376.10040627552195 313.844369988414 368.8222966782526"/><polygon points="347.00549060741065 347.00549060741065 379.2796444034889 346.0536889298444 370.35599618214013 370.35599618214013 356.90348202476434 368.4298513085689"/><polygon points="399.01099753557025 356.3443308689035 411.91607411197106 356.0839258880289 418.8432067471873 376.1765400805206 388.34575351417834 379.6542464858216"/><polygon points="436.0165347849384 350.6832014516051 464.1985434600235 346.4681232066431 460.3202802556806 374.9869469223473 442.56867619005874 368.09799047660783"/><polygon points="482.3465574084215 354.3465574084215 497.51190494811306 355.8214283852202 495.57023773971355 367.57023773971355 480.75767739001077 372.5756559433225"/><polygon points="12.597676334754244 396.5976763347542 29.02972608086283 397.6369405858038 26.292087828324203 410.29208782832416 16.39059472476805 410.2760719418986"/><polygon points="58.33329161581084 399.66662494914414 79.8979444893944 389.4353888439389 70.91101807453005 412.24435140786335 58.31795378638902 411.0153795469443"/><polygon points="90.45906201540595 389.1257286820726 112.66663137246566 399.3333686275343 113.94356286140636 412.61022952807303 98.01545165635996 413.98454834364003"/><polygon points="139.52983901311393 395.5298390131139 157.11628928843078 397.55037737823585 158.903856651346 414.90385665134596 139.1721438723555 415.49452279431114"/><polygon points="180.75383377788125 394.08716711121457 203.61035053100582 393.72298280232746 202.49942538862857 415.8327587219619 180.24286898379845 417.0904643495349"/><polygon points="220.40409005583038 391.07075672249704 252.03799958985712 387.9620004101429 251.06762887473565 421.7342955414023 221.9847796637217 418.0152203362783"/><polygon points="272.627682402943 400.627682402943 288.1499849904705 394.51668167619613 292.42866658286 420.42866658286 268.27114930918594 414.3955173574807"/><polygon points="309.89693320817094 395.2302665415043 325.840542772783 399.49279056055025 336.37873918050974 421.7120725138431 311.5749318788318 413.75840145450144"/><polygon points="353.5288539873179 396.19552065398454 379.43557966567676 388.5644203343232 370.3806063570594 413.04727302372606 347.8932536559799 420.10674634402005"/><polygon points="390.62134118513103 390.62134118513103 416.2332958350131 394.4333708316535 411.6223692885631 411.6223692885631 393.89113083603684 416.7755358306298"/><polygon points="440.07974123635097 397.41307456968434 462.40094139139177 390.9323919419415 457.0638195318748 414.39715286520817 442.77274237380226 410.560590959531"/><polygon points="481.8120127484014 396.4786794150681 501.62748984339424 394.3725101566057 506.2235619589362 420.8902286256029 473.26930600226734 422.7306939977326"/><polygon points="6.239084524314356 432.905751190981 28.55538387762959 440.77794945570366 32.97875469852393 459.64542136519054 13.786829983362203 455.5465033499711"/><polygon points="47.63628648292567 431.63628648292564 69.07169765737208 442.9283023426279 80.78797463207641 464.7879746320763 53.555481789198296 458.4445182108016"/><polygon points="96.24040953781022 437.5737428711435 113.68241849816131 440.9842481685053 122.93143666575926 464.26476999909255 93.26746418909991 461.3992024775667"/><polygon points="137.59508610256688 436.26175276923345 166.20414289076672 431.1291904425666 164.1939055946984 462.860572261365 135.27457105397124 462.05876227936204"/><polygon points="183.12915180601823 439.12915180601817 196.7383191530396 443.2616808469603 200.411109972758 456.41110997275797 175.8580587553649 464.14194124463506"/><polygon points="224.618031251502 437.9513645848353 251.0898971502736 431.57676951639303 240.09290795781746 453.42624129115075 222.99569289682282 459.6709737698438"/><polygon points="265.8156804624282 436.4823471290948 283.36469171922556 441.9686416141077 283.91169055103836 454.578357217705 267.3914467566048 457.94188657672845"/><polygon points="310.2676725835724 438.2676725835724 328.6583285473956 439.34167145260426 336.671428984115 464.671428984115 303.223075483189 464.7769245168109"/><polygon points="345.35760169790825 430.69093503124157 379.0849235601377 431.58174310652885 369.863792025066 455.1971253583993 350.38050754079325 460.2861591258733"/><polygon points="399.3119776196633 441.97864428632994 412.7629669201069 440.57036641322634 420.115617622205 462.7822842888716 395.36127595586134 457.9720573774719"/><polygon points="431.07478597224633 431.07478597224633 461.6636979894494 434.33630201055047 460.30987214182665 460.30987214182665 438.560439462977 457.4395605370229"/><polygon points="474.93958073647326 432.2729140698066 498.5229314244269 440.1437352422397 501.2168887162445 458.5502220495778 479.62490162339657 459.04176504327"/><polygon points="7.278995832648668 476.612329165982 26.494920449494074 485.5050795505059 36.07768058563956 505.41101391897286 4.52854034909663 507.47145965090334"/><polygon points="54.83438061930839 481.501047285975 77.49576727271815 477.1708993939485 80.77678074697681 507.4434474136434 51.86964757420226 502.7970190924644"/><polygon points="97.68007132374335 481.68007132374333 119.72809600733245 477.60523732600086 118.8397476237888 502.83974762378875 95.46337897045791 501.8699543628754"/><polygon points="136.90090308794237 478.2342364212756 159.879842675823 480.120157324177 154.6640383223905 495.9973716557238 140.44729192221737 499.5527080777826"/><polygon points="183.17585145889288 481.8425181255595 206.54215958522403 476.1245070814426 207.50254858271919 506.16921524938584 177.72157963317815 504.9450870334885"/><polygon points="225.86129382910724 481.86129382910724 248.85274339873075 476.48058993460256 246.28327178456306 502.283271784563 227.8994775586756 497.4338557746577"/><polygon points="270.3496396519811 483.68297298531445 284.24961307659424 483.7503869234057 294.26931339292247 507.6026467262558 269.5936058171943 498.4063941828056"/><polygon points="306.5246775238909 477.1913441905576 328.0077251432134 482.65894152345317 326.91044569417085 497.57711236083753 314.02071319471565 496.6459534719509"/><polygon points="346.412069564441 474.412069564441 378.4572292151317 474.87610411820157 370.5727143534248 498.5727143534248 354.6181897942187 498.71514353911454"/><polygon points="397.08500233971387 482.4183356730472 417.8781217413247 478.1218782586752 419.85106412560333 505.18439745893664 398.72093796311464 497.2790620368853"/><polygon points="432.3532865048563 475.019953171523 454.76752893315205 483.8991377335145 454.36361656255076 497.03028322921745 436.79841707494637 501.8682495917202"/><polygon points="475.7342503321835 475.7342503321835 506.80460245385666 474.5287308794766 504.3898852724329 504.3898852724329 475.07088805012825 506.262445283205"/>
</svg>
