<?xml version="1.0" encoding="UTF-8"?>
<svg xmlns="http://www.w3.org/2000/svg" id="RSSicon" viewBox="0 0 512 512" width="512" height="512">
  <defs>
    <style type="text/css">
      svg {
        background: black;
        margin: calc(50vh - 256px) auto 0;
      }
      
      polygon {stroke: darkorange; fill: none;}
    </style>
  </defs>
  <polygon points="9.822110132903948 9.822110132903948 38.03671147490397 4.629955191762701 34.04025743272223 34.04025743272223 9.372701485272101 33.29396518139456"/><polygon points="46.52571755977479 3.859050893108126 75.54614538381915 9.787187949514179 74.04029852932544 31.373631862658772 58.27419296337604 27.059140369957298"/><polygon points="98.31566698724501 12.982333653911684 112.5078962627261 15.492103737273887 114.86940719774216 29.53607386440884 99.62662847977221 28.373371520227774"/><polygon points="134.89886892048494 6.898868920484929 159.8240324263351 10.842634240331579 163.3024098211848 35.302409821184774 143.58670429597686 27.079962370689806"/><polygon points="181.5660281348445 10.899361468177817 206.20541959358482 7.12791373974852 199.22433155407367 28.557664887407 181.70764339992633 31.625689933407017"/><polygon points="221.73557549767486 8.402242164341533 244.72032199894713 11.279678001052856 243.33065964108698 29.99732630775366 221.3470507793156 34.65294922068439"/><polygon points="272.0145698009366 16.014569800936655 288.6253103748488 10.041356291817817 290.47426364303215 34.474263643032145 268.7809646621691 29.885702004497546"/><polygon points="305.88455462093367 7.217887954267063 334.68674949072783 6.6465838426054535 330.2631973488696 31.596530682202985 309.23036079304393 32.102972540289365"/><polygon points="354.43650729274657 13.1031739594133 374.4938069056899 9.506193094310083 374.06225876631294 32.728925432979636 355.5526619131769 28.44733808682306"/><polygon points="395.3082298853829 11.308229885382934 419.00914639051456 7.657520276152082 413.13201014632585 29.13201014632589 389.75396281705633 36.91270384961032"/><polygon points="442.7543016694805 16.087635002813933 463.5253860056366 5.807947327696654 457.2809272249931 30.614260558326485 432.0549631991527 37.278370134180534"/><polygon points="474.7879567518362 5.454623418502901 501.1149519398451 10.885048060154842 504.74269209292027 35.40935875958698 473.19358294358653 38.80641705641345"/><polygon points="15.257626383276104 57.924293049942776 33.90190390351003 51.4314294298233 26.525843549607146 69.19251021627382 7.117818047740629 78.2155152855927"/><polygon points="58.28796451825903 58.28796451825903 78.04696502786948 49.95303497213053 69.25123836594635 69.25123836594635 46.81613735621406 81.18386264378594"/><polygon points="97.01784387678217 54.35117721011551 114.94237741864444 55.72428924802222 120.35357741946659 77.68691075279993 95.0860148612099 75.58065180545675"/><polygon points="141.6333929070417 56.30005957370834 165.53541197754956 47.797921355783785 163.5770807822153 78.24374744888195 132.3698390609724 80.96349427236095"/><polygon points="183.19671931697852 55.19671931697852 202.36224024976184 53.637759750238146 199.40153963805977 71.40153963805977 182.36675097668456 73.63324902331544"/><polygon points="219.94179401073347 49.27512734406681 244.7489629463212 53.91770372034544 249.8115586041305 79.14489193746384 223.803062403683 74.86360426298367"/><polygon points="271.3881541430325 58.05482080969922 286.9565662695999 54.376767063733425 292.21814568360094 78.88481235026764 272.2671107779775 69.06622255535582"/><polygon points="303.8701689300413 47.87016893004137 330.3510566821093 53.648943317890655 336.9476826636653 80.94768266366539 311.67556650867573 72.3244334913242"/><polygon points="351.3766471703902 52.70998050372356 368.11941736848047 58.54724929818614 370.3716343551527 71.70496768848606 353.08395600900036 73.58271065766627"/><polygon points="397.48886263031636 56.155529296983076 420.7508450328356 48.582488300497694 420.3508551316795 79.01752179834621 398.2215183140629 71.11181501927041"/><polygon points="438.0415107349038 54.04151073490383 452.83146559444936 59.168534405550574 464.1407630826162 80.1407630826163 433.11959516715086 78.88040483284911"/><polygon points="479.8551062027312 53.18843953606452 498.21036855268176 56.45629811398485 504.57021878367186 77.90355211700523 476.632895658928 78.03377100773861"/><polygon points="11.07340541311372 96.40673874644705 35.8943929017893 92.10560709821068 36.43110007264399 121.76443340597731 12.170326389317557 115.82967361068243"/><polygon points="48.844562868805646 91.5112295354723 72.5521724008772 98.11449426578946 79.50820495662651 122.17487162329317 52.271047921330265 118.39561874533639"/><polygon points="96.75477828435642 96.75477828435642 122.98126777483573 90.35206555849759 121.05866982574064 121.05866982574064 96.42062142574221 116.9127119075911"/><polygon points="134.85419307431627 92.1875264076496 155.0789550659621 100.92104493403788 166.57618170094946 123.90951503428279 133.27123466618556 122.72876533381445"/><polygon points="176.3895405607034 91.05620722737007 206.53590992012266 92.130756746544 208.79837014392285 123.46503681058951 176.63024471871688 122.03642194794976"/><polygon points="227.71636305448024 99.71636305448025 249.34586005612906 91.98747327720427 250.00654883430443 122.00654883430443 220.9723679802967 120.36096535303662"/><polygon points="267.97424340648985 97.30757673982322 283.28190491542307 100.71809508457693 286.46769421877895 115.80102755211226 267.5764920921141 116.42350790788589"/><polygon points="311.6356179957296 98.30228466239633 332.8004279910026 93.86623867566402 331.1751470199771 117.84181368664377 310.4816922014479 116.1849744652187"/><polygon points="347.9287774235547 91.92877742355473 375.00821043269445 94.32512290063886 375.0404348560295 119.04043485602952 354.05114810837324 115.28218522496003"/><polygon points="393.9332185066727 95.26655184000604 412.55422248324936 99.4457775167506 410.42053827987223 111.75387161320559 393.90572463654615 118.09427536345382"/><polygon points="437.87933981001305 96.54600647667979 453.1622967851556 101.50436988151097 462.1268124114856 120.79347907815234 441.5919776532798 113.0746890133868"/><polygon points="473.51982319228847 89.5198231922885 499.2127291675878 98.12060416574553 497.33083217778585 113.33083217778588 477.6369872025746 119.6963461307587"/><polygon points="14.268000362954012 142.268000362954 28.01851340758055 142.64815325908611 31.10925093452595 159.10925093452596 13.101373873300847 157.5652927933658"/><polygon points="50.957027503566735 136.29036083690008 76.90818664670357 136.42514668662977 70.83711866887639 156.17045200220974 49.74917583183425 163.58415750149908"/><polygon points="101.83452628094636 144.50119294761305 122.02972413371052 133.97027586628948 113.0436379412125 155.71030460787918 93.40834710727702 162.59165289272298"/><polygon points="143.14111604271088 143.14111604271088 160.67639230816758 137.9902743584991 155.13473179009992 155.13473179009992 137.0457006525507 161.620966014116"/><polygon points="179.54271997521548 136.87605330854882 199.5946459148535 141.73868741847986 202.93364074525437 160.2669740785877 174.53508658060667 166.79824675272667"/><polygon points="223.87591820603947 138.54258487270616 241.44804425816528 142.55195574183472 248.75267718742225 163.41934385408894 219.06153175587082 164.93846824412918"/><polygon points="272.01934657597474 144.01934657597477 293.72331621646055 132.9433504502061 293.1167747292335 165.11677472923353 270.02391875955726 156.64274790710937"/><polygon points="308.43813734239467 137.77147067572807 336.1561237766547 133.1772095566786 326.6852084798943 156.0185418132277 306.32107791862825 163.012255414705"/><polygon points="354.60185378002564 141.26852044669238 379.84548131841495 132.15451868158502 377.52425696352816 164.19092363019485 356.16545966208486 155.83454033791512"/><polygon points="395.5794751886551 139.57947518865512 417.1382661069558 137.52840055971086 418.74533773413145 162.7453377341315 397.1464401284808 157.52022653818585"/><polygon points="438.26429673268103 139.59763006601443 455.2334442301091 142.0998891032242 461.62942661864133 162.96275995197473 434.4604990436089 162.87283428972438"/><polygon points="476.07885429869975 134.74552096536647 507.6199250807704 132.3800749192296 499.44349057124083 158.11015723790754 474.7972522772681 165.20274772273186"/><polygon points="7.055726938801758 177.72239360546843 31.343603985028945 181.9897293483044 36.283731634211364 206.95039830087802 12.471720041127094 200.86161329220624"/><polygon points="48.77738306608432 176.77738306608433 75.53052058455783 180.46947941544215 75.97956654133932 203.97956654133932 56.55590345293891 199.4440965470611"/><polygon points="92.65965823380967 177.992991567143 116.29611898415902 182.37054768250763 113.86405566045721 199.19738899379055 90.69280706968698 207.97385959697968"/><polygon points="144.26769648444804 186.9343631511147 158.98716245964107 182.34617087369227 166.43287639982827 209.09954306649493 139.21082066686432 202.12251266646902"/><polygon points="182.96423386776405 182.96423386776405 199.76525415282123 184.23474584717877 203.6267773624832 203.6267773624832 186.91466427456467 197.08533572543533"/><polygon points="222.39721928094437 179.7305526142777 251.5741638046703 175.09250286199637 247.8812231256454 205.21455645897873 228.6993933937784 197.96727327288826"/><polygon points="260.75759281932477 175.42425948599146 288.9728572992548 180.36047603407846 293.0846588054103 207.751325472077 267.23980127947107 202.09353205386225"/><polygon points="303.37590132571904 175.37590132571913 327.87098796368275 184.12901203631722 333.44484470502266 205.44484470502272 314.8910422819539 197.10895771804604"/><polygon points="349.69707751826473 179.03041085159808 378.1733475634634 176.49331910320325 373.9266366493136 203.25996998264696 351.89508147970287 202.77158518696376"/><polygon points="388.3691930217413 175.035859688408 414.3365190449256 182.9968142884077 415.2965927988976 201.9632594655643 393.71119490040775 203.62213843292557"/><polygon points="436.80333051190144 180.80333051190146 453.5793564329166 186.42064356708335 454.6652902828577 198.6652902828578 436.821536788838 203.17846321116195"/><polygon points="479.5669213583819 180.90025469171525 506.47421947394884 176.1924471927178 501.6320506852682 202.96538401860158 475.9896077582355 206.67705890843115"/><polygon points="10.08200404908264 223.41533738241597 34.09735132571926 221.90264867428073 29.404285657794635 242.73761899112796 7.837608453576614 248.16239154642338"/><polygon points="48.444431914797065 219.11109858146372 74.95156556981304 223.7151010968536 70.85037459209092 241.5170412587576 54.01460543404599 244.65206123262067"/><polygon points="98.83923072437307 226.83923072437307 120.5329032519427 220.8004300813906 118.12365562750665 246.12365562750665 93.27020528077377 248.06312805255956"/><polygon points="135.17552157804707 220.50885491138038 156.7969229251582 227.2030770748418 157.33413398452524 242.66746731785855 132.0853909973106 251.9146090026894"/><polygon points="179.18547509730735 221.85214176397398 200.8504333097108 225.81623335695585 203.94565019128908 246.61231685795573 175.3007184915126 251.36594817515407"/><polygon points="223.4004331192718 223.4004331192718 239.73527840682584 229.59805492650747 248.75244422421918 248.75244422421918 221.84995516268344 247.48337817064987"/><polygon points="271.35437530460456 228.68770863793787 287.0387117639277 224.96128823607225 288.24755596009305 245.58088929342637 271.8445820727979 240.15541792720205"/><polygon points="308.4411973372942 223.10786400396097 329.25111816187996 225.41554850478664 335.51651759774285 250.18318426440956 304.49882920738327 250.16783745928333"/><polygon points="347.1469129734187 219.14691297341875 379.57133721222704 217.76199612110622 369.46877079110794 241.46877079110797 347.95922950126703 249.37410383206628"/><polygon points="396.414380928848 225.74771426218135 420.38785185940463 219.6121481405953 418.8374213207854 248.17075465411872 395.9587055427973 244.0412944572027"/><polygon points="439.69782015883766 226.36448682550437 456.79418977778477 225.87247688888186 461.8156167703246 248.4822834369913 440.7751483573047 241.89151830936189"/><polygon points="475.94805364257985 219.94805364257988 505.5434658714728 219.7898674618605 503.2123889431275 247.21238894312754 478.9196973802032 246.41363595313007"/><polygon points="10.235644283087721 266.2356442830877 31.372495533216643 267.29417113345 28.942825442236373 284.94282544223637 15.186927942532272 283.4797387241344"/><polygon points="46.57308840216355 259.90642173549685 79.82821528924757 261.50511804408575 78.83987709223557 292.17321042556887 56.18358597099115 285.14974736234217"/><polygon points="96.09634129203795 266.76300795870463 112.32011558063182 271.67988441936814 119.77890992431685 290.4455765909835 92.43322404692017 291.5667759530798"/><polygon points="135.47118342278017 263.47118342278014 158.77752320127777 267.8891434653889 155.39268526720176 283.3926852672017 137.74938292979928 288.9172837368674"/><polygon points="186.20765462912996 271.54098796246325 209.31385240133852 260.0194809319948 205.00044898183157 290.33378231516485 175.18367677238066 294.1496565609526"/><polygon points="225.9616298158098 268.62829648247646 249.53012544369815 262.4698745563018 250.61586315548712 293.2825298221538 227.46400854226872 284.53599145773126"/><polygon points="262.975160717504 262.975160717504 287.40233438712556 267.26433227954107 285.10992475739414 285.10992475739414 269.48079091466167 285.18587575200496"/><polygon points="306.93411471310463 264.267448046438 331.76922457682633 265.5641087565069 332.37999974627087 289.71333307960424 304.40431100646686 292.9290223268664"/><polygon points="356.5630376590554 271.2297043257221 368.2501486871143 271.74985131288565 368.7922281918544 283.4588948585211 353.5130697689881 286.48693023101185"/><polygon points="399.43236852101177 271.43236852101177 411.24610231939005 271.4205643472766 421.56122004521876 293.56122004521876 394.6827192094194 287.9839474572472"/><polygon points="434.6286099729783 263.9619433063117 461.42066404261436 263.9126692907189 453.1509200636646 282.484253396998 439.85456112868684 285.4787722046464"/><polygon points="473.88150633428273 260.5481730009494 495.72625473237395 272.273745267626 504.0379363336607 290.7046030003274 475.48269691875475 292.5173030812452"/><polygon points="16.25774218096246 314.9244088476291 38.381082759240755 302.95225057409255 33.43377938782599 332.1004460544926 15.639767355900998 325.6935659774323"/><polygon points="53.75937520400231 309.75937520400225 73.99185639606543 310.0081436039345 73.8776860212121 329.87768602121207 58.59168863869083 325.40831136130913"/><polygon points="93.7931746557977 307.12650798913097 115.10794754469644 311.55871912197017 113.06210997699007 326.39544331032334 93.57982013585115 333.0868465308155"/><polygon points="138.32700106388904 308.99366773055567 154.0818071174142 315.2515262159191 164.09080349404312 334.7574701607097 135.79564961020662 333.53768372312663"/><polygon points="185.31663924849866 313.3166392484986 208.89039966944273 303.1096003305572 206.5845977834911 334.58459778349106 182.57272439307144 329.4272756069285"/><polygon points="226.08604872812472 311.419382061458 239.40863903471674 315.25802763194986 245.01540349698578 330.34873683031907 229.37361489310055 325.29305177356605"/><polygon points="266.3342367257408 309.00090339240745 294.8060711784753 302.52726215485797 284.49962151802725 327.1662881846939 261.24318881839616 336.0901445149371"/><polygon points="313.812930690017 313.812930690017 330.5066840731383 309.4933159268616 333.3016505517071 333.3016505517071 306.28447211352324 333.71552788647665"/><polygon points="356.24431992126665 313.57765325459997 379.47991484464546 303.1867518220211 377.6392405926772 334.9725739260105 354.8627742407243 327.80389242594225"/><polygon points="399.42275158415634 314.089418250823 416.68299240810916 308.6503409252241 421.4686733123778 336.13533997904443 391.74685911077006 333.5864742225632"/><polygon points="431.09784460016795 303.09784460016795 454.76673943673205 313.23326056326783 464.68338681934256 336.68338681934256 435.71365052454985 332.28634947545004"/><polygon points="475.4467637129741 304.7800970463074 496.9148482555146 313.751818411152 505.35246984892075 334.68580318225406 478.79807188797577 331.8685947786908"/><polygon points="10.814985904431124 352.14831923776444 30.902863876786135 353.09713612321383 29.837801536999145 371.1711348703324 12.49592880624884 371.50407119375114"/><polygon points="57.37498145453845 356.04164812120507 71.83376956869861 354.832897097968 79.73046066616882 378.39712733283545 55.872550071433736 370.7941165952329"/><polygon points="94.83837378680934 350.8383737868093 116.99226429654816 352.34106903678514 121.87641414323184 377.87641414323184 94.24724809692339 375.0860852364099"/><polygon points="140.03627215408926 353.3696054874225 162.59757338916444 349.4024266108355 162.96604086137998 376.29937419471327 138.86216123239865 373.1378387676013"/><polygon points="174.73978399634512 345.40645066301175 207.8130298952415 346.85363677142516 196.79789289284537 367.464559559512 183.37239760282583 371.2942690638408"/><polygon points="218.55837566124075 346.55837566124075 242.14152864731017 355.1918046860231 251.77032588391825 379.7703258839182 220.52387128069105 376.80946205264223"/><polygon points="268.031602940037 353.3649362733703 287.86354651860086 352.13645348139903 294.7194764707553 380.0528098040886 271.2812756783172 368.71872432168277"/><polygon points="313.0380421007143 355.704708767381 334.49794751003816 348.1687191566284 334.09384806288875 376.76051472955544 308.49594135836594 374.17072530830063"/><polygon points="355.6514261333097 355.6514261333097 368.8903660921266 356.44296724120665 376.9372911988417 376.9372911988417 348.54602755383513 376.7873057794981"/><polygon points="393.1801831257572 350.5135164590905 417.87486110673314 350.1251388932668 419.59098660243 376.9243199357633 393.77865254806363 374.2213474519363"/><polygon points="431.59873841230984 346.2654050789765 457.81313774825026 352.8535289184163 458.23589144654693 372.9025581132136 438.8081661212312 371.8585005454354"/><polygon points="473.32873373007806 345.32873373007806 499.5352593434658 353.7980739898675 500.958144153206 372.958144153206 480.01117010382643 373.3221632295068"/><polygon points="12.978830077996882 396.97883007799686 35.454638330932575 391.2120283357341 32.79665331292035 416.79665331292034 15.09023323838391 411.5764334282827"/><polygon points="57.695180269679256 399.0285136030126 71.5651061451604 397.76822718817294 80.03139330461445 421.3647266379478 47.11959062220875 422.21374271112455"/><polygon points="95.63807265721712 394.3047393238838 114.89258788398847 397.1074121160115 111.69780247091786 410.36446913758454 96.86299492500105 415.1370050749989"/><polygon points="142.21403058741143 398.2140305874114 159.4028450100333 395.26382165663335 163.6421674702741 419.6421674702741 136.36461539337014 418.3020512732965"/><polygon points="175.52860948331363 388.86194281664694 205.0198071925176 392.3135261408157 200.52289877269297 413.8562321060263 182.42632525873572 414.9070080745976"/><polygon points="218.12537532900674 388.7920419956734 248.98827194925235 391.01172805074765 248.8259569812224 419.49262364788905 224.8792688584634 415.12073114153657"/><polygon points="267.67127787151384 395.67127787151384 282.7202137925886 399.94645287407803 286.57708660232606 414.57708660232606 270.1292205898697 412.5374460767969"/><polygon points="313.46633569648725 398.7996690298206 326.8592181002488 398.47411523308443 332.6804939214224 418.01382725475577 305.47683811544215 419.8564952178911"/><polygon points="354.00687660745234 396.673543274119 371.72637704743534 396.2736229525646 378.54476528950045 421.21143195616713 356.38836081275497 411.611639187245"/><polygon points="398.6750846808682 398.6750846808682 416.3137276263633 394.35293904030334 417.0732026719539 417.0732026719539 396.06052815693613 414.6061385097305"/><polygon points="430.9908156389177 388.32414897225107 453.1621743416147 400.1711589917186 455.1469005410168 412.4802338743502 433.9043541705018 419.42897916283147"/><polygon points="479.5984844763952 394.26515114306187 505.7974375569431 390.2025624430568 507.8812361673936 422.54790283406027 473.26767258000916 422.7323274199908"/><polygon points="4.268541641737787 430.9352083084044 34.38732291785871 434.9460104154746 33.676513748815466 460.3431804154821 10.599495121082953 458.7338382122503"/><polygon points="56.11930724088292 440.11930724088285 71.27690946932101 440.7230905306789 72.54104795343781 456.5410479534377 58.378067989719604 453.6219320102803"/><polygon points="89.70306101278324 431.03639434611654 119.78613267563509 434.88053399103154 112.19589523634595 453.5292285696792 92.64064441413407 462.0260222525325"/><polygon points="138.77420277088572 437.44086943755235 158.27861308610187 439.0547202472314 165.74782876059504 464.4144954272616 136.06944323987022 461.26389009346303"/><polygon points="182.67478630195964 438.67478630195956 204.49991051467623 435.5000894853237 197.96448789158967 453.9644878915896 186.7183754118018 453.28162458819816"/><polygon points="219.74884470045959 433.08217803379284 249.85301008221748 432.8136565844491 250.65679105465262 463.9901243879859 222.15560769630218 460.5110589703644"/><polygon points="260.8863202079822 431.5529868746488 287.9771625790494 437.3561707542839 293.9244720429872 464.5911387096538 262.22325915200537 463.1100741813279"/><polygon points="314.2501982245735 442.2501982245735 336.95811786163597 431.0418821383639 328.9101618002143 456.9101618002143 313.3557579694232 454.64424203057666"/><polygon points="350.13719146139914 435.47052479473246 374.9268536002685 435.7398130663981 376.90030717092344 462.23364050425675 356.9233100839799 453.74335658268666"/><polygon points="396.22160407803415 438.8882707447008 417.9593324198719 435.3740009134614 410.1440018230575 452.81066848972415 392.9247365934032 460.40859673993003"/><polygon points="437.3067384788772 437.3067384788772 460.2950155535797 435.7049844464202 461.50744828390856 461.50744828390856 435.81707813457064 460.18292186542925"/><polygon points="484.8749367432332 442.2082700765666 502.7631876813017 435.90347898536487 496.3206820274473 453.6540153607806 474.9144826989573 463.7521839677093"/><polygon points="13.557553784009098 482.8908871173424 26.848703320328898 485.1512966796711 32.55626823617148 501.8896015695048 7.144707056261787 504.85529294373816"/><polygon points="47.51349523299304 474.18016189965965 81.26488893189311 473.40177773477353 72.18841746012832 498.85508412679496 48.1770365771298 506.48963008953683"/><polygon points="92.52464535355884 476.5246453535588 113.17138194996265 484.16195138337065 119.35786228663984 503.35786228663983 96.20148002567629 501.131853307657"/><polygon points="133.49098999514106 474.82432332847435 158.88043222898568 481.1195677710143 160.29291691181805 501.62625024515137 133.9715326147022 506.0284673852978"/><polygon points="175.47771117965226 474.1443778463189 208.98932148852793 473.6773451781387 203.2741905797669 501.94085724643355 177.47785700661754 505.18880966004906"/><polygon points="225.56715639032734 481.56715639032734 250.7769593385126 474.5563739948207 249.44554757831537 505.4455475783153 221.65938901947993 503.6739443138534"/><polygon points="267.7377110983125 481.0710444316458 287.45318744815256 480.54681255184744 286.3187250114836 499.6520583448169 261.6047630340206 506.39523696597934"/><polygon points="308.21618659731087 478.88285326397755 335.99673863857413 474.66992802809244 326.34412420860065 497.01079087526733 314.6308551937322 496.03581147293437"/><polygon points="352.7220435512503 480.7220435512503 378.2454106737244 475.08792265960886 374.4933286172051 502.4933286172051 346.0834243828463 507.24990895048694"/><polygon points="396.10883052603015 481.44216385936346 413.11846741907954 482.8815325809204 414.23171457994584 499.56504791327916 393.8520911714157 502.14790882858426"/><polygon points="440.2505632537525 482.9172299204192 452.7897547371633 485.87691192950325 455.1721756050629 497.83884227172956 434.4571201282141 504.2095465384525"/><polygon points="479.4297664167922 479.4297664167922 499.7097839263698 481.62354940696343 497.54357085908055 497.54357085908055 476.04084014762964 505.2924931857036"/>
</svg>
