<?xml version="1.0" encoding="UTF-8"?>
<svg xmlns="http://www.w3.org/2000/svg" id="RSSicon" viewBox="0 0 512 512" width="512" height="512">
  <defs>
    <style type="text/css">
      svg {
        background: black;
        margin: calc(50vh - 256px) auto 0;
      }
      
      polygon {stroke: darkorange; fill: none;}
    </style>
  </defs>
  <polygon points="10.666666666666666 10.666666666666666 32 10.666666666666666 32 32 10.666666666666666 32"/><polygon points="48.060908633464294 10.666666666666666 74.66666666666667 10.666666666666666 76.09057008046604 32 53.333333333333336 32"/><polygon points="98.89395522872555 10.666666666666666 117.33333333333333 10.666666666666666 123.16158831470912 32 95.99999999999999 32"/><polygon points="123.16177685511879 10.666666666666666 160 10.666666666666666 164.8821665754742 32 138.66666666666669 32"/><polygon points="187.79634894950968 10.666666666666666 202.66666666666666 10.666666666666666 216.94087428579164 32 181.33333333333334 32"/><polygon points="225.30250055429343 10.666666666666666 245.33333333333331 10.666666666666666 250.02065936781398 32 224 32"/><polygon points="251.6589178312406 10.666666666666666 288 10.666666666666666 319.75128527783966 32 266.66666666666663 32"/><polygon points="337.2615422395845 10.666666666666666 330.66666666666663 10.666666666666666 303.0298143575834 32 309.33333333333326 32"/><polygon points="338.78102286900236 10.666666666666666 373.3333333333333 10.666666666666666 378.4982279313066 32 351.99999999999994 32"/><polygon points="423.57585886875705 10.666666666666666 416 10.666666666666666 440.534976043613 32 394.66666666666663 32"/><polygon points="453.90573174522206 10.666666666666666 458.66666666666663 10.666666666666666 480.1677015550047 32 437.33333333333326 32"/><polygon points="436.9815785647226 10.666666666666666 501.3333333333333 10.666666666666666 464.1411106226714 32 479.99999999999994 32"/><polygon points="10.666666666666666 53.333333333333336 28.91936212747745 53.333333333333336 32 74.66666666666667 12.38035688272949 74.66666666666667"/><polygon points="56.8874560113827 53.333333333333336 75.08438741373371 53.333333333333336 77.8769371397544 74.66666666666667 55.33492147434522 74.66666666666667"/><polygon points="93.93057987928786 53.333333333333336 122.60339503161637 53.333333333333336 115.06910764506105 74.66666666666667 96.9677645143017 74.66666666666667"/><polygon points="138.83739554850357 53.333333333333336 161.4552977310381 53.333333333333336 174.51696074648223 74.66666666666667 138.8427999166676 74.66666666666667"/><polygon points="198.3568390560659 53.333333333333336 203.55886963738791 53.333333333333336 212.0969655543943 74.66666666666667 177.06908315585355 74.66666666666667"/><polygon points="238.31909309002836 53.333333333333336 241.9553298353926 53.333333333333336 218.73971866422102 74.66666666666667 228.59848499750774 74.66666666666667"/><polygon points="242.96004123015342 53.333333333333336 289.5304278323875 53.333333333333336 268.19973977350435 74.66666666666667 265.0893920974154 74.66666666666667"/><polygon points="328.5529395076325 53.333333333333336 335.46038488944237 53.333333333333336 326.53019226313876 74.66666666666667 312.7846810819383 74.66666666666667"/><polygon points="374.82035925201933 53.333333333333336 371.8635003273822 53.333333333333336 400.2065706126115 74.66666666666667 348.39258911855796 74.66666666666667"/><polygon points="410.1352185049572 53.333333333333336 413.2575260723183 53.333333333333336 402.611135929001 74.66666666666667 390.92226062357173 74.66666666666667"/><polygon points="458.63994615807485 53.333333333333336 459.832253848387 53.333333333333336 440.8434792615447 74.66666666666667 440.3662414850822 74.66666666666667"/><polygon points="453.46117598251703 53.333333333333336 503.8447903920277 53.333333333333336 550.0151358222944 74.66666666666667 483.68107802747267 74.66666666666667"/><polygon points="10.666666666666666 95.99999999999999 31.742410673431124 95.99999999999999 32 117.33333333333333 20.499594025538684 117.33333333333333"/><polygon points="57.27427165100623 95.99999999999999 66.37944086293061 95.99999999999999 70.76186513744591 117.33333333333333 52.32995936464668 117.33333333333333"/><polygon points="90.63811892188119 95.99999999999999 111.27955241031809 95.99999999999999 115.69968568690554 117.33333333333333 87.21228867473062 117.33333333333333"/><polygon points="128.08290614078135 95.99999999999999 159.0915000513723 95.99999999999999 161.93174431886172 117.33333333333333 132.12400765288936 117.33333333333333"/><polygon points="160.80000951356806 95.99999999999999 201.63518085266688 95.99999999999999 187.10344271259444 117.33333333333333 190.67424934197425 117.33333333333333"/><polygon points="229.24275273977545 95.99999999999999 252.3389148431236 95.99999999999999 271.8446865261387 117.33333333333333 227.66729616443527 117.33333333333333"/><polygon points="249.79336469110527 95.99999999999999 286.6067326841869 95.99999999999999 274.3470710419034 117.33333333333333 261.3569281605239 117.33333333333333"/><polygon points="342.1761769261915 95.99999999999999 331.9221833523072 95.99999999999999 308.5072783587355 117.33333333333333 313.7640433136803 117.33333333333333"/><polygon points="315.40757675647615 95.99999999999999 373.3354012874638 95.99999999999999 406.62843378915846 117.33333333333333 346.1138823302875 117.33333333333333"/><polygon points="405.1443706562058 95.99999999999999 412.373140879869 95.99999999999999 419.87978432384637 117.33333333333333 395.6175316700902 117.33333333333333"/><polygon points="463.81505400196346 95.99999999999999 450.63902325727844 95.99999999999999 438.5488696310261 117.33333333333333 439.5348022228751 117.33333333333333"/><polygon points="434.8937675394919 95.99999999999999 496.0954787617077 95.99999999999999 485.6032320050048 117.33333333333333 470.09031444408504 117.33333333333333"/><polygon points="10.666666666666666 138.66666666666669 39.73710984691182 138.66666666666669 32 160 8.406387950514217 160"/><polygon points="49.2096521064999 138.66666666666669 71.51943875635823 138.66666666666669 70.87749561253264 160 55.6452756967143 160"/><polygon points="85.41007050273913 138.66666666666669 105.41807185939852 138.66666666666669 127.16774791211196 160 105.75799597420391 160"/><polygon points="123.12852643476631 138.66666666666669 164.61153568732186 138.66666666666669 145.04290129229787 160 134.8548411110647 160"/><polygon points="181.65665737490352 138.66666666666669 208.73237221884753 138.66666666666669 198.83238550951845 160 169.9808743397997 160"/><polygon points="211.78633732201854 138.66666666666669 248.72507215529123 138.66666666666669 222.3095384685417 160 212.28317129784816 160"/><polygon points="291.6962775648345 138.66666666666669 293.0132615309537 138.66666666666669 270.28137620852686 160 255.96679076602248 160"/><polygon points="342.75367205946776 138.66666666666669 328.3914618479218 138.66666666666669 295.39153268740745 160 303.5467398286086 160"/><polygon points="384.331362792967 138.66666666666669 378.61569762781244 138.66666666666669 378.57215606995277 160 353.4052073774468 160"/><polygon points="381.68665929057653 138.66666666666669 407.53249326521626 138.66666666666669 393.4134353297684 160 382.69815841974 160"/><polygon points="454.0381368608749 138.66666666666669 443.7176138596656 138.66666666666669 442.53141895117403 160 425.6413194759863 160"/><polygon points="519.0697460442225 138.66666666666669 510.987940069839 138.66666666666669 522.370806610485 160 464.33739999542337 160"/><polygon points="10.666666666666666 181.33333333333334 51.78158508969382 181.33333333333334 32 202.66666666666666 15.013412955945313 202.66666666666666"/><polygon points="52.924010472047904 181.33333333333334 63.30221986598172 181.33333333333334 79.52687489318146 202.66666666666666 34.881952250987865 202.66666666666666"/><polygon points="94.19226948788477 181.33333333333334 133.96347349415123 181.33333333333334 118.1000111825507 202.66666666666666 97.85756877699724 202.66666666666666"/><polygon points="128.17154879187893 181.33333333333334 158.53746446137617 181.33333333333334 162.22916491484239 202.66666666666666 152.55699773094997 202.66666666666666"/><polygon points="193.87957998570397 181.33333333333334 215.842386069198 181.33333333333334 182.96835808906346 202.66666666666666 160.68090698800088 202.66666666666666"/><polygon points="249.5998804362141 181.33333333333334 254.00440110656214 181.33333333333334 255.33661400056366 202.66666666666666 229.42502666622747 202.66666666666666"/><polygon points="292.7546948346755 181.33333333333334 273.50002737520776 181.33333333333334 284.88478318413166 202.66666666666666 282.95413071318046 202.66666666666666"/><polygon points="295.80710684401276 181.33333333333334 310.4119197203691 181.33333333333334 356.8502694619443 202.66666666666666 300.45846345999877 202.66666666666666"/><polygon points="388.2096506896204 181.33333333333334 361.0727008195269 181.33333333333334 345.46592240851487 202.66666666666666 356.5780461925373 202.66666666666666"/><polygon points="428.89099654119116 181.33333333333334 428.61618827830324 181.33333333333334 399.69120482577387 202.66666666666666 388.36614364407745 202.66666666666666"/><polygon points="451.20027049552084 181.33333333333334 459.30762467139544 181.33333333333334 510.11088751218097 202.66666666666666 442.68267744216826 202.66666666666666"/><polygon points="499.8326946008027 181.33333333333334 509.1955293902578 181.33333333333334 500.76522156900046 202.66666666666666 472.34223691399274 202.66666666666666"/><polygon points="10.666666666666666 224 38.30368439335284 224 32 245.33333333333331 -10.644845889352592 245.33333333333331"/><polygon points="52.65309639418756 224 87.53778455196797 224 70.50282312204287 245.33333333333331 50.675861510238654 245.33333333333331"/><polygon points="88.75314007052248 224 134.88014955462043 224 127.94207237636759 245.33333333333331 80.32297510359655 245.33333333333331"/><polygon points="130.26618843367604 224 173.99899669556203 224 151.634194330723 245.33333333333331 143.80051422436776 245.33333333333331"/><polygon points="187.13833094861897 224 222.803829541953 224 185.26138643564812 245.33333333333331 191.15489034141433 245.33333333333331"/><polygon points="221.2243258829848 224 256.0611803275491 224 220.71541480157856 245.33333333333331 222.57136894170344 245.33333333333331"/><polygon points="258.57936209419285 224 273.3369847713124 224 279.5645735120793 245.33333333333331 262.28481325434217 245.33333333333331"/><polygon points="306.16535467348587 224 339.8218301372038 224 362.49635642930286 245.33333333333331 308.6613059165143 245.33333333333331"/><polygon points="314.5592791917976 224 385.13812253272914 224 405.90399842672537 245.33333333333331 330.42888676665507 245.33333333333331"/><polygon points="394.52691685405773 224 398.5902894072545 224 450.601765891432 245.33333333333331 376.3162424900661 245.33333333333331"/><polygon points="468.4706701694403 224 465.3404433068494 224 488.92090818386436 245.33333333333331 450.0712549510359 245.33333333333331"/><polygon points="444.6743964321517 224 491.5745866815359 224 502.9331097208577 245.33333333333331 472.41748516283434 245.33333333333331"/><polygon points="10.666666666666666 266.66666666666663 45.89492417536046 266.66666666666663 32 288 16.5582307952266 288"/><polygon points="55.559430335535886 266.66666666666663 43.25082749142901 266.66666666666663 79.41271428832513 288 34.79460481046501 288"/><polygon points="100.75987373658545 266.66666666666663 110.99806657731361 266.66666666666663 120.02979405793091 288 111.13341124307382 288"/><polygon points="125.05723039607736 266.66666666666663 181.5385320689966 266.66666666666663 150.09282699933595 288 118.9215330168615 288"/><polygon points="176.9569682274403 266.66666666666663 219.69711226171833 266.66666666666663 181.58261806052064 288 210.12156584686906 288"/><polygon points="213.19753555245714 266.66666666666663 233.75385741408775 266.66666666666663 219.0014946643468 288 206.4199860575367 288"/><polygon points="240.91938937053774 266.66666666666663 304.77471839514635 266.66666666666663 259.04481123542223 288 274.07409832305973 288"/><polygon points="312.8539736303318 266.66666666666663 313.7548562063329 266.66666666666663 318.93276299614354 288 289.8111878971684 288"/><polygon points="390.244806108084 266.66666666666663 385.8796852870081 266.66666666666663 335.88416229869296 288 378.43574774894927 288"/><polygon points="417.40442506178425 266.66666666666663 404.09294144104814 266.66666666666663 423.071859442368 288 413.27893347425186 288"/><polygon points="464.63068900676734 266.66666666666663 431.3041491157611 266.66666666666663 420.996162881644 288 426.5735401689017 288"/><polygon points="427.99814034018465 266.66666666666663 517.458223482053 266.66666666666663 536.9312220958019 288 469.90898401920305 288"/><polygon points="10.666666666666666 309.33333333333326 36.49303354469125 309.33333333333326 32 330.66666666666663 -10.68170893068881 330.66666666666663"/><polygon points="53.93960203562884 309.33333333333326 75.42226233007749 309.33333333333326 72.72346958876257 330.66666666666663 80.18535923466168 330.66666666666663"/><polygon points="96.15013110134684 309.33333333333326 113.21525218917343 309.33333333333326 108.86360444189472 330.66666666666663 109.42835160098964 330.66666666666663"/><polygon points="133.24761882001494 309.33333333333326 125.4302719973536 309.33333333333326 152.0884929089209 330.66666666666663 106.43805492966924 330.66666666666663"/><polygon points="189.04432679332297 309.33333333333326 213.52856284789308 309.33333333333326 219.31802414716958 330.66666666666663 182.68116800015179 330.66666666666663"/><polygon points="202.4866428426354 309.33333333333326 241.69904397737355 309.33333333333326 271.8657062544034 330.66666666666663 257.28749525832666 330.66666666666663"/><polygon points="254.30501608149882 309.33333333333326 309.0927253708452 309.33333333333326 256.85856229953066 330.66666666666663 273.82393174333293 330.66666666666663"/><polygon points="297.382380673198 309.33333333333326 354.5065636005369 309.33333333333326 363.4638973897904 330.66666666666663 313.60488357111655 330.66666666666663"/><polygon points="389.5297489859791 309.33333333333326 342.59347898075055 309.33333333333326 377.3087928343618 330.66666666666663 314.76892636369377 330.66666666666663"/><polygon points="368.00979829661145 309.33333333333326 393.94148045024355 309.33333333333326 370.13108403518333 330.66666666666663 399.06307121219703 330.66666666666663"/><polygon points="393.05827050383095 309.33333333333326 494.67533578961957 309.33333333333326 472.3466771392715 330.66666666666663 408.2218135510634 330.66666666666663"/><polygon points="471.14109681342774 309.33333333333326 518.2958202903953 309.33333333333326 475.4070977907721 330.66666666666663 490.53544673033025 330.66666666666663"/><polygon points="10.666666666666666 351.99999999999994 28.787644027326866 351.99999999999994 32 373.3333333333333 49.9929077210164 373.3333333333333"/><polygon points="54.19096351544904 351.99999999999994 114.79609779712678 351.99999999999994 70.54521885569116 373.3333333333333 17.445311909421115 373.3333333333333"/><polygon points="86.55519350455711 351.99999999999994 149.47132343387943 351.99999999999994 125.64134711577036 373.3333333333333 120.33458244229789 373.3333333333333"/><polygon points="126.32606295809488 351.99999999999994 160.2506747454431 351.99999999999994 158.33871103523916 373.3333333333333 121.54401393058097 373.3333333333333"/><polygon points="164.66825290346964 351.99999999999994 192.7537353388548 351.99999999999994 210.92534478896246 373.3333333333333 175.2370375981413 373.3333333333333"/><polygon points="215.5160780278066 351.99999999999994 256.8188435441879 351.99999999999994 251.83324423420459 373.3333333333333 266.4333878375286 373.3333333333333"/><polygon points="297.7911432185627 351.99999999999994 245.43066420054967 351.99999999999994 299.2341284498068 373.3333333333333 285.3922432474932 373.3333333333333"/><polygon points="330.87672927071134 351.99999999999994 370.5424654610163 351.99999999999994 363.8077116855761 373.3333333333333 348.623249843469 373.3333333333333"/><polygon points="325.30887684913614 351.99999999999994 367.69803576356327 351.99999999999994 337.4686856042365 373.3333333333333 331.71207906262737 373.3333333333333"/><polygon points="392.71693471152406 351.99999999999994 438.1772357383906 351.99999999999994 430.51339583255333 373.3333333333333 420.1901515588648 373.3333333333333"/><polygon points="461.87304159161806 351.99999999999994 438.2056905793289 351.99999999999994 492.7385868957496 373.3333333333333 439.5451567164991 373.3333333333333"/><polygon points="432.2693662243332 351.99999999999994 481.5465478048211 351.99999999999994 557.3754421597679 373.3333333333333 518.6272817061889 373.3333333333333"/><polygon points="10.666666666666666 394.66666666666663 21.634726185627635 394.66666666666663 32 416 -5.907517853473735 416"/><polygon points="54.86593321485774 394.66666666666663 111.52038542120769 394.66666666666663 71.33031792745406 416 24.42252473873164 416"/><polygon points="106.34266947620507 394.66666666666663 111.43263079965222 394.66666666666663 121.80422563618714 416 49.43472844837134 416"/><polygon points="135.77969283004865 394.66666666666663 156.82693228461352 394.66666666666663 154.48852425029708 416 103.02946746983733 416"/><polygon points="192.00658823879238 394.66666666666663 168.43167483097497 394.66666666666663 210.4776443960667 416 149.86551011797144 416"/><polygon points="244.60698588361836 394.66666666666663 233.07292953766404 394.66666666666663 234.9305079650395 416 225.8805112405007 416"/><polygon points="259.3768819439844 394.66666666666663 286.3947327923061 394.66666666666663 300.01800031989274 416 219.2626038995583 416"/><polygon points="331.4627274249452 394.66666666666663 305.543977983525 394.66666666666663 367.9789845128682 416 263.99405919304525 416"/><polygon points="379.495573260906 394.66666666666663 360.277255747012 394.66666666666663 352.2286497757749 416 398.81994110443725 416"/><polygon points="393.54459914956266 394.66666666666663 404.8881975796239 394.66666666666663 403.52208033665016 416 390.4432507117798 416"/><polygon points="411.04375689797706 394.66666666666663 428.2542342377094 394.66666666666663 507.2187016342856 416 464.592485633175 416"/><polygon points="463.2192008460826 394.66666666666663 462.36893070819053 394.66666666666663 553.6496930169747 416 450.22419953232367 416"/><polygon points="10.666666666666666 437.33333333333326 -20.221810144066293 437.33333333333326 32 458.66666666666663 -13.384871339731045 458.66666666666663"/><polygon points="53.91038309831241 437.33333333333326 56.759455611472454 437.33333333333326 78.75125092836304 458.66666666666663 98.37224776969663 458.66666666666663"/><polygon points="92.08803972484344 437.33333333333326 149.3243057861525 437.33333333333326 126.79598891470175 458.66666666666663 80.36385349433566 458.66666666666663"/><polygon points="136.68931506297693 437.33333333333326 110.34571501178546 437.33333333333326 154.33628782193452 458.66666666666663 154.27631882189843 458.66666666666663"/><polygon points="173.37075471883117 437.33333333333326 156.03859069666763 437.33333333333326 185.963539840542 458.66666666666663 146.0507421746121 458.66666666666663"/><polygon points="242.0194797386568 437.33333333333326 278.493685380932 437.33333333333326 225.00898215161598 458.66666666666663 235.5495337229064 458.66666666666663"/><polygon points="279.4621057041765 437.33333333333326 248.29819528915237 437.33333333333326 299.5933755444509 458.66666666666663 298.24603474172574 458.66666666666663"/><polygon points="312.20161506657485 437.33333333333326 299.8725287532196 437.33333333333326 336.4497881490537 458.66666666666663 333.83124441905454 458.66666666666663"/><polygon points="384.27206636329805 437.33333333333326 347.56151955547415 437.33333333333326 349.6526529788704 458.66666666666663 348.06967986910263 458.66666666666663"/><polygon points="402.14201763319926 437.33333333333326 433.0499077231931 437.33333333333326 454.8990417981098 458.66666666666663 390.9183352151231 458.66666666666663"/><polygon points="485.74320992914045 437.33333333333326 426.816827010598 437.33333333333326 443.22117850655076 458.66666666666663 439.9864544494188 458.66666666666663"/><polygon points="441.9196035669694 437.33333333333326 536.293399479285 437.33333333333326 472.1563667014819 458.66666666666663 467.4731311386528 458.66666666666663"/><polygon points="10.666666666666666 479.99999999999994 37.089654238874054 479.99999999999994 32 501.3333333333333 -13.656974786292746 501.3333333333333"/><polygon points="53.75911966342326 479.99999999999994 91.96598607042444 479.99999999999994 76.56498399358726 501.3333333333333 17.638753891253685 501.3333333333333"/><polygon points="102.3158026898109 479.99999999999994 66.9188895333634 479.99999999999994 108.06867526867609 501.3333333333333 144.5606029550135 501.3333333333333"/><polygon points="152.5941909011753 479.99999999999994 109.01992920051099 479.99999999999994 166.65110667633627 501.3333333333333 148.94206138287424 501.3333333333333"/><polygon points="174.4621660389832 479.99999999999994 202.23645812241654 479.99999999999994 221.75283886380652 501.3333333333333 232.4344142306172 501.3333333333333"/><polygon points="200.9844878592136 479.99999999999994 218.06599300707614 479.99999999999994 220.9968340059686 501.3333333333333 256.97074617346885 501.3333333333333"/><polygon points="247.14777637005207 479.99999999999994 242.57265865653343 479.99999999999994 277.7064172069814 501.3333333333333 254.57724641008454 501.3333333333333"/><polygon points="303.81605201732543 479.99999999999994 335.9244431426754 479.99999999999994 366.3171300570934 501.3333333333333 314.2076985968379 501.3333333333333"/><polygon points="328.8193838227835 479.99999999999994 315.9074410311234 479.99999999999994 407.64108410780807 501.3333333333333 370.48733681764134 501.3333333333333"/><polygon points="385.3912856085561 479.99999999999994 451.49157219829704 479.99999999999994 458.47886249002914 501.3333333333333 342.1829848220775 501.3333333333333"/><polygon points="478.77173967745534 479.99999999999994 492.7819119301017 479.99999999999994 481.97902801747193 501.3333333333333 412.1627764491647 501.3333333333333"/><polygon points="440.6659722099645 479.99999999999994 447.6881975130581 479.99999999999994 527.8722908216171 501.3333333333333 483.3794698679215 501.3333333333333"/>
</svg>
