<?xml version="1.0" encoding="UTF-8"?>
<svg xmlns="http://www.w3.org/2000/svg" id="RSSicon" viewBox="0 0 512 512" width="512" height="512">
  <defs>
    <style type="text/css">
      svg {
        background: black;
        margin: calc(50vh - 256px) auto 0;
      }
      
      polygon {stroke: darkorange; fill: none;}
    </style>
  </defs>
  <polygon points="10.666666666666666 10.666666666666666 32 10.666666666666666 32 32 10.666666666666666 32"/><polygon points="53.80730653645475 10.666666666666666 74.66666666666667 10.666666666666666 74.12029140407434 32 53.333333333333336 32"/><polygon points="102.16220467296804 10.666666666666666 117.33333333333333 10.666666666666666 113.74681099627111 32 95.99999999999999 32"/><polygon points="149.07380678619353 10.666666666666666 160 10.666666666666666 158.24353212026224 32 138.66666666666669 32"/><polygon points="175.84580550685226 10.666666666666666 202.66666666666666 10.666666666666666 195.01162556767147 32 181.33333333333334 32"/><polygon points="211.93164508394094 10.666666666666666 245.33333333333331 10.666666666666666 271.45421506500963 32 224 32"/><polygon points="236.74234182525745 10.666666666666666 288 10.666666666666666 262.56924211099283 32 266.66666666666663 32"/><polygon points="331.7351025677238 10.666666666666666 330.66666666666663 10.666666666666666 322.8810335701459 32 309.33333333333326 32"/><polygon points="375.6618076543461 10.666666666666666 373.3333333333333 10.666666666666666 375.53941252231647 32 351.99999999999994 32"/><polygon points="383.22783468600073 10.666666666666666 416 10.666666666666666 452.9080805948683 32 394.66666666666663 32"/><polygon points="430.29667758310177 10.666666666666666 458.66666666666663 10.666666666666666 470.3442883477097 32 437.33333333333326 32"/><polygon points="481.62963134388065 10.666666666666666 501.3333333333333 10.666666666666666 500.00732019858003 32 479.99999999999994 32"/><polygon points="10.666666666666666 53.333333333333336 26.757742043727198 53.333333333333336 32 74.66666666666667 14.739478864304097 74.66666666666667"/><polygon points="51.92623196266014 53.333333333333336 79.44053688194073 53.333333333333336 78.15126610281209 74.66666666666667 49.130852034008456 74.66666666666667"/><polygon points="97.50399435999198 53.333333333333336 114.04178329400524 53.333333333333336 127.79453544457915 74.66666666666667 91.30630196610522 74.66666666666667"/><polygon points="145.1648956759182 53.333333333333336 155.8311572439521 53.333333333333336 170.9078884228623 74.66666666666667 141.45100537135343 74.66666666666667"/><polygon points="186.62901539914347 53.333333333333336 197.58276029878994 53.333333333333336 212.184391595318 74.66666666666667 184.81118829829558 74.66666666666667"/><polygon points="227.21828908926 53.333333333333336 245.63229987602767 53.333333333333336 240.51685601601756 74.66666666666667 228.61245092500843 74.66666666666667"/><polygon points="249.67834934553227 53.333333333333336 293.3002283451669 53.333333333333336 274.16802562546377 74.66666666666667 268.7881737025895 74.66666666666667"/><polygon points="312.6198754754739 53.333333333333336 325.67943724928324 53.333333333333336 296.47788649633685 74.66666666666667 306.9754108087823 74.66666666666667"/><polygon points="339.6155793082515 53.333333333333336 373.2242830635101 53.333333333333336 402.99222821938673 74.66666666666667 351.8808070456926 74.66666666666667"/><polygon points="431.9840043724018 53.333333333333336 411.3427220115943 53.333333333333336 414.06168514057026 74.66666666666667 393.32006862394553 74.66666666666667"/><polygon points="454.99079692841383 53.333333333333336 463.7200953787736 53.333333333333336 476.26855757401523 74.66666666666667 442.17544765900465 74.66666666666667"/><polygon points="424.0123571451355 53.333333333333336 505.7488290075585 53.333333333333336 453.2456095454713 74.66666666666667 475.96740453371785 74.66666666666667"/><polygon points="10.666666666666666 95.99999999999999 32.86857170746214 95.99999999999999 32 117.33333333333333 6.707144081466836 117.33333333333333"/><polygon points="56.29762514082941 95.99999999999999 73.49890620153428 95.99999999999999 76.23174021967715 117.33333333333333 54.932055864337684 117.33333333333333"/><polygon points="103.75062835585112 95.99999999999999 126.59761461636191 95.99999999999999 107.4269428729012 117.33333333333333 86.27618135404434 117.33333333333333"/><polygon points="144.61354441649488 95.99999999999999 149.7185990051564 95.99999999999999 165.94785683452884 117.33333333333333 137.67689227147892 117.33333333333333"/><polygon points="198.86089478680643 95.99999999999999 199.67408944308397 95.99999999999999 206.5957736435306 117.33333333333333 182.83854001303757 117.33333333333333"/><polygon points="234.74077789799173 95.99999999999999 247.99521826149027 95.99999999999999 255.03177190458769 117.33333333333333 221.38353810607285 117.33333333333333"/><polygon points="247.908091379902 95.99999999999999 291.89659113372835 95.99999999999999 296.23213390270155 117.33333333333333 271.43015631904495 117.33333333333333"/><polygon points="326.035418968922 95.99999999999999 332.6055338301586 95.99999999999999 305.8192620203258 117.33333333333333 313.66310896966684 117.33333333333333"/><polygon points="330.010389676041 95.99999999999999 374.53456119294697 95.99999999999999 373.3885580587516 117.33333333333333 352.5721678000387 117.33333333333333"/><polygon points="431.7476997137774 95.99999999999999 407.9927253309427 95.99999999999999 444.6182953709616 117.33333333333333 401.54336294765505 117.33333333333333"/><polygon points="434.05373125497783 95.99999999999999 460.61097778816657 95.99999999999999 446.97716841518326 117.33333333333333 426.75715118338496 117.33333333333333"/><polygon points="507.40839979676275 95.99999999999999 506.26208243753393 95.99999999999999 446.7690348965088 117.33333333333333 485.4864004651761 117.33333333333333"/><polygon points="10.666666666666666 138.66666666666669 25.945389995319168 138.66666666666669 32 160 17.39315240522908 160"/><polygon points="57.703803659328656 138.66666666666669 69.55576212527896 138.66666666666669 73.07752749253015 160 49.630877524099766 160"/><polygon points="98.68169502839218 138.66666666666669 103.94406956452845 138.66666666666669 125.16292213180078 160 82.18943727884596 160"/><polygon points="145.18835524182583 138.66666666666669 166.75354414669263 138.66666666666669 169.24057466118268 160 135.5751486324026 160"/><polygon points="185.40110161402868 138.66666666666669 201.7714965737518 138.66666666666669 215.73104765294966 160 172.64419511135253 160"/><polygon points="224.87091803080952 138.66666666666669 252.50013489070227 138.66666666666669 227.82955622419462 160 209.78211446009203 160"/><polygon points="283.135371713003 138.66666666666669 275.9984581527827 138.66666666666669 287.98065466258964 160 278.4792000238924 160"/><polygon points="332.6241251280185 138.66666666666669 339.97159012904507 138.66666666666669 324.9161441863588 160 318.5418272749408 160"/><polygon points="327.9513695151774 138.66666666666669 372.13927789544897 138.66666666666669 357.544158258551 160 366.3530572057002 160"/><polygon points="384.40781912437166 138.66666666666669 414.13211023024155 138.66666666666669 458.11120340757356 160 402.93478366796137 160"/><polygon points="420.2250214508206 138.66666666666669 453.68427836316204 138.66666666666669 414.4002582738941 160 444.42252398523 160"/><polygon points="474.23575522975483 138.66666666666669 492.3024304126973 138.66666666666669 480.0031522890229 160 474.4778068868957 160"/><polygon points="10.666666666666666 181.33333333333334 20.934690645028173 181.33333333333334 32 202.66666666666666 -10.146294790883456 202.66666666666666"/><polygon points="52.502984247536034 181.33333333333334 77.91782626610045 181.33333333333334 72.71202382186807 202.66666666666666 42.66800694827454 202.66666666666666"/><polygon points="87.55772134019372 181.33333333333334 102.34617862359828 181.33333333333334 125.19372078832284 202.66666666666666 84.22889075919414 202.66666666666666"/><polygon points="129.0923608280339 181.33333333333334 156.1611958108734 181.33333333333334 154.60475517398632 202.66666666666666 145.61481518681228 202.66666666666666"/><polygon points="190.8434078611381 181.33333333333334 212.87076659053045 181.33333333333334 218.42468844399454 202.66666666666666 197.0020077568508 202.66666666666666"/><polygon points="237.78589146740106 181.33333333333334 252.90474290173202 181.33333333333334 224.51189899171152 202.66666666666666 225.91260898320274 202.66666666666666"/><polygon points="255.74926430561482 181.33333333333334 288.8654548746541 181.33333333333334 290.53493227739045 202.66666666666666 259.8846046201521 202.66666666666666"/><polygon points="286.5251484293285 181.33333333333334 343.2446883114203 181.33333333333334 310.4366108542578 202.66666666666666 297.1885364643877 202.66666666666666"/><polygon points="375.2004111564707 181.33333333333334 371.5222398361019 181.33333333333334 400.02403383801845 202.66666666666666 336.6986363928365 202.66666666666666"/><polygon points="438.29734672952696 181.33333333333334 408.04970550817467 181.33333333333334 408.9702859522712 202.66666666666666 384.43262989491603 202.66666666666666"/><polygon points="405.60945753155113 181.33333333333334 446.38013345030504 181.33333333333334 409.2702655736311 202.66666666666666 442.41494562791183 202.66666666666666"/><polygon points="443.60421472999803 181.33333333333334 492.00342255698865 181.33333333333334 476.0313109364971 202.66666666666666 471.9314438371877 202.66666666666666"/><polygon points="10.666666666666666 224 40.98857040150142 224 32 245.33333333333331 27.09007333963547 245.33333333333331"/><polygon points="53.008959045241525 224 71.50852822778297 224 69.77453357744672 245.33333333333331 71.29988780832569 245.33333333333331"/><polygon points="93.27361929527584 224 104.22989770862925 224 123.9473335282315 245.33333333333331 92.60856073856918 245.33333333333331"/><polygon points="141.69673326329814 224 165.2473795082718 224 168.32321638567998 245.33333333333331 117.34924353385722 245.33333333333331"/><polygon points="165.10167555721188 224 225.99364795252725 224 190.4724793494968 245.33333333333331 193.66937372354082 245.33333333333331"/><polygon points="202.73168577648832 224 224.86950903882985 224 243.3804152965594 245.33333333333331 218.36800677494898 245.33333333333331"/><polygon points="249.0300152956074 224 312.13135325766996 224 278.8352999100713 245.33333333333331 262.2068707664684 245.33333333333331"/><polygon points="276.4957749512072 224 320.0535886126401 224 318.18455551461534 245.33333333333331 320.4827313657692 245.33333333333331"/><polygon points="349.3835998937029 224 393.34994111743265 224 353.5626336530385 245.33333333333331 372.675336708662 245.33333333333331"/><polygon points="404.9041593730918 224 421.6037514056087 224 414.6191159202674 245.33333333333331 417.42037610987256 245.33333333333331"/><polygon points="482.47340279866677 224 463.27282836763106 224 439.29268174407514 245.33333333333331 462.4211556108111 245.33333333333331"/><polygon points="446.2383170269147 224 522.5342964926035 224 445.209014638839 245.33333333333331 474.2906603426275 245.33333333333331"/><polygon points="10.666666666666666 266.66666666666663 1.8823237980167704 266.66666666666663 32 288 36.657701557320586 288"/><polygon points="50.983472601741 266.66666666666663 102.35992920380218 266.66666666666663 75.25095475041319 288 49.86859695785187 288"/><polygon points="88.44967435530663 266.66666666666663 130.6326030825498 266.66666666666663 115.50503037030428 288 122.32678384936668 288"/><polygon points="152.10205940066353 266.66666666666663 183.26282403527142 266.66666666666663 171.65489990567806 288 154.988617623111 288"/><polygon points="160.7797337999183 266.66666666666663 232.81514414606696 266.66666666666663 215.76961162346805 288 164.85765608511494 288"/><polygon points="242.91700003802814 266.66666666666663 276.6454526359296 266.66666666666663 259.7739722869176 288 220.39978247767823 288"/><polygon points="263.116741666603 266.66666666666663 281.53138275323823 266.66666666666663 276.8795163967892 288 281.14551665722115 288"/><polygon points="277.2806551696041 266.66666666666663 304.80873133881335 266.66666666666663 363.90616369037923 288 339.95938678289366 288"/><polygon points="392.6483363102049 266.66666666666663 358.3030541905544 266.66666666666663 384.0380747299558 288 362.83517672616745 288"/><polygon points="395.19672793520857 266.66666666666663 417.5551656492217 266.66666666666663 417.82965262126805 288 424.18592292443935 288"/><polygon points="448.8620108092505 266.66666666666663 427.589140038644 266.66666666666663 449.48272012008084 288 454.2383982098751 288"/><polygon points="484.48137851350424 266.66666666666663 500.7459021408887 266.66666666666663 517.8014097056792 288 479.1925936505483 288"/><polygon points="10.666666666666666 309.33333333333326 67.3227045847986 309.33333333333326 32 330.66666666666663 -6.543132178955961 330.66666666666663"/><polygon points="50.81999857829425 309.33333333333326 78.72911427005758 309.33333333333326 77.02586432862087 330.66666666666663 59.39697573618112 330.66666666666663"/><polygon points="86.13971418167205 309.33333333333326 102.9306345573625 309.33333333333326 106.77536195027443 330.66666666666663 97.06488239379969 330.66666666666663"/><polygon points="149.2047932747081 309.33333333333326 179.6665612043817 309.33333333333326 151.57270747847508 330.66666666666663 153.76735316576844 330.66666666666663"/><polygon points="170.51472631559835 309.33333333333326 212.04819136286687 309.33333333333326 222.04613535647525 330.66666666666663 189.83127403828368 330.66666666666663"/><polygon points="204.41662035862657 309.33333333333326 236.08648049889214 309.33333333333326 257.7262167637077 330.66666666666663 218.08352003259247 330.66666666666663"/><polygon points="288.6584953694265 309.33333333333326 288.0998174579932 309.33333333333326 292.40117817434293 330.66666666666663 239.87228581084085 330.66666666666663"/><polygon points="330.30749877179966 309.33333333333326 341.25380955489055 309.33333333333326 338.9346440636461 330.66666666666663 281.4687444899923 330.66666666666663"/><polygon points="345.5803038049903 309.33333333333326 402.4364977334147 309.33333333333326 350.9582142962997 330.66666666666663 348.16050561417126 330.66666666666663"/><polygon points="394.37414203705 309.33333333333326 393.2664957003325 309.33333333333326 406.5771159569623 330.66666666666663 357.9101630259795 330.66666666666663"/><polygon points="447.89017748580244 309.33333333333326 429.11166452463266 309.33333333333326 455.2674706446265 330.66666666666663 436.4868801395302 330.66666666666663"/><polygon points="527.159868688346 309.33333333333326 488.1034781216578 309.33333333333326 504.23208471702327 330.66666666666663 465.6155372886403 330.66666666666663"/><polygon points="10.666666666666666 351.99999999999994 20.103469475958377 351.99999999999994 32 373.3333333333333 38.27538343732563 373.3333333333333"/><polygon points="48.32625317311711 351.99999999999994 85.50476541195718 351.99999999999994 72.5931677350388 373.3333333333333 62.292363022645326 373.3333333333333"/><polygon points="99.57149126103494 351.99999999999994 146.58863226558978 351.99999999999994 113.93900511307822 373.3333333333333 76.65510835123237 373.3333333333333"/><polygon points="143.90103887386127 351.99999999999994 120.3986907444043 351.99999999999994 155.21275720941168 373.3333333333333 98.41933535593324 373.3333333333333"/><polygon points="198.55832048936688 351.99999999999994 199.52187691305213 351.99999999999994 215.4383373775709 373.3333333333333 182.64633408215693 373.3333333333333"/><polygon points="229.9995407955227 351.99999999999994 262.35161003258503 351.99999999999994 239.38405672951166 373.3333333333333 245.4942328142086 373.3333333333333"/><polygon points="275.6036020703634 351.99999999999994 314.17616451834533 351.99999999999994 291.11565490648724 373.3333333333333 260.1015745300528 373.3333333333333"/><polygon points="335.71697032397105 351.99999999999994 295.780137436498 351.99999999999994 308.53177666378826 373.3333333333333 309.7642479747116 373.3333333333333"/><polygon points="346.83933743498073 351.99999999999994 391.91889723384725 351.99999999999994 376.4022490801508 373.3333333333333 311.69667791859 373.3333333333333"/><polygon points="430.4119404306045 351.99999999999994 398.1916663979307 351.99999999999994 374.1837289153289 373.3333333333333 380.35456403069156 373.3333333333333"/><polygon points="391.1656884563656 351.99999999999994 426.5844966524078 351.99999999999994 484.7627984520798 373.3333333333333 436.09523380437224 373.3333333333333"/><polygon points="479.966644132046 351.99999999999994 479.26147708990214 351.99999999999994 444.43726369884854 373.3333333333333 501.35506177019727 373.3333333333333"/><polygon points="10.666666666666666 394.66666666666663 59.32804546328836 394.66666666666663 32 416 -11.807139154190839 416"/><polygon points="52.38717365118697 394.66666666666663 72.3681932722776 394.66666666666663 69.55311827947422 416 81.52471727824978 416"/><polygon points="94.35643098573583 394.66666666666663 90.75046611920463 394.66666666666663 117.85480703296318 416 72.41072187546767 416"/><polygon points="148.33592463514648 394.66666666666663 191.1153339773675 394.66666666666663 146.5324743408008 416 180.1503224833136 416"/><polygon points="176.03029579020892 394.66666666666663 207.76053506270597 394.66666666666663 221.5438531841549 416 144.29342453330932 416"/><polygon points="219.01348166631183 394.66666666666663 208.06882312828753 394.66666666666663 263.6027982283097 416 192.82709395019455 416"/><polygon points="293.12283523654537 394.66666666666663 326.43902365349555 394.66666666666663 316.99278269208116 416 227.36299779302294 416"/><polygon points="276.261068461832 394.66666666666663 321.443661317993 394.66666666666663 303.626677141378 416 281.2726312936942 416"/><polygon points="336.31071700409177 394.66666666666663 359.08992798039856 394.66666666666663 377.55300369813176 416 349.2987329246866 416"/><polygon points="368.0122576514596 394.66666666666663 387.8290114143269 394.66666666666663 373.55987154636665 416 361.2675094790937 416"/><polygon points="401.0640054949521 394.66666666666663 467.68033762107956 394.66666666666663 416.80211041964145 416 438.28022897898745 416"/><polygon points="492.0592242656974 394.66666666666663 526.1618152602213 394.66666666666663 514.1425280229219 416 473.29371892757854 416"/><polygon points="10.666666666666666 437.33333333333326 -13.399509135041928 437.33333333333326 32 458.66666666666663 -10.605691491466192 458.66666666666663"/><polygon points="53.044632252100925 437.33333333333326 64.26054539774134 437.33333333333326 71.48545814704103 458.66666666666663 37.86291830203882 458.66666666666663"/><polygon points="94.03902942873731 437.33333333333326 76.45015697095882 437.33333333333326 109.81481599490054 458.66666666666663 103.18505427709283 458.66666666666663"/><polygon points="123.64881121416731 437.33333333333326 158.26315468521244 437.33333333333326 152.3588438210338 458.66666666666663 116.42570306771981 458.66666666666663"/><polygon points="190.3150241050304 437.33333333333326 244.86078011102197 437.33333333333326 202.0703573863555 458.66666666666663 190.98150450294014 458.66666666666663"/><polygon points="197.38410746406458 437.33333333333326 270.89225216245285 437.33333333333326 251.51354899103055 458.66666666666663 262.9365767221718 458.66666666666663"/><polygon points="295.43091301608274 437.33333333333326 249.57853512519844 437.33333333333326 293.11619840740576 458.66666666666663 228.88098483673795 458.66666666666663"/><polygon points="329.2036905925081 437.33333333333326 377.8095482355156 437.33333333333326 347.71976226493746 458.66666666666663 286.6042100054941 458.66666666666663"/><polygon points="369.7468132089417 437.33333333333326 378.06936219705193 437.33333333333326 357.9847672947311 458.66666666666663 351.6536464249491 458.66666666666663"/><polygon points="364.90647624740114 437.33333333333326 383.54379896180996 437.33333333333326 373.3901781037149 458.66666666666663 422.5249811112465 458.66666666666663"/><polygon points="457.2740480033449 437.33333333333326 422.3525450761866 437.33333333333326 486.5146907449037 458.66666666666663 459.08469095942655 458.66666666666663"/><polygon points="476.2556342419065 437.33333333333326 452.04208870362476 437.33333333333326 524.3545713025871 458.66666666666663 497.5623203160241 458.66666666666663"/><polygon points="10.666666666666666 479.99999999999994 77.58550377261061 479.99999999999994 32 501.3333333333333 -22.349061624790945 501.3333333333333"/><polygon points="55.431588694137396 479.99999999999994 123.72780959379055 479.99999999999994 74.30562695851462 501.3333333333333 50.03617963310033 501.3333333333333"/><polygon points="100.24808314063269 479.99999999999994 142.28163699261128 479.99999999999994 121.44575065568468 501.3333333333333 145.8077737476641 501.3333333333333"/><polygon points="134.79863902449165 479.99999999999994 195.0241226549663 479.99999999999994 174.8843637337079 501.3333333333333 133.02379115751074 501.3333333333333"/><polygon points="179.08085141834871 479.99999999999994 229.73533887854614 479.99999999999994 189.62148553554894 501.3333333333333 127.17861639322375 501.3333333333333"/><polygon points="212.93060399227053 479.99999999999994 224.52058379505215 479.99999999999994 242.5545017398845 501.3333333333333 180.62869778861383 501.3333333333333"/><polygon points="281.8311111320582 479.99999999999994 313.88282726792744 479.99999999999994 285.77098501405595 501.3333333333333 241.62808960781265 501.3333333333333"/><polygon points="293.8920946673484 479.99999999999994 274.0706409373281 479.99999999999994 363.2118385591357 501.3333333333333 344.65382974383766 501.3333333333333"/><polygon points="347.4164091455913 479.99999999999994 413.0230503621947 479.99999999999994 355.0245368595968 501.3333333333333 378.5470106114715 501.3333333333333"/><polygon points="387.08789004482765 479.99999999999994 444.3163983766589 479.99999999999994 420.64367652967695 501.3333333333333 337.83818983131334 501.3333333333333"/><polygon points="397.0561880664269 479.99999999999994 478.622709401006 479.99999999999994 492.6875012142503 501.3333333333333 471.45986277659 501.3333333333333"/><polygon points="493.0911384374383 479.99999999999994 445.7673866870522 479.99999999999994 546.3335670817228 501.3333333333333 458.98619315407024 501.3333333333333"/>
</svg>
