<?xml version="1.0" encoding="UTF-8"?>
<svg xmlns="http://www.w3.org/2000/svg" id="RSSicon" viewBox="0 0 512 512" width="512" height="512">
  <defs>
    <style type="text/css">
      svg {
        background: black;
        margin: calc(50vh - 256px) auto 0;
      }
      
      polygon {stroke: darkorange; fill: none;}
    </style>
  </defs>
  <polygon points="10.666666666666666 10.666666666666666 32 10.666666666666666 32 32 10.666666666666666 32"/><polygon points="57.803801557250964 10.666666666666666 74.66666666666667 10.666666666666666 72.2716728304643 32 53.333333333333336 32"/><polygon points="87.67954643960888 10.666666666666666 117.33333333333333 10.666666666666666 125.8020052502988 32 95.99999999999999 32"/><polygon points="134.1311114779731 10.666666666666666 160 10.666666666666666 160.37871794394263 32 138.66666666666669 32"/><polygon points="166.71199848655144 10.666666666666666 202.66666666666666 10.666666666666666 192.2328965469997 32 181.33333333333334 32"/><polygon points="219.60260027334508 10.666666666666666 245.33333333333331 10.666666666666666 233.66787768681846 32 224 32"/><polygon points="293.18962398898475 10.666666666666666 288 10.666666666666666 316.5255948077837 32 266.66666666666663 32"/><polygon points="319.0699850227323 10.666666666666666 330.66666666666663 10.666666666666666 336.9830884955407 32 309.33333333333326 32"/><polygon points="380.64289556983726 10.666666666666666 373.3333333333333 10.666666666666666 351.46004643515204 32 351.99999999999994 32"/><polygon points="372.05815120932266 10.666666666666666 416 10.666666666666666 406.66141207026766 32 394.66666666666663 32"/><polygon points="423.756737007565 10.666666666666666 458.66666666666663 10.666666666666666 447.3129708775782 32 437.33333333333326 32"/><polygon points="507.7023603201468 10.666666666666666 501.3333333333333 10.666666666666666 546.6409235726616 32 479.99999999999994 32"/><polygon points="10.666666666666666 53.333333333333336 30.106728512953996 53.333333333333336 32 74.66666666666667 7.239439948005682 74.66666666666667"/><polygon points="51.129503701266806 53.333333333333336 77.22624315714461 53.333333333333336 78.22676577658473 74.66666666666667 50.19962484058704 74.66666666666667"/><polygon points="86.23864766557892 53.333333333333336 117.16603504577984 53.333333333333336 121.34621012179855 74.66666666666667 91.58937504322589 74.66666666666667"/><polygon points="141.0043199952587 53.333333333333336 158.5895778074339 53.333333333333336 169.8204688724603 74.66666666666667 135.91810313236962 74.66666666666667"/><polygon points="181.62945331397768 53.333333333333336 204.01475667745774 53.333333333333336 215.8054456852672 74.66666666666667 186.10282467291034 74.66666666666667"/><polygon points="198.64116903898866 53.333333333333336 247.3260502611115 53.333333333333336 257.6167979195432 74.66666666666667 227.31475048596516 74.66666666666667"/><polygon points="272.83700107029483 53.333333333333336 283.09688105901114 53.333333333333336 309.81323034341335 74.66666666666667 263.9168852322954 74.66666666666667"/><polygon points="332.92229134131134 53.333333333333336 334.6796049211409 53.333333333333336 341.58461495094974 74.66666666666667 314.4694197892985 74.66666666666667"/><polygon points="340.73639932785665 53.333333333333336 377.0058129495486 53.333333333333336 345.7833794231765 74.66666666666667 355.7683018795624 74.66666666666667"/><polygon points="363.65486185979944 53.333333333333336 417.16309029281615 53.333333333333336 458.5320669502779 74.66666666666667 391.4436115828289 74.66666666666667"/><polygon points="489.85446368858015 53.333333333333336 462.38321950836814 53.333333333333336 462.9366394576626 74.66666666666667 432.76331234653685 74.66666666666667"/><polygon points="515.6599875389865 53.333333333333336 498.87187526345593 53.333333333333336 500.3696142610741 74.66666666666667 475.7742247761101 74.66666666666667"/><polygon points="10.666666666666666 95.99999999999999 38.58768887227992 95.99999999999999 32 117.33333333333333 16.741592239285943 117.33333333333333"/><polygon points="56.452119296785646 95.99999999999999 67.87522932636007 95.99999999999999 69.80572518180425 117.33333333333333 60.057019447051594 117.33333333333333"/><polygon points="92.08485274521547 95.99999999999999 110.36717651086725 95.99999999999999 124.46308731111057 117.33333333333333 90.34521172247767 117.33333333333333"/><polygon points="134.1234663816431 95.99999999999999 158.52010100823964 95.99999999999999 144.41031183567563 117.33333333333333 146.76899349999897 117.33333333333333"/><polygon points="194.8171071493156 95.99999999999999 195.18367791086837 95.99999999999999 188.26713627010048 117.33333333333333 172.80229463236927 117.33333333333333"/><polygon points="238.63448867159983 95.99999999999999 238.56618230872755 95.99999999999999 268.99909147050835 117.33333333333333 216.11816913108126 117.33333333333333"/><polygon points="250.1049759427086 95.99999999999999 296.0286661481111 95.99999999999999 301.99840426555664 117.33333333333333 276.80877581978183 117.33333333333333"/><polygon points="280.9154571393757 95.99999999999999 337.62814637694333 95.99999999999999 363.66914666840887 117.33333333333333 300.73052019296733 117.33333333333333"/><polygon points="391.0302010790637 95.99999999999999 375.7726629633667 95.99999999999999 379.6953025151191 117.33333333333333 346.207614145462 117.33333333333333"/><polygon points="407.8624822442543 95.99999999999999 418.12115733053406 95.99999999999999 427.7842028219027 117.33333333333333 397.3804210675966 117.33333333333333"/><polygon points="402.93325713521466 95.99999999999999 464.6359743501429 95.99999999999999 504.17952688958104 117.33333333333333 437.6822705140544 117.33333333333333"/><polygon points="528.2330303104806 95.99999999999999 500.7483522684583 95.99999999999999 475.31697433812985 117.33333333333333 474.11473344414713 117.33333333333333"/><polygon points="10.666666666666666 138.66666666666669 37.44940863653443 138.66666666666669 32 160 1.2525279635957496 160"/><polygon points="56.56305011109551 138.66666666666669 73.72657459980822 138.66666666666669 70.07647242063001 160 40.03140571063363 160"/><polygon points="86.92481971434964 138.66666666666669 130.55887705964344 138.66666666666669 111.18619079456724 160 87.31887396398486 160"/><polygon points="145.2188108236528 138.66666666666669 147.9494116529761 138.66666666666669 166.5846018884462 160 124.35217787286294 160"/><polygon points="192.44205992532665 138.66666666666669 211.34943660101416 138.66666666666669 208.915849632306 160 182.70705509622817 160"/><polygon points="225.07392840979176 138.66666666666669 254.65448800665405 138.66666666666669 220.44611944661577 160 223.63576029318358 160"/><polygon points="243.3961943943882 138.66666666666669 288.0111765849752 138.66666666666669 300.42317905130693 160 279.43436625868975 160"/><polygon points="313.56381869539996 138.66666666666669 319.53576649733884 138.66666666666669 304.07236373195497 160 305.2158611194834 160"/><polygon points="354.5777589322749 138.66666666666669 385.070832649722 138.66666666666669 374.18391065537025 160 344.5057644155299 160"/><polygon points="377.9251781861135 138.66666666666669 407.7106558531261 138.66666666666669 434.5382056411911 160 396.94015803345405 160"/><polygon points="473.5806889916092 138.66666666666669 467.0252616514271 138.66666666666669 432.8727834285328 160 424.4744198775894 160"/><polygon points="533.7922357003815 138.66666666666669 487.0239418643195 138.66666666666669 465.9011539489792 160 481.3211544402 160"/><polygon points="10.666666666666666 181.33333333333334 39.21857816763426 181.33333333333334 32 202.66666666666666 18.636769141755423 202.66666666666666"/><polygon points="56.538310289839956 181.33333333333334 82.5704131987408 181.33333333333334 71.05476978003026 202.66666666666666 38.489505148416555 202.66666666666666"/><polygon points="86.96806816124202 181.33333333333334 112.8109401402006 181.33333333333334 114.26220150395685 202.66666666666666 84.04601557539745 202.66666666666666"/><polygon points="133.57311806866903 181.33333333333334 162.01730289282204 181.33333333333334 170.3367384386193 202.66666666666666 149.08028604216773 202.66666666666666"/><polygon points="163.76008363023277 181.33333333333334 201.47802130709326 181.33333333333334 222.06613361427156 202.66666666666666 197.59132602249454 202.66666666666666"/><polygon points="203.25261791793258 181.33333333333334 260.32615733281506 181.33333333333334 222.38790493564989 202.66666666666666 204.7619973168365 202.66666666666666"/><polygon points="270.8425657556704 181.33333333333334 292.48443108410333 181.33333333333334 311.1007931759503 202.66666666666666 286.6619501405519 202.66666666666666"/><polygon points="284.1554539234232 181.33333333333334 341.0468362186697 181.33333333333334 359.35907717564567 202.66666666666666 324.2848588164515 202.66666666666666"/><polygon points="361.1346880375806 181.33333333333334 381.65806554010095 181.33333333333334 358.29498829578193 202.66666666666666 362.9600938721951 202.66666666666666"/><polygon points="356.7199632654445 181.33333333333334 400.3002623469337 181.33333333333334 391.5342137626699 202.66666666666666 395.09775093392716 202.66666666666666"/><polygon points="408.65739530947604 181.33333333333334 452.00739991049 181.33333333333334 454.96437480877654 202.66666666666666 433.9220086061544 202.66666666666666"/><polygon points="522.5562003290094 181.33333333333334 487.2398763523713 181.33333333333334 469.23145565408447 202.66666666666666 462.7424318580688 202.66666666666666"/><polygon points="10.666666666666666 224 50.56615801761587 224 32 245.33333333333331 4.02598314005245 245.33333333333331"/><polygon points="49.343363194185144 224 76.23491274431248 224 73.32981367749046 245.33333333333331 79.12935345735828 245.33333333333331"/><polygon points="91.49885577195897 224 136.07390099399296 224 111.21884929500904 245.33333333333331 98.85750629919251 245.33333333333331"/><polygon points="130.2523351154722 224 141.84180323804063 224 147.63713059755403 245.33333333333331 124.43884440464254 245.33333333333331"/><polygon points="162.0210969736779 224 178.34466068036463 224 200.20588957539846 245.33333333333331 204.86974551573235 245.33333333333331"/><polygon points="236.83310422393902 224 270.3738944261538 224 264.5917015014703 245.33333333333331 200.39164077577936 245.33333333333331"/><polygon points="248.3106265374769 224 288.9861166409273 224 278.639397363375 245.33333333333331 248.95133308465182 245.33333333333331"/><polygon points="341.1298188446174 224 334.88857222822463 224 305.28921606097214 245.33333333333331 294.8144272303227 245.33333333333331"/><polygon points="361.2110846414239 224 366.63489019397156 224 379.58765321075305 245.33333333333331 358.58556825244756 245.33333333333331"/><polygon points="373.29008400101685 224 399.28903810851693 224 418.46119000079636 245.33333333333331 389.55390297805104 245.33333333333331"/><polygon points="472.9548720620079 224 468.64695178305885 224 500.6585665561066 245.33333333333331 443.5324506084129 245.33333333333331"/><polygon points="515.1332514388552 224 485.0889306906812 224 521.8909523720798 245.33333333333331 467.22738813433705 245.33333333333331"/><polygon points="10.666666666666666 266.66666666666663 32.82538102111995 266.66666666666663 32 288 0.8582226127742238 288"/><polygon points="49.43074003893094 266.66666666666663 44.5080018980955 266.66666666666663 72.94675133774497 288 33.45980870905917 288"/><polygon points="85.34069214080193 266.66666666666663 92.48034544803818 266.66666666666663 121.68955063050869 288 99.68121452361946 288"/><polygon points="135.39822881698808 266.66666666666663 180.57663134271613 266.66666666666663 173.48523192913117 288 139.60384414780313 288"/><polygon points="167.1676571493625 266.66666666666663 183.72596698534866 266.66666666666663 183.13783729208444 288 205.33160053890018 288"/><polygon points="209.44337632626542 266.66666666666663 237.5253996780224 266.66666666666663 264.30665519927874 288 243.74529615576682 288"/><polygon points="258.7222204063452 266.66666666666663 297.6379931064824 266.66666666666663 301.5921274608098 288 260.3342571261761 288"/><polygon points="273.94019716841774 266.66666666666663 354.24862729618644 266.66666666666663 309.75101325301637 288 335.77370245825335 288"/><polygon points="328.1570138160646 266.66666666666663 374.0957411939039 266.66666666666663 359.21800808803596 288 351.4958241973111 288"/><polygon points="402.3762109903388 266.66666666666663 438.2187667364219 266.66666666666663 423.34711980942797 288 367.9761711248149 288"/><polygon points="385.9033367322416 266.66666666666663 483.1839926561263 266.66666666666663 469.36106240918565 288 439.62237254617753 288"/><polygon points="528.3911073004292 266.66666666666663 524.2100707848255 266.66666666666663 519.6473561096491 288 457.6324337408091 288"/><polygon points="10.666666666666666 309.33333333333326 5.505314156619594 309.33333333333326 32 330.66666666666663 30.735432584303542 330.66666666666663"/><polygon points="56.724159505883236 309.33333333333326 62.38651244852068 309.33333333333326 69.47331297474241 330.66666666666663 27.81076872082462 330.66666666666663"/><polygon points="100.99636188309363 309.33333333333326 88.36332946048381 309.33333333333326 126.41646755087018 330.66666666666663 95.47284557770296 330.66666666666663"/><polygon points="143.46893104943396 309.33333333333326 134.61473665995462 309.33333333333326 154.63532311417464 330.66666666666663 163.74964090572462 330.66666666666663"/><polygon points="184.7522985853565 309.33333333333326 239.22815977063323 309.33333333333326 203.91261326020998 330.66666666666663 144.83662326594916 330.66666666666663"/><polygon points="200.00275969835093 309.33333333333326 257.6287072357553 309.33333333333326 229.31290444907856 330.66666666666663 225.56103360073683 330.66666666666663"/><polygon points="290.29106846706156 309.33333333333326 289.8092346768464 309.33333333333326 281.80885888816147 330.66666666666663 277.47053891494966 330.66666666666663"/><polygon points="322.17971164144603 309.33333333333326 306.2706311815716 309.33333333333326 315.7874939008909 330.66666666666663 305.96170370724633 330.66666666666663"/><polygon points="325.29480904605583 309.33333333333326 362.69617843919406 309.33333333333326 349.1116814935476 330.66666666666663 362.61259522454367 330.66666666666663"/><polygon points="410.2362479352622 309.33333333333326 400.08044799099576 309.33333333333326 386.93848622881103 330.66666666666663 364.3864132284681 330.66666666666663"/><polygon points="448.12099583430927 309.33333333333326 448.1310348075998 309.33333333333326 465.91480976758913 330.66666666666663 469.093644134144 330.66666666666663"/><polygon points="459.8203226763412 309.33333333333326 490.91120683862556 309.33333333333326 516.3410688783205 330.66666666666663 484.66655495337517 330.66666666666663"/><polygon points="10.666666666666666 351.99999999999994 58.01571652099621 351.99999999999994 32 373.3333333333333 43.26934996927635 373.3333333333333"/><polygon points="55.1610828626802 351.99999999999994 38.22589463961085 351.99999999999994 70.99390586880081 373.3333333333333 85.49591911013063 373.3333333333333"/><polygon points="99.48830304068323 351.99999999999994 108.156994416142 351.99999999999994 118.07731050959572 373.3333333333333 131.50648014020487 373.3333333333333"/><polygon points="130.43753550057312 351.99999999999994 185.6596994531253 351.99999999999994 146.27185104805588 373.3333333333333 112.48974544525285 373.3333333333333"/><polygon points="186.8071924147342 351.99999999999994 242.67669080325697 351.99999999999994 187.97996776915699 373.3333333333333 194.85476142021724 373.3333333333333"/><polygon points="223.95648104115932 351.99999999999994 212.78803289055753 351.99999999999994 264.67204450398964 373.3333333333333 264.5760928473586 373.3333333333333"/><polygon points="246.16134872303383 351.99999999999994 277.5902578243639 351.99999999999994 318.3634589822416 373.3333333333333 239.50438146579256 373.3333333333333"/><polygon points="325.2881054437012 351.99999999999994 321.55791205615213 351.99999999999994 340.2322754671271 373.3333333333333 273.91744810953804 373.3333333333333"/><polygon points="320.44576436820887 351.99999999999994 340.88763595612016 351.99999999999994 366.36010404753574 373.3333333333333 386.19212417530366 373.3333333333333"/><polygon points="426.8820100033423 351.99999999999994 381.6915605230979 351.99999999999994 428.7846363071073 373.3333333333333 361.506578107973 373.3333333333333"/><polygon points="448.6884136487829 351.99999999999994 462.7193811706171 351.99999999999994 463.0607958889105 373.3333333333333 460.47276575501144 373.3333333333333"/><polygon points="485.36495661926955 351.99999999999994 533.7915413976151 351.99999999999994 452.6206252129125 373.3333333333333 477.00175491619126 373.3333333333333"/><polygon points="10.666666666666666 394.66666666666663 3.194337645354139 394.66666666666663 32 416 14.358934644473623 416"/><polygon points="53.138885473281036 394.66666666666663 68.05978204955414 394.66666666666663 76.16974679057806 416 80.79656742899749 416"/><polygon points="99.28353172255028 394.66666666666663 139.21316458845473 394.66666666666663 114.19519489306138 416 115.10403982423067 416"/><polygon points="139.24160096673467 394.66666666666663 180.10307520408605 394.66666666666663 151.31386167553623 416 158.15088798750367 416"/><polygon points="189.6851896560028 394.66666666666663 200.61148495901267 394.66666666666663 212.45878373892393 416 140.5140983981583 416"/><polygon points="200.3868798984211 394.66666666666663 282.12631732317175 394.66666666666663 265.43257236482515 416 214.68832468886686 416"/><polygon points="267.92841586358765 394.66666666666663 301.59987573571016 394.66666666666663 293.62408664178355 416 224.89440564134765 416"/><polygon points="304.04791714186615 394.66666666666663 335.3529643672622 394.66666666666663 301.83369711479503 416 292.78446431299324 416"/><polygon points="339.22371326607083 394.66666666666663 386.1766445370093 394.66666666666663 381.8615175085362 416 351.04799205927543 416"/><polygon points="430.28945535894354 394.66666666666663 377.6413695622275 394.66666666666663 412.407897660424 416 383.7181160733041 416"/><polygon points="417.8669042844848 394.66666666666663 452.1347265545771 394.66666666666663 481.45271126987694 416 430.4759272037914 416"/><polygon points="446.0105028010127 394.66666666666663 526.6335378675827 394.66666666666663 542.3698857291516 416 472.9632393015944 416"/><polygon points="10.666666666666666 437.33333333333326 -15.448807679621037 437.33333333333326 32 458.66666666666663 22.71819557706684 458.66666666666663"/><polygon points="49.97073882214552 437.33333333333326 78.61925544644521 437.33333333333326 76.33203887053912 458.66666666666663 0.7158811490707748 458.66666666666663"/><polygon points="101.99432276059352 437.33333333333326 117.12250421213713 437.33333333333326 121.43851715497959 458.66666666666663 137.17522144981342 458.66666666666663"/><polygon points="147.52684052624804 437.33333333333326 158.79522130678362 437.33333333333326 146.6210873268017 458.66666666666663 163.4966179173441 458.66666666666663"/><polygon points="163.20916374267597 437.33333333333326 183.05313326090504 437.33333333333326 221.09872600965477 458.66666666666663 131.41960540963802 458.66666666666663"/><polygon points="224.72355017418263 437.33333333333326 243.35374627772154 437.33333333333326 258.00689399794555 458.66666666666663 230.17331550659844 458.66666666666663"/><polygon points="236.22577765910626 437.33333333333326 262.27793873638683 437.33333333333326 284.1956568265407 458.66666666666663 252.7230437966416 458.66666666666663"/><polygon points="318.533199486261 437.33333333333326 339.8002514097456 437.33333333333326 360.2830104060671 458.66666666666663 360.22557246038616 458.66666666666663"/><polygon points="341.45455424178596 437.33333333333326 393.5403971883089 437.33333333333326 383.7718169113359 458.66666666666663 356.59511618611623 458.66666666666663"/><polygon points="429.0083855891844 437.33333333333326 421.14554166808375 437.33333333333326 394.44326704953556 458.66666666666663 424.7321015868865 458.66666666666663"/><polygon points="484.26212701982746 437.33333333333326 492.80271290693605 437.33333333333326 416.3117493846161 458.66666666666663 445.84006213499225 458.66666666666663"/><polygon points="516.07450005518 437.33333333333326 488.17878506066063 437.33333333333326 459.69702655398 458.66666666666663 528.9119299327992 458.66666666666663"/><polygon points="10.666666666666666 479.99999999999994 -14.088597274019701 479.99999999999994 32 501.3333333333333 67.84713195842806 501.3333333333333"/><polygon points="56.21902582943789 479.99999999999994 20.429434546909008 479.99999999999994 75.8452843793433 501.3333333333333 53.01454936222996 501.3333333333333"/><polygon points="86.26425448869713 479.99999999999994 157.5180753555038 479.99999999999994 112.93452302925284 501.3333333333333 105.63884787614222 501.3333333333333"/><polygon points="146.79747979995426 479.99999999999994 182.49282435745218 479.99999999999994 148.23198959580657 501.3333333333333 103.80160523775487 501.3333333333333"/><polygon points="199.76104742988392 479.99999999999994 189.26839985956647 479.99999999999994 213.94524987543875 501.3333333333333 150.4274950520817 501.3333333333333"/><polygon points="248.07776483251763 479.99999999999994 260.6264238262106 479.99999999999994 229.45221850673383 501.3333333333333 275.8676786853556 501.3333333333333"/><polygon points="269.6211169984732 479.99999999999994 328.67421083144797 479.99999999999994 317.9445751709468 501.3333333333333 224.71052230175476 501.3333333333333"/><polygon points="293.4664672652966 479.99999999999994 318.1267857869495 479.99999999999994 360.88328356311865 501.3333333333333 367.92865799720647 501.3333333333333"/><polygon points="380.12458498799896 479.99999999999994 375.6389408087437 479.99999999999994 374.4036171265894 501.3333333333333 329.53561417699296 501.3333333333333"/><polygon points="423.34312304246544 479.99999999999994 466.2941027070709 479.99999999999994 461.4325426417324 501.3333333333333 419.8098843548125 501.3333333333333"/><polygon points="485.89485254687526 479.99999999999994 466.18692275257314 479.99999999999994 469.5119525551935 501.3333333333333 473.766099218004 501.3333333333333"/><polygon points="465.6622539368839 479.99999999999994 468.67577680980185 479.99999999999994 515.3251056265171 501.3333333333333 472.02516761892616 501.3333333333333"/>
</svg>
