<?xml version="1.0" encoding="UTF-8"?>
<svg xmlns="http://www.w3.org/2000/svg" id="RSSicon" viewBox="0 0 512 512" width="512" height="512">
  <defs>
    <style type="text/css">
      svg {
        background: black;
        margin: calc(50vh - 256px) auto 0;
      }
      
      polygon {stroke: darkorange; fill: none;}
    </style>
  </defs>
  <polygon points="10.666666666666666 10.666666666666666 32 10.666666666666666 32 32 10.666666666666666 32"/><polygon points="55.3018860764696 10.666666666666666 74.66666666666667 10.666666666666666 74.27167886509932 32 53.333333333333336 32"/><polygon points="90.88557485677399 10.666666666666666 117.33333333333333 10.666666666666666 120.34529903895438 32 95.99999999999999 32"/><polygon points="146.1167800463002 10.666666666666666 160 10.666666666666666 147.8736742512701 32 138.66666666666669 32"/><polygon points="201.47233166003463 10.666666666666666 202.66666666666666 10.666666666666666 184.69388079972128 32 181.33333333333334 32"/><polygon points="226.4977612012897 10.666666666666666 245.33333333333331 10.666666666666666 268.5549730606783 32 224 32"/><polygon points="256.1485980449802 10.666666666666666 288 10.666666666666666 292.73526816630783 32 266.66666666666663 32"/><polygon points="336.83222713208096 10.666666666666666 330.66666666666663 10.666666666666666 300.6498958274887 32 309.33333333333326 32"/><polygon points="364.72131473167474 10.666666666666666 373.3333333333333 10.666666666666666 404.55738295128276 32 351.99999999999994 32"/><polygon points="433.77835996889934 10.666666666666666 416 10.666666666666666 374.2667927415338 32 394.66666666666663 32"/><polygon points="389.93033655140323 10.666666666666666 458.66666666666663 10.666666666666666 493.0261764279836 32 437.33333333333326 32"/><polygon points="505.1109863676819 10.666666666666666 501.3333333333333 10.666666666666666 542.4801260306772 32 479.99999999999994 32"/><polygon points="10.666666666666666 53.333333333333336 27.463689604962312 53.333333333333336 32 74.66666666666667 9.34186002875923 74.66666666666667"/><polygon points="52.68137767916324 53.333333333333336 72.63598807244455 53.333333333333336 78.17381551267222 74.66666666666667 53.90612550000509 74.66666666666667"/><polygon points="96.12365252837489 53.333333333333336 113.35430548720828 53.333333333333336 107.52965853645213 74.66666666666667 99.16413931395269 74.66666666666667"/><polygon points="126.63782805548519 53.333333333333336 158.76389657646874 53.333333333333336 163.28794133870448 74.66666666666667 135.92385199767986 74.66666666666667"/><polygon points="166.75244369338523 53.333333333333336 199.83441437612618 53.333333333333336 200.24785157094138 74.66666666666667 183.04557277971966 74.66666666666667"/><polygon points="208.1196828167589 53.333333333333336 244.89054735281292 53.333333333333336 232.84336592293818 74.66666666666667 218.92661440090774 74.66666666666667"/><polygon points="263.72696016084524 53.333333333333336 284.1117176248807 53.333333333333336 316.0741680012437 74.66666666666667 264.3577214600549 74.66666666666667"/><polygon points="342.9307084702844 53.333333333333336 326.58644313470876 53.333333333333336 335.3385360435777 74.66666666666667 307.21660710943195 74.66666666666667"/><polygon points="370.9352376473307 53.333333333333336 371.82405431184577 53.333333333333336 379.0366674232299 74.66666666666667 346.840738688747 74.66666666666667"/><polygon points="374.59453220400513 53.333333333333336 411.92039911081963 53.333333333333336 456.1664991624104 74.66666666666667 398.6370775414195 74.66666666666667"/><polygon points="444.6416238417146 53.333333333333336 455.7818621993822 53.333333333333336 421.1368667959015 74.66666666666667 437.74388070381445 74.66666666666667"/><polygon points="513.7059296014335 53.333333333333336 503.2601559084221 53.333333333333336 444.7793753805929 74.66666666666667 479.56088749482626 74.66666666666667"/><polygon points="10.666666666666666 95.99999999999999 24.921954721131108 95.99999999999999 32 117.33333333333333 4.7879863466734065 117.33333333333333"/><polygon points="48.515317352689586 95.99999999999999 70.8787114583662 95.99999999999999 70.64093493567776 117.33333333333333 59.82359695468286 117.33333333333333"/><polygon points="91.6786025498956 95.99999999999999 110.04495153129548 95.99999999999999 118.58409647470275 117.33333333333333 105.91787036802 117.33333333333333"/><polygon points="140.72111800665093 95.99999999999999 159.79483821886168 95.99999999999999 159.8302323332528 117.33333333333333 136.21594843992287 117.33333333333333"/><polygon points="164.01706941600844 95.99999999999999 204.65885906811758 95.99999999999999 196.15108316934118 117.33333333333333 181.64811274189873 117.33333333333333"/><polygon points="249.40763132624343 95.99999999999999 246.14391314524525 95.99999999999999 237.84307242754372 117.33333333333333 233.57904600364913 117.33333333333333"/><polygon points="296.84082791325324 95.99999999999999 289.62306619911044 95.99999999999999 262.77964682599537 117.33333333333333 271.92621322045875 117.33333333333333"/><polygon points="315.9212794200269 95.99999999999999 333.88667948206233 95.99999999999999 346.1192987677204 117.33333333333333 310.69634630291387 117.33333333333333"/><polygon points="380.04473938484296 95.99999999999999 370.456718693268 95.99999999999999 405.3052435438147 117.33333333333333 345.7251655870185 117.33333333333333"/><polygon points="362.4813056928588 95.99999999999999 426.12342047585594 95.99999999999999 392.5845462004442 117.33333333333333 392.1702215969027 117.33333333333333"/><polygon points="440.2695866556397 95.99999999999999 467.4562684346931 95.99999999999999 426.3781615816797 117.33333333333333 428.8461933322137 117.33333333333333"/><polygon points="479.87033368272927 95.99999999999999 503.2926863240624 95.99999999999999 550.6655563936348 117.33333333333333 480.63131200965375 117.33333333333333"/><polygon points="10.666666666666666 138.66666666666669 32.03112093100159 138.66666666666669 32 160 4.794604080923211 160"/><polygon points="49.11728081899588 138.66666666666669 62.00315088140459 138.66666666666669 71.46435902878949 160 66.2912412222417 160"/><polygon points="89.71907329388014 138.66666666666669 116.90359885781449 138.66666666666669 108.41431334771795 160 99.92443071411566 160"/><polygon points="144.66222963106645 138.66666666666669 153.38590806010257 138.66666666666669 154.03124730479334 160 136.18067982605174 160"/><polygon points="192.21764124577697 138.66666666666669 206.79216276099555 138.66666666666669 199.7342577346262 160 186.83450592647793 160"/><polygon points="221.5688444030245 138.66666666666669 232.95635643617223 138.66666666666669 224.19981863784153 160 211.12426421853468 160"/><polygon points="293.7430374350212 138.66666666666669 301.99846689850807 138.66666666666669 317.6989291467316 160 270.2799422812687 160"/><polygon points="312.1115554488594 138.66666666666669 346.5989287607064 138.66666666666669 299.077448820936 160 304.1734659644669 160"/><polygon points="362.1627008335106 138.66666666666669 374.7269233646464 138.66666666666669 374.83872914830897 160 358.1281690395146 160"/><polygon points="350.8688199300608 138.66666666666669 414.81027907563663 138.66666666666669 394.82174419812407 160 388.3440290578152 160"/><polygon points="428.46546711753024 138.66666666666669 463.8052453018098 138.66666666666669 453.1140495399786 160 436.5510050122029 160"/><polygon points="437.2369997798906 138.66666666666669 495.35315085184624 138.66666666666669 495.0985564639863 160 475.0426653936993 160"/><polygon points="10.666666666666666 181.33333333333334 51.21159547553113 181.33333333333334 32 202.66666666666666 20.755072389168255 202.66666666666666"/><polygon points="49.6574394642605 181.33333333333334 82.7910266717122 181.33333333333334 76.89408094658533 202.66666666666666 64.6628304757295 202.66666666666666"/><polygon points="97.64677455720557 181.33333333333334 98.4282296232477 181.33333333333334 122.67303119845826 202.66666666666666 104.68112426158903 202.66666666666666"/><polygon points="136.23803928604028 181.33333333333334 165.17116943021932 181.33333333333334 155.74975707502566 202.66666666666666 138.79147470546494 202.66666666666666"/><polygon points="168.65426161537252 181.33333333333334 217.34710397868 181.33333333333334 198.92066696286375 202.66666666666666 186.85099825328777 202.66666666666666"/><polygon points="211.23461443820514 181.33333333333334 225.13332059843165 181.33333333333334 255.81395364219884 202.66666666666666 227.28998897965113 202.66666666666666"/><polygon points="244.34626239734763 181.33333333333334 285.314279455103 181.33333333333334 306.16288370036 202.66666666666666 287.60167111642915 202.66666666666666"/><polygon points="293.2464454114373 181.33333333333334 317.3876826979892 181.33333333333334 362.9200120229085 202.66666666666666 313.2417820634085 202.66666666666666"/><polygon points="338.61963724127963 181.33333333333334 388.8080856888438 181.33333333333334 374.714619352453 202.66666666666666 365.40402493015256 202.66666666666666"/><polygon points="362.01810915318543 181.33333333333334 409.8579439252932 181.33333333333334 392.2101913420862 202.66666666666666 389.2005374554803 202.66666666666666"/><polygon points="426.7794078456887 181.33333333333334 450.81983648651584 181.33333333333334 437.0402008322573 202.66666666666666 429.0446336014402 202.66666666666666"/><polygon points="454.74473544968953 181.33333333333334 482.3381654550444 181.33333333333334 452.89241349968887 202.66666666666666 495.7604867388293 202.66666666666666"/><polygon points="10.666666666666666 224 31.169360885578527 224 32 245.33333333333331 -1.9869418870498237 245.33333333333331"/><polygon points="57.99816653451815 224 60.387851669326686 224 73.70604739362562 245.33333333333331 69.09507493642926 245.33333333333331"/><polygon points="91.09216334162467 224 117.24447594909829 224 121.94639120122571 245.33333333333331 95.86366205896461 245.33333333333331"/><polygon points="144.09409056989745 224 152.6752696655967 224 159.4455965135378 245.33333333333331 147.78436882584862 245.33333333333331"/><polygon points="161.92772492241224 224 225.8346475612356 224 201.17002575339768 245.33333333333331 179.80695137919335 245.33333333333331"/><polygon points="200.3219387843534 224 233.70912580565337 224 240.98458368335733 245.33333333333331 244.7384284491725 245.33333333333331"/><polygon points="240.17117090963347 224 282.07644008894084 224 286.65386155149224 245.33333333333331 270.29222827207957 245.33333333333331"/><polygon points="283.54594473555863 224 344.05321797450455 224 363.1676950599458 245.33333333333331 313.5907753718782 245.33333333333331"/><polygon points="370.01139525423747 224 388.8464349524921 224 339.48771770664246 245.33333333333331 343.78479215922147 245.33333333333331"/><polygon points="363.1888403585344 224 407.57359528235094 224 390.8119398652014 245.33333333333331 398.0463484570686 245.33333333333331"/><polygon points="488.14320205071795 224 447.6499044806484 224 440.85200620599346 245.33333333333331 446.91014800078756 245.33333333333331"/><polygon points="472.39471878642803 224 504.8058225067672 224 469.87814146919425 245.33333333333331 471.62040065230286 245.33333333333331"/><polygon points="10.666666666666666 266.66666666666663 61.07388993326221 266.66666666666663 32 288 -4.1352772774331505 288"/><polygon points="57.62241168416844 266.66666666666663 50.926565901141245 266.66666666666663 76.05954182846557 288 71.67592584761378 288"/><polygon points="104.66327524406904 266.66666666666663 136.8898128044318 266.66666666666663 123.67383855728222 288 109.74321522829347 288"/><polygon points="140.24913293699657 266.66666666666663 173.01663631957368 266.66666666666663 157.57974499307608 288 147.7655397109194 288"/><polygon points="194.83955840642378 266.66666666666663 220.41780113463403 266.66666666666663 205.51071915832637 288 175.18594253471454 288"/><polygon points="249.44198959071554 266.66666666666663 247.98490722758365 266.66666666666663 243.25678364068878 288 198.87864610746612 288"/><polygon points="282.3876152610673 266.66666666666663 278.0094527425266 266.66666666666663 292.62974381805924 288 295.8552073989049 288"/><polygon points="307.4887684216899 266.66666666666663 322.9520283228419 266.66666666666663 297.37332714983313 288 283.392434102962 288"/><polygon points="379.03536204525363 266.66666666666663 390.8169228867212 266.66666666666663 369.08028762387465 288 382.7862495770527 288"/><polygon points="396.61656765870464 266.66666666666663 421.68096091403896 266.66666666666663 399.0822991694854 288 413.0145903403199 288"/><polygon points="441.3987061640108 266.66666666666663 455.02177069002715 266.66666666666663 455.8138643129567 288 466.3485309758407 288"/><polygon points="513.8193957523827 266.66666666666663 508.74727854278433 266.66666666666663 487.6593089653018 288 483.4876285342788 288"/><polygon points="10.666666666666666 309.33333333333326 44.03616425524366 309.33333333333326 32 330.66666666666663 -24.47332858731748 330.66666666666663"/><polygon points="51.1541061085053 309.33333333333326 61.025661207010316 309.33333333333326 76.52005295481544 330.66666666666663 25.91696816062869 330.66666666666663"/><polygon points="99.15427355333873 309.33333333333326 142.29401429556225 309.33333333333326 125.45803688765767 330.66666666666663 88.81277121027158 330.66666666666663"/><polygon points="152.86308364499726 309.33333333333326 141.79947520892486 309.33333333333326 150.2212924688093 330.66666666666663 173.79074188736035 330.66666666666663"/><polygon points="165.29369691178528 309.33333333333326 220.86064205889326 309.33333333333326 185.35707232306734 330.66666666666663 182.82554495046782 330.66666666666663"/><polygon points="229.50821922006273 309.33333333333326 239.1288874591069 309.33333333333326 220.30759070402468 330.66666666666663 207.11876065975565 330.66666666666663"/><polygon points="294.4427539836204 309.33333333333326 274.27448760321283 309.33333333333326 294.37676124511154 330.66666666666663 230.49536074098032 330.66666666666663"/><polygon points="305.8213979257838 309.33333333333326 347.55855117860386 309.33333333333326 307.1567570052851 330.66666666666663 298.202013231697 330.66666666666663"/><polygon points="363.02882036962336 309.33333333333326 339.83812932887986 309.33333333333326 374.8606449498778 330.66666666666663 375.35244681300327 330.66666666666663"/><polygon points="353.5321229441595 309.33333333333326 451.90475790138316 309.33333333333326 372.6392414698277 330.66666666666663 377.1544964354175 330.66666666666663"/><polygon points="415.8189237531528 309.33333333333326 434.5762544655308 309.33333333333326 475.8283314136947 330.66666666666663 473.9930106097435 330.66666666666663"/><polygon points="424.67852706811203 309.33333333333326 509.5016502585963 309.33333333333326 545.4194878817649 330.66666666666663 486.73198245976033 330.66666666666663"/><polygon points="10.666666666666666 351.99999999999994 50.80965797329052 351.99999999999994 32 373.3333333333333 -21.110476191446363 373.3333333333333"/><polygon points="53.72743408621378 351.99999999999994 64.46534000760643 351.99999999999994 77.29348457303696 373.3333333333333 17.112495947668194 373.3333333333333"/><polygon points="93.91356457602534 351.99999999999994 87.31017368256872 351.99999999999994 126.60252463682201 373.3333333333333 65.36634249705733 373.3333333333333"/><polygon points="127.90680610960081 351.99999999999994 188.41165005395584 351.99999999999994 171.31318988892517 373.3333333333333 157.67990838354098 373.3333333333333"/><polygon points="176.0674437696886 351.99999999999994 237.7341734714236 351.99999999999994 218.30135431679395 373.3333333333333 186.10708342727233 373.3333333333333"/><polygon points="217.58217113522204 351.99999999999994 284.3215749893129 351.99999999999994 237.67488474206093 373.3333333333333 237.7347821791504 373.3333333333333"/><polygon points="285.08344345370654 351.99999999999994 275.6069359103419 351.99999999999994 304.5865683219795 373.3333333333333 254.15914674366215 373.3333333333333"/><polygon points="315.2967448721244 351.99999999999994 315.4731202279497 351.99999999999994 349.63427455488153 373.3333333333333 338.23831454233226 373.3333333333333"/><polygon points="321.23094479024877 351.99999999999994 369.08314538901965 351.99999999999994 354.8627309761535 373.3333333333333 312.55109858736694 373.3333333333333"/><polygon points="418.9849096080626 351.99999999999994 414.0730865508056 351.99999999999994 377.40913039619426 373.3333333333333 362.36175013497433 373.3333333333333"/><polygon points="469.61599992359106 351.99999999999994 494.2922487481954 351.99999999999994 445.9884913943862 373.3333333333333 440.094848761088 373.3333333333333"/><polygon points="434.32125402978204 351.99999999999994 523.2202792850478 351.99999999999994 520.8438947907771 373.3333333333333 469.40222211872367 373.3333333333333"/><polygon points="10.666666666666666 394.66666666666663 -10.512169634532412 394.66666666666663 32 416 5.693108302836771 416"/><polygon points="58.07710753995522 394.66666666666663 62.91967138698373 394.66666666666663 72.85285597537485 416 26.30971287118627 416"/><polygon points="99.50441287373266 394.66666666666663 75.11122150654143 394.66666666666663 119.81387391568367 416 70.4738981731949 416"/><polygon points="150.51020124676617 394.66666666666663 183.72136327905594 394.66666666666663 167.6401257980063 416 169.98389101393917 416"/><polygon points="162.9433670201857 394.66666666666663 215.063426317192 394.66666666666663 191.18195828418942 416 198.9510801433378 416"/><polygon points="200.06396613107665 394.66666666666663 209.09828012555488 394.66666666666663 261.48883772367054 416 208.59304256332877 416"/><polygon points="269.4258519686684 394.66666666666663 245.74466884274597 394.66666666666663 272.0553911812222 416 222.7197093312915 416"/><polygon points="325.4534086391854 394.66666666666663 375.07449552883253 394.66666666666663 304.8407404597162 416 307.4355901649757 416"/><polygon points="378.64853340541737 394.66666666666663 400.9345084893496 394.66666666666663 384.6606887350205 416 317.27398254056885 416"/><polygon points="357.7472183324047 394.66666666666663 437.9401266160762 394.66666666666663 445.69408332697134 416 412.0010995483674 416"/><polygon points="459.1438925014268 394.66666666666663 468.86589882737775 394.66666666666663 498.10300770357054 416 446.90759625582683 416"/><polygon points="428.08297581790794 394.66666666666663 539.1497218762652 394.66666666666663 521.3285130467946 416 493.2280531612417 416"/><polygon points="10.666666666666666 437.33333333333326 18.2529003860106 437.33333333333326 32 458.66666666666663 38.283000022850935 458.66666666666663"/><polygon points="48.13677652874982 437.33333333333326 89.98174028634881 437.33333333333326 78.43243472819425 458.66666666666663 6.298274285486755 458.66666666666663"/><polygon points="87.15232149082007 437.33333333333326 92.587791041571 437.33333333333326 120.83086148185618 458.66666666666663 73.43299666532448 458.66666666666663"/><polygon points="126.95820582186792 437.33333333333326 158.71559259349465 437.33333333333326 152.64071995580545 458.66666666666663 90.34464022501949 458.66666666666663"/><polygon points="187.7624260642288 437.33333333333326 192.5301234138637 437.33333333333326 209.10531918961837 458.66666666666663 190.94023305250803 458.66666666666663"/><polygon points="211.41836264220495 437.33333333333326 195.5759335757654 437.33333333333326 260.8353824268104 458.66666666666663 212.231565219078 458.66666666666663"/><polygon points="250.8054231458403 437.33333333333326 253.79684012393267 437.33333333333326 280.7692699647127 458.66666666666663 313.4004616513258 458.66666666666663"/><polygon points="291.3149519408691 437.33333333333326 300.63413395414415 437.33333333333326 344.47867968733067 458.66666666666663 281.4154541234906 458.66666666666663"/><polygon points="322.43759453476764 437.33333333333326 342.2838870103005 437.33333333333326 340.55234720256226 458.66666666666663 338.235179411787 458.66666666666663"/><polygon points="415.9971493397266 437.33333333333326 379.86948661847356 437.33333333333326 450.50982700221914 458.66666666666663 350.6981593773429 458.66666666666663"/><polygon points="464.5718988614173 437.33333333333326 469.1189029117652 437.33333333333326 420.7134871563409 458.66666666666663 486.8982199745466 458.66666666666663"/><polygon points="479.58301743150395 437.33333333333326 465.9685927919866 437.33333333333326 534.371761693144 458.66666666666663 481.7884242162464 458.66666666666663"/><polygon points="10.666666666666666 479.99999999999994 58.52112359972301 479.99999999999994 32 501.3333333333333 29.491121526649742 501.3333333333333"/><polygon points="57.39475568337779 479.99999999999994 55.733898576962154 479.99999999999994 78.23859865246489 501.3333333333333 82.24717913694326 501.3333333333333"/><polygon points="94.72565434278442 479.99999999999994 149.7954971391042 479.99999999999994 126.66356061333067 501.3333333333333 94.34267255704383 501.3333333333333"/><polygon points="140.1837331496455 479.99999999999994 101.86467917496563 479.99999999999994 175.6632063349129 501.3333333333333 106.7127819260494 501.3333333333333"/><polygon points="192.60671479212058 479.99999999999994 150.48342723586148 479.99999999999994 218.02510544407687 501.3333333333333 221.77694249487573 501.3333333333333"/><polygon points="249.35284683933006 479.99999999999994 238.10262872174633 479.99999999999994 256.2460362635052 501.3333333333333 264.1994627078735 501.3333333333333"/><polygon points="294.3942549255835 479.99999999999994 338.84123264057985 479.99999999999994 279.32922848064396 501.3333333333333 248.70136402990028 501.3333333333333"/><polygon points="281.698084503204 479.99999999999994 296.8257871280528 479.99999999999994 349.33917377373007 501.3333333333333 325.00343400911675 501.3333333333333"/><polygon points="367.47074586703064 479.99999999999994 385.7725429646598 479.99999999999994 366.5035159276622 501.3333333333333 336.72762613766764 501.3333333333333"/><polygon points="380.65892165971337 479.99999999999994 418.09263550507774 479.99999999999994 385.34964440268755 501.3333333333333 437.7833659078377 501.3333333333333"/><polygon points="468.5649944428012 479.99999999999994 468.8336927027634 479.99999999999994 454.5898807836846 501.3333333333333 455.617677406362 501.3333333333333"/><polygon points="441.87779506532837 479.99999999999994 468.7053053958313 479.99999999999994 475.4254524440495 501.3333333333333 457.11104473959426 501.3333333333333"/>
</svg>
