<?xml version="1.0" encoding="UTF-8"?>
<svg xmlns="http://www.w3.org/2000/svg" id="RSSicon" viewBox="0 0 512 512" width="512" height="512">
  <defs>
    <style type="text/css">
      svg {
        background: black;
        margin: calc(50vh - 256px) auto 0;
      }
      
      polygon {stroke: darkorange; fill: none;}
    </style>
  </defs>
  <polygon points="10.666666666666666 10.666666666666666 32 10.666666666666666 32 32 10.666666666666666 32"/><polygon points="57.095882385151455 10.666666666666666 74.66666666666667 10.666666666666666 72.18621544148665 32 53.333333333333336 32"/><polygon points="87.2197684797442 10.666666666666666 117.33333333333333 10.666666666666666 124.72015445361478 32 95.99999999999999 32"/><polygon points="150.68926512239446 10.666666666666666 160 10.666666666666666 149.6861725600879 32 138.66666666666669 32"/><polygon points="189.05861326845334 10.666666666666666 202.66666666666666 10.666666666666666 193.0911925657229 32 181.33333333333334 32"/><polygon points="239.21110646955455 10.666666666666666 245.33333333333331 10.666666666666666 232.09046238401962 32 224 32"/><polygon points="238.83971038600185 10.666666666666666 288 10.666666666666666 295.3528027952399 32 266.66666666666663 32"/><polygon points="307.50912642568835 10.666666666666666 330.66666666666663 10.666666666666666 303.2721918837378 32 309.33333333333326 32"/><polygon points="317.8524258226926 10.666666666666666 373.3333333333333 10.666666666666666 355.3671492564747 32 351.99999999999994 32"/><polygon points="439.32450530378026 10.666666666666666 416 10.666666666666666 430.1827717126444 32 394.66666666666663 32"/><polygon points="414.94850221701194 10.666666666666666 458.66666666666663 10.666666666666666 500.43259293947386 32 437.33333333333326 32"/><polygon points="533.987151207402 10.666666666666666 501.3333333333333 10.666666666666666 541.7542124234362 32 479.99999999999994 32"/><polygon points="10.666666666666666 53.333333333333336 33.56380407295602 53.333333333333336 32 74.66666666666667 7.570478942138509 74.66666666666667"/><polygon points="48.170918441526425 53.333333333333336 78.20617662544325 53.333333333333336 78.33500794129222 74.66666666666667 56.15855002012919 74.66666666666667"/><polygon points="87.31084429725107 53.333333333333336 116.41430885354694 53.333333333333336 120.50071048076121 74.66666666666667 97.37348033192214 74.66666666666667"/><polygon points="140.66571857964794 53.333333333333336 154.91861999540689 53.333333333333336 153.57439891374548 74.66666666666667 136.1059901323036 74.66666666666667"/><polygon points="169.47932833532676 53.333333333333336 199.2952796096024 53.333333333333336 187.4473358124661 74.66666666666667 178.72600338277672 74.66666666666667"/><polygon points="212.43934900423102 53.333333333333336 241.30401368262739 53.333333333333336 222.15329183490965 74.66666666666667 223.25231473632434 74.66666666666667"/><polygon points="288.98991147756885 53.333333333333336 290.51736328595246 53.333333333333336 281.79190057387854 74.66666666666667 271.10927606558835 74.66666666666667"/><polygon points="307.26288133228695 53.333333333333336 334.2799647885364 53.333333333333336 320.1166703363812 74.66666666666667 304.11980509533583 74.66666666666667"/><polygon points="337.5042820884739 53.333333333333336 372.5937706238928 53.333333333333336 373.22109709512824 74.66666666666667 346.8887470003989 74.66666666666667"/><polygon points="416.02240902914485 53.333333333333336 415.73185064501126 53.333333333333336 427.61137725807845 74.66666666666667 395.14863640550215 74.66666666666667"/><polygon points="405.86710193193335 53.333333333333336 460.70044970089066 53.333333333333336 489.9996323821362 74.66666666666667 432.8744334330513 74.66666666666667"/><polygon points="501.80481614679894 53.333333333333336 496.24684873476514 53.333333333333336 502.3052333387051 74.66666666666667 484.2096015759346 74.66666666666667"/><polygon points="10.666666666666666 95.99999999999999 33.80465012441423 95.99999999999999 32 117.33333333333333 17.52580500616141 117.33333333333333"/><polygon points="48.24751360873171 95.99999999999999 82.33724987210479 95.99999999999999 79.47270435768272 117.33333333333333 56.967408545924805 117.33333333333333"/><polygon points="94.53632046109931 95.99999999999999 122.07565940530377 95.99999999999999 113.0446965490062 117.33333333333333 98.36700034165622 117.33333333333333"/><polygon points="143.14575277918178 95.99999999999999 156.12722633486297 95.99999999999999 150.8901070758558 117.33333333333333 135.42169761251742 117.33333333333333"/><polygon points="173.87304057326847 95.99999999999999 210.22735802868033 95.99999999999999 189.45247027896596 117.33333333333333 185.25865750598354 117.33333333333333"/><polygon points="209.4082256964987 95.99999999999999 252.99765599859526 95.99999999999999 261.04992318421995 117.33333333333333 221.9986482406808 117.33333333333333"/><polygon points="247.70747174912105 95.99999999999999 288.95234641182986 95.99999999999999 282.084682173295 117.33333333333333 265.21133512748634 117.33333333333333"/><polygon points="273.7168705132074 95.99999999999999 334.14164164510913 95.99999999999999 323.9947848064866 117.33333333333333 303.4134266411629 117.33333333333333"/><polygon points="348.63951476375763 95.99999999999999 376.6879422402445 95.99999999999999 375.9587366465904 117.33333333333333 362.4659495573491 117.33333333333333"/><polygon points="419.38302409366787 95.99999999999999 416.28461137492076 95.99999999999999 400.8990507176963 117.33333333333333 391.24871192551046 117.33333333333333"/><polygon points="471.492258512187 95.99999999999999 453.5502491555009 95.99999999999999 448.92225158285083 117.33333333333333 445.11065919529227 117.33333333333333"/><polygon points="482.82287059773245 95.99999999999999 494.5004309562593 95.99999999999999 480.88976186368905 117.33333333333333 475.316366142898 117.33333333333333"/><polygon points="10.666666666666666 138.66666666666669 41.177347647432185 138.66666666666669 32 160 9.462144519507847 160"/><polygon points="50.60457447724179 138.66666666666669 75.23408304156385 138.66666666666669 74.44782288512471 160 62.411760507788564 160"/><polygon points="95.83056434086112 138.66666666666669 128.77987200176304 138.66666666666669 127.28060323761213 160 84.88478487500782 160"/><polygon points="135.68691614685042 138.66666666666669 171.7738211311871 138.66666666666669 153.05037691451585 160 153.32714482825796 160"/><polygon points="168.80885040839553 138.66666666666669 190.60713399570753 138.66666666666669 213.13729052625973 160 185.44406257638076 160"/><polygon points="223.97141276985488 138.66666666666669 232.46303599404482 138.66666666666669 269.9594448983323 160 217.67705777798886 160"/><polygon points="241.68130248837497 138.66666666666669 294.2413363537072 138.66666666666669 312.8938727840108 160 282.609277138601 160"/><polygon points="338.4531542525699 138.66666666666669 323.4334526831313 138.66666666666669 335.4304943510534 160 316.2776554720499 160"/><polygon points="331.6782491678663 138.66666666666669 361.474507018563 138.66666666666669 394.3268548320519 160 339.1473218048852 160"/><polygon points="418.893907379444 138.66666666666669 400.1923707760296 138.66666666666669 381.97677354472546 160 385.8179007863997 160"/><polygon points="478.26339475828473 138.66666666666669 471.238471661251 138.66666666666669 425.7327767546467 160 435.6932987429552 160"/><polygon points="457.963310748444 138.66666666666669 506.8701892881161 138.66666666666669 516.4842620020077 160 484.20490141065363 160"/><polygon points="10.666666666666666 181.33333333333334 42.557000349931776 181.33333333333334 32 202.66666666666666 -5.501498468076107 202.66666666666666"/><polygon points="48.604636100652336 181.33333333333334 76.6342041431525 181.33333333333334 77.47344808745876 202.66666666666666 43.96766184492 202.66666666666666"/><polygon points="92.8526767227703 181.33333333333334 103.27664801213324 181.33333333333334 119.31847661479071 202.66666666666666 88.87156123422379 202.66666666666666"/><polygon points="143.10096468177795 181.33333333333334 177.55662598377722 181.33333333333334 148.7170279089094 202.66666666666666 126.8461047405898 202.66666666666666"/><polygon points="202.0884660053636 181.33333333333334 193.75938191221817 181.33333333333334 204.13237383441802 202.66666666666666 183.2274540482725 202.66666666666666"/><polygon points="203.84858123395307 181.33333333333334 230.59458262797244 181.33333333333334 269.73054883354257 202.66666666666666 241.164343286775 202.66666666666666"/><polygon points="266.59838035610215 181.33333333333334 277.40025760986055 181.33333333333334 258.2721922758496 202.66666666666666 262.99209659325754 202.66666666666666"/><polygon points="344.52362166936354 181.33333333333334 320.8122499295706 181.33333333333334 330.7948651103909 202.66666666666666 310.27005134412036 202.66666666666666"/><polygon points="368.6508920941132 181.33333333333334 362.0085552608022 181.33333333333334 391.1813128606493 202.66666666666666 369.56784250202435 202.66666666666666"/><polygon points="437.24824765880965 181.33333333333334 402.6465973658543 181.33333333333334 443.05504508520295 202.66666666666666 399.64070372010445 202.66666666666666"/><polygon points="398.354954185262 181.33333333333334 453.30859312307 181.33333333333334 443.80249363312333 202.66666666666666 456.60773690913817 202.66666666666666"/><polygon points="506.28712466647346 181.33333333333334 492.8820344548916 181.33333333333334 524.5058084685745 202.66666666666666 494.87327653115636 202.66666666666666"/><polygon points="10.666666666666666 224 30.658675008699223 224 32 245.33333333333331 17.225831517638106 245.33333333333331"/><polygon points="52.52658275753382 224 69.05629341766158 224 75.12725002196355 245.33333333333331 61.71889797749921 245.33333333333331"/><polygon points="101.09933568549923 224 109.96504394749158 224 121.03322291492162 245.33333333333331 79.28358648829271 245.33333333333331"/><polygon points="149.3494618511742 224 185.44257483553375 224 163.93153881874383 245.33333333333331 139.4518515333556 245.33333333333331"/><polygon points="194.22158905093883 224 224.5067536004467 224 199.95120091828372 245.33333333333331 161.1618474001966 245.33333333333331"/><polygon points="246.80447249784285 224 263.2899280690713 224 263.66416851844934 245.33333333333331 210.2292431833827 245.33333333333331"/><polygon points="243.2060207466704 224 305.723247479922 224 257.34937326984357 245.33333333333331 257.1218713707286 245.33333333333331"/><polygon points="341.81887685657756 224 353.77193404394234 224 342.5501014363859 245.33333333333331 304.3877129879402 245.33333333333331"/><polygon points="342.98474486532604 224 366.5482732614904 224 402.951396812994 245.33333333333331 364.08798879619997 245.33333333333331"/><polygon points="406.65794639630764 224 412.28500808851413 224 386.720316876651 245.33333333333331 391.2321687604566 245.33333333333331"/><polygon points="439.54485504076575 224 467.6811094666249 224 414.22277028487065 245.33333333333331 455.0426484312433 245.33333333333331"/><polygon points="494.58838894698255 224 490.403621707419 224 552.3172206224459 245.33333333333331 501.267409389883 245.33333333333331"/><polygon points="10.666666666666666 266.66666666666663 55.1928607435235 266.66666666666663 32 288 -18.046102201247297 288"/><polygon points="56.615089538292374 266.66666666666663 79.18130991618902 266.66666666666663 75.04808192492833 288 73.10226055672847 288"/><polygon points="92.55440250460973 266.66666666666663 143.93367858203283 266.66666666666663 123.54695011854746 288 71.2821826290018 288"/><polygon points="123.944136815266 266.66666666666663 144.7542139325438 266.66666666666663 168.2145098366833 288 159.35571020191625 288"/><polygon points="198.12226375336041 266.66666666666663 207.65538772609128 266.66666666666663 211.99394351792782 288 174.20709187247314 288"/><polygon points="238.61400939329422 266.66666666666663 222.09831383809507 266.66666666666663 224.91935614837493 288 203.06434682918353 288"/><polygon points="285.38885774324194 266.66666666666663 289.91804793640296 266.66666666666663 305.2891399812824 288 237.93496818087698 288"/><polygon points="336.84422478654005 266.66666666666663 334.13568651553516 266.66666666666663 314.09244592822716 288 323.04691430189337 288"/><polygon points="349.34382589686425 266.66666666666663 341.81051236078537 266.66666666666663 339.6422079780051 288 337.73542302713463 288"/><polygon points="392.3365792210213 266.66666666666663 393.5790641727692 266.66666666666663 384.29864742150033 288 416.09276717615893 288"/><polygon points="390.7297880405748 266.66666666666663 477.37028040269007 266.66666666666663 463.7362551459792 288 426.91718087652805 288"/><polygon points="538.6303537816291 266.66666666666663 480.0675749178685 266.66666666666663 505.55221053925516 288 457.9165002239881 288"/><polygon points="10.666666666666666 309.33333333333326 43.64112502477724 309.33333333333326 32 330.66666666666663 -1.3021722914148661 330.66666666666663"/><polygon points="52.11455092329594 309.33333333333326 64.95498393407816 309.33333333333326 71.65231698915251 330.66666666666663 17.804931690250513 330.66666666666663"/><polygon points="94.75810177564452 309.33333333333326 132.75370198356 309.33333333333326 116.2356167725321 330.66666666666663 72.00347321206611 330.66666666666663"/><polygon points="126.24866638874721 309.33333333333326 131.23933438134128 309.33333333333326 159.68483929747725 330.66666666666663 130.0589753025836 330.66666666666663"/><polygon points="194.1899982661504 309.33333333333326 211.65777760172713 309.33333333333326 222.35048600204976 330.66666666666663 216.0964487385345 330.66666666666663"/><polygon points="208.09762574969912 309.33333333333326 217.99193231236066 309.33333333333326 224.9989111535668 330.66666666666663 198.2740806116514 330.66666666666663"/><polygon points="245.72099494144013 309.33333333333326 302.82853452457715 309.33333333333326 289.96862717723985 330.66666666666663 287.1090922645312 330.66666666666663"/><polygon points="296.354557673115 309.33333333333326 343.4616835315619 309.33333333333326 317.3958451943036 330.66666666666663 300.6031789738347 330.66666666666663"/><polygon points="327.8488156356337 309.33333333333326 347.3513185585823 309.33333333333326 340.74337707548466 330.66666666666663 369.80289543126446 330.66666666666663"/><polygon points="423.5428748139665 309.33333333333326 433.98559013733086 309.33333333333326 455.53816298667243 330.66666666666663 366.7020787495983 330.66666666666663"/><polygon points="427.0512532524168 309.33333333333326 495.0761135477409 309.33333333333326 451.8278121796742 330.66666666666663 430.21800050902925 330.66666666666663"/><polygon points="432.33250634152785 309.33333333333326 535.5847226943442 309.33333333333326 469.18059740410314 330.66666666666663 487.98647868068656 330.66666666666663"/><polygon points="10.666666666666666 351.99999999999994 12.287185107912666 351.99999999999994 32 373.3333333333333 -10.761347655787421 373.3333333333333"/><polygon points="50.14292138150223 351.99999999999994 56.657646382891926 351.99999999999994 74.34721500298457 373.3333333333333 56.33268965590761 373.3333333333333"/><polygon points="86.31760665380486 351.99999999999994 140.7132799258666 351.99999999999994 127.74721478317403 373.3333333333333 89.05756958210677 373.3333333333333"/><polygon points="148.17006419303027 351.99999999999994 190.2991688175938 351.99999999999994 152.106287624982 373.3333333333333 155.66602741734883 373.3333333333333"/><polygon points="168.89382029613822 351.99999999999994 174.25572385007192 351.99999999999994 220.13100196283236 373.3333333333333 166.08210818752033 373.3333333333333"/><polygon points="225.15551472971973 351.99999999999994 218.2322995276036 351.99999999999994 222.8223106265978 373.3333333333333 227.74649772998885 373.3333333333333"/><polygon points="253.14142239607784 351.99999999999994 326.0195128455065 351.99999999999994 316.5100075636549 373.3333333333333 286.26918263399193 373.3333333333333"/><polygon points="343.28808700657856 351.99999999999994 365.0166083041597 351.99999999999994 313.1539532938691 373.3333333333333 292.14450997467287 373.3333333333333"/><polygon points="360.82537246189514 351.99999999999994 411.95508979927416 351.99999999999994 389.1415936635518 373.3333333333333 318.55168942961654 373.3333333333333"/><polygon points="415.5714402241385 351.99999999999994 438.2313276393795 351.99999999999994 384.4404635945753 373.3333333333333 380.6837539442497 373.3333333333333"/><polygon points="470.5115649263425 351.99999999999994 441.01509422660484 351.99999999999994 417.9595539718533 373.3333333333333 429.9812035845641 373.3333333333333"/><polygon points="514.2773448425792 351.99999999999994 474.7087257344539 351.99999999999994 552.7632338628727 373.3333333333333 464.7114926265687 373.3333333333333"/><polygon points="10.666666666666666 394.66666666666663 67.6170426570939 394.66666666666663 32 416 44.08429970854754 416"/><polygon points="52.69950487612368 394.66666666666663 62.30522750714298 394.66666666666663 74.0168999053374 416 68.22866034271593 416"/><polygon points="85.81786137760324 394.66666666666663 78.63916214546882 394.66666666666663 109.93270677146276 416 82.81015981457375 416"/><polygon points="133.3176707599016 394.66666666666663 146.96576688538667 394.66666666666663 147.27404376527164 416 175.13988729719767 416"/><polygon points="168.22294723706221 394.66666666666663 176.17311249025465 394.66666666666663 213.01707605353752 416 195.0872221161278 416"/><polygon points="200.17956104082785 394.66666666666663 260.9110768884245 394.66666666666663 219.87620778064718 416 214.31296299838303 416"/><polygon points="239.78807728698632 394.66666666666663 306.8490457571543 394.66666666666663 264.8827093327387 416 268.370830216947 416"/><polygon points="319.8430085722001 394.66666666666663 356.6455320713815 394.66666666666663 349.1836559604619 416 341.9365400629774 416"/><polygon points="321.2031932643966 394.66666666666663 357.61570453315903 394.66666666666663 377.3015645969359 416 323.40517346444784 416"/><polygon points="359.24414010639197 394.66666666666663 405.6652923049947 394.66666666666663 387.9101626477153 416 436.05360377272683 416"/><polygon points="454.7914168319082 394.66666666666663 455.4917573224906 394.66666666666663 507.3819253784482 416 478.1220269843227 416"/><polygon points="482.6546544588553 394.66666666666663 537.7727696561778 394.66666666666663 555.3400507110147 416 522.7238147139188 416"/><polygon points="10.666666666666666 437.33333333333326 36.005733599200475 437.33333333333326 32 458.66666666666663 -27.859304045190793 458.66666666666663"/><polygon points="56.641874751900545 437.33333333333326 76.37087516856009 437.33333333333326 71.42564459005749 458.66666666666663 70.03513486240156 458.66666666666663"/><polygon points="102.94391813434858 437.33333333333326 113.51798824317459 437.33333333333326 111.41587673151622 458.66666666666663 54.57986861162574 458.66666666666663"/><polygon points="127.07488875813496 437.33333333333326 125.07906694663285 437.33333333333326 144.64033111304153 458.66666666666663 191.5225377856703 458.66666666666663"/><polygon points="160.593099111477 437.33333333333326 212.9135843594631 437.33333333333326 207.0196787312357 458.66666666666663 178.2251113461797 458.66666666666663"/><polygon points="218.98691227329974 437.33333333333326 207.57598402185997 437.33333333333326 263.5553691492903 458.66666666666663 238.9206837937794 458.66666666666663"/><polygon points="276.2784081263252 437.33333333333326 307.7141096456618 437.33333333333326 258.5411363142432 458.66666666666663 305.27413524203985 458.66666666666663"/><polygon points="343.1462910673704 437.33333333333326 309.96376265520826 437.33333333333326 366.2772967534948 458.66666666666663 350.27931894911654 458.66666666666663"/><polygon points="329.454781688756 437.33333333333326 337.60327598224325 437.33333333333326 405.31844291730096 458.66666666666663 306.0643550973092 458.66666666666663"/><polygon points="422.01233515234776 437.33333333333326 391.4842708514476 437.33333333333326 386.2510634626069 458.66666666666663 437.0266235753145 458.66666666666663"/><polygon points="405.7920064275139 437.33333333333326 507.94307142774556 437.33333333333326 507.31334922669186 458.66666666666663 429.62717989140344 458.66666666666663"/><polygon points="452.14604137681863 437.33333333333326 547.6218841112828 437.33333333333326 557.9123741737832 458.66666666666663 468.503448966044 458.66666666666663"/><polygon points="10.666666666666666 479.99999999999994 77.14511280694634 479.99999999999994 32 501.3333333333333 28.80975329646834 501.3333333333333"/><polygon points="51.99503808732647 479.99999999999994 70.32604744273877 479.99999999999994 78.90080286576132 501.3333333333333 74.1477796973492 501.3333333333333"/><polygon points="100.36691541907058 479.99999999999994 134.68018609921054 479.99999999999994 108.43619787174435 501.3333333333333 74.86600325031347 501.3333333333333"/><polygon points="140.30750990951648 479.99999999999994 110.0137174736743 479.99999999999994 147.09532727189912 501.3333333333333 134.48113678992698 501.3333333333333"/><polygon points="175.63005980146673 479.99999999999994 177.8884878160502 479.99999999999994 194.61748577130254 501.3333333333333 169.71823649680675 501.3333333333333"/><polygon points="233.3864598852352 479.99999999999994 231.50635696918522 479.99999999999994 235.9272968468318 501.3333333333333 210.75744685042363 501.3333333333333"/><polygon points="291.098873283374 479.99999999999994 324.0855296708774 479.99999999999994 284.5127306863879 501.3333333333333 304.8179293223928 501.3333333333333"/><polygon points="331.3064538201155 479.99999999999994 368.74741076655886 479.99999999999994 317.70790726566605 501.3333333333333 308.99729027976235 501.3333333333333"/><polygon points="348.15159763370536 479.99999999999994 401.97288232187657 479.99999999999994 380.6018943876189 501.3333333333333 402.33839101792046 501.3333333333333"/><polygon points="422.5619071013352 479.99999999999994 467.64247670867366 479.99999999999994 459.14242033217215 501.3333333333333 423.26849257576595 501.3333333333333"/><polygon points="460.4184954740507 479.99999999999994 439.6316555052934 479.99999999999994 499.0383819940597 501.3333333333333 426.51295050781647 501.3333333333333"/><polygon points="519.8556644964362 479.99999999999994 552.8327692491337 479.99999999999994 546.1144948885844 501.3333333333333 465.2862006553367 501.3333333333333"/>
</svg>
