<?xml version="1.0" encoding="UTF-8"?>
<svg xmlns="http://www.w3.org/2000/svg" id="RSSicon" viewBox="0 0 512 512" width="512" height="512">
  <defs>
    <style type="text/css">
      svg {
        background: black;
        margin: calc(50vh - 256px) auto 0;
      }
      
      polygon {stroke: darkorange; fill: none;}
    </style>
  </defs>
  <polygon points="10.666666666666666 10.666666666666666 32 10.666666666666666 32 32 10.666666666666666 32"/><polygon points="54.90854573811055 10.666666666666666 74.66666666666667 10.666666666666666 69.70913381478069 32 53.333333333333336 32"/><polygon points="95.88895062552103 10.666666666666666 117.33333333333333 10.666666666666666 121.27105052855285 32 95.99999999999999 32"/><polygon points="152.15055858109574 10.666666666666666 160 10.666666666666666 163.95460172043232 32 138.66666666666669 32"/><polygon points="197.0453937777761 10.666666666666666 202.66666666666666 10.666666666666666 210.25683001835205 32 181.33333333333334 32"/><polygon points="243.45717324952136 10.666666666666666 245.33333333333331 10.666666666666666 253.56788747267058 32 224 32"/><polygon points="297.40039750431805 10.666666666666666 288 10.666666666666666 299.9278499227236 32 266.66666666666663 32"/><polygon points="283.28621977710196 10.666666666666666 330.66666666666663 10.666666666666666 306.82518801723944 32 309.33333333333326 32"/><polygon points="324.46601837336925 10.666666666666666 373.3333333333333 10.666666666666666 356.4228904910645 32 351.99999999999994 32"/><polygon points="404.8006919577146 10.666666666666666 416 10.666666666666666 393.62289990871847 32 394.66666666666663 32"/><polygon points="399.9565499158327 10.666666666666666 458.66666666666663 10.666666666666666 501.0131309940302 32 437.33333333333326 32"/><polygon points="482.4941712408594 10.666666666666666 501.3333333333333 10.666666666666666 494.76313518277647 32 479.99999999999994 32"/><polygon points="10.666666666666666 53.333333333333336 27.697162929016223 53.333333333333336 32 74.66666666666667 8.78081488508332 74.66666666666667"/><polygon points="50.74339092446068 53.333333333333336 79.22469583182291 53.333333333333336 75.51385215470378 74.66666666666667 51.34893310781086 74.66666666666667"/><polygon points="103.55633514468326 53.333333333333336 118.74045965680736 53.333333333333336 115.11153241479667 74.66666666666667 98.66437163466675 74.66666666666667"/><polygon points="130.27494722884617 53.333333333333336 159.2170460129833 53.333333333333336 157.43721302462032 74.66666666666667 138.6864033053412 74.66666666666667"/><polygon points="177.63730107086664 53.333333333333336 206.09308145226709 53.333333333333336 213.27718599133755 74.66666666666667 176.51113304415213 74.66666666666667"/><polygon points="247.48702581431004 53.333333333333336 249.97843815640996 53.333333333333336 261.6344895666754 74.66666666666667 226.2623896153592 74.66666666666667"/><polygon points="270.5099820541539 53.333333333333336 293.32166388964106 53.333333333333336 315.0915862104971 74.66666666666667 271.6827963765746 74.66666666666667"/><polygon points="330.65762323175665 53.333333333333336 329.93813880277463 53.333333333333336 320.09561042690814 74.66666666666667 307.76886804498344 74.66666666666667"/><polygon points="314.5582778405804 53.333333333333336 368.333443154264 53.333333333333336 355.7063975056989 74.66666666666667 356.41283628822754 74.66666666666667"/><polygon points="417.6446849643867 53.333333333333336 415.0551353990412 53.333333333333336 413.7958486953646 74.66666666666667 392.53795416972736 74.66666666666667"/><polygon points="450.00492275641034 53.333333333333336 457.3694326995172 53.333333333333336 503.36521548296 74.66666666666667 432.34136901132473 74.66666666666667"/><polygon points="491.87134136637144 53.333333333333336 496.85562962975183 53.333333333333336 515.5695701727733 74.66666666666667 477.6583516413766 74.66666666666667"/><polygon points="10.666666666666666 95.99999999999999 30.821965706892684 95.99999999999999 32 117.33333333333333 15.443887330409556 117.33333333333333"/><polygon points="50.71836005966455 95.99999999999999 82.58324979314659 95.99999999999999 79.68278833414463 117.33333333333333 49.38879003340797 117.33333333333333"/><polygon points="99.59979244088912 95.99999999999999 116.69540027532574 95.99999999999999 115.3134366208596 117.33333333333333 95.90500991817112 117.33333333333333"/><polygon points="144.3539274675734 95.99999999999999 163.29002496449533 95.99999999999999 171.7736632196768 117.33333333333333 135.22767941101978 117.33333333333333"/><polygon points="162.79981183449814 95.99999999999999 195.31601303555928 95.99999999999999 201.3358138596416 117.33333333333333 184.2675424912319 117.33333333333333"/><polygon points="212.7097767250891 95.99999999999999 240.7982371989315 95.99999999999999 225.90876684087215 117.33333333333333 217.50155474074015 117.33333333333333"/><polygon points="247.925004468084 95.99999999999999 297.4788690278985 95.99999999999999 307.0144804296972 117.33333333333333 264.24999422844536 117.33333333333333"/><polygon points="343.75750041619006 95.99999999999999 327.63235679702444 95.99999999999999 316.97870775287987 117.33333333333333 312.1296530866222 117.33333333333333"/><polygon points="319.1808682647104 95.99999999999999 364.99674646009163 95.99999999999999 415.627624804997 117.33333333333333 343.4675801250487 117.33333333333333"/><polygon points="409.3187748400882 95.99999999999999 423.2431269525688 95.99999999999999 381.49255767415536 117.33333333333333 402.08511396330795 117.33333333333333"/><polygon points="413.3190035902981 95.99999999999999 448.26140495621166 95.99999999999999 419.4499334581303 117.33333333333333 437.33050121077537 117.33333333333333"/><polygon points="511.3667874175405 95.99999999999999 497.7305677668425 95.99999999999999 477.65644900567554 117.33333333333333 487.5413354528852 117.33333333333333"/><polygon points="10.666666666666666 138.66666666666669 34.23671886150031 138.66666666666669 32 160 13.918530463114289 160"/><polygon points="49.79751181842156 138.66666666666669 73.48357943189792 138.66666666666669 71.81897430592485 160 46.88864264945812 160"/><polygon points="91.8683974570033 138.66666666666669 120.42473578401197 138.66666666666669 122.19898115890719 160 101.55337355595344 160"/><polygon points="129.71604341636913 138.66666666666669 168.31936774438012 138.66666666666669 172.4253116615572 160 152.97748372332325 160"/><polygon points="195.63241694738844 138.66666666666669 213.0863556800856 138.66666666666669 222.52148974550101 160 171.74771661308915 160"/><polygon points="247.13899250385535 138.66666666666669 252.38778200022597 138.66666666666669 245.18514406147466 160 217.76328482090048 160"/><polygon points="248.26707691337702 138.66666666666669 275.4814124649979 138.66666666666669 269.7421790574827 160 260.7076879761121 160"/><polygon points="345.69248681114226 138.66666666666669 326.30164189004927 138.66666666666669 311.026950460766 160 319.6710511503838 160"/><polygon points="354.2307494215332 138.66666666666669 374.44376448110575 138.66666666666669 412.4944663382057 160 340.6029218628027 160"/><polygon points="386.69328489022496 138.66666666666669 431.715086755708 138.66666666666669 408.8079263640095 160 406.34286485132316 160"/><polygon points="387.9368601251974 138.66666666666669 467.6200055836654 138.66666666666669 418.6949861460567 160 427.81997369236933 160"/><polygon points="508.0571295302989 138.66666666666669 505.0787178349336 138.66666666666669 515.5744002755043 160 495.5817641953304 160"/><polygon points="10.666666666666666 181.33333333333334 11.183288586075216 181.33333333333334 32 202.66666666666666 24.256599777478687 202.66666666666666"/><polygon points="51.32640474348384 181.33333333333334 74.99236614841246 181.33333333333334 71.2945011397755 202.66666666666666 61.29839581617292 202.66666666666666"/><polygon points="86.42311718280638 181.33333333333334 124.27880373518855 181.33333333333334 115.24141500042802 202.66666666666666 92.95504575867216 202.66666666666666"/><polygon points="151.22125523501137 181.33333333333334 158.0861408972185 181.33333333333334 167.6356194318478 202.66666666666666 139.96676282812834 202.66666666666666"/><polygon points="177.9039341269239 181.33333333333334 220.58979811590075 181.33333333333334 219.5207550132758 202.66666666666666 162.59911094219459 202.66666666666666"/><polygon points="197.44973300808016 181.33333333333334 229.07315606681541 181.33333333333334 248.46198545938114 202.66666666666666 223.92353278389834 202.66666666666666"/><polygon points="244.63418191729966 181.33333333333334 308.0900198791153 181.33333333333334 299.1891368751801 202.66666666666666 245.38149174071773 202.66666666666666"/><polygon points="277.30974551468097 181.33333333333334 322.51233604421924 181.33333333333334 319.66523971330344 202.66666666666666 319.95481703550786 202.66666666666666"/><polygon points="387.15036978106195 181.33333333333334 361.0449950009609 181.33333333333334 351.4982006834025 202.66666666666666 348.2941557957735 202.66666666666666"/><polygon points="356.4168577410159 181.33333333333334 415.6874901028515 181.33333333333334 463.6015899061028 202.66666666666666 400.13703473888404 202.66666666666666"/><polygon points="431.7338387232128 181.33333333333334 477.36846483563096 181.33333333333334 463.90151144242714 202.66666666666666 448.39623893837125 202.66666666666666"/><polygon points="483.8876399596003 181.33333333333334 481.33675261575945 181.33333333333334 452.8475946331111 202.66666666666666 471.92385009371776 202.66666666666666"/><polygon points="10.666666666666666 224 5.714475458388108 224 32 245.33333333333331 1.4219770706004695 245.33333333333331"/><polygon points="55.41773510869564 224 76.62720114022315 224 69.60078781337099 245.33333333333331 39.882397264893726 245.33333333333331"/><polygon points="103.71473974394793 224 95.241403968093 224 107.49984422899918 245.33333333333331 83.53028007693497 245.33333333333331"/><polygon points="129.1135909017773 224 178.2979114945658 224 157.08167056922792 245.33333333333331 160.44771285850914 245.33333333333331"/><polygon points="174.3412127861193 224 213.90643084674437 224 218.47477600675182 245.33333333333331 174.85068795537222 245.33333333333331"/><polygon points="249.3719629857308 224 218.6831817539267 224 220.69904239698548 245.33333333333331 232.32396621828616 245.33333333333331"/><polygon points="277.4073891809735 224 277.56857206764073 224 318.41358093216746 245.33333333333331 251.63703609428327 245.33333333333331"/><polygon points="334.34980168906026 224 325.2063695945148 224 345.8664002592674 245.33333333333331 297.14879976537657 245.33333333333331"/><polygon points="349.2223660864588 224 375.69626950958747 224 346.2840492664142 245.33333333333331 338.68966227692715 245.33333333333331"/><polygon points="373.351700497685 224 411.2098619492945 224 459.9484383863188 245.33333333333331 402.7647490831032 245.33333333333331"/><polygon points="437.9684826922132 224 476.07239250420554 224 510.3969538322496 245.33333333333331 454.5776595431921 245.33333333333331"/><polygon points="517.446915981684 224 522.7059179812146 224 558.9457439360368 245.33333333333331 498.0350672629203 245.33333333333331"/><polygon points="10.666666666666666 266.66666666666663 49.274912032545316 266.66666666666663 32 288 25.794055481149677 288"/><polygon points="48.994735988046116 266.66666666666663 103.41996519876048 266.66666666666663 74.32203855415236 288 37.81924009169794 288"/><polygon points="102.18074802184405 266.66666666666663 97.0539193123267 266.66666666666663 120.81860274976471 288 94.02787778335477 288"/><polygon points="154.36313435890332 266.66666666666663 190.5798988304179 266.66666666666663 158.62423534332666 288 152.22063869029182 288"/><polygon points="197.4508660139441 266.66666666666663 213.38745360720475 266.66666666666663 207.8990334432156 288 198.34403694313158 288"/><polygon points="208.8454702850901 266.66666666666663 272.7696364411395 266.66666666666663 238.137691946427 288 248.50299318978074 288"/><polygon points="248.63315429281843 266.66666666666663 306.59211824840196 266.66666666666663 301.0316011275477 288 237.9960566919242 288"/><polygon points="281.77059662138436 266.66666666666663 303.13293133038326 266.66666666666663 316.134803186177 288 284.14205120399157 288"/><polygon points="341.3640115647823 266.66666666666663 388.2217973266987 266.66666666666663 380.9256357605388 288 355.20882134499385 288"/><polygon points="388.3972446113264 266.66666666666663 440.87709045777757 266.66666666666663 436.91524241652047 288 372.9544740533387 288"/><polygon points="482.406925856917 266.66666666666663 484.46532796504306 266.66666666666663 410.8078050689645 288 460.92714593150475 288"/><polygon points="474.0830461003625 266.66666666666663 498.8868066645548 266.66666666666663 555.9235923662065 288 467.1322006484236 288"/><polygon points="10.666666666666666 309.33333333333326 -5.192360085845223 309.33333333333326 32 330.66666666666663 7.2908237497674016 330.66666666666663"/><polygon points="51.77459986853766 309.33333333333326 86.07493435003192 309.33333333333326 70.78543742832119 330.66666666666663 38.428174972089536 330.66666666666663"/><polygon points="97.22473430082161 309.33333333333326 103.1361819662096 309.33333333333326 110.98477949505859 330.66666666666663 94.09194585554654 330.66666666666663"/><polygon points="144.47191914669384 309.33333333333326 126.23838932619604 309.33333333333326 174.7485376641298 330.66666666666663 152.6978671000974 330.66666666666663"/><polygon points="167.06232993355056 309.33333333333326 180.3204290075347 309.33333333333326 213.18169327245363 330.66666666666663 183.44495303917995 330.66666666666663"/><polygon points="202.0468992754963 309.33333333333326 269.96745543360373 309.33333333333326 261.2124045161402 330.66666666666663 247.1420591751275 330.66666666666663"/><polygon points="267.45533624449143 309.33333333333326 277.9384886323712 309.33333333333326 309.6468579711838 330.66666666666663 273.36745302653134 330.66666666666663"/><polygon points="315.70769520619046 309.33333333333326 338.2813634104396 309.33333333333326 335.16670288284524 330.66666666666663 302.91178437009324 330.66666666666663"/><polygon points="385.3008522414545 309.33333333333326 382.48445585576616 309.33333333333326 386.7729916238907 330.66666666666663 353.8499639520651 330.66666666666663"/><polygon points="390.5956214854197 309.33333333333326 411.1260621029082 309.33333333333326 450.27031989159815 330.66666666666663 400.99104934273873 330.66666666666663"/><polygon points="450.9683719447352 309.33333333333326 489.3402290625574 309.33333333333326 408.9651794313766 330.66666666666663 459.4065731348165 330.66666666666663"/><polygon points="503.9411823021156 309.33333333333326 536.3456747792295 309.33333333333326 464.463524774135 330.66666666666663 467.2923172087073 330.66666666666663"/><polygon points="10.666666666666666 351.99999999999994 19.20370825887943 351.99999999999994 32 373.3333333333333 22.38714854160518 373.3333333333333"/><polygon points="58.236788529942636 351.99999999999994 50.49274071023145 351.99999999999994 73.01058120238511 373.3333333333333 19.109674709443695 373.3333333333333"/><polygon points="87.0424770753558 351.99999999999994 158.08356696715327 351.99999999999994 126.14515932898848 373.3333333333333 118.4848410502033 373.3333333333333"/><polygon points="130.87492083428077 351.99999999999994 171.07514587652838 351.99999999999994 149.1490524763661 373.3333333333333 147.3323880024194 373.3333333333333"/><polygon points="170.70830311487717 351.99999999999994 183.95278541672195 351.99999999999994 202.14158385516316 373.3333333333333 223.9068376512988 373.3333333333333"/><polygon points="242.71312234050055 351.99999999999994 212.88193992022542 351.99999999999994 262.49220986245143 373.3333333333333 190.80883600637407 373.3333333333333"/><polygon points="267.5292818567975 351.99999999999994 282.6164849908507 351.99999999999994 309.788084162769 373.3333333333333 244.31066402067347 373.3333333333333"/><polygon points="310.39664731927155 351.99999999999994 292.9087188222747 351.99999999999994 357.9559132861681 373.3333333333333 272.0109025292683 373.3333333333333"/><polygon points="313.4161300001083 351.99999999999994 411.80013971795535 351.99999999999994 382.5902263080758 373.3333333333333 311.03895496298856 373.3333333333333"/><polygon points="360.8869379917872 351.99999999999994 397.8767029976787 351.99999999999994 395.8365842799557 373.3333333333333 379.9585806718703 373.3333333333333"/><polygon points="458.1566510928286 351.99999999999994 473.82195343307797 351.99999999999994 488.7682923530598 373.3333333333333 451.88457039718054 373.3333333333333"/><polygon points="456.00053821749486 351.99999999999994 532.4179203219891 351.99999999999994 457.75324780539734 373.3333333333333 440.468800415913 373.3333333333333"/><polygon points="10.666666666666666 394.66666666666663 51.22687493613287 394.66666666666663 32 416 10.576765334260523 416"/><polygon points="54.18110731178707 394.66666666666663 46.55124387898018 394.66666666666663 74.75755546768866 416 16.756604454605636 416"/><polygon points="90.0391015596667 394.66666666666663 113.68485746104594 394.66666666666663 127.02860908095532 416 137.563896512663 416"/><polygon points="151.94497194807852 394.66666666666663 183.97898556817324 394.66666666666663 150.7733711614366 416 97.56524082812521 416"/><polygon points="174.3359759190101 394.66666666666663 227.0175713351387 394.66666666666663 182.10852777360182 416 161.66743476205696 416"/><polygon points="226.06991973567636 394.66666666666663 216.79823365722044 394.66666666666663 242.99971893438916 416 234.08011474175535 416"/><polygon points="257.8274050591961 394.66666666666663 259.9559549442882 394.66666666666663 278.6276458779876 416 270.04385135747 416"/><polygon points="344.3489530042095 394.66666666666663 359.0365327996094 394.66666666666663 341.83073539804815 416 345.313520127006 416"/><polygon points="387.2546532763394 394.66666666666663 391.18339971163863 394.66666666666663 343.44496281696274 416 396.023412555172 416"/><polygon points="403.76429284105694 394.66666666666663 424.2727277498203 394.66666666666663 427.73513145632336 416 429.9274222919859 416"/><polygon points="473.3889033909507 394.66666666666663 427.6150364263505 394.66666666666663 473.2444261077219 416 451.92482687235974 416"/><polygon points="508.7912622766549 394.66666666666663 466.5602456302083 394.66666666666663 553.7362635268084 416 525.3364696185697 416"/><polygon points="10.666666666666666 437.33333333333326 13.461785939359311 437.33333333333326 32 458.66666666666663 -28.742072690283944 458.66666666666663"/><polygon points="52.522624184396314 437.33333333333326 118.26214148876844 437.33333333333326 72.61742045987708 458.66666666666663 23.13830782816936 458.66666666666663"/><polygon points="103.8338377540718 437.33333333333326 124.18901159326381 437.33333333333326 106.73596367608269 458.66666666666663 92.0616416819388 458.66666666666663"/><polygon points="153.93639418821203 437.33333333333326 108.51642016711322 437.33333333333326 164.16004039161808 458.66666666666663 151.65441674542234 458.66666666666663"/><polygon points="161.87995296378466 437.33333333333326 254.0548150947267 437.33333333333326 204.11851261762132 458.66666666666663 214.02901128953326 458.66666666666663"/><polygon points="197.67802760467856 437.33333333333326 290.86329822752606 437.33333333333326 253.52986974242066 458.66666666666663 241.61119685253394 458.66666666666663"/><polygon points="262.90130494369555 437.33333333333326 284.8662215673998 437.33333333333326 298.0885006454474 458.66666666666663 239.98277939549234 458.66666666666663"/><polygon points="290.9200428122905 437.33333333333326 310.0682575768251 437.33333333333326 358.06451824601396 458.66666666666663 341.37547268474475 458.66666666666663"/><polygon points="391.5724903844774 437.33333333333326 407.4281428014792 437.33333333333326 385.1989489798704 458.66666666666663 382.09594889704 458.66666666666663"/><polygon points="377.3702468259703 437.33333333333326 459.42948207668303 437.33333333333326 385.50499048268694 458.66666666666663 347.3134789074375 458.66666666666663"/><polygon points="439.040758206108 437.33333333333326 447.19093743024894 437.33333333333326 423.26583360641166 458.66666666666663 422.70060064470033 458.66666666666663"/><polygon points="423.63565198474936 437.33333333333326 452.9815155101754 437.33333333333326 474.66050563397766 458.66666666666663 497.4003207668534 458.66666666666663"/><polygon points="10.666666666666666 479.99999999999994 -20.530333015294996 479.99999999999994 32 501.3333333333333 57.15445272870302 501.3333333333333"/><polygon points="49.281768477603464 479.99999999999994 59.54300445066854 479.99999999999994 70.85701192754973 501.3333333333333 5.286066273932306 501.3333333333333"/><polygon points="100.62540813057315 479.99999999999994 126.05271939637791 479.99999999999994 108.18095852260396 501.3333333333333 150.8892137025527 501.3333333333333"/><polygon points="139.8957185511093 479.99999999999994 148.309060476816 479.99999999999994 161.17385711060842 501.3333333333333 144.35936008835725 501.3333333333333"/><polygon points="183.73471300992045 479.99999999999994 213.6892924242567 479.99999999999994 208.24518475706475 501.3333333333333 141.73575684558182 501.3333333333333"/><polygon points="224.6118326869406 479.99999999999994 246.2374977471189 479.99999999999994 239.61800508871795 501.3333333333333 222.57304585453545 501.3333333333333"/><polygon points="240.06025908757388 479.99999999999994 234.15880495117125 479.99999999999994 286.7148941224102 501.3333333333333 228.37620030828887 501.3333333333333"/><polygon points="297.61453369073604 479.99999999999994 350.1074498684767 479.99999999999994 320.9198869553741 501.3333333333333 332.81798309769323 501.3333333333333"/><polygon points="366.4511283657263 479.99999999999994 329.7437075654931 479.99999999999994 331.0142868872864 501.3333333333333 313.08895806748484 501.3333333333333"/><polygon points="352.24889844400104 479.99999999999994 450.73971587514643 479.99999999999994 378.72399692116994 501.3333333333333 367.18799124567886 501.3333333333333"/><polygon points="403.7583202534922 479.99999999999994 477.2896860903377 479.99999999999994 501.17979140655524 501.3333333333333 433.4971037674141 501.3333333333333"/><polygon points="524.6753249518404 479.99999999999994 515.8232439656281 479.99999999999994 557.4762500790993 501.3333333333333 436.4349784442178 501.3333333333333"/>
</svg>
