<?xml version="1.0" encoding="UTF-8"?>
<svg xmlns="http://www.w3.org/2000/svg" id="RSSicon" viewBox="0 0 512 512" width="512" height="512">
  <defs>
    <style type="text/css">
      svg {
        background: black;
        margin: calc(50vh - 256px) auto 0;
      }
      
      polygon {stroke: darkorange; fill: none;}
    </style>
  </defs>
  <polygon points="10.666666666666666 10.666666666666666 32 10.666666666666666 32 32 10.666666666666666 32"/><polygon points="56.86022941284353 10.666666666666666 74.66666666666667 10.666666666666666 73.98981719837624 32 53.333333333333336 32"/><polygon points="92.07447898549864 10.666666666666666 117.33333333333333 10.666666666666666 119.61516242381998 32 95.99999999999999 32"/><polygon points="128.32827930465953 10.666666666666666 160 10.666666666666666 156.5041493798386 32 138.66666666666669 32"/><polygon points="198.39227847791292 10.666666666666666 202.66666666666666 10.666666666666666 187.80840720616794 32 181.33333333333334 32"/><polygon points="206.63422200057664 10.666666666666666 245.33333333333331 10.666666666666666 268.8653666217514 32 224 32"/><polygon points="251.54688702032374 10.666666666666666 288 10.666666666666666 266.01958804985316 32 266.66666666666663 32"/><polygon points="310.653088496587 10.666666666666666 330.66666666666663 10.666666666666666 299.22139276891096 32 309.33333333333326 32"/><polygon points="338.04769462335656 10.666666666666666 373.3333333333333 10.666666666666666 380.83560101213214 32 351.99999999999994 32"/><polygon points="358.2968428489596 10.666666666666666 416 10.666666666666666 445.100361924195 32 394.66666666666663 32"/><polygon points="396.3308953463949 10.666666666666666 458.66666666666663 10.666666666666666 485.54705997636546 32 437.33333333333326 32"/><polygon points="516.0769017326076 10.666666666666666 501.3333333333333 10.666666666666666 490.0657841919614 32 479.99999999999994 32"/><polygon points="10.666666666666666 53.333333333333336 35.0755301088664 53.333333333333336 32 74.66666666666667 8.86758238494418 74.66666666666667"/><polygon points="49.232827064555785 53.333333333333336 69.37700053196737 53.333333333333336 69.37384400573715 74.66666666666667 56.3473342738321 74.66666666666667"/><polygon points="95.88901593264663 53.333333333333336 112.97346576865257 53.333333333333336 109.53627178984674 74.66666666666667 100.99393602437891 74.66666666666667"/><polygon points="147.54863583943535 53.333333333333336 163.09765876606258 53.333333333333336 165.39724483366035 74.66666666666667 137.38283793266524 74.66666666666667"/><polygon points="168.56495170803817 53.333333333333336 204.66139092816962 53.333333333333336 214.11549202500063 74.66666666666667 177.31029313858426 74.66666666666667"/><polygon points="233.71402830409164 53.333333333333336 240.2605040449459 53.333333333333336 261.1151467182458 74.66666666666667 222.24879149830284 74.66666666666667"/><polygon points="273.0108742114317 53.333333333333336 284.0105806035283 53.333333333333336 269.4865756981209 74.66666666666667 271.75979606092034 74.66666666666667"/><polygon points="313.1791689188316 53.333333333333336 329.53206008593924 53.333333333333336 361.4827168678196 74.66666666666667 313.88065767415907 74.66666666666667"/><polygon points="331.27985360908133 53.333333333333336 375.5986634625255 53.333333333333336 368.68489052771974 74.66666666666667 356.83333357337534 74.66666666666667"/><polygon points="360.5608167895244 53.333333333333336 418.83866257060953 53.333333333333336 381.28477372589504 74.66666666666667 390.8633165556221 74.66666666666667"/><polygon points="427.8178579515253 53.333333333333336 455.0014678915155 53.333333333333336 417.2415292608082 74.66666666666667 441.41307428208694 74.66666666666667"/><polygon points="512.139782522056 53.333333333333336 498.687482712356 53.333333333333336 483.5739675044572 74.66666666666667 484.9228069737782 74.66666666666667"/><polygon points="10.666666666666666 95.99999999999999 39.173579113642646 95.99999999999999 32 117.33333333333333 9.162348244824784 117.33333333333333"/><polygon points="51.88069610617079 95.99999999999999 67.0695090693511 95.99999999999999 74.6957944568371 117.33333333333333 48.85877718687303 117.33333333333333"/><polygon points="92.3533843482004 95.99999999999999 109.19289906956085 95.99999999999999 119.14744091369049 117.33333333333333 96.79755912248608 117.33333333333333"/><polygon points="147.66173480492876 95.99999999999999 161.19376564231138 95.99999999999999 153.11758039389332 117.33333333333333 143.50917177149643 117.33333333333333"/><polygon points="198.91615749245094 95.99999999999999 193.933543566029 95.99999999999999 220.6780849622718 117.33333333333333 170.79750564398563 117.33333333333333"/><polygon points="201.04344440731074 95.99999999999999 254.78895792523053 95.99999999999999 228.4700075061386 117.33333333333333 227.01123677050998 117.33333333333333"/><polygon points="236.75903182882905 95.99999999999999 278.79629959610327 95.99999999999999 292.75365785464294 117.33333333333333 258.7987691708001 117.33333333333333"/><polygon points="325.6872275192715 95.99999999999999 321.714402646649 95.99999999999999 310.78228106454435 117.33333333333333 313.79930777191885 117.33333333333333"/><polygon points="343.9311125453235 95.99999999999999 370.28010695181075 95.99999999999999 402.3417163066789 117.33333333333333 352.25937413449583 117.33333333333333"/><polygon points="370.51096498946293 95.99999999999999 425.66727010940633 95.99999999999999 459.1817830488938 117.33333333333333 395.3713037106111 117.33333333333333"/><polygon points="393.336033799885 95.99999999999999 451.06411165837534 95.99999999999999 441.7050298303415 117.33333333333333 434.38703711000886 117.33333333333333"/><polygon points="508.24503347591065 95.99999999999999 492.28602332288114 95.99999999999999 495.7629095715933 117.33333333333333 488.0005989146067 117.33333333333333"/><polygon points="10.666666666666666 138.66666666666669 45.147735996635234 138.66666666666669 32 160 16.922526755946606 160"/><polygon points="51.68753481777026 138.66666666666669 70.62335729352918 138.66666666666669 76.2465596059753 160 47.46496582903249 160"/><polygon points="94.27011966850802 138.66666666666669 116.5641349739302 138.66666666666669 121.30993209914922 160 97.81445063482707 160"/><polygon points="128.73859252046762 138.66666666666669 145.9159991929253 138.66666666666669 159.4879597998484 160 136.10694804577068 160"/><polygon points="162.50547728105587 138.66666666666669 188.18636350801762 138.66666666666669 208.4740008916458 160 191.16253169855767 160"/><polygon points="210.3931889624803 138.66666666666669 232.0839890745855 138.66666666666669 223.79615536842195 160 221.11332092378 160"/><polygon points="266.3763067335167 138.66666666666669 297.46220728080823 138.66666666666669 314.22267635165804 160 281.5877666279883 160"/><polygon points="330.41488532258785 138.66666666666669 323.9800877609912 138.66666666666669 360.9361320980036 160 304.1657688806253 160"/><polygon points="349.8249940837087 138.66666666666669 361.29228791315137 138.66666666666669 409.0827478596229 160 364.81911876946305 160"/><polygon points="408.34621687698717 138.66666666666669 430.0735919830355 138.66666666666669 432.71365008543955 160 388.2672681130912 160"/><polygon points="459.722308660997 138.66666666666669 468.38635586755026 138.66666666666669 411.3848238420694 160 424.2539477020818 160"/><polygon points="491.6561196257913 138.66666666666669 485.73154786893906 138.66666666666669 462.6176546239844 160 478.06641900726055 160"/><polygon points="10.666666666666666 181.33333333333334 22.035025769000022 181.33333333333334 32 202.66666666666666 28.410798571521752 202.66666666666666"/><polygon points="55.823452358766566 181.33333333333334 75.99848346475888 181.33333333333334 77.9028473616423 202.66666666666666 45.53935296172999 202.66666666666666"/><polygon points="87.3563702422496 181.33333333333334 109.21036796222877 181.33333333333334 127.72757550334119 202.66666666666666 76.86702853034879 202.66666666666666"/><polygon points="127.3125985567836 181.33333333333334 145.50647992027586 181.33333333333334 166.20848564002307 202.66666666666666 127.67933477338852 202.66666666666666"/><polygon points="195.08720212707019 181.33333333333334 194.68794625426054 181.33333333333334 209.82149171265118 202.66666666666666 182.39839928713064 202.66666666666666"/><polygon points="227.424143868639 181.33333333333334 227.2894949454177 181.33333333333334 266.43254851835957 202.66666666666666 219.27660412238382 202.66666666666666"/><polygon points="265.4864222905729 181.33333333333334 294.9596745407277 181.33333333333334 275.79371173194284 202.66666666666666 264.0047688268381 202.66666666666666"/><polygon points="299.9774059977891 181.33333333333334 309.6194212905446 181.33333333333334 293.4048937718813 202.66666666666666 320.4736875567433 202.66666666666666"/><polygon points="320.4316824421909 181.33333333333334 379.0170606280325 181.33333333333334 376.5353287541249 202.66666666666666 371.59227939545633 202.66666666666666"/><polygon points="398.8485899732126 181.33333333333334 402.3273128542442 181.33333333333334 443.15672188715524 202.66666666666666 381.2406351353526 202.66666666666666"/><polygon points="429.0760708644883 181.33333333333334 455.26930826426315 181.33333333333334 508.5519467968407 202.66666666666666 448.99124832629263 202.66666666666666"/><polygon points="443.2221332939773 181.33333333333334 483.44828793433936 181.33333333333334 514.8919510255322 202.66666666666666 469.0356888587213 202.66666666666666"/><polygon points="10.666666666666666 224 54.26902077606192 224 32 245.33333333333331 -0.511335038301933 245.33333333333331"/><polygon points="57.963139376300795 224 61.579959184341455 224 71.57990060327009 245.33333333333331 65.05733362124259 245.33333333333331"/><polygon points="95.84889742221965 224 111.48677982696556 224 123.21981585313401 245.33333333333331 103.3273188941435 245.33333333333331"/><polygon points="132.64278603175427 224 176.1614362763076 224 171.0740724385418 245.33333333333331 113.22189881531602 245.33333333333331"/><polygon points="189.57693775021738 224 208.98706161455473 224 185.47258393053966 245.33333333333331 176.34683057111965 245.33333333333331"/><polygon points="218.89018063407906 224 233.920422076394 224 235.9628887848643 245.33333333333331 227.0407370295331 245.33333333333331"/><polygon points="251.5445306066256 224 297.2096480026936 224 316.46247010123267 245.33333333333331 290.06746087839724 245.33333333333331"/><polygon points="340.8955071758013 224 315.4244916711152 224 353.6602763461294 245.33333333333331 293.868632022994 245.33333333333331"/><polygon points="320.6272089107901 224 368.38555962831265 224 407.6098054464957 245.33333333333331 327.5139256738024 245.33333333333331"/><polygon points="421.8612031669727 224 411.98260040746806 224 385.10894541414746 245.33333333333331 409.7777286377313 245.33333333333331"/><polygon points="483.65469309515095 224 472.5858287568726 224 486.1128041233277 245.33333333333331 461.17414819932685 245.33333333333331"/><polygon points="439.9880076592047 224 475.3648697515647 224 526.942378092379 245.33333333333331 467.71160725528296 245.33333333333331"/><polygon points="10.666666666666666 266.66666666666663 38.6148557805715 266.66666666666663 32 288 -7.95982584985703 288"/><polygon points="53.01585294119066 266.66666666666663 91.31792369056387 266.66666666666663 76.15768928726047 288 81.25216083712438 288"/><polygon points="102.35689417350174 266.66666666666663 143.795436528546 266.66666666666663 109.19960216727456 288 81.55152659218794 288"/><polygon points="153.42720407844195 266.66666666666663 178.9565619214605 266.66666666666663 149.76293534249712 288 108.60509655983213 288"/><polygon points="169.99170903041556 266.66666666666663 202.8449712352088 266.66666666666663 197.29055839810192 288 163.08386667665388 288"/><polygon points="220.92913626669537 266.66666666666663 219.83534261337547 266.66666666666663 236.51223217180058 288 255.53308634592833 288"/><polygon points="295.86482209174653 266.66666666666663 292.4093597913317 266.66666666666663 279.0249190747263 288 293.3913053480462 288"/><polygon points="296.82395142697874 266.66666666666663 329.73407820104285 266.66666666666663 361.65951876956865 288 295.7816584845068 288"/><polygon points="313.50008459731333 266.66666666666663 369.1545855010028 266.66666666666663 362.9976398462852 288 348.1092185928758 288"/><polygon points="379.9880135326068 266.66666666666663 444.60897716449574 266.66666666666663 429.2734752080184 288 419.01750200276496 288"/><polygon points="405.2698180945567 266.66666666666663 470.9020898322837 266.66666666666663 453.3629157980161 288 455.8968635983509 288"/><polygon points="517.4021651009175 266.66666666666663 485.5017778317392 266.66666666666663 484.74606994423993 288 481.1713380753355 288"/><polygon points="10.666666666666666 309.33333333333326 63.96146182585572 309.33333333333326 32 330.66666666666663 32.47959956602983 330.66666666666663"/><polygon points="52.01372985795453 309.33333333333326 100.19190142467446 309.33333333333326 73.85920352098145 330.66666666666663 71.54185886223121 330.66666666666663"/><polygon points="97.60386083725072 309.33333333333326 146.35154805229544 309.33333333333326 106.78785847411834 330.66666666666663 94.26834126661068 330.66666666666663"/><polygon points="131.36449211425293 309.33333333333326 176.0883302527336 309.33333333333326 156.82930534893313 330.66666666666663 174.6218035002319 330.66666666666663"/><polygon points="195.0126784649168 309.33333333333326 177.02266188928456 309.33333333333326 217.2405132165531 330.66666666666663 181.36779338326096 330.66666666666663"/><polygon points="209.52284603497122 309.33333333333326 259.6350139829972 309.33333333333326 256.20855045997746 330.66666666666663 190.08800938494585 330.66666666666663"/><polygon points="256.14023145754146 309.33333333333326 257.3979314219254 309.33333333333326 310.3581649178727 330.66666666666663 288.40841946306085 330.66666666666663"/><polygon points="323.9539204617945 309.33333333333326 357.56114641986665 309.33333333333326 349.07560766123055 330.66666666666663 280.94959949802205 330.66666666666663"/><polygon points="316.8872404452879 309.33333333333326 373.75285817304257 309.33333333333326 337.0030566511054 330.66666666666663 341.5160111059477 330.66666666666663"/><polygon points="395.9888048923382 309.33333333333326 428.7784362531977 309.33333333333326 399.2963239889615 330.66666666666663 370.3516003920856 330.66666666666663"/><polygon points="476.01312209125996 309.33333333333326 494.1794602272219 309.33333333333326 417.03076399323135 330.66666666666663 465.41090255079416 330.66666666666663"/><polygon points="429.52085341507365 309.33333333333326 525.692984177723 309.33333333333326 478.5431174966118 330.66666666666663 469.9764394890622 330.66666666666663"/><polygon points="10.666666666666666 351.99999999999994 73.84868046121628 351.99999999999994 32 373.3333333333333 -1.0213155417379944 373.3333333333333"/><polygon points="55.513562753550374 351.99999999999994 39.296315406614575 351.99999999999994 78.91407869133491 373.3333333333333 12.35156206756519 373.3333333333333"/><polygon points="95.72408393717889 351.99999999999994 122.1427303875851 351.99999999999994 122.15482001478524 373.3333333333333 72.81923475911113 373.3333333333333"/><polygon points="144.68761240168482 351.99999999999994 173.91814309834868 351.99999999999994 153.4748179591348 373.3333333333333 139.2695657316319 373.3333333333333"/><polygon points="199.53544030174612 351.99999999999994 229.6405816107147 351.99999999999994 205.31887463323454 373.3333333333333 180.89990368255653 373.3333333333333"/><polygon points="204.18748716174136 351.99999999999994 230.03920540391184 351.99999999999994 231.5598900540268 373.3333333333333 222.91100133563344 373.3333333333333"/><polygon points="284.9879745621622 351.99999999999994 282.37813166041906 351.99999999999994 268.87397321805594 373.3333333333333 300.503374491845 373.3333333333333"/><polygon points="299.71343768744407 351.99999999999994 291.5675729198589 351.99999999999994 358.5268277755292 373.3333333333333 302.74927493087563 373.3333333333333"/><polygon points="346.3810642313923 351.99999999999994 388.84885333233234 351.99999999999994 355.1326951665948 373.3333333333333 383.75178244448887 373.3333333333333"/><polygon points="400.54827639504845 351.99999999999994 415.04074279235493 351.99999999999994 447.0894646491165 373.3333333333333 386.5160398664798 373.3333333333333"/><polygon points="392.2157306442059 351.99999999999994 475.1212846995237 351.99999999999994 482.8946851487626 373.3333333333333 426.11868624446856 373.3333333333333"/><polygon points="450.1522605975572 351.99999999999994 521.4990932452426 351.99999999999994 487.15754982282994 373.3333333333333 473.60712376225774 373.3333333333333"/><polygon points="10.666666666666666 394.66666666666663 11.692518184335434 394.66666666666663 32 416 -29.400752199152915 416"/><polygon points="49.357259207066306 394.66666666666663 48.34757923848297 394.66666666666663 69.44178376668995 416 10.756885365347834 416"/><polygon points="105.5962880472801 394.66666666666663 105.94929570276808 394.66666666666663 113.4136420887495 416 81.92017004174372 416"/><polygon points="146.6732592598578 394.66666666666663 207.3339926713421 394.66666666666663 163.75504827133392 416 93.77941853052576 416"/><polygon points="172.132034966386 394.66666666666663 194.9922377443642 394.66666666666663 185.76492194671061 416 195.26021888929708 416"/><polygon points="228.16726321708524 394.66666666666663 204.31067181380186 394.66666666666663 239.60977501386097 416 198.2993198670906 416"/><polygon points="252.982393224067 394.66666666666663 258.6409980434493 394.66666666666663 317.89773132257767 416 242.43223415515942 416"/><polygon points="308.9216130744855 394.66666666666663 327.97505316129667 394.66666666666663 303.73931117169604 416 355.59740909519286 416"/><polygon points="370.66549241348645 394.66666666666663 333.78294521302195 394.66666666666663 381.01240831629707 416 374.4666545275975 416"/><polygon points="391.7038447222187 394.66666666666663 416.2547141626481 394.66666666666663 371.24392008466816 416 372.9907306036734 416"/><polygon points="424.50118527535324 394.66666666666663 466.5053740496235 394.66666666666663 485.2185708270263 416 442.71220118472763 416"/><polygon points="461.348577614101 394.66666666666663 480.9227677430174 394.66666666666663 488.97396428310896 416 455.1552894628119 416"/><polygon points="10.666666666666666 437.33333333333326 84.49821407571929 437.33333333333326 32 458.66666666666663 49.98396285265967 458.66666666666663"/><polygon points="55.18407735563483 437.33333333333326 63.660299839602935 437.33333333333326 71.1881333714367 458.66666666666663 93.92765882024212 458.66666666666663"/><polygon points="87.74707586466226 437.33333333333326 130.76235664026478 437.33333333333326 107.37375207052206 458.66666666666663 131.48482882156424 458.66666666666663"/><polygon points="133.16397136420912 437.33333333333326 135.12159678336567 437.33333333333326 167.459328947818 458.66666666666663 163.0513594443019 458.66666666666663"/><polygon points="169.93770737376119 437.33333333333326 191.66347622356747 437.33333333333326 192.31238238199526 458.66666666666663 133.57352906248255 458.66666666666663"/><polygon points="244.7719568648718 437.33333333333326 281.50242639107717 437.33333333333326 260.27407233906126 458.66666666666663 202.01867615581943 458.66666666666663"/><polygon points="285.9090582397507 437.33333333333326 267.9623334497071 437.33333333333326 296.4260828624829 458.66666666666663 250.5393786974858 458.66666666666663"/><polygon points="299.672047243271 437.33333333333326 372.88984536105323 437.33333333333326 312.4604824834902 458.66666666666663 351.2833461977837 458.66666666666663"/><polygon points="310.33096664084985 437.33333333333326 356.5083655619842 437.33333333333326 375.98305437679244 458.66666666666663 310.67585245487794 458.66666666666663"/><polygon points="357.517078686276 437.33333333333326 448.60520689148564 437.33333333333326 446.8232879363613 458.66666666666663 423.6320298693965 458.66666666666663"/><polygon points="464.4200129358073 437.33333333333326 458.15784298652613 437.33333333333326 427.32935405478355 458.66666666666663 409.8597368058508 458.66666666666663"/><polygon points="491.7081231052342 437.33333333333326 499.43451516413603 437.33333333333326 525.0183836679639 458.66666666666663 531.6952540875875 458.66666666666663"/><polygon points="10.666666666666666 479.99999999999994 45.30520441907653 479.99999999999994 32 501.3333333333333 23.858127182251533 501.3333333333333"/><polygon points="54.967593058634975 479.99999999999994 82.68514547802602 479.99999999999994 78.4508820544755 501.3333333333333 66.91789016450834 501.3333333333333"/><polygon points="106.42806821739617 479.99999999999994 116.88132394669375 479.99999999999994 114.00457292613827 501.3333333333333 62.7913814673708 501.3333333333333"/><polygon points="134.62423507115517 479.99999999999994 203.58843596487486 479.99999999999994 167.7535658075674 501.3333333333333 94.98426414724078 501.3333333333333"/><polygon points="188.6351816361051 479.99999999999994 149.35210613958685 479.99999999999994 198.60778411668701 501.3333333333333 238.85455227336823 501.3333333333333"/><polygon points="231.46291970291918 479.99999999999994 241.1668214798984 479.99999999999994 260.5645414354616 501.3333333333333 242.08283748985275 501.3333333333333"/><polygon points="269.5797457553682 479.99999999999994 279.8601390535144 479.99999999999994 281.2757606356065 501.3333333333333 211.4473197211198 501.3333333333333"/><polygon points="277.0152153483119 479.99999999999994 356.71085801916695 479.99999999999994 335.9452989705292 501.3333333333333 326.9112803651534 501.3333333333333"/><polygon points="321.4013868782867 479.99999999999994 388.15665877101145 479.99999999999994 367.09059742490206 501.3333333333333 344.03737644696736 501.3333333333333"/><polygon points="433.20442955611185 479.99999999999994 440.078616610239 479.99999999999994 448.86453029816744 501.3333333333333 414.0157771323431 501.3333333333333"/><polygon points="461.88112921044535 479.99999999999994 476.03947930303195 479.99999999999994 505.08486858048695 501.3333333333333 460.4229011191516 501.3333333333333"/><polygon points="518.992272889025 479.99999999999994 481.711122079935 479.99999999999994 532.2160137300269 501.3333333333333 531.5569246807147 501.3333333333333"/>
</svg>
