<?xml version="1.0" encoding="UTF-8"?>
<svg xmlns="http://www.w3.org/2000/svg" id="RSSicon" viewBox="0 0 512 512" width="512" height="512">
  <defs>
    <style type="text/css">
      svg {
        background: black;
        margin: calc(50vh - 256px) auto 0;
      }
      
      polygon {stroke: darkorange; fill: none;}
    </style>
  </defs>
  <polygon points="10.666666666666666 10.666666666666666 32 10.666666666666666 32 32 10.666666666666666 32"/><polygon points="50.37914437866051 10.666666666666666 74.66666666666667 10.666666666666666 79.07510568256743 32 53.333333333333336 32"/><polygon points="87.82948380594041 10.666666666666666 117.33333333333333 10.666666666666666 111.32093634154523 32 95.99999999999999 32"/><polygon points="150.73265618160607 10.666666666666666 160 10.666666666666666 146.50795508946499 32 138.66666666666669 32"/><polygon points="161.563341483355 10.666666666666666 202.66666666666666 10.666666666666666 186.21608446535438 32 181.33333333333334 32"/><polygon points="232.68295507666033 10.666666666666666 245.33333333333331 10.666666666666666 251.5608314761787 32 224 32"/><polygon points="251.31515506590995 10.666666666666666 288 10.666666666666666 311.131837844213 32 266.66666666666663 32"/><polygon points="305.7471223748529 10.666666666666666 330.66666666666663 10.666666666666666 367.67153658267256 32 309.33333333333326 32"/><polygon points="369.55664178711675 10.666666666666666 373.3333333333333 10.666666666666666 399.5060137658615 32 351.99999999999994 32"/><polygon points="364.7640574401569 10.666666666666666 416 10.666666666666666 442.53693097569175 32 394.66666666666663 32"/><polygon points="446.7380716723592 10.666666666666666 458.66666666666663 10.666666666666666 421.4636706752199 32 437.33333333333326 32"/><polygon points="453.2743609715982 10.666666666666666 501.3333333333333 10.666666666666666 472.1505612491184 32 479.99999999999994 32"/><polygon points="10.666666666666666 53.333333333333336 32.73239760824487 53.333333333333336 32 74.66666666666667 12.236097792511877 74.66666666666667"/><polygon points="50.130019538170046 53.333333333333336 79.97010092926735 53.333333333333336 69.84555848382067 74.66666666666667 56.743953877942616 74.66666666666667"/><polygon points="91.38993432884189 53.333333333333336 112.01278635475266 53.333333333333336 111.82241389632256 74.66666666666667 95.32055217814647 74.66666666666667"/><polygon points="138.4306163521759 53.333333333333336 165.20508438973354 53.333333333333336 161.8721731298967 74.66666666666667 140.8875309991606 74.66666666666667"/><polygon points="160.81936010996657 53.333333333333336 205.25803510145147 53.333333333333336 217.43930875314433 74.66666666666667 178.0783517730657 74.66666666666667"/><polygon points="216.94191540871967 53.333333333333336 246.77875747933243 53.333333333333336 263.97289690764467 74.66666666666667 218.98538651284244 74.66666666666667"/><polygon points="292.7305078122458 53.333333333333336 287.21774229839633 53.333333333333336 282.7053380111565 74.66666666666667 264.96969263097 74.66666666666667"/><polygon points="318.5414601258292 53.333333333333336 334.558651078491 53.333333333333336 300.9505940360842 74.66666666666667 308.5623418988926 74.66666666666667"/><polygon points="368.60591861794086 53.333333333333336 372.608789693299 53.333333333333336 370.98533472518466 74.66666666666667 352.2071515051731 74.66666666666667"/><polygon points="408.6283974501446 53.333333333333336 418.05041575909803 53.333333333333336 411.815280399449 74.66666666666667 399.02781191112143 74.66666666666667"/><polygon points="398.0069358609206 53.333333333333336 455.2489737113726 53.333333333333336 405.4263096072546 74.66666666666667 432.58456057199885 74.66666666666667"/><polygon points="493.99658683996404 53.333333333333336 496.18035581138275 53.333333333333336 517.0639070760514 74.66666666666667 481.5323664484053 74.66666666666667"/><polygon points="10.666666666666666 95.99999999999999 31.794878084507108 95.99999999999999 32 117.33333333333333 7.365859035146176 117.33333333333333"/><polygon points="51.45294754179511 95.99999999999999 70.29971123881361 95.99999999999999 78.04919206894182 117.33333333333333 50.567873044803804 117.33333333333333"/><polygon points="102.14117616107663 95.99999999999999 120.66981823652489 95.99999999999999 111.10360379493471 117.33333333333333 105.79272819267368 117.33333333333333"/><polygon points="140.6765760482138 95.99999999999999 160.10939761775725 95.99999999999999 164.35518760122036 117.33333333333333 129.29167219031797 117.33333333333333"/><polygon points="164.2514714234654 95.99999999999999 212.50441964528943 95.99999999999999 201.80070707681335 117.33333333333333 185.81272944809993 117.33333333333333"/><polygon points="239.73797850485286 95.99999999999999 247.88239511711424 95.99999999999999 241.28430414324606 117.33333333333333 232.9548596685089 117.33333333333333"/><polygon points="290.9008326021907 95.99999999999999 282.3980820115516 95.99999999999999 289.034600786781 117.33333333333333 262.4736384198155 117.33333333333333"/><polygon points="314.61668204779204 95.99999999999999 323.80774166199484 95.99999999999999 328.4172891414113 117.33333333333333 317.2059467186652 117.33333333333333"/><polygon points="343.01646156149945 95.99999999999999 363.97207821278596 95.99999999999999 331.2415728917788 117.33333333333333 349.92346295742897 117.33333333333333"/><polygon points="368.96069170626697 95.99999999999999 424.0805530206939 95.99999999999999 375.97820502104486 117.33333333333333 402.47645608610634 117.33333333333333"/><polygon points="432.98843460333313 95.99999999999999 464.696323081797 95.99999999999999 434.94451421275164 117.33333333333333 439.6448468065635 117.33333333333333"/><polygon points="424.23270491291964 95.99999999999999 493.86645185491057 95.99999999999999 489.9117125746047 117.33333333333333 485.9517377823991 117.33333333333333"/><polygon points="10.666666666666666 138.66666666666669 35.34108909778719 138.66666666666669 32 160 16.235457551015777 160"/><polygon points="56.079756074686415 138.66666666666669 83.27506763322054 138.66666666666669 72.18212095192985 160 45.193764026738876 160"/><polygon points="103.99345996636593 138.66666666666669 131.64825595744256 138.66666666666669 111.16110205147557 160 80.35128315754261 160"/><polygon points="134.3599214554132 138.66666666666669 153.69323758497447 138.66666666666669 174.80948295481068 160 150.13390366694233 160"/><polygon points="174.46499897916968 138.66666666666669 186.71477210141958 138.66666666666669 222.98659930102497 160 193.663137204958 160"/><polygon points="211.3834778810148 138.66666666666669 259.75734198169187 138.66666666666669 247.25511917523934 160 221.4875529070623 160"/><polygon points="241.68564100664943 138.66666666666669 289.1339149311875 138.66666666666669 317.04194351519544 160 270.164083740493 160"/><polygon points="304.92297763457333 138.66666666666669 325.58817826119076 138.66666666666669 358.9798311455497 160 320.33914857517857 160"/><polygon points="323.46056034278195 138.66666666666669 371.4870790339956 138.66666666666669 387.7426560568634 160 356.0296458339054 160"/><polygon points="442.3207466366464 138.66666666666669 429.3602131278576 138.66666666666669 461.3471688126862 160 404.84790966160574 160"/><polygon points="450.9300265486932 138.66666666666669 448.6640397433042 138.66666666666669 471.1611446061679 160 451.25636188471333 160"/><polygon points="433.95606929115127 138.66666666666669 503.7299565836744 138.66666666666669 457.3979031364314 160 470.047830632536 160"/><polygon points="10.666666666666666 181.33333333333334 19.860632962439542 181.33333333333334 32 202.66666666666666 -8.672255738934684 202.66666666666666"/><polygon points="56.95134891467334 181.33333333333334 84.85530789722857 181.33333333333334 75.11704905215245 202.66666666666666 60.42218838931091 202.66666666666666"/><polygon points="98.39687414451808 181.33333333333334 110.68315343698497 181.33333333333334 109.46162949687307 202.66666666666666 104.35114947024088 202.66666666666666"/><polygon points="140.89606726764174 181.33333333333334 176.08824037085594 181.33333333333334 169.69029717381738 202.66666666666666 151.28145294779415 202.66666666666666"/><polygon points="171.06134405889776 181.33333333333334 191.6378362226548 181.33333333333334 188.43816969444455 202.66666666666666 175.2183954763699 202.66666666666666"/><polygon points="198.6762309568703 181.33333333333334 256.2429586307705 181.33333333333334 245.4636734015426 202.66666666666666 214.45958469472757 202.66666666666666"/><polygon points="235.21813634036852 181.33333333333334 276.27540328745533 181.33333333333334 317.8960434190963 202.66666666666666 283.7046313292618 202.66666666666666"/><polygon points="331.93467961874086 181.33333333333334 348.30196004175014 181.33333333333334 314.25291861440104 202.66666666666666 318.34486946271846 202.66666666666666"/><polygon points="388.0851835444337 181.33333333333334 380.88676434778097 181.33333333333334 381.6226109742715 202.66666666666666 351.6733922069318 202.66666666666666"/><polygon points="422.5929609037792 181.33333333333334 399.7205488309714 181.33333333333334 429.81484480265493 202.66666666666666 409.7607847865735 202.66666666666666"/><polygon points="441.7305990062563 181.33333333333334 442.52238621806833 181.33333333333334 489.03771763558734 202.66666666666666 421.4895678993033 202.66666666666666"/><polygon points="433.1338788534235 181.33333333333334 517.4437553480077 181.33333333333334 488.7654409178664 202.66666666666666 478.6558733746207 202.66666666666666"/><polygon points="10.666666666666666 224 28.534829601238194 224 32 245.33333333333331 6.073212613122864 245.33333333333331"/><polygon points="50.43810725141694 224 58.03050097162186 224 72.40913611916281 245.33333333333331 59.593428968665734 245.33333333333331"/><polygon points="100.63433996582269 224 143.58271554205547 224 119.3980602623227 245.33333333333331 81.1167948906606 245.33333333333331"/><polygon points="146.75011935498804 224 182.03730309715618 224 158.3178468361145 245.33333333333331 158.13587871795758 245.33333333333331"/><polygon points="189.56941671021437 224 183.97638124010737 224 187.2276372016696 245.33333333333331 167.97350202986922 245.33333333333331"/><polygon points="223.37625642835113 224 243.64159907027184 224 256.12196017396 245.33333333333331 240.98073758837646 245.33333333333331"/><polygon points="251.1727005549144 224 313.746570628729 224 261.3578363362463 245.33333333333331 256.61325855230575 245.33333333333331"/><polygon points="296.04382548108975 224 309.7029153544819 224 307.20390979847275 245.33333333333331 313.36568867027245 245.33333333333331"/><polygon points="340.2636629692583 224 374.6018364410762 224 383.4002149527966 245.33333333333331 357.29657684979713 245.33333333333331"/><polygon points="384.09380908261016 224 431.2252400843611 224 460.6371837634951 245.33333333333331 420.53249968667944 245.33333333333331"/><polygon points="471.07119167640565 224 481.51324943361595 224 429.22373942392744 245.33333333333331 451.0010190555157 245.33333333333331"/><polygon points="464.21933987235013 224 498.27184121983333 224 502.5334835209665 245.33333333333331 479.47238640622555 245.33333333333331"/><polygon points="10.666666666666666 266.66666666666663 18.94017821127376 266.66666666666663 32 288 26.353452623671338 288"/><polygon points="54.614717177053066 266.66666666666663 78.52693189363549 266.66666666666663 72.24145465850206 288 52.44570450339818 288"/><polygon points="99.73834334421585 266.66666666666663 132.09596318918275 266.66666666666663 108.9927214361945 288 116.75301706488773 288"/><polygon points="126.25952849293614 266.66666666666663 185.9736492736679 266.66666666666663 146.17530855186482 288 139.0195831433426 288"/><polygon points="181.1756493446443 266.66666666666663 183.850121504205 266.66666666666663 216.06741023422384 288 195.5761263015922 288"/><polygon points="241.00013019080365 266.66666666666663 254.78750966060292 266.66666666666663 228.39946393676013 288 224.4146350266426 288"/><polygon points="286.4526669114763 266.66666666666663 261.7766597744925 266.66666666666663 302.12261253048194 288 240.68673224217503 288"/><polygon points="278.5250740275891 266.66666666666663 349.8615500891425 266.66666666666663 326.29141151492894 288 281.53888200468964 288"/><polygon points="360.7101442794336 266.66666666666663 381.37654750162847 266.66666666666663 352.18115764756925 288 324.9439083153406 288"/><polygon points="387.7554623795753 266.66666666666663 415.8429642031485 266.66666666666663 425.37414695941834 288 390.8226007396422 288"/><polygon points="388.71339051007504 266.66666666666663 478.6936111786948 266.66666666666663 503.5585811478902 288 428.18850742191466 288"/><polygon points="527.4757223134523 266.66666666666663 517.3597652782117 266.66666666666663 485.41129267808446 288 508.87508722692723 288"/><polygon points="10.666666666666666 309.33333333333326 55.37138876070901 309.33333333333326 32 330.66666666666663 26.160529422787192 330.66666666666663"/><polygon points="48.355782215780955 309.33333333333326 74.15629241301369 309.33333333333326 72.11928151009506 330.66666666666663 36.607694425302824 330.66666666666663"/><polygon points="94.75903458020977 309.33333333333326 89.78067856751153 309.33333333333326 118.78185079545877 330.66666666666663 79.00857379727748 330.66666666666663"/><polygon points="143.73235008594963 309.33333333333326 151.63846956175547 309.33333333333326 170.70617630400562 330.66666666666663 150.87053407238727 330.66666666666663"/><polygon points="178.80062332281832 309.33333333333326 206.40495725746865 309.33333333333326 217.63269476412364 330.66666666666663 180.3064487856465 330.66666666666663"/><polygon points="218.2101811986062 309.33333333333326 271.30844279523075 309.33333333333326 235.5156890288194 330.66666666666663 207.75120581938694 330.66666666666663"/><polygon points="293.6717481806359 309.33333333333326 293.1914869477742 309.33333333333326 306.0349295760871 330.66666666666663 255.03516776167086 330.66666666666663"/><polygon points="289.69300242237745 309.33333333333326 315.8447000343814 309.33333333333326 313.3831717740655 330.66666666666663 303.7835703186952 330.66666666666663"/><polygon points="384.4208802770658 309.33333333333326 360.10519676330216 309.33333333333326 395.74404458747273 330.66666666666663 321.63511743812757 330.66666666666663"/><polygon points="430.15807931443754 309.33333333333326 400.6869526690903 309.33333333333326 438.75478940621747 330.66666666666663 420.31513198679767 330.66666666666663"/><polygon points="418.177726439781 309.33333333333326 467.7777528540979 309.33333333333326 429.1845114555609 330.66666666666663 453.8302841154695 330.66666666666663"/><polygon points="507.8950098172272 309.33333333333326 500.8286175261319 309.33333333333326 493.31605733909913 330.66666666666663 474.8835633141892 330.66666666666663"/><polygon points="10.666666666666666 351.99999999999994 54.84280127875685 351.99999999999994 32 373.3333333333333 -10.690042848003596 373.3333333333333"/><polygon points="53.700355155164985 351.99999999999994 32.01133947200136 351.99999999999994 71.577368750602 373.3333333333333 70.7775625199805 373.3333333333333"/><polygon points="97.19114415077891 351.99999999999994 116.85577665009104 351.99999999999994 110.15488726886865 373.3333333333333 90.96064407300894 373.3333333333333"/><polygon points="149.0807118446662 351.99999999999994 137.653906478286 351.99999999999994 147.04605877541465 373.3333333333333 147.32671854188936 373.3333333333333"/><polygon points="192.67972171923213 351.99999999999994 209.2508525125737 351.99999999999994 209.91780097617664 373.3333333333333 215.8101895326182 373.3333333333333"/><polygon points="233.2587542379662 351.99999999999994 259.62482586517206 351.99999999999994 251.15116237452375 373.3333333333333 246.59223377547602 373.3333333333333"/><polygon points="283.51727849336896 351.99999999999994 295.20312075723166 351.99999999999994 266.2684211751401 373.3333333333333 289.33546418089253 373.3333333333333"/><polygon points="281.6709218540819 351.99999999999994 338.71743254105644 351.99999999999994 301.7998053418324 373.3333333333333 283.04443057432803 373.3333333333333"/><polygon points="343.9200917917069 351.99999999999994 354.8839631984734 351.99999999999994 338.96900210590036 373.3333333333333 379.65683502805314 373.3333333333333"/><polygon points="357.08444293053435 351.99999999999994 413.15496565041303 351.99999999999994 454.9869932854418 373.3333333333333 391.51309100947407 373.3333333333333"/><polygon points="431.51814666087546 351.99999999999994 447.33782301383025 351.99999999999994 502.0286004890835 373.3333333333333 416.5830176543253 373.3333333333333"/><polygon points="477.8286399036837 351.99999999999994 481.04623897364706 351.99999999999994 547.7831694214065 373.3333333333333 456.7559062737664 373.3333333333333"/><polygon points="10.666666666666666 394.66666666666663 53.00478163035673 394.66666666666663 32 416 40.797674890419096 416"/><polygon points="51.30163528821789 394.66666666666663 107.85295677163313 394.66666666666663 71.97158857149111 416 12.837063533909365 416"/><polygon points="106.56477143780717 394.66666666666663 132.5503162782266 394.66666666666663 126.09654143177576 416 138.80273364210672 416"/><polygon points="146.47404869157262 394.66666666666663 125.90336316538846 394.66666666666663 147.3227901167718 416 106.007152333219 416"/><polygon points="186.34886335497185 394.66666666666663 205.43530368087005 394.66666666666663 193.73303057623676 416 145.60309264926553 416"/><polygon points="208.92932405432938 394.66666666666663 283.8805357651471 394.66666666666663 221.0813900292757 416 184.8792073848019 416"/><polygon points="240.12288127600084 394.66666666666663 257.1995451288271 394.66666666666663 285.59050517314915 416 307.4744980430799 416"/><polygon points="276.6624691181271 394.66666666666663 284.3099227041298 394.66666666666663 326.6573494819535 416 334.9394623722008 416"/><polygon points="377.70301838416367 394.66666666666663 354.3605656914092 394.66666666666663 337.9898011876778 416 339.87370332530696 416"/><polygon points="429.8752437171442 394.66666666666663 457.00807686445376 394.66666666666663 436.9158684239505 416 374.723700934361 416"/><polygon points="432.3617333061849 394.66666666666663 428.0711855389703 394.66666666666663 470.90828733155666 416 472.84026954010886 416"/><polygon points="465.6948032313231 394.66666666666663 456.69645108335374 394.66666666666663 552.9560260034223 416 446.4033722092913 416"/><polygon points="10.666666666666666 437.33333333333326 84.16418152879692 437.33333333333326 32 458.66666666666663 -34.65360687928458 458.66666666666663"/><polygon points="55.64196282872326 437.33333333333326 105.81349731372721 437.33333333333326 71.37714093601952 458.66666666666663 3.5750064924633165 458.66666666666663"/><polygon points="106.50013788939577 437.33333333333326 169.64854994922277 437.33333333333326 127.7941004630386 458.66666666666663 57.80278958648492 458.66666666666663"/><polygon points="144.86397269984002 437.33333333333326 204.13434963282378 437.33333333333326 167.0749096739437 458.66666666666663 110.17758455041299 458.66666666666663"/><polygon points="190.79255557120172 437.33333333333326 192.1115124720248 437.33333333333326 222.26522231127055 458.66666666666663 173.24436949051525 458.66666666666663"/><polygon points="238.4458557084847 437.33333333333326 238.42224344904346 437.33333333333326 250.2654174771946 458.66666666666663 230.2401385226657 458.66666666666663"/><polygon points="250.72871386758374 437.33333333333326 287.3115322103885 437.33333333333326 275.7593920895958 458.66666666666663 293.4868318213683 458.66666666666663"/><polygon points="337.9919917007271 437.33333333333326 344.6951969721088 437.33333333333326 349.23456840835337 458.66666666666663 347.5133638004178 458.66666666666663"/><polygon points="339.5315323445793 437.33333333333326 323.5270504806231 437.33333333333326 382.0577516252727 458.66666666666663 311.42995135882586 458.66666666666663"/><polygon points="383.5800550880445 437.33333333333326 448.2906963870749 437.33333333333326 413.53660387570426 458.66666666666663 390.0001952283236 458.66666666666663"/><polygon points="387.628705089655 437.33333333333326 479.69228369299515 437.33333333333326 412.9924105487361 458.66666666666663 437.82810121871705 458.66666666666663"/><polygon points="428.25860886007564 437.33333333333326 502.60828211099977 437.33333333333326 461.444518933167 458.66666666666663 448.6220121022934 458.66666666666663"/><polygon points="10.666666666666666 479.99999999999994 -20.297151719458913 479.99999999999994 32 501.3333333333333 -43.838562569879784 501.3333333333333"/><polygon points="51.79793502984478 479.99999999999994 85.92436435881483 479.99999999999994 70.33515058142858 501.3333333333333 45.61284675208413 501.3333333333333"/><polygon points="92.9526337359247 479.99999999999994 110.12511943045854 479.99999999999994 111.86085234584415 501.3333333333333 97.75894653579337 501.3333333333333"/><polygon points="139.70453436459223 479.99999999999994 145.10475872551206 479.99999999999994 157.0423326550809 501.3333333333333 154.88835702174603 501.3333333333333"/><polygon points="187.98343187906934 479.99999999999994 259.14661278790754 479.99999999999994 210.288879684485 501.3333333333333 210.98980770655848 501.3333333333333"/><polygon points="241.12796690007175 479.99999999999994 260.21065736122034 479.99999999999994 242.66373185753 501.3333333333333 243.9595085044718 501.3333333333333"/><polygon points="281.0456615739366 479.99999999999994 237.25057747150709 479.99999999999994 311.1946910613598 501.3333333333333 267.4767548590015 501.3333333333333"/><polygon points="341.6073723957599 479.99999999999994 348.7808871364214 479.99999999999994 342.04495174247756 501.3333333333333 358.74406574245376 501.3333333333333"/><polygon points="371.1130985576865 479.99999999999994 325.15542340909303 479.99999999999994 380.17061125370594 501.3333333333333 407.9667195343701 501.3333333333333"/><polygon points="408.4416362681372 479.99999999999994 446.09894667817673 479.99999999999994 405.1549145870036 501.3333333333333 338.1789387436643 501.3333333333333"/><polygon points="411.0829880651042 479.99999999999994 512.094036855007 479.99999999999994 502.84252895869963 501.3333333333333 384.2721255394742 501.3333333333333"/><polygon points="473.20224317969377 479.99999999999994 554.0529061705844 479.99999999999994 452.1506812139941 501.3333333333333 430.11238544280087 501.3333333333333"/>
</svg>
