<?xml version="1.0" encoding="UTF-8"?>
<svg xmlns="http://www.w3.org/2000/svg" id="RSSicon" viewBox="0 0 512 512" width="512" height="512">
  <defs>
    <style type="text/css">
      svg {
        background: black;
        margin: calc(50vh - 256px) auto 0;
      }
      
      polygon {stroke: darkorange; fill: none;}
    </style>
  </defs>
  <polygon points="10.666666666666666 10.666666666666666 32 10.666666666666666 32 32 10.666666666666666 32"/><polygon points="49.603673515493 10.666666666666666 74.66666666666667 10.666666666666666 75.15270670476755 32 53.333333333333336 32"/><polygon points="85.52464788637297 10.666666666666666 117.33333333333333 10.666666666666666 127.29746031977156 32 95.99999999999999 32"/><polygon points="125.84080020465993 10.666666666666666 160 10.666666666666666 174.53347023989025 32 138.66666666666669 32"/><polygon points="202.46346266046115 10.666666666666666 202.66666666666666 10.666666666666666 210.99076763509024 32 181.33333333333334 32"/><polygon points="207.9287719198745 10.666666666666666 245.33333333333331 10.666666666666666 245.0403550157818 32 224 32"/><polygon points="279.6593117770962 10.666666666666666 288 10.666666666666666 298.65963856543516 32 266.66666666666663 32"/><polygon points="312.70006738746997 10.666666666666666 330.66666666666663 10.666666666666666 297.49679596935255 32 309.33333333333326 32"/><polygon points="361.41293062544133 10.666666666666666 373.3333333333333 10.666666666666666 386.2660462486324 32 351.99999999999994 32"/><polygon points="366.04538584352247 10.666666666666666 416 10.666666666666666 399.37977767959524 32 394.66666666666663 32"/><polygon points="413.923687169968 10.666666666666666 458.66666666666663 10.666666666666666 417.9130642854087 32 437.33333333333326 32"/><polygon points="449.67574339291116 10.666666666666666 501.3333333333333 10.666666666666666 450.6188930964229 32 479.99999999999994 32"/><polygon points="10.666666666666666 53.333333333333336 36.737844358660666 53.333333333333336 32 74.66666666666667 12.777720400402304 74.66666666666667"/><polygon points="53.436417547641774 53.333333333333336 71.23229359214803 53.333333333333336 74.28339150968175 74.66666666666667 54.95795693814309 74.66666666666667"/><polygon points="97.20484322038479 53.333333333333336 119.50169323141469 53.333333333333336 114.8406815306991 74.66666666666667 96.27407116954393 74.66666666666667"/><polygon points="123.7709913008054 53.333333333333336 163.19894696524466 53.333333333333336 155.7054420453861 74.66666666666667 140.1035654699842 74.66666666666667"/><polygon points="198.85946101068066 53.333333333333336 206.29739711913857 53.333333333333336 181.4902076923361 74.66666666666667 176.23215716211817 74.66666666666667"/><polygon points="241.38178357361485 53.333333333333336 249.79901153752695 53.333333333333336 234.0368802169996 74.66666666666667 219.79052444336665 74.66666666666667"/><polygon points="264.910691546006 53.333333333333336 291.4477840301506 53.333333333333336 261.07267194840153 74.66666666666667 267.936527692075 74.66666666666667"/><polygon points="315.9582636769571 53.333333333333336 334.41051205540424 53.333333333333336 365.4109089615415 74.66666666666667 304.18270768052884 74.66666666666667"/><polygon points="339.88671204107106 53.333333333333336 377.1986980590071 53.333333333333336 378.29298871553067 74.66666666666667 356.7896622063569 74.66666666666667"/><polygon points="405.13925913975714 53.333333333333336 413.0311168910702 53.333333333333336 435.31436463485136 74.66666666666667 392.19759471963175 74.66666666666667"/><polygon points="443.31947740985146 53.333333333333336 462.58525350147215 53.333333333333336 466.1143321227228 74.66666666666667 441.0603441727764 74.66666666666667"/><polygon points="531.3735365070686 53.333333333333336 504.06472766851573 53.333333333333336 545.7480710330977 74.66666666666667 481.0646117175711 74.66666666666667"/><polygon points="10.666666666666666 95.99999999999999 38.9031975440626 95.99999999999999 32 117.33333333333333 15.439244006076805 117.33333333333333"/><polygon points="52.511255284352934 95.99999999999999 70.21314652321827 95.99999999999999 72.01159362718609 117.33333333333333 51.78594056422294 117.33333333333333"/><polygon points="92.61913686723835 95.99999999999999 114.8165953537725 95.99999999999999 118.26937677856591 117.33333333333333 98.09638837847122 117.33333333333333"/><polygon points="142.38931695875823 95.99999999999999 151.7104214868181 95.99999999999999 146.29144067937358 117.33333333333333 133.0817672626393 117.33333333333333"/><polygon points="168.36514733985075 95.99999999999999 195.63658179251536 95.99999999999999 193.2171255971977 117.33333333333333 184.33090924311287 117.33333333333333"/><polygon points="208.7614490380635 95.99999999999999 254.00485608156117 95.99999999999999 221.92927030997848 117.33333333333333 217.35382294257076 117.33333333333333"/><polygon points="289.395579810184 95.99999999999999 292.82317943576624 95.99999999999999 317.8761028415528 117.33333333333333 274.86949114437743 117.33333333333333"/><polygon points="298.4472959297713 95.99999999999999 340.90148737107813 95.99999999999999 335.66986802471354 117.33333333333333 300.3387336721104 117.33333333333333"/><polygon points="338.99015435332296 95.99999999999999 380.90399319126806 95.99999999999999 358.15394273037117 117.33333333333333 355.0142623237624 117.33333333333333"/><polygon points="356.99307205044715 95.99999999999999 425.8602963481154 95.99999999999999 406.64099263470496 117.33333333333333 403.58510965469793 117.33333333333333"/><polygon points="393.4506504817664 95.99999999999999 459.7002218743006 95.99999999999999 486.8879197514422 117.33333333333333 442.0503590035034 117.33333333333333"/><polygon points="464.82744137717447 95.99999999999999 499.76759731061856 95.99999999999999 446.95135559668665 117.33333333333333 482.86965884767335 117.33333333333333"/><polygon points="10.666666666666666 138.66666666666669 25.96168276531347 138.66666666666669 32 160 25.191496403134607 160"/><polygon points="55.452223410137094 138.66666666666669 68.95037363982964 138.66666666666669 72.12548365386625 160 39.96901836475798 160"/><polygon points="87.68082354232516 138.66666666666669 107.47770520198105 138.66666666666669 122.16245884697933 160 82.59008259212894 160"/><polygon points="146.39629593571075 138.66666666666669 160.66842717250213 138.66666666666669 160.56888300158457 160 152.13840324796422 160"/><polygon points="201.07844747702083 138.66666666666669 204.48262497620533 138.66666666666669 198.1021163386026 160 182.8752469366747 160"/><polygon points="244.10621368152314 138.66666666666669 234.777197311618 138.66666666666669 219.84492615219526 160 209.80975389950066 160"/><polygon points="265.96025748224395 138.66666666666669 282.32561924751747 138.66666666666669 287.3848394681671 160 280.59725730189115 160"/><polygon points="341.28887114834635 138.66666666666669 340.66002070479425 138.66666666666669 326.806682323014 160 317.978160104948 160"/><polygon points="375.3046117615457 138.66666666666669 370.85108855707506 138.66666666666669 335.2640620856094 160 342.1596119501778 160"/><polygon points="405.0366428666932 138.66666666666669 414.4022287404097 138.66666666666669 429.01567127642977 160 398.9397091618997 160"/><polygon points="411.57782922635414 138.66666666666669 464.91789240650485 138.66666666666669 507.77522914307434 160 441.7685398453332 160"/><polygon points="491.7690761612721 138.66666666666669 513.7669265115738 138.66666666666669 492.4168129488506 160 474.5357622460692 160"/><polygon points="10.666666666666666 181.33333333333334 32.079795332745846 181.33333333333334 32 202.66666666666666 6.804996177311873 202.66666666666666"/><polygon points="52.60725482885975 181.33333333333334 82.04603914421399 181.33333333333334 72.60503826381483 202.66666666666666 35.50389082779451 202.66666666666666"/><polygon points="100.15141063611081 181.33333333333334 138.51348041993242 181.33333333333334 110.95140713765805 202.66666666666666 100.92469950410218 202.66666666666666"/><polygon points="147.5397348785697 181.33333333333334 144.27787007599025 181.33333333333334 161.60230094897028 202.66666666666666 136.2487378919095 202.66666666666666"/><polygon points="179.1487347424671 181.33333333333334 190.30042629122875 181.33333333333334 187.94286917635938 202.66666666666666 178.8870106382288 202.66666666666666"/><polygon points="233.55429724977446 181.33333333333334 256.665751763995 181.33333333333334 258.1866962024257 202.66666666666666 214.41922618569004 202.66666666666666"/><polygon points="236.10534162498104 181.33333333333334 299.5432715019017 181.33333333333334 283.4380517821063 202.66666666666666 259.2316842850165 202.66666666666666"/><polygon points="279.9345372163232 181.33333333333334 329.2658856672442 181.33333333333334 293.8272972314703 202.66666666666666 320.4381902324085 202.66666666666666"/><polygon points="344.1787854989036 181.33333333333334 390.082714365725 181.33333333333334 347.25415304469357 202.66666666666666 347.3411900537926 202.66666666666666"/><polygon points="399.0323374183501 181.33333333333334 434.64479065859535 181.33333333333334 392.09403448278266 202.66666666666666 415.3820156222812 202.66666666666666"/><polygon points="433.4085974187187 181.33333333333334 445.28183820709836 181.33333333333334 414.04497904584724 202.66666666666666 416.6658692489011 202.66666666666666"/><polygon points="493.53156794944204 181.33333333333334 494.8255807272605 181.33333333333334 474.38829738436124 202.66666666666666 472.72693525979986 202.66666666666666"/><polygon points="10.666666666666666 224 57.70405146319432 224 32 245.33333333333331 34.997657490677035 245.33333333333331"/><polygon points="51.34575605561005 224 98.94897151109245 224 70.07009288954329 245.33333333333331 60.01018060180217 245.33333333333331"/><polygon points="91.06496694289804 224 130.9805726729944 224 116.13715629295108 245.33333333333331 112.28045840972366 245.33333333333331"/><polygon points="137.4892535445937 224 144.39000163576202 224 164.87563746376887 245.33333333333331 125.48359313287033 245.33333333333331"/><polygon points="178.34020722506605 224 183.14254411509506 224 215.5905430756951 245.33333333333331 169.59237961974227 245.33333333333331"/><polygon points="209.30559730171717 224 245.58404795087432 224 240.291486910008 245.33333333333331 210.7294797974423 245.33333333333331"/><polygon points="277.583227430701 224 291.90041652746754 224 280.75358313117516 245.33333333333331 247.94718324191945 245.33333333333331"/><polygon points="287.5368180936024 224 347.0913026560068 224 302.59419601040986 245.33333333333331 285.2893719052626 245.33333333333331"/><polygon points="389.8082388946108 224 378.0216243734062 224 366.17117256182536 245.33333333333331 345.71080790453715 245.33333333333331"/><polygon points="379.6843669549709 224 419.9519225367265 224 403.2162446180197 245.33333333333331 387.6815526834921 245.33333333333331"/><polygon points="400.80836777994324 224 483.3674132215247 224 430.7075057558375 245.33333333333331 417.5323328401871 245.33333333333331"/><polygon points="507.7613145235245 224 521.5573036834875 224 516.6423494129767 245.33333333333331 453.6085399279009 245.33333333333331"/><polygon points="10.666666666666666 266.66666666666663 46.59725852886595 266.66666666666663 32 288 -19.809391300272924 288"/><polygon points="51.65864334012933 266.66666666666663 95.11144892577576 266.66666666666663 76.2573927236452 288 78.73291197765181 288"/><polygon points="95.80429778423373 266.66666666666663 132.78746654387825 266.66666666666663 110.8814317098161 288 105.13983284842 288"/><polygon points="144.29749464357192 266.66666666666663 136.5714734734408 266.66666666666663 160.6802404790782 288 108.79732528548573 288"/><polygon points="161.70249160597768 266.66666666666663 201.59465641829755 266.66666666666663 221.0202452417689 288 158.0750990520666 288"/><polygon points="215.2381897096517 266.66666666666663 236.26432679339402 266.66666666666663 261.94894182842467 288 245.09709358531958 288"/><polygon points="241.17364751359682 266.66666666666663 292.00694556198994 266.66666666666663 269.16620942672256 288 294.5553661441017 288"/><polygon points="296.48802345134504 266.66666666666663 362.17959284170433 266.66666666666663 364.85529654384163 288 297.5471117061913 288"/><polygon points="372.3718251808586 266.66666666666663 368.76336035620767 266.66666666666663 404.90307561303376 288 361.46672126096536 288"/><polygon points="358.1302889695391 266.66666666666663 431.79971326870714 266.66666666666663 414.88997045185545 288 375.61492369429106 288"/><polygon points="410.6940936039259 266.66666666666663 448.8876152205015 266.66666666666663 497.3535109673306 288 416.12306480834826 288"/><polygon points="480.97718294485605 266.66666666666663 505.1667695351576 266.66666666666663 496.532855737121 288 481.02132030651353 288"/><polygon points="10.666666666666666 309.33333333333326 69.28132329856254 309.33333333333326 32 330.66666666666663 40.110304915635915 330.66666666666663"/><polygon points="57.322360774380655 309.33333333333326 63.70920518997913 309.33333333333326 72.88654350946807 330.66666666666663 55.27344482586253 330.66666666666663"/><polygon points="101.34736359324134 309.33333333333326 84.97011234715744 309.33333333333326 108.02835399446933 330.66666666666663 70.67485568544143 330.66666666666663"/><polygon points="133.5169343199105 309.33333333333326 177.56384449744627 309.33333333333326 161.96049348484365 330.66666666666663 154.18461441231787 330.66666666666663"/><polygon points="163.3937673810902 309.33333333333326 168.80329852237205 309.33333333333326 192.8170758214135 330.66666666666663 147.54295836921676 330.66666666666663"/><polygon points="206.72905096764688 309.33333333333326 267.8743559081306 309.33333333333326 243.24707168147026 330.66666666666663 229.40435301967997 330.66666666666663"/><polygon points="270.11157162776334 309.33333333333326 258.01780977445145 309.33333333333326 265.2460122098572 330.66666666666663 260.35001423536335 330.66666666666663"/><polygon points="318.3440708220703 309.33333333333326 304.10331560479915 309.33333333333326 359.29662906676936 330.66666666666663 334.9352906102454 330.66666666666663"/><polygon points="365.20596748814404 309.33333333333326 345.28609091504575 309.33333333333326 371.6759159044015 330.66666666666663 349.78060885750557 330.66666666666663"/><polygon points="404.04139649614945 309.33333333333326 382.87008226234957 309.33333333333326 408.0875779789128 330.66666666666663 391.1111165819226 330.66666666666663"/><polygon points="442.6615933042111 309.33333333333326 425.43579431179 309.33333333333326 429.9538937541435 330.66666666666663 411.8852828955444 330.66666666666663"/><polygon points="521.8812184300367 309.33333333333326 503.01473773909805 309.33333333333326 501.5690618584458 330.66666666666663 454.91495033700437 330.66666666666663"/><polygon points="10.666666666666666 351.99999999999994 -7.54838113979444 351.99999999999994 32 373.3333333333333 2.9594542050283508 373.3333333333333"/><polygon points="52.964739075140685 351.99999999999994 53.700605983162234 351.99999999999994 78.20896035807367 373.3333333333333 49.80660889343896 373.3333333333333"/><polygon points="99.91070033589858 351.99999999999994 93.54253018493556 351.99999999999994 108.2026150610242 373.3333333333333 114.2617452951523 373.3333333333333"/><polygon points="145.1484587665598 351.99999999999994 159.91713948360515 351.99999999999994 150.21268466619114 373.3333333333333 126.60273320430252 373.3333333333333"/><polygon points="200.45815227906374 351.99999999999994 171.7745924846442 351.99999999999994 208.85811128628248 373.3333333333333 190.07780060411653 373.3333333333333"/><polygon points="238.96900576435817 351.99999999999994 252.34229313906528 351.99999999999994 244.68202349534226 373.3333333333333 258.83190924547597 373.3333333333333"/><polygon points="268.91719221176277 351.99999999999994 279.0461427515265 351.99999999999994 269.6008846083721 373.3333333333333 246.97929985139112 373.3333333333333"/><polygon points="298.891570694814 351.99999999999994 371.3510527136677 351.99999999999994 309.6457710426559 373.3333333333333 267.5628846213406 373.3333333333333"/><polygon points="392.05806678764543 351.99999999999994 393.524498226508 351.99999999999994 406.0683120671675 373.3333333333333 378.25756392430435 373.3333333333333"/><polygon points="426.0740725560673 351.99999999999994 396.61379340577156 351.99999999999994 382.71924561219055 373.3333333333333 394.7059823090207 373.3333333333333"/><polygon points="391.72902539252334 351.99999999999994 421.45360830652317 351.99999999999994 466.2304539199965 373.3333333333333 459.3246181610934 373.3333333333333"/><polygon points="467.33691611611005 351.99999999999994 514.2406312275015 351.99999999999994 466.4362750174375 373.3333333333333 481.9217230738228 373.3333333333333"/><polygon points="10.666666666666666 394.66666666666663 26.932915752571105 394.66666666666663 32 416 -22.261233312524222 416"/><polygon points="52.19863873438826 394.66666666666663 64.14394080230434 394.66666666666663 77.5218152816251 416 51.8401523780098 416"/><polygon points="104.72621075108947 394.66666666666663 95.22454754266676 394.66666666666663 118.43068986850244 416 98.25439242908207 416"/><polygon points="124.85680222497976 394.66666666666663 191.3245880034927 394.66666666666663 166.36484740825506 416 99.12833050663868 416"/><polygon points="168.5249807166229 394.66666666666663 243.28614056680144 394.66666666666663 190.94318185502348 416 188.5632215972089 416"/><polygon points="200.2549232217109 394.66666666666663 233.21790549392395 394.66666666666663 233.53860671234276 416 247.35750180209246 416"/><polygon points="249.32036261617927 394.66666666666663 306.16869971099254 394.66666666666663 281.2016072832045 416 274.0865955506361 416"/><polygon points="293.3387906388884 394.66666666666663 356.9514580006727 394.66666666666663 366.3066683440758 416 267.380084425324 416"/><polygon points="393.27713958507087 394.66666666666663 343.79115256950047 394.66666666666663 382.804877339803 416 384.80447170845486 416"/><polygon points="433.6384835796194 394.66666666666663 372.04886506585376 394.66666666666663 446.79213431918953 416 359.70532072961754 416"/><polygon points="406.6346235203287 394.66666666666663 469.6596041917953 394.66666666666663 434.5904092585406 416 407.0456283453508 416"/><polygon points="480.7074470628283 394.66666666666663 495.77847272451 394.66666666666663 537.8657751591819 416 445.29277744473467 416"/><polygon points="10.666666666666666 437.33333333333326 51.100854095022484 437.33333333333326 32 458.66666666666663 1.3693565997508408 458.66666666666663"/><polygon points="53.41413765730887 437.33333333333326 33.53208614880265 437.33333333333326 78.72204018689615 458.66666666666663 53.870601522254944 458.66666666666663"/><polygon points="96.88176239985626 437.33333333333326 141.72515224070824 437.33333333333326 109.62864665602571 458.66666666666663 94.28863635147775 458.66666666666663"/><polygon points="126.55759959454787 437.33333333333326 153.25906172826836 437.33333333333326 157.85705902928174 458.66666666666663 91.92894564392022 458.66666666666663"/><polygon points="167.38445382799426 437.33333333333326 179.7136385565375 437.33333333333326 201.57186321844293 458.66666666666663 222.2709074308811 458.66666666666663"/><polygon points="224.7985490316932 437.33333333333326 238.73867631572995 437.33333333333326 271.9575802634694 458.66666666666663 188.04742749118915 458.66666666666663"/><polygon points="268.5710068775626 437.33333333333326 332.66878598485704 437.33333333333326 275.1388596377427 458.66666666666663 230.67014252665012 458.66666666666663"/><polygon points="344.3801469173849 437.33333333333326 376.8236674991043 437.33333333333326 319.69007098243105 458.66666666666663 274.5844115418956 458.66666666666663"/><polygon points="354.3260300858256 437.33333333333326 385.81273672853234 437.33333333333326 385.0387805271077 458.66666666666663 392.5968586355887 458.66666666666663"/><polygon points="387.5309872482848 437.33333333333326 445.26798878393305 437.33333333333326 427.8698210694142 458.66666666666663 409.8195341909011 458.66666666666663"/><polygon points="393.84265424815936 437.33333333333326 441.73139308860345 437.33333333333326 420.0211462814297 458.66666666666663 474.21827283565744 458.66666666666663"/><polygon points="500.823473963839 437.33333333333326 511.84572251742696 437.33333333333326 508.8353016553286 458.66666666666663 481.83140501414897 458.66666666666663"/><polygon points="10.666666666666666 479.99999999999994 35.910464056540306 479.99999999999994 32 501.3333333333333 -11.598580416900315 501.3333333333333"/><polygon points="57.770756901196386 479.99999999999994 52.023309226057044 479.99999999999994 70.66227502123539 501.3333333333333 69.96348385655428 501.3333333333333"/><polygon points="106.64417199202789 479.99999999999994 87.54516898823371 479.99999999999994 123.39348848646142 501.3333333333333 48.29735646422111 501.3333333333333"/><polygon points="134.68593566436175 479.99999999999994 186.097792186317 479.99999999999994 173.66758266832832 501.3333333333333 100.77577488859342 501.3333333333333"/><polygon points="178.3987849870403 479.99999999999994 253.1652799460357 479.99999999999994 192.34489563412583 501.3333333333333 186.99720941216884 501.3333333333333"/><polygon points="249.5201898960121 479.99999999999994 275.0197001879237 479.99999999999994 242.54609119528888 501.3333333333333 234.8872790221367 501.3333333333333"/><polygon points="264.756696472304 479.99999999999994 292.95187422862955 479.99999999999994 260.202729154557 501.3333333333333 323.7168635094799 501.3333333333333"/><polygon points="273.3983505793257 479.99999999999994 358.9473393324009 479.99999999999994 365.14617135635115 501.3333333333333 313.82928511140386 501.3333333333333"/><polygon points="313.4012201707095 479.99999999999994 324.759057819496 479.99999999999994 382.8589017138218 501.3333333333333 345.1882360021693 501.3333333333333"/><polygon points="395.2662750211087 479.99999999999994 425.13111657256945 479.99999999999994 419.01934505390193 501.3333333333333 403.24233869041734 501.3333333333333"/><polygon points="442.6251629369161 479.99999999999994 500.74816195283876 479.99999999999994 436.6246987654679 501.3333333333333 470.18093293490386 501.3333333333333"/><polygon points="481.9942698375967 479.99999999999994 557.1309649218058 479.99999999999994 533.7842126946662 501.3333333333333 457.30741482775073 501.3333333333333"/>
</svg>
