<?xml version="1.0" encoding="UTF-8"?>
<svg xmlns="http://www.w3.org/2000/svg" id="RSSicon" viewBox="0 0 512 512" width="512" height="512">
  <defs>
    <style type="text/css">
      svg {
        background: black;
        margin: calc(50vh - 256px) auto 0;
      }
      
      polygon {stroke: darkorange; fill: none;}
    </style>
  </defs>
  <polygon points="10.666666666666666 10.666666666666666 32 10.666666666666666 32 32 10.666666666666666 32"/><polygon points="48.12850608841578 10.666666666666666 74.66666666666667 10.666666666666666 78.68869852794735 32 53.333333333333336 32"/><polygon points="88.56364466124455 10.666666666666666 117.33333333333333 10.666666666666666 107.9307644392617 32 95.99999999999999 32"/><polygon points="148.52589354878123 10.666666666666666 160 10.666666666666666 152.13991132761828 32 138.66666666666669 32"/><polygon points="188.16801284994378 10.666666666666666 202.66666666666666 10.666666666666666 182.29063496124843 32 181.33333333333334 32"/><polygon points="215.9806133485044 10.666666666666666 245.33333333333331 10.666666666666666 267.6348353904141 32 224 32"/><polygon points="298.3496870718855 10.666666666666666 288 10.666666666666666 307.5616215143273 32 266.66666666666663 32"/><polygon points="308.57736605115554 10.666666666666666 330.66666666666663 10.666666666666666 297.6340695015877 32 309.33333333333326 32"/><polygon points="367.04072848553074 10.666666666666666 373.3333333333333 10.666666666666666 376.5956200088569 32 351.99999999999994 32"/><polygon points="357.50785853645164 10.666666666666666 416 10.666666666666666 383.33946014642356 32 394.66666666666663 32"/><polygon points="458.62199887257714 10.666666666666666 458.66666666666663 10.666666666666666 457.3171803482031 32 437.33333333333326 32"/><polygon points="509.308990415771 10.666666666666666 501.3333333333333 10.666666666666666 531.5881428802721 32 479.99999999999994 32"/><polygon points="10.666666666666666 53.333333333333336 30.786276433550867 53.333333333333336 32 74.66666666666667 5.407173841141203 74.66666666666667"/><polygon points="51.63722898383589 53.333333333333336 77.2460453282322 53.333333333333336 78.96400572083544 74.66666666666667 56.877372184376966 74.66666666666667"/><polygon points="103.22312191620551 53.333333333333336 121.9018935264472 53.333333333333336 126.96820230029368 74.66666666666667 94.195031269638 74.66666666666667"/><polygon points="147.52112687779734 53.333333333333336 163.87848067001335 53.333333333333336 147.9785918581273 74.66666666666667 142.23172644429954 74.66666666666667"/><polygon points="160.72800290540383 53.333333333333336 199.55532568945512 53.333333333333336 216.96374057187103 74.66666666666667 185.34656143581526 74.66666666666667"/><polygon points="248.35354388039457 53.333333333333336 249.04973322908592 53.333333333333336 250.80933941374133 74.66666666666667 223.0079258843706 74.66666666666667"/><polygon points="266.41847061689555 53.333333333333336 287.9950210691126 53.333333333333336 301.52028110762546 74.66666666666667 262.931391317082 74.66666666666667"/><polygon points="276.27541053150577 53.333333333333336 330.23329463313297 53.333333333333336 356.4861126243106 74.66666666666667 311.1181272257979 74.66666666666667"/><polygon points="341.2568036084013 53.333333333333336 370.4098444619558 53.333333333333336 389.12810478840476 74.66666666666667 349.5601829875182 74.66666666666667"/><polygon points="358.746377173427 53.333333333333336 413.4294829718059 53.333333333333336 453.9139381922918 74.66666666666667 394.53288505285445 74.66666666666667"/><polygon points="440.64559532507326 53.333333333333336 459.31615505955523 53.333333333333336 406.3136845902933 74.66666666666667 440.92192377608296 74.66666666666667"/><polygon points="427.8491015368592 53.333333333333336 503.38950527363124 53.333333333333336 455.69434356130694 74.66666666666667 484.0275297841072 74.66666666666667"/><polygon points="10.666666666666666 95.99999999999999 38.6021236798849 95.99999999999999 32 117.33333333333333 11.221931971907 117.33333333333333"/><polygon points="49.140993875217625 95.99999999999999 80.3290211183115 95.99999999999999 78.95187219836023 117.33333333333333 44.660121150372404 117.33333333333333"/><polygon points="105.55659735581331 95.99999999999999 114.04157445059721 95.99999999999999 126.58731264006056 117.33333333333333 106.47028170865103 117.33333333333333"/><polygon points="135.8676688591546 95.99999999999999 156.87637534471293 95.99999999999999 155.21606286396676 117.33333333333333 134.57881750462906 117.33333333333333"/><polygon points="199.34472156864473 95.99999999999999 201.49671891420505 95.99999999999999 206.3432818269444 117.33333333333333 171.06244630882827 117.33333333333333"/><polygon points="201.13997838502175 95.99999999999999 241.3959510150248 95.99999999999999 227.41362495531607 117.33333333333333 222.80115263292208 117.33333333333333"/><polygon points="263.5755780210929 95.99999999999999 283.37284416235764 95.99999999999999 266.17721063234063 117.33333333333333 266.0662675746672 117.33333333333333"/><polygon points="307.2929736649558 95.99999999999999 337.28841351208234 95.99999999999999 353.6001735634929 117.33333333333333 313.5925387024313 117.33333333333333"/><polygon points="318.1413532964892 95.99999999999999 363.97769076423407 95.99999999999999 378.7494046725286 117.33333333333333 360.1088778057908 117.33333333333333"/><polygon points="357.7312102890704 95.99999999999999 418.5737975654906 95.99999999999999 378.6499448259651 117.33333333333333 404.6526984107428 117.33333333333333"/><polygon points="482.78121661013967 95.99999999999999 451.1899801543004 95.99999999999999 427.6928126519749 117.33333333333333 441.7216838923921 117.33333333333333"/><polygon points="528.8263974248615 95.99999999999999 506.5972922743941 95.99999999999999 450.4946683845947 117.33333333333333 473.25542832594033 117.33333333333333"/><polygon points="10.666666666666666 138.66666666666669 34.727223469995664 138.66666666666669 32 160 24.0159528818484 160"/><polygon points="55.35862678120813 138.66666666666669 68.99780922574365 138.66666666666669 75.218570157815 160 45.06142126961287 160"/><polygon points="95.91786750225867 138.66666666666669 124.40661739720608 138.66666666666669 112.63832473516845 160 106.26731176848644 160"/><polygon points="144.45219586645513 138.66666666666669 164.23752161196725 138.66666666666669 165.0164121454967 160 123.51335420719093 160"/><polygon points="165.4059572511478 138.66666666666669 196.52841596258486 138.66666666666669 213.13468010678758 160 170.16404789526416 160"/><polygon points="228.6874869346736 138.66666666666669 239.7175873684144 138.66666666666669 248.04498365495976 160 233.44675859089912 160"/><polygon points="252.67780514707155 138.66666666666669 277.0763270113097 138.66666666666669 314.74773757406 160 277.0407208694508 160"/><polygon points="274.6802999555887 138.66666666666669 335.4858328093535 138.66666666666669 325.72050314634055 160 302.6859124998333 160"/><polygon points="336.09939107973855 138.66666666666669 361.61403486074465 138.66666666666669 332.81532335268224 160 360.2153201990369 160"/><polygon points="439.8733670238386 138.66666666666669 407.9861374920226 138.66666666666669 430.0407861713818 160 402.4087784611508 160"/><polygon points="476.1717990607213 138.66666666666669 457.15584465646293 138.66666666666669 415.69822956496694 160 429.5532267529622 160"/><polygon points="455.36621877924597 138.66666666666669 495.35691715825243 138.66666666666669 544.6719786776745 160 490.7364858888766 160"/><polygon points="10.666666666666666 181.33333333333334 13.859360414122921 181.33333333333334 32 202.66666666666666 12.605031975588247 202.66666666666666"/><polygon points="49.560979096881006 181.33333333333334 74.42280483981492 181.33333333333334 71.466923511056 202.66666666666666 58.14946908442471 202.66666666666666"/><polygon points="95.86154983907349 181.33333333333334 102.28447355886631 181.33333333333334 110.67676945538929 202.66666666666666 106.0061475760695 202.66666666666666"/><polygon points="144.39289296893472 181.33333333333334 157.7466399617554 181.33333333333334 168.14498474277832 202.66666666666666 142.36774773203035 202.66666666666666"/><polygon points="192.04825037046697 181.33333333333334 218.0442837522468 181.33333333333334 189.08755901393135 202.66666666666666 193.61298742762713 202.66666666666666"/><polygon points="220.6127234551537 181.33333333333334 263.35885767571654 181.33333333333334 234.61235676544095 202.66666666666666 219.16287108940475 202.66666666666666"/><polygon points="283.9033769018852 181.33333333333334 273.35779091075943 181.33333333333334 258.09264455629335 202.66666666666666 265.834754218149 202.66666666666666"/><polygon points="314.5190872239924 181.33333333333334 343.6353004582602 181.33333333333334 324.3832543819365 202.66666666666666 309.20496544254746 202.66666666666666"/><polygon points="384.8855085412886 181.33333333333334 378.6230062282409 181.33333333333334 412.23219260962304 202.66666666666666 367.5491725259975 202.66666666666666"/><polygon points="380.3823179373903 181.33333333333334 433.85186989599146 181.33333333333334 380.51746090124766 202.66666666666666 407.5462902233531 202.66666666666666"/><polygon points="463.72153567035207 181.33333333333334 468.76788740424297 181.33333333333334 474.91089826814465 202.66666666666666 451.36860049400866 202.66666666666666"/><polygon points="448.51735794176244 181.33333333333334 497.36865503213824 181.33333333333334 512.7134949343094 202.66666666666666 468.2835021280609 202.66666666666666"/><polygon points="10.666666666666666 224 18.710762789564328 224 32 245.33333333333331 16.547601064570745 245.33333333333331"/><polygon points="51.59299966676998 224 52.19634417058935 224 77.48483847707254 245.33333333333331 78.51699311047732 245.33333333333331"/><polygon points="99.11048223511136 224 99.0040910074679 224 113.80680639631453 245.33333333333331 111.82635839188127 245.33333333333331"/><polygon points="148.03427633652805 224 152.19650495919902 224 160.02488684229004 245.33333333333331 143.6361382948975 245.33333333333331"/><polygon points="191.63321602062146 224 215.56601838234974 224 194.57987818394238 245.33333333333331 172.34022680596337 245.33333333333331"/><polygon points="250.66399706589266 224 251.98580427909718 224 221.19032782166644 245.33333333333331 223.3231959939307 245.33333333333331"/><polygon points="279.00401746678295 224 303.1106772091844 224 287.2188413980008 245.33333333333331 259.48069199702104 245.33333333333331"/><polygon points="340.9178942233682 224 351.60569466378604 224 340.3027958655567 245.33333333333331 292.8782453871464 245.33333333333331"/><polygon points="310.6546978955537 224 366.2921805376146 224 372.41445791798543 245.33333333333331 367.4632817011646 245.33333333333331"/><polygon points="379.9915422663307 224 442.1462302852042 224 404.0266330251962 245.33333333333331 413.52656350241057 245.33333333333331"/><polygon points="455.5284720439485 224 446.65348699383014 224 448.0067043904213 245.33333333333331 459.21784328458386 245.33333333333331"/><polygon points="503.53084235228863 224 512.6225670085538 224 534.5986317323657 245.33333333333331 492.73175407752933 245.33333333333331"/><polygon points="10.666666666666666 266.66666666666663 61.707640238281925 266.66666666666663 32 288 19.420423303415923 288"/><polygon points="48.853681557380696 266.66666666666663 102.03168247274442 266.66666666666663 73.059002397538 288 59.20055240599368 288"/><polygon points="104.17122860638699 266.66666666666663 133.1938129870375 266.66666666666663 109.52824021217347 288 71.00277331907685 288"/><polygon points="145.4161114543678 266.66666666666663 170.20076755268792 266.66666666666663 144.44007064830103 288 146.51530103418438 288"/><polygon points="199.00318672472375 266.66666666666663 214.08161300776456 266.66666666666663 185.45525425493182 288 206.2670975134822 288"/><polygon points="218.65130097340105 266.66666666666663 239.25331535709125 266.66666666666663 231.67445851438939 288 224.9859913047972 288"/><polygon points="272.8734450349087 266.66666666666663 313.17748259283434 266.66666666666663 294.1297848895206 288 295.5812254850403 288"/><polygon points="314.3868982320411 266.66666666666663 334.5274449251155 266.66666666666663 329.8230747055949 288 298.0685218354907 288"/><polygon points="377.3481965114246 266.66666666666663 360.49328985844033 266.66666666666663 390.4971699780934 288 372.1431441098628 288"/><polygon points="403.7583340288732 266.66666666666663 389.504755933883 266.66666666666663 397.54971213797563 288 393.112727830886 288"/><polygon points="476.5614304775533 266.66666666666663 489.6406150271434 266.66666666666663 407.31693612492734 288 428.6889442492231 288"/><polygon points="513.9041122411494 266.66666666666663 488.3958092730122 266.66666666666663 483.5053742849962 288 487.06538800607103 288"/><polygon points="10.666666666666666 309.33333333333326 2.664404023096896 309.33333333333326 32 330.66666666666663 -4.020587831761418 330.66666666666663"/><polygon points="48.32443536415936 309.33333333333326 79.10929412333088 309.33333333333326 73.42893865344962 330.66666666666663 83.5909999789252 330.66666666666663"/><polygon points="104.35921126876897 309.33333333333326 136.18128375215665 309.33333333333326 119.01999488545158 330.66666666666663 122.05572367587374 330.66666666666663"/><polygon points="136.3632375253249 309.33333333333326 136.06669386476088 309.33333333333326 151.31426437384192 330.66666666666663 117.83728193899962 330.66666666666663"/><polygon points="197.58054662886946 309.33333333333326 232.32601248514374 309.33333333333326 184.9348954893393 330.66666666666663 149.18629478034376 330.66666666666663"/><polygon points="203.72758544270988 309.33333333333326 232.05332634548358 309.33333333333326 239.82378412053453 330.66666666666663 243.88847435778428 330.66666666666663"/><polygon points="247.93731500727955 309.33333333333326 252.0701519321532 309.33333333333326 279.0343976624276 330.66666666666663 300.2678689307055 330.66666666666663"/><polygon points="320.14547186006104 309.33333333333326 366.04167022294234 309.33333333333326 351.1387987492053 330.66666666666663 305.5582696162392 330.66666666666663"/><polygon points="342.4214087132148 309.33333333333326 381.1046686785934 309.33333333333326 401.79540838728286 330.66666666666663 370.0670975023701 330.66666666666663"/><polygon points="412.930855307049 309.33333333333326 448.0939956858648 309.33333333333326 398.2555688288146 330.66666666666663 375.2890403574125 330.66666666666663"/><polygon points="486.02552030527573 309.33333333333326 454.4682859455182 309.33333333333326 498.47922256391865 330.66666666666663 452.61068783378226 330.66666666666663"/><polygon points="469.69583625338055 309.33333333333326 501.5858924216948 309.33333333333326 496.8039679921816 330.66666666666663 450.37967741921995 330.66666666666663"/><polygon points="10.666666666666666 351.99999999999994 54.08159504880254 351.99999999999994 32 373.3333333333333 34.835045950980955 373.3333333333333"/><polygon points="49.44826541554159 351.99999999999994 45.8567480971073 351.99999999999994 77.87397158312682 373.3333333333333 50.816727841132476 373.3333333333333"/><polygon points="93.29726684980156 351.99999999999994 76.05479064708715 351.99999999999994 114.54880772846842 373.3333333333333 57.88446391010216 373.3333333333333"/><polygon points="142.67037855771278 351.99999999999994 165.95614864411016 351.99999999999994 145.5173597637252 373.3333333333333 143.50533117750285 373.3333333333333"/><polygon points="196.83937391274586 351.99999999999994 225.20939700517405 351.99999999999994 181.41132039094154 373.3333333333333 198.90337591908605 373.3333333333333"/><polygon points="240.14597019409086 351.99999999999994 282.54685046619267 351.99999999999994 237.97277009152322 373.3333333333333 210.9733064925206 373.3333333333333"/><polygon points="250.26414570792286 351.99999999999994 288.4139191193965 351.99999999999994 307.2020000348806 373.3333333333333 274.03575499486374 373.3333333333333"/><polygon points="319.7472879803853 351.99999999999994 343.0011857623833 351.99999999999994 336.8920821573581 373.3333333333333 308.3012420633709 373.3333333333333"/><polygon points="324.25234200576523 351.99999999999994 384.6224156209483 351.99999999999994 412.62601244462115 373.3333333333333 376.1999167066387 373.3333333333333"/><polygon points="422.0956260795207 351.99999999999994 410.7446537624316 351.99999999999994 461.95549853553285 373.3333333333333 377.8059771801475 373.3333333333333"/><polygon points="476.2989347385191 351.99999999999994 471.55375378447604 351.99999999999994 491.8595720271944 373.3333333333333 429.8726298260991 373.3333333333333"/><polygon points="502.2027995335524 351.99999999999994 478.94299210036655 351.99999999999994 444.2939743658412 373.3333333333333 483.61189482813876 373.3333333333333"/><polygon points="10.666666666666666 394.66666666666663 66.4294870492488 394.66666666666663 32 416 42.400418382566684 416"/><polygon points="48.38348215994242 394.66666666666663 119.94126930625852 394.66666666666663 74.07988166611851 416 13.525936766575136 416"/><polygon points="88.9768948600268 394.66666666666663 107.77416753768898 394.66666666666663 122.08175807400137 416 112.31213181916462 416"/><polygon points="148.2513763234633 394.66666666666663 135.26923009191208 394.66666666666663 153.67988300601502 416 104.62548705140952 416"/><polygon points="167.963850508023 394.66666666666663 160.4341458582013 394.66666666666663 204.20516630864086 416 144.62596938264716 416"/><polygon points="215.44821957164834 394.66666666666663 224.51677070651806 394.66666666666663 246.85535557686407 416 222.68021812803823 416"/><polygon points="261.5356809209025 394.66666666666663 318.82717632708784 394.66666666666663 314.9225362839645 416 274.01800407507176 416"/><polygon points="327.85402622153686 394.66666666666663 288.43709977328433 394.66666666666663 361.47954501687275 416 285.1949153174898 416"/><polygon points="393.7467227292499 394.66666666666663 358.41859873066284 394.66666666666663 405.205073253234 416 367.0020277343725 416"/><polygon points="405.2788997772342 394.66666666666663 438.9860252599774 394.66666666666663 412.36894598590976 416 379.27873045880176 416"/><polygon points="485.25502488781893 394.66666666666663 500.63515295116747 394.66666666666663 435.7987857085179 416 463.05298418527 416"/><polygon points="489.0196593025079 394.66666666666663 513.9102295848464 394.66666666666663 552.2999655405256 416 521.3750453413573 416"/><polygon points="10.666666666666666 437.33333333333326 26.78536699967016 437.33333333333326 32 458.66666666666663 -1.4497184288074152 458.66666666666663"/><polygon points="57.90131483974112 437.33333333333326 48.49528511747286 437.33333333333326 74.23238137857138 458.66666666666663 91.29531779486591 458.66666666666663"/><polygon points="95.47315002334722 437.33333333333326 123.22437253514138 437.33333333333326 124.67092339679346 458.66666666666663 103.36415582452335 458.66666666666663"/><polygon points="146.61757165845248 437.33333333333326 203.05878685801494 437.33333333333326 160.40947396244601 458.66666666666663 171.72128129355093 458.66666666666663"/><polygon points="166.12741897862793 437.33333333333326 189.14143757590114 437.33333333333326 216.90462910846244 458.66666666666663 169.3191339275904 458.66666666666663"/><polygon points="226.48676146920084 437.33333333333326 292.45456060887324 437.33333333333326 249.7482100380495 458.66666666666663 208.21852420892293 458.66666666666663"/><polygon points="298.1763697916366 437.33333333333326 243.7168285886371 437.33333333333326 298.22849597498816 458.66666666666663 317.7802705719209 458.66666666666663"/><polygon points="326.0701390202514 437.33333333333326 359.4127315283679 437.33333333333326 322.0640209821968 458.66666666666663 350.80349570432077 458.66666666666663"/><polygon points="337.36229622114695 437.33333333333326 403.303520703642 437.33333333333326 395.6698271045777 458.66666666666663 307.58099198062325 458.66666666666663"/><polygon points="436.54151149505435 437.33333333333326 365.26809931490817 437.33333333333326 369.49209309678224 458.66666666666663 352.98827766549846 458.66666666666663"/><polygon points="481.4349092517212 437.33333333333326 467.5238393634863 437.33333333333326 423.44689759212713 458.66666666666663 442.0673117140038 458.66666666666663"/><polygon points="526.9861704051216 437.33333333333326 514.1817544219957 437.33333333333326 470.15694184836445 458.66666666666663 474.0106942529819 458.66666666666663"/><polygon points="10.666666666666666 479.99999999999994 43.0218512160949 479.99999999999994 32 501.3333333333333 31.58417594024543 501.3333333333333"/><polygon points="54.06617917959956 479.99999999999994 22.462813257657437 479.99999999999994 79.415896820755 501.3333333333333 78.5814782903424 501.3333333333333"/><polygon points="86.57218607077019 479.99999999999994 168.6527121276483 479.99999999999994 114.08004830466929 501.3333333333333 62.09822278842768 501.3333333333333"/><polygon points="152.62061752835348 479.99999999999994 106.53909564219703 479.99999999999994 167.12229019401056 501.3333333333333 94.32699639493158 501.3333333333333"/><polygon points="181.0850888643829 479.99999999999994 162.14315290079963 479.99999999999994 183.51243424382636 501.3333333333333 153.84085051033702 501.3333333333333"/><polygon points="233.35894077069372 479.99999999999994 248.7285700366754 479.99999999999994 237.50977423882767 501.3333333333333 184.42173832776353 501.3333333333333"/><polygon points="237.71786372192832 479.99999999999994 333.44735277681553 479.99999999999994 273.87025712719674 501.3333333333333 309.0222093786231 501.3333333333333"/><polygon points="306.61265754596855 479.99999999999994 325.12867524752426 479.99999999999994 306.1348619140794 501.3333333333333 255.16624898024094 501.3333333333333"/><polygon points="342.8251823464727 479.99999999999994 364.9310684208963 479.99999999999994 373.55734723818466 501.3333333333333 345.18613269714507 501.3333333333333"/><polygon points="350.7419194091495 479.99999999999994 379.3528076987018 479.99999999999994 415.9231269454375 501.3333333333333 359.1011510200552 501.3333333333333"/><polygon points="391.6486667013752 479.99999999999994 488.19253239915383 479.99999999999994 417.9590261074264 501.3333333333333 433.9532478276728 501.3333333333333"/><polygon points="484.1149022032925 479.99999999999994 527.2716778160727 479.99999999999994 532.1617616663328 501.3333333333333 527.8689439697318 501.3333333333333"/>
</svg>
