<?xml version="1.0" encoding="UTF-8"?>
<svg xmlns="http://www.w3.org/2000/svg" id="RSSicon" viewBox="0 0 512 512" width="512" height="512">
  <defs>
    <style type="text/css">
      svg {
        background: black;
        margin: calc(50vh - 256px) auto 0;
      }
      
      polygon {stroke: darkorange; fill: none;}
    </style>
  </defs>
  <polygon points="10.666666666666666 10.666666666666666 32 10.666666666666666 32 32 10.666666666666666 32"/><polygon points="49.13757510130536 10.666666666666666 74.66666666666667 10.666666666666666 70.01564691474724 32 53.333333333333336 32"/><polygon points="103.06812708994016 10.666666666666666 117.33333333333333 10.666666666666666 127.69623695401832 32 95.99999999999999 32"/><polygon points="135.13078021973317 10.666666666666666 160 10.666666666666666 160.0852867750056 32 138.66666666666669 32"/><polygon points="195.7438687168056 10.666666666666666 202.66666666666666 10.666666666666666 185.1748728032201 32 181.33333333333334 32"/><polygon points="231.39458061606604 10.666666666666666 245.33333333333331 10.666666666666666 257.23406427564817 32 224 32"/><polygon points="256.9838216406732 10.666666666666666 288 10.666666666666666 299.59489994237475 32 266.66666666666663 32"/><polygon points="325.98324711354496 10.666666666666666 330.66666666666663 10.666666666666666 355.3451364517956 32 309.33333333333326 32"/><polygon points="311.00529453809526 10.666666666666666 373.3333333333333 10.666666666666666 375.9571470075935 32 351.99999999999994 32"/><polygon points="355.26116816171304 10.666666666666666 416 10.666666666666666 417.86238679325345 32 394.66666666666663 32"/><polygon points="444.86911344467245 10.666666666666666 458.66666666666663 10.666666666666666 408.414607318843 32 437.33333333333326 32"/><polygon points="459.7534582615109 10.666666666666666 501.3333333333333 10.666666666666666 520.7830493985902 32 479.99999999999994 32"/><polygon points="10.666666666666666 53.333333333333336 33.53350332624431 53.333333333333336 32 74.66666666666667 12.07533994692026 74.66666666666667"/><polygon points="52.28485172562505 53.333333333333336 71.46148039920476 53.333333333333336 77.64962187249517 74.66666666666667 54.85388350972152 74.66666666666667"/><polygon points="85.820911663871 53.333333333333336 120.99403313044024 53.333333333333336 124.68665007266723 74.66666666666667 93.17773893827447 74.66666666666667"/><polygon points="138.9931078518726 53.333333333333336 159.91627726527918 53.333333333333336 145.56504458351242 74.66666666666667 140.40056717841077 74.66666666666667"/><polygon points="187.3185219974884 53.333333333333336 200.50173095114206 53.333333333333336 207.3387987629247 74.66666666666667 184.1763828010515 74.66666666666667"/><polygon points="199.6920666649309 53.333333333333336 242.51745599016454 53.333333333333336 243.69357103370893 74.66666666666667 220.13975194625652 74.66666666666667"/><polygon points="290.10594030040653 53.333333333333336 291.5130146882532 53.333333333333336 262.10192054812774 74.66666666666667 271.93247120716535 74.66666666666667"/><polygon points="321.31608815108984 53.333333333333336 328.1115583869241 53.333333333333336 330.41564551862194 74.66666666666667 312.60574588690685 74.66666666666667"/><polygon points="352.69695839324925 53.333333333333336 374.3154129736591 53.333333333333336 404.3319215190559 74.66666666666667 355.5932485129792 74.66666666666667"/><polygon points="428.3187873389492 53.333333333333336 417.00506158481306 53.333333333333336 440.82339652340494 74.66666666666667 391.48253938419094 74.66666666666667"/><polygon points="467.43930274718724 53.333333333333336 457.08573103873437 53.333333333333336 444.86434429071016 74.66666666666667 437.8529301119855 74.66666666666667"/><polygon points="451.27784429272225 53.333333333333336 498.46278503642 53.333333333333336 489.54449436867174 74.66666666666667 480.7022295669968 74.66666666666667"/><polygon points="10.666666666666666 95.99999999999999 42.00337657785013 95.99999999999999 32 117.33333333333333 2.955886831157745 117.33333333333333"/><polygon points="50.78799912384382 95.99999999999999 77.61529988993667 95.99999999999999 78.41263806609486 117.33333333333333 47.60992751350144 117.33333333333333"/><polygon points="86.87219762049676 95.99999999999999 127.13412440547918 95.99999999999999 120.88644586719738 117.33333333333333 104.61116211032824 117.33333333333333"/><polygon points="137.40720156673936 95.99999999999999 168.29417786243226 95.99999999999999 170.13244903993498 117.33333333333333 149.10904900008148 117.33333333333333"/><polygon points="175.31138881795653 95.99999999999999 203.4116520720417 95.99999999999999 190.664032522186 117.33333333333333 172.19636453502014 117.33333333333333"/><polygon points="227.73769948101315 95.99999999999999 255.2124187663462 95.99999999999999 244.98332151823243 117.33333333333333 214.72960305324406 117.33333333333333"/><polygon points="248.05455762794466 95.99999999999999 285.62136910579017 95.99999999999999 312.94335819117015 117.33333333333333 260.34175885164484 117.33333333333333"/><polygon points="330.1753051051091 95.99999999999999 327.97525704773045 95.99999999999999 295.059224068065 117.33333333333333 301.81292597050316 117.33333333333333"/><polygon points="374.41534538737085 95.99999999999999 382.6904095681071 95.99999999999999 359.42719120803946 117.33333333333333 345.84227641531453 117.33333333333333"/><polygon points="440.95646609737037 95.99999999999999 422.1403656479541 95.99999999999999 441.30648104959175 117.33333333333333 395.37537513510114 117.33333333333333"/><polygon points="458.60484857522937 95.99999999999999 459.11393418729665 95.99999999999999 498.58588520619577 117.33333333333333 437.2750476783646 117.33333333333333"/><polygon points="463.6219687633944 95.99999999999999 495.17614258413954 95.99999999999999 490.06179864649295 117.33333333333333 475.74033130795294 117.33333333333333"/><polygon points="10.666666666666666 138.66666666666669 29.077365425080522 138.66666666666669 32 160 22.94826759023293 160"/><polygon points="52.310423602786386 138.66666666666669 78.3939886622211 138.66666666666669 69.70319373279209 160 67.12914587195328 160"/><polygon points="94.93237156120014 138.66666666666669 125.00264152211872 138.66666666666669 127.08813926188121 160 107.86618266590288 160"/><polygon points="133.67178807788991 138.66666666666669 165.60770860659824 138.66666666666669 149.46032000377758 160 138.6744106137413 160"/><polygon points="194.01841529730297 138.66666666666669 197.98551847467655 138.66666666666669 189.7011787763728 160 174.79557216725968 160"/><polygon points="205.32397095701336 138.66666666666669 238.98690590497125 138.66666666666669 232.9553007294543 160 215.3958213705326 160"/><polygon points="265.30761957609826 138.66666666666669 289.3054611056152 138.66666666666669 266.55192676688074 160 267.43637778001045 160"/><polygon points="302.60587388958083 138.66666666666669 337.41055688070225 138.66666666666669 337.3423753382096 160 298.623071172662 160"/><polygon points="351.72573075206634 138.66666666666669 361.22692346103474 138.66666666666669 372.8838081884879 160 367.2153915200612 160"/><polygon points="402.9596956913839 138.66666666666669 409.2904439861093 138.66666666666669 442.6836611894712 160 378.7237518984536 160"/><polygon points="450.06392732174754 138.66666666666669 457.01643214933694 138.66666666666669 503.1329644132251 160 434.9218621216007 160"/><polygon points="475.77008266948474 138.66666666666669 502.45423853193955 138.66666666666669 481.42993884802115 160 469.9938886700848 160"/><polygon points="10.666666666666666 181.33333333333334 45.037496008338394 181.33333333333334 32 202.66666666666666 29.84391438278927 202.66666666666666"/><polygon points="57.3083976061863 181.33333333333334 82.14000703158214 181.33333333333334 71.43778705006578 202.66666666666666 56.55695623174848 202.66666666666666"/><polygon points="97.02884374504418 181.33333333333334 109.15284383088768 181.33333333333334 112.22699356036122 202.66666666666666 90.07949988369751 202.66666666666666"/><polygon points="146.24264157295792 181.33333333333334 159.11080730549514 181.33333333333334 174.71682280967187 202.66666666666666 130.51302973448603 202.66666666666666"/><polygon points="199.81480748860977 181.33333333333334 210.86767102804333 181.33333333333334 217.34090407962813 202.66666666666666 183.17294252342063 202.66666666666666"/><polygon points="237.8340023806641 181.33333333333334 229.88644620273027 181.33333333333334 230.4975633522431 202.66666666666666 210.77701400105224 202.66666666666666"/><polygon points="248.39943000007904 181.33333333333334 304.4110661385157 181.33333333333334 259.302148053852 202.66666666666666 247.78621359587967 202.66666666666666"/><polygon points="292.56728631663617 181.33333333333334 330.8897745091796 181.33333333333334 332.95464738064896 202.66666666666666 329.4841766041701 202.66666666666666"/><polygon points="340.9786160066218 181.33333333333334 357.5800604710458 181.33333333333334 349.6237662915518 202.66666666666666 340.30150922969153 202.66666666666666"/><polygon points="376.97952159265265 181.33333333333334 400.53710067538157 181.33333333333334 422.69139613673724 202.66666666666666 384.6155850364843 202.66666666666666"/><polygon points="439.8282172876394 181.33333333333334 469.6400554895764 181.33333333333334 483.12309780715304 202.66666666666666 438.90091931842056 202.66666666666666"/><polygon points="474.52925734963895 181.33333333333334 494.34554885616103 181.33333333333334 543.2708476750666 202.66666666666666 458.7699867297744 202.66666666666666"/><polygon points="10.666666666666666 224 55.73837324613034 224 32 245.33333333333331 -15.648411993878387 245.33333333333331"/><polygon points="54.15162737510028 224 52.28490019117859 224 76.21060290810192 245.33333333333331 70.49623737704928 245.33333333333331"/><polygon points="87.98486224076683 224 136.43293817128654 224 107.42157150055162 245.33333333333331 76.16707292745215 245.33333333333331"/><polygon points="139.4744910443152 224 185.88911282519263 224 146.65632081855395 245.33333333333331 130.4966131498097 245.33333333333331"/><polygon points="201.51539761577146 224 227.47493577981385 224 214.85612092161543 245.33333333333331 202.93545436686807 245.33333333333331"/><polygon points="231.34019245560393 224 245.4913429688718 224 248.4459821324552 245.33333333333331 219.77642692960538 245.33333333333331"/><polygon points="237.43870088376212 224 298.623333114321 224 257.66849710701615 245.33333333333331 267.6649805060975 245.33333333333331"/><polygon points="284.31724980203364 224 331.3559390938869 224 341.9197140576639 245.33333333333331 332.1543260096076 245.33333333333331"/><polygon points="358.36537837883446 224 349.89446922948684 224 373.48787323380583 245.33333333333331 345.0670218092545 245.33333333333331"/><polygon points="355.30480690807383 224 399.4252578455599 224 395.28256107624793 245.33333333333331 412.1806899664117 245.33333333333331"/><polygon points="408.6547615539647 224 460.7482477918056 224 423.3552780157002 245.33333333333331 410.82221497118155 245.33333333333331"/><polygon points="517.5624647214768 224 490.2986704673321 224 465.49156779509894 245.33333333333331 476.1199575573531 245.33333333333331"/><polygon points="10.666666666666666 266.66666666666663 19.611258264184457 266.66666666666663 32 288 -16.793001046836554 288"/><polygon points="50.44289639517649 266.66666666666663 59.50318721381928 266.66666666666663 70.04795530998436 288 29.156875368210898 288"/><polygon points="98.70684641510465 266.66666666666663 124.80412904884113 266.66666666666663 127.57062332573156 288 76.9842554579078 288"/><polygon points="132.68170573567647 266.66666666666663 169.210043166535 266.66666666666663 165.76991518021765 288 144.12269558041137 288"/><polygon points="178.0656822598002 266.66666666666663 195.89743765251433 266.66666666666663 210.67233418421915 288 173.28862160087087 288"/><polygon points="205.88975158373833 266.66666666666663 264.068110670305 266.66666666666663 249.0108321739166 288 194.92444088729704 288"/><polygon points="245.48801910783067 266.66666666666663 307.09787692497486 266.66666666666663 312.5360298813569 288 242.2737576720332 288"/><polygon points="327.2570434778731 266.66666666666663 344.9680437892488 266.66666666666663 348.9614180080039 288 315.6516821817045 288"/><polygon points="312.6379579668949 266.66666666666663 365.20518095735224 266.66666666666663 400.1187181947277 288 377.5273011099025 288"/><polygon points="440.5776644667305 266.66666666666663 410.21754040299146 266.66666666666663 410.22162761650173 288 416.9897315009333 288"/><polygon points="441.1305830899525 266.66666666666663 447.41568255405093 266.66666666666663 478.53918642196095 288 433.7537171705622 288"/><polygon points="467.297241202268 266.66666666666663 521.3952822839625 266.66666666666663 515.1695902294226 288 496.2337460182889 288"/><polygon points="10.666666666666666 309.33333333333326 67.74931615506256 309.33333333333326 32 330.66666666666663 24.93072098660064 330.66666666666663"/><polygon points="56.40990208772 309.33333333333326 85.12169772571337 309.33333333333326 69.64296032300349 330.66666666666663 53.06314341969047 330.66666666666663"/><polygon points="93.32908845389362 309.33333333333326 116.74440453322161 309.33333333333326 117.33505342354489 330.66666666666663 66.09655539047462 330.66666666666663"/><polygon points="123.9674304657851 309.33333333333326 165.63860258495222 309.33333333333326 164.05857000842593 330.66666666666663 128.0625112636665 330.66666666666663"/><polygon points="198.16693053992074 309.33333333333326 218.04506972832178 309.33333333333326 189.75428066158327 330.66666666666663 190.6707713388218 330.66666666666663"/><polygon points="198.0576771399185 309.33333333333326 266.64081180680813 309.33333333333326 269.01680352660657 330.66666666666663 197.65731531066825 330.66666666666663"/><polygon points="243.774531510468 309.33333333333326 323.26118063945194 309.33333333333326 278.60224512546364 330.66666666666663 259.6867186738714 330.66666666666663"/><polygon points="276.4558363917323 309.33333333333326 338.63039130332714 309.33333333333326 320.11334268765836 330.66666666666663 328.1002159395019 330.66666666666663"/><polygon points="350.43040081664947 309.33333333333326 368.65621544148456 309.33333333333326 360.4540476052987 330.66666666666663 375.2437716312286 330.66666666666663"/><polygon points="409.51695284702464 309.33333333333326 430.2526880041181 309.33333333333326 448.14693723657035 330.66666666666663 426.3848428974138 330.66666666666663"/><polygon points="408.6136600733538 309.33333333333326 450.8974608014108 309.33333333333326 417.332422969139 330.66666666666663 416.63640951791734 330.66666666666663"/><polygon points="445.0649503764315 309.33333333333326 519.3784256057294 309.33333333333326 537.6461196913727 330.66666666666663 463.74466782007477 330.66666666666663"/><polygon points="10.666666666666666 351.99999999999994 51.675781214605685 351.99999999999994 32 373.3333333333333 -20.215638704504084 373.3333333333333"/><polygon points="51.97684956513534 351.99999999999994 105.00249891145434 351.99999999999994 77.73572247304018 373.3333333333333 82.92688792672129 373.3333333333333"/><polygon points="101.82025189479556 351.99999999999994 138.20496255367834 351.99999999999994 123.21642114896713 373.3333333333333 137.97969078861144 373.3333333333333"/><polygon points="132.63293155797643 351.99999999999994 129.50269153850377 351.99999999999994 174.3595405541772 373.3333333333333 101.51269304435326 373.3333333333333"/><polygon points="199.1103819061984 351.99999999999994 222.59290829907448 351.99999999999994 209.62910984636315 373.3333333333333 206.3426396458951 373.3333333333333"/><polygon points="225.41775836400518 351.99999999999994 272.3844666851038 351.99999999999994 268.4169710591183 373.3333333333333 217.0146009476938 373.3333333333333"/><polygon points="273.96927822769635 351.99999999999994 266.2181476194891 351.99999999999994 299.7616725981299 373.3333333333333 274.2311099018434 373.3333333333333"/><polygon points="330.7177930352959 351.99999999999994 296.2850268375704 351.99999999999994 353.1049807181597 373.3333333333333 308.47476869208316 373.3333333333333"/><polygon points="343.25905528600447 351.99999999999994 404.8479591262469 351.99999999999994 333.0336635776771 373.3333333333333 311.62816236181754 373.3333333333333"/><polygon points="369.76553329088165 351.99999999999994 428.2730267710749 351.99999999999994 435.870054108938 373.3333333333333 417.5340152071094 373.3333333333333"/><polygon points="473.56055131648134 351.99999999999994 463.83886329025034 351.99999999999994 495.05256455417435 373.3333333333333 415.2563109825843 373.3333333333333"/><polygon points="513.5572210555257 351.99999999999994 478.74363997710833 351.99999999999994 474.1090817379355 373.3333333333333 491.9815557526023 373.3333333333333"/><polygon points="10.666666666666666 394.66666666666663 58.07295912013352 394.66666666666663 32 416 -6.795506561460218 416"/><polygon points="55.77583506634719 394.66666666666663 78.70326540254862 394.66666666666663 75.02268635811252 416 58.699989220798756 416"/><polygon points="101.54083565149882 394.66666666666663 104.42283073388565 394.66666666666663 107.67881503697983 416 83.32331421076915 416"/><polygon points="143.26012307418506 394.66666666666663 183.1599038530976 394.66666666666663 171.2002496584629 416 175.38145917523852 416"/><polygon points="187.72984508452086 394.66666666666663 213.01339433896408 394.66666666666663 219.2011979666822 416 204.60980095567442 416"/><polygon points="225.28327143537072 394.66666666666663 244.2659230929901 394.66666666666663 222.63528756270725 416 227.6878460642746 416"/><polygon points="260.91340169865265 394.66666666666663 330.2427528597663 394.66666666666663 314.6525844702133 416 290.6789788194264 416"/><polygon points="316.02747198524014 394.66666666666663 363.1821181117262 394.66666666666663 352.39935328854693 416 267.5885371434044 416"/><polygon points="321.92683919598 394.66666666666663 412.58907292291644 394.66666666666663 402.3437082595707 416 364.40930503945947 416"/><polygon points="362.1358587253441 394.66666666666663 448.66519591050576 394.66666666666663 397.837142625602 416 416.80789597597897 416"/><polygon points="397.98627176669135 394.66666666666663 415.90805603260725 394.66666666666663 464.22040011248424 416 470.4755186999539 416"/><polygon points="499.6310819054822 394.66666666666663 545.0406490563591 394.66666666666663 521.4392960230288 416 469.62627674735603 416"/><polygon points="10.666666666666666 437.33333333333326 25.30799342584965 437.33333333333326 32 458.66666666666663 -4.215394499844823 458.66666666666663"/><polygon points="48.838522048187386 437.33333333333326 56.958538266126745 437.33333333333326 79.65950430284764 458.66666666666663 86.51558468441135 458.66666666666663"/><polygon points="91.5319711161418 437.33333333333326 85.44486381184862 437.33333333333326 107.1488024705392 458.66666666666663 126.16541793226739 458.66666666666663"/><polygon points="133.39111355340665 437.33333333333326 199.92443415022785 437.33333333333326 173.9945243905068 458.66666666666663 101.62300733918084 458.66666666666663"/><polygon points="196.24300095240642 437.33333333333326 223.74268214750487 437.33333333333326 216.35734697644332 458.66666666666663 190.85236311023073 458.66666666666663"/><polygon points="212.6759818258205 437.33333333333326 269.198300671246 437.33333333333326 241.03435638186377 458.66666666666663 171.77623259502943 458.66666666666663"/><polygon points="289.8757982312984 437.33333333333326 335.39031711038047 437.33333333333326 267.979443775256 458.66666666666663 271.3444172960477 458.66666666666663"/><polygon points="314.1401259866751 437.33333333333326 331.67876432222045 437.33333333333326 342.22936379949965 458.66666666666663 329.92895483189494 458.66666666666663"/><polygon points="368.26937206464356 437.33333333333326 358.0860055880429 437.33333333333326 336.8908592445767 458.66666666666663 373.1556368573456 458.66666666666663"/><polygon points="403.2462998485206 437.33333333333326 444.28845857399875 437.33333333333326 455.65043940886085 458.66666666666663 393.1984448299458 458.66666666666663"/><polygon points="436.8568659663481 437.33333333333326 478.41513416075105 437.33333333333326 472.3378875332953 458.66666666666663 475.8914136851269 458.66666666666663"/><polygon points="421.9117541348182 437.33333333333326 554.5282457266799 437.33333333333326 463.8816363469193 458.66666666666663 428.06060566168316 458.66666666666663"/><polygon points="10.666666666666666 479.99999999999994 79.94163571754251 479.99999999999994 32 501.3333333333333 13.95138012653668 501.3333333333333"/><polygon points="49.05757996909334 479.99999999999994 62.65648117928582 479.99999999999994 70.75529051551177 501.3333333333333 75.11450193700291 501.3333333333333"/><polygon points="104.17856487127565 479.99999999999994 114.35530248012272 479.99999999999994 127.3798563960411 501.3333333333333 137.12213365160787 501.3333333333333"/><polygon points="150.504465746048 479.99999999999994 194.1202059799494 479.99999999999994 172.5789072455627 501.3333333333333 107.60045727083744 501.3333333333333"/><polygon points="178.6872321660621 479.99999999999994 251.04196309252114 479.99999999999994 222.05340866694988 501.3333333333333 132.1298909601902 501.3333333333333"/><polygon points="231.77220234955394 479.99999999999994 281.6099172574001 479.99999999999994 253.29979579815006 501.3333333333333 238.17558880448254 501.3333333333333"/><polygon points="240.62651176183758 479.99999999999994 339.176891845168 479.99999999999994 295.5935180743983 501.3333333333333 239.25330646609763 501.3333333333333"/><polygon points="278.53932370686243 479.99999999999994 321.5175293958752 479.99999999999994 353.3919957243819 501.3333333333333 306.15872106134606 501.3333333333333"/><polygon points="379.53774617545076 479.99999999999994 328.436720275521 479.99999999999994 357.2152556102524 501.3333333333333 369.10154790529924 501.3333333333333"/><polygon points="376.7692660487163 479.99999999999994 466.70203550400623 479.99999999999994 449.25032348400975 501.3333333333333 382.6668505410353 501.3333333333333"/><polygon points="385.69391982646437 479.99999999999994 411.5537467921614 479.99999999999994 480.0735987146815 501.3333333333333 473.7043876714954 501.3333333333333"/><polygon points="458.732228646828 479.99999999999994 443.5014887933565 479.99999999999994 559.2190698283314 501.3333333333333 483.40200703621576 501.3333333333333"/>
</svg>
