<?xml version="1.0" encoding="UTF-8"?>
<svg xmlns="http://www.w3.org/2000/svg" id="RSSicon" viewBox="0 0 512 512" width="512" height="512">
  <defs>
    <style type="text/css">
      svg {
        background: black;
        margin: calc(50vh - 256px) auto 0;
      }
      
      polygon {stroke: darkorange; fill: none;}
    </style>
  </defs>
  <polygon points="10.666666666666666 10.666666666666666 32 10.666666666666666 32 32 10.666666666666666 32"/><polygon points="51.8423326314374 10.666666666666666 74.66666666666667 10.666666666666666 77.0646842693574 32 53.333333333333336 32"/><polygon points="94.65834516182802 10.666666666666666 117.33333333333333 10.666666666666666 119.00534582430332 32 95.99999999999999 32"/><polygon points="125.71330754983114 10.666666666666666 160 10.666666666666666 174.70887160028457 32 138.66666666666669 32"/><polygon points="182.75836227915133 10.666666666666666 202.66666666666666 10.666666666666666 181.49556996182432 32 181.33333333333334 32"/><polygon points="224.2458279294731 10.666666666666666 245.33333333333331 10.666666666666666 263.1654675229472 32 224 32"/><polygon points="294.98747591434557 10.666666666666666 288 10.666666666666666 271.4125736764229 32 266.66666666666663 32"/><polygon points="333.11043655009513 10.666666666666666 330.66666666666663 10.666666666666666 353.90757940980825 32 309.33333333333326 32"/><polygon points="321.35070480082635 10.666666666666666 373.3333333333333 10.666666666666666 353.8463727282408 32 351.99999999999994 32"/><polygon points="409.2254780532098 10.666666666666666 416 10.666666666666666 462.84268386615645 32 394.66666666666663 32"/><polygon points="425.2275080604652 10.666666666666666 458.66666666666663 10.666666666666666 481.60338625122046 32 437.33333333333326 32"/><polygon points="521.6017723062525 10.666666666666666 501.3333333333333 10.666666666666666 526.8738341562574 32 479.99999999999994 32"/><polygon points="10.666666666666666 53.333333333333336 32.67662710861396 53.333333333333336 32 74.66666666666667 13.027475739084782 74.66666666666667"/><polygon points="53.95877351444409 53.333333333333336 76.68832973234574 53.333333333333336 78.66276693127236 74.66666666666667 55.0699002283378 74.66666666666667"/><polygon points="88.41092599759999 53.333333333333336 122.54345758896523 53.333333333333336 117.16597867747113 74.66666666666667 95.74283152764117 74.66666666666667"/><polygon points="152.2082128850263 53.333333333333336 158.82492187764683 53.333333333333336 162.85024223731577 74.66666666666667 138.36798420466022 74.66666666666667"/><polygon points="164.67466763485206 53.333333333333336 199.62441548776815 53.333333333333336 183.53438743416532 74.66666666666667 176.3266897008976 74.66666666666667"/><polygon points="205.2999904932891 53.333333333333336 250.4608737374226 53.333333333333336 245.30354921737958 74.66666666666667 226.29472122478145 74.66666666666667"/><polygon points="249.1711149970206 53.333333333333336 291.533223916353 53.333333333333336 283.26633060442737 74.66666666666667 271.6291596828434 74.66666666666667"/><polygon points="289.62165253992987 53.333333333333336 331.2489144332255 53.333333333333336 330.4552438664056 74.66666666666667 304.87101732863357 74.66666666666667"/><polygon points="373.99659560671165 53.333333333333336 368.7825314594532 53.333333333333336 380.25399494268504 74.66666666666667 349.72216009753157 74.66666666666667"/><polygon points="368.5365331671317 53.333333333333336 414.3712936039886 53.333333333333336 446.06985819682063 74.66666666666667 394.74994536848953 74.66666666666667"/><polygon points="457.46056771185596 53.333333333333336 460.37465871025483 53.333333333333336 475.4358509107519 74.66666666666667 433.3749187799133 74.66666666666667"/><polygon points="519.2594871345615 53.333333333333336 498.56287229475413 53.333333333333336 465.2718539626633 74.66666666666667 475.09168501142216 74.66666666666667"/><polygon points="10.666666666666666 95.99999999999999 35.48113061719883 95.99999999999999 32 117.33333333333333 3.034188560089575 117.33333333333333"/><polygon points="56.29692449291481 95.99999999999999 71.11480385226481 95.99999999999999 76.1279014680957 117.33333333333333 44.474637068926945 117.33333333333333"/><polygon points="92.70663214874048 95.99999999999999 124.39040527149913 95.99999999999999 116.2596537293859 117.33333333333333 105.28149740717744 117.33333333333333"/><polygon points="126.18850389639717 95.99999999999999 157.64498028102432 95.99999999999999 175.44703859078777 117.33333333333333 148.57197172395493 117.33333333333333"/><polygon points="194.4189312497174 95.99999999999999 193.8047261035682 95.99999999999999 206.8721249487804 117.33333333333333 180.88018789003198 117.33333333333333"/><polygon points="200.3827900814216 95.99999999999999 239.1091696559317 95.99999999999999 265.43438556881176 117.33333333333333 225.34956428419366 117.33333333333333"/><polygon points="283.62975793306475 95.99999999999999 284.44270076991654 95.99999999999999 313.74389795463577 117.33333333333333 267.4781339770187 117.33333333333333"/><polygon points="328.90786525384766 95.99999999999999 330.68167061165536 95.99999999999999 337.1724334239549 117.33333333333333 314.84319007887325 117.33333333333333"/><polygon points="330.6874076376674 95.99999999999999 376.1859184917531 95.99999999999999 395.0930263419147 117.33333333333333 348.94545292994155 117.33333333333333"/><polygon points="392.72478878883953 95.99999999999999 409.12262993005646 95.99999999999999 384.30522742185184 117.33333333333333 401.51463528657644 117.33333333333333"/><polygon points="472.4060137727947 95.99999999999999 468.8880564039686 95.99999999999999 482.32380947180616 117.33333333333333 434.6944049421385 117.33333333333333"/><polygon points="437.6192171862114 95.99999999999999 495.24888981513647 95.99999999999999 453.92742971158214 117.33333333333333 473.3112284522983 117.33333333333333"/><polygon points="10.666666666666666 138.66666666666669 47.75301432543956 138.66666666666669 32 160 -1.9266469525677827 160"/><polygon points="52.79037740837745 138.66666666666669 77.76247257224819 138.66666666666669 71.69272636070738 160 52.15382451246695 160"/><polygon points="87.97340566298885 138.66666666666669 115.52707454610247 138.66666666666669 110.87070119070405 160 91.50717210679856 160"/><polygon points="134.55098523546 138.66666666666669 160.81613739736147 138.66666666666669 147.02528855718265 160 127.94092320185291 160"/><polygon points="178.12265843662118 138.66666666666669 196.28240855105423 138.66666666666669 206.6546289178465 160 195.92720230052893 160"/><polygon points="200.02276842369764 138.66666666666669 251.6482262612392 138.66666666666669 254.87790885230356 160 231.97946787632952 160"/><polygon points="295.31328167782203 138.66666666666669 297.5838489816703 138.66666666666669 258.02197867125756 160 264.770207868191 160"/><polygon points="336.0953999106967 138.66666666666669 340.9400945290388 138.66666666666669 348.5856374922599 160 311.14455876606536 160"/><polygon points="331.6859086310347 138.66666666666669 387.48916461517985 138.66666666666669 361.65668810258666 160 352.64608825627255 160"/><polygon points="373.2734176707262 138.66666666666669 405.6606862331861 138.66666666666669 404.99176747540406 160 410.56400435302595 160"/><polygon points="439.603076965779 138.66666666666669 458.6422336137398 138.66666666666669 494.36439068134626 160 444.1392986148552 160"/><polygon points="442.3375506669847 138.66666666666669 514.9360763547471 138.66666666666669 493.0717144873454 160 494.6874483276797 160"/><polygon points="10.666666666666666 181.33333333333334 24.802959651866416 181.33333333333334 32 202.66666666666666 0.8456100132347721 202.66666666666666"/><polygon points="53.85195489143758 181.33333333333334 63.41855346925241 181.33333333333334 75.63352183615514 202.66666666666666 57.469427494323035 202.66666666666666"/><polygon points="94.24972688057444 181.33333333333334 134.4860182755984 181.33333333333334 111.91794662587073 202.66666666666666 94.34037112970783 202.66666666666666"/><polygon points="131.55129475238874 181.33333333333334 166.10682975729506 181.33333333333334 163.8181896621805 202.66666666666666 135.8298356698402 202.66666666666666"/><polygon points="201.91146828660942 181.33333333333334 197.6041867760112 181.33333333333334 223.57745663955097 202.66666666666666 170.09240024004183 202.66666666666666"/><polygon points="205.35392567717665 181.33333333333334 265.36901797389993 181.33333333333334 223.3798600226704 202.66666666666666 231.07813653979926 202.66666666666666"/><polygon points="291.9066542763381 181.33333333333334 270.49246391606965 181.33333333333334 317.94568616783863 202.66666666666666 267.34752601708686 202.66666666666666"/><polygon points="276.65453924182765 181.33333333333334 331.3614708542136 181.33333333333334 314.6311882933269 202.66666666666666 327.4900519424532 202.66666666666666"/><polygon points="372.2560109618116 181.33333333333334 393.47383961856536 181.33333333333334 381.24220960694635 202.66666666666666 363.6072930253721 202.66666666666666"/><polygon points="396.05790408936707 181.33333333333334 423.2479702120811 181.33333333333334 377.90570604934936 202.66666666666666 412.4756030201644 202.66666666666666"/><polygon points="406.59488709066693 181.33333333333334 477.6254840915483 181.33333333333334 410.6704534684527 202.66666666666666 419.25943467033517 202.66666666666666"/><polygon points="452.3626264015039 181.33333333333334 522.504006370531 181.33333333333334 453.91816195617537 202.66666666666666 469.4252250796057 202.66666666666666"/><polygon points="10.666666666666666 224 19.60131158825955 224 32 245.33333333333331 18.800479792438125 245.33333333333331"/><polygon points="48.6923338786105 224 61.474438767334235 224 75.7710001732241 245.33333333333331 51.431361361060205 245.33333333333331"/><polygon points="99.42461835066301 224 117.60293305300173 224 126.15005786545605 245.33333333333331 88.87394543961395 245.33333333333331"/><polygon points="123.87521715452947 224 149.19028660881003 224 167.47592928301594 245.33333333333331 153.1286430240495 245.33333333333331"/><polygon points="172.08602797735048 224 218.35052920012762 224 199.11794071447574 245.33333333333331 198.54354636374708 245.33333333333331"/><polygon points="224.50573204298922 224 271.433222951797 224 255.8374913420584 245.33333333333331 244.0573646877046 245.33333333333331"/><polygon points="275.2721053677394 224 310.0615938252426 224 298.2482155728178 245.33333333333331 264.6061974522663 245.33333333333331"/><polygon points="328.1458500788416 224 312.8116494030213 224 295.3713512941977 245.33333333333331 282.91433701735036 245.33333333333331"/><polygon points="335.20599069899055 224 384.415740808113 224 345.1137712803712 245.33333333333331 339.26561140840016 245.33333333333331"/><polygon points="426.2557847731858 224 423.56993737601306 224 400.05013872142894 245.33333333333331 392.3695928120831 245.33333333333331"/><polygon points="415.12108333687456 224 432.9044915964475 224 473.52378175100387 245.33333333333331 441.54524359562527 245.33333333333331"/><polygon points="474.0756518738129 224 496.21806272717805 224 540.0773578783145 245.33333333333331 493.5115334174976 245.33333333333331"/><polygon points="10.666666666666666 266.66666666666663 5.168288748824253 266.66666666666663 32 288 35.494478269711855 288"/><polygon points="55.07549372674032 266.66666666666663 89.77488935783984 266.66666666666663 73.54494293178985 288 38.03627986833093 288"/><polygon points="100.53743344881471 266.66666666666663 149.13562554720752 266.66666666666663 109.0432247542823 288 65.24946520643758 288"/><polygon points="137.74459567330504 266.66666666666663 142.2763997758577 266.66666666666663 161.93518520894284 288 126.29834980472307 288"/><polygon points="191.41875462740435 266.66666666666663 191.1991268836409 266.66666666666663 216.6411171460248 288 204.37728144221518 288"/><polygon points="246.2747046470791 266.66666666666663 253.1682993243291 266.66666666666663 241.64251130927408 288 250.96991810190787 288"/><polygon points="266.72116326434485 266.66666666666663 293.41549678143826 266.66666666666663 257.58970960422863 288 236.57720401071936 288"/><polygon points="286.0109197411154 266.66666666666663 340.2692711085919 266.66666666666663 364.7989887008432 288 320.5045903449295 288"/><polygon points="322.5307770472712 266.66666666666663 377.8697796995493 266.66666666666663 398.4867910235096 288 339.61139747904576 288"/><polygon points="415.23573707138553 266.66666666666663 390.93205175011286 266.66666666666663 402.2849087391416 288 409.0726875846702 288"/><polygon points="488.3088392095048 266.66666666666663 450.8219182691058 266.66666666666663 481.3598661449241 288 412.69488114919193 288"/><polygon points="495.350165748517 266.66666666666663 494.7051583563181 266.66666666666663 531.013339736649 288 473.38211632450344 288"/><polygon points="10.666666666666666 309.33333333333326 34.650844805323196 309.33333333333326 32 330.66666666666663 15.232396623436935 330.66666666666663"/><polygon points="54.48482247381692 309.33333333333326 39.9826428664349 309.33333333333326 78.05891639059911 330.66666666666663 27.383277875071983 330.66666666666663"/><polygon points="91.84795705220056 309.33333333333326 109.04635275997262 309.33333333333326 127.60747568865038 330.66666666666663 121.47691876018627 330.66666666666663"/><polygon points="141.29003503517265 309.33333333333326 168.9481964668614 309.33333333333326 151.5922843377429 330.66666666666663 110.91887992411144 330.66666666666663"/><polygon points="179.74755139913387 309.33333333333326 206.78155253883463 309.33333333333326 195.20992193324494 330.66666666666663 183.62714064932572 330.66666666666663"/><polygon points="205.26052889780277 309.33333333333326 277.26552212570203 309.33333333333326 224.74539415159828 330.66666666666663 244.20348161210478 330.66666666666663"/><polygon points="266.3574957450919 309.33333333333326 262.6986338469089 309.33333333333326 298.8186188705905 330.66666666666663 254.32695248737153 330.66666666666663"/><polygon points="301.9656916755805 309.33333333333326 322.2406733058336 309.33333333333326 345.49713768399596 330.66666666666663 285.6192436029713 330.66666666666663"/><polygon points="354.7682487109236 309.33333333333326 369.29866894994575 309.33333333333326 340.32578632755354 330.66666666666663 382.88436978259017 330.66666666666663"/><polygon points="411.9739860435087 309.33333333333326 439.12402309901216 309.33333333333326 384.15354967926055 330.66666666666663 415.3818727709418 330.66666666666663"/><polygon points="389.5584477752799 309.33333333333326 438.8967434406875 309.33333333333326 492.96457857588376 330.66666666666663 457.3517549530679 330.66666666666663"/><polygon points="530.2215731283186 309.33333333333326 506.21200062242133 309.33333333333326 470.8935931115198 330.66666666666663 465.2355221217495 330.66666666666663"/><polygon points="10.666666666666666 351.99999999999994 -1.6274554925577895 351.99999999999994 32 373.3333333333333 15.796797077308725 373.3333333333333"/><polygon points="51.20139693822577 351.99999999999994 106.84991595060569 351.99999999999994 70.4939070169466 373.3333333333333 28.232694621647113 373.3333333333333"/><polygon points="104.54346519779284 351.99999999999994 159.81444475150096 351.99999999999994 123.60482833074587 373.3333333333333 72.7574875538971 373.3333333333333"/><polygon points="134.1022644070229 351.99999999999994 141.09057770118082 351.99999999999994 151.81781717092403 373.3333333333333 133.8078921889301 373.3333333333333"/><polygon points="175.91407234262007 351.99999999999994 180.33877639290876 351.99999999999994 186.94785936987492 373.3333333333333 156.97974818381977 373.3333333333333"/><polygon points="207.85987505695803 351.99999999999994 212.74836326791035 351.99999999999994 230.72775978433006 373.3333333333333 253.51286821873023 373.3333333333333"/><polygon points="290.1798331128768 351.99999999999994 254.13396314321713 351.99999999999994 278.71679977449605 373.3333333333333 307.28426843424904 373.3333333333333"/><polygon points="315.18013190513454 351.99999999999994 337.12950637731154 351.99999999999994 295.56823982157005 373.3333333333333 342.67032308510437 373.3333333333333"/><polygon points="372.7456424397748 351.99999999999994 352.62522490297886 351.99999999999994 360.92125808710637 373.3333333333333 393.4514353860606 373.3333333333333"/><polygon points="353.66882917348687 351.99999999999994 397.7249924283116 351.99999999999994 400.9894708780725 373.3333333333333 373.68749363657685 373.3333333333333"/><polygon points="402.94532225729824 351.99999999999994 449.0523586024835 351.99999999999994 509.49107720118457 373.3333333333333 430.14069560153814 373.3333333333333"/><polygon points="535.3853701163605 351.99999999999994 468.0944575847343 351.99999999999994 500.5674544635198 373.3333333333333 492.93785368601147 373.3333333333333"/><polygon points="10.666666666666666 394.66666666666663 -15.131054307627512 394.66666666666663 32 416 7.505081186493721 416"/><polygon points="58.191129648555346 394.66666666666663 92.5182273463547 394.66666666666663 71.52900131670353 416 11.062664309817308 416"/><polygon points="93.49469667569284 394.66666666666663 160.31071153189163 394.66666666666663 123.0467647114645 416 58.24502536338863 416"/><polygon points="143.60784987085506 394.66666666666663 133.48172212931345 394.66666666666663 171.39618578716093 416 125.07306229451817 416"/><polygon points="172.1642161986887 394.66666666666663 206.47586235261304 394.66666666666663 187.52246141505145 416 138.3313989109335 416"/><polygon points="209.90717901356078 394.66666666666663 210.44341113090724 394.66666666666663 269.6935328478379 416 202.42892338562032 416"/><polygon points="258.14243620313283 394.66666666666663 266.5087894132064 394.66666666666663 258.6387781545113 416 277.3535007749454 416"/><polygon points="285.4440217892881 394.66666666666663 373.7442452434908 394.66666666666663 323.6071127388422 416 344.835244068195 416"/><polygon points="380.74044357352216 394.66666666666663 411.9812093402537 394.66666666666663 381.25427599932596 416 317.5602226062812 416"/><polygon points="360.1116599158067 394.66666666666663 399.69150916239306 394.66666666666663 399.0374967927135 416 427.7404910032909 416"/><polygon points="464.392058192327 394.66666666666663 444.7101762413033 394.66666666666663 480.6501797548356 416 471.9690396240786 416"/><polygon points="460.37278919074225 394.66666666666663 481.319490921167 394.66666666666663 445.7281327820771 416 446.4502077035649 416"/><polygon points="10.666666666666666 437.33333333333326 14.11965957114818 437.33333333333326 32 458.66666666666663 -13.359149853972436 458.66666666666663"/><polygon points="50.14796383477518 437.33333333333326 126.27400912844263 437.33333333333326 78.57879119268243 458.66666666666663 23.530351235244687 458.66666666666663"/><polygon points="101.00589917541801 437.33333333333326 91.38410660756534 437.33333333333326 113.24524001918 458.66666666666663 66.67061378730523 458.66666666666663"/><polygon points="154.24460647580744 437.33333333333326 205.52387437514298 437.33333333333326 167.98581054452933 458.66666666666663 140.049479422357 458.66666666666663"/><polygon points="188.76923846837465 437.33333333333326 183.80890769980672 437.33333333333326 183.71762115896286 458.66666666666663 231.33418075987677 458.66666666666663"/><polygon points="245.1819008021286 437.33333333333326 274.0494696140758 437.33333333333326 240.85932734223067 458.66666666666663 192.70110325763014 458.66666666666663"/><polygon points="267.05189101116156 437.33333333333326 251.1646801507478 437.33333333333326 307.95969030645693 458.66666666666663 289.3213649622229 458.66666666666663"/><polygon points="283.5785171805725 437.33333333333326 293.89875426751877 437.33333333333326 327.7943493706444 458.66666666666663 268.52506653010033 458.66666666666663"/><polygon points="337.2769141201207 437.33333333333326 408.3565851963816 437.33333333333326 392.0328445527853 458.66666666666663 358.0538849515488 458.66666666666663"/><polygon points="414.4306531572903 437.33333333333326 402.0209959871334 437.33333333333326 456.5981213515256 458.66666666666663 438.00301809054133 458.66666666666663"/><polygon points="415.16495378142946 437.33333333333326 449.38720950680766 437.33333333333326 505.08508812952454 458.66666666666663 392.3794348814698 458.66666666666663"/><polygon points="459.96883198079996 437.33333333333326 530.6751012720406 437.33333333333326 500.1864798411791 458.66666666666663 526.01327684905 458.66666666666663"/><polygon points="10.666666666666666 479.99999999999994 1.630892743295174 479.99999999999994 32 501.3333333333333 30.844843670114223 501.3333333333333"/><polygon points="55.8186080609852 479.99999999999994 22.944965430662023 479.99999999999994 71.40354471813116 501.3333333333333 85.9708401121735 501.3333333333333"/><polygon points="105.93604531257911 479.99999999999994 62.987952506965414 479.99999999999994 118.34304950339775 501.3333333333333 113.78766573075114 501.3333333333333"/><polygon points="149.67906844422328 479.99999999999994 131.9806716665462 479.99999999999994 155.12029739918114 501.3333333333333 150.58085081059596 501.3333333333333"/><polygon points="178.03958294384915 479.99999999999994 162.93867044744738 479.99999999999994 217.28515333220867 501.3333333333333 183.941733423658 501.3333333333333"/><polygon points="226.4055236191238 479.99999999999994 204.0140570140051 479.99999999999994 271.3397755790671 501.3333333333333 263.58382880922005 501.3333333333333"/><polygon points="263.84040043094893 479.99999999999994 279.41649999357963 479.99999999999994 272.5865451194465 501.3333333333333 302.5045327191374 501.3333333333333"/><polygon points="299.0709728148473 479.99999999999994 377.4707057028743 479.99999999999994 365.48021555437214 501.3333333333333 321.02140029442137 501.3333333333333"/><polygon points="385.3634181501729 479.99999999999994 383.55754487892466 479.99999999999994 375.8851932687443 501.3333333333333 363.45733374330223 501.3333333333333"/><polygon points="366.5900847202356 479.99999999999994 432.80486603578373 479.99999999999994 429.32190480599553 501.3333333333333 450.3516768493005 501.3333333333333"/><polygon points="462.64203262976474 479.99999999999994 417.5095053282697 479.99999999999994 434.8832758007778 501.3333333333333 450.64412913845894 501.3333333333333"/><polygon points="498.6573970087288 479.99999999999994 532.4264546559634 479.99999999999994 511.2045085228475 501.3333333333333 467.63388469289134 501.3333333333333"/>
</svg>
