<?xml version="1.0" encoding="UTF-8"?>
<svg xmlns="http://www.w3.org/2000/svg" id="RSSicon" viewBox="0 0 512 512" width="512" height="512">
  <defs>
    <style type="text/css">
      svg {
        background: black;
        margin: calc(50vh - 256px) auto 0;
      }
      
      polygon {stroke: darkorange; fill: none;}
    </style>
  </defs>
  <polygon points="10.666666666666666 10.666666666666666 32 10.666666666666666 32 32 10.666666666666666 32"/><polygon points="55.1916498744812 10.666666666666666 74.66666666666667 10.666666666666666 75.94637751823386 32 53.333333333333336 32"/><polygon points="89.05676824810914 10.666666666666666 117.33333333333333 10.666666666666666 118.23236670333243 32 95.99999999999999 32"/><polygon points="153.24603583904153 10.666666666666666 160 10.666666666666666 145.81369492276386 32 138.66666666666669 32"/><polygon points="185.87992863341475 10.666666666666666 202.66666666666666 10.666666666666666 187.8074524029807 32 181.33333333333334 32"/><polygon points="218.90532948902583 10.666666666666666 245.33333333333331 10.666666666666666 264.76979632591105 32 224 32"/><polygon points="239.37703809271918 10.666666666666666 288 10.666666666666666 292.44000417878055 32 266.66666666666663 32"/><polygon points="317.48495842403673 10.666666666666666 330.66666666666663 10.666666666666666 353.1295185808481 32 309.33333333333326 32"/><polygon points="360.218249425796 10.666666666666666 373.3333333333333 10.666666666666666 392.3557730021886 32 351.99999999999994 32"/><polygon points="401.0151479165295 10.666666666666666 416 10.666666666666666 402.5581782577637 32 394.66666666666663 32"/><polygon points="461.71479855866295 10.666666666666666 458.66666666666663 10.666666666666666 417.0973233159892 32 437.33333333333326 32"/><polygon points="526.3704225679801 10.666666666666666 501.3333333333333 10.666666666666666 501.92203947075046 32 479.99999999999994 32"/><polygon points="10.666666666666666 53.333333333333336 33.03000887017781 53.333333333333336 32 74.66666666666667 11.726496259623488 74.66666666666667"/><polygon points="48.23381238600826 53.333333333333336 77.44535874457219 53.333333333333336 73.9813071457907 74.66666666666667 56.855323124563135 74.66666666666667"/><polygon points="103.72360889470244 53.333333333333336 116.90027426530007 53.333333333333336 115.87523798374929 74.66666666666667 95.13813829166132 74.66666666666667"/><polygon points="141.57882726275562 53.333333333333336 156.04513023812342 53.333333333333336 153.97216806383366 74.66666666666667 140.90083930541866 74.66666666666667"/><polygon points="191.73245612308347 53.333333333333336 201.41749879715567 53.333333333333336 194.34823826026067 74.66666666666667 182.03939277371995 74.66666666666667"/><polygon points="237.3255616557532 53.333333333333336 245.48184289822183 53.333333333333336 234.16033006154905 74.66666666666667 225.49435986120204 74.66666666666667"/><polygon points="251.4954655917641 53.333333333333336 282.8780350964369 53.333333333333336 266.32806828458314 74.66666666666667 263.89701979285326 74.66666666666667"/><polygon points="276.12490878267937 53.333333333333336 332.17250263444447 53.333333333333336 356.8599724247305 74.66666666666667 305.6780844811193 74.66666666666667"/><polygon points="321.55464851330123 53.333333333333336 372.9168821718881 53.333333333333336 337.45994795210726 74.66666666666667 348.4914745175386 74.66666666666667"/><polygon points="407.33179019975137 53.333333333333336 415.0933492987797 53.333333333333336 417.7259257116267 74.66666666666667 397.3198729407845 74.66666666666667"/><polygon points="461.46784831801403 53.333333333333336 457.9602958823379 53.333333333333336 458.0609861005452 74.66666666666667 434.67037877225243 74.66666666666667"/><polygon points="449.04304361352115 53.333333333333336 501.0853907586901 53.333333333333336 456.82690708465793 74.66666666666667 479.9741733647126 74.66666666666667"/><polygon points="10.666666666666666 95.99999999999999 38.65317038974076 95.99999999999999 32 117.33333333333333 2.618127017295638 117.33333333333333"/><polygon points="54.41230237057301 95.99999999999999 81.66450331076166 95.99999999999999 77.22538252941376 117.33333333333333 56.383211235538255 117.33333333333333"/><polygon points="95.15533848430009 95.99999999999999 115.24304890317448 95.99999999999999 117.23812757011802 117.33333333333333 104.13954410568168 117.33333333333333"/><polygon points="130.35810100540914 95.99999999999999 153.5503767206508 95.99999999999999 160.03512741128907 117.33333333333333 137.44271027597188 117.33333333333333"/><polygon points="169.104544168386 95.99999999999999 201.72277883055455 95.99999999999999 207.13211646130708 117.33333333333333 176.61921351188607 117.33333333333333"/><polygon points="206.13399907937702 95.99999999999999 242.84577194316014 95.99999999999999 241.0382376443205 117.33333333333333 220.4984190935589 117.33333333333333"/><polygon points="269.9152651705491 95.99999999999999 284.05498132781935 95.99999999999999 296.83595001588304 117.33333333333333 267.9168540167101 117.33333333333333"/><polygon points="303.85449627012645 95.99999999999999 326.1773698338908 95.99999999999999 362.7754764603901 117.33333333333333 308.766827553719 117.33333333333333"/><polygon points="358.9129433791808 95.99999999999999 364.26099140131663 95.99999999999999 396.73985538307085 117.33333333333333 343.8890324800946 117.33333333333333"/><polygon points="432.11197270161483 95.99999999999999 419.5353631090617 95.99999999999999 450.06304654224755 117.33333333333333 403.3608667942746 117.33333333333333"/><polygon points="445.5053224009459 95.99999999999999 462.6426031241192 95.99999999999999 408.1696849817634 117.33333333333333 431.7926396228573 117.33333333333333"/><polygon points="458.36078056322344 95.99999999999999 509.2521125704209 95.99999999999999 547.6435691987942 117.33333333333333 471.2583063153911 117.33333333333333"/><polygon points="10.666666666666666 138.66666666666669 22.449669081432013 138.66666666666669 32 160 21.668416839398716 160"/><polygon points="54.72542652030905 138.66666666666669 81.89112632417724 138.66666666666669 73.58854739610871 160 65.23817572254455 160"/><polygon points="91.68125163321467 138.66666666666669 106.77540990606123 138.66666666666669 126.86616367346025 160 97.50435003481147 160"/><polygon points="127.43156555619336 138.66666666666669 170.55037114682412 138.66666666666669 159.2310770209543 160 132.28939264918193 160"/><polygon points="197.0071415273353 138.66666666666669 203.15591710449493 138.66666666666669 188.10224681112103 160 184.0349448359103 160"/><polygon points="246.68803710983573 138.66666666666669 246.945313616879 138.66666666666669 258.0503141821917 160 237.51431605142642 160"/><polygon points="288.80890499978926 138.66666666666669 290.8412537904256 138.66666666666669 304.3252825916226 160 258.6314547496675 160"/><polygon points="315.47897980923983 138.66666666666669 333.0246081819867 138.66666666666669 329.9370506860945 160 320.7943669767201 160"/><polygon points="367.2472021004868 138.66666666666669 378.6529701031182 138.66666666666669 346.2975142065323 160 350.2397154197273 160"/><polygon points="431.1215951443707 138.66666666666669 418.3797493552295 138.66666666666669 447.7692834794191 160 400.7331147473895 160"/><polygon points="423.9634140811325 138.66666666666669 454.0007605622834 138.66666666666669 468.94554555050865 160 447.9392169408388 160"/><polygon points="519.1037781015016 138.66666666666669 505.7524718069958 138.66666666666669 549.7889685793657 160 481.45909788173395 160"/><polygon points="10.666666666666666 181.33333333333334 25.278992167519107 181.33333333333334 32 202.66666666666666 27.11093773800937 202.66666666666666"/><polygon points="55.06984614743105 181.33333333333334 78.79276442083882 181.33333333333334 79.37855942808855 202.66666666666666 60.29966100243308 202.66666666666666"/><polygon points="105.7194552770863 181.33333333333334 109.2625329293477 181.33333333333334 112.0682754926009 202.66666666666666 78.11595717948684 202.66666666666666"/><polygon points="131.5407317884257 181.33333333333334 141.11807435700405 181.33333333333334 155.2960393118348 202.66666666666666 157.81921716542223 202.66666666666666"/><polygon points="176.60937605082674 181.33333333333334 211.9076647398536 181.33333333333334 188.3548889362605 202.66666666666666 191.26543757853284 202.66666666666666"/><polygon points="220.41405742624954 181.33333333333334 230.6149391121238 181.33333333333334 258.27194743878107 202.66666666666666 229.1172588490987 202.66666666666666"/><polygon points="293.24107010506555 181.33333333333334 296.33727914080174 181.33333333333334 275.2041467247291 202.66666666666666 269.0123211696117 202.66666666666666"/><polygon points="312.92274074818073 181.33333333333334 330.56225834315046 181.33333333333334 345.24474610677066 202.66666666666666 294.48909458111393 202.66666666666666"/><polygon points="316.48805227336675 181.33333333333334 365.69561961708797 181.33333333333334 396.7474822444064 202.66666666666666 333.030139172792 202.66666666666666"/><polygon points="347.27205011269496 181.33333333333334 406.7466699240346 181.33333333333334 453.0546111841595 202.66666666666666 376.91556675817816 202.66666666666666"/><polygon points="475.049026786886 181.33333333333334 476.18180415887434 181.33333333333334 429.05182336290204 202.66666666666666 419.848407882939 202.66666666666666"/><polygon points="472.7399824556131 181.33333333333334 489.3351815390396 181.33333333333334 547.4393381493442 202.66666666666666 461.1382793249073 202.66666666666666"/><polygon points="10.666666666666666 224 48.97816962763396 224 32 245.33333333333331 30.967872238640293 245.33333333333331"/><polygon points="57.42718159414432 224 94.42246797384121 224 78.85448348485527 245.33333333333331 42.05040264928434 245.33333333333331"/><polygon points="95.35814455049034 224 118.81555120465947 224 113.06136251203101 245.33333333333331 113.53069917744565 245.33333333333331"/><polygon points="139.06464599006873 224 176.26846057946835 224 172.12521487139543 245.33333333333331 125.8879040317977 245.33333333333331"/><polygon points="194.040972717745 224 197.2704207638351 224 212.59651657535935 245.33333333333331 191.41806684672528 245.33333333333331"/><polygon points="239.9966292180906 224 270.13683538833624 224 241.74462298051242 245.33333333333331 225.4151390147263 245.33333333333331"/><polygon points="258.41154951966075 224 287.88989291799413 224 305.93171005788605 245.33333333333331 250.5446659121375 245.33333333333331"/><polygon points="335.9047008967573 224 333.7086932041712 224 345.3513738765045 245.33333333333331 325.5142106566229 245.33333333333331"/><polygon points="319.9953982010854 224 362.2451247913094 224 348.6337445234953 245.33333333333331 371.5012959523072 245.33333333333331"/><polygon points="419.911301272352 224 434.1696115430547 224 407.46769154020274 245.33333333333331 388.04847124706663 245.33333333333331"/><polygon points="481.6883203056969 224 480.72467288520596 224 418.64726116243907 245.33333333333331 456.64398680732114 245.33333333333331"/><polygon points="469.04219009187926 224 484.51804993378 224 515.5797560450326 245.33333333333331 472.9926740627565 245.33333333333331"/><polygon points="10.666666666666666 266.66666666666663 14.646407850722468 266.66666666666663 32 288 11.82254721139328 288"/><polygon points="56.547684487839454 266.66666666666663 82.63504921577385 266.66666666666663 79.30427965664795 288 53.86966411426939 288"/><polygon points="87.56617617966805 266.66666666666663 135.6456755544699 266.66666666666663 117.94701810019268 288 78.7915302897209 288"/><polygon points="130.7264277728201 266.66666666666663 188.47240098418956 266.66666666666663 150.777135734538 288 165.99009322989954 288"/><polygon points="165.075516918107 266.66666666666663 181.64846176412607 266.66666666666663 207.28936421601782 288 207.52049266098692 288"/><polygon points="203.03288899998063 266.66666666666663 264.6387398698902 266.66666666666663 243.14297461702898 288 255.0760289441416 288"/><polygon points="236.225736805174 266.66666666666663 291.23257799818543 266.66666666666663 259.40412381880407 288 254.32420659201392 288"/><polygon points="292.92194732174846 266.66666666666663 339.71613319193483 266.66666666666663 324.5069214410942 288 281.9154627083353 288"/><polygon points="364.5747389376262 266.66666666666663 387.80102327075684 266.66666666666663 386.2662584515436 288 324.58332864285927 288"/><polygon points="400.17986673365726 266.66666666666663 424.3472308373491 266.66666666666663 403.6086298908584 288 389.4549096232999 288"/><polygon points="438.1441382899032 266.66666666666663 457.4487755087808 266.66666666666663 427.67135099036517 288 440.53848591742013 288"/><polygon points="479.9659722199475 266.66666666666663 514.9822688196733 266.66666666666663 551.6863421439008 288 511.8896228310368 288"/><polygon points="10.666666666666666 309.33333333333326 2.721255509278773 309.33333333333326 32 330.66666666666663 0.709833490520051 330.66666666666663"/><polygon points="51.35176063235113 309.33333333333326 106.08951224131505 309.33333333333326 69.62042269516778 330.66666666666663 63.84977595624971 330.66666666666663"/><polygon points="89.74894565276396 309.33333333333326 114.42366195069357 309.33333333333326 121.15763108810617 330.66666666666663 122.97800980647705 330.66666666666663"/><polygon points="142.27497764509906 309.33333333333326 176.27405263915858 309.33333333333326 157.5060948267226 330.66666666666663 144.8981693895042 330.66666666666663"/><polygon points="174.3663193506145 309.33333333333326 198.01252988860077 309.33333333333326 216.3965202103357 330.66666666666663 187.91337006417575 330.66666666666663"/><polygon points="202.17205856632853 309.33333333333326 212.8362528082465 309.33333333333326 247.83410551950814 330.66666666666663 205.07439228267643 330.66666666666663"/><polygon points="285.3339985495115 309.33333333333326 291.4829056459274 309.33333333333326 275.1626887920504 330.66666666666663 266.4114380380607 330.66666666666663"/><polygon points="314.07696980312437 309.33333333333326 324.67479402381764 309.33333333333326 294.56138995749586 330.66666666666663 291.33255797256635 330.66666666666663"/><polygon points="366.5493476452644 309.33333333333326 355.7509252651009 309.33333333333326 382.96089216264374 330.66666666666663 369.55184265167713 330.66666666666663"/><polygon points="397.2597874435732 309.33333333333326 424.93280473768147 309.33333333333326 393.4051815885805 330.66666666666663 409.37246328679595 330.66666666666663"/><polygon points="385.3731390921577 309.33333333333326 423.88378534378313 309.33333333333326 453.52820841327855 330.66666666666663 404.8881267427977 330.66666666666663"/><polygon points="442.81133990106895 309.33333333333326 482.7155729306044 309.33333333333326 529.0555088720512 330.66666666666663 513.0680559302249 330.66666666666663"/><polygon points="10.666666666666666 351.99999999999994 52.663820054279256 351.99999999999994 32 373.3333333333333 -14.347434384968533 373.3333333333333"/><polygon points="55.15338789809255 351.99999999999994 103.68860150560732 351.99999999999994 70.02074759823074 373.3333333333333 74.51815258994064 373.3333333333333"/><polygon points="102.9623502443636 351.99999999999994 104.61539927516033 351.99999999999994 125.91836184938549 373.3333333333333 82.49106763379544 373.3333333333333"/><polygon points="151.47807438163554 351.99999999999994 188.334771634023 351.99999999999994 150.52976978941112 373.3333333333333 134.9137530923463 373.3333333333333"/><polygon points="186.24126247658114 351.99999999999994 213.9927803758128 351.99999999999994 218.35121213241428 373.3333333333333 149.77950408924144 373.3333333333333"/><polygon points="225.7788285075168 351.99999999999994 269.9838600228089 351.99999999999994 239.75000799979537 373.3333333333333 262.7591689638719 373.3333333333333"/><polygon points="274.5957815220989 351.99999999999994 313.1745058879144 351.99999999999994 291.74080768883175 373.3333333333333 277.7138457429503 373.3333333333333"/><polygon points="300.37600943358206 351.99999999999994 366.60316132030783 351.99999999999994 316.4227467788818 373.3333333333333 350.099796242103 373.3333333333333"/><polygon points="385.784624089798 351.99999999999994 385.01684300521146 351.99999999999994 391.34262147281527 373.3333333333333 382.66181242334176 373.3333333333333"/><polygon points="442.45976238027646 351.99999999999994 428.1684722925153 351.99999999999994 463.18588277002664 373.3333333333333 356.7780185939346 373.3333333333333"/><polygon points="484.82716611571874 351.99999999999994 467.8965900778386 351.99999999999994 446.4850535909137 373.3333333333333 409.0641868217293 373.3333333333333"/><polygon points="486.2818470844706 351.99999999999994 535.9262619519843 351.99999999999994 529.3163143673014 373.3333333333333 504.9462846163713 373.3333333333333"/><polygon points="10.666666666666666 394.66666666666663 26.162469132090216 394.66666666666663 32 416 47.69427449631622 416"/><polygon points="51.60895208042358 394.66666666666663 117.3526286562882 394.66666666666663 74.5099756148744 416 66.69797468499263 416"/><polygon points="105.57109787793712 394.66666666666663 99.91186654840364 394.66666666666663 108.01460327740116 416 48.29724373694474 416"/><polygon points="135.5152252388109 394.66666666666663 204.08627597578337 394.66666666666663 153.33918437458078 416 184.01733973666657 416"/><polygon points="164.55556406478576 394.66666666666663 170.2438928072469 394.66666666666663 213.7818352294593 416 203.35780063053764 416"/><polygon points="235.0221875486198 394.66666666666663 283.67177222125423 394.66666666666663 219.03219525310476 416 176.1188114735042 416"/><polygon points="244.62726733244705 394.66666666666663 334.50703648519413 394.66666666666663 273.71717366423627 416 242.36200804144386 416"/><polygon points="311.23452506505487 394.66666666666663 305.6151779926701 394.66666666666663 313.20899074754846 416 289.08942387338516 416"/><polygon points="380.81587885507486 394.66666666666663 382.154394048195 394.66666666666663 401.3414043608465 416 378.9667379446038 416"/><polygon points="363.95254112432747 394.66666666666663 380.96413949378103 394.66666666666663 372.9784201771201 416 419.0245341070367 416"/><polygon points="386.0871507778873 394.66666666666663 488.21087188126523 394.66666666666663 473.1135811904466 416 407.71468897857176 416"/><polygon points="451.2794493788677 394.66666666666663 518.6276891265654 394.66666666666663 469.89095291505976 416 461.1152211811756 416"/><polygon points="10.666666666666666 437.33333333333326 17.90837533205326 437.33333333333326 32 458.66666666666663 41.937713940634836 458.66666666666663"/><polygon points="49.587812733261515 437.33333333333326 101.08905693371878 437.33333333333326 71.42933696881876 458.66666666666663 74.98184516107732 458.66666666666663"/><polygon points="106.04287344983535 437.33333333333326 87.02314103700017 437.33333333333326 124.3578234162032 458.66666666666663 43.345744901317076 458.66666666666663"/><polygon points="139.27292003430884 437.33333333333326 208.01112444506907 437.33333333333326 172.76517269034107 458.66666666666663 165.43664592023532 458.66666666666663"/><polygon points="180.0892772940646 437.33333333333326 189.32282897386852 437.33333333333326 192.7294342703584 458.66666666666663 136.43511023391878 458.66666666666663"/><polygon points="235.78841966406446 437.33333333333326 200.69406026921675 437.33333333333326 271.95038778723716 458.66666666666663 256.9490425214998 458.66666666666663"/><polygon points="275.7303295363213 437.33333333333326 246.0205083105206 437.33333333333326 257.80838210902584 458.66666666666663 248.3769288852383 458.66666666666663"/><polygon points="275.32597425621464 437.33333333333326 349.4090112212829 437.33333333333326 347.25703193526255 458.66666666666663 304.10176091489416 458.66666666666663"/><polygon points="355.8106561901232 437.33333333333326 361.0471929416148 437.33333333333326 395.4132266118146 458.66666666666663 302.9780714363081 458.66666666666663"/><polygon points="390.408460444331 437.33333333333326 452.4729647565884 437.33333333333326 408.3930459943513 458.66666666666663 424.66350661472717 458.66666666666663"/><polygon points="446.3476635457603 437.33333333333326 449.48160340686366 437.33333333333326 505.434256890937 458.66666666666663 487.212552790687 458.66666666666663"/><polygon points="485.1409123136863 437.33333333333326 485.2001285240489 437.33333333333326 477.8564836884972 458.66666666666663 528.8629134879341 458.66666666666663"/><polygon points="10.666666666666666 479.99999999999994 23.136971568450058 479.99999999999994 32 501.3333333333333 16.326671353977254 501.3333333333333"/><polygon points="48.753274092266935 479.99999999999994 121.90500922516397 479.99999999999994 74.22651481419969 501.3333333333333 73.11889325884137 501.3333333333333"/><polygon points="92.5625011869502 479.99999999999994 101.85221359151613 479.99999999999994 127.41562414147481 501.3333333333333 82.79647764322416 501.3333333333333"/><polygon points="141.84482061918524 479.99999999999994 196.1344417034548 479.99999999999994 149.88756381513338 501.3333333333333 109.09262538881426 501.3333333333333"/><polygon points="172.39083174429348 479.99999999999994 167.69829054883093 479.99999999999994 216.19825917761577 501.3333333333333 220.48291702696343 501.3333333333333"/><polygon points="237.45826613991545 479.99999999999994 299.2032618786371 479.99999999999994 263.7461844921146 501.3333333333333 260.5057140659002 501.3333333333333"/><polygon points="274.94185347753404 479.99999999999994 329.26700435005824 479.99999999999994 312.09520258177713 501.3333333333333 229.2973529366501 501.3333333333333"/><polygon points="290.9934070446943 479.99999999999994 294.1983580059458 479.99999999999994 348.67793960955356 501.3333333333333 344.3455248864354 501.3333333333333"/><polygon points="317.6543130343956 479.99999999999994 386.6471597830101 479.99999999999994 382.13245520501647 501.3333333333333 382.1284059444424 501.3333333333333"/><polygon points="431.03800763545905 479.99999999999994 394.8006068614248 479.99999999999994 421.72599133736 501.3333333333333 413.82972859972256 501.3333333333333"/><polygon points="416.0484108537198 479.99999999999994 472.0454103594504 479.99999999999994 422.7718761943804 501.3333333333333 476.1393037240528 501.3333333333333"/><polygon points="448.9096230721531 479.99999999999994 515.8378666172963 479.99999999999994 524.9392335382427 501.3333333333333 423.0588277920938 501.3333333333333"/>
</svg>
