<?xml version="1.0" encoding="UTF-8"?>
<svg xmlns="http://www.w3.org/2000/svg" id="RSSicon" viewBox="0 0 512 512" width="512" height="512">
  <defs>
    <style type="text/css">
      svg {
        background: black;
        margin: calc(50vh - 256px) auto 0;
      }
      
      polygon {stroke: darkorange; fill: none;}
    </style>
  </defs>
  <polygon points="10.666666666666666 10.666666666666666 32 10.666666666666666 32 32 10.666666666666666 32"/><polygon points="49.35009756427045 10.666666666666666 74.66666666666667 10.666666666666666 70.06386347202927 32 53.333333333333336 32"/><polygon points="89.99999729883108 10.666666666666666 117.33333333333333 10.666666666666666 119.87550725438376 32 95.99999999999999 32"/><polygon points="133.0445555220847 10.666666666666666 160 10.666666666666666 175.8094419992822 32 138.66666666666669 32"/><polygon points="165.2954159884192 10.666666666666666 202.66666666666666 10.666666666666666 188.0217995472788 32 181.33333333333334 32"/><polygon points="222.27886017294867 10.666666666666666 245.33333333333331 10.666666666666666 229.44802370502845 32 224 32"/><polygon points="282.2488229865806 10.666666666666666 288 10.666666666666666 261.4348952865803 32 266.66666666666663 32"/><polygon points="344.90473572290625 10.666666666666666 330.66666666666663 10.666666666666666 357.8064677393275 32 309.33333333333326 32"/><polygon points="391.80258423694926 10.666666666666666 373.3333333333333 10.666666666666666 385.35231368595777 32 351.99999999999994 32"/><polygon points="400.9515825607549 10.666666666666666 416 10.666666666666666 434.5898067533581 32 394.66666666666663 32"/><polygon points="447.9023401073334 10.666666666666666 458.66666666666663 10.666666666666666 424.8078268097006 32 437.33333333333326 32"/><polygon points="536.9817755944716 10.666666666666666 501.3333333333333 10.666666666666666 514.0808355323418 32 479.99999999999994 32"/><polygon points="10.666666666666666 53.333333333333336 30.976384678022416 53.333333333333336 32 74.66666666666667 14.885810868927145 74.66666666666667"/><polygon points="50.009785551752074 53.333333333333336 75.40777876335758 53.333333333333336 73.09517290323046 74.66666666666667 54.91583942612894 74.66666666666667"/><polygon points="104.4473670828115 53.333333333333336 112.3656937697736 53.333333333333336 116.22414565668569 74.66666666666667 98.26515140317532 74.66666666666667"/><polygon points="128.13992589002117 53.333333333333336 164.61435120884497 53.333333333333336 165.506525375244 74.66666666666667 134.80431287484168 74.66666666666667"/><polygon points="165.663214708803 53.333333333333336 204.65212844346482 53.333333333333336 214.85952616823596 74.66666666666667 183.06144563339822 74.66666666666667"/><polygon points="224.55783025954076 53.333333333333336 246.09272985620896 53.333333333333336 228.79555813366147 74.66666666666667 220.3703849030849 74.66666666666667"/><polygon points="240.91679632195095 53.333333333333336 283.4817557455284 53.333333333333336 268.8346464083158 74.66666666666667 264.2960210232138 74.66666666666667"/><polygon points="321.3957290071126 53.333333333333336 330.63322902446436 53.333333333333336 314.35398695176514 74.66666666666667 309.76068845083 74.66666666666667"/><polygon points="337.87116909793764 53.333333333333336 374.15038337448385 53.333333333333336 374.33053314759553 74.66666666666667 347.5825195541672 74.66666666666667"/><polygon points="404.7127132604246 53.333333333333336 414.8457996621299 53.333333333333336 405.03603808853245 74.66666666666667 392.1017510344385 74.66666666666667"/><polygon points="396.25609790065215 53.333333333333336 453.7463116196149 53.333333333333336 441.11394430390067 74.66666666666667 433.95586070802864 74.66666666666667"/><polygon points="479.42495697107535 53.333333333333336 500.12878443474204 53.333333333333336 458.1767036445213 74.66666666666667 484.4595879404778 74.66666666666667"/><polygon points="10.666666666666666 95.99999999999999 38.811990780406276 95.99999999999999 32 117.33333333333333 10.289187246612887 117.33333333333333"/><polygon points="49.155309322527714 95.99999999999999 68.21805400027712 95.99999999999999 76.88874230557353 117.33333333333333 43.77889135049929 117.33333333333333"/><polygon points="93.24373397354124 95.99999999999999 125.21735776648737 95.99999999999999 107.13691578480025 117.33333333333333 99.11240258215344 117.33333333333333"/><polygon points="151.8433814210934 95.99999999999999 162.33563184953712 95.99999999999999 165.59653911488797 117.33333333333333 142.886361463627 117.33333333333333"/><polygon points="163.78486107144926 95.99999999999999 201.34035956869948 95.99999999999999 204.95238282108073 117.33333333333333 175.09361466503998 117.33333333333333"/><polygon points="209.57697608003807 95.99999999999999 241.6380726143746 95.99999999999999 227.6852642160984 117.33333333333333 220.65922338807465 117.33333333333333"/><polygon points="237.32759759734455 95.99999999999999 296.61627890825224 95.99999999999999 284.3157794269615 117.33333333333333 266.9815203419288 117.33333333333333"/><polygon points="306.55970937592934 95.99999999999999 341.2979279574139 95.99999999999999 297.54656256596104 117.33333333333333 303.71434988031933 117.33333333333333"/><polygon points="345.0176661043184 95.99999999999999 380.390806865541 95.99999999999999 333.4511340497563 117.33333333333333 362.156461447875 117.33333333333333"/><polygon points="347.7280037458802 95.99999999999999 411.89235613250645 95.99999999999999 425.9394244457087 117.33333333333333 401.8434473889054 117.33333333333333"/><polygon points="387.2282092605703 95.99999999999999 452.9020459994605 95.99999999999999 408.68816619219757 117.33333333333333 431.3735276326095 117.33333333333333"/><polygon points="458.2523381969399 95.99999999999999 503.22815702651286 95.99999999999999 512.8849282802287 117.33333333333333 487.7976552854356 117.33333333333333"/><polygon points="10.666666666666666 138.66666666666669 31.93884671897834 138.66666666666669 32 160 -1.189529679113047 160"/><polygon points="58.625236812430146 138.66666666666669 81.25329621518128 138.66666666666669 77.28812286578867 160 61.47331667850442 160"/><polygon points="105.64091860983362 138.66666666666669 114.83250306019588 138.66666666666669 115.39871485507022 160 83.76127667920424 160"/><polygon points="142.3087758821271 138.66666666666669 149.43204749006117 138.66666666666669 150.8471736823573 160 123.10360255043906 160"/><polygon points="170.87006401008063 138.66666666666669 213.18339635521892 138.66666666666669 213.0392650932133 160 167.42835545830727 160"/><polygon points="205.5414648851481 138.66666666666669 234.6247842799405 138.66666666666669 240.63368103245097 160 214.34460237461698 160"/><polygon points="286.74599294219576 138.66666666666669 280.409143952018 138.66666666666669 261.86664186749056 160 253.26455658147273 160"/><polygon points="338.1633133400614 138.66666666666669 319.4447955314864 138.66666666666669 354.12832442932 160 307.47002358292355 160"/><polygon points="369.3773184904952 138.66666666666669 384.0924583744621 138.66666666666669 341.01983144941295 160 363.49890927785134 160"/><polygon points="347.68047845117553 138.66666666666669 406.7784764685132 138.66666666666669 381.1271733242303 160 406.9987588262834 160"/><polygon points="429.5876963957297 138.66666666666669 451.7526605443553 138.66666666666669 431.315086125026 160 422.89107003034917 160"/><polygon points="524.4439009855549 138.66666666666669 503.2406414910746 138.66666666666669 450.04740971049296 160 465.1995566897492 160"/><polygon points="10.666666666666666 181.33333333333334 16.96116066220758 181.33333333333334 32 202.66666666666666 -0.9826020795456607 202.66666666666666"/><polygon points="49.78070117295306 181.33333333333334 83.7111900425864 181.33333333333334 74.9654704937096 202.66666666666666 43.82683546543528 202.66666666666666"/><polygon points="105.59302978962485 181.33333333333334 102.17749820115708 181.33333333333334 125.29330434865646 202.66666666666666 111.39263993119492 202.66666666666666"/><polygon points="143.130085144146 181.33333333333334 163.88387506482917 181.33333333333334 154.70163200212804 202.66666666666666 147.22573060880237 202.66666666666666"/><polygon points="171.78462409077355 181.33333333333334 209.28664816106118 181.33333333333334 206.0943936185921 202.66666666666666 202.4303426293723 202.66666666666666"/><polygon points="200.62207032742828 181.33333333333334 227.37632698055552 181.33333333333334 239.21801456857375 202.66666666666666 239.9553968381906 202.66666666666666"/><polygon points="259.1378667457847 181.33333333333334 294.5168614636077 181.33333333333334 284.8943656263089 202.66666666666666 250.2695098140343 202.66666666666666"/><polygon points="305.2914774956816 181.33333333333334 318.12118202475204 181.33333333333334 327.3052706503036 202.66666666666666 295.2133759561388 202.66666666666666"/><polygon points="325.56818200988084 181.33333333333334 381.3685845488833 181.33333333333334 397.27167481884277 202.66666666666666 357.7623689463569 202.66666666666666"/><polygon points="397.51511386192976 181.33333333333334 416.17426880214595 181.33333333333334 428.411258837044 202.66666666666666 391.74561211297964 202.66666666666666"/><polygon points="477.18852659186507 181.33333333333334 470.54278291510946 181.33333333333334 448.01176587022894 202.66666666666666 434.47323512989436 202.66666666666666"/><polygon points="492.92176643041057 181.33333333333334 499.65991987927225 181.33333333333334 471.6997665130841 202.66666666666666 491.3426898050114 202.66666666666666"/><polygon points="10.666666666666666 224 43.42419470204693 224 32 245.33333333333331 15.735239795927772 245.33333333333331"/><polygon points="52.52098176526182 224 65.92582598510658 224 75.18257431727716 245.33333333333331 75.89655692758268 245.33333333333331"/><polygon points="88.97986781665463 224 114.45718326526699 224 112.65766476536722 245.33333333333331 73.84471478594696 245.33333333333331"/><polygon points="129.57478817798892 224 135.26896903124748 224 173.60015173604648 245.33333333333331 159.51223885851041 245.33333333333331"/><polygon points="161.0439094204836 224 221.5748508512058 224 190.86278331929856 245.33333333333331 161.60022074628972 245.33333333333331"/><polygon points="220.1197506087958 224 251.71610910521161 224 259.63966105031346 245.33333333333331 205.2995750756325 245.33333333333331"/><polygon points="257.0269439646217 224 313.3810216633955 224 284.5634016129059 245.33333333333331 262.19315134167545 245.33333333333331"/><polygon points="299.1105424689611 224 353.2132050369923 224 366.92683525798 245.33333333333331 308.24842972140624 245.33333333333331"/><polygon points="322.8771089623639 224 350.227669166699 224 410.58105635511106 245.33333333333331 336.4293708582405 245.33333333333331"/><polygon points="370.2796973963738 224 417.14078876376396 224 415.26037096071786 245.33333333333331 415.5407163128136 245.33333333333331"/><polygon points="420.35217283931763 224 475.76624666458804 224 439.55089008825826 245.33333333333331 457.66949323738186 245.33333333333331"/><polygon points="508.2726674279997 224 500.31248317084817 224 454.1477589755176 245.33333333333331 499.57525729851733 245.33333333333331"/><polygon points="10.666666666666666 266.66666666666663 44.45966346727816 266.66666666666663 32 288 -3.389923997982013 288"/><polygon points="58.42577644427056 266.66666666666663 80.67715821606325 266.66666666666663 69.97963278616787 288 21.483331732028184 288"/><polygon points="97.14875663491833 266.66666666666663 86.26676349593396 266.66666666666663 126.85492328611565 288 113.47237551518296 288"/><polygon points="138.8759725781567 266.66666666666663 152.0297557210163 266.66666666666663 159.1870208858829 288 144.1234732279602 288"/><polygon points="202.58970095426298 266.66666666666663 178.04587403542897 266.66666666666663 192.38007290581376 288 160.36537261470946 288"/><polygon points="208.82550717125304 266.66666666666663 250.10908659520814 266.66666666666663 266.25199984619024 288 201.0509439490949 288"/><polygon points="269.154510845191 266.66666666666663 281.50877224829065 266.66666666666663 258.2997450785271 288 270.2999758315808 288"/><polygon points="342.04588919384685 266.66666666666663 338.4982392574688 266.66666666666663 299.5200038347462 288 310.65173893591896 288"/><polygon points="344.5848696354146 266.66666666666663 355.587696080772 266.66666666666663 401.35853557438725 288 336.6396460413983 288"/><polygon points="428.20089618624564 266.66666666666663 434.6427026223543 266.66666666666663 427.23516210717537 288 417.5328817784512 288"/><polygon points="428.629921236752 266.66666666666663 461.06042907553183 266.66666666666663 448.68578413546 288 436.26102652676855 288"/><polygon points="519.051659226742 266.66666666666663 492.5211609877308 266.66666666666663 542.0707251432525 288 500.21226754701826 288"/><polygon points="10.666666666666666 309.33333333333326 64.44387959114928 309.33333333333326 32 330.66666666666663 -2.9221012494781284 330.66666666666663"/><polygon points="48.551232338102416 309.33333333333326 44.401517067809316 309.33333333333326 72.0353948779691 330.66666666666663 57.87082785346173 330.66666666666663"/><polygon points="92.82871096681198 309.33333333333326 106.07794051195074 309.33333333333326 122.98118397222999 330.66666666666663 64.70932882373698 330.66666666666663"/><polygon points="138.8065159951053 309.33333333333326 152.36083930148408 309.33333333333326 153.23075990332208 330.66666666666663 174.75650774276488 330.66666666666663"/><polygon points="193.6545792512865 309.33333333333326 185.32308737399563 309.33333333333326 197.59714291608222 330.66666666666663 157.46092263164823 330.66666666666663"/><polygon points="200.1384883828277 309.33333333333326 233.09946595416903 309.33333333333326 255.94093887083577 330.66666666666663 206.02655481112052 330.66666666666663"/><polygon points="289.275361372127 309.33333333333326 273.8748955989885 309.33333333333326 256.36774001947475 330.66666666666663 274.94134491150555 330.66666666666663"/><polygon points="307.149990998043 309.33333333333326 327.28556182462154 309.33333333333326 309.9958223076593 330.66666666666663 285.971377942815 330.66666666666663"/><polygon points="373.7532975069894 309.33333333333326 352.12625116860613 309.33333333333326 339.65809198440104 330.66666666666663 376.8386990835848 330.66666666666663"/><polygon points="359.1507181951208 309.33333333333326 391.3988394656402 309.33333333333326 389.585397330588 330.66666666666663 390.24866066694705 330.66666666666663"/><polygon points="419.9195566485354 309.33333333333326 468.2537710433949 309.33333333333326 439.7381021386517 330.66666666666663 472.2409431186945 330.66666666666663"/><polygon points="444.32932727674614 309.33333333333326 519.59884690144 309.33333333333326 521.2684113690389 330.66666666666663 467.1597441567673 330.66666666666663"/><polygon points="10.666666666666666 351.99999999999994 15.760318775716465 351.99999999999994 32 373.3333333333333 22.279258892643362 373.3333333333333"/><polygon points="55.099901035298856 351.99999999999994 33.54393561961017 351.99999999999994 79.11649924486412 373.3333333333333 16.283192900854452 373.3333333333333"/><polygon points="94.46205242871314 351.99999999999994 149.78847869479952 351.99999999999994 107.32065444129864 373.3333333333333 71.25716985287922 373.3333333333333"/><polygon points="132.91294203360803 351.99999999999994 158.15597654539948 351.99999999999994 166.10039670378958 373.3333333333333 171.66229408088344 373.3333333333333"/><polygon points="200.7495541909209 351.99999999999994 190.85036508473857 351.99999999999994 220.09958266384552 373.3333333333333 184.39763630008483 373.3333333333333"/><polygon points="219.91917639592043 351.99999999999994 221.19333723374723 351.99999999999994 225.3815416749533 373.3333333333333 249.76502334648876 373.3333333333333"/><polygon points="259.92531433293254 351.99999999999994 328.10144361092046 351.99999999999994 288.8332434277695 373.3333333333333 279.28213368857143 373.3333333333333"/><polygon points="318.09375884318 351.99999999999994 361.4132375687349 351.99999999999994 328.6198532001663 373.3333333333333 319.1328147898822 373.3333333333333"/><polygon points="332.15548062664163 351.99999999999994 358.91060947042655 351.99999999999994 380.5669197441488 373.3333333333333 319.11147929693163 373.3333333333333"/><polygon points="438.54412151805326 351.99999999999994 412.6601319981659 351.99999999999994 391.5763769978099 373.3333333333333 383.05481044669193 373.3333333333333"/><polygon points="450.2546032189277 351.99999999999994 467.77699126739236 351.99999999999994 473.2317829014758 373.3333333333333 439.9954706177313 373.3333333333333"/><polygon points="493.3895531759299 351.99999999999994 508.69297841658016 351.99999999999994 466.8500827218799 373.3333333333333 504.1703736914333 373.3333333333333"/><polygon points="10.666666666666666 394.66666666666663 10.134462965963706 394.66666666666663 32 416 47.07391727546998 416"/><polygon points="54.6129115277306 394.66666666666663 106.06981156800184 394.66666666666663 70.6779271100885 416 23.05426757798432 416"/><polygon points="91.32384164231708 394.66666666666663 128.94236839335167 394.66666666666663 111.88562648919016 416 106.92116103908266 416"/><polygon points="151.66323242165782 394.66666666666663 147.3995301353335 394.66666666666663 148.44416579491218 416 91.12569476868437 416"/><polygon points="176.5860277575194 394.66666666666663 173.4815926010487 394.66666666666663 193.0709478106294 416 218.26807057956344 416"/><polygon points="201.17619125102388 394.66666666666663 210.39536592188452 394.66666666666663 228.59206949143658 416 212.64595518057288 416"/><polygon points="281.18019393879763 394.66666666666663 300.4225327931185 394.66666666666663 318.86443423189274 416 230.93351404862102 416"/><polygon points="292.0324511726552 394.66666666666663 323.47909076624785 394.66666666666663 363.46212271700904 416 314.51608863051325 416"/><polygon points="394.18619270410414 394.66666666666663 356.61308178246117 394.66666666666663 385.75354986796305 416 386.1398564486172 416"/><polygon points="442.537811831115 394.66666666666663 424.6683353669365 394.66666666666663 438.3371983552863 416 392.94062689537407 416"/><polygon points="384.7555420624406 394.66666666666663 451.15418193413393 394.66666666666663 408.7631354873192 416 474.9733807453938 416"/><polygon points="494.27154928407845 394.66666666666663 535.1355256058268 394.66666666666663 494.7444810725836 416 517.4684175403687 416"/><polygon points="10.666666666666666 437.33333333333326 24.320518601361194 437.33333333333326 32 458.66666666666663 28.39324903540336 458.66666666666663"/><polygon points="54.671178320610395 437.33333333333326 51.868691317505274 437.33333333333326 72.09501944442404 458.66666666666663 27.16068636017492 458.66666666666663"/><polygon points="100.80831214928808 437.33333333333326 84.58284491198856 437.33333333333326 111.81883314226856 458.66666666666663 92.35440170557531 458.66666666666663"/><polygon points="140.67119908428322 437.33333333333326 122.03162847264178 437.33333333333326 150.86274143962086 458.66666666666663 105.34757656132315 458.66666666666663"/><polygon points="166.06064282454776 437.33333333333326 166.79320578267743 437.33333333333326 191.59578354834366 458.66666666666663 156.15057555756502 458.66666666666663"/><polygon points="237.6539856694748 437.33333333333326 203.35241951698697 437.33333333333326 271.31483492226914 458.66666666666663 199.03198800514554 458.66666666666663"/><polygon points="244.42935722087424 437.33333333333326 297.72531578354676 437.33333333333326 308.3999804099575 458.66666666666663 297.7536425659869 458.66666666666663"/><polygon points="290.8301296191247 437.33333333333326 289.8866828781278 437.33333333333326 317.1541628385037 458.66666666666663 325.0341811451744 458.66666666666663"/><polygon points="332.6192149372538 437.33333333333326 416.1741768638704 437.33333333333326 402.669499912469 458.66666666666663 395.2322292066191 458.66666666666663"/><polygon points="435.9978187799156 437.33333333333326 395.9138930559484 437.33333333333326 445.88365443200547 458.66666666666663 447.36590184799826 458.66666666666663"/><polygon points="415.4770574244677 437.33333333333326 423.1282682055071 437.33333333333326 452.31790326084274 458.66666666666663 421.39419320146504 458.66666666666663"/><polygon points="500.4399976687712 437.33333333333326 467.82869280823684 437.33333333333326 511.8182666239962 458.66666666666663 465.7620225665378 458.66666666666663"/><polygon points="10.666666666666666 479.99999999999994 4.79510356821234 479.99999999999994 32 501.3333333333333 57.9364851581027 501.3333333333333"/><polygon points="49.315309424217745 479.99999999999994 34.79471335155327 479.99999999999994 70.41448315291197 501.3333333333333 61.67537815503599 501.3333333333333"/><polygon points="88.21533797851069 479.99999999999994 71.59838156997853 479.99999999999994 121.97423671605827 501.3333333333333 139.7716928932018 501.3333333333333"/><polygon points="123.31074997146332 479.99999999999994 216.47649312944242 479.99999999999994 168.81022178539203 501.3333333333333 96.81960947005382 501.3333333333333"/><polygon points="173.35645701655827 479.99999999999994 201.86791288344187 479.99999999999994 193.66821598259125 501.3333333333333 157.97014517573302 501.3333333333333"/><polygon points="220.2531445168282 479.99999999999994 225.99308027141495 479.99999999999994 266.529782175076 501.3333333333333 230.33660716764803 501.3333333333333"/><polygon points="298.02975273764974 479.99999999999994 344.6461499303489 479.99999999999994 256.72486865491345 501.3333333333333 257.5261642758657 501.3333333333333"/><polygon points="330.6372863889246 479.99999999999994 368.9367511635521 479.99999999999994 353.81882244548706 501.3333333333333 346.95802415591515 501.3333333333333"/><polygon points="317.98338808543275 479.99999999999994 413.69011034084724 479.99999999999994 356.10656175266917 501.3333333333333 353.57275263065526 501.3333333333333"/><polygon points="440.1204339346835 479.99999999999994 437.957700325682 479.99999999999994 398.457454328391 501.3333333333333 359.4300369813406 501.3333333333333"/><polygon points="437.1178014793041 479.99999999999994 429.0071855531516 479.99999999999994 463.0042509844849 501.3333333333333 382.2661861007338 501.3333333333333"/><polygon points="497.0384639161108 479.99999999999994 496.77434940539416 479.99999999999994 485.6973163166844 501.3333333333333 495.9240416213598 501.3333333333333"/>
</svg>
