<?xml version="1.0" encoding="UTF-8"?>
<svg xmlns="http://www.w3.org/2000/svg" id="RSSicon" viewBox="0 0 512 512" width="512" height="512">
  <defs>
    <style type="text/css">
      svg {
        background: black;
        margin: calc(50vh - 256px) auto 0;
      }
      
      polygon {stroke: darkorange; fill: none;}
    </style>
  </defs>
  <polygon points="10.666666666666666 10.666666666666666 32 10.666666666666666 32 32 10.666666666666666 32"/><polygon points="51.59919808185907 10.666666666666666 74.66666666666667 10.666666666666666 75.71311696264772 32 53.333333333333336 32"/><polygon points="98.0775457927949 10.666666666666666 117.33333333333333 10.666666666666666 108.65841589614183 32 95.99999999999999 32"/><polygon points="137.63596382840595 10.666666666666666 160 10.666666666666666 146.95471943198496 32 138.66666666666669 32"/><polygon points="160.42877957611418 10.666666666666666 202.66666666666666 10.666666666666666 221.43347730942995 32 181.33333333333334 32"/><polygon points="203.82953575233788 10.666666666666666 245.33333333333331 10.666666666666666 247.99905178382423 32 224 32"/><polygon points="239.92581831800754 10.666666666666666 288 10.666666666666666 303.18086249435817 32 266.66666666666663 32"/><polygon points="306.7835172694106 10.666666666666666 330.66666666666663 10.666666666666666 366.4707026938498 32 309.33333333333326 32"/><polygon points="326.4705607456971 10.666666666666666 373.3333333333333 10.666666666666666 383.5704064119283 32 351.99999999999994 32"/><polygon points="428.203150549261 10.666666666666666 416 10.666666666666666 455.5486767902422 32 394.66666666666663 32"/><polygon points="390.6735213609264 10.666666666666666 458.66666666666663 10.666666666666666 503.40267950713843 32 437.33333333333326 32"/><polygon points="490.3378725512835 10.666666666666666 501.3333333333333 10.666666666666666 538.76852074607 32 479.99999999999994 32"/><polygon points="10.666666666666666 53.333333333333336 31.489624312890022 53.333333333333336 32 74.66666666666667 12.229413248862919 74.66666666666667"/><polygon points="53.50808320201496 53.333333333333336 76.76558885940645 53.333333333333336 75.19627669026957 74.66666666666667 50.68480236590343 74.66666666666667"/><polygon points="87.94904625687899 53.333333333333336 121.78241692877421 53.333333333333336 109.23665203209524 74.66666666666667 92.47304863896831 74.66666666666667"/><polygon points="138.95109157079256 53.333333333333336 156.30842788258013 53.333333333333336 170.1515027867822 74.66666666666667 133.81809360756318 74.66666666666667"/><polygon points="196.5257618883935 53.333333333333336 205.35140363830595 53.333333333333336 202.02950844372677 74.66666666666667 183.35774618806235 74.66666666666667"/><polygon points="216.17564526228887 53.333333333333336 244.4619973597272 53.333333333333336 231.83197494506481 74.66666666666667 220.76754430085597 74.66666666666667"/><polygon points="241.22815888940463 53.333333333333336 291.1890994949301 53.333333333333336 257.8059706224154 74.66666666666667 266.6080356694901 74.66666666666667"/><polygon points="344.7601655030314 53.333333333333336 333.9989411438263 53.333333333333336 366.9731870655611 74.66666666666667 304.9630306791413 74.66666666666667"/><polygon points="365.07012636155486 53.333333333333336 370.03716596365405 53.333333333333336 411.5845195028042 74.66666666666667 349.2278772958236 74.66666666666667"/><polygon points="417.5160954096021 53.333333333333336 412.8699019226567 53.333333333333336 454.77325322842944 74.66666666666667 397.23041207596236 74.66666666666667"/><polygon points="487.80179544346606 53.333333333333336 454.1030087017901 53.333333333333336 415.5133241098232 74.66666666666667 442.275201144563 74.66666666666667"/><polygon points="429.40743004513223 53.333333333333336 499.6662809897442 53.333333333333336 447.18987855723174 74.66666666666667 482.79105455117616 74.66666666666667"/><polygon points="10.666666666666666 95.99999999999999 35.43805182551257 95.99999999999999 32 117.33333333333333 20.01834413331028 117.33333333333333"/><polygon points="48.658063797258464 95.99999999999999 82.15445747139154 95.99999999999999 78.09394707126226 117.33333333333333 53.308996718937536 117.33333333333333"/><polygon points="92.9669597304649 95.99999999999999 121.33996220662385 95.99999999999999 112.96786085688599 117.33333333333333 97.4315552179409 117.33333333333333"/><polygon points="149.28685230598091 95.99999999999999 157.9271192846987 95.99999999999999 159.36686788166077 117.33333333333333 148.522285258213 117.33333333333333"/><polygon points="163.8799661810272 95.99999999999999 198.00275080448637 95.99999999999999 199.00983577465368 117.33333333333333 189.950159126334 117.33333333333333"/><polygon points="236.30981055651577 95.99999999999999 248.06252539843106 95.99999999999999 252.7679321250631 117.33333333333333 234.4001922571265 117.33333333333333"/><polygon points="243.15852233023773 95.99999999999999 279.6495559110693 95.99999999999999 312.3225582587246 117.33333333333333 277.2283725527555 117.33333333333333"/><polygon points="301.63246746338444 95.99999999999999 325.6041866182777 95.99999999999999 327.97731883896915 117.33333333333333 317.2692970706787 117.33333333333333"/><polygon points="377.0775107233113 95.99999999999999 382.9719185000845 95.99999999999999 409.69681972180405 117.33333333333333 342.9056804615097 117.33333333333333"/><polygon points="379.29212832910713 95.99999999999999 407.10237710568657 95.99999999999999 440.6155031493471 117.33333333333333 395.4489272235997 117.33333333333333"/><polygon points="478.0055508736157 95.99999999999999 454.3140109700822 95.99999999999999 509.31724640544024 117.33333333333333 444.35662688861163 117.33333333333333"/><polygon points="428.4764385519611 95.99999999999999 507.29969307077715 95.99999999999999 462.14236611651285 117.33333333333333 483.38618283736594 117.33333333333333"/><polygon points="10.666666666666666 138.66666666666669 20.099326956675377 138.66666666666669 32 160 16.30309192465569 160"/><polygon points="58.296996076934974 138.66666666666669 74.07406920382793 138.66666666666669 72.06515019164699 160 58.28788737616418 160"/><polygon points="88.35910095284122 138.66666666666669 122.05691330843321 138.66666666666669 116.04326135905447 160 91.5834867045969 160"/><polygon points="143.00229686740215 138.66666666666669 147.1315647219697 138.66666666666669 170.42853389961644 160 125.23197379054616 160"/><polygon points="201.74591450752357 138.66666666666669 207.14598834261471 138.66666666666669 193.57654283740044 160 172.2069823995005 160"/><polygon points="241.5784894846732 138.66666666666669 253.76448999738554 138.66666666666669 237.01499615595935 160 222.55962728122526 160"/><polygon points="247.9497240795266 138.66666666666669 303.1097477932435 138.66666666666669 292.82798485285053 160 281.37008393895655 160"/><polygon points="338.2622239974287 138.66666666666669 345.37535306528474 138.66666666666669 366.4780254856161 160 319.3403480762179 160"/><polygon points="351.30921081028015 138.66666666666669 362.57913150506926 138.66666666666669 393.23820051850055 160 337.17157976508156 160"/><polygon points="396.29735575017503 138.66666666666669 410.19873375545046 138.66666666666669 427.11356029991816 160 398.35218423564015 160"/><polygon points="397.12306564774525 138.66666666666669 463.1479408223828 138.66666666666669 438.4759678421619 160 425.3993808126168 160"/><polygon points="469.8750403133219 138.66666666666669 510.4689706237638 138.66666666666669 493.3836697047308 160 480.50317817488957 160"/><polygon points="10.666666666666666 181.33333333333334 48.497870438175056 181.33333333333334 32 202.66666666666666 25.878939756366965 202.66666666666666"/><polygon points="58.640500963711226 181.33333333333334 83.51193016856296 181.33333333333334 69.41119728696623 202.66666666666666 41.92580952762341 202.66666666666666"/><polygon points="98.10965821143779 181.33333333333334 122.38028583105995 181.33333333333334 118.15700643280941 202.66666666666666 93.18238053116923 202.66666666666666"/><polygon points="128.16220804478687 181.33333333333334 168.4330849343221 181.33333333333334 149.50673786724872 202.66666666666666 159.2390869057687 202.66666666666666"/><polygon points="182.30100848923598 181.33333333333334 211.83191824677527 181.33333333333334 203.04004571723206 202.66666666666666 188.7038146848222 202.66666666666666"/><polygon points="203.55729037881198 181.33333333333334 240.8623496053605 181.33333333333334 225.01368458777588 202.66666666666666 207.57101134882456 202.66666666666666"/><polygon points="244.53266289559238 181.33333333333334 290.6367732244438 181.33333333333334 281.18450319486544 202.66666666666666 248.91793312500985 202.66666666666666"/><polygon points="346.4165803457912 181.33333333333334 310.5164384392378 181.33333333333334 314.66964995998563 202.66666666666666 329.1415492873066 202.66666666666666"/><polygon points="346.1658343670959 181.33333333333334 393.6052316234641 181.33333333333334 333.6893552616781 202.66666666666666 359.10478389389414 202.66666666666666"/><polygon points="405.55428669596614 181.33333333333334 405.94950588746116 181.33333333333334 387.3032311009033 202.66666666666666 404.54731646205653 202.66666666666666"/><polygon points="416.2320967209602 181.33333333333334 462.71059382588766 181.33333333333334 485.7232451654046 202.66666666666666 451.95767496170396 202.66666666666666"/><polygon points="504.60788091175993 181.33333333333334 513.9889814432444 181.33333333333334 525.6504316502693 202.66666666666666 485.6526686160674 202.66666666666666"/><polygon points="10.666666666666666 224 55.80487197785486 224 32 245.33333333333331 -2.2696704105756957 245.33333333333331"/><polygon points="55.683545000787106 224 73.4349614080641 224 75.56511898894179 245.33333333333331 72.82680635879532 245.33333333333331"/><polygon points="104.62852557954035 224 124.43596645321597 224 118.00863824302087 245.33333333333331 105.14032770002622 245.33333333333331"/><polygon points="124.47141833540945 224 166.49335370756538 224 168.79012168890267 245.33333333333331 131.2724992330006 245.33333333333331"/><polygon points="196.46947097770118 224 181.61355344046333 224 184.31593923226927 245.33333333333331 199.5174666136391 245.33333333333331"/><polygon points="233.3754614473026 224 229.27160316420137 224 255.93030054300192 245.33333333333331 246.3745118422425 245.33333333333331"/><polygon points="241.3688893875024 224 284.30863586776985 224 264.7136586199546 245.33333333333331 240.17092576259327 245.33333333333331"/><polygon points="282.6900797746035 224 316.9320151209516 224 350.0679932766627 245.33333333333331 334.6536154430238 245.33333333333331"/><polygon points="385.4112358405324 224 381.6143845034866 224 395.3831633872566 245.33333333333331 328.82466798418983 245.33333333333331"/><polygon points="365.72395339663916 224 430.3370113462273 224 394.930629410743 245.33333333333331 392.42853267619404 245.33333333333331"/><polygon points="453.48324102529625 224 440.3084739343382 224 455.5911817480758 245.33333333333331 446.2150227892058 245.33333333333331"/><polygon points="428.4738966306522 224 482.4399039069041 224 488.80632989182453 245.33333333333331 499.70726409274056 245.33333333333331"/><polygon points="10.666666666666666 266.66666666666663 7.503072423566493 266.66666666666663 32 288 -10.246863530345724 288"/><polygon points="54.537636717244936 266.66666666666663 104.925793619366 266.66666666666663 79.14838084389231 288 72.61504776231294 288"/><polygon points="104.24381824075657 266.66666666666663 131.44487960380485 266.66666666666663 114.19620258835216 288 85.94296043894644 288"/><polygon points="154.36097613861855 266.66666666666663 137.84946099458162 266.66666666666663 173.6809951126006 288 116.72925733546248 288"/><polygon points="163.53317864733455 266.66666666666663 191.76988024830877 266.66666666666663 193.99528990904395 288 212.5430874212615 288"/><polygon points="248.61693284340404 266.66666666666663 255.7591728556677 266.66666666666663 250.1381811561352 288 233.01134189029082 288"/><polygon points="297.0972636549477 266.66666666666663 295.06638151228435 266.66666666666663 308.50236772339423 288 252.62359102076923 288"/><polygon points="314.8978574305468 266.66666666666663 303.7089850383532 266.66666666666663 349.71977497656655 288 310.1418686190788 288"/><polygon points="356.29958285661667 266.66666666666663 373.4430559380429 266.66666666666663 393.1577685700246 288 323.97987523326094 288"/><polygon points="423.1334273252426 266.66666666666663 385.13411523531107 266.66666666666663 426.6576729843571 288 395.77341800616705 288"/><polygon points="424.4028387396817 266.66666666666663 455.92758866852165 266.66666666666663 433.6906697577811 288 414.5587215588818 288"/><polygon points="444.70424457924673 266.66666666666663 481.9603867312056 266.66666666666663 467.08192153012754 288 483.3660167066642 288"/><polygon points="10.666666666666666 309.33333333333326 28.582348797157664 309.33333333333326 32 330.66666666666663 -19.594839930052 330.66666666666663"/><polygon points="52.99207361999863 309.33333333333326 100.01042183027245 309.33333333333326 71.68841985026498 330.66666666666663 47.4916110396767 330.66666666666663"/><polygon points="105.40261932549596 309.33333333333326 118.05202445133244 309.33333333333326 114.83267701294305 330.66666666666663 88.11662000501448 330.66666666666663"/><polygon points="142.65805840114933 309.33333333333326 193.31296571057584 309.33333333333326 155.87767334490982 330.66666666666663 138.06331343460252 330.66666666666663"/><polygon points="162.31396390922444 309.33333333333326 165.4220620085407 309.33333333333326 185.26224720001431 330.66666666666663 151.46732761406838 330.66666666666663"/><polygon points="224.33649087981607 309.33333333333326 272.0087570753231 309.33333333333326 221.98456743805053 330.66666666666663 253.9009353259171 330.66666666666663"/><polygon points="246.5737118287567 309.33333333333326 281.5086331577511 309.33333333333326 282.48834848649017 330.66666666666663 265.0646048961507 330.66666666666663"/><polygon points="340.3335802522058 309.33333333333326 345.8430366578587 309.33333333333326 335.2457405843669 330.66666666666663 290.7592409621661 330.66666666666663"/><polygon points="383.4054253167928 309.33333333333326 370.34931239211994 309.33333333333326 331.8013035225153 330.66666666666663 363.1159181059731 330.66666666666663"/><polygon points="351.9397531793492 309.33333333333326 384.3795765272965 309.33333333333326 381.04058554588744 330.66666666666663 407.78707035234993 330.66666666666663"/><polygon points="475.34868199603477 309.33333333333326 430.33208322425224 309.33333333333326 453.86264711204166 330.66666666666663 468.8740299380959 330.66666666666663"/><polygon points="471.53160404893356 309.33333333333326 494.9651138828353 309.33333333333326 521.2154344874151 330.66666666666663 444.9344869348969 330.66666666666663"/><polygon points="10.666666666666666 351.99999999999994 45.598499892807766 351.99999999999994 32 373.3333333333333 -6.848880699899212 373.3333333333333"/><polygon points="48.35704802505283 351.99999999999994 101.98656789713175 351.99999999999994 76.12966858113208 373.3333333333333 24.72999417185916 373.3333333333333"/><polygon points="93.302531336227 351.99999999999994 137.9555336752489 351.99999999999994 108.40924081619485 373.3333333333333 124.39125045525233 373.3333333333333"/><polygon points="142.92918882971435 351.99999999999994 132.63308059483398 351.99999999999994 150.1166658540444 373.3333333333333 165.9960205139197 373.3333333333333"/><polygon points="183.45993332437584 351.99999999999994 237.21180957990464 351.99999999999994 216.3515130384304 373.3333333333333 183.61668600153672 373.3333333333333"/><polygon points="212.9664387753564 351.99999999999994 222.87106264832224 351.99999999999994 225.05783328365 373.3333333333333 260.1865926879802 373.3333333333333"/><polygon points="241.80771179904823 351.99999999999994 319.5946673887373 351.99999999999994 288.0378779622197 373.3333333333333 296.8723400613377 373.3333333333333"/><polygon points="331.38868844501496 351.99999999999994 372.0861605507637 351.99999999999994 338.03376290040086 373.3333333333333 310.9830005148518 373.3333333333333"/><polygon points="315.07564240528893 351.99999999999994 339.48754436751904 351.99999999999994 385.709343654916 373.3333333333333 391.80325604448484 373.3333333333333"/><polygon points="413.95245753563773 351.99999999999994 450.96967239890716 351.99999999999994 439.3740207932069 373.3333333333333 363.83574888078084 373.3333333333333"/><polygon points="430.1521536564609 351.99999999999994 417.1298147094863 351.99999999999994 484.5220384360333 373.3333333333333 410.8076126181751 373.3333333333333"/><polygon points="514.1770490489872 351.99999999999994 522.535464183438 351.99999999999994 501.35241250677893 373.3333333333333 474.3543936612791 373.3333333333333"/><polygon points="10.666666666666666 394.66666666666663 9.818780656282238 394.66666666666663 32 416 19.50638843164007 416"/><polygon points="52.94326957606401 394.66666666666663 60.8953699181292 394.66666666666663 69.3978816051721 416 68.13790247449839 416"/><polygon points="86.88352278449226 394.66666666666663 108.70088166949735 394.66666666666663 121.12114806668755 416 64.24790888615175 416"/><polygon points="142.65913225450151 394.66666666666663 184.887918069442 394.66666666666663 160.4126095937171 416 143.42967253249972 416"/><polygon points="202.32006354960447 394.66666666666663 217.48753045891957 394.66666666666663 184.46576292028467 416 163.3691979252213 416"/><polygon points="248.0699533285425 394.66666666666663 243.9953459103214 394.66666666666663 249.09546968560326 416 249.81234550660696 416"/><polygon points="289.5060179182744 394.66666666666663 319.7508521294436 394.66666666666663 265.67726012252615 416 306.5795629620838 416"/><polygon points="332.2283209833634 394.66666666666663 319.7076358673499 394.66666666666663 354.644603143982 416 277.90399616388277 416"/><polygon points="342.6628253470855 394.66666666666663 371.59098415240396 394.66666666666663 352.65304210495356 416 392.86119656338207 416"/><polygon points="347.72313158520296 394.66666666666663 454.7651676596812 394.66666666666663 391.5150811421058 416 359.36432104283597 416"/><polygon points="473.5266241972318 394.66666666666663 483.312596542315 394.66666666666663 504.2015383752231 416 441.87464225447394 416"/><polygon points="450.6696021622728 394.66666666666663 479.28044868794643 394.66666666666663 518.9724998260882 416 459.6352119589024 416"/><polygon points="10.666666666666666 437.33333333333326 75.5598675541241 437.33333333333326 32 458.66666666666663 21.175072649037467 458.66666666666663"/><polygon points="50.13948762566817 437.33333333333326 39.73758855915992 437.33333333333326 69.8482550622953 458.66666666666663 71.01230035804899 458.66666666666663"/><polygon points="99.45477788385446 437.33333333333326 68.40369971276404 437.33333333333326 117.08600649312669 458.66666666666663 138.80337736705 458.66666666666663"/><polygon points="123.4371110954624 437.33333333333326 155.75948820787346 437.33333333333326 170.30091235673234 458.66666666666663 176.96291460226874 458.66666666666663"/><polygon points="182.28535691468048 437.33333333333326 195.80276991177053 437.33333333333326 199.53698970809924 458.66666666666663 210.83803008218788 458.66666666666663"/><polygon points="203.185659292463 437.33333333333326 274.7433409443062 437.33333333333326 228.11951848206587 458.66666666666663 209.32981509982974 458.66666666666663"/><polygon points="281.9059870230227 437.33333333333326 308.40161534076987 437.33333333333326 312.73855979053224 458.66666666666663 264.8245317559001 458.66666666666663"/><polygon points="280.02647199107105 437.33333333333326 324.7027698430918 437.33333333333326 354.2609073537347 458.66666666666663 257.63775933996584 458.66666666666663"/><polygon points="360.3578868666755 437.33333333333326 364.93199592662114 437.33333333333326 377.9951324772306 458.66666666666663 336.23105538153976 458.66666666666663"/><polygon points="389.31133925166245 437.33333333333326 410.73836703861593 437.33333333333326 444.80345376626497 458.66666666666663 420.6063284187476 458.66666666666663"/><polygon points="419.2304058266437 437.33333333333326 497.5272829314045 437.33333333333326 505.39262038892525 458.66666666666663 398.4816851441297 458.66666666666663"/><polygon points="433.9388597441272 437.33333333333326 451.44973489774816 437.33333333333326 463.56273564968404 458.66666666666663 437.0306172500185 458.66666666666663"/><polygon points="10.666666666666666 479.99999999999994 -7.122384177827076 479.99999999999994 32 501.3333333333333 -40.58710803875644 501.3333333333333"/><polygon points="55.63535253882118 479.99999999999994 129.32988669201188 479.99999999999994 73.02949893084363 501.3333333333333 39.48771395575177 501.3333333333333"/><polygon points="101.51751967977009 479.99999999999994 72.15878065539042 479.99999999999994 123.59879028341962 501.3333333333333 74.8424298935312 501.3333333333333"/><polygon points="153.73242676509776 479.99999999999994 154.26951646818776 479.99999999999994 148.58668256875123 501.3333333333333 153.84673386288387 501.3333333333333"/><polygon points="188.0376069230085 479.99999999999994 241.38841821248477 479.99999999999994 187.86636170862198 501.3333333333333 218.39325272692002 501.3333333333333"/><polygon points="246.02836279239105 479.99999999999994 211.8143382717437 479.99999999999994 222.95470557694094 501.3333333333333 205.88210455682292 501.3333333333333"/><polygon points="288.6586511799184 479.99999999999994 343.09623863794604 479.99999999999994 281.8167779289636 501.3333333333333 291.49264752336717 501.3333333333333"/><polygon points="294.2362222012347 479.99999999999994 340.3392852424797 479.99999999999994 341.0667758289335 501.3333333333333 294.9728097271868 501.3333333333333"/><polygon points="391.10177396538927 479.99999999999994 336.3482017781666 479.99999999999994 411.0129987780821 501.3333333333333 338.3020987107943 501.3333333333333"/><polygon points="375.1712114421676 479.99999999999994 464.4448987067827 479.99999999999994 389.8954587061593 501.3333333333333 411.01832432228844 501.3333333333333"/><polygon points="436.55787015313734 479.99999999999994 454.58867305706815 479.99999999999994 502.9941275885746 501.3333333333333 417.3217368291615 501.3333333333333"/><polygon points="427.93381045480226 479.99999999999994 504.7229251993641 479.99999999999994 519.3245926057781 501.3333333333333 533.8701937121248 501.3333333333333"/>
</svg>
