<?xml version="1.0" encoding="UTF-8"?>
<svg xmlns="http://www.w3.org/2000/svg" id="RSSicon" viewBox="0 0 512 512" width="512" height="512">
  <defs>
    <style type="text/css">
      svg {
        background: black;
        margin: calc(50vh - 256px) auto 0;
      }
      
      polygon {stroke: darkorange; fill: none;}
    </style>
  </defs>
  <polygon points="10.666666666666666 10.666666666666666 32 10.666666666666666 32 32 10.666666666666666 32"/><polygon points="56.75468633701493 10.666666666666666 74.66666666666667 10.666666666666666 70.07341781297029 32 53.333333333333336 32"/><polygon points="99.55540959337247 10.666666666666666 117.33333333333333 10.666666666666666 113.31393792502524 32 95.99999999999999 32"/><polygon points="148.596310064305 10.666666666666666 160 10.666666666666666 153.59106517011335 32 138.66666666666669 32"/><polygon points="170.14989996706421 10.666666666666666 202.66666666666666 10.666666666666666 184.41787145946662 32 181.33333333333334 32"/><polygon points="211.79182017194046 10.666666666666666 245.33333333333331 10.666666666666666 228.1928149032088 32 224 32"/><polygon points="272.6704397063124 10.666666666666666 288 10.666666666666666 315.8244949001345 32 266.66666666666663 32"/><polygon points="326.72343471882556 10.666666666666666 330.66666666666663 10.666666666666666 335.6431475123812 32 309.33333333333326 32"/><polygon points="366.5090055603814 10.666666666666666 373.3333333333333 10.666666666666666 404.3666799684781 32 351.99999999999994 32"/><polygon points="431.21852715484755 10.666666666666666 416 10.666666666666666 463.6032886468363 32 394.66666666666663 32"/><polygon points="438.96608189075846 10.666666666666666 458.66666666666663 10.666666666666666 432.29716463173276 32 437.33333333333326 32"/><polygon points="525.0216145676518 10.666666666666666 501.3333333333333 10.666666666666666 542.1221994191263 32 479.99999999999994 32"/><polygon points="10.666666666666666 53.333333333333336 27.76675597916759 53.333333333333336 32 74.66666666666667 14.516364022536337 74.66666666666667"/><polygon points="51.04135082918949 53.333333333333336 71.96982914140354 53.333333333333336 72.48842336733728 74.66666666666667 55.59422526129608 74.66666666666667"/><polygon points="86.4350460294998 53.333333333333336 118.3254218732791 53.333333333333336 116.3405817835167 74.66666666666667 92.06058211309617 74.66666666666667"/><polygon points="139.6239465456471 53.333333333333336 160.47967933304125 53.333333333333336 157.4806808240421 74.66666666666667 138.25322543722788 74.66666666666667"/><polygon points="191.248470808813 53.333333333333336 205.85907619167568 53.333333333333336 210.86555085931073 74.66666666666667 179.54612879307652 74.66666666666667"/><polygon points="207.9251464856459 53.333333333333336 245.25521990618924 53.333333333333336 219.72002990113356 74.66666666666667 222.87615345995488 74.66666666666667"/><polygon points="248.83981313149414 53.333333333333336 291.6945133463282 53.333333333333336 259.66381124431257 74.66666666666667 262.1766303489365 74.66666666666667"/><polygon points="336.5030893177433 53.333333333333336 332.27651524405906 53.333333333333336 313.84805972975727 74.66666666666667 306.3024137403225 74.66666666666667"/><polygon points="313.1913606911509 53.333333333333336 371.60964255751435 53.333333333333336 341.5549368223172 74.66666666666667 351.5206540547715 74.66666666666667"/><polygon points="421.6634214100658 53.333333333333336 418.12732442494104 53.333333333333336 392.5748000078086 74.66666666666667 398.39310095663694 74.66666666666667"/><polygon points="489.09657040932814 53.333333333333336 453.7061757130007 53.333333333333336 446.96499900326535 74.66666666666667 433.22267845398824 74.66666666666667"/><polygon points="477.09507712633325 53.333333333333336 500.1725489339881 53.333333333333336 531.2869879541141 74.66666666666667 481.0781926940816 74.66666666666667"/><polygon points="10.666666666666666 95.99999999999999 38.24447382153609 95.99999999999999 32 117.33333333333333 9.163097932771777 117.33333333333333"/><polygon points="50.73150986381589 95.99999999999999 75.03671177273853 95.99999999999999 70.80422223259212 117.33333333333333 47.43727523100094 117.33333333333333"/><polygon points="103.2804901084668 95.99999999999999 107.64500401292777 95.99999999999999 116.82779529635617 117.33333333333333 90.4647402738569 117.33333333333333"/><polygon points="152.6456107944676 95.99999999999999 161.71501738654473 95.99999999999999 165.50447906128693 117.33333333333333 134.19135907130877 117.33333333333333"/><polygon points="174.77373379666378 95.99999999999999 207.4765769177921 95.99999999999999 218.2546832441 117.33333333333333 184.0847950501468 117.33333333333333"/><polygon points="202.7311783080006 95.99999999999999 252.5205063702694 95.99999999999999 237.77150612116415 117.33333333333333 217.3541558355903 117.33333333333333"/><polygon points="290.45851614186 95.99999999999999 294.71873282930875 95.99999999999999 276.2043017853291 117.33333333333333 257.8447540131314 117.33333333333333"/><polygon points="331.66359483478885 95.99999999999999 340.50068708939733 95.99999999999999 302.7102448408859 117.33333333333333 311.0352484611794 117.33333333333333"/><polygon points="372.37556928733983 95.99999999999999 371.79734870656694 95.99999999999999 330.93350408507433 117.33333333333333 348.6163869919313 117.33333333333333"/><polygon points="356.2215642658222 95.99999999999999 406.4191621452253 95.99999999999999 408.5213950670655 117.33333333333333 390.02094055500083 117.33333333333333"/><polygon points="479.47259323667663 95.99999999999999 467.655304657888 95.99999999999999 447.49146752440004 117.33333333333333 437.5692267034514 117.33333333333333"/><polygon points="473.2038097621644 95.99999999999999 493.1186598000863 95.99999999999999 534.9128009918079 117.33333333333333 470.0768479979337 117.33333333333333"/><polygon points="10.666666666666666 138.66666666666669 36.57911248404675 138.66666666666669 32 160 17.028358691856177 160"/><polygon points="50.7630163729155 138.66666666666669 75.81381279515685 138.66666666666669 78.11954866977902 160 67.21237579459715 160"/><polygon points="102.30868794136804 138.66666666666669 108.03133163595074 138.66666666666669 114.50064690782794 160 103.35195853214984 160"/><polygon points="139.66700455319983 138.66666666666669 154.59449157222917 138.66666666666669 147.43805016204624 160 128.18450185742054 160"/><polygon points="197.1435347899695 138.66666666666669 215.79609213188868 138.66666666666669 223.7510132525342 160 195.61927120517834 160"/><polygon points="232.26486161874126 138.66666666666669 247.3952449999036 138.66666666666669 265.07614701270904 160 233.21604739172557 160"/><polygon points="296.80267636135613 138.66666666666669 276.6785624677203 138.66666666666669 272.4416152198301 160 251.00544763770063 160"/><polygon points="272.36477685294875 138.66666666666669 327.19160870378784 138.66666666666669 298.65008638788925 160 297.0230703485725 160"/><polygon points="346.24816509073514 138.66666666666669 362.4809100540215 138.66666666666669 344.07775435173687 160 345.23461641312804 160"/><polygon points="385.6536659023764 138.66666666666669 414.5231527420758 138.66666666666669 369.85518924150165 160 381.57169751143886 160"/><polygon points="422.4194016465468 138.66666666666669 471.07272843839104 138.66666666666669 493.685437675005 160 447.0330895977366 160"/><polygon points="432.10230555065186 138.66666666666669 487.7334561223561 138.66666666666669 484.2883579750746 160 491.67450554073343 160"/><polygon points="10.666666666666666 181.33333333333334 15.892529435786646 181.33333333333334 32 202.66666666666666 0.392935707744698 202.66666666666666"/><polygon points="48.87852060815128 181.33333333333334 90.55237595476663 181.33333333333334 72.87383572887117 202.66666666666666 70.53813895726574 202.66666666666666"/><polygon points="88.83596140353971 181.33333333333334 121.32051266967937 181.33333333333334 114.4856646834118 202.66666666666666 98.52988316756911 202.66666666666666"/><polygon points="132.41080873649565 181.33333333333334 172.47784439757595 181.33333333333334 153.65814288832806 202.66666666666666 128.87342712561022 202.66666666666666"/><polygon points="193.99191912903174 181.33333333333334 202.61313345807181 181.33333333333334 185.37761091980641 202.66666666666666 166.884228043867 202.66666666666666"/><polygon points="220.58670190489366 181.33333333333334 250.4764345493553 181.33333333333334 254.8280870906198 202.66666666666666 209.05185486929904 202.66666666666666"/><polygon points="238.57960369751598 181.33333333333334 285.24268227052397 181.33333333333334 270.35178870772563 202.66666666666666 272.6465757288925 202.66666666666666"/><polygon points="343.48092009009144 181.33333333333334 336.1235502224973 181.33333333333334 311.33313643593806 202.66666666666666 293.5596147440923 202.66666666666666"/><polygon points="382.22769394461545 181.33333333333334 361.2791025708045 181.33333333333334 333.1777555726968 202.66666666666666 351.76381076756695 202.66666666666666"/><polygon points="347.24724294185353 181.33333333333334 432.7491129916152 181.33333333333334 429.6647462169832 202.66666666666666 382.84753658584805 202.66666666666666"/><polygon points="401.61186325899837 181.33333333333334 478.201669820012 181.33333333333334 435.7847189907446 202.66666666666666 422.5753408139135 202.66666666666666"/><polygon points="480.4625304076106 181.33333333333334 508.0647585803945 181.33333333333334 497.74324227250366 202.66666666666666 473.51291675074094 202.66666666666666"/><polygon points="10.666666666666666 224 14.282230366160634 224 32 245.33333333333331 -11.96074335891598 245.33333333333331"/><polygon points="56.93278265822731 224 60.07343411823613 224 77.42238848555536 245.33333333333331 45.857719774112724 245.33333333333331"/><polygon points="87.73073447766593 224 120.1907374220673 224 123.26233506691815 245.33333333333331 95.54583941624391 245.33333333333331"/><polygon points="128.2275698800861 224 153.96924462480732 224 144.16643407723643 245.33333333333331 156.38483375644535 245.33333333333331"/><polygon points="179.80365684545498 224 186.47933940030407 224 185.157555531927 245.33333333333331 169.02783442320322 245.33333333333331"/><polygon points="213.81507547184395 224 245.06858989811803 224 269.5717304648733 245.33333333333331 214.383280793924 245.33333333333331"/><polygon points="267.47820420975125 224 273.8857659167062 224 285.2871338621151 245.33333333333331 283.58337144885814 245.33333333333331"/><polygon points="304.62409518818214 224 352.95106842419426 224 355.2150049645929 245.33333333333331 297.20500870260844 245.33333333333331"/><polygon points="348.11156313753673 224 369.2184789388233 224 348.5644411303346 245.33333333333331 378.0449259614668 245.33333333333331"/><polygon points="407.2123505680946 224 390.23497736797003 224 395.6937989147299 245.33333333333331 393.1330070982431 245.33333333333331"/><polygon points="466.4657064396196 224 452.63657041095485 224 454.65106436017544 245.33333333333331 431.094271763501 245.33333333333331"/><polygon points="437.2113185100792 224 508.1406280204593 224 542.058877432915 245.33333333333331 471.65577052835215 245.33333333333331"/><polygon points="10.666666666666666 266.66666666666663 37.482519928757426 266.66666666666663 32 288 13.197203869802417 288"/><polygon points="52.06943969542486 266.66666666666663 56.512094085276495 266.66666666666663 76.01197311028348 288 44.804950399927385 288"/><polygon points="102.24359330258704 266.66666666666663 139.63893869154694 266.66666666666663 120.77283801064675 288 116.18468954460661 288"/><polygon points="129.84118047429888 266.66666666666663 179.20893970294523 266.66666666666663 171.94496854767988 288 131.05254960513048 288"/><polygon points="192.65755466695356 266.66666666666663 210.02248824882463 266.66666666666663 191.50023198885694 288 173.53058944087647 288"/><polygon points="198.47740334511658 266.66666666666663 233.3998708905287 266.66666666666663 254.08122261442958 288 212.11065416881766 288"/><polygon points="291.61777672399046 266.66666666666663 319.6031746218649 266.66666666666663 280.25998468305727 288 266.38003910933764 288"/><polygon points="293.59376227391095 266.66666666666663 338.74860316025735 266.66666666666663 351.63976637579367 288 305.3613415455638 288"/><polygon points="394.02884634788956 266.66666666666663 393.68665343682255 266.66666666666663 333.2475569742406 288 334.1232752401282 288"/><polygon points="361.17564532678716 266.66666666666663 397.3652127900882 266.66666666666663 416.8456775464424 288 374.45672552139575 288"/><polygon points="439.378187025557 266.66666666666663 454.54781417881446 266.66666666666663 465.75392305733567 288 465.0951517879668 288"/><polygon points="425.6019056586448 266.66666666666663 492.47012631536467 266.66666666666663 517.8658124413809 288 501.99275348788035 288"/><polygon points="10.666666666666666 309.33333333333326 33.30390979816801 309.33333333333326 32 330.66666666666663 16.445510929460866 330.66666666666663"/><polygon points="57.96956872828254 309.33333333333326 71.5550782099596 309.33333333333326 71.3503905411911 330.66666666666663 54.77939898025441 330.66666666666663"/><polygon points="95.6388249475017 309.33333333333326 115.54372873681204 309.33333333333326 125.79536207531031 330.66666666666663 74.35133951381457 330.66666666666663"/><polygon points="125.542617371223 309.33333333333326 123.09702933938112 309.33333333333326 160.1601883293965 330.66666666666663 110.23583010299802 330.66666666666663"/><polygon points="180.6563675355598 309.33333333333326 192.0707075996733 309.33333333333326 209.59670238079968 330.66666666666663 175.96172506442116 330.66666666666663"/><polygon points="245.61542167879145 309.33333333333326 270.16565400497416 309.33333333333326 219.27695345731712 330.66666666666663 206.07407643824925 330.66666666666663"/><polygon points="275.10849343815147 309.33333333333326 307.87993123040286 309.33333333333326 305.6866787872359 330.66666666666663 264.83116832357337 330.66666666666663"/><polygon points="332.78850803944584 309.33333333333326 327.10538223662775 309.33333333333326 312.17964018049076 330.66666666666663 285.57230099588844 330.66666666666663"/><polygon points="351.34896786611887 309.33333333333326 395.5338557967747 309.33333333333326 386.39106157456627 330.66666666666663 356.20842650293645 330.66666666666663"/><polygon points="442.566704358674 309.33333333333326 403.99181374438757 309.33333333333326 391.45064247087817 330.66666666666663 362.40546965958873 330.66666666666663"/><polygon points="429.4910626621802 309.33333333333326 425.2821326079738 309.33333333333326 441.10502118114186 330.66666666666663 469.15533117838197 330.66666666666663"/><polygon points="471.4361430148516 309.33333333333326 506.45940588386304 309.33333333333326 470.68970828774104 330.66666666666663 499.1348787757289 330.66666666666663"/><polygon points="10.666666666666666 351.99999999999994 56.74651453243453 351.99999999999994 32 373.3333333333333 -31.190211183389312 373.3333333333333"/><polygon points="49.868685900185326 351.99999999999994 75.8089465240555 351.99999999999994 79.86627537263873 373.3333333333333 53.01379397224806 373.3333333333333"/><polygon points="88.59324482212563 351.99999999999994 96.64695334001512 351.99999999999994 113.25181792259419 373.3333333333333 94.49860086224247 373.3333333333333"/><polygon points="124.23966005050387 351.99999999999994 193.8488624245362 351.99999999999994 144.25389130265745 373.3333333333333 124.71882826655062 373.3333333333333"/><polygon points="168.55911049328955 351.99999999999994 219.66875038349306 351.99999999999994 196.8525397523829 373.3333333333333 194.6114938175005 373.3333333333333"/><polygon points="244.73924955560204 351.99999999999994 253.87467311918272 351.99999999999994 236.35699346220605 373.3333333333333 223.42390645350304 373.3333333333333"/><polygon points="287.541483745144 351.99999999999994 253.57706409710622 351.99999999999994 290.15095319244296 373.3333333333333 303.03124480291615 373.3333333333333"/><polygon points="317.0169804949114 351.99999999999994 347.2112607530572 351.99999999999994 340.0360885297858 373.3333333333333 326.3750471518644 373.3333333333333"/><polygon points="361.6051578548011 351.99999999999994 362.9258962956245 351.99999999999994 340.17061485522953 373.3333333333333 370.6483947320903 373.3333333333333"/><polygon points="362.1062970691295 351.99999999999994 419.10410656816026 351.99999999999994 372.2918815432065 373.3333333333333 362.7076480440063 373.3333333333333"/><polygon points="431.82184155439387 351.99999999999994 501.201056689104 351.99999999999994 406.19917348537814 373.3333333333333 478.8748271102385 373.3333333333333"/><polygon points="531.8201997545224 351.99999999999994 472.93095045704547 351.99999999999994 458.70465506390815 373.3333333333333 472.479638468369 373.3333333333333"/><polygon points="10.666666666666666 394.66666666666663 25.32327586362412 394.66666666666663 32 416 -0.8296877924959851 416"/><polygon points="57.00997218474391 394.66666666666663 97.70508847727456 394.66666666666663 74.37809866539584 416 53.074670895004424 416"/><polygon points="86.69983396702483 394.66666666666663 90.63534684497067 394.66666666666663 120.4337085906367 416 103.49822752051446 416"/><polygon points="135.12192662409484 394.66666666666663 115.07553066663417 394.66666666666663 169.86048642604962 416 107.67915507126602 416"/><polygon points="170.58404612055796 394.66666666666663 185.27549535716605 394.66666666666663 204.54633638558755 416 171.64493388205915 416"/><polygon points="245.69724133401897 394.66666666666663 214.29603670452425 394.66666666666663 256.6011578280298 416 243.14038265396837 416"/><polygon points="235.98893991115324 394.66666666666663 334.0280948723099 394.66666666666663 278.79460415681115 416 302.10358873719196 416"/><polygon points="294.5682354302178 394.66666666666663 349.1586954833144 394.66666666666663 320.30556057709083 416 329.20266107774785 416"/><polygon points="342.92683361935553 394.66666666666663 345.5411492418184 394.66666666666663 354.4683015242446 416 387.7915536444257 416"/><polygon points="408.2118910336721 394.66666666666663 454.50297870182266 394.66666666666663 428.50128680956266 416 415.32748599834537 416"/><polygon points="456.32204775702206 394.66666666666663 503.10161378283647 394.66666666666663 460.48168851349385 416 434.7300890511768 416"/><polygon points="502.64042883080924 394.66666666666663 520.9122802383581 394.66666666666663 506.0707421041353 416 505.8541028457068 416"/><polygon points="10.666666666666666 437.33333333333326 59.93003622888841 437.33333333333326 32 458.66666666666663 30.677291913462184 458.66666666666663"/><polygon points="56.43879880524357 437.33333333333326 79.69940901713841 437.33333333333326 79.36563655567662 458.66666666666663 21.53808988075049 458.66666666666663"/><polygon points="86.89648483486384 437.33333333333326 157.15957381820357 437.33333333333326 108.97264648489414 458.66666666666663 123.72097303093364 458.66666666666663"/><polygon points="133.5822681810025 437.33333333333326 118.96268886009938 437.33333333333326 171.58987584094538 458.66666666666663 88.60726899307589 458.66666666666663"/><polygon points="196.39641823344851 437.33333333333326 182.9702472789138 437.33333333333326 203.03368105662668 458.66666666666663 206.99604077732064 458.66666666666663"/><polygon points="206.08337094276018 437.33333333333326 200.0034449017906 437.33333333333326 222.35033443057267 458.66666666666663 180.05818530254493 458.66666666666663"/><polygon points="279.6269655341557 437.33333333333326 245.29240084016016 437.33333333333326 299.42762135087054 458.66666666666663 257.1622141657332 458.66666666666663"/><polygon points="341.42909982839984 437.33333333333326 284.4505613535608 437.33333333333326 344.97992434924015 458.66666666666663 313.1996073550934 458.66666666666663"/><polygon points="338.3404598508339 437.33333333333326 386.44988066063956 437.33333333333326 413.2615025950788 458.66666666666663 390.52618797455614 458.66666666666663"/><polygon points="410.8438001993741 437.33333333333326 365.469292259357 437.33333333333326 427.098100423444 458.66666666666663 386.4183243456157 458.66666666666663"/><polygon points="447.6383131598295 437.33333333333326 474.2829350808859 437.33333333333326 463.16787319146147 458.66666666666663 389.3163291741699 458.66666666666663"/><polygon points="479.64180156883293 437.33333333333326 514.7146025056704 437.33333333333326 548.4564393471618 458.66666666666663 434.8115200427187 458.66666666666663"/><polygon points="10.666666666666666 479.99999999999994 50.57270937127112 479.99999999999994 32 501.3333333333333 -38.34700719905494 501.3333333333333"/><polygon points="51.9127162567734 479.99999999999994 105.76385241303696 479.99999999999994 70.99883177988205 501.3333333333333 12.196234818873748 501.3333333333333"/><polygon points="100.55867076464851 479.99999999999994 174.0004763341618 479.99999999999994 124.48002981309403 501.3333333333333 74.26938687092502 501.3333333333333"/><polygon points="126.59120584238946 479.99999999999994 124.85428283109252 479.99999999999994 152.26801898979488 501.3333333333333 120.21519936491373 501.3333333333333"/><polygon points="188.46788153391967 479.99999999999994 230.37791925282633 479.99999999999994 204.28820484864556 501.3333333333333 127.92786622947999 501.3333333333333"/><polygon points="198.64905091708755 479.99999999999994 189.24312766288614 479.99999999999994 222.32060577782994 501.3333333333333 224.2420430296041 501.3333333333333"/><polygon points="295.4583736417183 479.99999999999994 235.31763387230126 479.99999999999994 278.6555965920699 501.3333333333333 233.0546750106942 501.3333333333333"/><polygon points="314.88973111618316 479.99999999999994 306.51288511416544 479.99999999999994 300.8270450553273 501.3333333333333 334.71597400184794 501.3333333333333"/><polygon points="359.5694049042014 479.99999999999994 431.7270654922462 479.99999999999994 372.0515941795766 501.3333333333333 379.7274496938888 501.3333333333333"/><polygon points="368.2031431052909 479.99999999999994 427.3158750828231 479.99999999999994 410.2733556601078 501.3333333333333 353.98053093295607 501.3333333333333"/><polygon points="421.68801301955875 479.99999999999994 418.5710928431656 479.99999999999994 472.64207445354697 501.3333333333333 484.3496015775236 501.3333333333333"/><polygon points="467.9787349730131 479.99999999999994 460.9717687911364 479.99999999999994 491.3613221222682 501.3333333333333 430.0872701965296 501.3333333333333"/>
</svg>
