<?xml version="1.0" encoding="UTF-8"?>
<svg xmlns="http://www.w3.org/2000/svg" id="RSSicon" viewBox="0 0 512 512" width="512" height="512">
  <defs>
    <style type="text/css">
      svg {
        background: black;
        margin: calc(50vh - 256px) auto 0;
      }
      
      polygon {stroke: darkorange; fill: none;}
    </style>
  </defs>
  <polygon points="10.666666666666666 10.666666666666666 32 10.666666666666666 32 32 10.666666666666666 32"/><polygon points="51.713140374500895 10.666666666666666 74.66666666666667 10.666666666666666 75.59813776106824 32 53.333333333333336 32"/><polygon points="100.06801167126196 10.666666666666666 117.33333333333333 10.666666666666666 126.37589323737696 32 95.99999999999999 32"/><polygon points="130.63937042246147 10.666666666666666 160 10.666666666666666 163.45061912964462 32 138.66666666666669 32"/><polygon points="164.4181052927421 10.666666666666666 202.66666666666666 10.666666666666666 206.64330570852388 32 181.33333333333334 32"/><polygon points="205.30474244595183 10.666666666666666 245.33333333333331 10.666666666666666 268.389381648069 32 224 32"/><polygon points="281.52081124311553 10.666666666666666 288 10.666666666666666 319.7502913835449 32 266.66666666666663 32"/><polygon points="346.53590731138127 10.666666666666666 330.66666666666663 10.666666666666666 304.2938943921868 32 309.33333333333326 32"/><polygon points="312.81704641918884 10.666666666666666 373.3333333333333 10.666666666666666 364.684701042244 32 351.99999999999994 32"/><polygon points="390.25808903318585 10.666666666666666 416 10.666666666666666 447.0320409444236 32 394.66666666666663 32"/><polygon points="435.0335028834998 10.666666666666666 458.66666666666663 10.666666666666666 435.2601333444996 32 437.33333333333326 32"/><polygon points="499.1132271573592 10.666666666666666 501.3333333333333 10.666666666666666 482.3828644176617 32 479.99999999999994 32"/><polygon points="10.666666666666666 53.333333333333336 27.654319842142712 53.333333333333336 32 74.66666666666667 12.61719816765143 74.66666666666667"/><polygon points="54.22601587841062 53.333333333333336 75.58432093128252 53.333333333333336 73.9560961048014 74.66666666666667 48.15312828296237 74.66666666666667"/><polygon points="86.55228070424792 53.333333333333336 119.09053376876675 53.333333333333336 123.03908277021893 74.66666666666667 91.51897243620313 74.66666666666667"/><polygon points="151.85016419269368 53.333333333333336 163.97947710012843 53.333333333333336 173.99776516778067 74.66666666666667 138.7932671877262 74.66666666666667"/><polygon points="198.02897880735134 53.333333333333336 200.0829724016109 53.333333333333336 205.7308999756502 74.66666666666667 182.9050616729021 74.66666666666667"/><polygon points="210.12224552222696 53.333333333333336 243.8740727311949 53.333333333333336 222.98436064702113 74.66666666666667 220.01233216142708 74.66666666666667"/><polygon points="248.0614343862161 53.333333333333336 291.1006226525213 53.333333333333336 273.8296987805984 74.66666666666667 266.5886522288455 74.66666666666667"/><polygon points="326.68103338131857 53.333333333333336 329.1621406810721 53.333333333333336 301.53801611449296 74.66666666666667 309.3201996108596 74.66666666666667"/><polygon points="392.7638183526756 53.333333333333336 373.6851502139276 53.333333333333336 341.1708940775975 74.66666666666667 352.67899962128786 74.66666666666667"/><polygon points="350.43006171873844 53.333333333333336 413.7831558413086 53.333333333333336 409.2081698269325 74.66666666666667 390.104043589748 74.66666666666667"/><polygon points="435.4942421496378 53.333333333333336 461.3695064048753 53.333333333333336 409.62021775011937 74.66666666666667 439.8659928161492 74.66666666666667"/><polygon points="472.3029030422406 53.333333333333336 500.8384573056713 53.333333333333336 465.2114107649236 74.66666666666667 483.19762997610866 74.66666666666667"/><polygon points="10.666666666666666 95.99999999999999 21.905269878156574 95.99999999999999 32 117.33333333333333 8.974647699710895 117.33333333333333"/><polygon points="55.90333090926505 95.99999999999999 76.4581381816344 95.99999999999999 75.25015684554977 117.33333333333333 56.01253441321946 117.33333333333333"/><polygon points="93.1052132905012 95.99999999999999 110.9865412583045 95.99999999999999 125.99805313908095 117.33333333333333 86.88344008433414 117.33333333333333"/><polygon points="137.99170343114605 95.99999999999999 161.6310932991235 95.99999999999999 155.7434512827588 117.33333333333333 138.05680520144827 117.33333333333333"/><polygon points="160.5674074841702 95.99999999999999 210.5802221819474 95.99999999999999 196.25272361268463 117.33333333333333 183.45414000753502 117.33333333333333"/><polygon points="204.89567887948934 95.99999999999999 255.47683529583114 95.99999999999999 254.26509434064207 117.33333333333333 227.120124718432 117.33333333333333"/><polygon points="237.19336174799724 95.99999999999999 283.77534455215635 95.99999999999999 298.60299471805655 117.33333333333333 258.99788183993405 117.33333333333333"/><polygon points="303.7710262614477 95.99999999999999 323.31787213451196 95.99999999999999 366.27948272224535 117.33333333333333 318.517726143181 117.33333333333333"/><polygon points="357.40434248847674 95.99999999999999 379.39343697548134 95.99999999999999 336.0376049449978 117.33333333333333 354.664833777834 117.33333333333333"/><polygon points="362.8635854145861 95.99999999999999 422.4550106698817 95.99999999999999 411.39712235382115 117.33333333333333 396.7398914314743 117.33333333333333"/><polygon points="457.86138468411775 95.99999999999999 463.0458237047734 95.99999999999999 444.0218995674152 117.33333333333333 444.883362321154 117.33333333333333"/><polygon points="473.8958784431234 95.99999999999999 493.81946958982235 95.99999999999999 450.5470924119661 117.33333333333333 478.35496863375835 117.33333333333333"/><polygon points="10.666666666666666 138.66666666666669 31.955337457612472 138.66666666666669 32 160 -2.779003815917239 160"/><polygon points="53.600326766596154 138.66666666666669 71.25311138300995 138.66666666666669 71.15100124837899 160 41.800410299085826 160"/><polygon points="85.3360849204724 138.66666666666669 108.18986288855064 138.66666666666669 114.43674616082649 160 92.07297151458737 160"/><polygon points="152.5276559497416 138.66666666666669 160.10496542792032 138.66666666666669 174.0174269961248 160 143.07153890206428 160"/><polygon points="168.8232350362844 138.66666666666669 190.22962269144023 138.66666666666669 187.65893527827393 160 193.4049537067529 160"/><polygon points="203.70121473166526 138.66666666666669 236.42541927215385 138.66666666666669 240.3958479171329 160 209.39695876630645 160"/><polygon points="248.17371368198854 138.66666666666669 277.67364526216653 138.66666666666669 310.7014026144928 160 265.18907997260504 160"/><polygon points="336.03209786663336 138.66666666666669 327.2966974578323 138.66666666666669 304.1301304464886 160 319.31476553042955 160"/><polygon points="326.0706599188324 138.66666666666669 371.959334824417 138.66666666666669 400.9829347222197 160 351.61382238716067 160"/><polygon points="349.2682788357518 138.66666666666669 429.5629180461376 138.66666666666669 452.447829697031 160 386.5569529138045 160"/><polygon points="445.6937218981985 138.66666666666669 453.65147268178765 138.66666666666669 437.72324358071984 160 450.6642219273951 160"/><polygon points="481.47819575967543 138.66666666666669 496.53482254349706 138.66666666666669 466.309285456534 160 481.6972118556756 160"/><polygon points="10.666666666666666 181.33333333333334 24.104200181701607 181.33333333333334 32 202.66666666666666 30.619603389664235 202.66666666666666"/><polygon points="55.248456284948816 181.33333333333334 76.19133924234926 181.33333333333334 76.1526037480493 202.66666666666666 46.9322736085987 202.66666666666666"/><polygon points="102.56588946825963 181.33333333333334 138.13425913607412 181.33333333333334 114.28295030813285 202.66666666666666 88.20676657734228 202.66666666666666"/><polygon points="128.2309437365737 181.33333333333334 166.00187607085627 181.33333333333334 145.90838039263932 202.66666666666666 130.80555716310153 202.66666666666666"/><polygon points="168.39578537528837 181.33333333333334 196.46652333485866 181.33333333333334 217.37399449593116 202.66666666666666 199.14509280867952 202.66666666666666"/><polygon points="219.5207294071376 181.33333333333334 249.18452500755112 181.33333333333334 270.63496134464333 202.66666666666666 219.63176496106666 202.66666666666666"/><polygon points="250.40805587236375 181.33333333333334 283.81690593278336 181.33333333333334 283.257391301198 202.66666666666666 256.1073623353709 202.66666666666666"/><polygon points="277.0222668238494 181.33333333333334 320.5145318218321 181.33333333333334 329.9173109791668 202.66666666666666 306.068182986283 202.66666666666666"/><polygon points="370.2915277540942 181.33333333333334 394.664404020622 181.33333333333334 379.39270166328913 202.66666666666666 334.9008710526068 202.66666666666666"/><polygon points="371.69414253185516 181.33333333333334 418.6794626670389 181.33333333333334 387.0885405411673 202.66666666666666 374.0067680476979 202.66666666666666"/><polygon points="457.844699470171 181.33333333333334 450.8042953389585 181.33333333333334 423.38492848808835 202.66666666666666 420.3142465429896 202.66666666666666"/><polygon points="456.9911645533797 181.33333333333334 522.3119031974021 181.33333333333334 493.8344769648087 202.66666666666666 465.6481207931511 202.66666666666666"/><polygon points="10.666666666666666 224 28.84121316767913 224 32 245.33333333333331 36.216685675333444 245.33333333333331"/><polygon points="53.82467082332801 224 72.56528992711911 224 72.55594164403439 245.33333333333331 50.7905470196724 245.33333333333331"/><polygon points="95.85523159429462 224 121.20594165521946 224 125.01485017407664 245.33333333333331 118.59521398876552 245.33333333333331"/><polygon points="128.816465992414 224 183.16698835442395 224 156.19551563908047 245.33333333333331 163.36472364725606 245.33333333333331"/><polygon points="193.34594537690487 224 219.3000560920372 224 203.5899327138048 245.33333333333331 161.05004330962853 245.33333333333331"/><polygon points="221.45150941291962 224 241.47781245165288 224 226.3244029461618 245.33333333333331 244.26935997005393 245.33333333333331"/><polygon points="263.05347160415107 224 280.9955851696385 224 313.2533051092298 245.33333333333331 288.61595993789285 245.33333333333331"/><polygon points="272.75974985301934 224 356.7322329794904 224 345.8733583216747 245.33333333333331 297.97030386065603 245.33333333333331"/><polygon points="335.883405568655 224 399.12281664956254 224 365.4473687714824 245.33333333333331 362.08424848262547 245.33333333333331"/><polygon points="374.4691427414766 224 440.8436549674365 224 399.5532274892996 245.33333333333331 418.61709289571695 245.33333333333331"/><polygon points="486.75812385979305 224 479.04932465517834 224 466.16687621250725 245.33333333333331 421.76451921897143 245.33333333333331"/><polygon points="446.99408948431625 224 489.2259501059496 224 501.09182920330665 245.33333333333331 498.3069351630774 245.33333333333331"/><polygon points="10.666666666666666 266.66666666666663 57.06878793447186 266.66666666666663 32 288 0.597474152168683 288"/><polygon points="50.640591823114434 266.66666666666663 66.63442649104205 266.66666666666663 70.88337037118455 288 66.08130224735334 288"/><polygon points="85.84778704359084 266.66666666666663 143.33094781160088 266.66666666666663 107.6575701017122 288 85.85952554384946 288"/><polygon points="143.24769858230817 266.66666666666663 177.00943159638106 266.66666666666663 173.52665500933537 288 128.55883660959975 288"/><polygon points="175.7436070875998 266.66666666666663 221.10837618928366 266.66666666666663 204.40839581182857 288 180.82117393418795 288"/><polygon points="208.1212351052734 266.66666666666663 258.93299588656623 266.66666666666663 228.9133268668262 288 247.33255273451437 288"/><polygon points="254.7810790919047 266.66666666666663 308.6736402381394 266.66666666666663 266.28464258156515 288 264.2817635872425 288"/><polygon points="341.1942254657368 266.66666666666663 313.1536786576311 266.66666666666663 350.3059938487366 288 321.0777435013924 288"/><polygon points="329.2988959038308 266.66666666666663 366.5402878661504 266.66666666666663 332.3328820948848 288 337.38267629356454 288"/><polygon points="369.6994408136212 266.66666666666663 392.6343410729631 266.66666666666663 460.54936701745396 288 404.6000197329239 288"/><polygon points="448.54422257526403 266.66666666666663 451.06926495089726 266.66666666666663 479.2139957461817 288 458.25896209971694 288"/><polygon points="522.2599510189274 266.66666666666663 504.78442516793115 266.66666666666663 449.50333648013674 288 473.6357642910698 288"/><polygon points="10.666666666666666 309.33333333333326 47.40454642505106 309.33333333333326 32 330.66666666666663 22.944242382042713 330.66666666666663"/><polygon points="57.18986459656858 309.33333333333326 63.070630742551906 309.33333333333326 72.79718800597944 330.66666666666663 68.00190870649024 330.66666666666663"/><polygon points="94.63552968904777 309.33333333333326 152.764069874902 309.33333333333326 114.36511537697054 330.66666666666663 79.0284489284077 330.66666666666663"/><polygon points="144.21842177041583 309.33333333333326 135.25539057409912 309.33333333333326 162.8058469116912 330.66666666666663 136.41561176147417 330.66666666666663"/><polygon points="173.5796928554749 309.33333333333326 231.18147849343836 309.33333333333326 217.06971536433116 330.66666666666663 163.90677918673174 330.66666666666663"/><polygon points="231.31220758962363 309.33333333333326 280.07031052188614 309.33333333333326 218.67054285561517 330.66666666666663 218.53399686328527 330.66666666666663"/><polygon points="271.60350293987915 309.33333333333326 324.5346591981379 309.33333333333326 315.9232139200056 330.66666666666663 242.16771916872256 330.66666666666663"/><polygon points="279.3493906975648 309.33333333333326 341.2078920583621 309.33333333333326 345.3372733818116 330.66666666666663 281.3949565718007 330.66666666666663"/><polygon points="358.15488687960254 309.33333333333326 358.5713131923128 309.33333333333326 381.34298423636744 330.66666666666663 323.59151532216845 330.66666666666663"/><polygon points="409.8972516153461 309.33333333333326 444.71687737654736 309.33333333333326 385.957091582935 330.66666666666663 362.9503721785795 330.66666666666663"/><polygon points="449.59612742029634 309.33333333333326 490.69030473299887 309.33333333333326 418.70120067591336 330.66666666666663 412.20641780601267 330.66666666666663"/><polygon points="531.1842449201275 309.33333333333326 498.73083222812534 309.33333333333326 446.4782050733442 330.66666666666663 497.79617730660755 330.66666666666663"/><polygon points="10.666666666666666 351.99999999999994 3.1710390679189864 351.99999999999994 32 373.3333333333333 52.82633197387413 373.3333333333333"/><polygon points="48.34371107456461 351.99999999999994 57.28969055838985 351.99999999999994 77.53425403832661 373.3333333333333 25.85876093801896 373.3333333333333"/><polygon points="106.51274085639139 351.99999999999994 133.76032904584252 351.99999999999994 112.30861142446146 373.3333333333333 124.84107607454159 373.3333333333333"/><polygon points="125.91017576907612 351.99999999999994 166.80848547254305 351.99999999999994 146.92730481983892 373.3333333333333 169.49622978684255 373.3333333333333"/><polygon points="197.46950698339558 351.99999999999994 212.1975975129632 351.99999999999994 212.7840537836384 373.3333333333333 214.40184287587334 373.3333333333333"/><polygon points="222.91135441073612 351.99999999999994 257.8982873067668 351.99999999999994 256.12542708888526 373.3333333333333 233.63062074173854 373.3333333333333"/><polygon points="236.84464400145197 351.99999999999994 268.4608644327509 351.99999999999994 298.8490455538289 373.3333333333333 256.0661168977274 373.3333333333333"/><polygon points="276.37574975499706 351.99999999999994 292.56743758941224 351.99999999999994 303.8078932291241 373.3333333333333 339.5842382353389 373.3333333333333"/><polygon points="332.10084289740445 351.99999999999994 347.3942837968566 351.99999999999994 361.10978010425436 373.3333333333333 362.8868691852414 373.3333333333333"/><polygon points="384.2064277375639 351.99999999999994 374.898323059656 351.99999999999994 380.0798539842933 373.3333333333333 393.14155451143233 373.3333333333333"/><polygon points="440.1813498754615 351.99999999999994 417.75499443132605 351.99999999999994 502.3960746826724 373.3333333333333 438.1734256430517 373.3333333333333"/><polygon points="504.48304165285526 351.99999999999994 487.8418007060437 351.99999999999994 539.826994440492 373.3333333333333 522.5423022848236 373.3333333333333"/><polygon points="10.666666666666666 394.66666666666663 33.132648680910094 394.66666666666663 32 416 55.755919436203754 416"/><polygon points="55.82369328333039 394.66666666666663 111.32358767582082 394.66666666666663 72.1478664401487 416 17.028791633090734 416"/><polygon points="103.86617403381025 394.66666666666663 131.0641881032136 394.66666666666663 117.08866388680528 416 58.45877375187855 416"/><polygon points="149.02038941550194 394.66666666666663 174.96749229137498 394.66666666666663 169.89140423966467 416 175.1463290355091 416"/><polygon points="180.95188228657327 394.66666666666663 156.40420704542794 394.66666666666663 204.9942425710357 416 146.63977557241023 416"/><polygon points="197.3926157463166 394.66666666666663 222.1903056169133 394.66666666666663 248.15749479428322 416 210.38117118537704 416"/><polygon points="266.6650746900514 394.66666666666663 253.66102982637187 394.66666666666663 271.85915836736706 416 239.05777434736893 416"/><polygon points="334.50438676856743 394.66666666666663 349.66332486602647 394.66666666666663 356.5886953466364 416 305.56276971857693 416"/><polygon points="309.98279138853025 394.66666666666663 363.92978117078945 394.66666666666663 373.04117743149425 416 326.9837548460086 416"/><polygon points="417.5311724936579 394.66666666666663 462.02331330025964 394.66666666666663 456.2006033609777 416 373.5438410803974 416"/><polygon points="412.7220648704732 394.66666666666663 472.93101350289936 394.66666666666663 482.5890228570277 416 427.34194856920556 416"/><polygon points="431.77581949652745 394.66666666666663 490.8330708533856 394.66666666666663 481.3974400217219 416 460.46898063656323 416"/><polygon points="10.666666666666666 437.33333333333326 81.25535267763578 437.33333333333326 32 458.66666666666663 46.468287714178054 458.66666666666663"/><polygon points="49.15563977352143 437.33333333333326 74.66578539644003 437.33333333333326 70.47320366355616 458.66666666666663 55.477802033533386 458.66666666666663"/><polygon points="90.60730583254573 437.33333333333326 113.79135896151537 437.33333333333326 113.41788966247726 458.66666666666663 70.64062240579833 458.66666666666663"/><polygon points="139.23187667164203 437.33333333333326 109.17276708513656 437.33333333333326 152.26839159966596 458.66666666666663 106.38553445668057 458.66666666666663"/><polygon points="163.35950015891643 437.33333333333326 171.52954454809316 437.33333333333326 208.1345189086779 458.66666666666663 200.61359193949548 458.66666666666663"/><polygon points="228.30888746807534 437.33333333333326 274.8679655013109 437.33333333333326 240.60482387233924 458.66666666666663 223.9647625422268 458.66666666666663"/><polygon points="277.7536361914377 437.33333333333326 307.4854290009047 437.33333333333326 319.8816283796033 458.66666666666663 301.65442995549023 458.66666666666663"/><polygon points="293.70270056225456 437.33333333333326 347.14742078950445 437.33333333333326 315.7127807457292 458.66666666666663 288.29700280745567 458.66666666666663"/><polygon points="334.04396267355946 437.33333333333326 336.02990636490597 437.33333333333326 394.32560401606025 458.66666666666663 379.3048445106078 458.66666666666663"/><polygon points="377.38772247448185 437.33333333333326 363.1221868918308 437.33333333333326 368.2845995324921 458.66666666666663 350.85108044784977 458.66666666666663"/><polygon points="474.60962918466134 437.33333333333326 468.5170077493175 437.33333333333326 458.2102611756199 458.66666666666663 403.8895616828971 458.66666666666663"/><polygon points="444.4540541827193 437.33333333333326 520.3390921113976 437.33333333333326 523.9331029208272 458.66666666666663 452.13668991871805 458.66666666666663"/><polygon points="10.666666666666666 479.99999999999994 9.442191506756672 479.99999999999994 32 501.3333333333333 48.44303050119823 501.3333333333333"/><polygon points="49.326442490999725 479.99999999999994 123.35370343348247 479.99999999999994 75.13906543092314 501.3333333333333 22.157412074104123 501.3333333333333"/><polygon points="99.53947167758785 479.99999999999994 103.84812475093675 479.99999999999994 121.00799205952798 501.3333333333333 91.94703035559638 501.3333333333333"/><polygon points="143.90782630149116 479.99999999999994 116.03535963693167 479.99999999999994 156.82965494149454 501.3333333333333 94.31878134141851 501.3333333333333"/><polygon points="199.8371094344871 479.99999999999994 209.57915937369896 479.99999999999994 204.27293440309288 501.3333333333333 204.05972782015735 501.3333333333333"/><polygon points="209.49317671831156 479.99999999999994 296.1228209743548 479.99999999999994 249.60813871914712 501.3333333333333 195.7240618523846 501.3333333333333"/><polygon points="274.6333545518321 479.99999999999994 294.9232184684703 479.99999999999994 258.32037277339725 501.3333333333333 257.82539761032035 501.3333333333333"/><polygon points="304.9488530790702 479.99999999999994 287.7303983901787 479.99999999999994 344.2786561429425 501.3333333333333 337.01751974658515 501.3333333333333"/><polygon points="381.81589970000726 479.99999999999994 404.92156977438293 479.99999999999994 334.39972851000005 501.3333333333333 334.5277423285162 501.3333333333333"/><polygon points="380.6740210233701 479.99999999999994 366.5583140144961 479.99999999999994 449.3329820145952 501.3333333333333 417.0621062385666 501.3333333333333"/><polygon points="432.1126390258562 479.99999999999994 516.65162738519 479.99999999999994 426.04108395003215 501.3333333333333 452.3335970948396 501.3333333333333"/><polygon points="470.09402490841694 479.99999999999994 529.9580243599246 479.99999999999994 491.473855105216 501.3333333333333 512.6477608042517 501.3333333333333"/>
</svg>
