<?xml version="1.0" encoding="UTF-8"?>
<svg xmlns="http://www.w3.org/2000/svg" id="RSSicon" viewBox="0 0 512 512" width="512" height="512">
  <defs>
    <style type="text/css">
      svg {
        background: black;
        margin: calc(50vh - 256px) auto 0;
      }
      
      polygon {stroke: darkorange; fill: none;}
    </style>
  </defs>
  <polygon points="10.666666666666666 10.666666666666666 32 10.666666666666666 32 32 10.666666666666666 32"/><polygon points="57.40260305748696 10.666666666666666 74.66666666666667 10.666666666666666 70.56449758077915 32 53.333333333333336 32"/><polygon points="86.9336562122505 10.666666666666666 117.33333333333333 10.666666666666666 110.68602897891628 32 95.99999999999999 32"/><polygon points="145.47833357577215 10.666666666666666 160 10.666666666666666 167.23766644393845 32 138.66666666666669 32"/><polygon points="189.86524238471208 10.666666666666666 202.66666666666666 10.666666666666666 210.64624130207318 32 181.33333333333334 32"/><polygon points="246.9486114622768 10.666666666666666 245.33333333333331 10.666666666666666 249.42559221216987 32 224 32"/><polygon points="290.0641434407858 10.666666666666666 288 10.666666666666666 309.39738717682513 32 266.66666666666663 32"/><polygon points="299.4356894676151 10.666666666666666 330.66666666666663 10.666666666666666 317.67986359132124 32 309.33333333333326 32"/><polygon points="311.1961913332897 10.666666666666666 373.3333333333333 10.666666666666666 381.43708612135646 32 351.99999999999994 32"/><polygon points="365.1711993634869 10.666666666666666 416 10.666666666666666 411.5675484883 32 394.66666666666663 32"/><polygon points="467.9068236899815 10.666666666666666 458.66666666666663 10.666666666666666 471.7877964942605 32 437.33333333333326 32"/><polygon points="442.47339163463187 10.666666666666666 501.3333333333333 10.666666666666666 483.3253608384388 32 479.99999999999994 32"/><polygon points="10.666666666666666 53.333333333333336 36.52389127442931 53.333333333333336 32 74.66666666666667 10.156616593363655 74.66666666666667"/><polygon points="50.365824894761225 53.333333333333336 76.05433262527762 53.333333333333336 79.30032289650163 74.66666666666667 58.53946265847334 74.66666666666667"/><polygon points="89.94937351705602 53.333333333333336 113.957818217163 53.333333333333336 114.35272980312615 74.66666666666667 99.46497057514978 74.66666666666667"/><polygon points="153.13443824626046 53.333333333333336 157.1049793266737 53.333333333333336 146.06631908200325 74.66666666666667 134.4571141450769 74.66666666666667"/><polygon points="190.317373919585 53.333333333333336 207.34573665920212 53.333333333333336 210.55603577716374 74.66666666666667 184.44179100543897 74.66666666666667"/><polygon points="223.10674973135207 53.333333333333336 244.16643247417397 53.333333333333336 240.10125672157153 74.66666666666667 224.69725365268724 74.66666666666667"/><polygon points="258.4232457864341 53.333333333333336 288.14636776965915 53.333333333333336 269.69860141552834 74.66666666666667 269.26503759164973 74.66666666666667"/><polygon points="278.5781334900322 53.333333333333336 326.79350731697974 53.333333333333336 307.1151431628087 74.66666666666667 309.57433005926055 74.66666666666667"/><polygon points="346.7959304284703 53.333333333333336 371.24165181519055 53.333333333333336 401.7094532426283 74.66666666666667 346.76246211244535 74.66666666666667"/><polygon points="363.5419072418773 53.333333333333336 420.6362746558523 53.333333333333336 392.89479636453393 74.66666666666667 390.3415014996405 74.66666666666667"/><polygon points="392.42277137439686 53.333333333333336 456.87727527338086 53.333333333333336 490.99611728025747 74.66666666666667 440.67422267152233 74.66666666666667"/><polygon points="430.1960708088013 53.333333333333336 505.8078106647008 53.333333333333336 507.96152231650444 74.66666666666667 478.8531812102851 74.66666666666667"/><polygon points="10.666666666666666 95.99999999999999 40.44566077417017 95.99999999999999 32 117.33333333333333 5.095103511465272 117.33333333333333"/><polygon points="49.059807117511205 95.99999999999999 68.11069763821891 95.99999999999999 73.32716310084223 117.33333333333333 47.88751046019492 117.33333333333333"/><polygon points="87.66302114193546 95.99999999999999 121.73592521275259 95.99999999999999 124.79058465995882 117.33333333333333 88.19905678228804 117.33333333333333"/><polygon points="123.89554488467385 95.99999999999999 166.1602144475338 95.99999999999999 167.62017254819125 117.33333333333333 135.96436352067582 117.33333333333333"/><polygon points="187.89230719720936 95.99999999999999 195.67884020930478 95.99999999999999 205.66425016495143 117.33333333333333 188.9490875276937 117.33333333333333"/><polygon points="232.42162522293714 95.99999999999999 245.31374880469858 95.99999999999999 256.5792618807888 117.33333333333333 223.6042040335526 117.33333333333333"/><polygon points="291.73782474957164 95.99999999999999 291.3425908792219 95.99999999999999 304.64553655462004 117.33333333333333 269.6399144453952 117.33333333333333"/><polygon points="330.38148164989735 95.99999999999999 326.29195435870065 95.99999999999999 310.5979588217308 117.33333333333333 310.26083878245254 117.33333333333333"/><polygon points="333.0576480533524 95.99999999999999 372.697158061618 95.99999999999999 412.3524699808335 117.33333333333333 351.92124925419137 117.33333333333333"/><polygon points="392.21633840001476 95.99999999999999 407.4282534853056 95.99999999999999 428.45110600876234 117.33333333333333 386.6332973593109 117.33333333333333"/><polygon points="386.1293038272239 95.99999999999999 466.53116548911004 95.99999999999999 440.9617467544473 117.33333333333333 428.87727500355163 117.33333333333333"/><polygon points="448.12764352622946 95.99999999999999 492.4582219675094 95.99999999999999 516.8349455034021 117.33333333333333 477.70345259569046 117.33333333333333"/><polygon points="10.666666666666666 138.66666666666669 18.037297280685884 138.66666666666669 32 160 26.189378647228317 160"/><polygon points="51.94476508181857 138.66666666666669 66.40418353762877 138.66666666666669 77.31193560256999 160 37.75418029892 160"/><polygon points="100.00540911958016 138.66666666666669 129.26006986911918 138.66666666666669 115.48178348251155 160 97.93091287947847 160"/><polygon points="122.68294054356186 138.66666666666669 152.32933351315486 138.66666666666669 175.9229860621732 160 149.28923445789036 160"/><polygon points="164.39079694438868 138.66666666666669 196.00269387276646 138.66666666666669 184.8462561372136 160 186.27285882069958 160"/><polygon points="242.50934718273984 138.66666666666669 241.4050691893823 138.66666666666669 239.62024648863394 160 238.72702386706703 160"/><polygon points="276.4010323780075 138.66666666666669 283.00501649392476 138.66666666666669 260.3868947204222 160 274.13810963826694 160"/><polygon points="275.2509811223641 138.66666666666669 318.16385015503164 138.66666666666669 306.401783444094 160 311.3084757075847 160"/><polygon points="312.55659315361464 138.66666666666669 364.69454219723247 138.66666666666669 330.6897460878195 160 355.0458970470124 160"/><polygon points="441.1435909190796 138.66666666666669 415.6330799868732 138.66666666666669 371.5746586586878 160 404.09631125080307 160"/><polygon points="444.426135664958 138.66666666666669 448.95821027327753 138.66666666666669 405.49826091868243 160 441.3550216848461 160"/><polygon points="523.6688035845522 138.66666666666669 513.4887159417132 138.66666666666669 466.4652130333759 160 480.9078839655033 160"/><polygon points="10.666666666666666 181.33333333333334 19.13480712191521 181.33333333333334 32 202.66666666666666 23.88863918912279 202.66666666666666"/><polygon points="49.65325224525378 181.33333333333334 69.16097875547256 181.33333333333334 77.30789340424911 202.66666666666666 46.39160012810759 202.66666666666666"/><polygon points="91.49459424779297 181.33333333333334 120.05154704995014 181.33333333333334 107.28257021539487 202.66666666666666 107.10528225784412 202.66666666666666"/><polygon points="140.10363143585894 181.33333333333334 170.50080344812852 181.33333333333334 175.05946809015882 202.66666666666666 119.13172558342153 202.66666666666666"/><polygon points="170.6902633787713 181.33333333333334 184.72900070140952 181.33333333333334 188.43964896905257 202.66666666666666 179.69701784495626 202.66666666666666"/><polygon points="198.68544416275287 181.33333333333334 225.3602166270979 181.33333333333334 242.07921541215316 202.66666666666666 209.6627213496884 202.66666666666666"/><polygon points="275.21737938120833 181.33333333333334 270.37156991046515 181.33333333333334 274.18059549648075 202.66666666666666 248.11003268102434 202.66666666666666"/><polygon points="346.18977413524806 181.33333333333334 338.38300197760316 181.33333333333334 307.47291484002403 202.66666666666666 303.17243840781003 202.66666666666666"/><polygon points="355.8998222051469 181.33333333333334 365.81275690314 181.33333333333334 354.4663938598491 202.66666666666666 332.688502503546 202.66666666666666"/><polygon points="402.68186975093846 181.33333333333334 429.2302670106099 181.33333333333334 414.39230959719526 202.66666666666666 415.97699123708117 202.66666666666666"/><polygon points="459.00217197235276 181.33333333333334 460.54528173993134 181.33333333333334 405.715410248448 202.66666666666666 418.6704285078597 202.66666666666666"/><polygon points="428.7074113948446 181.33333333333334 481.99503095784434 181.33333333333334 506.04294934751715 202.66666666666666 465.7867618208503 202.66666666666666"/><polygon points="10.666666666666666 224 23.833340449546043 224 32 245.33333333333331 20.23230124576955 245.33333333333331"/><polygon points="53.38444660137733 224 94.28851540377576 224 76.15010835449011 245.33333333333331 65.62512573369479 245.33333333333331"/><polygon points="85.41849492367845 224 142.33620871169234 224 116.83386249895676 245.33333333333331 95.16201678799655 245.33333333333331"/><polygon points="133.5506184660425 224 174.20141798160088 224 155.2550209582203 245.33333333333331 141.75235663189727 245.33333333333331"/><polygon points="175.399385916643 224 216.68842614451552 224 210.73936877096057 245.33333333333331 179.5583039409566 245.33333333333331"/><polygon points="201.11196369896481 224 244.86410075677128 224 260.15052249747055 245.33333333333331 215.754569282097 245.33333333333331"/><polygon points="244.82861797495377 224 304.89108932644564 224 300.13944026165984 245.33333333333331 291.0920434352844 245.33333333333331"/><polygon points="298.37371333876104 224 356.3014852495019 224 357.12030743189325 245.33333333333331 289.1299670219744 245.33333333333331"/><polygon points="367.2806965356132 224 369.08561610439375 224 386.7980811522929 245.33333333333331 333.9845257822205 245.33333333333331"/><polygon points="412.6990626574033 224 390.6433742803263 224 438.4461892760462 245.33333333333331 373.6996768411384 245.33333333333331"/><polygon points="431.98294287638817 224 464.6784957611724 224 441.4289560455436 245.33333333333331 459.9242512306741 245.33333333333331"/><polygon points="512.7622243225521 224 497.10902183946376 224 476.228255103967 245.33333333333331 494.28381537547017 245.33333333333331"/><polygon points="10.666666666666666 266.66666666666663 33.43789796026056 266.66666666666663 32 288 -13.54035248613241 288"/><polygon points="52.95122858388808 266.66666666666663 75.92188460595864 266.66666666666663 78.02783566973226 288 24.930793955033955 288"/><polygon points="100.85024415472031 266.66666666666663 90.50757061093174 266.66666666666663 107.36813697299013 288 99.08801700206037 288"/><polygon points="129.2172583688079 266.66666666666663 181.35908071165036 266.66666666666663 144.14315080380467 288 126.64127305201023 288"/><polygon points="185.1297920538855 266.66666666666663 207.91790489769517 266.66666666666663 193.73448034761546 288 168.2338123207156 288"/><polygon points="228.89380780454525 266.66666666666663 213.45245001566073 266.66666666666663 242.19018868780103 288 254.22172953042573 288"/><polygon points="253.08496533875618 266.66666666666663 310.227160741531 266.66666666666663 256.6282912930583 288 260.0296493413543 288"/><polygon points="323.92520414900025 266.66666666666663 310.29032368580414 266.66666666666663 303.2596776231699 288 322.88331141886954 288"/><polygon points="322.5711598573637 266.66666666666663 354.1737693999907 266.66666666666663 370.8617612322768 288 336.3239215168694 288"/><polygon points="366.10545177117933 266.66666666666663 399.892519386055 266.66666666666663 374.96692138194425 288 418.9358377880015 288"/><polygon points="441.9579992780847 266.66666666666663 473.86831033531024 266.66666666666663 471.85442278558344 288 448.02394259982526 288"/><polygon points="428.773023470906 266.66666666666663 494.5883754091223 266.66666666666663 479.04987906361583 288 483.5422183367965 288"/><polygon points="10.666666666666666 309.33333333333326 58.918630473547836 309.33333333333326 32 330.66666666666663 2.5395451494455266 330.66666666666663"/><polygon points="53.0084413699003 309.33333333333326 96.33556348321102 309.33333333333326 73.74349103555868 330.66666666666663 82.50352726850082 330.66666666666663"/><polygon points="89.7016684841114 309.33333333333326 149.27617606252755 309.33333333333326 124.87422939566441 330.66666666666663 62.98063477081675 330.66666666666663"/><polygon points="141.9934248402572 309.33333333333326 194.12637413221296 309.33333333333326 174.15358116252006 330.66666666666663 170.8685066317013 330.66666666666663"/><polygon points="188.79773100995837 309.33333333333326 191.22620992284794 309.33333333333326 218.2371767085991 330.66666666666663 216.0003613238356 330.66666666666663"/><polygon points="224.39214029071226 309.33333333333326 251.3676582613516 309.33333333333326 235.33679027021105 330.66666666666663 221.44052621163468 330.66666666666663"/><polygon points="271.4359407768245 309.33333333333326 299.7981098017874 309.33333333333326 295.5938061177081 330.66666666666663 298.87913375438626 330.66666666666663"/><polygon points="308.37186896546547 309.33333333333326 364.2423473046727 309.33333333333326 330.2295410228789 330.66666666666663 299.03949574692774 330.66666666666663"/><polygon points="333.8080910307154 309.33333333333326 357.0128651498483 309.33333333333326 415.3760172812612 330.66666666666663 386.51740107518265 330.66666666666663"/><polygon points="357.4736878377587 309.33333333333326 381.35809354938897 309.33333333333326 387.038458026142 330.66666666666663 377.64806169476515 330.66666666666663"/><polygon points="405.94668750935733 309.33333333333326 468.83416085872653 309.33333333333326 407.05112434589626 330.66666666666663 410.1459050115392 330.66666666666663"/><polygon points="489.2122272704745 309.33333333333326 530.7473071329175 309.33333333333326 495.6183775063119 330.66666666666663 444.00674697969316 330.66666666666663"/><polygon points="10.666666666666666 351.99999999999994 49.8881526545126 351.99999999999994 32 373.3333333333333 15.798864961753148 373.3333333333333"/><polygon points="53.38362290662732 351.99999999999994 51.407289680359575 351.99999999999994 73.82750343872408 373.3333333333333 13.600528445404322 373.3333333333333"/><polygon points="87.04903038809248 351.99999999999994 111.98949637703195 351.99999999999994 121.28024081149154 373.3333333333333 76.78788784991397 373.3333333333333"/><polygon points="153.78321684497607 351.99999999999994 145.3166903357877 351.99999999999994 166.54972792460566 373.3333333333333 108.72614295210134 373.3333333333333"/><polygon points="201.09022830404513 351.99999999999994 223.07859729153657 351.99999999999994 205.1835694971646 373.3333333333333 212.65301449351458 373.3333333333333"/><polygon points="244.199631400423 351.99999999999994 263.28397150256495 351.99999999999994 265.84100776778405 373.3333333333333 201.76736875262498 373.3333333333333"/><polygon points="260.36573491758224 351.99999999999994 289.93035754749627 351.99999999999994 258.3344275253906 373.3333333333333 307.19731096600856 373.3333333333333"/><polygon points="341.86330686498036 351.99999999999994 339.15662190936024 351.99999999999994 309.45439428107403 373.3333333333333 337.83195476781196 373.3333333333333"/><polygon points="372.6184145656685 351.99999999999994 400.3404513053068 351.99999999999994 381.90188640675626 373.3333333333333 328.2269535113943 373.3333333333333"/><polygon points="417.6547444706551 351.99999999999994 412.61542702646335 351.99999999999994 407.1608967347393 373.3333333333333 429.71567744278485 373.3333333333333"/><polygon points="470.50143549735014 351.99999999999994 491.4975460671256 351.99999999999994 478.3132539013507 373.3333333333333 419.4293826050343 373.3333333333333"/><polygon points="519.2241578360234 351.99999999999994 485.20108859855935 351.99999999999994 520.2877944874606 373.3333333333333 497.4308504477896 373.3333333333333"/><polygon points="10.666666666666666 394.66666666666663 51.628996578308715 394.66666666666663 32 416 22.120307418581703 416"/><polygon points="50.35306813996661 394.66666666666663 41.02241582942193 394.66666666666663 71.56963199573386 416 43.610346662470555 416"/><polygon points="88.2127699732339 394.66666666666663 139.28426861168523 394.66666666666663 124.8807040126395 416 77.64765442728913 416"/><polygon points="150.8659332787965 394.66666666666663 167.67941166133303 394.66666666666663 169.119458241941 416 113.19086379593081 416"/><polygon points="192.1572255276962 394.66666666666663 224.16516297753276 394.66666666666663 200.4649655931189 416 178.6010072054098 416"/><polygon points="224.355227495657 394.66666666666663 271.7078593277341 394.66666666666663 230.31766486038086 416 247.5881650166915 416"/><polygon points="274.6412829878928 394.66666666666663 264.9404226916156 394.66666666666663 307.64664399789416 416 235.72211287827798 416"/><polygon points="319.3593638147242 394.66666666666663 303.09912810771374 394.66666666666663 320.7594101867259 416 351.1870495835255 416"/><polygon points="329.8330530754667 394.66666666666663 361.189441648322 394.66666666666663 353.02984484212783 416 314.7437934954607 416"/><polygon points="432.60807983310247 394.66666666666663 407.71695591734175 394.66666666666663 454.6100607129353 416 361.4202714495035 416"/><polygon points="459.778167025029 394.66666666666663 493.85100401535124 394.66666666666663 452.39184446179536 416 396.08307856190936 416"/><polygon points="457.83384322427855 394.66666666666663 547.8649720578294 394.66666666666663 495.0635079303377 416 455.98098786353466 416"/><polygon points="10.666666666666666 437.33333333333326 -12.962956260085999 437.33333333333326 32 458.66666666666663 31.517072958363777 458.66666666666663"/><polygon points="49.20511163787191 437.33333333333326 31.556184293500472 437.33333333333326 74.33511672203235 458.66666666666663 90.1454635886946 458.66666666666663"/><polygon points="95.80668419608628 437.33333333333326 166.0211196533465 437.33333333333326 115.67799658246535 458.66666666666663 71.11165443805211 458.66666666666663"/><polygon points="148.51516252727887 437.33333333333326 189.60445789030803 437.33333333333326 151.7661696688656 458.66666666666663 138.97453148987842 458.66666666666663"/><polygon points="195.40988455390263 437.33333333333326 247.20598783957632 437.33333333333326 207.21959102648228 458.66666666666663 190.0805218466095 458.66666666666663"/><polygon points="240.64196172585312 437.33333333333326 206.89159229573545 437.33333333333326 266.85802940895655 458.66666666666663 175.36110701458682 458.66666666666663"/><polygon points="242.3094054103611 437.33333333333326 281.53285976626586 437.33333333333326 283.1817699103504 458.66666666666663 316.21057068447294 458.66666666666663"/><polygon points="335.1849418233485 437.33333333333326 311.5160914807693 437.33333333333326 308.1341285279225 458.66666666666663 282.1534292723616 458.66666666666663"/><polygon points="319.84389162279564 437.33333333333326 368.8153881029676 437.33333333333326 357.40504731370896 458.66666666666663 350.5148283561156 458.66666666666663"/><polygon points="378.97633068786655 437.33333333333326 431.3527521403336 437.33333333333326 444.2292530961841 458.66666666666663 418.08282779042077 458.66666666666663"/><polygon points="446.573078207709 437.33333333333326 475.0839098230987 437.33333333333326 464.26800619406964 458.66666666666663 386.2510170658437 458.66666666666663"/><polygon points="524.4802455696611 437.33333333333326 540.7250954945378 437.33333333333326 472.01431594996166 458.66666666666663 502.06115933748487 458.66666666666663"/><polygon points="10.666666666666666 479.99999999999994 61.484136091727834 479.99999999999994 32 501.3333333333333 30.269533270586102 501.3333333333333"/><polygon points="55.3706630501512 479.99999999999994 64.53593695907911 479.99999999999994 78.54123176142238 501.3333333333333 30.530956003521638 501.3333333333333"/><polygon points="88.45243398661597 479.99999999999994 62.72951288599099 479.99999999999994 120.9150148303334 501.3333333333333 133.6335675844423 501.3333333333333"/><polygon points="132.30232412689492 479.99999999999994 188.03995064669672 479.99999999999994 166.0245389932526 501.3333333333333 96.28913116674417 501.3333333333333"/><polygon points="197.51167578175466 479.99999999999994 201.68824287264107 479.99999999999994 201.75927785519167 501.3333333333333 180.81298729344255 501.3333333333333"/><polygon points="227.2566544426512 479.99999999999994 188.7574622703063 479.99999999999994 224.92244858640373 501.3333333333333 199.89656387125325 501.3333333333333"/><polygon points="285.1113641462441 479.99999999999994 293.16622343225805 479.99999999999994 313.97161372372784 501.3333333333333 280.92373081594275 501.3333333333333"/><polygon points="299.9029425617125 479.99999999999994 373.8258683716346 479.99999999999994 294.52827370582446 501.3333333333333 277.288575021874 501.3333333333333"/><polygon points="320.0656115910434 479.99999999999994 356.5351153236503 479.99999999999994 379.0334786395583 501.3333333333333 355.70842215308755 501.3333333333333"/><polygon points="392.9412251031603 479.99999999999994 397.81812967170583 479.99999999999994 389.2019640923487 501.3333333333333 392.1496952478982 501.3333333333333"/><polygon points="468.4584842164205 479.99999999999994 403.4005557739962 479.99999999999994 452.9663461965829 501.3333333333333 440.8616038943978 501.3333333333333"/><polygon points="508.0617368946381 479.99999999999994 524.488251808397 479.99999999999994 526.6900889762268 501.3333333333333 494.9102492090265 501.3333333333333"/>
</svg>
