<?xml version="1.0" encoding="UTF-8"?>
<svg xmlns="http://www.w3.org/2000/svg" id="RSSicon" viewBox="0 0 512 512" width="512" height="512">
  <defs>
    <style type="text/css">
      svg {
        background: black;
        margin: calc(50vh - 256px) auto 0;
      }
      
      polygon {stroke: darkorange; fill: none;}
    </style>
  </defs>
  <polygon points="10.666666666666666 10.666666666666666 32 10.666666666666666 32 32 10.666666666666666 32"/><polygon points="56.496079099815056 10.666666666666666 74.66666666666667 10.666666666666666 77.25844071633011 32 53.333333333333336 32"/><polygon points="89.8207091373098 10.666666666666666 117.33333333333333 10.666666666666666 125.21401362113464 32 95.99999999999999 32"/><polygon points="143.92336147069977 10.666666666666666 160 10.666666666666666 147.5422885246504 32 138.66666666666669 32"/><polygon points="171.34006620442176 10.666666666666666 202.66666666666666 10.666666666666666 208.0872073121705 32 181.33333333333334 32"/><polygon points="234.60720681995605 10.666666666666666 245.33333333333331 10.666666666666666 240.07314943271663 32 224 32"/><polygon points="266.72945924468297 10.666666666666666 288 10.666666666666666 257.15089335462386 32 266.66666666666663 32"/><polygon points="330.14262569992917 10.666666666666666 330.66666666666663 10.666666666666666 325.8636542565764 32 309.33333333333326 32"/><polygon points="359.34125068135586 10.666666666666666 373.3333333333333 10.666666666666666 411.9277437929016 32 351.99999999999994 32"/><polygon points="406.4207907057129 10.666666666666666 416 10.666666666666666 416.20816693540627 32 394.66666666666663 32"/><polygon points="472.9529117768432 10.666666666666666 458.66666666666663 10.666666666666666 449.46845903433905 32 437.33333333333326 32"/><polygon points="532.0442903903609 10.666666666666666 501.3333333333333 10.666666666666666 536.6675057458438 32 479.99999999999994 32"/><polygon points="10.666666666666666 53.333333333333336 37.01870072395741 53.333333333333336 32 74.66666666666667 14.97869288891292 74.66666666666667"/><polygon points="57.197166108963465 53.333333333333336 77.60073215600866 53.333333333333336 69.33685035125745 74.66666666666667 48.5533546369372 74.66666666666667"/><polygon points="104.30326860205831 53.333333333333336 113.53068261517177 53.333333333333336 119.73868500822321 74.66666666666667 96.88756364081338 74.66666666666667"/><polygon points="129.71629131892834 53.333333333333336 155.9591276753568 53.333333333333336 151.96969186323952 74.66666666666667 139.3260036264531 74.66666666666667"/><polygon points="188.65631048108398 53.333333333333336 205.73764410411053 53.333333333333336 217.25308375053268 74.66666666666667 177.78934632119672 74.66666666666667"/><polygon points="232.98152454664157 53.333333333333336 249.01369012258974 53.333333333333336 268.6600697053213 74.66666666666667 222.47320865080164 74.66666666666667"/><polygon points="246.93073891691523 53.333333333333336 292.2072671983292 53.333333333333336 273.0530504657235 74.66666666666667 268.8395590231364 74.66666666666667"/><polygon points="298.8136295280725 53.333333333333336 330.78407214632085 53.333333333333336 336.9040475360961 74.66666666666667 313.1121404022563 74.66666666666667"/><polygon points="352.81502478756585 53.333333333333336 369.05327002964947 53.333333333333336 407.84552523496336 74.66666666666667 351.02401426616683 74.66666666666667"/><polygon points="386.99778742946404 53.333333333333336 421.14233267534786 53.333333333333336 417.3739767979634 74.66666666666667 392.70004800983935 74.66666666666667"/><polygon points="431.7893367492672 53.333333333333336 453.80507044584544 53.333333333333336 506.9381823228812 74.66666666666667 438.88722529889475 74.66666666666667"/><polygon points="492.83459510270654 53.333333333333336 503.6201980097257 53.333333333333336 549.2889794065915 74.66666666666667 479.778406962397 74.66666666666667"/><polygon points="10.666666666666666 95.99999999999999 32.92069717836277 95.99999999999999 32 117.33333333333333 7.554456689830236 117.33333333333333"/><polygon points="57.22710492407437 95.99999999999999 72.74014519860876 95.99999999999999 74.67077228652121 117.33333333333333 47.14437323077068 117.33333333333333"/><polygon points="92.03544642720058 95.99999999999999 106.8016240228031 95.99999999999999 110.74697016658489 117.33333333333333 97.01234624091772 117.33333333333333"/><polygon points="144.80617375461645 95.99999999999999 155.39304468591234 95.99999999999999 156.331834389988 117.33333333333333 138.1538755474745 117.33333333333333"/><polygon points="198.91332018332648 95.99999999999999 213.26532601864713 95.99999999999999 197.67049939803374 117.33333333333333 175.56485915112324 117.33333333333333"/><polygon points="243.9436853461024 95.99999999999999 238.06490021675782 95.99999999999999 246.3519372836218 117.33333333333333 216.9531568619704 117.33333333333333"/><polygon points="276.2932304222283 95.99999999999999 289.2819188691901 95.99999999999999 304.76604305122135 117.33333333333333 266.3865723495654 117.33333333333333"/><polygon points="287.4275667697901 95.99999999999999 328.1746321754833 95.99999999999999 315.25364708408296 117.33333333333333 310.50648918919705 117.33333333333333"/><polygon points="362.5428430803096 95.99999999999999 380.1488386837389 95.99999999999999 352.2565403511581 117.33333333333333 351.25498682272746 117.33333333333333"/><polygon points="385.4549588073748 95.99999999999999 414.61735152238305 95.99999999999999 431.9597171604412 117.33333333333333 401.6680528510494 117.33333333333333"/><polygon points="451.4634313888718 95.99999999999999 462.2747545106484 95.99999999999999 424.22898920444635 117.33333333333333 441.40515954084594 117.33333333333333"/><polygon points="510.5406353140475 95.99999999999999 506.9725486619623 95.99999999999999 517.5924225109165 117.33333333333333 486.89069035039466 117.33333333333333"/><polygon points="10.666666666666666 138.66666666666669 28.476070519763887 138.66666666666669 32 160 15.107551472895503 160"/><polygon points="55.993849979928335 138.66666666666669 87.49996813578632 138.66666666666669 78.21441326372536 160 51.76845393017351 160"/><polygon points="103.48813248154607 138.66666666666669 119.52418733361763 138.66666666666669 127.39405392702031 160 98.1344145563866 160"/><polygon points="147.91329590010307 138.66666666666669 146.38471335135355 138.66666666666669 152.47848663891673 160 154.44865168889558 160"/><polygon points="172.67328418104603 138.66666666666669 211.70591790637886 138.66666666666669 217.1406691370538 160 196.7224892811988 160"/><polygon points="237.64917804170784 138.66666666666669 230.2056715744416 138.66666666666669 250.60774759981746 160 210.4745695050869 160"/><polygon points="280.5326926532616 138.66666666666669 287.0551409245007 138.66666666666669 268.78005230135915 160 251.14942531831392 160"/><polygon points="333.0016642548787 138.66666666666669 315.00370590314446 138.66666666666669 321.91034968191167 160 299.85167570056575 160"/><polygon points="331.8372081770741 138.66666666666669 388.5459514172673 138.66666666666669 348.9367416304297 160 360.9550172220689 160"/><polygon points="395.400559795905 138.66666666666669 408.3897629571725 138.66666666666669 432.4021597503297 160 404.55211189952473 160"/><polygon points="475.6346137093067 138.66666666666669 458.0946697332162 138.66666666666669 496.4685625421105 160 440.44381979132265 160"/><polygon points="438.21538873462976 138.66666666666669 500.9380191298217 138.66666666666669 517.7645304083842 160 480.51048796035377 160"/><polygon points="10.666666666666666 181.33333333333334 32.68340010569341 181.33333333333334 32 202.66666666666666 -7.091382827623562 202.66666666666666"/><polygon points="50.98544357187782 181.33333333333334 67.40092481570208 181.33333333333334 72.2927941243814 202.66666666666666 57.52507802407124 202.66666666666666"/><polygon points="101.30857243561216 181.33333333333334 96.07079138310085 181.33333333333334 112.09869131506557 202.66666666666666 85.27307380990109 202.66666666666666"/><polygon points="147.04017612674164 181.33333333333334 162.24184894907322 181.33333333333334 168.55983525576573 202.66666666666666 132.22084077904663 202.66666666666666"/><polygon points="182.51998340654845 181.33333333333334 212.05783283875283 181.33333333333334 211.32438888740108 202.66666666666666 177.88221424581542 202.66666666666666"/><polygon points="243.95081565082944 181.33333333333334 256.0634025914004 181.33333333333334 238.94384577470524 202.66666666666666 219.53891380739967 202.66666666666666"/><polygon points="297.11506914176147 181.33333333333334 294.71019595259884 181.33333333333334 269.29743657340333 202.66666666666666 278.0466478905993 202.66666666666666"/><polygon points="292.5691960273203 181.33333333333334 313.8413625122297 181.33333333333334 328.0448428302724 202.66666666666666 309.04601069850423 202.66666666666666"/><polygon points="392.00860654275374 181.33333333333334 391.13778393621084 181.33333333333334 337.6317848289244 202.66666666666666 332.22408023342956 202.66666666666666"/><polygon points="398.1783825760893 181.33333333333334 421.7818203510916 181.33333333333334 421.51483178073335 202.66666666666666 391.9491336288151 202.66666666666666"/><polygon points="385.4457971607837 181.33333333333334 466.0469602049577 181.33333333333334 452.83281363982996 202.66666666666666 429.2429889591761 202.66666666666666"/><polygon points="469.53240487956725 181.33333333333334 521.6920260683414 181.33333333333334 551.3145009172742 202.66666666666666 483.06769572305166 202.66666666666666"/><polygon points="10.666666666666666 224 43.44709848293724 224 32 245.33333333333331 14.175743856130595 245.33333333333331"/><polygon points="53.79350390199933 224 54.66325897360384 224 79.93998411049573 245.33333333333331 46.950826648953296 245.33333333333331"/><polygon points="88.5824744583802 224 134.29494977965942 224 109.41748068852884 245.33333333333331 90.47951240441924 245.33333333333331"/><polygon points="126.84191997013488 224 171.06451635508103 224 168.4684702191952 245.33333333333331 115.29166078159656 245.33333333333331"/><polygon points="160.6927857327876 224 225.82211363208103 224 208.9343703868567 245.33333333333331 160.5238821565432 245.33333333333331"/><polygon points="205.03758102935896 224 250.06579386975554 224 223.22308314903427 245.33333333333331 226.5722952483209 245.33333333333331"/><polygon points="290.3590320966188 224 289.1612182621697 224 283.0170042729991 245.33333333333331 289.69109234783934 245.33333333333331"/><polygon points="303.0819227292408 224 327.9098355873783 224 339.80704918949687 245.33333333333331 312.1880580616552 245.33333333333331"/><polygon points="350.86173063749476 224 394.62488867548825 224 401.1351899403386 245.33333333333331 362.99380179172186 245.33333333333331"/><polygon points="365.7269007315771 224 418.5604504933704 224 382.0878188445505 245.33333333333331 380.4566368776031 245.33333333333331"/><polygon points="467.913677968255 224 439.54840747968854 224 419.24628705609206 245.33333333333331 429.9482024565666 245.33333333333331"/><polygon points="470.35417176161127 224 493.1282274448448 224 476.11197119835197 245.33333333333331 490.5299163592313 245.33333333333331"/><polygon points="10.666666666666666 266.66666666666663 0.7319418516325413 266.66666666666663 32 288 0.7901162997770648 288"/><polygon points="50.53432851814602 266.66666666666663 96.27451348586501 266.66666666666663 72.58297519259187 288 49.861691123989 288"/><polygon points="94.13165705942717 266.66666666666663 108.10243926262162 266.66666666666663 119.71853719058497 288 112.19388602046901 288"/><polygon points="139.39979483406785 266.66666666666663 148.37994446218863 266.66666666666663 154.92786974901142 288 129.42085800348488 288"/><polygon points="190.37596269129938 266.66666666666663 171.23781026561696 266.66666666666663 201.46754557331806 288 149.88631544578527 288"/><polygon points="224.00754051052348 266.66666666666663 229.71584649053653 266.66666666666663 267.59235147268015 288 209.66593116451094 288"/><polygon points="248.03127849961675 266.66666666666663 263.73976460576887 266.66666666666663 303.89899228074285 288 280.2872914654677 288"/><polygon points="335.06229052521246 266.66666666666663 342.46701880776124 266.66666666666663 358.2281994703268 288 301.90075486016855 288"/><polygon points="376.5399021449409 266.66666666666663 352.0537046162637 266.66666666666663 407.8191526715177 288 354.33421530608416 288"/><polygon points="417.22705919363426 266.66666666666663 424.0147444438213 266.66666666666663 446.2197975208336 288 392.4859799506578 288"/><polygon points="457.7697081336216 266.66666666666663 439.8423788639212 266.66666666666663 429.1046862652613 288 421.2493504508895 288"/><polygon points="447.16894822960114 266.66666666666663 493.34220178890496 266.66666666666663 451.8752768498156 288 489.3674149930557 288"/><polygon points="10.666666666666666 309.33333333333326 46.787919374411274 309.33333333333326 32 330.66666666666663 31.060198946335476 330.66666666666663"/><polygon points="49.85703091268624 309.33333333333326 43.78952914194086 309.33333333333326 77.15960374769803 330.66666666666663 63.538133508414425 330.66666666666663"/><polygon points="85.97338836864455 309.33333333333326 98.90502456129778 309.33333333333326 119.05026288931093 330.66666666666663 108.0892085064626 330.66666666666663"/><polygon points="147.854876373023 309.33333333333326 136.05581424412094 309.33333333333326 167.15474180351703 330.66666666666663 127.79615356858149 330.66666666666663"/><polygon points="171.05419600343083 309.33333333333326 171.91563847312256 309.33333333333326 219.29126629253378 330.66666666666663 213.83699763112332 330.66666666666663"/><polygon points="217.60908871854457 309.33333333333326 270.85542481873637 309.33333333333326 255.69695009225597 330.66666666666663 239.8589549990131 330.66666666666663"/><polygon points="286.95582957708996 309.33333333333326 278.51693666132184 309.33333333333326 276.13650611421383 330.66666666666663 273.22741851583567 330.66666666666663"/><polygon points="297.9107878060056 309.33333333333326 334.39618913658336 309.33333333333326 349.05523690795525 330.66666666666663 325.7276787149653 330.66666666666663"/><polygon points="313.9186193546583 309.33333333333326 361.9542382321802 309.33333333333326 392.0146084939349 330.66666666666663 367.37584216281545 330.66666666666663"/><polygon points="357.4411868240818 309.33333333333326 434.1543815701882 309.33333333333326 440.3344377407304 330.66666666666663 392.69945679729636 330.66666666666663"/><polygon points="482.9025836700773 309.33333333333326 432.3431242082543 309.33333333333326 459.0839552920665 330.66666666666663 456.0949914853384 330.66666666666663"/><polygon points="457.3518172227512 309.33333333333326 482.7185842615016 309.33333333333326 490.53064547378636 330.66666666666663 503.9983861749886 330.66666666666663"/><polygon points="10.666666666666666 351.99999999999994 -9.985559290106512 351.99999999999994 32 373.3333333333333 -19.494976145280607 373.3333333333333"/><polygon points="54.695402146426034 351.99999999999994 104.26073574944805 351.99999999999994 79.24921470127957 373.3333333333333 24.972209924463925 373.3333333333333"/><polygon points="106.37470949260702 351.99999999999994 110.28470596911664 351.99999999999994 120.82664172541598 373.3333333333333 70.85423754182474 373.3333333333333"/><polygon points="133.5382647388845 351.99999999999994 153.68007466747594 351.99999999999994 165.3652512860029 373.3333333333333 142.05984806204503 373.3333333333333"/><polygon points="172.96557909167288 351.99999999999994 192.09623875955802 351.99999999999994 203.6934475169583 373.3333333333333 146.29003845621332 373.3333333333333"/><polygon points="218.5817187170728 351.99999999999994 257.3069439249774 351.99999999999994 245.77937783315164 373.3333333333333 217.24930105370277 373.3333333333333"/><polygon points="285.89570760394054 351.99999999999994 277.46706927615804 351.99999999999994 300.08380803910933 373.3333333333333 303.6714909549676 373.3333333333333"/><polygon points="282.0155252862685 351.99999999999994 359.50975655801795 351.99999999999994 304.1670675391551 373.3333333333333 266.9207453480596 373.3333333333333"/><polygon points="387.6344318786293 351.99999999999994 337.03579685077864 351.99999999999994 374.7135570110964 373.3333333333333 346.3420610517149 373.3333333333333"/><polygon points="366.76618979072094 351.99999999999994 419.6106446700683 351.99999999999994 456.6988259051908 373.3333333333333 415.0188482349479 373.3333333333333"/><polygon points="404.9338838008845 351.99999999999994 472.76083522967826 351.99999999999994 458.59455738222823 373.3333333333333 420.52169386718714 373.3333333333333"/><polygon points="474.0078979755817 351.99999999999994 462.74865926358666 351.99999999999994 559.3036950069525 373.3333333333333 497.1919988727319 373.3333333333333"/><polygon points="10.666666666666666 394.66666666666663 -5.914134301831879 394.66666666666663 32 416 12.197258077547014 416"/><polygon points="57.82089114651043 394.66666666666663 49.80230952699159 394.66666666666663 77.14458284041717 416 58.780469630120926 416"/><polygon points="95.18943973648776 394.66666666666663 117.88533309897748 394.66666666666663 126.21916036628193 416 51.255437700198705 416"/><polygon points="134.8021665746342 394.66666666666663 202.49149624799506 394.66666666666663 144.86021198730876 416 150.7760074488739 416"/><polygon points="175.54683947712184 394.66666666666663 230.69383361534113 394.66666666666663 207.95024092422628 416 145.3776958663745 416"/><polygon points="199.96054903681022 394.66666666666663 285.09090675290184 394.66666666666663 259.79783795388306 416 234.47398420545156 416"/><polygon points="296.60023248532093 394.66666666666663 298.7704689917118 394.66666666666663 314.7412070643695 416 256.1619412267199 416"/><polygon points="300.5562307130027 394.66666666666663 297.327419665669 394.66666666666663 323.9251222485521 416 267.79519822605045 416"/><polygon points="348.16562852653084 394.66666666666663 346.94510430139127 394.66666666666663 378.6802076565909 416 395.0449755513355 416"/><polygon points="435.33278272420125 394.66666666666663 413.66654286519525 394.66666666666663 458.85996162939125 416 431.02997560843846 416"/><polygon points="446.46440215166956 394.66666666666663 419.5460160212751 394.66666666666663 456.8698682602473 416 450.0220136451842 416"/><polygon points="534.237987647066 394.66666666666663 518.1416712894318 394.66666666666663 509.96910399409336 416 461.829305003115 416"/><polygon points="10.666666666666666 437.33333333333326 1.4137113596755988 437.33333333333326 32 458.66666666666663 41.12999245550098 458.66666666666663"/><polygon points="57.383933089253 437.33333333333326 52.56458264925952 437.33333333333326 75.23138917332426 458.66666666666663 39.18011473840873 458.66666666666663"/><polygon points="103.9005430808166 437.33333333333326 108.27397303430658 437.33333333333326 107.4622326193583 458.66666666666663 81.84091493521464 458.66666666666663"/><polygon points="137.71434203884687 437.33333333333326 174.85914259148387 437.33333333333326 156.98206430560091 458.66666666666663 101.80630099670213 458.66666666666663"/><polygon points="162.4031559979504 437.33333333333326 150.1395843053353 437.33333333333326 204.7530135511782 458.66666666666663 191.76759948236372 458.66666666666663"/><polygon points="247.2010461184867 437.33333333333326 249.21340174950527 437.33333333333326 220.15156695254012 458.66666666666663 269.30863934869194 458.66666666666663"/><polygon points="289.30784715056825 437.33333333333326 267.06553248195047 437.33333333333326 275.1929491540956 458.66666666666663 215.82594562438004 458.66666666666663"/><polygon points="314.4210969102187 437.33333333333326 293.1244086337363 437.33333333333326 331.77622284754034 458.66666666666663 289.60113732808725 458.66666666666663"/><polygon points="368.88014341228023 437.33333333333326 373.4822258532593 437.33333333333326 391.87510659902927 458.66666666666663 395.9327350528889 458.66666666666663"/><polygon points="411.99606645060913 437.33333333333326 395.5981093401542 437.33333333333326 428.66010375363606 458.66666666666663 398.89410647411944 458.66666666666663"/><polygon points="469.3800722432594 437.33333333333326 419.57960503224336 437.33333333333326 479.11975893335176 458.66666666666663 433.8280702377314 458.66666666666663"/><polygon points="435.56039766001606 437.33333333333326 481.93416374557506 437.33333333333326 492.5394662352604 458.66666666666663 436.00717126310525 458.66666666666663"/><polygon points="10.666666666666666 479.99999999999994 49.41725184191809 479.99999999999994 32 501.3333333333333 44.3116753799241 501.3333333333333"/><polygon points="55.56004563075517 479.99999999999994 123.32215430388638 479.99999999999994 69.45601353217522 501.3333333333333 18.33286467339174 501.3333333333333"/><polygon points="99.34241587635258 479.99999999999994 120.4658435367987 479.99999999999994 120.15754811784598 501.3333333333333 71.55850818565241 501.3333333333333"/><polygon points="132.3941803581742 479.99999999999994 102.75832390981861 479.99999999999994 172.52217610324885 501.3333333333333 124.42471547148828 501.3333333333333"/><polygon points="163.79276239858373 479.99999999999994 206.95847826142176 479.99999999999994 201.53359527023014 501.3333333333333 129.01202634403242 501.3333333333333"/><polygon points="220.2867348696607 479.99999999999994 247.0696775248519 479.99999999999994 251.9320192564671 501.3333333333333 256.14680529159466 501.3333333333333"/><polygon points="285.2995129318397 479.99999999999994 312.4133516798017 479.99999999999994 260.13862278239105 501.3333333333333 270.0755367188569 501.3333333333333"/><polygon points="324.3832359376453 479.99999999999994 320.94966385558763 479.99999999999994 343.2591004305947 501.3333333333333 252.12890163546584 501.3333333333333"/><polygon points="371.2136630328929 479.99999999999994 331.3509710053543 479.99999999999994 335.906559527709 501.3333333333333 311.5381247620902 501.3333333333333"/><polygon points="424.606059836595 479.99999999999994 362.06548909676087 479.99999999999994 430.7734025622026 501.3333333333333 449.76367270453204 501.3333333333333"/><polygon points="473.64152612084246 479.99999999999994 472.73116510612624 479.99999999999994 445.73878966663676 501.3333333333333 490.14220526346895 501.3333333333333"/><polygon points="456.4366638224767 479.99999999999994 462.27165657038114 479.99999999999994 545.9359235117105 501.3333333333333 536.9466748451412 501.3333333333333"/>
</svg>
