<?xml version="1.0" encoding="UTF-8"?>
<svg xmlns="http://www.w3.org/2000/svg" id="RSSicon" viewBox="0 0 512 512" width="512" height="512">
  <defs>
    <style type="text/css">
      svg {
        background: black;
        margin: calc(50vh - 256px) auto 0;
      }
      
      polygon {stroke: darkorange; fill: none;}
    </style>
  </defs>
  <polygon points="10.666666666666666 10.666666666666666 32 10.666666666666666 32 32 10.666666666666666 32"/><polygon points="54.857804576163375 10.666666666666666 74.66666666666667 10.666666666666666 78.29315761470828 32 53.333333333333336 32"/><polygon points="85.87606712536981 10.666666666666666 117.33333333333333 10.666666666666666 113.57145067204229 32 95.99999999999999 32"/><polygon points="131.0344940303188 10.666666666666666 160 10.666666666666666 160.83064882043914 32 138.66666666666669 32"/><polygon points="180.27727893576795 10.666666666666666 202.66666666666666 10.666666666666666 211.16186820786996 32 181.33333333333334 32"/><polygon points="201.35596235422648 10.666666666666666 245.33333333333331 10.666666666666666 248.54433396077116 32 224 32"/><polygon points="252.69966639878706 10.666666666666666 288 10.666666666666666 273.94793363150086 32 266.66666666666663 32"/><polygon points="334.48453923828794 10.666666666666666 330.66666666666663 10.666666666666666 317.6403233764135 32 309.33333333333326 32"/><polygon points="384.76639056344544 10.666666666666666 373.3333333333333 10.666666666666666 401.47197494891464 32 351.99999999999994 32"/><polygon points="439.7610446050703 10.666666666666666 416 10.666666666666666 401.0575155688277 32 394.66666666666663 32"/><polygon points="398.8640541480996 10.666666666666666 458.66666666666663 10.666666666666666 504.3727883078883 32 437.33333333333326 32"/><polygon points="496.90973068580195 10.666666666666666 501.3333333333333 10.666666666666666 549.1364448711356 32 479.99999999999994 32"/><polygon points="10.666666666666666 53.333333333333336 33.40198940476437 53.333333333333336 32 74.66666666666667 12.19260595233125 74.66666666666667"/><polygon points="53.89818656536603 53.333333333333336 78.39817802420481 53.333333333333336 71.09712919428871 74.66666666666667 54.99330180906734 74.66666666666667"/><polygon points="88.61762576381531 53.333333333333336 117.47669349019137 53.333333333333336 107.10460548835628 74.66666666666667 99.35327106517059 74.66666666666667"/><polygon points="145.40812411653874 53.333333333333336 158.53558123760382 53.333333333333336 156.42610343750886 74.66666666666667 134.19027095604642 74.66666666666667"/><polygon points="196.1240046962187 53.333333333333336 203.08961140134568 53.333333333333336 200.43138058870528 74.66666666666667 181.5947818704518 74.66666666666667"/><polygon points="209.62008663611903 53.333333333333336 241.85276357722125 53.333333333333336 247.58517703767572 74.66666666666667 225.19845228633318 74.66666666666667"/><polygon points="290.53510701283045 53.333333333333336 291.37357022017784 53.333333333333336 296.6469827563824 74.66666666666667 271.63088673985044 74.66666666666667"/><polygon points="279.2511913079911 53.333333333333336 334.555360409975 53.333333333333336 336.7267402352513 74.66666666666667 307.00371425113485 74.66666666666667"/><polygon points="363.9003143554716 53.333333333333336 373.0167129226703 53.333333333333336 369.9854870585898 74.66666666666667 354.3031536481358 74.66666666666667"/><polygon points="413.9017766228765 53.333333333333336 412.5371273801361 53.333333333333336 455.30837860001895 74.66666666666667 391.96632382785754 74.66666666666667"/><polygon points="430.44651131797036 53.333333333333336 456.0155615016143 53.333333333333336 475.88984012366393 74.66666666666667 435.0231712734554 74.66666666666667"/><polygon points="538.3017523075412 53.333333333333336 501.21520206611785 53.333333333333336 537.1572236697854 74.66666666666667 483.8227811293525 74.66666666666667"/><polygon points="10.666666666666666 95.99999999999999 23.25546908697122 95.99999999999999 32 117.33333333333333 8.076345883450353 117.33333333333333"/><polygon points="56.48617720122719 95.99999999999999 81.24057616428325 95.99999999999999 71.46607181228254 117.33333333333333 42.90277098715741 117.33333333333333"/><polygon points="105.67578182716242 95.99999999999999 122.64659954155141 95.99999999999999 127.47182287309013 117.33333333333333 97.13890786723891 117.33333333333333"/><polygon points="147.90488786659222 95.99999999999999 165.1678339074883 95.99999999999999 158.57047648050397 117.33333333333333 131.1519214238152 117.33333333333333"/><polygon points="195.6209486925146 95.99999999999999 202.03306206124094 95.99999999999999 216.23233293054003 117.33333333333333 183.08051107289504 117.33333333333333"/><polygon points="222.495297498223 95.99999999999999 239.797256009073 95.99999999999999 262.1921235092445 117.33333333333333 214.8987223278415 117.33333333333333"/><polygon points="254.2086623093929 95.99999999999999 295.7241249116854 95.99999999999999 310.6255414089588 117.33333333333333 276.0706110083689 117.33333333333333"/><polygon points="311.97320115901846 95.99999999999999 327.7404966872449 95.99999999999999 329.0586575814471 117.33333333333333 305.9391745115998 117.33333333333333"/><polygon points="339.6297458071445 95.99999999999999 368.5126553724366 95.99999999999999 360.364611074764 117.33333333333333 346.91687866293745 117.33333333333333"/><polygon points="419.75795411843194 95.99999999999999 408.0524587758987 95.99999999999999 413.2993247573883 117.33333333333333 401.88851053286584 117.33333333333333"/><polygon points="394.56084040602434 95.99999999999999 461.12663350954585 95.99999999999999 418.83258510032425 117.33333333333333 435.39795642245963 117.33333333333333"/><polygon points="472.69963145446076 95.99999999999999 494.7552468952487 95.99999999999999 490.75089162041485 117.33333333333333 489.57569037942665 117.33333333333333"/><polygon points="10.666666666666666 138.66666666666669 26.29563515967402 138.66666666666669 32 160 -2.215514098733724 160"/><polygon points="54.92973526845376 138.66666666666669 81.73180271399269 138.66666666666669 76.30013945758256 160 46.92516196349179 160"/><polygon points="101.98176785000007 138.66666666666669 116.70413313632221 138.66666666666669 112.93798583304438 160 89.12983883544342 160"/><polygon points="138.83499585990415 138.66666666666669 159.09232975427025 138.66666666666669 161.51323524125027 160 142.0824398193876 160"/><polygon points="188.35447316550108 138.66666666666669 214.83888427528973 138.66666666666669 197.0301611138849 160 172.60729925084163 160"/><polygon points="234.5831092887527 138.66666666666669 232.15727215633146 138.66666666666669 235.49198051794218 160 228.07747231115852 160"/><polygon points="269.88193395234805 138.66666666666669 275.8802612316846 138.66666666666669 261.40331631032967 160 280.68919619002753 160"/><polygon points="313.11490265075025 138.66666666666669 330.84885275869186 138.66666666666669 364.12632881307115 160 303.7343500599817 160"/><polygon points="386.5751518326444 138.66666666666669 361.12481308249227 138.66666666666669 392.5961278222843 160 338.60728721732687 160"/><polygon points="414.962441824505 138.66666666666669 408.84872776356633 138.66666666666669 387.0476635939717 160 407.5289353960828 160"/><polygon points="387.8076926741155 138.66666666666669 458.49541181432687 138.66666666666669 459.0972392678273 160 444.6620451576633 160"/><polygon points="528.3594703284144 138.66666666666669 498.2494679957834 138.66666666666669 494.99078512697247 160 490.0560484686637 160"/><polygon points="10.666666666666666 181.33333333333334 10.915781536786767 181.33333333333334 32 202.66666666666666 10.936489813661106 202.66666666666666"/><polygon points="53.094859954892556 181.33333333333334 90.37579420409945 181.33333333333334 74.99482836372545 202.66666666666666 61.71497050759015 202.66666666666666"/><polygon points="88.47904443655676 181.33333333333334 103.03469208384821 181.33333333333334 122.0711219378739 202.66666666666666 83.63436204452046 202.66666666666666"/><polygon points="149.8668645338923 181.33333333333334 164.5179873965459 181.33333333333334 163.19937188773852 202.66666666666666 122.86690846461096 202.66666666666666"/><polygon points="191.88475529561572 181.33333333333334 208.42669290197497 181.33333333333334 195.4050837817407 202.66666666666666 164.0491024387895 202.66666666666666"/><polygon points="207.2644946486659 181.33333333333334 265.57784427388367 181.33333333333334 220.01735677685187 202.66666666666666 225.61974316305492 202.66666666666666"/><polygon points="260.72971671171706 181.33333333333334 289.8356751393357 181.33333333333334 304.97043512357084 202.66666666666666 284.66362323560264 202.66666666666666"/><polygon points="283.40633975949163 181.33333333333334 345.0878352006253 181.33333333333334 359.6084410220742 202.66666666666666 328.6051929417664 202.66666666666666"/><polygon points="317.39255743380386 181.33333333333334 373.22422577603373 181.33333333333334 388.54526985318626 202.66666666666666 330.91599439613844 202.66666666666666"/><polygon points="428.8293238185352 181.33333333333334 419.85019583493977 181.33333333333334 448.46316218814627 202.66666666666666 402.64363063040446 202.66666666666666"/><polygon points="477.631278972931 181.33333333333334 451.1212316715399 181.33333333333334 449.76128328452126 202.66666666666666 446.1215797389636 202.66666666666666"/><polygon points="468.58568833710905 181.33333333333334 517.0072583687647 181.33333333333334 507.83564075037873 202.66666666666666 487.6475829636099 202.66666666666666"/><polygon points="10.666666666666666 224 55.68543426414519 224 32 245.33333333333331 13.68317150589905 245.33333333333331"/><polygon points="50.26947796325766 224 68.33487860328097 224 71.0566628839075 245.33333333333331 60.82870431838238 245.33333333333331"/><polygon points="98.11290466798987 224 106.19907403445693 224 120.39877799998754 245.33333333333331 74.6636374241236 245.33333333333331"/><polygon points="129.05703777674213 224 134.1578684622798 224 172.0095412585853 245.33333333333331 129.03721170950024 245.33333333333331"/><polygon points="162.8764107904994 224 190.23845939002362 224 218.02278881820553 245.33333333333331 179.82477873374 245.33333333333331"/><polygon points="237.93246715254625 224 267.7148762866394 224 245.52337734388954 245.33333333333331 237.55240291711604 245.33333333333331"/><polygon points="288.55354115140887 224 268.00719205881546 224 262.15163471925337 245.33333333333331 251.78190867397763 245.33333333333331"/><polygon points="284.1672029325022 224 305.3295815228341 224 352.43039669103075 245.33333333333331 286.1990245790473 245.33333333333331"/><polygon points="384.8064349489887 224 363.46109156839856 224 388.13870117610975 245.33333333333331 365.7182314491113 245.33333333333331"/><polygon points="356.29614374484663 224 427.6867979473923 224 406.5013491308659 245.33333333333331 415.2724675227245 245.33333333333331"/><polygon points="438.9156439521841 224 439.5650613859282 224 474.4173099643146 245.33333333333331 463.7802956759814 245.33333333333331"/><polygon points="436.37864135133856 224 518.8260666786641 224 506.98511571764067 245.33333333333331 456.6717040451273 245.33333333333331"/><polygon points="10.666666666666666 266.66666666666663 37.776296033491604 266.66666666666663 32 288 17.967355483345123 288"/><polygon points="54.185878907033384 266.66666666666663 105.265199913455 266.66666666666663 75.90063355583993 288 77.53460842026008 288"/><polygon points="104.34134521786585 266.66666666666663 91.42582533355663 266.66666666666663 120.76912095659303 288 121.53843949025729 288"/><polygon points="145.46422840921724 266.66666666666663 170.3176725212649 266.66666666666663 172.47952656527883 288 166.07539357329878 288"/><polygon points="190.53606301022015 266.66666666666663 186.94666626686285 266.66666666666663 196.18172360964644 288 210.64712214323666 288"/><polygon points="219.49389029457836 266.66666666666663 238.48238105164663 266.66666666666663 231.35326133822755 288 253.55363220850313 288"/><polygon points="237.4668775634505 266.66666666666663 315.67647611178546 266.66666666666663 317.72738114053794 288 245.0745527639075 288"/><polygon points="278.21301457229293 266.66666666666663 326.34736370054435 266.66666666666663 314.77232694026515 288 288.9509407257307 288"/><polygon points="353.82869583288897 266.66666666666663 373.17323681746285 266.66666666666663 397.36619876926545 288 367.0235675383936 288"/><polygon points="387.9936499004915 266.66666666666663 420.24334915983053 266.66666666666663 411.9339994833605 288 391.99347609153165 288"/><polygon points="403.0655240588682 266.66666666666663 447.1194867666591 266.66666666666663 435.95049783303733 288 430.2213985292027 288"/><polygon points="459.8155349741022 266.66666666666663 496.0314103770424 266.66666666666663 482.7495387538211 288 506.62892792313727 288"/><polygon points="10.666666666666666 309.33333333333326 45.28213663505782 309.33333333333326 32 330.66666666666663 -21.65420580326167 330.66666666666663"/><polygon points="57.64861505905329 309.33333333333326 62.97876791799415 309.33333333333326 69.98393917143409 330.66666666666663 67.6996070561273 330.66666666666663"/><polygon points="99.41413094459433 309.33333333333326 89.97770262186933 309.33333333333326 111.04363824630555 330.66666666666663 112.7055954123726 330.66666666666663"/><polygon points="129.76350005924553 309.33333333333326 139.30117930841865 309.33333333333326 155.28854233768067 330.66666666666663 114.81446344875968 330.66666666666663"/><polygon points="195.87007325279876 309.33333333333326 220.53197335081228 309.33333333333326 189.20040247252967 330.66666666666663 205.08252186490367 330.66666666666663"/><polygon points="217.72280996290104 309.33333333333326 209.7282790621182 309.33333333333326 254.7523690209727 330.66666666666663 213.87653696020868 330.66666666666663"/><polygon points="255.9664740569344 309.33333333333326 294.62996589796273 309.33333333333326 257.87085899851263 330.66666666666663 297.7343424104913 330.66666666666663"/><polygon points="315.02359713404013 309.33333333333326 315.8396179538221 309.33333333333326 299.2224775444842 330.66666666666663 336.046330222716 330.66666666666663"/><polygon points="378.7883084621386 309.33333333333326 396.5070258828835 309.33333333333326 384.52117161969323 330.66666666666663 332.4915101327506 330.66666666666663"/><polygon points="441.18071569663766 309.33333333333326 413.83891559940184 309.33333333333326 407.6374138663001 330.66666666666663 410.70800983412846 330.66666666666663"/><polygon points="418.50790973435096 309.33333333333326 489.6546928210043 309.33333333333326 415.07699288198677 330.66666666666663 443.53708142973915 330.66666666666663"/><polygon points="434.078916405502 309.33333333333326 480.14358912291357 309.33333333333326 516.2914021497805 330.66666666666663 485.10504808708777 330.66666666666663"/><polygon points="10.666666666666666 351.99999999999994 33.70686744555975 351.99999999999994 32 373.3333333333333 14.578405552265451 373.3333333333333"/><polygon points="55.52734292582947 351.99999999999994 60.89347750785165 351.99999999999994 74.65339073710142 373.3333333333333 79.08258963611496 373.3333333333333"/><polygon points="89.21278480577993 351.99999999999994 80.42620797795037 351.99999999999994 122.86427818155072 373.3333333333333 81.86191330568383 373.3333333333333"/><polygon points="147.71998326496492 351.99999999999994 182.06442641373118 351.99999999999994 148.6352722751197 373.3333333333333 167.62084142255415 373.3333333333333"/><polygon points="174.35553666112193 351.99999999999994 242.17628441160582 351.99999999999994 184.78394722803102 373.3333333333333 177.15779182471564 373.3333333333333"/><polygon points="238.67013911267213 351.99999999999994 212.19072125381007 351.99999999999994 263.7060342733147 373.3333333333333 264.58237954430945 373.3333333333333"/><polygon points="292.59408232878036 351.99999999999994 264.42745110434237 351.99999999999994 284.247217714691 373.3333333333333 298.88587097778236 373.3333333333333"/><polygon points="287.85657432556377 351.99999999999994 368.61223503505533 351.99999999999994 303.9852381278647 373.3333333333333 271.8553553726362 373.3333333333333"/><polygon points="378.6844789546486 351.99999999999994 368.1827767319768 351.99999999999994 351.644402884068 373.3333333333333 353.71470941207076 373.3333333333333"/><polygon points="350.59269174307866 351.99999999999994 389.4408950430151 351.99999999999994 406.138816373634 373.3333333333333 428.8460662935296 373.3333333333333"/><polygon points="487.61234686831165 351.99999999999994 489.76654829303203 351.99999999999994 425.003870108679 373.3333333333333 420.74909195398146 373.3333333333333"/><polygon points="431.9971719315619 351.99999999999994 461.9054292359713 351.99999999999994 443.13548867104424 373.3333333333333 470.67317123066937 373.3333333333333"/><polygon points="10.666666666666666 394.66666666666663 31.166639635440212 394.66666666666663 32 416 -4.559121953253452 416"/><polygon points="53.26655287697429 394.66666666666663 79.06498174156626 394.66666666666663 74.2067025444538 416 89.83701204692944 416"/><polygon points="104.75350828310411 394.66666666666663 134.2451334764124 394.66666666666663 116.00881522715241 416 82.31106081183015 416"/><polygon points="125.99132336199082 394.66666666666663 179.7327265801933 394.66666666666663 174.49896481656745 416 103.33466289448383 416"/><polygon points="189.456581701157 394.66666666666663 235.44781298990665 394.66666666666663 219.60777532169067 416 175.29118890838666 416"/><polygon points="237.9576321660169 394.66666666666663 259.2876526986113 394.66666666666663 248.62424147103917 416 199.79812718389982 416"/><polygon points="244.8777293245566 394.66666666666663 269.05688501094596 394.66666666666663 281.4321746790316 416 267.0842691695752 416"/><polygon points="296.20076117618953 394.66666666666663 350.6773638550787 394.66666666666663 329.4202241660794 416 279.2019766736546 416"/><polygon points="374.42857268098055 394.66666666666663 337.8354749457626 394.66666666666663 352.6719093279443 416 310.11420573836205 416"/><polygon points="347.7606953494362 394.66666666666663 419.4105065351645 394.66666666666663 380.65357591358344 416 434.3204934291431 416"/><polygon points="479.8744153331262 394.66666666666663 478.13036297888425 394.66666666666663 427.2205609542118 416 479.8664501825357 416"/><polygon points="520.6887051224317 394.66666666666663 535.9497879593417 394.66666666666663 451.2529043149034 416 464.0843422775336 416"/><polygon points="10.666666666666666 437.33333333333326 66.80624746509694 437.33333333333326 32 458.66666666666663 -12.52501138258484 458.66666666666663"/><polygon points="52.127809479378435 437.33333333333326 21.972500702156502 437.33333333333326 75.76150389079535 458.66666666666663 39.924885636730096 458.66666666666663"/><polygon points="98.95863749492284 437.33333333333326 74.8605944244901 437.33333333333326 126.59078639223439 458.66666666666663 101.8131214459633 458.66666666666663"/><polygon points="128.9127057730107 437.33333333333326 126.46054046955118 437.33333333333326 154.56280787344943 458.66666666666663 102.01138463756548 458.66666666666663"/><polygon points="191.22819121984315 437.33333333333326 246.9547611610572 437.33333333333326 206.2243613342423 458.66666666666663 153.20525949311656 458.66666666666663"/><polygon points="249.87073432792258 437.33333333333326 246.9042926027774 437.33333333333326 253.477026318656 458.66666666666663 237.78032077132465 458.66666666666663"/><polygon points="290.3835715198781 437.33333333333326 304.3784516110726 437.33333333333326 310.52908624041584 458.66666666666663 292.2157009241429 458.66666666666663"/><polygon points="345.75918164946876 437.33333333333326 285.9496832849935 437.33333333333326 329.37410857727156 458.66666666666663 354.49793132888476 458.66666666666663"/><polygon points="366.00280515497286 437.33333333333326 340.99293331405477 437.33333333333326 393.00021221733965 458.66666666666663 298.6968604644708 458.66666666666663"/><polygon points="377.6176373637018 437.33333333333326 390.4925697806885 437.33333333333326 453.6949162736279 458.66666666666663 426.5951031708919 458.66666666666663"/><polygon points="419.59244169265475 437.33333333333326 511.2844950910298 437.33333333333326 440.34355676430755 458.66666666666663 424.2477365154576 458.66666666666663"/><polygon points="426.98134302697696 437.33333333333326 478.62999910553265 437.33333333333326 449.77933350370455 458.66666666666663 458.8923142014135 458.66666666666663"/><polygon points="10.666666666666666 479.99999999999994 42.691143205193946 479.99999999999994 32 501.3333333333333 61.928525941939355 501.3333333333333"/><polygon points="48.864077845664 479.99999999999994 28.707726366874155 479.99999999999994 69.73651628366159 501.3333333333333 66.05681854591164 501.3333333333333"/><polygon points="93.87487296200679 479.99999999999994 96.78531456251575 479.99999999999994 108.10304224081516 501.3333333333333 56.53639811013039 501.3333333333333"/><polygon points="143.96633565321522 479.99999999999994 155.7679551935324 479.99999999999994 159.300122636881 501.3333333333333 83.86893616637633 501.3333333333333"/><polygon points="196.60615202372512 479.99999999999994 249.73819388512044 479.99999999999994 206.60511440647463 501.3333333333333 188.67367257544967 501.3333333333333"/><polygon points="208.4370257126052 479.99999999999994 261.61734300170735 479.99999999999994 250.47532872371144 501.3333333333333 184.64346533702167 501.3333333333333"/><polygon points="257.7390625047755 479.99999999999994 344.38535827268316 479.99999999999994 263.06276908336355 501.3333333333333 284.5394183151243 501.3333333333333"/><polygon points="331.1694589321146 479.99999999999994 286.9187485950551 479.99999999999994 295.9073051534267 501.3333333333333 366.7384620266891 501.3333333333333"/><polygon points="370.5839919179477 479.99999999999994 367.15719404432525 479.99999999999994 406.133889233058 501.3333333333333 323.9947789818887 501.3333333333333"/><polygon points="358.0777108351689 479.99999999999994 374.0718360372645 479.99999999999994 422.9955140213871 501.3333333333333 338.96176220793984 501.3333333333333"/><polygon points="470.9644639689317 479.99999999999994 410.31958803974976 479.99999999999994 425.8396072993964 501.3333333333333 491.2904058693186 501.3333333333333"/><polygon points="507.52682091035115 479.99999999999994 542.402598311101 479.99999999999994 477.19325763833643 501.3333333333333 438.0750285244957 501.3333333333333"/>
</svg>
