<?xml version="1.0" encoding="UTF-8"?>
<svg xmlns="http://www.w3.org/2000/svg" id="RSSicon" viewBox="0 0 512 512" width="512" height="512">
  <defs>
    <style type="text/css">
      svg {
        background: black;
        margin: calc(50vh - 256px) auto 0;
      }
      
      polygon {stroke: darkorange; fill: none;}
    </style>
  </defs>
  <polygon points="10.666666666666666 10.666666666666666 32 10.666666666666666 32 32 10.666666666666666 32"/><polygon points="51.2302877881119 10.666666666666666 74.66666666666667 10.666666666666666 76.04414762146462 32 53.333333333333336 32"/><polygon points="103.85294673059404 10.666666666666666 117.33333333333333 10.666666666666666 117.24791925164149 32 95.99999999999999 32"/><polygon points="123.14892005523704 10.666666666666666 160 10.666666666666666 153.69777371082364 32 138.66666666666669 32"/><polygon points="194.97121012601784 10.666666666666666 202.66666666666666 10.666666666666666 192.26019860991042 32 181.33333333333334 32"/><polygon points="231.2556156960161 10.666666666666666 245.33333333333331 10.666666666666666 243.45577762226787 32 224 32"/><polygon points="256.3357424533845 10.666666666666666 288 10.666666666666666 267.77956563467126 32 266.66666666666663 32"/><polygon points="288.9691625075651 10.666666666666666 330.66666666666663 10.666666666666666 336.14207456487577 32 309.33333333333326 32"/><polygon points="358.58596733782 10.666666666666666 373.3333333333333 10.666666666666666 352.9073376194134 32 351.99999999999994 32"/><polygon points="387.7246560644312 10.666666666666666 416 10.666666666666666 386.74047582608097 32 394.66666666666663 32"/><polygon points="405.5141949913452 10.666666666666666 458.66666666666663 10.666666666666666 434.6144066318562 32 437.33333333333326 32"/><polygon points="471.3031094817616 10.666666666666666 501.3333333333333 10.666666666666666 534.6954497097996 32 479.99999999999994 32"/><polygon points="10.666666666666666 53.333333333333336 33.09592658016267 53.333333333333336 32 74.66666666666667 13.315062382495306 74.66666666666667"/><polygon points="51.10462322109799 53.333333333333336 79.05758808267704 53.333333333333336 79.92343983157606 74.66666666666667 54.56656461365719 74.66666666666667"/><polygon points="99.71003771619536 53.333333333333336 114.59646232576475 53.333333333333336 119.44944211154134 74.66666666666667 99.54641969283558 74.66666666666667"/><polygon points="147.13421670943248 53.333333333333336 157.82079742884352 53.333333333333336 171.3311755260536 74.66666666666667 137.31243999013628 74.66666666666667"/><polygon points="166.42118510857495 53.333333333333336 204.3500109594141 53.333333333333336 209.36399255571447 74.66666666666667 183.03193621114946 74.66666666666667"/><polygon points="199.27179058266233 53.333333333333336 244.45902607120172 53.333333333333336 243.15003526706784 74.66666666666667 221.61894015648943 74.66666666666667"/><polygon points="281.84284798538346 53.333333333333336 282.6698824290858 53.333333333333336 296.84636593550135 74.66666666666667 269.7312754541206 74.66666666666667"/><polygon points="274.46437874289654 53.333333333333336 328.4970125062818 53.333333333333336 307.8111863151992 74.66666666666667 307.68871451808604 74.66666666666667"/><polygon points="354.40095082550624 53.333333333333336 368.06540917428896 53.333333333333336 344.3817272373856 74.66666666666667 351.4740961185545 74.66666666666667"/><polygon points="372.62094992861535 53.333333333333336 420.99328963707086 53.333333333333336 372.7274084769143 74.66666666666667 391.90451275791725 74.66666666666667"/><polygon points="451.83794940106674 53.333333333333336 462.8963680017809 53.333333333333336 506.2717652992686 74.66666666666667 433.53637593543556 74.66666666666667"/><polygon points="519.8535295891784 53.333333333333336 499.83731165628154 53.333333333333336 547.2141472269839 74.66666666666667 479.30893051330787 74.66666666666667"/><polygon points="10.666666666666666 95.99999999999999 35.726616625398904 95.99999999999999 32 117.33333333333333 11.345242758138392 117.33333333333333"/><polygon points="52.735975718011936 95.99999999999999 79.21426978827613 95.99999999999999 71.23233424296849 117.33333333333333 46.75566270017626 117.33333333333333"/><polygon points="88.29445839879168 95.99999999999999 121.68052838942258 95.99999999999999 117.29517642497937 117.33333333333333 100.73139813941607 117.33333333333333"/><polygon points="143.82690901533513 95.99999999999999 154.826007370197 95.99999999999999 157.46513934283513 117.33333333333333 147.6275170826622 117.33333333333333"/><polygon points="181.1710764720845 95.99999999999999 201.2012608341347 95.99999999999999 199.78564199104474 117.33333333333333 178.83209833630073 117.33333333333333"/><polygon points="220.78619067260541 95.99999999999999 253.33489975745223 95.99999999999999 268.0863400094716 117.33333333333333 225.83660788555235 117.33333333333333"/><polygon points="297.7915253063996 95.99999999999999 298.4881861178179 95.99999999999999 278.56809634907336 117.33333333333333 267.55321063303165 117.33333333333333"/><polygon points="340.8959494745106 95.99999999999999 328.3087006125091 95.99999999999999 312.35199018822067 117.33333333333333 304.06417944304116 117.33333333333333"/><polygon points="346.67492222910937 95.99999999999999 370.82622100076225 95.99999999999999 415.4848334155415 117.33333333333333 343.7047437421198 117.33333333333333"/><polygon points="350.7603337753147 95.99999999999999 412.4942430202013 95.99999999999999 392.4272409311017 117.33333333333333 394.87361803364456 117.33333333333333"/><polygon points="463.5200667030988 95.99999999999999 465.358365187348 95.99999999999999 448.8697862371181 117.33333333333333 429.8944463585429 117.33333333333333"/><polygon points="500.84930065766287 95.99999999999999 503.445083802643 95.99999999999999 502.35142539537503 117.33333333333333 471.39632165115336 117.33333333333333"/><polygon points="10.666666666666666 138.66666666666669 29.67452982491151 138.66666666666669 32 160 5.831044233398972 160"/><polygon points="50.37415980122972 138.66666666666669 87.63854672147622 138.66666666666669 78.63116582185597 160 66.47878323680435 160"/><polygon points="93.72267068796646 138.66666666666669 130.03056999177764 138.66666666666669 127.72021105281209 160 111.73265035333831 160"/><polygon points="129.67879654898042 138.66666666666669 152.7256641394296 138.66666666666669 144.41201975025285 160 135.3574401986611 160"/><polygon points="181.4101567520478 138.66666666666669 207.8213995615253 138.66666666666669 221.26265067157945 160 175.2606520518832 160"/><polygon points="197.81133629133066 138.66666666666669 233.28438818553374 138.66666666666669 236.2378343758543 160 219.40769601697005 160"/><polygon points="242.17263234423376 138.66666666666669 303.46829508220935 138.66666666666669 259.8307577693242 160 278.3548615588443 160"/><polygon points="283.1800159628508 138.66666666666669 318.93354613531994 138.66666666666669 337.6395403081159 160 304.0503967671988 160"/><polygon points="393.6874873099002 138.66666666666669 370.76763571983037 138.66666666666669 401.71766903723756 160 350.5873328883236 160"/><polygon points="404.42028033568596 138.66666666666669 423.2724431248602 138.66666666666669 455.20533236981834 160 389.6051166026546 160"/><polygon points="390.7229120341285 138.66666666666669 463.03724122049493 138.66666666666669 437.368429114448 160 433.35938566191516 160"/><polygon points="441.958543041063 138.66666666666669 500.18124606199785 138.66666666666669 494.5070065304386 160 467.0593342731113 160"/><polygon points="10.666666666666666 181.33333333333334 38.54160720230006 181.33333333333334 32 202.66666666666666 3.1126059452060133 202.66666666666666"/><polygon points="50.31198925507873 181.33333333333334 76.41582202280183 181.33333333333334 70.96943460764828 202.66666666666666 61.241958663602276 202.66666666666666"/><polygon points="101.83557051228271 181.33333333333334 133.4091061155919 181.33333333333334 106.9410498418451 202.66666666666666 116.90526895353439 202.66666666666666"/><polygon points="147.69386465239216 181.33333333333334 170.46061983908905 181.33333333333334 145.42941478482564 202.66666666666666 146.92132068018412 202.66666666666666"/><polygon points="182.32779822506015 181.33333333333334 205.3789145988609 181.33333333333334 185.74687163452467 202.66666666666666 167.76254599651625 202.66666666666666"/><polygon points="233.64922202819864 181.33333333333334 236.99171346804067 181.33333333333334 251.4546477308046 202.66666666666666 228.86971182912214 202.66666666666666"/><polygon points="264.2824849845474 181.33333333333334 294.79009636216824 181.33333333333334 303.44985666781207 202.66666666666666 267.83172391950575 202.66666666666666"/><polygon points="305.31743113554967 181.33333333333334 345.38648566785747 181.33333333333334 318.7125880823816 202.66666666666666 306.2888889891631 202.66666666666666"/><polygon points="382.2369499185397 181.33333333333334 354.2387783205173 181.33333333333334 398.9673145913544 202.66666666666666 340.3820647350996 202.66666666666666"/><polygon points="396.0701534070671 181.33333333333334 418.03214625067153 181.33333333333334 373.8541450466596 202.66666666666666 379.602216843539 202.66666666666666"/><polygon points="435.8401929527354 181.33333333333334 456.3864042689251 181.33333333333334 486.6643091717596 202.66666666666666 422.10765881877205 202.66666666666666"/><polygon points="516.3073186922057 181.33333333333334 497.7096379958385 181.33333333333334 528.5605388740381 202.66666666666666 469.7604348601936 202.66666666666666"/><polygon points="10.666666666666666 224 8.021884681603353 224 32 245.33333333333331 -11.798668745472877 245.33333333333331"/><polygon points="48.588472652820585 224 57.608823164437084 224 72.55328442016982 245.33333333333331 78.6985562889988 245.33333333333331"/><polygon points="100.56021624557276 224 121.77562365350407 224 110.18601805340947 245.33333333333331 98.31773058596613 245.33333333333331"/><polygon points="126.40097781865333 224 146.1415397008309 224 172.1834344592271 245.33333333333331 161.08652125712234 245.33333333333331"/><polygon points="194.9745236397294 224 202.0171907803228 224 223.76590816913665 245.33333333333331 180.4380682356571 245.33333333333331"/><polygon points="208.30491324491433 224 223.4838494862459 224 234.45733637389125 245.33333333333331 240.0830279663017 245.33333333333331"/><polygon points="274.3309344356003 224 282.1161930649549 224 276.0883279680582 245.33333333333331 268.7260483322705 245.33333333333331"/><polygon points="324.27600363096576 224 308.9394491668444 224 315.6212852882743 245.33333333333331 286.73809485467524 245.33333333333331"/><polygon points="379.9837082196606 224 374.276741469769 224 378.3164382962784 245.33333333333331 343.11601748029494 245.33333333333331"/><polygon points="394.50580117080057 224 408.4935241836577 224 415.0319288519544 245.33333333333331 411.4107714592752 245.33333333333331"/><polygon points="483.99887770441944 224 472.17309187492117 224 453.998807792643 245.33333333333331 441.60116657597894 245.33333333333331"/><polygon points="451.3134689910913 224 526.0599984438709 224 510.32346527314104 245.33333333333331 476.1451723258048 245.33333333333331"/><polygon points="10.666666666666666 266.66666666666663 36.49419279918058 266.66666666666663 32 288 -9.156686924591515 288"/><polygon points="56.99312700938695 266.66666666666663 66.63050884206453 266.66666666666663 76.24631477445439 288 58.78131945850961 288"/><polygon points="95.30991038076475 266.66666666666663 142.4654212482489 266.66666666666663 127.12258046586336 288 75.63511846837696 288"/><polygon points="138.22178654607998 266.66666666666663 184.38948593897064 266.66666666666663 145.97660991281052 288 136.52140756083145 288"/><polygon points="174.66963130735536 266.66666666666663 176.85307732673337 266.66666666666663 193.86710589053607 288 186.7634387277233 288"/><polygon points="210.17922536692467 266.66666666666663 263.2560661524167 266.66666666666663 235.00172357650857 288 228.2684409854421 288"/><polygon points="272.70838969998556 266.66666666666663 278.7460504700045 266.66666666666663 308.94714198453863 288 294.3096150758388 288"/><polygon points="289.1839088308393 266.66666666666663 298.7952664588231 266.66666666666663 332.60398081138743 288 283.0853441898024 288"/><polygon points="312.06687825591473 266.66666666666663 353.0075367742578 266.66666666666663 393.5197489239163 288 361.72755589569255 288"/><polygon points="354.3803500796275 266.66666666666663 422.9061139197287 266.66666666666663 378.22776131562756 288 409.7653241774614 288"/><polygon points="444.646931793219 266.66666666666663 447.24240747038726 266.66666666666663 499.55993992629027 288 425.85293236837566 288"/><polygon points="438.9637585229054 266.66666666666663 489.0825492524491 266.66666666666663 555.8459398822866 288 487.2976924516828 288"/><polygon points="10.666666666666666 309.33333333333326 52.883035634707554 309.33333333333326 32 330.66666666666663 -6.879953868033084 330.66666666666663"/><polygon points="52.89106750738547 309.33333333333326 89.22412961494246 309.33333333333326 73.16155926674762 330.66666666666663 55.01700726444143 330.66666666666663"/><polygon points="92.96170674081651 309.33333333333326 95.49940164859848 309.33333333333326 114.9477817421802 330.66666666666663 73.68205612408694 330.66666666666663"/><polygon points="141.15428887169722 309.33333333333326 191.85768778865952 309.33333333333326 174.94145379453843 330.66666666666663 106.04535966171545 330.66666666666663"/><polygon points="194.61881430744106 309.33333333333326 237.97213116445386 309.33333333333326 213.33690407379513 330.66666666666663 163.50612944061618 330.66666666666663"/><polygon points="246.5920013939316 309.33333333333326 257.34849066231374 309.33333333333326 238.67434599775638 330.66666666666663 250.70645079315483 330.66666666666663"/><polygon points="270.1161584555726 309.33333333333326 279.2001832561362 309.33333333333326 315.71352378247775 330.66666666666663 263.94154844462435 330.66666666666663"/><polygon points="332.3119425818774 309.33333333333326 334.84685323374407 309.33333333333326 323.1012496252886 330.66666666666663 289.3084853756416 330.66666666666663"/><polygon points="312.2754177433222 309.33333333333326 370.87942105780485 309.33333333333326 389.9939289591699 330.66666666666663 347.13182147312347 330.66666666666663"/><polygon points="385.093412403264 309.33333333333326 439.0663826214085 309.33333333333326 420.26623001461405 330.66666666666663 408.62662944011254 330.66666666666663"/><polygon points="458.3791251260282 309.33333333333326 430.98690751169755 309.33333333333326 458.92775387471636 330.66666666666663 443.0144486950525 330.66666666666663"/><polygon points="485.1188118339889 309.33333333333326 480.41418187143216 309.33333333333326 551.7675628498272 330.66666666666663 452.2639576525543 330.66666666666663"/><polygon points="10.666666666666666 351.99999999999994 61.01281499622816 351.99999999999994 32 373.3333333333333 -2.2044105916177337 373.3333333333333"/><polygon points="51.816844842933946 351.99999999999994 115.29276510473831 351.99999999999994 76.99663151519258 373.3333333333333 90.19657010294657 373.3333333333333"/><polygon points="96.89357038568329 351.99999999999994 135.66408104974028 351.99999999999994 125.74145801230826 373.3333333333333 104.66504716456578 373.3333333333333"/><polygon points="124.95558254919732 351.99999999999994 187.8701817265221 351.99999999999994 173.40078671421017 373.3333333333333 147.7380334384605 373.3333333333333"/><polygon points="169.2665289321338 351.99999999999994 230.80138622853738 351.99999999999994 195.33248043055113 373.3333333333333 169.14759178597163 373.3333333333333"/><polygon points="211.15221219121838 351.99999999999994 218.92360599348842 351.99999999999994 254.20614214666898 373.3333333333333 225.64363728923558 373.3333333333333"/><polygon points="236.972367706183 351.99999999999994 320.8832238293735 351.99999999999994 258.7815789954014 373.3333333333333 290.15524482498614 373.3333333333333"/><polygon points="342.5039435501675 351.99999999999994 356.5349627471937 351.99999999999994 367.3726090698 373.3333333333333 304.8132248798859 373.3333333333333"/><polygon points="352.30197082738647 351.99999999999994 361.39810874664386 351.99999999999994 376.13064238645256 373.3333333333333 342.65654212946134 373.3333333333333"/><polygon points="439.00749709849765 351.99999999999994 435.3482990185803 351.99999999999994 425.35480311017085 373.3333333333333 397.5326707512613 373.3333333333333"/><polygon points="420.3702357245031 351.99999999999994 494.11280526810964 351.99999999999994 441.37062683785933 373.3333333333333 408.9855101455392 373.3333333333333"/><polygon points="526.0204880154145 351.99999999999994 537.8574130954698 351.99999999999994 516.8309997229109 373.3333333333333 496.3201902992399 373.3333333333333"/><polygon points="10.666666666666666 394.66666666666663 30.228125994515736 394.66666666666663 32 416 8.896437279972398 416"/><polygon points="56.73312590434183 394.66666666666663 90.30634577457522 394.66666666666663 72.80068312531472 416 90.9051807139339 416"/><polygon points="92.21418025500863 394.66666666666663 137.5706763172815 394.66666666666663 108.74768964841999 416 99.21185363348765 416"/><polygon points="147.96141553616806 394.66666666666663 196.3627506302197 394.66666666666663 147.19771881072643 416 130.15658323760331 416"/><polygon points="192.31043654633274 394.66666666666663 164.90754613678394 394.66666666666663 218.82961411451447 416 138.38462915630816 416"/><polygon points="234.6808766033221 394.66666666666663 273.79316983919284 394.66666666666663 270.9906151212605 416 269.2020543944303 416"/><polygon points="236.4052376741186 394.66666666666663 327.710370165033 394.66666666666663 316.51374730111166 416 300.6172444643852 416"/><polygon points="295.9885465548804 394.66666666666663 302.2759890799664 394.66666666666663 294.42778297285093 416 281.7469267103556 416"/><polygon points="358.4512059307013 394.66666666666663 357.3233228739351 394.66666666666663 415.5056333317247 416 319.73890505115514 416"/><polygon points="357.0014734837152 394.66666666666663 431.246032006235 394.66666666666663 387.1538905993825 416 429.1107880466285 416"/><polygon points="425.53505268714446 394.66666666666663 490.87352733914406 394.66666666666663 507.56772534710814 416 450.3086847632593 416"/><polygon points="494.8142183448139 394.66666666666663 460.8996757572877 394.66666666666663 449.18719227628856 416 496.2650721647406 416"/><polygon points="10.666666666666666 437.33333333333326 70.65636672461727 437.33333333333326 32 458.66666666666663 -24.494039948260333 458.66666666666663"/><polygon points="53.99983489876102 437.33333333333326 34.6783589320179 437.33333333333326 72.06528227324426 458.66666666666663 58.93998369006885 458.66666666666663"/><polygon points="92.83940737480819 437.33333333333326 107.65665116053901 437.33333333333326 127.0973211130059 458.66666666666663 58.84902866820836 458.66666666666663"/><polygon points="134.95569218644027 437.33333333333326 203.97941177503287 437.33333333333326 155.53429473161813 458.66666666666663 102.25630460895384 458.66666666666663"/><polygon points="180.3156989961932 437.33333333333326 184.9883425295862 437.33333333333326 215.12097218018604 458.66666666666663 227.04191904249387 458.66666666666663"/><polygon points="234.1942533281467 437.33333333333326 265.4246053992602 437.33333333333326 232.46076926393658 458.66666666666663 234.7935259696519 458.66666666666663"/><polygon points="259.79953449914234 437.33333333333326 301.36016801487136 437.33333333333326 297.8185756922513 458.66666666666663 267.06586580245516 458.66666666666663"/><polygon points="297.9652627758693 437.33333333333326 325.3292778911091 437.33333333333326 348.11338044533085 458.66666666666663 288.5659246636821 458.66666666666663"/><polygon points="389.3307891674793 437.33333333333326 413.1686336943106 437.33333333333326 336.86512108693597 458.66666666666663 304.1897602212525 458.66666666666663"/><polygon points="432.6994694854607 437.33333333333326 425.8899268900181 437.33333333333326 411.0097122012673 458.66666666666663 418.5069142692727 458.66666666666663"/><polygon points="452.81253010898314 437.33333333333326 435.31608275037763 437.33333333333326 417.1885096913481 458.66666666666663 486.6466837456535 458.66666666666663"/><polygon points="499.9374964301544 437.33333333333326 519.6722099558025 437.33333333333326 505.57048910435685 458.66666666666663 498.824075463601 458.66666666666663"/><polygon points="10.666666666666666 479.99999999999994 -23.17418094590516 479.99999999999994 32 501.3333333333333 -9.411078017083486 501.3333333333333"/><polygon points="53.948812057032406 479.99999999999994 69.3505522425681 479.99999999999994 74.72237970452059 501.3333333333333 85.59027888605034 501.3333333333333"/><polygon points="88.72109874516929 479.99999999999994 152.9123414628658 479.99999999999994 127.32229849846074 501.3333333333333 148.75044588026668 501.3333333333333"/><polygon points="126.76079759941885 479.99999999999994 195.51157546776793 479.99999999999994 165.8637685280469 501.3333333333333 81.24602912182374 501.3333333333333"/><polygon points="173.8824920836965 479.99999999999994 225.53169076319938 479.99999999999994 214.12485682782517 501.3333333333333 179.60035884048852 501.3333333333333"/><polygon points="197.55518515925468 479.99999999999994 211.46512251706454 479.99999999999994 237.25012696232682 501.3333333333333 254.78591587213606 501.3333333333333"/><polygon points="268.87607009790554 479.99999999999994 241.99781729768856 479.99999999999994 300.9506215832059 501.3333333333333 312.03639755771997 501.3333333333333"/><polygon points="311.70542280128825 479.99999999999994 317.35688699206656 479.99999999999994 341.7135923180547 501.3333333333333 288.29882355350486 501.3333333333333"/><polygon points="318.12020946929 479.99999999999994 397.49953444277475 479.99999999999994 389.11484774983876 501.3333333333333 317.8807868896497 501.3333333333333"/><polygon points="373.9386489892096 479.99999999999994 444.7307464656076 479.99999999999994 417.1513390677441 501.3333333333333 394.7941426124703 501.3333333333333"/><polygon points="485.0503903116885 479.99999999999994 472.37222833738036 479.99999999999994 488.4515131919466 501.3333333333333 482.51794825217513 501.3333333333333"/><polygon points="512.5054972904509 479.99999999999994 525.6113843409264 479.99999999999994 550.9806381224525 501.3333333333333 515.9963931417872 501.3333333333333"/>
</svg>
