<?xml version="1.0" encoding="UTF-8"?>
<svg xmlns="http://www.w3.org/2000/svg" id="RSSicon" viewBox="0 0 512 512" width="512" height="512">
  <defs>
    <style type="text/css">
      svg {
        background: black;
        margin: calc(50vh - 256px) auto 0;
      }
      
      polygon {stroke: darkorange; fill: none;}
    </style>
  </defs>
  <polygon points="10.666666666666666 10.666666666666666 32 10.666666666666666 32 32 10.666666666666666 32"/><polygon points="51.42830068869516 10.666666666666666 74.66666666666667 10.666666666666666 75.01222695438557 32 53.333333333333336 32"/><polygon points="90.54608557582915 10.666666666666666 117.33333333333333 10.666666666666666 110.08541696251844 32 95.99999999999999 32"/><polygon points="129.13570012076937 10.666666666666666 160 10.666666666666666 145.82433743756175 32 138.66666666666669 32"/><polygon points="179.23083762593342 10.666666666666666 202.66666666666666 10.666666666666666 198.60107513311087 32 181.33333333333334 32"/><polygon points="218.00369974800628 10.666666666666666 245.33333333333331 10.666666666666666 248.89514917989933 32 224 32"/><polygon points="268.962228148221 10.666666666666666 288 10.666666666666666 312.03295926599844 32 266.66666666666663 32"/><polygon points="326.86217484787323 10.666666666666666 330.66666666666663 10.666666666666666 307.8965379349458 32 309.33333333333326 32"/><polygon points="384.57686353117543 10.666666666666666 373.3333333333333 10.666666666666666 366.8356311298279 32 351.99999999999994 32"/><polygon points="425.61888388982356 10.666666666666666 416 10.666666666666666 443.3839081320364 32 394.66666666666663 32"/><polygon points="456.3303545926266 10.666666666666666 458.66666666666663 10.666666666666666 491.9448331072552 32 437.33333333333326 32"/><polygon points="528.5082125527153 10.666666666666666 501.3333333333333 10.666666666666666 550.9479817433589 32 479.99999999999994 32"/><polygon points="10.666666666666666 53.333333333333336 28.492129261161818 53.333333333333336 32 74.66666666666667 8.438181290606732 74.66666666666667"/><polygon points="56.90444918687995 53.333333333333336 77.39297659382746 53.333333333333336 73.71419462563702 74.66666666666667 58.190726423519 74.66666666666667"/><polygon points="89.56148355163164 53.333333333333336 114.84447544027626 53.333333333333336 118.2182291129876 74.66666666666667 97.85581022425549 74.66666666666667"/><polygon points="144.13394589732238 53.333333333333336 164.83831272104376 53.333333333333336 147.57065482143472 74.66666666666667 140.74646549121042 74.66666666666667"/><polygon points="197.07221756221665 53.333333333333336 201.31582665476176 53.333333333333336 185.44363098686375 74.66666666666667 182.35826857706303 74.66666666666667"/><polygon points="228.82330900708826 53.333333333333336 242.8501679691007 53.333333333333336 243.7360771923921 74.66666666666667 228.38557285789886 74.66666666666667"/><polygon points="258.76562797702667 53.333333333333336 291.1152525140978 53.333333333333336 291.7661426754313 74.66666666666667 266.6804272607007 74.66666666666667"/><polygon points="281.7790205908723 53.333333333333336 326.200524275578 53.333333333333336 317.7544494445348 74.66666666666667 305.51700768376475 74.66666666666667"/><polygon points="377.599388316479 53.333333333333336 375.8847088298444 53.333333333333336 384.46756169935094 74.66666666666667 352.42024432761576 74.66666666666667"/><polygon points="397.57962662775753 53.333333333333336 413.6128251323701 53.333333333333336 396.71212134298395 74.66666666666667 389.83737185716086 74.66666666666667"/><polygon points="448.54324273099155 53.333333333333336 463.3692326850594 53.333333333333336 510.73948937862934 74.66666666666667 437.0920784774673 74.66666666666667"/><polygon points="467.6043145237986 53.333333333333336 506.2154069538751 53.333333333333336 442.8974199338888 74.66666666666667 484.77435687801903 74.66666666666667"/><polygon points="10.666666666666666 95.99999999999999 25.51218921642065 95.99999999999999 32 117.33333333333333 13.845941595804499 117.33333333333333"/><polygon points="54.74816215752013 95.99999999999999 78.94519476614585 95.99999999999999 73.75056143291145 117.33333333333333 54.94697390037471 117.33333333333333"/><polygon points="87.06918353296791 95.99999999999999 109.55390331320903 95.99999999999999 111.84758241619203 117.33333333333333 99.26852349155942 117.33333333333333"/><polygon points="124.15541874889541 95.99999999999999 158.11693769411985 95.99999999999999 146.59583106196058 117.33333333333333 142.82678425593986 117.33333333333333"/><polygon points="166.96559880389424 95.99999999999999 207.31273190057058 95.99999999999999 223.95082406700828 117.33333333333333 180.67727709144387 117.33333333333333"/><polygon points="222.55404539384028 95.99999999999999 249.00493030873068 95.99999999999999 249.87053265227712 117.33333333333333 222.49467551862747 117.33333333333333"/><polygon points="296.78361764435766 95.99999999999999 294.48251684826465 95.99999999999999 300.8267341635609 117.33333333333333 265.1789496489817 117.33333333333333"/><polygon points="300.2419749089459 95.99999999999999 338.31969663655116 95.99999999999999 363.03126735644537 117.33333333333333 312.5983290876731 117.33333333333333"/><polygon points="314.1217521222497 95.99999999999999 368.07775348041207 95.99999999999999 348.1625520860415 117.33333333333333 361.2916682071602 117.33333333333333"/><polygon points="374.0635068689089 95.99999999999999 407.3158739533937 95.99999999999999 413.4016286206693 117.33333333333333 400.70052757549803 117.33333333333333"/><polygon points="460.69907841018477 95.99999999999999 458.1949641920792 95.99999999999999 452.0628064876342 117.33333333333333 432.00079419658096 117.33333333333333"/><polygon points="522.5242790492146 95.99999999999999 498.89370217410806 95.99999999999999 532.5323317712616 117.33333333333333 477.40376224568473 117.33333333333333"/><polygon points="10.666666666666666 138.66666666666669 42.28610084124203 138.66666666666669 32 160 9.125646167675436 160"/><polygon points="51.20414842030743 138.66666666666669 83.20779284487011 138.66666666666669 71.36390467466121 160 54.793967553781236 160"/><polygon points="89.22593794629168 138.66666666666669 114.15240515638479 138.66666666666669 114.47662332145326 160 107.794044098785 160"/><polygon points="152.26225369474776 138.66666666666669 149.60970351805864 138.66666666666669 170.68139616679056 160 137.15888293170673 160"/><polygon points="182.87753709648376 138.66666666666669 210.39618662094384 138.66666666666669 209.28679110256888 160 169.67480680597797 160"/><polygon points="220.115214617308 138.66666666666669 250.78017511635096 138.66666666666669 247.63259567444211 160 216.28077463278214 160"/><polygon points="260.19837684174354 138.66666666666669 272.6306805771778 138.66666666666669 307.7543817702789 160 275.9448153209397 160"/><polygon points="342.6805499202519 138.66666666666669 343.292589308212 138.66666666666669 365.5965281917612 160 302.351332429599 160"/><polygon points="340.6709403237688 138.66666666666669 372.37158876279784 138.66666666666669 356.471990777955 160 365.129233780118 160"/><polygon points="439.15752676635213 138.66666666666669 430.5440899724205 138.66666666666669 381.3810371764874 160 385.1489775009593 160"/><polygon points="486.25157553598837 138.66666666666669 464.3919833616939 138.66666666666669 510.32554973093073 160 427.27351514606823 160"/><polygon points="456.46703393583584 138.66666666666669 509.40108861015267 138.66666666666669 470.24434208734135 160 480.85279647187264 160"/><polygon points="10.666666666666666 181.33333333333334 39.6515015773854 181.33333333333334 32 202.66666666666666 12.02683248935108 202.66666666666666"/><polygon points="54.96469568384556 181.33333333333334 69.69532420503276 181.33333333333334 70.61221840119177 202.66666666666666 71.24613237189313 202.66666666666666"/><polygon points="91.73928649147683 181.33333333333334 130.52707625528652 181.33333333333334 115.66762050038227 202.66666666666666 93.13828432554597 202.66666666666666"/><polygon points="128.919183639277 181.33333333333334 181.2327557346571 181.33333333333334 151.6602060771166 202.66666666666666 126.95500174344056 202.66666666666666"/><polygon points="170.39303472318298 181.33333333333334 201.33603159380596 181.33333333333334 183.9453974971612 202.66666666666666 162.22002400906382 202.66666666666666"/><polygon points="230.3500874109893 181.33333333333334 264.3187987558332 181.33333333333334 231.12075469070965 202.66666666666666 230.99490554804902 202.66666666666666"/><polygon points="247.20688406362908 181.33333333333334 271.89962523590555 181.33333333333334 269.1359016364744 202.66666666666666 246.35670053563425 202.66666666666666"/><polygon points="304.4306900542766 181.33333333333334 327.1637370568307 181.33333333333334 319.1233640532884 202.66666666666666 320.3697811886783 202.66666666666666"/><polygon points="356.27027294720773 181.33333333333334 383.84412101724973 181.33333333333334 376.64349642623796 202.66666666666666 365.8557835789997 202.66666666666666"/><polygon points="353.1543761514996 181.33333333333334 408.4374774484205 181.33333333333334 420.85378483819187 202.66666666666666 391.51137645041223 202.66666666666666"/><polygon points="449.4556212343132 181.33333333333334 451.63441288041304 181.33333333333334 506.4181031850209 202.66666666666666 448.1574880212027 202.66666666666666"/><polygon points="503.40078536984186 181.33333333333334 493.7409776360429 181.33333333333334 524.6684092310811 202.66666666666666 487.9309402913822 202.66666666666666"/><polygon points="10.666666666666666 224 10.46276027804264 224 32 245.33333333333331 26.915296227997228 245.33333333333331"/><polygon points="56.910850844761214 224 67.32155779527001 224 73.30214457644047 245.33333333333331 36.02534728956904 245.33333333333331"/><polygon points="106.65751508591484 224 90.68577718538873 224 126.18394733461011 245.33333333333331 102.3674754923336 245.33333333333331"/><polygon points="124.29382015818794 224 133.4709204047898 224 165.21321242898338 245.33333333333331 133.1148821380246 245.33333333333331"/><polygon points="184.00759703115492 224 191.01179847520427 224 187.17661549565676 245.33333333333331 185.13685336840516 245.33333333333331"/><polygon points="214.32670416249837 224 253.3015835964767 224 266.0250137199969 245.33333333333331 239.36397012121012 245.33333333333331"/><polygon points="268.53252147851 224 302.9797282909934 224 273.88056161762694 245.33333333333331 271.62462293312916 245.33333333333331"/><polygon points="282.6057705254441 224 331.18456392300044 224 363.58586835402167 245.33333333333331 318.8429086759236 245.33333333333331"/><polygon points="375.97192785844555 224 382.18444029986347 224 388.56368255011074 245.33333333333331 337.02588430604806 245.33333333333331"/><polygon points="347.0978390732069 224 400.8541771982711 224 419.57113170920053 245.33333333333331 372.5657963339759 245.33333333333331"/><polygon points="476.41486541226595 224 457.2737025778777 224 506.7359931581461 245.33333333333331 435.54996229930276 245.33333333333331"/><polygon points="480.0812795360845 224 515.2387835851554 224 512.6588460618458 245.33333333333331 505.1309244499711 245.33333333333331"/><polygon points="10.666666666666666 266.66666666666663 59.88317215802893 266.66666666666663 32 288 14.087257616584091 288"/><polygon points="56.57620040478686 266.66666666666663 55.315565354212936 266.66666666666663 72.58107541628692 288 50.83941424161116 288"/><polygon points="92.09626918209361 266.66666666666663 144.55023547008463 266.66666666666663 123.07655722823853 288 95.98589586521034 288"/><polygon points="122.74468587556458 266.66666666666663 152.0606012140013 266.66666666666663 164.5909203870839 288 149.75613207243183 288"/><polygon points="195.90695763497524 266.66666666666663 209.7468356133859 266.66666666666663 185.404656344494 288 210.68952262378986 288"/><polygon points="198.7486755304192 266.66666666666663 216.67069750014684 266.66666666666663 232.83515605422443 288 228.04334144190105 288"/><polygon points="237.2915379707401 266.66666666666663 308.27506480486426 266.66666666666663 307.32915592859837 288 261.94614733377665 288"/><polygon points="300.35547982525804 266.66666666666663 305.1059144508706 266.66666666666663 325.73131478082354 288 337.6449905212085 288"/><polygon points="335.0729591419316 266.66666666666663 361.4682357078424 266.66666666666663 386.4444404084459 288 325.692976984497 288"/><polygon points="430.3771033088252 266.66666666666663 385.8462509695835 266.66666666666663 429.51884286127654 288 397.83405700637405 288"/><polygon points="462.765772696268 266.66666666666663 487.84404070450864 266.66666666666663 431.4370592085917 288 464.25549925285503 288"/><polygon points="517.7421998163837 266.66666666666663 501.62436972344256 266.66666666666663 528.408095061034 288 463.38602470457334 288"/><polygon points="10.666666666666666 309.33333333333326 18.841192131677232 309.33333333333326 32 330.66666666666663 40.83798122588938 330.66666666666663"/><polygon points="49.45718521186954 309.33333333333326 100.71298699264636 309.33333333333326 69.97394185803962 330.66666666666663 44.06643420020875 330.66666666666663"/><polygon points="102.72948265428421 309.33333333333326 104.20630287196478 309.33333333333326 110.53486462100724 330.66666666666663 108.50098782780543 330.66666666666663"/><polygon points="123.74428985274207 309.33333333333326 168.3964026262774 309.33333333333326 163.37601829567654 330.66666666666663 160.901824413601 330.66666666666663"/><polygon points="183.92255225348154 309.33333333333326 228.8895063030039 309.33333333333326 187.719307259837 330.66666666666663 196.59667596947384 330.66666666666663"/><polygon points="218.29691973722225 309.33333333333326 240.54150801800424 309.33333333333326 241.1200295846525 330.66666666666663 254.20162484512866 330.66666666666663"/><polygon points="288.5055158814934 309.33333333333326 324.9958427848137 309.33333333333326 299.5776860785139 330.66666666666663 250.63302065610335 330.66666666666663"/><polygon points="292.1132717421919 309.33333333333326 327.8289647203199 309.33333333333326 345.4824263085559 330.66666666666663 319.28545609169686 330.66666666666663"/><polygon points="387.52478050186267 309.33333333333326 383.2737915226758 309.33333333333326 386.27318388868025 330.66666666666663 318.3476234799372 330.66666666666663"/><polygon points="391.04499087300314 309.33333333333326 452.6142383555316 309.33333333333326 390.9925226616956 330.66666666666663 398.60970575374523 330.66666666666663"/><polygon points="399.64437124273707 309.33333333333326 437.88482533303284 309.33333333333326 413.6819071089835 330.66666666666663 418.3227404346418 330.66666666666663"/><polygon points="441.73182389196944 309.33333333333326 473.5683382466208 309.33333333333326 467.75441292683456 330.66666666666663 459.5952799682683 330.66666666666663"/><polygon points="10.666666666666666 351.99999999999994 45.35111267102631 351.99999999999994 32 373.3333333333333 47.283196084616385 373.3333333333333"/><polygon points="49.88360240101759 351.99999999999994 94.79697150144679 351.99999999999994 75.96710070771451 373.3333333333333 28.428976301207364 373.3333333333333"/><polygon points="92.20806129759251 351.99999999999994 136.1818834837772 351.99999999999994 118.64700216834531 373.3333333333333 86.26013523587343 373.3333333333333"/><polygon points="146.2445119777365 351.99999999999994 126.71715046931986 351.99999999999994 154.32834645954713 373.3333333333333 129.68956675489162 373.3333333333333"/><polygon points="196.54025307202076 351.99999999999994 239.97224242592574 351.99999999999994 191.16919422483417 373.3333333333333 214.97734769305643 373.3333333333333"/><polygon points="221.18921230645674 351.99999999999994 282.3580065366848 351.99999999999994 249.8864349849752 373.3333333333333 233.35141908221556 373.3333333333333"/><polygon points="236.52483578350189 351.99999999999994 312.4686413613035 351.99999999999994 275.7860526687166 373.3333333333333 298.50403188671277 373.3333333333333"/><polygon points="272.15479158919203 351.99999999999994 350.11510615994547 351.99999999999994 302.4988065962995 373.3333333333333 313.07265400938115 373.3333333333333"/><polygon points="358.2379757989251 351.99999999999994 338.45412249828667 351.99999999999994 373.34902930659933 373.3333333333333 351.9513947383443 373.3333333333333"/><polygon points="427.51236417764346 351.99999999999994 402.6236266920118 351.99999999999994 407.9612474361808 373.3333333333333 433.09238489595674 373.3333333333333"/><polygon points="444.78163106172923 351.99999999999994 497.2113806811285 351.99999999999994 472.1831085384989 373.3333333333333 405.574894723091 373.3333333333333"/><polygon points="481.49383525555544 351.99999999999994 534.4129257510518 351.99999999999994 525.5318614454645 373.3333333333333 441.70596674719104 373.3333333333333"/><polygon points="10.666666666666666 394.66666666666663 60.44603396959863 394.66666666666663 32 416 43.690666849957665 416"/><polygon points="56.72012304483261 394.66666666666663 53.98663495771379 394.66666666666663 74.97953018514984 416 75.4549053650198 416"/><polygon points="99.15186921082314 394.66666666666663 138.0597240712755 394.66666666666663 118.63097733416004 416 109.08770491898433 416"/><polygon points="151.11608832689421 394.66666666666663 153.2787039023847 394.66666666666663 157.67783020576618 416 141.25612728966715 416"/><polygon points="184.84446464769158 394.66666666666663 164.92056185837433 394.66666666666663 212.0892679132708 416 205.9417056457016 416"/><polygon points="211.229867089966 394.66666666666663 226.42623808356882 394.66666666666663 250.83802678934566 416 224.1701203383215 416"/><polygon points="238.44586373303449 394.66666666666663 272.5008413386658 394.66666666666663 270.99229138174974 416 283.8503224281366 416"/><polygon points="307.4769852324121 394.66666666666663 321.39582735771205 394.66666666666663 343.14144525483414 416 301.6322681039428 416"/><polygon points="320.285208328179 394.66666666666663 397.928787053162 394.66666666666663 368.31109040423524 416 324.25068125746816 416"/><polygon points="354.85880161859313 394.66666666666663 368.6634956350761 394.66666666666663 443.2842270342621 416 419.98012844084917 416"/><polygon points="401.8882454994741 394.66666666666663 418.0955070638099 394.66666666666663 417.7768358296436 416 456.2860852944563 416"/><polygon points="517.1995449888564 394.66666666666663 484.60152398958064 394.66666666666663 469.21888216254325 416 455.6581916928574 416"/><polygon points="10.666666666666666 437.33333333333326 44.388172270990694 437.33333333333326 32 458.66666666666663 31.73781781327886 458.66666666666663"/><polygon points="49.039630543656976 437.33333333333326 33.1004754683152 437.33333333333326 72.27042355784693 458.66666666666663 74.09183400739568 458.66666666666663"/><polygon points="103.20311449217643 437.33333333333326 152.7942847933458 437.33333333333326 111.74626859525033 458.66666666666663 60.95340675359907 458.66666666666663"/><polygon points="149.10977134189 437.33333333333326 193.7923833452954 437.33333333333326 151.79281144178023 458.66666666666663 183.49135613689887 458.66666666666663"/><polygon points="200.31780933993616 437.33333333333326 255.42349617091415 437.33333333333326 219.6400201591877 458.66666666666663 164.89903595874134 458.66666666666663"/><polygon points="222.16105021884303 437.33333333333326 215.36177943660397 437.33333333333326 226.6702740256315 458.66666666666663 225.3971533940223 458.66666666666663"/><polygon points="269.2015392261312 437.33333333333326 334.4401105071662 437.33333333333326 269.764032909252 458.66666666666663 253.10845701988748 458.66666666666663"/><polygon points="330.5955945436208 437.33333333333326 288.99836665526215 437.33333333333326 336.3984021882392 458.66666666666663 281.94717294552004 458.66666666666663"/><polygon points="357.55231486584506 437.33333333333326 417.268171688407 437.33333333333326 346.5592108386678 458.66666666666663 299.7174347811988 458.66666666666663"/><polygon points="408.7860033661001 437.33333333333326 373.204993487048 437.33333333333326 410.9686186995665 458.66666666666663 407.1755416917105 458.66666666666663"/><polygon points="424.8122310346419 437.33333333333326 483.4841368037486 437.33333333333326 494.8829568330476 458.66666666666663 451.4200541111383 458.66666666666663"/><polygon points="506.36980707721364 437.33333333333326 458.75459805820606 437.33333333333326 457.704449306605 458.66666666666663 478.791163966088 458.66666666666663"/><polygon points="10.666666666666666 479.99999999999994 81.00796740657167 479.99999999999994 32 501.3333333333333 41.443632650326464 501.3333333333333"/><polygon points="51.15038753494096 479.99999999999994 39.675525715577265 479.99999999999994 71.97402537187169 501.3333333333333 50.101899456299016 501.3333333333333"/><polygon points="85.7068830737591 479.99999999999994 100.22357640433512 479.99999999999994 122.30723089478737 501.3333333333333 53.25396526324089 501.3333333333333"/><polygon points="132.41445478434164 479.99999999999994 214.8559119800637 479.99999999999994 168.58635904057826 501.3333333333333 135.8434056769214 501.3333333333333"/><polygon points="201.44507714513884 479.99999999999994 214.30545048436304 479.99999999999994 191.38189511453638 501.3333333333333 191.07410822686728 501.3333333333333"/><polygon points="198.5505989376091 479.99999999999994 232.51167870689207 479.99999999999994 225.2466539177459 501.3333333333333 253.15107653751036 501.3333333333333"/><polygon points="252.57825796809448 479.99999999999994 276.50421756066476 479.99999999999994 308.05471845087123 501.3333333333333 307.801977523522 501.3333333333333"/><polygon points="324.93121825185784 479.99999999999994 307.29517930465283 479.99999999999994 366.41578028401034 501.3333333333333 272.39237158799745 501.3333333333333"/><polygon points="382.2758376144289 479.99999999999994 349.6861101590023 479.99999999999994 364.90329043044625 501.3333333333333 379.3269160504696 501.3333333333333"/><polygon points="388.11976837794964 479.99999999999994 394.0946588140166 479.99999999999994 369.0496837296728 501.3333333333333 405.1040553184766 501.3333333333333"/><polygon points="399.041991071644 479.99999999999994 424.9155040656837 479.99999999999994 423.5018687860738 501.3333333333333 472.14122737920263 501.3333333333333"/><polygon points="461.4595897648072 479.99999999999994 557.4098935304735 479.99999999999994 530.4584658440881 501.3333333333333 486.2819666683039 501.3333333333333"/>
</svg>
