<?xml version="1.0" encoding="UTF-8"?>
<svg xmlns="http://www.w3.org/2000/svg" id="RSSicon" viewBox="0 0 512 512" width="512" height="512">
  <defs>
    <style type="text/css">
      svg {
        background: black;
        margin: calc(50vh - 256px) auto 0;
      }
      
      polygon {stroke: darkorange; fill: none;}
    </style>
  </defs>
  <polygon points="10.666666666666666 10.666666666666666 32 10.666666666666666 32 32 10.666666666666666 32"/><polygon points="50.72264114784926 10.666666666666666 74.66666666666667 10.666666666666666 78.70895313150976 32 53.333333333333336 32"/><polygon points="97.30104466102567 10.666666666666666 117.33333333333333 10.666666666666666 110.4656429026871 32 95.99999999999999 32"/><polygon points="151.84207470031328 10.666666666666666 160 10.666666666666666 145.72740693599417 32 138.66666666666669 32"/><polygon points="174.00649236397692 10.666666666666666 202.66666666666666 10.666666666666666 220.82666416023858 32 181.33333333333334 32"/><polygon points="230.55379640121794 10.666666666666666 245.33333333333331 10.666666666666666 261.332518104597 32 224 32"/><polygon points="298.3796087044151 10.666666666666666 288 10.666666666666666 303.443191734185 32 266.66666666666663 32"/><polygon points="336.4270453643086 10.666666666666666 330.66666666666663 10.666666666666666 306.9906151061425 32 309.33333333333326 32"/><polygon points="367.9429217610021 10.666666666666666 373.3333333333333 10.666666666666666 342.29915190863034 32 351.99999999999994 32"/><polygon points="379.3606925391961 10.666666666666666 416 10.666666666666666 384.2300089320319 32 394.66666666666663 32"/><polygon points="421.94870349838783 10.666666666666666 458.66666666666663 10.666666666666666 436.60191564899975 32 437.33333333333326 32"/><polygon points="445.5501409375289 10.666666666666666 501.3333333333333 10.666666666666666 491.0941890607195 32 479.99999999999994 32"/><polygon points="10.666666666666666 53.333333333333336 31.3864536189505 53.333333333333336 32 74.66666666666667 5.919539172811767 74.66666666666667"/><polygon points="49.98233242313491 53.333333333333336 77.68891132394843 53.333333333333336 77.29428946949022 74.66666666666667 49.71166403368471 74.66666666666667"/><polygon points="104.4711673693112 53.333333333333336 114.74099165938202 53.333333333333336 110.73086312250912 74.66666666666667 93.41247313700192 74.66666666666667"/><polygon points="138.47726671836156 53.333333333333336 162.85855481526823 53.333333333333336 165.93463865499155 74.66666666666667 142.33158077838686 74.66666666666667"/><polygon points="185.28893059083953 53.333333333333336 202.33267748210702 53.333333333333336 217.57511279581496 74.66666666666667 181.40335360741338 74.66666666666667"/><polygon points="200.6190888708718 53.333333333333336 242.3082678767779 53.333333333333336 269.3138377137199 74.66666666666667 226.6937942745486 74.66666666666667"/><polygon points="277.3010309972973 53.333333333333336 292.80283686230894 53.333333333333336 302.189003913089 74.66666666666667 270.70272276473963 74.66666666666667"/><polygon points="317.7303500082908 53.333333333333336 334.0431972201707 53.333333333333336 316.29694735858334 74.66666666666667 304.39237288061423 74.66666666666667"/><polygon points="313.684170609196 53.333333333333336 376.4658963644901 53.333333333333336 370.89360815079954 74.66666666666667 352.3843106961443 74.66666666666667"/><polygon points="384.3258358346774 53.333333333333336 410.89570478681463 53.333333333333336 453.25376309753534 74.66666666666667 397.50402213229654 74.66666666666667"/><polygon points="449.05077703233957 53.333333333333336 461.68272090154244 53.333333333333336 424.427997903039 74.66666666666667 432.34527197465246 74.66666666666667"/><polygon points="489.95290683722135 53.333333333333336 497.95115623463715 53.333333333333336 540.6152130616123 74.66666666666667 475.7845521057682 74.66666666666667"/><polygon points="10.666666666666666 95.99999999999999 28.56269862981225 95.99999999999999 32 117.33333333333333 10.386392289340222 117.33333333333333"/><polygon points="55.883066442685745 95.99999999999999 77.57027788231126 95.99999999999999 70.29139450642042 117.33333333333333 53.270291120734434 117.33333333333333"/><polygon points="96.71041646327474 95.99999999999999 109.27093228666818 95.99999999999999 124.96598994415237 117.33333333333333 85.43302351133833 117.33333333333333"/><polygon points="150.0882974965396 95.99999999999999 170.6056547677822 95.99999999999999 174.55829691253072 117.33333333333333 132.62456318042857 117.33333333333333"/><polygon points="188.61727697169854 95.99999999999999 207.02567840135322 95.99999999999999 200.27762638894927 117.33333333333333 190.88533075135697 117.33333333333333"/><polygon points="227.3397351901715 95.99999999999999 242.02984677518552 95.99999999999999 235.22635315038625 117.33333333333333 228.2010056704864 117.33333333333333"/><polygon points="265.38406984623595 95.99999999999999 298.13924202432696 95.99999999999999 280.11480614335164 117.33333333333333 259.8370161710752 117.33333333333333"/><polygon points="286.34894882093545 95.99999999999999 325.75800921649625 95.99999999999999 364.7473532028074 117.33333333333333 316.5111068873578 117.33333333333333"/><polygon points="321.7018429487305 95.99999999999999 377.3711122205098 95.99999999999999 372.5615141888421 117.33333333333333 348.11980593869475 117.33333333333333"/><polygon points="347.53411529936955 95.99999999999999 421.2286527715 95.99999999999999 388.5664572918727 117.33333333333333 398.49566433410064 117.33333333333333"/><polygon points="386.79999268187555 95.99999999999999 450.34599995039787 95.99999999999999 458.40558373156614 117.33333333333333 447.96317192879394 117.33333333333333"/><polygon points="456.33411052794963 95.99999999999999 496.88385766031433 95.99999999999999 461.1211547864886 117.33333333333333 478.6267142034259 117.33333333333333"/><polygon points="10.666666666666666 138.66666666666669 38.00199965695572 138.66666666666669 32 160 5.5348988518505795 160"/><polygon points="50.86527482973367 138.66666666666669 82.20655574011087 138.66666666666669 79.4255586731563 160 64.50765961918113 160"/><polygon points="99.22618470693722 138.66666666666669 127.05809795047813 138.66666666666669 124.11852842480772 160 90.84670749902195 160"/><polygon points="134.0849830764383 138.66666666666669 152.5938426460231 138.66666666666669 149.9929687915466 160 140.44848466078838 160"/><polygon points="188.18814069898858 138.66666666666669 206.45813900045178 138.66666666666669 208.96034966475898 160 188.25978044164654 160"/><polygon points="213.8063954283944 138.66666666666669 242.17498761542873 138.66666666666669 268.8575169329161 160 218.57030777438374 160"/><polygon points="238.2522557715878 138.66666666666669 282.4022981216904 138.66666666666669 306.4018128817655 160 268.7053058975503 160"/><polygon points="317.1573863565936 138.66666666666669 329.9131092736216 138.66666666666669 320.13081607439295 160 310.1341208483503 160"/><polygon points="321.1057434538883 138.66666666666669 373.1842735007639 138.66666666666669 367.99331464789 160 354.9597188025904 160"/><polygon points="431.998711930388 138.66666666666669 423.4882042374946 138.66666666666669 426.58710365061745 160 383.2286975131362 160"/><polygon points="463.25947792879435 138.66666666666669 455.14613205557487 138.66666666666669 472.6406636657848 160 449.0687955580025 160"/><polygon points="426.591054132438 138.66666666666669 508.1589840253236 138.66666666666669 493.65552513034055 160 466.4444991673407 160"/><polygon points="10.666666666666666 181.33333333333334 42.18678118223492 181.33333333333334 32 202.66666666666666 29.142224820305557 202.66666666666666"/><polygon points="54.3219342073249 181.33333333333334 68.40821399421209 181.33333333333334 77.72109347324673 202.66666666666666 69.55897749275482 202.66666666666666"/><polygon points="100.2601760720581 181.33333333333334 96.67933826323487 181.33333333333334 113.91142811486615 202.66666666666666 97.79624351328927 202.66666666666666"/><polygon points="122.77837678594835 181.33333333333334 153.97144480481606 181.33333333333334 157.5997458698116 202.66666666666666 149.21535508479874 202.66666666666666"/><polygon points="168.76082914895153 181.33333333333334 184.66961987554524 181.33333333333334 199.32627210258585 202.66666666666666 173.12507218507074 202.66666666666666"/><polygon points="221.8665522494471 181.33333333333334 239.5525329574673 181.33333333333334 221.45906862713645 202.66666666666666 237.5330480142409 202.66666666666666"/><polygon points="252.3663385728631 181.33333333333334 273.5376217917241 181.33333333333334 302.43944674124486 202.66666666666666 246.46899712397084 202.66666666666666"/><polygon points="328.359923744412 181.33333333333334 318.748809806207 181.33333333333334 335.7152610207598 202.66666666666666 325.08757256900947 202.66666666666666"/><polygon points="313.34600560858433 181.33333333333334 375.9921893573144 181.33333333333334 410.7414809954443 202.66666666666666 341.3972028033895 202.66666666666666"/><polygon points="397.7377891749701 181.33333333333334 432.6925617150038 181.33333333333334 455.4834725843291 202.66666666666666 385.35709264453016 202.66666666666666"/><polygon points="413.73780442325943 181.33333333333334 462.2721384931792 181.33333333333334 423.87694557053743 202.66666666666666 419.3894840371264 202.66666666666666"/><polygon points="426.43862504003835 181.33333333333334 492.3878139883042 181.33333333333334 533.4352762587517 202.66666666666666 484.75787895588724 202.66666666666666"/><polygon points="10.666666666666666 224 22.912705254116137 224 32 245.33333333333331 2.388563833234528 245.33333333333331"/><polygon points="57.79907004586651 224 60.421941975959164 224 72.91127583718975 245.33333333333331 61.21082811782472 245.33333333333331"/><polygon points="88.79659055056575 224 112.52470965857795 224 116.2022084081436 245.33333333333331 77.71578890150998 245.33333333333331"/><polygon points="127.72678459438166 224 142.50717908915925 224 163.23396066316712 245.33333333333331 115.33300734949837 245.33333333333331"/><polygon points="184.18620285899834 224 202.0638992979777 224 190.02932309791393 245.33333333333331 179.3446442102044 245.33333333333331"/><polygon points="217.44544006348107 224 269.99495619078596 224 251.28293838096837 245.33333333333331 216.68020764494435 245.33333333333331"/><polygon points="245.40146954934835 224 302.31642340081373 224 260.8546524900777 245.33333333333331 259.26974961358894 245.33333333333331"/><polygon points="297.99155095097444 224 319.90427580489734 224 294.74896814940166 245.33333333333331 293.52057067009895 245.33333333333331"/><polygon points="379.41551832408805 224 353.51547099590647 224 337.99965512264856 245.33333333333331 373.27979166853737 245.33333333333331"/><polygon points="422.7833099257215 224 429.86761303508575 224 448.406957238637 245.33333333333331 381.4309153891572 245.33333333333331"/><polygon points="398.5098405676476 224 485.10561886185127 224 505.3995797201185 245.33333333333331 433.7863984163378 245.33333333333331"/><polygon points="435.2834694773033 224 499.8675106857678 224 519.1715643956816 245.33333333333331 465.89898989356107 245.33333333333331"/><polygon points="10.666666666666666 266.66666666666663 36.3834453909124 266.66666666666663 32 288 -16.74728294844603 288"/><polygon points="50.71751771632063 266.66666666666663 58.84544686002537 266.66666666666663 76.69285241173183 288 82.73357916541738 288"/><polygon points="94.17401584796754 266.66666666666663 143.6047068021213 266.66666666666663 122.55619750730988 288 89.85504295897908 288"/><polygon points="142.40760955961537 266.66666666666663 190.5923233283776 266.66666666666663 165.05882335013007 288 157.74489557138702 288"/><polygon points="189.38431381384697 266.66666666666663 204.28592919485973 266.66666666666663 192.49608125678833 288 161.12770528644072 288"/><polygon points="198.61562842252428 266.66666666666663 254.51733566464554 266.66666666666663 243.8951425077425 288 207.80560215145414 288"/><polygon points="296.48964416730973 266.66666666666663 287.50230951425874 266.66666666666663 283.73594693411036 288 271.0976640018351 288"/><polygon points="327.56563975153085 266.66666666666663 328.657468263341 266.66666666666663 310.4669257276864 288 310.3266408849286 288"/><polygon points="329.8192391317496 266.66666666666663 350.8799992592875 266.66666666666663 377.0912825222201 288 358.2588287704343 288"/><polygon points="397.544860497084 266.66666666666663 428.71561945894365 266.66666666666663 463.58104558727933 288 367.18616257657186 288"/><polygon points="436.4813389268746 266.66666666666663 452.29371162441697 266.66666666666663 447.0966199584948 288 413.439855977774 288"/><polygon points="490.9273807676637 266.66666666666663 493.673008011257 266.66666666666663 474.3297160883092 288 452.1930023593756 288"/><polygon points="10.666666666666666 309.33333333333326 57.597517347310415 309.33333333333326 32 330.66666666666663 42.43363086611406 330.66666666666663"/><polygon points="51.99405516249679 309.33333333333326 95.47795255447755 309.33333333333326 73.97134149169665 330.66666666666663 54.97134303414509 330.66666666666663"/><polygon points="95.9165838144284 309.33333333333326 113.27105554969998 309.33333333333326 116.97714114854726 330.66666666666663 108.56020412415447 330.66666666666663"/><polygon points="144.41209097645827 309.33333333333326 182.43406743972088 309.33333333333326 146.80645573978774 330.66666666666663 135.66522444400215 330.66666666666663"/><polygon points="197.303051072543 309.33333333333326 191.64317394392592 309.33333333333326 202.09263623912847 330.66666666666663 186.13933308554795 330.66666666666663"/><polygon points="241.74141803726422 309.33333333333326 209.87298690560004 309.33333333333326 261.04051402819255 330.66666666666663 202.18800072637748 330.66666666666663"/><polygon points="295.3861029337068 309.33333333333326 274.71558900412066 309.33333333333326 308.1898083585745 330.66666666666663 288.1708819734187 330.66666666666663"/><polygon points="299.31449904990023 309.33333333333326 344.3565948637974 309.33333333333326 318.879332849809 330.66666666666663 332.3926524979291 330.66666666666663"/><polygon points="344.8837590913163 309.33333333333326 346.90679616528115 309.33333333333326 347.69136060012283 330.66666666666663 326.1281145048264 330.66666666666663"/><polygon points="362.09178904028784 309.33333333333326 447.36262167258957 309.33333333333326 447.83064170467713 330.66666666666663 376.15479214566795 330.66666666666663"/><polygon points="384.6144004503084 309.33333333333326 428.4021586792146 309.33333333333326 447.69379268446005 330.66666666666663 468.4219095570769 330.66666666666663"/><polygon points="457.5311237000932 309.33333333333326 490.10384613038286 309.33333333333326 466.47647149804243 330.66666666666663 509.556159888309 330.66666666666663"/><polygon points="10.666666666666666 351.99999999999994 36.73110818958021 351.99999999999994 32 373.3333333333333 -8.158816008863578 373.3333333333333"/><polygon points="48.94902757457356 351.99999999999994 49.65986528903073 351.99999999999994 76.90294444763187 373.3333333333333 62.180451546427435 373.3333333333333"/><polygon points="93.28013499089417 351.99999999999994 151.73625830360447 351.99999999999994 109.83001552413339 373.3333333333333 72.52185039968882 373.3333333333333"/><polygon points="125.34526684332687 351.99999999999994 133.12546807982068 351.99999999999994 150.72522712122168 373.3333333333333 159.04543715963274 373.3333333333333"/><polygon points="192.17888240039903 351.99999999999994 165.74009629222377 351.99999999999994 183.19517081964534 373.3333333333333 155.93844770440035 373.3333333333333"/><polygon points="209.52027378188907 351.99999999999994 235.18106492934723 351.99999999999994 262.19642802524766 373.3333333333333 199.846664704415 373.3333333333333"/><polygon points="281.5867917686676 351.99999999999994 275.81798137483554 351.99999999999994 316.9076684867629 373.3333333333333 231.09629049352066 373.3333333333333"/><polygon points="324.5602922239568 351.99999999999994 372.8469276414593 351.99999999999994 362.3723798876903 373.3333333333333 318.16875746837235 373.3333333333333"/><polygon points="372.0268067466439 351.99999999999994 394.87394102572694 351.99999999999994 390.7348654767506 373.3333333333333 313.64342722379365 373.3333333333333"/><polygon points="348.3792894748548 351.99999999999994 438.33226309222533 351.99999999999994 414.4617453718164 373.3333333333333 383.2914417890911 373.3333333333333"/><polygon points="418.67602466491473 351.99999999999994 419.70372541672833 351.99999999999994 416.4956174029497 373.3333333333333 469.6293837709384 373.3333333333333"/><polygon points="480.64413287056664 351.99999999999994 486.95265918458745 351.99999999999994 465.7531535290684 373.3333333333333 502.9221255880913 373.3333333333333"/><polygon points="10.666666666666666 394.66666666666663 -8.493692256497457 394.66666666666663 32 416 -6.8857100440876415 416"/><polygon points="57.80479421128385 394.66666666666663 92.97101132145008 394.66666666666663 77.43357136859314 416 78.21108019832626 416"/><polygon points="102.15489759128131 394.66666666666663 99.91739802599628 394.66666666666663 109.9932039540595 416 118.59214337808633 416"/><polygon points="152.82400989641323 394.66666666666663 152.69996413387634 394.66666666666663 166.55373701985724 416 129.75338645675885 416"/><polygon points="189.9528532050917 394.66666666666663 225.0670043723882 394.66666666666663 215.66140862337357 416 209.478094296147 416"/><polygon points="225.1853376207093 394.66666666666663 210.56679390725267 394.66666666666663 221.82196385976218 416 256.83867245894794 416"/><polygon points="290.19364400649386 394.66666666666663 316.19837677717163 394.66666666666663 312.99395016392225 416 249.64319648773525 416"/><polygon points="327.68000993817463 394.66666666666663 353.40669866309037 394.66666666666663 324.2378464447331 416 320.71552739268697 416"/><polygon points="344.1002744084803 394.66666666666663 335.7465977491813 394.66666666666663 394.2506428842199 416 338.3561934798283 416"/><polygon points="400.2596641706812 394.66666666666663 395.21345081474186 394.66666666666663 369.21383166560685 416 407.5452400536461 416"/><polygon points="486.6014411780991 394.66666666666663 486.5195103470048 394.66666666666663 486.90550996154394 416 435.93433270853177 416"/><polygon points="520.6605727702271 394.66666666666663 470.1186291859056 394.66666666666663 510.97333629754985 416 457.32356618207115 416"/><polygon points="10.666666666666666 437.33333333333326 40.4099226786153 437.33333333333326 32 458.66666666666663 35.63368495965005 458.66666666666663"/><polygon points="53.744219246097884 437.33333333333326 53.25063190262564 437.33333333333326 75.22086171290937 458.66666666666663 22.437222204953834 458.66666666666663"/><polygon points="105.47263772047299 437.33333333333326 69.20203630418044 437.33333333333326 109.15656312092689 458.66666666666663 89.09550597977524 458.66666666666663"/><polygon points="135.91697910595192 437.33333333333326 209.81314276043142 437.33333333333326 175.57790611578503 458.66666666666663 142.1693536579269 458.66666666666663"/><polygon points="199.60219014845782 437.33333333333326 224.36973597035205 437.33333333333326 205.52964892677298 458.66666666666663 222.42107874425574 458.66666666666663"/><polygon points="240.93828177985117 437.33333333333326 241.4556842930663 437.33333333333326 238.6908850301849 458.66666666666663 217.84841161783507 458.66666666666663"/><polygon points="274.16924113616744 437.33333333333326 244.66149103440628 437.33333333333326 314.041961467327 458.66666666666663 317.3328054095903 458.66666666666663"/><polygon points="304.24165029046895 437.33333333333326 376.2612950451599 437.33333333333326 328.13748589699935 458.66666666666663 270.4280207455105 458.66666666666663"/><polygon points="371.1107490606261 437.33333333333326 406.0972001822287 437.33333333333326 368.10501068210493 458.66666666666663 378.6365560453446 458.66666666666663"/><polygon points="355.64748814301356 437.33333333333326 449.36313208205144 437.33333333333326 420.7965702786787 458.66666666666663 395.83744643583486 458.66666666666663"/><polygon points="477.78977541556037 437.33333333333326 443.7283662134968 437.33333333333326 443.7710001522913 458.66666666666663 489.271720725386 458.66666666666663"/><polygon points="447.00252333305906 437.33333333333326 538.0792199666886 437.33333333333326 499.2151976600926 458.66666666666663 463.75517499075056 458.66666666666663"/><polygon points="10.666666666666666 479.99999999999994 2.547165645337632 479.99999999999994 32 501.3333333333333 54.139081604865495 501.3333333333333"/><polygon points="55.4426341015301 479.99999999999994 53.53575216743102 479.99999999999994 76.08634534772315 501.3333333333333 28.769261644286587 501.3333333333333"/><polygon points="92.01780771945664 479.99999999999994 136.51823261858283 479.99999999999994 112.05475686718965 501.3333333333333 121.72724977400313 501.3333333333333"/><polygon points="149.82629979935075 479.99999999999994 112.90406058161797 479.99999999999994 161.71316030919982 501.3333333333333 160.7384510982298 501.3333333333333"/><polygon points="181.41199879067895 479.99999999999994 232.9811889877989 479.99999999999994 184.75268382139717 501.3333333333333 153.63733852500982 501.3333333333333"/><polygon points="234.74763684218317 479.99999999999994 252.3105868877711 479.99999999999994 229.53607410902504 501.3333333333333 224.58399773424995 501.3333333333333"/><polygon points="292.85641454687436 479.99999999999994 235.93992419661186 479.99999999999994 318.62259588136067 501.3333333333333 268.57805483837717 501.3333333333333"/><polygon points="338.6532157476141 479.99999999999994 366.60213281060896 479.99999999999994 319.0900826316383 501.3333333333333 253.59020004222384 501.3333333333333"/><polygon points="362.81703701168044 479.99999999999994 376.6514541953842 479.99999999999994 387.18997641906697 501.3333333333333 349.01566285894614 501.3333333333333"/><polygon points="392.6556917985087 479.99999999999994 402.7738547860113 479.99999999999994 382.86623867727883 501.3333333333333 416.5919457907969 501.3333333333333"/><polygon points="430.726888401154 479.99999999999994 403.51637178702987 479.99999999999994 410.30846780258605 501.3333333333333 411.2516836543798 501.3333333333333"/><polygon points="486.06381438159053 479.99999999999994 530.0454724720641 479.99999999999994 443.37304668175733 501.3333333333333 522.8712504563097 501.3333333333333"/>
</svg>
