<?xml version="1.0" encoding="UTF-8"?>
<svg xmlns="http://www.w3.org/2000/svg" id="RSSicon" viewBox="0 0 512 512" width="512" height="512">
  <defs>
    <style type="text/css">
      svg {
        background: black;
        margin: calc(50vh - 256px) auto 0;
      }
      
      polygon {stroke: darkorange; fill: none;}
    </style>
  </defs>
  <polygon points="10.666666666666666 10.666666666666666 32 10.666666666666666 32 32 10.666666666666666 32"/><polygon points="49.189818529202874 10.666666666666666 74.66666666666667 10.666666666666666 74.14063815584026 32 53.333333333333336 32"/><polygon points="101.58101556182727 10.666666666666666 117.33333333333333 10.666666666666666 110.27853840075505 32 95.99999999999999 32"/><polygon points="132.62891252189252 10.666666666666666 160 10.666666666666666 174.99041874211377 32 138.66666666666669 32"/><polygon points="200.63736712602696 10.666666666666666 202.66666666666666 10.666666666666666 183.61277700410912 32 181.33333333333334 32"/><polygon points="240.2288128072752 10.666666666666666 245.33333333333331 10.666666666666666 242.06407550245393 32 224 32"/><polygon points="265.5067190763997 10.666666666666666 288 10.666666666666666 302.36595393209063 32 266.66666666666663 32"/><polygon points="288.2076052870701 10.666666666666666 330.66666666666663 10.666666666666666 335.5505823604131 32 309.33333333333326 32"/><polygon points="356.38239273755437 10.666666666666666 373.3333333333333 10.666666666666666 380.0854333571457 32 351.99999999999994 32"/><polygon points="391.10832180871716 10.666666666666666 416 10.666666666666666 440.5820228728268 32 394.66666666666663 32"/><polygon points="418.02341814843254 10.666666666666666 458.66666666666663 10.666666666666666 481.7219990988842 32 437.33333333333326 32"/><polygon points="522.3006444723254 10.666666666666666 501.3333333333333 10.666666666666666 491.81827490331443 32 479.99999999999994 32"/><polygon points="10.666666666666666 53.333333333333336 26.810444864796615 53.333333333333336 32 74.66666666666667 13.174514721019847 74.66666666666667"/><polygon points="50.80322047949846 53.333333333333336 75.94715548457847 53.333333333333336 77.24092944358364 74.66666666666667 49.77462264841707 74.66666666666667"/><polygon points="95.46165737676355 53.333333333333336 118.75373832904009 53.333333333333336 126.20743341954991 74.66666666666667 100.16937051571168 74.66666666666667"/><polygon points="149.18994832645436 53.333333333333336 155.00344113590464 53.333333333333336 161.60861466982658 74.66666666666667 133.98993370451478 74.66666666666667"/><polygon points="194.4765406096026 53.333333333333336 198.66440693001258 53.333333333333336 205.95516326877114 74.66666666666667 184.82537762088066 74.66666666666667"/><polygon points="219.14442978377335 53.333333333333336 250.5064764387971 53.333333333333336 227.08401401479423 74.66666666666667 221.6039181661888 74.66666666666667"/><polygon points="284.3895772798012 53.333333333333336 282.8938668862599 53.333333333333336 310.1303168811399 74.66666666666667 265.388234121875 74.66666666666667"/><polygon points="327.59772084628764 53.333333333333336 331.29077443087203 53.333333333333336 341.3555665746403 74.66666666666667 312.9664230219191 74.66666666666667"/><polygon points="321.9764166483884 53.333333333333336 372.8088970269301 53.333333333333336 370.07195914984345 74.66666666666667 346.7499860357776 74.66666666666667"/><polygon points="370.5885460770127 53.333333333333336 414.0246841839779 53.333333333333336 383.0057875199614 74.66666666666667 391.5406370780313 74.66666666666667"/><polygon points="467.92861894806015 53.333333333333336 462.1213393980856 53.333333333333336 460.7532600499868 74.66666666666667 438.9358494362182 74.66666666666667"/><polygon points="494.4302163693753 53.333333333333336 506.61104555747033 53.333333333333336 497.5660973243231 74.66666666666667 485.17562415875454 74.66666666666667"/><polygon points="10.666666666666666 95.99999999999999 24.097571180997768 95.99999999999999 32 117.33333333333333 14.21790496781924 117.33333333333333"/><polygon points="58.475780000169046 95.99999999999999 68.80363313678093 95.99999999999999 69.9862698843492 117.33333333333333 46.38397243203471 117.33333333333333"/><polygon points="105.56601506492638 95.99999999999999 107.49438690890669 95.99999999999999 108.64919554262272 117.33333333333333 93.74710967964171 117.33333333333333"/><polygon points="131.50557501797852 95.99999999999999 150.2706277518792 95.99999999999999 152.47698190285675 117.33333333333333 135.98462191470088 117.33333333333333"/><polygon points="197.36888638705688 95.99999999999999 208.0084470113099 95.99999999999999 223.57922432147177 117.33333333333333 186.3052228966252 117.33333333333333"/><polygon points="244.31984549391098 95.99999999999999 237.97898735230112 95.99999999999999 230.47705844722265 117.33333333333333 215.9823888219749 117.33333333333333"/><polygon points="262.2709430532433 95.99999999999999 294.51935004786003 95.99999999999999 299.5492876204129 117.33333333333333 270.6347456232757 117.33333333333333"/><polygon points="310.9773895126859 95.99999999999999 330.797570980339 95.99999999999999 331.667210004681 117.33333333333333 305.4589063673363 117.33333333333333"/><polygon points="361.3429228898254 95.99999999999999 375.57470281311623 95.99999999999999 331.42818178072855 117.33333333333333 345.3824683053375 117.33333333333333"/><polygon points="349.59307878372056 95.99999999999999 416.41603775466865 95.99999999999999 399.59590330209204 117.33333333333333 386.09606625233283 117.33333333333333"/><polygon points="474.88090779977205 95.99999999999999 459.8006370726422 95.99999999999999 409.80728194975745 117.33333333333333 437.79587557585546 117.33333333333333"/><polygon points="490.6348622233931 95.99999999999999 496.8099577725264 95.99999999999999 550.527779497979 117.33333333333333 473.5618987115672 117.33333333333333"/><polygon points="10.666666666666666 138.66666666666669 35.0679245303389 138.66666666666669 32 160 25.298243620636377 160"/><polygon points="55.82916867473186 138.66666666666669 70.07544994870514 138.66666666666669 75.26360647409825 160 46.073722456576405 160"/><polygon points="92.03703661953405 138.66666666666669 110.65627176118574 138.66666666666669 107.48858114858751 160 111.12147038717733 160"/><polygon points="143.09931695976096 138.66666666666669 165.38443733179386 138.66666666666669 163.7350288999479 160 149.0671408242125 160"/><polygon points="202.179592375411 138.66666666666669 216.35576794013022 138.66666666666669 215.25225903438607 160 193.17039987489815 160"/><polygon points="218.10934153858847 138.66666666666669 233.6002119257111 138.66666666666669 256.77687856894704 160 238.60850286584028 160"/><polygon points="242.93947560158915 138.66666666666669 302.26756346103485 138.66666666666669 312.70468753888565 160 279.5565247921438 160"/><polygon points="293.1588972564214 138.66666666666669 344.54704253800315 138.66666666666669 328.6471467513641 160 306.6448681612713 160"/><polygon points="340.1951669068265 138.66666666666669 359.50822253357336 138.66666666666669 357.7114754986639 160 362.6167777280381 160"/><polygon points="368.3028925236536 138.66666666666669 428.40998861348703 138.66666666666669 392.5615431871181 160 385.85143765699183 160"/><polygon points="422.72323170711786 138.66666666666669 456.02373781761185 138.66666666666669 471.3901502231799 160 434.4171567614767 160"/><polygon points="426.5324962733603 138.66666666666669 498.94788891707583 138.66666666666669 512.9247411656671 160 486.6087656243731 160"/><polygon points="10.666666666666666 181.33333333333334 21.306942380247534 181.33333333333334 32 202.66666666666666 9.956524095618324 202.66666666666666"/><polygon points="48.062794425769084 181.33333333333334 80.55517501449657 181.33333333333334 73.97165069223558 202.66666666666666 46.220853673153826 202.66666666666666"/><polygon points="101.16794963671971 181.33333333333334 125.42436909391677 181.33333333333334 127.45817319583651 202.66666666666666 81.2774629268766 202.66666666666666"/><polygon points="129.20542430969692 181.33333333333334 146.73593718924332 181.33333333333334 154.2827936649367 202.66666666666666 145.67475780139029 202.66666666666666"/><polygon points="170.56203319504388 181.33333333333334 216.48308451391614 181.33333333333334 213.39329946247796 202.66666666666666 186.4457628744541 202.66666666666666"/><polygon points="214.24240454414826 181.33333333333334 266.2922881895985 181.33333333333334 235.15453281497182 202.66666666666666 228.65646443925027 202.66666666666666"/><polygon points="296.6725323353071 181.33333333333334 277.1429817910911 181.33333333333334 270.2176514263976 202.66666666666666 283.1774642683184 202.66666666666666"/><polygon points="321.0336594045419 181.33333333333334 314.731849261338 181.33333333333334 331.71558211667525 202.66666666666666 319.9996140005929 202.66666666666666"/><polygon points="340.8454347080701 181.33333333333334 363.9086794460432 181.33333333333334 393.58058018371116 202.66666666666666 347.74681913272343 202.66666666666666"/><polygon points="406.5254663619143 181.33333333333334 402.8526600395432 181.33333333333334 461.0964927033471 202.66666666666666 394.54340978701936 202.66666666666666"/><polygon points="439.66809323437485 181.33333333333334 448.40466675575357 181.33333333333334 405.5167340671652 202.66666666666666 437.1428489044351 202.66666666666666"/><polygon points="455.61058775460197 181.33333333333334 491.88565801101777 181.33333333333334 478.9228186822431 202.66666666666666 493.6464429232292 202.66666666666666"/><polygon points="10.666666666666666 224 46.100705286422105 224 32 245.33333333333331 11.198135415193883 245.33333333333331"/><polygon points="49.92851239676821 224 95.69993643433389 224 74.20619870071208 245.33333333333331 73.66202318622562 245.33333333333331"/><polygon points="91.41372206218156 224 97.98494428081568 224 120.68901421998474 245.33333333333331 89.66050006130806 245.33333333333331"/><polygon points="134.48510389496226 224 173.82104866919664 224 144.7659621986158 245.33333333333331 142.34795338560178 245.33333333333331"/><polygon points="190.958408707517 224 220.87780250631312 224 198.43103010955954 245.33333333333331 166.23648786710692 245.33333333333331"/><polygon points="243.73786315228105 224 269.3223374800338 224 235.2172877860175 245.33333333333331 221.34125016649034 245.33333333333331"/><polygon points="253.09132287909006 224 268.2027263856347 224 319.65548253563213 245.33333333333331 292.4526605417068 245.33333333333331"/><polygon points="332.45218210077684 224 308.6479678845799 224 350.88739550894866 245.33333333333331 285.74616919518945 245.33333333333331"/><polygon points="380.29560218269415 224 377.8681329869762 224 385.2231762191318 245.33333333333331 334.3090624182811 245.33333333333331"/><polygon points="425.3435463659807 224 400.71407444484896 224 427.0654814127977 245.33333333333331 379.99578331691856 245.33333333333331"/><polygon points="444.0579808051281 224 434.5946531138163 224 492.3382708333655 245.33333333333331 441.27845704378853 245.33333333333331"/><polygon points="534.5044088128006 224 505.63564389532945 224 544.4152155087065 245.33333333333331 480.7819925397357 245.33333333333331"/><polygon points="10.666666666666666 266.66666666666663 39.576860002485375 266.66666666666663 32 288 18.32531689603092 288"/><polygon points="51.1443960695204 266.66666666666663 56.370607148298696 266.66666666666663 73.69164774196753 288 44.282063966229465 288"/><polygon points="96.11482824686432 266.66666666666663 110.81392222478338 266.66666666666663 122.518370680948 288 76.2716210710633 288"/><polygon points="129.621749671188 266.66666666666663 131.05165894408316 266.66666666666663 149.93982666612885 288 145.81477417016268 288"/><polygon points="173.33988501431395 266.66666666666663 219.79906742084154 266.66666666666663 187.2218337089249 288 197.30361947015103 288"/><polygon points="215.96862683262077 266.66666666666663 242.30671883013437 266.66666666666663 253.21679586039016 288 202.93313591279775 288"/><polygon points="246.1918694041751 266.66666666666663 270.2897662086124 266.66666666666663 284.89543948923125 288 244.91478001856984 288"/><polygon points="332.5017801316484 266.66666666666663 336.44422739400113 266.66666666666663 353.17645125800937 288 302.9813072478164 288"/><polygon points="333.9617524804946 266.66666666666663 381.16444667625603 266.66666666666663 362.4696803948141 288 346.62364704223216 288"/><polygon points="415.07440614985774 266.66666666666663 392.23011007893194 266.66666666666663 406.69603411755423 288 392.4579812967021 288"/><polygon points="437.38106075785197 266.66666666666663 462.1040635069189 266.66666666666663 466.572631549936 288 431.97020055229035 288"/><polygon points="483.74452739930183 266.66666666666663 532.8423597617943 266.66666666666663 482.5416508836641 288 503.75633597198384 288"/><polygon points="10.666666666666666 309.33333333333326 34.48506976329725 309.33333333333326 32 330.66666666666663 26.89544723454923 330.66666666666663"/><polygon points="58.46613602008412 309.33333333333326 55.33432782019175 309.33333333333326 72.6930381942402 330.66666666666663 45.63965509231831 330.66666666666663"/><polygon points="97.66015204947428 309.33333333333326 115.76040503659246 309.33333333333326 114.28816554921855 330.66666666666663 94.37854195304975 330.66666666666663"/><polygon points="138.8557244858218 309.33333333333326 195.43168776114342 309.33333333333326 164.88415956617445 330.66666666666663 147.80821772783915 330.66666666666663"/><polygon points="173.8038970114227 309.33333333333326 214.61609366746004 309.33333333333326 212.20459359755102 330.66666666666663 170.2947121623721 330.66666666666663"/><polygon points="208.0143024834379 309.33333333333326 236.3146314386442 309.33333333333326 258.21952733546755 330.66666666666663 223.14788109553143 330.66666666666663"/><polygon points="274.6745830940442 309.33333333333326 321.5101589351262 309.33333333333326 317.0520503863984 330.66666666666663 301.70648062561514 330.66666666666663"/><polygon points="302.5401703494877 309.33333333333326 309.38498380469025 309.33333333333326 306.14692029213563 330.66666666666663 336.3475052679833 330.66666666666663"/><polygon points="361.96791161731744 309.33333333333326 342.2856118813429 309.33333333333326 414.91326440017326 330.66666666666663 363.2969769477095 330.66666666666663"/><polygon points="372.5977756571812 309.33333333333326 390.9976190178607 309.33333333333326 413.661936701698 330.66666666666663 382.88208912200366 330.66666666666663"/><polygon points="392.45538804579917 309.33333333333326 433.49007277391206 309.33333333333326 487.6969537671964 330.66666666666663 467.5248476558724 330.66666666666663"/><polygon points="482.64795403179437 309.33333333333326 495.69655152335224 309.33333333333326 501.2009500090391 330.66666666666663 468.2685545387908 330.66666666666663"/><polygon points="10.666666666666666 351.99999999999994 60.0106041947071 351.99999999999994 32 373.3333333333333 -28.70979713303853 373.3333333333333"/><polygon points="50.86003425263242 351.99999999999994 80.66390850257929 351.99999999999994 72.63540318410234 373.3333333333333 87.88525618698408 373.3333333333333"/><polygon points="87.40064572950699 351.99999999999994 88.52667073364911 351.99999999999994 120.45093389152062 373.3333333333333 127.89147263049352 373.3333333333333"/><polygon points="139.4346148637869 351.99999999999994 173.85182635090047 351.99999999999994 159.68090696860446 373.3333333333333 159.43653784993273 373.3333333333333"/><polygon points="179.12058159677284 351.99999999999994 171.56511363450394 351.99999999999994 221.19175849001894 373.3333333333333 212.86026076479877 373.3333333333333"/><polygon points="200.74508964467114 351.99999999999994 275.3000700900453 351.99999999999994 232.95938649990538 373.3333333333333 197.43317338582906 373.3333333333333"/><polygon points="291.9974576179659 351.99999999999994 320.79612443798965 351.99999999999994 267.4966875671883 373.3333333333333 257.062354274164 373.3333333333333"/><polygon points="337.634464507301 351.99999999999994 325.1539909569056 351.99999999999994 315.62940431422265 373.3333333333333 287.01817949771066 373.3333333333333"/><polygon points="333.82555929724504 351.99999999999994 346.7613145608891 351.99999999999994 400.61344747154794 373.3333333333333 377.00307379627856 373.3333333333333"/><polygon points="381.5906784951934 351.99999999999994 418.5742804846463 351.99999999999994 434.3851575425617 373.3333333333333 403.35165074248965 373.3333333333333"/><polygon points="411.38077269281706 351.99999999999994 493.0077640509249 351.99999999999994 427.8666411711456 373.3333333333333 442.3835079755909 373.3333333333333"/><polygon points="483.76912039761237 351.99999999999994 522.4895703159756 351.99999999999994 527.320159674449 373.3333333333333 466.262515427652 373.3333333333333"/><polygon points="10.666666666666666 394.66666666666663 38.98363439770594 394.66666666666663 32 416 58.655606683687864 416"/><polygon points="51.62107044383638 394.66666666666663 71.91074418781977 394.66666666666663 72.68828774107811 416 68.39883359533822 416"/><polygon points="94.24293372771696 394.66666666666663 158.56420092206724 394.66666666666663 125.18651350811413 416 78.66707958043528 416"/><polygon points="152.92480535430406 394.66666666666663 138.34966541423802 394.66666666666663 149.4529356987269 416 175.8307088453861 416"/><polygon points="165.26005635578798 394.66666666666663 245.06636362121571 394.66666666666663 220.54795825806917 416 213.1563978329758 416"/><polygon points="230.7577958112116 394.66666666666663 269.50286274543913 394.66666666666663 240.0533216711389 416 179.5684587648266 416"/><polygon points="274.2921248583054 394.66666666666663 273.9964805993449 394.66666666666663 302.9815483161667 416 284.02919995462304 416"/><polygon points="331.94779089533745 394.66666666666663 350.01365702796016 394.66666666666663 365.2518593675894 416 313.4452162561462 416"/><polygon points="356.8708094370227 394.66666666666663 392.5386447224622 394.66666666666663 386.05341992721463 416 376.3912143147563 416"/><polygon points="369.30296170971855 394.66666666666663 402.0074766863189 394.66666666666663 453.76540555298436 416 407.7938423453608 416"/><polygon points="394.62658477788636 394.66666666666663 477.3979446442851 394.66666666666663 483.1583827582706 416 462.7965266674503 416"/><polygon points="512.9622940085371 394.66666666666663 535.1451985803199 394.66666666666663 466.80833208727626 416 466.0249409187451 416"/><polygon points="10.666666666666666 437.33333333333326 62.37936991465635 437.33333333333326 32 458.66666666666663 63.5884802815154 458.66666666666663"/><polygon points="54.92092429001231 437.33333333333326 76.30057595913637 437.33333333333326 78.76976804169573 458.66666666666663 2.012359563377686 458.66666666666663"/><polygon points="88.21200875292465 437.33333333333326 90.01534645711699 437.33333333333326 109.09736631500401 458.66666666666663 80.38961634027132 458.66666666666663"/><polygon points="148.942882851966 437.33333333333326 136.70947713918392 437.33333333333326 161.70990718143446 458.66666666666663 117.57569547681985 458.66666666666663"/><polygon points="189.78822607865294 437.33333333333326 158.3947259978105 437.33333333333326 215.38810008129147 458.66666666666663 186.23093822423942 458.66666666666663"/><polygon points="206.09024792875027 437.33333333333326 282.94724633047434 437.33333333333326 259.30742009057104 458.66666666666663 265.1831154178162 458.66666666666663"/><polygon points="253.5126183831321 437.33333333333326 327.00705278717453 437.33333333333326 256.9614832497085 458.66666666666663 306.3161042939664 458.66666666666663"/><polygon points="315.53130974464574 437.33333333333326 378.4675918824384 437.33333333333326 338.2282728227227 458.66666666666663 266.1452693866001 458.66666666666663"/><polygon points="368.73496295979174 437.33333333333326 415.99469880539704 437.33333333333326 364.3749878690581 458.66666666666663 364.12597044314145 458.66666666666663"/><polygon points="389.09741615127916 437.33333333333326 464.26756953801635 437.33333333333326 440.4930198954145 458.66666666666663 371.5610259597803 458.66666666666663"/><polygon points="482.37984215315555 437.33333333333326 413.6031737780522 437.33333333333326 431.3727905685877 458.66666666666663 407.2962684984204 458.66666666666663"/><polygon points="518.0827212157606 437.33333333333326 466.001757452707 437.33333333333326 449.9557169005035 458.66666666666663 533.1108583828839 458.66666666666663"/><polygon points="10.666666666666666 479.99999999999994 26.53086030683834 479.99999999999994 32 501.3333333333333 -27.57471323571809 501.3333333333333"/><polygon points="50.17469407685654 479.99999999999994 77.05096533545667 479.99999999999994 71.9190374262719 501.3333333333333 81.38784314382755 501.3333333333333"/><polygon points="89.98896101221906 479.99999999999994 125.20661696557673 479.99999999999994 121.43835934309513 501.3333333333333 84.05376814064888 501.3333333333333"/><polygon points="134.1460499047895 479.99999999999994 169.3969476521111 479.99999999999994 167.06107534233416 501.3333333333333 150.5467806257154 501.3333333333333"/><polygon points="166.59071337946 479.99999999999994 168.04840842417494 479.99999999999994 183.79913780648252 501.3333333333333 214.2076579702526 501.3333333333333"/><polygon points="202.8732666795995 479.99999999999994 298.12117255785085 479.99999999999994 242.05977884066553 501.3333333333333 256.9523352856952 501.3333333333333"/><polygon points="242.26074729963807 479.99999999999994 297.94679422358155 479.99999999999994 261.12612440216304 501.3333333333333 252.08839755828794 501.3333333333333"/><polygon points="327.857319442462 479.99999999999994 280.15920622868305 479.99999999999994 363.8830711159379 501.3333333333333 322.1484061200767 501.3333333333333"/><polygon points="356.87301744869944 479.99999999999994 336.65346592824216 479.99999999999994 412.3798998089488 501.3333333333333 367.78386075968587 501.3333333333333"/><polygon points="425.62077750454216 479.99999999999994 423.53536306820223 479.99999999999994 387.104269741215 501.3333333333333 362.0148870194176 501.3333333333333"/><polygon points="488.941877427901 479.99999999999994 489.1001931041095 479.99999999999994 441.289184624379 501.3333333333333 400.4050745252714 501.3333333333333"/><polygon points="476.9433301045874 479.99999999999994 513.8780795110056 479.99999999999994 477.2988264920772 501.3333333333333 505.1680976769741 501.3333333333333"/>
</svg>
