<?xml version="1.0" encoding="UTF-8"?>
<svg xmlns="http://www.w3.org/2000/svg" id="RSSicon" viewBox="0 0 512 512" width="512" height="512">
  <defs>
    <style type="text/css">
      svg {
        background: black;
        margin: calc(50vh - 256px) auto 0;
      }
      
      polygon {stroke: darkorange; fill: none;}
    </style>
  </defs>
  <polygon points="10.666666666666666 10.666666666666666 32 10.666666666666666 32 32 10.666666666666666 32"/><polygon points="52.74657728483578 10.666666666666666 75.25342271516422 10.666666666666666 73.0862178675338 32 54.91378213246619 32"/><polygon points="99.60722308238725 10.666666666666666 113.72611025094606 10.666666666666666 119.62780819611578 32 93.70552513721753 32"/><polygon points="134.29585473873863 10.666666666666666 164.37081192792806 10.666666666666666 166.79076042875175 32 131.87590623791493 32"/><polygon points="173.7611218900562 10.666666666666666 210.2388781099438 10.666666666666666 193.265179086123 32 190.734820913877 32"/><polygon points="225.04378518569646 10.666666666666666 244.28954814763685 10.666666666666666 256.8759535115169 32 212.45737982181637 32"/><polygon points="270.4510853360681 10.666666666666666 284.2155813305985 10.666666666666666 285.66362342553754 32 269.0030432411291 32"/><polygon points="319.6472125035008 10.666666666666666 320.3527874964991 10.666666666666666 320.60117838288124 32 319.39882161711864 32"/><polygon points="358.4700023570338 10.666666666666666 366.86333097629944 10.666666666666666 356.1334459459732 32 369.19988738736004 32"/><polygon points="408.6972237202846 10.666666666666666 401.969442946382 10.666666666666666 437.65658823585693 32 373.0100784308097 32"/><polygon points="440.5967528638264 10.666666666666666 455.4032471361735 10.666666666666666 437.73855788834425 32 458.26144211165564 32"/><polygon points="453.84005320340765 10.666666666666666 527.4932801299256 10.666666666666666 499.38970222760696 32 481.9436311057263 32"/><polygon points="10.666666666666666 51.254671312039996 32 50.946123226740866 32 77.05387677325913 10.666666666666666 76.74532868796001"/><polygon points="55.869699985290225 51.73141020486712 72.13030001470977 52.81515394246223 76.70093419899783 75.18484605753777 51.29906580100218 76.26858979513288"/><polygon points="99.8345548584629 52.05512363093157 113.49877847487042 55.52933253262687 117.45624236962155 72.47066746737313 95.87709096371177 75.94487636906844"/><polygon points="141.19168008374754 52.27844114185764 157.47498658291914 53.26584081698526 163.81379765453067 74.73415918301474 134.852869012136 75.72155885814236"/><polygon points="176.2085787129603 53.72692913972394 207.7914212870397 55.010200172994566 208.10556301600258 72.98979982700544 175.89443698399742 74.27307086027605"/><polygon points="212.96576872506893 55.69540291790253 256.3675646082644 52.04638217784048 247.74941456642452 75.95361782215953 221.5839187669088 72.30459708209747"/><polygon points="276.8908258364219 51.24183752241366 277.7758408302447 54.067621288041174 282.21356814946347 73.93237871195882 272.45309851720316 76.75816247758634"/><polygon points="320.54468364285634 51.006852148821764 319.45531635714354 54.53823462206647 332.1513572489922 73.46176537793353 307.8486427510077 76.99314785117824"/><polygon points="369.77945023101427 50.86764803246899 355.553883102319 52.51849722589748 360.0614513424634 75.48150277410252 365.2718819908699 77.13235196753101"/><polygon points="380.3263364110603 50.96181958243457 430.3403302556063 50.73936823989595 409.50298526059885 77.26063176010405 401.1636814060678 77.03818041756543"/><polygon points="435.69322873109155 52.93212705819797 460.30677126890834 53.73245961756019 451.4298762547007 74.26754038243982 444.5701237452992 75.06787294180202"/><polygon points="452.7253916854134 54.8729046638056 528.6079416479199 52.049293330016745 516.0031821238653 75.95070666998325 465.330151209468 73.1270953361944"/><polygon points="10.666666666666666 97.95335370284941 32 93.79635565965823 32 119.53697767367508 10.666666666666666 115.3799796304839"/><polygon points="53.175820838465384 94.13655773883336 74.82417916153462 91.26712282680357 73.71973258687137 122.06621050652974 54.28026741312863 119.19677559449995"/><polygon points="95.77569306656042 93.21909368889574 117.55764026677289 96.9925098759157 120.82100242585585 116.34082345741761 92.51233090747746 120.11423964443757"/><polygon points="135.7490220079359 93.99077801545329 162.91764465873078 94.43444707431236 167.91933989628416 118.89888625902095 130.74732677038253 119.34255531788003"/><polygon points="171.52359089686206 97.71377432850835 212.47640910313794 94.78896822167778 211.95503819099946 118.54436511165554 172.04496180900054 115.61955900482496"/><polygon points="226.00533510675731 98.50927518602354 243.327998226576 98.52301942569616 253.02065372848284 114.81031390763715 216.31267960485047 114.82405814730977"/><polygon points="266.4613861972333 96.11188920575479 288.2052804694333 100.41173039943368 285.1438124517102 112.92160293389963 269.52285421495645 117.22144412757852"/><polygon points="297.6331604096757 94.63327102406214 342.36683959032416 92.9135084278807 343.4532328135381 120.41982490545261 296.5467671864618 118.70006230927117"/><polygon points="339.0705525045294 93.4652090304489 386.26278082880384 93.03067144498242 374.1802518431813 120.3026618883509 351.153081490152 119.86812430288441"/><polygon points="374.57190770571174 96.92320852617328 436.0947589609549 99.29318928674809 429.72830560351105 114.04014404658523 380.9383610631556 116.41012480716003"/><polygon points="421.8828353705477 94.22854701498449 474.1171646294522 97.33575821346267 434.1543465800332 115.99757511987065 461.8456534199667 119.10478631834883"/><polygon points="504.70791764829033 95.73969675163099 476.6254156850429 94.67132146557196 488.71429723743114 118.66201186776135 492.6190360959021 117.59363658170233"/><polygon points="10.666666666666666 134.2705555646561 32 133.05513819652225 32 165.61152847014444 10.666666666666666 164.3961111020106"/><polygon points="52.452209855701824 135.0737791831401 75.54779014429818 140.29704980030584 74.2628075273448 158.36961686636084 53.737192472655195 163.5928874835266"/><polygon points="97.78645278845946 130.85365396392754 115.54688054487386 134.3376146968555 120.31410781378794 164.3290519698112 93.01922551954537 167.81301270273914"/><polygon points="145.0699219260977 136.8739396702861 153.596744740569 145.4958167849812 152.30625249274965 153.17084988168548 146.36041417391704 161.7927269963806"/><polygon points="191.67126697626114 138.29621649295026 192.32873302373886 142.43029473853215 196.08759489724727 156.23637192813453 187.91240510275273 160.37045017371642"/><polygon points="227.5381820201497 138.3393053736337 241.79515131318362 145.1207370654787 253.16900463961142 153.545929601188 216.1643286937219 160.327361293033"/><polygon points="270.5367392317854 134.7220126290939 284.1299274348812 135.5955202304448 278.90235485411176 163.07114643622188 275.76431181255487 163.94465403757277"/><polygon points="317.72261412272206 131.08739905963887 322.2773858772778 145.06061903009362 326.0191186909215 153.60604763657307 313.98088130907837 167.57926760702782"/><polygon points="353.7140297066518 144.79670312554998 371.61930362668147 136.98510435044372 371.76964884515377 161.68156231622297 353.5636844881795 153.8699635411167"/><polygon points="396.37477402036467 140.9734756816774 414.29189264630196 130.86035888396964 432.75205014663334 167.80630778269705 377.9146165200333 157.6931909849893"/><polygon points="442.82257938149695 138.7791908821726 453.17742061850294 141.40242546672718 476.8586870717875 157.2642411999395 419.1413129282124 159.8874757844941"/><polygon points="477.99209880739284 132.1961938875937 503.3412345259404 143.32427985156548 508.3433935743116 155.3423868151012 472.98993975902164 166.470472779073"/><polygon points="10.666666666666666 181.18794218078497 32 191.83658780462903 32 192.16341219537097 10.666666666666666 202.81205781921503"/><polygon points="51.3486690004722 171.99941207266002 76.6513309995278 184.94327793732498 75.36256952619772 199.05672206267502 52.63743047380228 212.00058792733998"/><polygon points="97.41882622126037 178.47559695357015 115.91450711207294 185.30091640381366 113.70078130271412 198.69908359618634 99.6325520306192 205.52440304642985"/><polygon points="132.16898290861377 180.2452615637735 166.49768375805291 171.56763886335492 154.57357457156158 212.43236113664508 144.0930920951051 203.7547384362265"/><polygon points="189.88815620252208 182.65648495683095 194.11184379747792 188.23681167298918 202.77101620071 195.76318832701082 181.22898379929 201.34351504316905"/><polygon points="229.22205708285892 183.8833541714654 240.1112762504744 171.94177913922692 253.50108619055047 212.05822086077308 215.83224714278285 200.1166458285346"/><polygon points="261.9872934663498 184.4829634039201 292.67937320031683 180.76163391012852 288.0833415976877 203.23836608987148 266.5833250689789 199.5170365960799"/><polygon points="305.520742241911 177.2473686740701 334.47925775808886 178.2185112722251 341.6722273094182 205.7814887277749 298.3277726905817 206.7526313259299"/><polygon points="334.95598077118956 171.69499794099096 390.3773525621437 177.1645012794186 361.1108608892466 206.8354987205814 364.22247244408663 212.30500205900904"/><polygon points="414.6695682954589 185.26039386076027 395.99709837120776 176.4610988664527 411.2697628316926 207.5389011335473 399.396903834974 198.73960613923973"/><polygon points="432.11333801014155 185.61125072014318 463.88666198985834 186.15829884271562 449.92868623304133 197.84170115728438 446.07131376695855 198.38874927985682"/><polygon points="461.36196371445317 171.37748114058462 519.9713696188801 174.70388501071096 478.9077945758236 209.29611498928904 502.4255387575097 212.62251885941538"/><polygon points="10.666666666666666 230.65387495058962 32 236.59027330349753 32 232.7430600298358 10.666666666666666 238.6794583827437"/><polygon points="54.806849161239505 235.18513371833583 73.19315083876049 227.7503755783817 75.10540372340134 241.58295775495162 52.89459627659866 234.14819961499748"/><polygon points="95.43640484678346 224.94923455758448 117.89692848654985 220.95109545321412 120.5977922451003 248.3822378801192 92.73554108823302 244.38409877574884"/><polygon points="133.43543783313996 221.72434916117368 165.23122883352673 211.70444113235493 152.17116597919144 257.6288922009784 146.49550068747524 247.60898417215964"/><polygon points="174.68825472358301 227.7269134627122 209.31174527641699 225.090457618927 204.6860607042447 244.24287571440632 179.3139392957553 241.60641987062112"/><polygon points="232.54073599360538 214.7657607002386 236.79259733972793 233.15373711523563 251.3470360726446 236.17959621809769 217.9862972606887 254.56757263309473"/><polygon points="268.4892951526639 228.7183893651652 286.17737151400274 222.35754294291547 289.7235018922359 246.97579039041784 264.9431647744307 240.61494396816812"/><polygon points="295.13415704368583 222.51511676057652 344.86584295631405 223.69964516314133 329.92173678132025 245.633688170192 310.07826321867964 246.8182165727568"/><polygon points="369.1157334390866 220.4200171586476 356.21759989424663 227.3293525897751 393.58822255518027 242.0039807435582 331.745110778153 248.91331617468572"/><polygon points="401.71075828152243 212.21771369026933 408.9559083851442 220.90500678946023 428.475023731117 248.42832654387308 382.1916429355496 257.115619643064"/><polygon points="412.4387165245427 231.1624205266638 483.5612834754572 231.79240987746587 472.06586104822253 237.54092345586744 423.93413895177736 238.17091280666952"/><polygon points="508.3970429897559 226.82139353694063 472.93629034357735 222.83160299412955 473.1956026544451 246.50173033920376 508.13773067888815 242.51193979639268"/><polygon points="10.666666666666666 267.9128077889896 32 257.0401718246572 32 297.62649484200944 10.666666666666666 286.75385887767703"/><polygon points="52.57490535757556 273.5233632685165 75.42509464242444 277.92535905560413 73.23798614289039 276.7413076110625 54.76201385710961 281.1433033981501"/><polygon points="91.38600929457411 273.4778829790877 121.9473240387592 279.06049430043385 113.65514310464113 275.6061723662328 99.67819022869219 281.1887836875789"/><polygon points="136.10803176290574 276.21971563903566 162.55863490376095 257.5352141401088 160.44631597606732 297.13145252655784 138.22035069059936 278.446951027631"/><polygon points="181.89572088508345 256.26656447608826 202.10427911491655 280.0450563640024 206.5447311895768 274.62161030266424 177.4552688104232 298.40010219057837"/><polygon points="215.9132027052234 257.47537842101474 253.42013062810992 282.5217251232731 239.3948264475307 272.14494154339354 229.9385068858026 297.1912882456519"/><polygon points="273.0775666129562 250.90498338833365 281.5891000537104 254.60630752329592 303.16572125450045 300.0603591433707 251.50094541216617 303.76168327833295"/><polygon points="306.19215975092027 261.94343129464477 333.8078402490796 254.92145438764675 333.7683871667029 299.7452122790199 306.231612833297 292.72323537202186"/><polygon points="346.270426853069 255.57281499100054 379.06290648026425 275.52710078382404 383.0026690292914 279.1395658828426 342.3306643040419 299.0938516756661"/><polygon points="383.9126179705894 282.35308134399946 426.75404869607723 256.3810657886722 409.75407159495853 298.28560087799445 400.9125950717081 272.31358532266717"/><polygon points="422.1409373859074 259.4692689102301 473.85906261409247 255.243632964736 478.22212520855396 299.4230337019306 417.7778747914459 295.19739775643654"/><polygon points="499.4431203466745 272.26158915755155 481.89021298665875 267.53705629392636 515.7314996975983 287.1296103727403 465.601833635735 282.4050775091151"/><polygon points="10.666666666666666 325.2132144926543 32 322.5249985905887 32 317.47500140941116 10.666666666666666 314.7867855073456"/><polygon points="51.289720947892064 310.5247950106925 76.71027905210794 295.1625110807035 74.48537628491943 344.8374889192964 53.514623715080575 329.4752049893074"/><polygon points="94.92568198996445 325.58754866598014 118.40765134336887 303.33345256442686 121.47955629602791 336.666547435573 91.8537770373054 314.41245133401975"/><polygon points="134.21667247824797 297.4208099095675 164.4499941884187 304.41883042147697 167.47031188834342 335.5811695785229 131.19635477832327 342.5791900904324"/><polygon points="181.0651376544404 326.1577184920203 202.9348623455596 299.22016206713124 199.61061307561152 340.77983793286865 184.38938692438848 313.8422815079796"/><polygon points="233.79014798956186 315.1060967585667 235.54318534377146 321.60649309156946 243.3196630125399 318.3935069084304 226.0136703207934 324.8939032414332"/><polygon points="251.66762534019014 297.6559853016322 302.9990413264765 315.3518632062412 297.5727955620858 324.6481367937587 257.09387110458084 342.3440146983677"/><polygon points="293.00669147318723 311.76519657468054 346.99330852681265 317.1011048216568 333.6002232658481 322.8988951783431 306.39977673415177 328.23480342531934"/><polygon points="359.1496147367667 302.22380396774406 366.18371859656656 313.95506885405763 356.7795815759192 326.04493114594226 368.55375175741403 337.7761960322558"/><polygon points="378.7830931866739 323.37818674491706 431.8835734799927 301.2646591326085 401.0342234484052 338.7353408673914 409.6324432182614 316.6218132550828"/><polygon points="457.62346266954296 322.79689230329 438.3765373304569 294.3402037044296 477.24962247833855 345.6597962955703 418.75037752166133 317.2031076967099"/><polygon points="481.6191590284179 310.9160356989411 499.71417430491533 316.3254801661613 513.6792099697606 323.6745198338386 467.65412336357264 329.0839643010588"/><polygon points="10.666666666666666 344.2849386500219 32 332.28224739865715 32 393.0510859346761 10.666666666666666 381.04839468331136"/><polygon points="54.44272294705043 331.70800135149045 73.55727705294957 365.5979086853894 74.8577373681756 359.73542464794383 53.142262631824394 393.6253319818428"/><polygon points="100.70745130241718 365.91300936714794 112.62588203091613 357.5881587454129 114.49801266416873 367.74517458792036 98.83532066916459 359.4203239661853"/><polygon points="131.63150358368648 351.5067689396004 167.0351630829802 371.85424501175 153.1820018332472 353.4790883215833 145.4846648334195 373.82656439373284"/><polygon points="175.9831445016387 337.06684840803763 208.0168554983613 365.39893562598013 211.20766194504154 359.9343977073531 172.79233805495846 388.26648492529563"/><polygon points="231.13289595672168 369.1087847297749 238.20043737661163 331.3564635186529 246.28521687773994 393.97686981468036 223.04811645559337 356.22454860355833"/><polygon points="266.1648510050717 345.64545261864583 288.50181566159495 345.41935610152586 279.63510559822345 379.9139772318074 275.0315610684432 379.6878807146874"/><polygon points="314.8042340265656 364.85422357230436 325.1957659734343 360.322978260502 335.21548892312563 365.01035507283126 304.78451107687425 360.4791097610289"/><polygon points="368.6353973337557 372.8171980946784 356.69793599957757 347.37379118529964 360.2473001147236 377.9595421480336 365.08603321860966 352.51613523865484"/><polygon points="391.1545423069348 360.93989429570826 419.51212435973184 348.0242611241903 430.2776036134496 377.309072209143 380.389063053217 364.393439037625"/><polygon points="411.5004792213164 362.7693464899069 484.49952077868346 350.3283873788215 478.5486660586382 375.00494595451175 417.45133394136167 362.56398684342633"/><polygon points="467.7290657913779 350.4864160498529 513.6042675419553 343.6958847017456 514.3703172637242 381.63744863158763 466.963016069609 374.84691728348037"/><polygon points="10.666666666666666 386.9128875394805 32 384.1951229776326 32 426.47154368903404 10.666666666666666 423.75377912718614"/><polygon points="53.950806823357254 385.7500627577574 74.04919317664275 412.2251806442303 76.24206290219689 398.4414860224363 51.757937097803115 424.9166039089092"/><polygon points="90.7991700714692 379.5467151020339 122.53416326186411 378.9960055520939 119.98610696107487 431.67066111457274 93.34722637225845 431.11995156463274"/><polygon points="138.02212607057646 392.4167420761674 160.64454059609022 398.8333462925408 153.44584291095825 411.83332037412583 145.22082375570844 418.24992459049923"/><polygon points="171.95951701602314 404.2194573223385 212.04048298397686 390.9504408661163 199.43544996067823 419.7162258005503 184.56455003932177 406.44720934432814"/><polygon points="220.87885494132934 387.7461973793611 248.45447839200398 394.01148935386794 250.26794175127634 416.6551773127987 219.06539158205698 422.92046928730554"/><polygon points="269.19056085845796 392.7806666873105 285.4761058082087 414.6103785599902 276.7828589605158 396.05628810667645 277.88380770615083 417.88599997935614"/><polygon points="293.9780292643642 377.63374878910065 346.0219707356357 374.64168177524226 347.3551249843473 436.02498489142437 292.6448750156526 433.032917877566"/><polygon points="370.7540583639704 398.186625925101 354.57927496936287 391.63840908810965 379.2857602826205 419.028257578557 346.04757305071274 412.48004074156563"/><polygon points="412.19736696882893 415.60857853740316 398.4692996978377 415.8638918302738 414.7273156935516 394.8027748363928 395.93935097311504 395.05808812926347"/><polygon points="432.47883938405 407.63277896586385 463.5211606159499 404.7151738175148 453.7865102744727 405.9514928491518 442.2134897255272 403.0338877008028"/><polygon points="456.5975656761165 415.6832969968084 524.7357676572168 414.9021994324365 490.0763646314698 395.76446723423015 491.25696870186346 394.98336966985823"/><polygon points="10.666666666666666 423.4000784882504 32 463.8741481455288 32 432.1258518544711 10.666666666666666 472.59992151174947"/><polygon points="55.550041120445854 426.3103546620168 72.44995887955415 434.6736897025109 77.28231834617696 461.326310297489 50.71768165382304 469.6896453379831"/><polygon points="97.03550454762811 440.9300236958583 116.2978287857052 458.81944413964425 117.88883783817185 437.18055586035564 95.44449549516146 455.06997630414156"/><polygon points="138.1062855112129 456.1705327991978 160.5603811554538 444.6409463094689 162.35873610429553 451.35905369053097 136.30793056237115 439.82946720080207"/><polygon points="181.6571209699162 431.6747211852331 202.3428790300838 445.9375357848388 196.43114171519034 450.06246421516107 187.56885828480966 464.32527881476676"/><polygon points="234.90862446961344 435.723596098214 234.42470886371987 419.32993829535155 242.07033010713766 476.67006170464833 227.26300322619565 460.2764039017859"/><polygon points="258.5568512158758 457.06978722940596 296.10981545079085 461.25649161142235 280.37934640524696 434.74350838857754 274.28732026141967 438.9302127705939"/><polygon points="304.6237064876674 422.32562512626026 335.3762935123325 457.95184309811054 312.9374599538719 438.04815690188934 327.062540046128 473.6743748737396"/><polygon points="358.98087919821216 462.78149472760987 366.3524541351211 426.0461945213986 388.98106666707247 469.9538054786013 336.3522666662608 433.21850527239"/><polygon points="379.9959266447158 452.3592267843038 430.67074002195085 460.809251514479 412.81608537259444 435.1907484855209 397.8505812940722 443.6407732156961"/><polygon points="422.3211094052622 456.13652365209794 473.6788905947377 441.34013530984697 472.8046479628986 454.6598646901529 423.19535203710126 439.86347634790195"/><polygon points="464.99904267314463 451.7386309847209 516.3342906601886 433.13354558341365 519.6706961799715 462.86645441658624 461.6626371533618 444.261369015279"/><polygon points="10.666666666666666 502.9875622681361 32 453.6586357487635 32 527.6746975845697 10.666666666666666 478.34577106519714"/><polygon points="54.90273966723882 491.9947045013212 73.09726033276118 487.5212187208706 75.3944459704725 493.81211461246266 52.6055540295275 489.33862883201203"/><polygon points="97.71204672672809 504.1826004256759 115.62128660660522 463.8550641327092 121.66678194485183 517.4782692006241 91.66655138848148 477.15073290765736"/><polygon points="132.55931763028 486.865787506396 166.1073490363867 464.90147658961115 160.94695863578897 516.431856743722 137.7197080308777 494.4675458269373"/><polygon points="190.84893223562273 470.3113203668658 193.15106776437727 479.8681999592245 211.70311303904649 501.46513337410875 172.29688696095351 511.02201296646746"/><polygon points="235.7510687833219 492.8172215902524 233.58226455001142 505.3599442828273 254.86386366154863 475.97338905050594 214.46946967178468 488.51611174308084"/><polygon points="280.5702431163022 480.09600485785495 274.0964235503644 480.50754169677367 297.7067704642526 500.8257916365596 256.95989620241403 501.2373284754783"/><polygon points="303.9896859687277 458.6065558235349 336.0103140312722 493.6275584831473 312.9208154622892 487.70577485018595 327.07918453771066 522.7267775097984"/><polygon points="335.1086850264479 455.8925220922087 390.22464830688534 487.9940234726221 386.4437854043645 493.3393098607112 338.88954792896874 525.4408112411245"/><polygon points="394.7127009627194 486.6872757261547 415.95396570394723 505.64702079006634 412.40642038963205 475.6863125432669 398.2602462770346 494.64605760717853"/><polygon points="449.81069169298684 455.6195092631077 446.18930830701305 462.57349246181616 467.10059720835494 518.7598408715171 428.89940279164495 525.7138240702255"/><polygon points="467.7760423108034 487.2245120491813 513.5572910225299 451.48183584728247 501.0330323373232 529.8514974860508 480.30030099601004 494.10882128415193"/>
</svg>
