<?xml version="1.0" encoding="UTF-8"?>
<svg xmlns="http://www.w3.org/2000/svg" id="RSSicon" viewBox="0 0 512 512" width="512" height="512">
  <defs>
    <style type="text/css">
      svg {
        background: black;
        margin: calc(50vh - 256px) auto 0;
      }
      
      polygon {stroke: darkorange; fill: none;}
    </style>
  </defs>
  <polygon points="10.666666666666666 10.666666666666666 32 10.666666666666666 32 32 10.666666666666666 32"/><polygon points="52.90337410615084 10.666666666666666 75.09662589384916 10.666666666666666 72.26273203680935 32 55.73726796319065 32"/><polygon points="92.55673846518032 10.666666666666666 120.776594868153 10.666666666666666 121.38549114081964 32 91.94784219251368 32"/><polygon points="132.20203637342846 10.666666666666666 166.46463029323823 10.666666666666666 157.768178191324 32 140.89848847534267 32"/><polygon points="188.39452547846108 10.666666666666666 195.60547452153892 10.666666666666666 196.6247751329391 32 187.3752248670609 32"/><polygon points="216.56161147124004 10.666666666666666 252.77172186209327 10.666666666666666 258.47458578050356 32 210.85874755282975 32"/><polygon points="277.7654954648651 10.666666666666666 276.9011712018015 10.666666666666666 299.6390479451871 32 255.02761872147954 32"/><polygon points="316.4474947580426 10.666666666666666 323.5525052419573 10.666666666666666 331.86034931996863 32 308.13965068003125 32"/><polygon points="338.0343366898738 10.666666666666666 387.2989966434595 10.666666666666666 353.2216054394 32 372.1117278939333 32"/><polygon points="410.6078356580573 10.666666666666666 400.05883100860933 10.666666666666666 400.46594416348154 32 410.2007225031851 32"/><polygon points="461.54408350987717 10.666666666666666 434.4559164901227 10.666666666666666 472.01851600457536 32 423.9814839954245 32"/><polygon points="507.5117048294099 10.666666666666666 473.82162850392336 10.666666666666666 527.8550924399988 32 453.47824089333454 32"/><polygon points="10.666666666666666 55.365717974952304 32 54.57902846108625 32 73.42097153891375 10.666666666666666 72.6342820250477"/><polygon points="54.53677772782571 54.772914745082296 73.46322227217429 55.88706380276411 74.51907603986098 72.11293619723588 53.48092396013903 73.22708525491771"/><polygon points="92.94039699963656 53.29999650118213 120.39293633369675 51.24679738022777 119.29370741263445 76.75320261977224 94.03962592069887 74.70000349881788"/><polygon points="132.9225154263358 55.83367524493458 165.7441512403309 51.99577926062089 158.12072132521465 76.00422073937911 140.54594534145204 72.16632475506542"/><polygon points="179.82039590698778 50.80066511154142 204.17960409301222 51.381845068490804 203.2793221168281 76.6181549315092 180.7206778831719 77.19933488845858"/><polygon points="228.4344041791495 54.31088647783362 240.8989291541838 52.720796349479855 247.2769488944831 75.27920365052015 222.05638443885022 73.68911352216638"/><polygon points="275.35866720892733 53.50679981525957 279.3079994577393 54.07753002203498 303.27287948063264 73.92246997796502 251.393787186034 74.49320018474043"/><polygon points="300.8080954432858 54.998179857579586 339.19190455671406 54.326787174323286 324.761942588224 73.67321282567671 315.2380574117759 73.00182014242041"/><polygon points="355.7822701412027 52.944619070209555 369.5510631921306 51.283928224634735 392.77434824437665 76.71607177536526 332.5589850889566 75.05538092979045"/><polygon points="388.20195811862703 53.14849231397846 422.4647085480396 55.73303977572237 422.79809698968205 72.26696022427763 387.8685696769846 74.85150768602155"/><polygon points="441.27696881905075 55.23750669420089 454.72303118094914 51.62314722350994 478.00700113600124 76.37685277649007 417.99299886399865 72.76249330579911"/><polygon points="467.87238693307097 54.75959245993049 513.4609464002623 55.9775591817729 494.1010782066429 72.0224408182271 487.23225512669035 73.24040754006951"/><polygon points="10.666666666666666 95.8096344826477 32 100.15835403068706 32 113.17497930264625 10.666666666666666 117.52369885068562"/><polygon points="51.23044382829762 92.36782431635046 76.76955617170239 96.60698830147739 73.99249548837092 116.72634503185593 54.00750451162908 120.96550901698285"/><polygon points="94.14928371382155 91.62987491538856 119.18404961951177 95.35518421289832 118.81137835952242 117.97814912043499 94.52195497381089 121.70345841794476"/><polygon points="133.05902170846753 90.75598441013376 165.60764495819916 91.7406573339425 156.3115451382426 121.59267599939082 142.3551215284241 122.57734892319955"/><polygon points="187.65119784159893 94.00554594499602 196.34880215840107 98.98067550577709 212.10257318403438 114.35265782755623 171.89742681596562 119.3277873883373"/><polygon points="222.90232955705144 99.5861884997924 246.43100377628187 96.24806508157259 258.39876164545035 117.08526825176072 210.934571687883 113.74714483354091"/><polygon points="281.493118712989 98.39134316668047 273.17354795367766 91.1204676149385 290.97856401985445 122.21286571839481 263.6881026468122 114.94199016665284"/><polygon points="299.78428238143715 95.38226988565816 340.21571761856273 98.2077049558216 345.94891076215475 115.12562837751172 294.05108923784513 117.95106344767515"/><polygon points="345.0029091398152 98.96843611088534 380.33042419351807 91.2283511813526 377.44120807694435 122.10498215198072 347.8921252563889 114.36489722244798"/><polygon points="378.5526029309429 98.6604927017289 432.11406373572373 92.44736593672556 417.86612001404865 120.88596739660775 392.800546652618 114.67284063160442"/><polygon points="437.424459220777 96.05955908569491 458.5755407792229 99.8679431758498 481.142468245732 113.46539015748351 414.8575317542679 117.2737742476384"/><polygon points="498.44146223772606 95.16634420217058 482.8918710956072 94.87129998162784 523.1056800330847 118.46203335170547 458.22765330024856 118.16698913116274"/><polygon points="10.666666666666666 131.82542343253988 32 140.5747617479989 32 158.09190491866778 10.666666666666666 166.8412432341268"/><polygon points="52.697523855749495 131.11145459273692 75.3024761442505 144.35973291799215 74.38408030081892 154.30693374867454 53.615919699181084 167.55521207392977"/><polygon points="90.8492105151333 131.15946994660766 122.48412281820002 146.6611313994777 121.79031869498908 152.00553526718898 91.54301463834423 167.50719672005903"/><polygon points="139.11654427022424 131.22925525300786 159.55012239644245 137.84624124728086 156.50562243273257 160.82042541938583 142.16104423393412 167.43741141365882"/><polygon points="172.57790839517943 142.68521304290138 211.42209160482057 136.61122467010412 193.12743595381016 162.05544199656256 190.87256404618984 155.9814536237653"/><polygon points="224.12468075177523 141.6769976865638 245.20865258155808 141.21092051120596 235.86433308327435 157.45574615546073 233.46900025005897 156.9896689801029"/><polygon points="253.6400835555183 136.94572294040415 301.02658311114834 143.70209806481012 273.35726346663984 154.96456860185657 281.3094032000268 161.72094372626253"/><polygon points="326.2750954508663 145.47323630516988 313.7249045491336 137.53758245754634 341.7934715343473 161.12908420912035 298.2065284656526 153.1934303614968"/><polygon points="358.40614811975615 131.50718137830316 366.9271852135771 131.73798407387014 362.65992015418755 166.92868259279655 362.6734131791457 167.15948528836353"/><polygon points="372.48061155425836 130.94191254876748 438.18605511240827 134.79269669321135 427.68220730549393 163.87396997345533 382.9844593611727 167.7247541178992"/><polygon points="449.56883953658445 146.53192778478783 446.43116046341544 143.14748647165123 484.5472780575798 155.51918019501545 411.4527219424201 152.13473888187886"/><polygon points="467.10856034795614 139.04686042249418 514.2247729853771 135.5544541585503 494.8641490806798 163.1122125081164 486.46918425265346 159.6198062441725"/><polygon points="10.666666666666666 173.4499361569935 32 173.69654229034586 32 210.30345770965414 10.666666666666666 210.5500638430065"/><polygon points="55.5166602807335 172.10553961818346 72.4833397192665 183.8061177960051 72.52805193467309 200.1938822039949 55.47194806532691 211.89446038181654"/><polygon points="98.79343632860476 183.3464756663421 114.53989700472856 181.15251400502757 121.68453305617064 202.84748599497243 91.64880027716268 200.6535243336579"/><polygon points="142.22756987872222 177.2664656055094 156.43909678794446 187.40645740597313 167.37666322143326 196.59354259402687 131.29000344523342 206.7335343944906"/><polygon points="191.02593792812968 179.6522912133474 192.97406207187032 172.98740189327663 207.24763784202656 211.01259810672337 176.75236215797344 204.3477087866526"/><polygon points="228.7508048920871 178.39140553217072 240.5825284412462 177.48173531791394 258.0859395473018 206.51826468208606 211.24739378603155 205.60859446782928"/><polygon points="258.46445496192877 173.19824586091028 296.20221170473786 173.40054003322822 287.8420386126205 210.59945996677178 266.8246280540461 210.80175413908972"/><polygon points="293.9938755123416 181.54319179657315 346.00612448765827 187.6497513027272 318.5630951358164 196.3502486972728 321.4369048641835 202.45680820342685"/><polygon points="372.28449949669107 181.18032658414864 353.0488338366422 190.23967505169026 372.60039258061295 193.76032494830974 352.7329407527203 202.81967341585136"/><polygon points="412.9967403647793 172.62542498746834 397.6699263018873 191.5746995837366 392.1557939333576 192.4253004162634 418.51087273330904 211.37457501253166"/><polygon points="462.31356650000356 174.68957834708928 433.6864334999963 186.54758941478002 464.1770882065662 197.45241058521998 431.82291179343366 209.31042165291072"/><polygon points="477.90918761975485 182.1551494765475 503.4241457135784 185.1002078167538 503.637843472727 198.8997921832462 477.69548986060624 201.8448505234525"/><polygon points="10.666666666666666 225.16958004274997 32 235.26834196648178 32 234.06499136685153 10.666666666666666 244.16375329058334"/><polygon points="52.72165746401376 231.3917143603251 75.27834253598624 231.6730892826451 76.63579017624937 237.66024405068822 51.364209823750635 237.94161897300822"/><polygon points="99.20807284202309 236.14321118799515 114.12526049131023 234.9595746452116 121.64340944550972 234.3737586881217 91.6899238878236 233.19012214533817"/><polygon points="135.40145885801024 213.54461009976237 163.26520780865644 231.25295509556435 156.34197060094428 238.08037823776897 142.3246960657224 255.78872323357095"/><polygon points="178.00838255131063 236.24753827064558 205.99161744868937 220.896069383468 206.87563863442912 248.43726394986533 177.12436136557088 233.08579506268774"/><polygon points="227.80333120385498 230.15681168518051 241.53000212947833 236.19201162640442 246.77043015660058 233.1413217069289 222.56290317673273 239.1765216481528"/><polygon points="274.5767703523843 226.97144202875842 280.0898963142823 225.714307967992 283.4184702723539 243.61902536534132 271.24819639431274 242.3618913045749"/><polygon points="312.68757850625195 219.28020965272864 327.31242149374793 234.26871178204306 317.4271953198221 235.06462155129026 322.5728046801778 250.05312368060467"/><polygon points="356.1037375284248 229.14309499823318 369.22959580490846 213.75150742586172 380.99923460171794 255.5818259074716 344.3340987316153 240.19023833510013"/><polygon points="399.929986596124 228.03038709415773 410.7366800705426 225.32866580629704 430.0554043129154 244.00466752703628 380.6112623537512 241.30294623917558"/><polygon points="419.1011503166667 218.56841130304963 476.8988496833332 221.5831991795304 481.58359116450384 247.75013415380292 414.41640883549604 250.76492203028369"/><polygon points="480.4731246891684 218.92407368621866 500.86020864416486 215.02714698480452 477.8729331655609 254.3061863485288 503.4604001677724 250.40925964711465"/><polygon points="10.666666666666666 265.06019796879525 32 251.6419564248784 32 303.0247102417882 10.666666666666666 289.6064686978714"/><polygon points="53.6812182867587 263.90185036189774 74.3187817132413 259.04008088682843 75.1874430221151 295.6265857798382 52.812556977884896 290.7648163047689"/><polygon points="92.76880911768613 259.5505938869781 120.56452421564718 270.3324357713828 114.91462350176036 284.33423089528384 98.41870983157295 295.1160727796885"/><polygon points="145.36512209313753 266.8392205504725 153.30154457352916 262.1687710629076 160.3277739245394 292.49789560375905 138.33889274212729 287.82744611619415"/><polygon points="176.7389995068893 251.3613576292679 207.2610004931107 282.40220010258184 206.2299115615463 272.2644665640848 177.7700884384537 303.30530903739873"/><polygon points="231.75963269958382 278.2967170067523 237.5737006337495 269.9778583217676 251.8948118281358 284.68880834489903 217.4385215051975 276.3699496599143"/><polygon points="251.60872089313338 275.8823013152279 303.0579457735333 271.9661282310253 278.8144281759779 282.7005384356413 275.8522384906887 278.78436535143874"/><polygon points="290.9762838065374 256.31864237740604 349.02371619346246 271.9197017394308 343.57747381377783 282.7469649272358 296.42252618622206 298.3480242892606"/><polygon points="365.8487516723784 278.5341542146568 359.48458166095486 272.53307047114276 352.15916977475746 282.13359619552386 373.1741635585758 276.13251245200985"/><polygon points="392.9735599359874 258.93838222166664 417.69310673067923 258.69746965980727 400.25913866262306 295.96919700685936 410.40752800404357 295.728284445"/><polygon points="423.9009620222284 266.4396731295355 472.0990379777715 257.005343597355 462.7174989294776 297.6613230693116 433.2825010705223 288.22699353713114"/><polygon points="499.3951422090517 278.46245531672065 481.93819112428156 255.20952043401962 522.94722883784 299.457146232647 458.38610449549327 276.204211349946"/><polygon points="10.666666666666666 316.35797278869643 32 325.09782763514727 32 314.9021723648526 10.666666666666666 323.64202721130346"/><polygon points="54.97846012646123 319.56190252707574 73.02153987353877 310.2858908983359 74.46638647395245 329.714109101664 53.533613526047546 320.43809747292414"/><polygon points="101.24389387572734 323.08269406289327 112.08943945760598 316.3971189100243 121.13960771161392 323.6028810899756 92.1937256217194 316.9173059371066"/><polygon points="132.50677847158676 295.6862099474175 166.15988819507993 319.69605439582466 155.65195278416147 320.3039456041752 143.01471388250522 344.31379005258236"/><polygon points="170.67535402890354 321.75183772884344 213.32464597109646 298.8267225567817 203.54249413558318 341.1732774432182 180.45750586441682 318.24816227115645"/><polygon points="222.01740704097733 296.04765987220895 247.31592629235598 305.21331584783036 258.1312602312163 334.7866841521695 211.202073102117 343.95234012779093"/><polygon points="270.62964492774313 314.1071914261287 284.0370217389235 319.0828585519601 294.06500839519043 320.9171414480398 260.6016582714762 325.8928085738712"/><polygon points="307.30624198435436 319.38462014318924 332.6937580156455 291.9681803030545 324.8808330063183 348.0318196969454 315.1191669936816 320.61537985681065"/><polygon points="352.19155467350265 307.57329294830697 373.1417786598306 294.24875897462243 359.44450311633324 345.75124102537745 365.888830217 332.4267070516929"/><polygon points="374.5405882865499 313.0795231430404 436.1260783801167 292.07936915153215 419.802048296519 347.92063084846774 390.86461837014764 326.9204768569595"/><polygon points="451.7290322148793 323.9922676716667 444.2709677851206 301.00032791098613 482.2025023050782 338.99967208901376 413.7974976949217 316.0077323283332"/><polygon points="455.57252692109097 309.14978741423454 525.7608064122422 295.0614311988595 494.570301319775 344.9385688011404 486.76303201355825 330.85021258576535"/><polygon points="10.666666666666666 365.7977191028102 32 352.46554220433694 32 372.8677911289963 10.666666666666666 359.53561423052304"/><polygon points="51.55149883755714 352.89036142609245 76.44850116244287 352.64732522512116 75.50171536015154 372.6860081082121 52.498284639848464 372.4429719072408"/><polygon points="94.23363559234699 339.2136886356885 119.09969774098633 344.147459379958 113.90868160682649 381.1858739533753 99.42465172650682 386.11964469764473"/><polygon points="130.89857452165344 362.9009581047129 167.76809214501324 359.4357081302939 154.38957957114104 365.89762520303935 144.27708709552564 362.43237522862034"/><polygon points="173.2554179260007 333.53404559144866 210.7445820739993 343.39973268928986 192.6395874970368 381.9336006440434 191.3604125029632 391.7992877418846"/><polygon points="211.05443292305404 369.26504850963784 258.2789004102793 339.6048511296936 251.9932077993118 385.72848220363966 217.34012553402152 356.0682848236954"/><polygon points="281.09553601653903 344.6857176387755 273.5711306501276 360.3222463259077 277.83255210299524 365.01108700742554 276.8341145636714 380.64761569455777"/><polygon points="327.6110307809785 346.4350843857698 312.38896921902136 359.3183370268285 333.2400286221632 366.01499630650477 306.7599713778367 378.89824894756345"/><polygon points="348.26414323159923 360.8686852314966 377.069190101734 370.18478054155753 392.4993346207295 355.1485527917757 332.8339987126038 364.46464810183664"/><polygon points="400.5121399386627 347.95995628745044 410.15452672800393 371.727869858546 411.4775845793532 353.60546347478726 399.1890820873134 377.3733770458828"/><polygon points="412.6493645054456 354.1884839332712 483.3506354945543 358.64100315323077 461.1844179403924 366.6923301801025 434.8155820596075 371.14484940006207"/><polygon points="507.37347254100024 330.93202370882557 473.959860792333 372.65673320408297 473.3585296903568 352.6766001292503 507.97480364297644 394.4013096245077"/><polygon points="10.666666666666666 409.7745270360165 32 384.0815731391948 32 426.5850935274718 10.666666666666666 400.89213963065015"/><polygon points="51.261837701042374 404.4194643693455 76.73816229895763 404.1097280370126 74.32379835619115 406.55693862965404 53.67620164380885 406.2472022973211"/><polygon points="92.55411791501366 391.38268120291394 120.77921541831965 381.0957657198695 114.89617494196621 429.5709009467971 98.4371583913671 419.2839854637527"/><polygon points="137.4656509645146 380.6265938296198 161.2010157021521 393.3965292105868 165.49838172037005 417.27013745607985 133.16828494629664 430.0400728370468"/><polygon points="181.15888258656815 394.259877684683 202.84111741343185 407.4456238515759 211.04462405750553 403.22104281509075 172.95537594249447 416.40678898198365"/><polygon points="229.9533259082385 411.64194354375695 239.38000742509482 377.07624324056565 251.05054039383228 433.590423426101 218.28279293950104 399.0247231229097"/><polygon points="272.76605806712627 391.20008530861764 281.90060859954036 384.15016059900927 289.82661562913523 426.51650606765736 264.8400510375314 419.466581358049"/><polygon points="303.7533188126962 378.66715803977695 336.2466811873037 416.66934521157987 345.64221896621945 393.99732145508676 294.35778103378044 431.9995086268897"/><polygon points="335.4731849184586 375.3646433862586 389.86014841487463 377.22049072114453 352.12593597375013 433.4461759455221 373.2073973595831 435.30202328040804"/><polygon points="414.9618490579225 413.4998089484493 395.7048176087441 375.9755836215216 415.2844035413685 434.69108304514504 395.38226312529815 397.16685771821733"/><polygon points="421.70388075419726 415.6778294986271 474.29611924580263 403.3735221337897 479.91994181634993 407.2931445328769 416.08005818364995 394.98883716803954"/><polygon points="462.70480196141114 407.05675196866747 518.6285313719221 414.3314946675529 476.3295134333766 396.33517199911375 505.0038198999567 403.60991469799916"/><polygon points="10.666666666666666 448.8878124800733 32 424.96928877988637 32 471.0307112201135 10.666666666666666 447.1121875199266"/><polygon points="54.86248814881063 446.2903197816838 73.13751185118937 434.81666328183366 72.70796983040661 461.18333671816623 55.29203016959339 449.70968021831607"/><polygon points="94.42312872301335 456.27262465018714 118.91020461031997 453.4015351094663 116.85782108877125 442.5984648905336 96.47551224456207 439.72737534981275"/><polygon points="130.69294854602504 441.54562600082085 167.97371812064165 450.4201771511034 157.51430854508087 445.57982284889647 141.15235812158582 454.45437399917904"/><polygon points="191.78833997628715 448.1516172957179 192.21166002371285 413.3028378323166 205.32364354012358 482.6971621676833 178.67635645987642 447.84838270428196"/><polygon points="228.3170953516316 426.1591055280362 241.01623798170172 417.7855132264479 236.25446763610967 478.214486773552 233.07886569722365 469.8408944719637"/><polygon points="280.1146956869116 450.80276257543005 274.551970979755 426.6398207612301 297.9822894128364 469.3601792387698 256.68437725383023 445.19723742456983"/><polygon points="301.1691331461687 418.8502994553403 338.8308668538312 422.77241222197506 340.2805835564917 473.2275877780248 299.7194164435082 477.1497005446596"/><polygon points="351.80069213648676 461.7807089079683 373.5326411968465 414.8480945468302 379.04392579865754 481.15190545316966 346.2894075346757 434.2192910920316"/><polygon points="391.2637553418611 411.8745554891774 419.40291132480553 418.0270879791319 437.5299793505725 477.97291202086797 373.13668731609414 484.1254445108225"/><polygon points="455.1017353135936 455.55335827197507 440.89826468640626 426.5564244397922 467.1615757490806 469.4435755602077 428.8384242509193 440.4466417280248"/><polygon points="492.2984247287373 459.83365812734957 489.03490860459596 416.0103332443332 478.9802068636146 479.9896667556667 502.35312646971863 436.1663418726503"/><polygon points="10.666666666666666 480.6438344031599 32 486.22111370427245 32 495.1122196290608 10.666666666666666 500.6894989301734"/><polygon points="52.93335006163165 508.1730655414474 75.06664993836836 453.10121134062797 76.13162378582452 528.2321219927053 51.86837621417549 473.1602677918859"/><polygon points="92.6580811986224 462.41208836158205 120.67525213471092 488.8730031558412 120.9014381228012 492.46033017749204 92.43189521053212 518.9212449717512"/><polygon points="145.74459996197868 478.42543157265675 152.922066704688 470.6597108647187 167.2392434761153 510.67362246861455 131.4274231905514 502.9079017606765"/><polygon points="172.82310043720622 481.5901639312857 211.17689956279378 453.661650640279 210.1635927249848 527.6716826930542 173.8364072750152 499.74316940204756"/><polygon points="222.8029873322116 502.6262262133869 246.53034600112173 492.1329059930009 235.89424864646568 489.20042734033234 233.43908468686763 478.7071071199464"/><polygon points="253.50724082442386 482.38401840637823 301.15942584224274 464.9535307760824 292.72999276273833 516.3798025572509 261.9366739039283 498.949314926955"/><polygon points="318.63516553745814 483.0563275333667 321.36483446254175 456.60152922971633 333.45140165758966 524.7318041036169 306.54859834241023 498.27700579996656"/><polygon points="356.28352317595034 507.24383424190387 369.0498101573829 457.6024353588695 362.11444767295507 523.7308979744637 363.2188856603782 474.0894990914294"/><polygon points="398.4630626504068 500.43552435553545 412.2036040162598 478.61428892918 400.2756140499097 502.71904440415324 410.39105261675695 480.8978089777978"/><polygon points="425.62787074776475 488.41189933869794 470.37212925223514 488.40203304519184 478.17835606653716 492.9313002881414 417.8216439334627 492.9214339946353"/><polygon points="472.84018446026977 508.0219629109883 508.4931488730635 495.6047321945398 473.00893073204765 485.72860113879346 508.3244026012856 473.31137042234496"/>
</svg>
