<?xml version="1.0" encoding="UTF-8"?>
<svg xmlns="http://www.w3.org/2000/svg" id="RSSicon" viewBox="0 0 512 512" width="512" height="512">
  <defs>
    <style type="text/css">
      svg {
        background: black;
        margin: calc(50vh - 256px) auto 0;
      }
      
      polygon {stroke: darkorange; fill: none;}
    </style>
  </defs>
  <polygon points="10.666666666666666 10.666666666666666 32 10.666666666666666 32 32 10.666666666666666 32"/><polygon points="53.22786935070521 10.666666666666666 74.77213064929478 10.666666666666666 74.75884546693105 32 53.24115453306895 32"/><polygon points="91.76738447681734 10.666666666666666 121.56594885651597 10.666666666666666 120.27026638276709 32 93.06306695056622 32"/><polygon points="143.17478120736698 10.666666666666666 155.4918854592997 10.666666666666666 154.95450781365358 32 143.7121588530131 32"/><polygon points="187.69757489885885 10.666666666666666 196.30242510114115 10.666666666666666 197.3042294251548 32 186.6957705748452 32"/><polygon points="220.18578589797332 10.666666666666666 249.14754743536 10.666666666666666 253.50529390836047 32 215.82803942497284 32"/><polygon points="270.7745799870123 10.666666666666666 283.8920866796543 10.666666666666666 295.45898806933207 32 259.20767859733456 32"/><polygon points="294.6781840414309 10.666666666666666 345.321815958569 10.666666666666666 348.53504797270705 32 291.46495202729284 32"/><polygon points="359.99095042438944 10.666666666666666 365.3423829089438 10.666666666666666 373.6743582974908 32 351.65897503584245 32"/><polygon points="408.23347509418824 10.666666666666666 402.4331915724784 10.666666666666666 407.3202592607331 32 403.3464074059335 32"/><polygon points="457.38445569529614 10.666666666666666 438.61554430470375 10.666666666666666 479.488753367232 32 416.5112466327679 32"/><polygon points="499.909912234447 10.666666666666666 481.42342109888625 10.666666666666666 513.133639431833 32 468.1996939015002 32"/><polygon points="10.666666666666666 51.84188861351913 32 54.83601425294843 32 73.16398574705157 10.666666666666666 76.15811138648087"/><polygon points="53.16801577969837 52.022628111514656 74.83198422030163 50.78037273301377 75.12982221256016 77.21962726698624 52.87017778743985 75.97737188848535"/><polygon points="96.85259243240363 51.251391443290316 116.48074090092969 53.41500377144498 119.85869754965921 74.58499622855501 93.4746357836741 76.74860855670968"/><polygon points="136.39199054551244 54.149673778235154 162.27467612115424 51.75701948817261 165.98573138891308 76.2429805118274 132.6809352777536 73.85032622176485"/><polygon points="188.24343560666836 54.741627467534045 195.75656439333164 51.143042839481424 208.37266752162984 76.85695716051858 175.62733247837016 73.25837253246596"/><polygon points="223.9289649979084 54.462605714105024 245.40436833542492 52.838025752062364 249.56749274522792 75.16197424793764 219.7658405881054 73.53739428589498"/><polygon points="280.1540279267476 52.44315073540789 274.51263873991905 53.29483304313501 290.3815619599984 74.705166956865 264.2851047066682 75.55684926459212"/><polygon points="319.2245735903504 52.26681069839084 320.77542640964947 51.812804324834175 318.6260690319544 76.18719567516582 321.3739309680455 75.73318930160916"/><polygon points="364.5685128962781 53.013795566468396 360.76482043705516 55.29486421039787 356.7261843603385 72.70513578960212 368.60714897299476 74.98620443353161"/><polygon points="407.82605606587987 54.41162724245465 402.84061060078676 54.815054062160556 426.94541441389964 73.18494593783944 383.721252252767 73.58837275754534"/><polygon points="450.3031529574736 51.02544810474238 445.69684704252626 53.34386603177589 481.7577047767085 74.65613396822411 414.24229522329136 76.97455189525762"/><polygon points="494.39023846706397 51.427445160362836 486.9430948662693 50.7567566215359 523.3371202181552 77.2432433784641 457.9962131151781 76.57255483963716"/><polygon points="10.666666666666666 100.03303843528283 32 96.64294851655855 32 116.69038481677477 10.666666666666666 113.30029489805048"/><polygon points="53.890930304018596 99.05431221363911 74.1090696959814 93.67225134088324 74.87477229647553 119.66108199245008 53.12522770352448 114.2790211196942"/><polygon points="94.70093456380391 93.70771837259551 118.6323987695294 95.75421482427872 116.04938797656288 117.5791185090546 97.28394535677043 119.6256149607378"/><polygon points="145.51472734421324 99.63653088017341 153.15193932245344 94.79053193394344 165.39858612953574 118.54280139938987 133.26808053713094 113.6968024531599"/><polygon points="184.23927030686406 91.19905573565373 199.76072969313594 91.29623498037614 199.2612329446372 122.03709835295717 184.7387670553628 122.13427759767958"/><polygon points="231.03145787438763 98.34308809366205 238.3018754589457 91.44121396226603 247.21445882450206 121.89211937106728 222.11887450883125 114.99024523967127"/><polygon points="253.6782801465887 91.00115459424009 300.98838652007794 100.7636148872982 285.27033600154516 112.56971844603511 269.39633066512147 122.33217873909322"/><polygon points="311.17908505165025 94.65264400502842 328.82091494834964 101.31803014491818 322.90866356243475 112.01530318841513 317.09133643756513 118.6806893283049"/><polygon points="343.7616527082596 95.56391622981687 381.57168062507367 97.81105104630147 367.68179013443864 115.52228228703184 357.6515431988946 117.76941710351645"/><polygon points="386.10929751116777 100.13904711847596 424.55736915549886 98.89518473402376 401.44789035796737 114.43814859930956 409.21877630869926 113.19428621485736"/><polygon points="450.7724214092166 100.62806182570522 445.2275785907833 97.42943396207815 441.7268549883997 115.90389937125516 454.2731450116002 112.7052715076281"/><polygon points="489.4998832619746 99.44117972093383 491.83345007135864 91.54456506997124 493.49895772383763 121.78876826336207 487.8343756094956 113.89215361239948"/><polygon points="10.666666666666666 139.03239587081686 32 138.63893219312538 32 160.0277344735413 10.666666666666666 159.63427079584983"/><polygon points="50.73421582359548 137.375765660705 77.26578417640452 141.52972659861322 76.2989232695295 157.13694006805346 51.7010767304705 161.29090100596167"/><polygon points="91.33479124496749 131.0760365771367 121.99854208836582 140.11285205804606 120.46612150307196 158.55381460862063 92.86721183026135 167.59063008952998"/><polygon points="135.32306336450924 142.77957428812644 163.34360330215745 143.47518753085495 155.7306264712826 155.19147913581173 142.9360401953841 155.88709237854025"/><polygon points="171.29032659387292 141.04710914822726 212.70967340612708 135.33817666457566 206.7841467859347 163.32849000209103 177.2158532140653 157.61955751843942"/><polygon points="231.53535842520537 133.52037433227116 237.79797490812794 137.28680181393827 253.79612543125705 161.37986485272842 215.53720790207626 165.14629233439553"/><polygon points="252.84360124091586 137.74437784443052 301.82306542575077 131.03685301171157 297.1284166771724 167.62981365495511 257.5382499894942 160.92228882223617"/><polygon points="296.7200143986448 141.51090591592188 343.27998560135507 142.49084407447532 339.4846042276919 156.17582259219137 300.515395772308 157.1557607507448"/><polygon points="335.29129992118686 141.1178118510981 390.0420334121464 138.70454217944658 371.5146626158239 159.9621244872201 353.81867071750935 157.54885481556857"/><polygon points="381.18056092013313 133.4555509792435 429.4861057465335 137.22108388399965 437.18166861966125 161.44558278266703 373.4849980470054 165.2111156874232"/><polygon points="422.9311749992103 142.51004461069286 473.06882500078956 140.65892233713018 440.93454291395125 158.0077443295365 455.06545708604864 156.15662205597383"/><polygon points="465.57377402829127 132.82588256679938 515.759559305042 132.46390598793047 516.9004598575365 166.2027606787362 464.4328734757968 165.8407840998673"/><polygon points="10.666666666666666 171.76410853967732 32 182.9140158032839 32 201.0859841967161 10.666666666666666 212.23589146032268"/><polygon points="53.11849712271726 184.53554091022698 74.88150287728274 174.57254777898382 74.78651386031797 209.42745222101618 53.21348613968203 199.46445908977302"/><polygon points="95.09652486786297 180.8824189315094 118.23680846547035 175.55626217520364 118.00958951805457 208.44373782479636 95.32374381527875 203.1175810684906"/><polygon points="144.61732268104615 178.14194929775704 154.04934398562054 172.32640599342156 163.6563877761693 211.67359400657844 135.01027889049737 205.85805070224296"/><polygon points="186.63754249812266 184.41632597344838 197.36245750187734 191.71931562672066 209.2061865044564 192.28068437327934 174.7938134955436 199.58367402655162"/><polygon points="230.66658544100736 172.7382389259509 238.66674789232596 189.19653252232195 245.5451162503757 194.80346747767805 223.7882170829576 211.2617610740491"/><polygon points="258.650693045801 188.66518710553447 296.0159736208656 180.79258564794932 273.27007249075234 203.20741435205068 281.3965941759143 195.33481289446553"/><polygon points="300.99959026253185 176.31789267594414 339.00040973746803 172.3243557485871 328.54401663787417 211.6756442514129 311.4559833621257 207.68210732405586"/><polygon points="357.92867658477377 184.90608496130636 367.4046567485595 177.69548738762018 384.95566711752787 206.30451261237982 340.3776662158054 199.09391503869364"/><polygon points="390.78259352834215 181.12248041636587 419.8840731383245 175.54016692522976 439.9835772331418 208.45983307477024 370.68308943352486 202.87751958363413"/><polygon points="439.7500819850879 170.7253969643456 456.249918014912 183.20715370150165 448.54339959894435 200.79284629849835 447.45660040105554 213.2746030356544"/><polygon points="468.99271552820824 185.01059331168088 512.340617805125 172.25952749608697 478.8559423601767 211.74047250391303 502.47739097315656 198.98940668831912"/><polygon points="10.666666666666666 216.00153676682427 32 224.8629318965705 32 244.4704014367628 10.666666666666666 253.33179656650904"/><polygon points="51.15085014497484 215.9512229885255 76.84914985502516 235.43885070380668 74.24779593542972 233.89448262952664 53.75220406457028 253.3821103448078"/><polygon points="99.6051504577284 218.30730961339208 113.72818287560492 234.2648574384344 116.65556430093217 235.0684758948989 96.67776903240114 251.02602371994124"/><polygon points="141.70884912994995 224.51422385856745 156.95781753671673 219.49550873239065 163.87987621363993 249.83782460094267 134.78679045302675 244.81910947476587"/><polygon points="172.6754838348851 234.43892752283497 211.3245161651149 232.44985303640948 195.26708693405104 236.88348029692384 188.73291306594896 234.89440581049834"/><polygon points="229.53452726397646 236.1726880581672 239.79880606935686 222.42878096928715 238.78765297960894 246.90455236404617 230.54568035372438 233.1606452751661"/><polygon points="252.58979958350977 235.39990353298822 302.07686708315686 219.54922629850745 300.0443306309352 249.78410703482587 254.62233603573142 233.9334298003451"/><polygon points="302.5247578666518 224.74550791633334 337.4752421333481 213.25874852031498 314.69467567417837 256.07458481301836 325.3053243258215 244.58782541699998"/><polygon points="343.046761813289 221.7657070775707 382.2865715200443 225.7970316547922 363.281526634678 243.53630167854112 362.05180669865524 247.5676262557626"/><polygon points="405.70493719565195 215.14635468304573 404.9617294710147 225.2602010767428 422.7172939043406 244.07313225659053 387.94937276232605 254.18697865028759"/><polygon points="428.8207062256253 216.14966117840098 467.17929377437457 231.32382326619592 464.18438451456853 238.0095100671374 431.81561548543135 253.18367215493234"/><polygon points="470.97063878350076 227.37299742693855 510.3626945498325 223.57882279305227 486.4912094012014 245.75451054028105 494.84212393213187 241.96033590639476"/><polygon points="10.666666666666666 256.8005306885459 32 276.7795476537969 32 277.88711901286973 10.666666666666666 297.8661359781207"/><polygon points="55.92984255003535 268.6783805934131 72.07015744996465 275.47621804538204 75.3529960619411 279.1904486212846 52.6470039380589 285.9882860732535"/><polygon points="98.49948518744702 275.5052390971192 114.8338481458863 280.8555450566784 118.62370667702636 273.8111216099882 94.70962665630695 279.1614275695474"/><polygon points="141.96596617722707 274.65575655255185 156.7007004894396 257.15847181287563 163.4577555391801 297.508194853791 135.20891112748657 280.0109101141148"/><polygon points="173.6552387140264 272.3457580809352 210.3447612859736 275.3987421229383 205.95364421373185 279.2679245437283 178.04635578626815 282.32090858573144"/><polygon points="215.14939916091316 275.1722863541887 254.18393417242015 278.5890538961176 249.05394840124998 276.077612770549 220.27938493208333 279.4943803124779"/><polygon points="275.97950727239083 281.58178158652976 278.6871593942758 259.64781528331196 300.697615652977 295.0188513833547 253.96905101368964 273.08488508013687"/><polygon points="313.5586269921463 274.7903014202441 326.4413730078536 266.0570207906574 339.09559522190807 288.6096458760092 300.9044047780918 279.87636524642255"/><polygon points="333.62235094289616 260.1464683430211 391.7109823904371 251.09799610736584 388.6017990498209 303.56867055930076 336.73153428351236 294.5201983236455"/><polygon points="382.81757650483763 270.54912005905476 427.849090161829 277.65579342339555 395.7322433326832 277.0108732432711 414.93442333398343 284.11754660761187"/><polygon points="439.2484111674765 279.37150725942473 456.7515888325234 270.10986329253325 476.9484172294702 284.5568033741334 419.0515827705297 275.2951594072419"/><polygon points="483.7925246641235 264.8510480696182 497.54080866920975 251.441111451488 502.48722606611176 303.22555521517864 478.8461072672215 289.81561859704846"/><polygon points="10.666666666666666 309.17119400835 32 300.08421616391666 32 339.9157838360832 10.666666666666666 330.82880599164986"/><polygon points="50.68094352400925 304.0976109629535 77.31905647599075 302.0881844324591 75.33781622972327 337.91181556754077 52.66218377027673 335.90238903704636"/><polygon points="91.78617864488254 302.25923777525895 121.54715468845077 325.12062275136134 121.38767459457597 314.87937724863855 91.94565873875734 337.74076222474093"/><polygon points="134.82129292096346 327.44030014292804 163.84537374570323 315.2749194447211 159.7984957887922 324.7250805552788 138.8681708778745 312.55969985707185"/><polygon points="172.62026020846656 312.1661937844719 211.37973979153344 309.00905322412433 213.0031877366556 330.99094677587556 170.9968122633444 327.833806215528"/><polygon points="214.02995290449866 302.17771373112055 255.30338042883466 318.6184391530353 246.18592421377565 321.3815608469646 223.14740911955766 337.82228626887934"/><polygon points="260.1392333269452 293.0690576150897 294.5274333397214 319.9005938381022 278.1379944479763 320.09940616189766 276.5286722186903 346.93094238491017"/><polygon points="314.71143877794395 298.4236770956294 325.28856122205593 304.09693182491446 314.9168603636093 335.9030681750854 325.08313963639057 341.5763229043705"/><polygon points="332.97820397642295 321.4939521617192 392.3551293569103 293.9248809750093 384.90243585592754 346.0751190249906 340.4308974774057 318.50604783828067"/><polygon points="413.4664529476587 311.36185105620604 397.20021371900793 311.78447430223383 399.4629743933619 328.21552569776605 411.20369227330474 328.63814894379385"/><polygon points="427.7141551868568 309.4628968585276 468.2858448131431 326.8618728867474 453.9368555078357 313.1381271132525 442.0631444921642 330.5371031414723"/><polygon points="505.5767533285736 324.38965007700415 475.75658000475966 305.96040336949136 504.0406479191088 334.0395966305085 477.2926854142245 315.61034992299574"/><polygon points="10.666666666666666 339.692708086748 32 340.98536401853175 32 384.3479693148015 10.666666666666666 385.6406252465853"/><polygon points="54.92035454732909 361.85020595519484 73.07964545267092 334.3898029370466 73.052658889943 390.94353039628663 54.947341110057 363.4831273781384"/><polygon points="97.03796420385065 350.79081197588096 116.29536912948267 371.82488591582825 115.75976909409124 353.508447417505 97.57356423924207 374.5425213574523"/><polygon points="137.64469064709542 349.76006531418636 161.02197601957127 372.7795789639239 152.49163266245856 352.5537543694094 146.17503400420813 375.5732680191469"/><polygon points="187.57780661558795 351.3129491336297 196.42219338441205 337.2350516150925 205.69311544666525 388.09828171824074 178.30688455333475 374.0203841997036"/><polygon points="220.24747960819866 369.0773803969014 249.08585372513465 360.0797049407957 232.9331852877795 365.25362839253756 236.4001480455538 356.25595293643187"/><polygon points="267.20924541089755 340.207402807027 287.4574212557691 334.9114100647787 283.6438708351549 390.42192326855456 271.0227958315117 385.12593052630626"/><polygon points="304.9930464103638 345.1378640651229 335.0069535896361 359.83582335697764 331.9527607900673 365.4975099763556 308.04723920993257 380.19546926821033"/><polygon points="336.68916821599436 334.80641976927785 388.6441651173389 364.61770481641895 377.6659731277298 360.7156285169143 347.6673602056035 390.5269135640554"/><polygon points="385.32440757847706 354.97724446198066 425.34225908818956 339.9467898034346 399.9814012060453 385.38654352989863 410.68526546062134 370.3560888713526"/><polygon points="416.98387518949096 365.4011534369341 479.0161248105089 365.9180772519263 467.2092005618797 359.41525608140694 428.7907994381202 359.93217989639913"/><polygon points="506.89268482127164 345.6887435312588 474.4406485120616 359.4893621322078 504.0015160776276 365.84397120112544 477.33181725570563 379.64458980207445"/><polygon points="10.666666666666666 379.9575333633119 32 394.77209840234605 32 415.8945682643206 10.666666666666666 430.70913330335475"/><polygon points="52.755610063133275 387.85102191279043 75.24438993686672 377.1955173444715 76.58891670815458 433.4711493221951 51.411083291845415 422.8156447538762"/><polygon points="93.36595313563403 389.53830606892285 119.96738019769928 410.46546170418776 117.83629146916606 400.20120496247887 95.49704186416726 421.1283605977438"/><polygon points="143.84623106399417 373.18384642272747 154.82043560267252 414.03123135522463 166.21299979729991 396.635435311442 132.45366686936677 437.48282024393916"/><polygon points="188.8318408545868 396.5668648718688 195.1681591454132 380.65126086742674 193.20757132413752 430.0154057992399 190.79242867586248 414.0998017947978"/><polygon points="234.95738785897268 395.36812297062033 234.37594547436063 373.08709640211623 250.5287121363831 437.5795702645504 218.80462119695022 415.2985436960463"/><polygon points="273.75379808153275 401.97680960060967 280.9128685851339 408.347924319143 288.4908699637735 402.31874234752365 266.17579670289314 408.68985706605696"/><polygon points="307.3601407565429 375.29130789465876 332.639859243457 409.2008055147202 347.88065928719755 401.46586115194646 292.11934071280234 435.37535877200787"/><polygon points="360.99971742509524 397.035610585939 364.333615908238 374.1480948944395 386.58569317795815 436.5185717722271 338.7476401553751 413.6310560807276"/><polygon points="376.1338597882553 388.71428231334966 434.53280687841135 401.6145684441955 436.45421160379794 409.0520982224711 374.2124550628687 421.952384353317"/><polygon points="436.43193180097666 411.9061553874118 459.56806819902323 395.69004224451277 457.2439107860459 414.97662442215386 438.756089213954 398.76051127925484"/><polygon points="499.6304793019166 388.9676016059863 481.7028540314167 407.79774464713967 496.82464872837636 402.86892201952696 484.5086846049569 421.6990650606803"/><polygon points="10.666666666666666 440.14017289497974 32 446.1925746941025 32 449.80742530589737 10.666666666666666 455.85982710502014"/><polygon points="52.334617583339465 463.1766994824694 75.66538241666053 452.53180828056827 75.41552484022145 443.4681917194316 52.58447515977855 432.82330051753047"/><polygon points="99.11773728421757 454.61919413122524 114.21559604911575 417.28496594923075 114.88061823962119 478.71503405076913 98.45271509371213 441.38080586877464"/><polygon points="144.44020043916535 433.76152850920187 154.22646622750133 417.68934939836066 164.79074190638974 478.3106506016392 133.87592476027694 462.238471490798"/><polygon points="176.10034771605723 412.4674988227019 207.89965228394277 457.8450566831372 192.89168615282173 438.15494331686267 191.10831384717827 483.532501177298"/><polygon points="221.92522265486053 411.0025352634277 247.40811067847278 453.10555811694235 238.7831108544327 442.89444188305754 230.55022247890062 484.99746473657217"/><polygon points="272.74839569052233 456.9920110431588 281.9182709761443 413.88159049398837 281.9724979561412 482.1184095060115 272.69416871052545 439.0079889568411"/><polygon points="307.2353983907869 445.881878176844 332.764601609213 433.04217682512433 323.29527670432367 462.95782317487556 316.7047232956762 450.1181218231559"/><polygon points="349.2632635130841 459.61496054141946 376.07006982024916 440.99239369943956 391.0337190494946 455.0076063005603 334.29961428383865 436.3850394585804"/><polygon points="373.175529368611 430.951770724962 437.4911372980556 463.1281999419725 431.07333795032275 432.87180005802736 379.5933287163439 465.0482292750379"/><polygon points="420.8110650027301 416.78290962742875 475.18893499726977 424.0736828838456 482.46349127653946 471.9263171161543 413.53650872346043 479.21709037257114"/><polygon points="452.09174299328225 451.64695810404345 529.2415903400511 436.0857024755089 524.0302056891412 459.91429752449096 457.30312764419205 444.35304189595644"/><polygon points="10.666666666666666 472.6912924011718 32 488.5388068840821 32 492.7945264492512 10.666666666666666 508.6420409321615"/><polygon points="54.835733076648765 453.49844561814245 73.16426692335124 496.4785956923988 73.47057692908581 484.85473764093445 54.52942307091419 527.8348877151908"/><polygon points="99.95790688438895 467.75480371388943 113.37542644894437 471.54333305430265 120.03738699623736 509.7900002790306 93.29594633709596 513.5785296194439"/><polygon points="134.8224935220338 487.59880187966786 163.8441731446329 497.56540857536595 165.21534574138684 483.7679247579673 133.45132092527984 493.7345314536654"/><polygon points="185.8492719939046 501.17435275627804 198.1507280060954 503.7676658752996 204.80420672846643 477.56566745803366 179.19579327153357 480.1589805770552"/><polygon points="230.63773296204343 456.2723558872369 238.69560037128988 487.8546014800098 249.05579763215061 493.47873185332344 220.2775357011827 525.0609774460963"/><polygon points="260.71379222067594 479.15294464085804 293.9528744459907 483.3787920239202 286.1515554950576 497.95454130941306 268.515111171609 502.1803886924752"/><polygon points="300.946124340856 473.6259711141469 339.0538756591439 483.9881543651512 342.1280056471224 497.34517896818204 297.8719943528775 507.70736221918634"/><polygon points="349.00588381337246 473.2503438212594 376.3274495199608 501.4169114134367 385.7567534061252 479.91642191989655 339.57657992720806 508.0829895120739"/><polygon points="377.2710966392824 461.3923129775056 433.3955700273842 457.38673940064 421.50901163926386 523.9465939326933 389.15765502740277 519.9410203558277"/><polygon points="462.7211387868367 460.44310497166276 433.27886121316317 488.3892146576633 439.39318194499856 492.94411867567 456.6068180550013 520.8902283616704"/><polygon points="452.2550732011497 484.8797800533241 529.0782601321836 497.75124917695007 504.60975029322907 483.5820841563832 476.7235830401042 496.45355328000915"/>
</svg>
