<?xml version="1.0" encoding="UTF-8"?>
<svg xmlns="http://www.w3.org/2000/svg" id="RSSicon" viewBox="0 0 512 512" width="512" height="512">
  <defs>
    <style type="text/css">
      svg {
        background: black;
        margin: calc(50vh - 256px) auto 0;
      }
      
      polygon {stroke: darkorange; fill: none;}
    </style>
  </defs>
  <polygon points="10.666666666666666 10.666666666666666 32 10.666666666666666 32 32 10.666666666666666 32"/><polygon points="54.4676607694086 10.666666666666666 73.53233923059139 10.666666666666666 75.8040041451939 32 52.1959958548061 32"/><polygon points="100.66530741380353 10.666666666666666 112.66802591952978 10.666666666666666 116.12132636773009 32 97.21200696560322 32"/><polygon points="139.34229442985185 10.666666666666666 159.32437223681484 10.666666666666666 154.7129179947916 32 143.95374867187508 32"/><polygon points="181.62060971807415 10.666666666666666 202.37939028192585 10.666666666666666 203.65860718304955 32 180.34139281695045 32"/><polygon points="217.86379659309262 10.666666666666666 251.4695367402407 10.666666666666666 233.80374871867505 32 235.52958461465826 32"/><polygon points="252.1071514947228 10.666666666666666 302.5595151719438 10.666666666666666 295.1615801147788 32 259.5050865518878 32"/><polygon points="305.32935537915193 10.666666666666666 334.67064462084795 10.666666666666666 320.6884958347481 32 319.3115041652518 32"/><polygon points="370.5255324857235 10.666666666666666 354.80780084760977 10.666666666666666 377.07450718558687 32 348.2588261477464 32"/><polygon points="407.18653253024485 10.666666666666666 403.4801341364218 10.666666666666666 430.8700203411238 32 379.79664632554284 32"/><polygon points="446.629932303004 10.666666666666666 449.3700676969959 10.666666666666666 476.2624692051516 32 419.7375307948483 32"/><polygon points="455.57170096012675 10.666666666666666 525.7616323732065 10.666666666666666 493.93261868930455 32 487.4007146440287 32"/><polygon points="10.666666666666666 54.03466510729031 32 53.75518022965734 32 74.24481977034266 10.666666666666666 73.96533489270969"/><polygon points="51.064149522014446 54.36850561352498 76.93585047798555 52.4141069953294 76.69797278231118 75.58589300467061 51.302027217688824 73.63149438647503"/><polygon points="97.71445960167827 55.58523056611517 115.61887373165504 52.246651210477125 122.52437486689537 75.75334878952287 90.80895846643794 72.41476943388483"/><polygon points="144.3249795998573 55.48644730952783 154.34168706680938 54.637557065181994 154.5298196499715 73.362442934818 144.13684701669519 72.51355269047217"/><polygon points="175.96021356784408 55.871128382313145 208.03978643215592 54.615923913424595 196.6173170530887 73.3840760865754 187.3826829469113 72.12887161768685"/><polygon points="233.6142440202036 52.259995255943565 235.7190893131297 51.12619835352199 245.05644648027905 76.87380164647801 224.27688685305426 75.74000474405644"/><polygon points="269.60953780777083 53.148945467272696 285.0571288588958 52.52671468882657 280.38384872298474 75.47328531117343 274.2828179436819 74.8510545327273"/><polygon points="311.3568216013595 55.250806194126866 328.6431783986404 52.67226013672392 331.7181452910571 75.32773986327608 308.2818547089428 72.74919380587313"/><polygon points="371.32677673264647 55.70463840759989 354.0065566006868 52.58236182618375 379.7218050251847 75.41763817381626 345.61152830814854 72.29536159240011"/><polygon points="399.3639720029823 54.911387784466555 411.30269466368435 50.755897459721695 432.29483900221044 77.2441025402783 378.3718276644562 73.08861221553344"/><polygon points="432.3763266949158 54.23268939888282 463.6236733050841 55.821158347298585 472.96778888825474 72.17884165270142 423.03221111174514 73.76731060111717"/><polygon points="474.0502594720938 52.544432191200585 507.2830738612395 52.962642859732455 503.03446454785643 75.03735714026755 478.2988687854768 75.45556780879942"/><polygon points="10.666666666666666 99.34380071801013 32 100.37264040698174 32 112.96069292635157 10.666666666666666 113.98953261532318"/><polygon points="52.35480870409733 92.33016410521856 75.64519129590268 96.0381417987434 75.80497980188406 117.29519153458992 52.19502019811594 121.00316922811476"/><polygon points="98.77456670566208 91.28853518050681 114.55876662767123 96.80090518324764 112.8811033237564 116.53242815008568 100.45223000957691 122.0447981528265"/><polygon points="133.31109363595198 94.67941392076055 165.3555730307147 94.19945903408437 155.80760090734213 119.13387429924894 142.85906575932455 118.65391941257276"/><polygon points="178.08841656469525 97.55113304151836 205.91158343530475 98.92279663464308 198.78636341644832 114.41053669869024 185.21363658355168 115.78220029181496"/><polygon points="236.56030897463768 90.97832263407216 232.77302435869564 92.39025768167143 257.08704204400647 120.94307565166189 212.24629128932685 122.35501069926116"/><polygon points="265.65938562442005 98.06519690769272 289.0072810422466 93.65649055858327 278.3948507872009 119.67684277475004 276.27181587946575 115.26813642564059"/><polygon points="294.9568609332678 94.56224191103652 345.04313906673207 97.35602686272601 345.9632235333347 115.9773064706073 294.0367764666652 118.77109142229679"/><polygon points="346.3364456808235 97.28552548256641 378.99688765250977 98.8119120355336 361.54675788876267 114.52142129779972 363.7865754445706 116.0478078507669"/><polygon points="392.63373500183036 97.42288091007086 418.03293166483627 99.87259570660025 424.7928589415279 113.46073762673306 385.8738077251387 115.91045242326246"/><polygon points="431.98327077747456 93.02237130285872 464.0167292225253 97.93550257610248 445.4254971808012 115.39783075723084 450.5745028191987 120.3109620304746"/><polygon points="507.57980349176546 92.87465971132741 473.7535298415678 99.35132049281023 513.9166903527669 113.98201284052308 467.4166429805664 120.4586736220059"/><polygon points="10.666666666666666 136.89113796001914 32 140.92182916461715 32 157.74483750204953 10.666666666666666 161.77552870664755"/><polygon points="52.01979987287051 140.3232113401323 75.98020012712949 145.63634617391654 76.63840295085927 153.03032049275015 51.36159704914073 158.34345532653438"/><polygon points="93.60154410558418 142.1155652112828 119.73178922774913 145.00525463088954 114.28953778595799 153.66141203577715 99.04379554737532 156.55110145538387"/><polygon points="139.3133048682009 138.45935899723295 159.35336179846578 132.31453490777074 153.14490488659112 166.35213175889595 145.52176178007556 160.20730766943373"/><polygon points="189.5758821676604 132.39048427684975 194.4241178323396 139.63059397593264 211.86950960827187 159.03607269073404 172.13049039172813 166.27618238981694"/><polygon points="232.60793844323535 134.81812373525176 236.72539489009796 145.86531031200798 237.46718166146348 152.8013563546587 231.86615167186983 163.84854293141493"/><polygon points="280.7869775743861 146.47936311504998 273.8796890922805 132.5550102335519 296.4936058225742 166.11165643311477 258.17306084409245 152.1873035516167"/><polygon points="293.11329230896223 135.49067802135636 346.88670769103766 144.90410778913142 343.33698132938457 153.76255887753527 296.6630186706153 163.17598864531033"/><polygon points="362.44645413748617 140.30398962391862 362.8868791958471 134.60892128500922 376.13333996784183 164.05774538165747 349.1999933654914 158.36267704274806"/><polygon points="415.9362644648273 146.17577466076511 394.73040220183935 139.86967362153504 417.6211100057721 158.79699304513164 393.04555666089453 152.49089200590157"/><polygon points="428.99067116701985 139.1356079029207 467.00932883298003 144.7927320690798 442.7629138504096 153.8739345975869 453.2370861495903 159.531058763746"/><polygon points="477.79216116831145 139.09755593592732 503.5411721650218 140.62558276337143 520.9515829694258 158.04108390329526 460.38175036390743 159.56911073073937"/><polygon points="10.666666666666666 184.8489346109764 32 172.4646632813941 32 211.5353367186059 10.666666666666666 199.1510653890236"/><polygon points="52.878294491293715 180.7475357777185 75.12170550870628 181.24524337295716 74.1621891386739 202.75475662704284 53.837810861326105 203.2524642222815"/><polygon points="100.81392553104942 188.51366515271806 112.5194078022839 178.8930916535465 118.92060408852036 205.1069083464535 94.41272924481295 195.48633484728194"/><polygon points="138.91114054662322 181.64589280505376 159.75552612004347 176.94928110920296 163.1298631595738 207.05071889079704 135.53680350709288 202.35410719494624"/><polygon points="187.56073709525714 181.1288121177085 196.43926290474286 189.19964805116217 204.2342609365341 194.80035194883783 179.7657390634659 202.8711878822915"/><polygon points="234.33958216624023 179.47048016895877 234.99375116709308 176.1684850044529 236.53149042281666 207.8315149955471 232.80184291051665 204.52951983104123"/><polygon points="267.12702465796997 173.81548790517397 287.53964200869666 177.48093650322218 284.8003606796586 206.51906349677782 269.86630598700805 210.18451209482603"/><polygon points="316.5148438257966 175.5885591101716 323.48515617420327 191.53292874311379 317.4471281672421 192.46707125688621 322.5528718327578 208.4114408898284"/><polygon points="361.1319406437996 184.06172923316967 364.20139268953363 179.04140855770746 383.1431410446816 204.95859144229254 342.19019228865164 199.93827076683033"/><polygon points="411.08248372257907 176.35719036788865 399.58418294408756 190.14472859167017 430.0815678432725 193.85527140832983 380.5850988233941 207.64280963211135"/><polygon points="414.3098602132874 191.99905911325595 481.6901397867125 182.63364713119375 471.81952234205903 201.36635286880625 424.18047765794086 192.00094088674405"/><polygon points="465.98858266506915 183.74969563625916 515.3447506682642 187.43827032860628 489.7779956481595 196.56172967139372 491.55533768517375 200.25030436374084"/><polygon points="10.666666666666666 217.63379032113986 32 215.50739191051295 32 253.82594142282036 10.666666666666666 251.69954301219346"/><polygon points="55.96286504125887 215.91692951020676 72.03713495874112 222.94485420776135 74.27419956891508 246.38847912557196 53.72580043108492 253.41640382312656"/><polygon points="94.21606406646012 227.93267161141912 119.1172692668732 226.83821230761635 113.5444649367895 242.49512102571697 99.78886839654382 241.4006617219142"/><polygon points="137.82928377858846 225.36873052177077 160.83738288807822 215.9141502363459 165.61204175986646 253.4191830969874 133.05462490680023 243.96460281156254"/><polygon points="186.62264930386692 224.03275887770027 197.37735069613308 228.79164172010343 212.44575192969498 240.5416916132299 171.55424807030502 245.30057445563304"/><polygon points="214.6545782221998 211.0737188107333 254.6787551111335 217.67153089964611 245.15504824010915 251.6618024336872 224.17828509322416 258.2596145226"/><polygon points="279.7239945776938 220.71111677031905 274.9426720889728 229.6087571523148 283.42742472068045 239.7245761810185 271.2392419459862 248.62221656301426"/><polygon points="321.3089824300647 224.94711282377173 318.6910175699352 210.73126509516055 335.17150841505486 258.60206823817276 304.828491584945 244.38622050956158"/><polygon points="344.3400482244091 222.2315261856738 380.99328510892417 213.59936111787124 369.9057125722896 255.73397221546207 355.42762076104367 247.1018071476595"/><polygon points="385.06166197858323 218.0778703463476 425.6050046880834 231.71239381641757 398.6755341994322 237.62093951691574 411.9911324672344 251.25546298698572"/><polygon points="454.0957665369271 216.81138778359156 441.9042334630728 235.86169562289663 484.25894968639614 233.47163771043668 411.74105031360375 252.52194554974176"/><polygon points="451.5628907638211 210.90079669203607 529.7704425695122 218.02249506349378 483.83228312719285 251.31083826983954 497.5010502061404 258.43253664129725"/><polygon points="10.666666666666666 276.6818688419826 32 256.4587905279934 32 298.2078761386732 10.666666666666666 277.98479782468405"/><polygon points="55.3750131686336 264.68542252638457 72.6249868313664 255.9548324074455 73.62680934913027 298.7118342592211 54.37319065086973 289.98124414028206"/><polygon points="93.60047514144766 270.2237457483039 119.73285819188565 275.61456126723317 114.90815432785729 279.05210539943346 98.42517900547602 284.44292091836274"/><polygon points="139.62718063839722 260.8325491586727 159.03948602826947 278.0850849135495 162.0500612165954 276.5815817531171 136.6166054500713 293.83411750799394"/><polygon points="187.40263188625372 269.8580711590281 196.59736811374628 260.2587142173683 205.02449239386996 294.4079524492983 178.97550760613004 284.80859550763853"/><polygon points="222.52655210622214 272.0763406872245 246.80678122711117 274.9397174321277 232.85645301448898 279.72694923453895 236.47688031884434 282.5903259794421"/><polygon points="265.545047485828 274.380911637676 289.12161918083865 281.29080862883194 300.3124898829465 273.3758580378347 254.3541767837201 280.28575502899065"/><polygon points="323.85750217313705 266.86753561581173 316.14249782686284 261.5301377417884 346.19703784440475 293.13652892487823 293.80296215559514 287.7991310508549"/><polygon points="366.2977019673022 276.54535279897897 359.03563136603105 259.6880205178601 381.3968794084599 294.97864614880655 343.9364539248734 278.12131386768766"/><polygon points="399.32206382961124 256.3370386407327 411.3446028370554 262.1959813865031 398.5775637911903 292.47068528016354 412.0891028754763 298.3296280259339"/><polygon points="438.44810245331144 261.7326819382828 457.55189754668845 258.76150870992814 465.8432407297762 295.9051579567385 430.1567592702237 292.93398472838385"/><polygon points="467.95452735006404 269.4500857685342 513.3788059832692 275.0596617290208 524.8642085781274 279.60700493764585 456.4691247552059 285.2165808981324"/><polygon points="10.666666666666666 309.5148863166064 32 305.27920961225976 32 334.7207903877401 10.666666666666666 330.4851136833935"/><polygon points="55.490061663891225 292.3596850862941 72.50993833610877 294.6044532297763 74.93252651110672 345.3955467702236 53.067473488893285 347.64031491370577"/><polygon points="93.86855334489378 326.6046259700866 119.46477998843953 291.9570679358315 117.59008819173778 348.0429320641684 95.74324514159554 313.3953740299133"/><polygon points="139.13122424270742 296.512166076542 159.53544242395927 311.925513804548 165.5490369178303 328.07448619545187 133.11762974883638 343.4878339234579"/><polygon points="183.26477338732593 326.6732937900464 200.73522661267407 301.6119968573261 195.105835642025 338.38800314267377 188.894164357975 313.3267062099535"/><polygon points="214.20221611212608 314.86004108607 255.13111722120723 307.0376244497605 236.94096015249846 332.9623755502394 232.39237318083485 325.1399589139299"/><polygon points="276.9608501971167 303.6364338317611 277.7058164695499 304.1562821939692 296.03669850519117 335.84371780603067 258.62996816147546 336.3635661682388"/><polygon points="292.74167377599724 319.88173944879895 347.25832622400264 320.3931274960154 317.0930577903123 319.6068725039845 322.9069422096876 320.11826055120093"/><polygon points="343.4056211047325 304.4851086594163 381.92771222860074 291.81838182052866 389.00618896197125 348.18161817947123 336.327144371362 335.5148913405836"/><polygon points="402.5543097955562 321.2286366789964 408.1123568711104 323.76277006273267 438.1031049128721 316.2372299372672 372.56356175379454 318.7713633210035"/><polygon points="445.3399270800469 296.10808351803234 450.660072919953 315.1066990631911 436.25426222146194 324.89330093680877 459.74573777853794 343.89191648196754"/><polygon points="458.8051635686872 293.18114158537486 522.5281697646461 302.10636906248027 525.8765102082245 337.8936309375196 455.4568231251087 346.818858414625"/><polygon points="10.666666666666666 360.6577369062576 32 341.5963023423059 32 383.7370309910274 10.666666666666666 364.6755964270757"/><polygon points="52.09075814533328 333.94463647173535 75.90924185466672 333.53752795717315 75.80230578147024 391.7958053761601 52.19769421852977 391.3886968615979"/><polygon points="91.83142759248389 334.3893540026545 121.50190574084942 373.06101509193155 113.07634109490105 352.2723182414017 100.25699223843226 390.94397933067876"/><polygon points="136.0881817647929 361.51379938845423 162.5784849018738 364.78322624783704 152.09926973461833 360.5501070854962 146.56739693204835 363.819533944879"/><polygon points="187.92003883732585 339.47982898046735 196.07996116267415 355.8215739086984 199.76694908610853 369.5117594246349 184.23305091389147 385.8535043528659"/><polygon points="228.1619001306779 363.20384697373396 241.1714332026554 356.16202024996426 255.13105497215813 369.171313083369 214.2022783611752 362.1294863595993"/><polygon points="252.89734011123807 362.8036310264977 301.76932655542856 359.30594427119513 288.45588044355276 366.0273890621381 266.21078622311387 362.52970230683553"/><polygon points="307.19253067194063 337.5207771382277 332.80746932805926 366.0665862863086 327.0209145425147 359.26674704702464 312.9790854574852 387.81255619510557"/><polygon points="355.0815321384388 361.00117461092896 370.2518011948945 372.6085722001887 377.9346860230656 352.72476113314457 347.3986473102677 364.3321587224043"/><polygon points="385.95380354084125 350.3626498384108 424.7128631258254 340.2442755324042 402.2606586465974 385.0890578009291 408.40600802006924 374.97068349492247"/><polygon points="444.74270456109247 346.95996084108054 451.2572954389074 339.39934824850855 466.4025383256585 385.9339850848247 429.5974616743414 378.3733724922527"/><polygon points="461.94259523142404 343.5307428140176 519.3907381019093 344.64453695709807 530.2526623999992 380.6887963762352 451.0806709333341 381.8025905193157"/><polygon points="10.666666666666666 392.65117929055396 32 416.25021493943046 32 394.41645172723616 10.666666666666666 418.0154873761127"/><polygon points="55.60731501301746 402.206307347671 72.39268498698254 413.10710414437597 75.72144188407408 397.55956252229066 52.278558115925925 408.46035931899564"/><polygon points="93.33358374747166 417.8115375102562 119.99974958586165 400.7842606525333 118.90007243820847 409.8824060141333 94.43326089512485 392.85512915641044"/><polygon points="137.95484712483375 400.2323821936718 160.71181954183294 404.26092792019244 159.9429713945556 406.4057387464742 138.7236952721111 410.4342844729948"/><polygon points="176.01900597385014 406.90376076329704 207.98099402614986 418.2959794648764 201.9931054768491 392.37068720179025 182.0068945231509 403.7629059033696"/><polygon points="216.0582875338984 390.49419452808417 253.2750457994349 403.18685186046525 244.0585128881522 407.4798148062014 225.27482044518112 420.17247213858246"/><polygon points="273.9034777183336 386.7955190914592 280.76318894833304 374.6394176556327 278.28436991058237 436.0272490110339 276.38229675608426 423.87114757520743"/><polygon points="317.34575272924315 397.0823552813286 322.65424727075674 378.3093796096508 339.8744498201376 432.3572870570158 300.1255501798623 413.584311385338"/><polygon points="360.35582403807666 395.0016816170458 364.9775092952566 414.2549073033796 383.5083188792721 396.41175936328705 341.82501445406115 415.66498504962084"/><polygon points="404.23368765405127 380.5250561618571 406.43297901261536 402.51478842812645 430.4857785738255 408.1518782385402 380.18088809284114 430.14161050480953"/><polygon points="412.401467482586 408.41457092686073 483.5985325174139 403.38758354093056 440.43688908951 407.27908312573607 455.5631109104899 402.2520957398059"/><polygon points="452.54365022277466 411.52137913810446 528.7896831105586 380.7557435530426 525.352012922862 429.91092311362405 455.9813204104713 399.14528752856216"/><polygon points="10.666666666666666 420.6758672285589 32 427.1325473692177 32 468.86745263078217 10.666666666666666 475.324132771441"/><polygon points="53.55622205014195 432.641469795389 74.44377794985806 419.06625667989397 77.17935251029287 476.9337433201059 50.82064748970713 463.3585302046109"/><polygon points="93.19160979823457 435.77242547989863 120.14172353509875 446.42116007762905 118.73133836977172 449.57883992237083 94.6019949635616 460.22757452010126"/><polygon points="138.42092680424915 461.9721967823796 160.24573986241754 454.1707521516973 154.2918485328086 441.8292478483026 144.3748181338581 434.02780321762026"/><polygon points="189.48915332912526 421.86262523877537 194.51084667087474 435.3295989466672 200.73355035662956 460.6704010533327 183.26644964337044 474.1373747612245"/><polygon points="231.5200372112662 418.47853473787285 237.8132961220671 418.5214409453401 254.13268668969164 477.4785590546598 215.20064664364168 477.52146526212704"/><polygon points="261.67386628539884 456.18923348306026 292.9928003812678 420.60585836486985 275.0644798082149 475.39414163513004 279.6021868584517 439.8107665169396"/><polygon points="316.39244670824064 415.7025281984499 323.60755329175925 448.00054225766905 338.70974404605295 447.99945774233083 301.29025595394694 480.29747180155"/><polygon points="349.2387419645598 448.0401994989581 376.0945913687735 411.2468838764879 353.4807527245467 484.753116123512 371.8525806087866 447.9598005010418"/><polygon points="391.14998650621203 426.3970740156339 419.5166801604546 422.7810820664152 405.3277342693041 473.2189179335847 405.33893239736256 469.602925984366"/><polygon points="430.96344940941805 415.2782879026725 465.03655059058184 458.36280836941853 452.24789230265424 437.63719163058136 443.75210769734565 480.7217120973274"/><polygon points="454.8426179694321 443.8321940990814 526.4907153639011 455.3082761176737 515.2902616789908 440.6917238823262 466.04307165434255 452.1678059009185"/><polygon points="10.666666666666666 500.2981771527286 32 477.90103469794974 32 503.4322986353835 10.666666666666666 481.03515618060464"/><polygon points="52.35756007854049 463.1787699050204 75.64243992145951 458.4974067321225 76.83353714072686 522.8359266012108 51.166462859273146 518.1545634283129"/><polygon points="99.70757030039005 459.4810781358983 113.62576303294327 507.60855032558294 117.13799860954305 473.7247830077503 96.19533472379027 521.8522551974349"/><polygon points="138.5412661325053 493.2288307117636 160.12540053416137 486.347955732094 167.14848749455317 494.98537760123924 131.51817917211352 488.1045026215697"/><polygon points="176.72028063268917 464.36614418267095 207.27971936731083 496.4673011027045 201.8021113749546 484.8660322306288 182.1978886250454 516.9671891506623"/><polygon points="223.96054075792654 456.18151848425435 245.37279257540678 476.62942534871837 256.3697056980151 504.7039079846149 212.96362763531826 525.1518148490788"/><polygon points="252.88443424766456 473.3418369845142 301.78223241900207 480.654505792055 276.4539311070898 500.6788275412783 278.21273555957686 507.99149634881906"/><polygon points="305.3386323224535 476.53580250591176 334.66136767754637 486.5879494272273 321.70628953167375 494.745383906106 318.29371046832614 504.7975308274215"/><polygon points="339.9311883915425 466.4383095497613 385.40214494179077 497.941588876795 355.9479695350724 483.3917444565383 369.38536379826087 514.8950237835719"/><polygon points="382.79423053074856 452.12529301634936 427.87243613591806 483.16902541294104 392.07526364738806 498.1643079203922 418.5914030192786 529.2080403169839"/><polygon points="441.0899319715717 506.37879764182475 454.9100680284282 505.6810199683769 464.97820692841157 475.65231336495634 431.0217930715883 474.9545356915085"/><polygon points="506.12934575457683 454.8713243486324 475.2039875787564 466.54186566745415 502.8118345838118 514.791467665879 478.52149874952147 526.4620089847009"/>
</svg>
