<?xml version="1.0" encoding="UTF-8"?>
<svg xmlns="http://www.w3.org/2000/svg" id="RSSicon" viewBox="0 0 512 512" width="512" height="512">
  <defs>
    <style type="text/css">
      svg {
        background: black;
        margin: calc(50vh - 256px) auto 0;
      }
      
      polygon {stroke: darkorange; fill: none;}
    </style>
  </defs>
  <polygon points="10.666666666666666 10.666666666666666 32 10.666666666666666 32 32 10.666666666666666 32"/><polygon points="50.715643320915596 10.666666666666666 77.2843566790844 10.666666666666666 74.92504888373584 32 53.07495111626416 32"/><polygon points="100.02298104585168 10.666666666666666 113.31035228748163 10.666666666666666 121.39009627666599 32 91.94323705666733 32"/><polygon points="132.0991888322241 10.666666666666666 166.5674778344426 10.666666666666666 153.2971290658666 32 145.36953760080007 32"/><polygon points="185.9903653156136 10.666666666666666 198.0096346843864 10.666666666666666 195.78588289655139 32 188.21411710344861 32"/><polygon points="211.09113975806696 10.666666666666666 258.24219357526636 10.666666666666666 245.73473268277542 32 223.5986006505579 32"/><polygon points="268.05100685886174 10.666666666666666 286.6156598078049 10.666666666666666 282.52715177310733 32 272.1395148935593 32"/><polygon points="322.36975841042135 10.666666666666666 317.63024158957853 10.666666666666666 326.20641996246934 32 313.79358003753055 32"/><polygon points="350.0088901457352 10.666666666666666 375.32444318759804 10.666666666666666 362.58172682637166 32 362.7516065069616 32"/><polygon points="417.4051513555744 10.666666666666666 393.26151531109224 10.666666666666666 399.33826357561503 32 411.3284030910516 32"/><polygon points="453.57785892254094 10.666666666666666 442.42214107745895 10.666666666666666 477.6998780089935 32 418.3001219910064 32"/><polygon points="477.24530497558663 10.666666666666666 504.0880283577466 10.666666666666666 522.9980671190306 32 458.3352662143027 32"/><polygon points="10.666666666666666 51.98425980356427 32 54.51060946240676 32 73.48939053759324 10.666666666666666 76.01574019643573"/><polygon points="53.097428297647824 54.24848455130914 74.90257170235218 52.890969125404965 74.62289087635543 75.10903087459504 53.37710912364458 73.75151544869087"/><polygon points="91.32251854427474 53.421146316595014 122.01081478905857 54.096378172119216 113.65444624902086 73.90362182788078 99.67888708431245 74.57885368340499"/><polygon points="145.46413974086786 52.74068716152445 153.20252692579882 52.18212935684384 158.10224520361035 75.81787064315617 140.56442146305633 75.25931283847555"/><polygon points="187.31878679183836 51.29232442725348 196.68121320816164 52.94843183132862 208.39605233180038 75.05156816867138 175.60394766819962 76.70767557274652"/><polygon points="236.87428435166086 50.99786160875078 232.45904898167245 51.87441298319057 244.72900440113392 76.12558701680943 224.6043289321994 77.00213839124922"/><polygon points="269.3148415650645 55.02162773874366 285.3518251016021 55.898888964232746 296.2895604143604 72.10111103576725 258.37710625230625 72.97837226125634"/><polygon points="323.10813057172413 53.65689701546951 316.89186942827575 52.518193832457065 321.9479583710509 75.48180616754294 318.052041628949 74.34310298453049"/><polygon points="345.3705430664 55.585231097899175 379.96279026693327 50.70869090485064 372.10654601559844 77.29130909514936 353.2267873177348 72.41476890210083"/><polygon points="381.6970073281138 55.6085719016682 428.96965933855284 54.09313757760188 393.61300395732513 73.90686242239812 417.0536627093415 72.3914280983318"/><polygon points="427.6893972421173 54.22994827917687 468.3106027578826 51.10482833843657 484.0317587129162 76.89517166156344 411.9682412870837 73.77005172082313"/><polygon points="498.83282934660906 54.2342640064803 482.5005039867242 52.9169980190348 476.7725834629242 75.08300198096521 504.56074987040904 73.7657359935197"/><polygon points="10.666666666666666 96.14226924999097 32 94.73798957303909 32 118.59534376029423 10.666666666666666 117.19106408334234"/><polygon points="55.01057040257183 90.97289493895317 72.98942959742817 97.38079014695512 76.47987365924743 115.9525431863782 51.520126340752576 122.36043839438014"/><polygon points="93.00897305155569 99.32062700711082 120.32436028177763 96.46722020263948 115.3497513526899 116.86611313069383 97.98358198064341 114.0127063262225"/><polygon points="133.56144213915113 100.95678116663944 165.10522452751556 99.2142219124941 155.23419746082428 114.11911142083922 143.4324692058424 112.37655216669387"/><polygon points="173.2634483804685 98.58601814565509 210.7365516195315 92.60262471694597 196.25967552407252 120.73070861638735 187.74032447592748 114.74731518767823"/><polygon points="215.01393634062495 99.302973153849 254.31939699270836 95.10640201038869 249.50867623736664 118.22693132294462 219.82465709596667 114.03036017948432"/><polygon points="255.13121714414427 93.40458810607282 299.53544952252236 92.85026753235802 291.08009925592256 120.4830658009753 263.58656741074407 119.92874522726049"/><polygon points="305.2761875833701 93.71869672079077 334.7238124166298 96.48968108886162 344.34391758340865 116.8436522444717 295.65608241659123 119.61463661254254"/><polygon points="364.34294327042875 99.32248377030047 360.9903900629045 98.9116435431503 365.67379426408223 114.42168979018301 359.659539069251 114.01084956303285"/><polygon points="373.1156416286367 92.31446575813834 437.55102503802993 92.80624161988368 433.72060367475234 120.52709171344964 376.9460629919143 121.01886757519497"/><polygon points="439.38608302659 94.2157426659299 456.6139169734099 98.44107032915855 472.5110938974668 114.89226300417477 423.48890610253306 119.11759066740342"/><polygon points="497.55678573902225 93.09858741527648 483.776547594311 90.95266567717584 473.2379738296173 122.38066765615747 508.09535950371594 120.23474591805683"/><polygon points="10.666666666666666 137.7135333150928 32 137.49941776566288 32 161.1672489010038 10.666666666666666 160.95313335157388"/><polygon points="52.13357122406918 139.9333936335911 75.86642877593083 144.76154901090217 72.80373824816513 153.9051176557645 55.19626175183487 158.7332730330756"/><polygon points="94.01846365441253 140.23141955077955 119.31486967892079 140.85340870347642 115.9969350029136 157.81325796319027 97.33639833041971 158.43524711588714"/><polygon points="136.16413434178384 139.31168714679612 162.50253232488285 143.77397115268545 165.01842509153977 154.89269551398124 133.64824157512692 159.35497951987057"/><polygon points="176.28388147969622 144.6066906688179 207.71611852030378 138.64148044893435 201.70618923611437 160.02518621773234 182.29381076388563 154.0599759978488"/><polygon points="230.86709470982203 136.07056663440315 238.4662386235113 134.4262239443421 240.51177461659057 164.2404427223246 228.82155871674274 162.59610003226354"/><polygon points="258.5161565440081 146.10070664769 296.15051012265855 137.20169336456303 286.28855410896443 161.46497330210366 268.3781125577022 152.56596001897668"/><polygon points="319.9008612557836 144.58357396463845 320.0991387442163 145.37969066445214 317.65264912663366 153.28697600221454 322.3473508733662 154.08309270202824"/><polygon points="354.7146740378818 136.38516513785825 370.61865929545144 134.76436575564767 376.13614074189167 163.902300911019 349.1971925914416 162.28150152880843"/><polygon points="414.48492558656875 132.653728583808 396.1817410800979 133.83112250977717 436.07072323817823 164.8355441568895 374.5959434284884 166.01293808285868"/><polygon points="457.8468155299525 142.49194672123676 438.1531844700474 132.42512021333638 481.33490008081856 166.2415464533303 414.66509991918133 156.17471994542993"/><polygon points="468.3034381342009 135.14791760389042 513.0298951991324 132.01499959355178 496.71317427900885 166.6516670731149 484.6201590543244 163.51874906277627"/><polygon points="10.666666666666666 182.02030045282126 32 186.5317718755377 32 197.4682281244623 10.666666666666666 201.97969954717874"/><polygon points="53.41085449405243 177.5728058718269 74.58914550594757 176.01824726731843 77.06333677576536 207.98175273268157 50.93666322423464 206.4271941281731"/><polygon points="95.63976063127602 175.2476654212008 117.6935727020573 174.85743602687035 116.4947270278716 209.14256397312965 96.83860630546171 208.7523345787992"/><polygon points="134.28466788582568 178.66847335969567 164.381998780841 176.752351021845 162.21259685233952 207.247648978155 136.45406981432717 205.33152664030433"/><polygon points="176.60025869488294 179.1282639080806 207.39974130511706 190.77557837387099 207.3596740852812 193.22442162612901 176.6403259147188 204.8717360919194"/><polygon points="233.0598118317198 191.2415537965294 236.27352150161352 170.87842990828352 251.40604719426503 213.12157009171648 217.9272861390683 192.7584462034706"/><polygon points="271.5814306002072 176.37999440562325 283.0852360664594 180.33206957157614 299.1406106167527 203.66793042842386 255.52605604991388 207.62000559437675"/><polygon points="297.1653666964016 190.0173866684139 342.8346333035983 189.11429147368898 348.0070199167391 194.88570852631102 291.99298008326076 193.9826133315861"/><polygon points="362.4014252461375 189.37703835661495 362.9319080871958 184.05270531557443 359.5104240575626 199.94729468442557 365.82290927577066 194.62296164338505"/><polygon points="374.35888191554074 180.4436512615187 436.3077847511259 173.3630267014708 404.5098122140504 210.6369732985292 406.15685445261624 203.5563487384813"/><polygon points="433.3493585285535 182.9562222139187 462.65064147144636 186.65155850483774 480.7417862421146 197.34844149516226 415.2582137578853 201.0437777860813"/><polygon points="476.8996750116924 185.19994707713764 504.43365832164085 183.74453831570935 511.80075193130375 200.25546168429065 469.5325814020295 198.80005292286236"/><polygon points="10.666666666666666 231.5702621861927 32 213.0854972359155 32 256.2478360974178 10.666666666666666 237.7630711471406"/><polygon points="51.251435346134336 221.1941993413363 76.74856465386567 225.62098289586658 73.11921774527202 243.71235043746674 54.880782254727976 248.13913399199703"/><polygon points="99.71193900143065 231.8777459912785 113.62139433190266 210.73738160434092 120.18204905646189 258.5959517289924 93.15128427687142 237.45558734205483"/><polygon points="137.3100464836815 230.78738807396473 161.35662018298518 214.2342538119021 167.76896732434432 255.0990795214312 130.89769934232237 238.54594525936858"/><polygon points="188.5951511727037 227.23199721816923 195.4048488272963 219.2877606258891 204.69030968760438 250.04557270744422 179.30969031239562 242.1013361151641"/><polygon points="237.03978215102197 230.00917843936202 232.29355118231135 226.95574747910328 234.5625144942132 242.37758585423003 234.77081883912012 239.3241548939713"/><polygon points="277.30676401797484 226.6228135864509 277.3599026486918 223.44587581907416 288.8302985815929 245.88745751425915 265.83636808507373 242.71051974688243"/><polygon points="294.1466309555713 212.9367786139965 345.8533690444286 213.38700516893735 332.9721113069092 255.94632816439596 307.0278886930907 256.3965547193368"/><polygon points="369.469469765539 217.0389366532046 355.8638635677943 236.45119400623844 384.5661930758992 232.88213932709488 340.76714025743405 252.29439668012873"/><polygon points="376.55784382488554 220.18288581221302 434.1088228417811 224.7894722045391 408.58105341428814 244.54386112879422 402.0856132523785 249.1504475211203"/><polygon points="456.5866698333079 226.31090801230482 439.413330166692 219.55834798447137 440.79105489617416 249.77498534886195 455.2089451038257 243.0224253210285"/><polygon points="485.14275295454064 217.3481932062922 496.1905803787926 215.46383543851988 487.09484069283457 253.86949789481343 494.2384926404987 251.98514012704112"/><polygon points="10.666666666666666 252.19248398891065 32 269.7105221794646 32 284.95614448720204 10.666666666666666 302.47418267775595"/><polygon points="51.375126748207805 267.288478513024 76.6248732517922 261.749418780031 76.58316134666558 292.9172478866356 51.41683865333443 287.3781881536426"/><polygon points="98.21563947960817 254.26403659472632 115.11769385372514 270.75799965637674 113.61142929036589 283.9086670102899 99.72190404296742 300.4026300719403"/><polygon points="136.66974341293468 264.14257559390046 161.996923253732 275.8869725498654 160.0311594884142 278.77969411680124 138.63550717825248 290.52409107276617"/><polygon points="184.60869615333897 268.3172704934422 199.39130384666103 270.67997070185885 197.36476494966064 283.9866959648078 186.63523505033936 286.3493961732244"/><polygon points="233.96573368938857 270.6025144378071 235.36759964394474 276.50163106702604 239.32341774552503 278.1650355996406 230.00991558780828 284.06415222885954"/><polygon points="255.65988915556173 253.76052707846898 299.00677751110493 261.6582359782104 284.7993525972342 293.0084306884562 269.86731406943244 300.9061395881976"/><polygon points="317.79752997422827 273.4701310128812 322.2024700257716 274.1424021925124 340.71592107396646 280.5242644741542 299.28407892603343 281.1965356537854"/><polygon points="353.55394509524507 282.35575285241777 371.7793882380882 266.8279626679767 363.3937947064816 287.83870399868994 361.9395386268517 272.31091381424886"/><polygon points="406.82078984398356 280.54024639817237 403.84587682268307 278.4528382654384 435.0661018081856 276.2138284012282 375.60056485848105 274.12642026849426"/><polygon points="462.7154276622066 257.2346601150599 433.2845723377933 266.5550491174401 463.1445067358228 288.11161754922654 432.8554932641771 297.4320065516067"/><polygon points="493.6190354144379 267.48970385721447 487.71429791889534 263.6973170031866 522.4373949102429 290.96934966348005 458.89593842309034 287.17696280945216"/><polygon points="10.666666666666666 322.78659986579333 32 293.40589338190387 32 346.594106618096 10.666666666666666 317.21340013420655"/><polygon points="53.069606485110484 297.6169161089066 74.93039351488952 313.3098726098829 75.49260201889896 326.69012739011697 52.507397981101036 342.3830838910933"/><polygon points="100.9049977791777 316.0954896719354 112.42833555415561 317.8269909444664 120.22439526775688 322.1730090555335 93.10893806557644 323.9045103280645"/><polygon points="146.14806518256066 318.7958042573057 152.51860148410603 297.95075919829077 154.97347850172747 342.0492408017091 143.69318816493922 321.2041957426942"/><polygon points="186.0357344344429 312.47845698493023 197.9642655655571 290.7203490507306 198.49161879324836 349.2796509492693 185.50838120675164 327.52154301506965"/><polygon points="215.15253638901234 320.5799409851665 254.18079694432097 312.8617054922125 251.87829954491932 327.1382945077874 217.455033788414 319.4200590148334"/><polygon points="268.3712310699598 308.417159371077 286.29543559670685 320.97345426426097 272.8524930889743 319.0265457357389 281.8141735776923 331.5828406289229"/><polygon points="305.78696519444907 292.5534105299105 334.2130348055508 314.4868840113542 312.72979165270374 325.51311598864567 327.27020834729615 347.4465894700894"/><polygon points="368.7212613022906 309.4436375061282 356.61207203104266 321.2358525539763 371.62362196418036 318.76414744602357 353.7097113691529 330.5563624938717"/><polygon points="414.04105480708563 317.3068558444696 396.625611859581 327.47832233676695 392.6531161631379 312.52167766323294 418.01355050352873 322.69314415553026"/><polygon points="421.8589961260021 319.5385915967571 474.14100387399776 301.07496356469625 460.18396317213114 338.92503643530364 435.81603682786874 320.4614084032428"/><polygon points="462.36555961222496 300.52144592571574 518.9677737211083 315.91383870005404 510.4787313196845 324.08616129994584 470.85460201364873 339.47855407428415"/><polygon points="10.666666666666666 362.6608449882144 32 345.75120935081566 32 379.5821239825176 10.666666666666666 362.67248834511884"/><polygon points="51.20857326541913 364.96180497159247 76.79142673458087 340.679555578365 72.62531457783255 384.65377775496825 55.374685422167445 360.3715283617408"/><polygon points="98.09148716859819 372.6585971081346 115.24184616473512 353.4843643266672 116.42196545938414 371.84896900666604 96.91136787394917 352.67473622519867"/><polygon points="132.76260484771865 341.95288043909835 165.90406181894804 368.57998042102884 161.33380883490094 356.7533529123044 137.33285783176575 383.3804528942349"/><polygon points="189.69952247256086 369.2975101637654 194.30047752743914 339.562444909253 192.52921809713322 385.7708884240803 191.47078190286678 356.03582316956783"/><polygon points="215.11877091562673 353.40140071589525 254.2145624177066 331.662979329689 244.51869791460535 393.67035400364426 224.81463541872796 371.931932617438"/><polygon points="264.5567764026103 337.1647557437348 290.10989026405633 340.681602170121 290.69754356840446 384.6517311632123 263.9691230982622 388.16857758959844"/><polygon points="300.45801263415115 361.0545592582011 339.54198736584874 340.27969180617197 343.1402593627034 385.0536415271613 296.8597406372965 364.27877407513216"/><polygon points="372.3748215416238 340.4443866654621 352.95851179170944 335.44015283564795 364.0665412138136 389.8931804976853 361.26679211951966 384.88894666787115"/><polygon points="408.19530199948565 359.1799748657168 402.471364667181 339.6593342809245 393.11181870545397 385.67399905240876 417.55484796121266 366.15335846761644"/><polygon points="459.0280771598183 331.0998732111735 436.9719228401816 363.4308611487784 459.9933320705361 361.9024721845549 436.0066679294638 394.2334601221598"/><polygon points="467.36413800965624 361.9321147574928 513.969195323677 331.0883027173395 487.5034151728536 394.24503061599376 493.8299181604797 363.40121857584046"/><polygon points="10.666666666666666 389.1886451937897 32 395.6857052395563 32 414.98096142711034 10.666666666666666 421.47802147287695"/><polygon points="54.73673456018554 411.5855353581309 73.26326543981446 390.81315324241376 77.19774111137913 419.85351342425287 50.80225888862088 399.0811313085357"/><polygon points="92.28099860403752 381.9922574337323 121.0523347292958 388.8779090003208 119.81718029701199 421.7887576663458 93.51615303632133 428.67440923293435"/><polygon points="135.81435737354465 371.4580726260747 162.85230929312203 388.4795743056338 161.60611307501497 422.18709236103285 137.0605535916517 439.20859404059195"/><polygon points="178.21398770671664 407.8027145877037 205.78601229328336 389.5407270135555 197.39040084871198 421.1259396531111 186.60959915128802 402.86395207896294"/><polygon points="234.54756878215733 388.0972021571968 234.785764551176 411.3657917139054 255.93606936553576 399.3008749527612 213.39726396779756 422.5694645094698"/><polygon points="251.5379388395229 416.4460331868964 303.12872782714373 405.4764760133805 293.24721662947195 405.19019065328615 261.4194500371947 394.22063347977024"/><polygon points="307.03076449304956 398.0089728692741 332.9692355069503 388.87224739839337 343.6520204905691 421.79441926827326 296.3479795094308 412.65769379739254"/><polygon points="364.89193492566505 402.04030125244356 360.4413984076682 381.9428018132027 355.69186648105426 428.7238648534639 369.641466852279 408.6263654142231"/><polygon points="398.6803800392911 407.58894847495606 411.98628662737553 418.6389483451985 397.15986226568384 392.0277183214681 413.5068044009828 403.0777181917106"/><polygon points="438.0964227923132 414.29640593836916 457.9035772076867 397.06125231720205 470.13356946089016 413.6054143494646 425.86643053910973 396.37026072829747"/><polygon points="479.72023966067746 411.68589746698586 501.6130936726558 393.98473795473103 473.95497793376023 416.6819287119356 507.378355399573 398.98076919968076"/><polygon points="10.666666666666666 425.9681556999628 32 417.258912306875 32 478.7410876931249 10.666666666666666 470.0318443000371"/><polygon points="55.610527797456086 463.8190692512867 72.38947220254391 422.63626094191477 73.94196275708335 473.3637390580851 54.058037242916654 432.1809307487132"/><polygon points="92.19759082298751 453.5085513698324 121.1357425103458 417.73229818514346 119.22791197092455 478.2677018148564 94.10542136240876 442.4914486301675"/><polygon points="140.8903429978222 421.77683077171196 157.7763236688445 426.0863623569834 166.76232048084006 469.9136376430165 131.90434618582663 474.22316922828793"/><polygon points="189.16573210756118 447.0395839962725 194.83426789243882 425.28149706860455 194.0158269738525 470.71850293139534 189.9841730261475 448.9604160037274"/><polygon points="229.83358796823438 440.37485148375526 239.49974536509893 437.86008019543044 256.7915772025632 458.13991980456944 212.54175613077012 455.6251485162446"/><polygon points="263.9935250993 462.16653011147224 290.67314156736666 412.9049809401947 277.0291960799275 483.09501905980517 277.63747058673914 433.83346988852765"/><polygon points="311.63692554549317 425.48453241425506 328.3630744545067 434.0324480123923 327.378903973473 461.9675519876076 312.6210960265269 470.51546758574483"/><polygon points="358.5776431134824 424.0642178236858 366.75569021985086 413.07452455807356 393.43172772096597 482.9254754419263 331.9016056123673 471.9357821763141"/><polygon points="373.81485684105985 447.19011499684325 436.8518098256068 425.1902790049842 423.13067684210114 470.8097209950157 387.5359898245655 448.80988500315664"/><polygon points="410.9773172636718 449.09480786194325 485.0226827363281 463.2655713472565 480.2347130417754 432.73442865274336 415.76528695822446 446.90519213805663"/><polygon points="499.8910777936532 452.23153131247267 481.44225553968005 428.8252630976246 482.4637944647659 467.1747369023753 498.86953886856736 443.7684686875272"/><polygon points="10.666666666666666 480.8761703345831 32 491.3203811317356 32 490.01295220159767 10.666666666666666 500.45716299875016"/><polygon points="52.15022996700265 478.7198022368391 75.84977003299736 488.70729416661726 73.52229655858073 492.626039166716 54.477703441419266 502.61353109649417"/><polygon points="95.52018153378629 495.3653219836352 117.81315179954703 482.8642892087741 114.71132909455541 498.46904412455916 98.6220042387779 485.96801134969803"/><polygon points="136.4913802516387 481.7292637689125 162.17528641502798 475.7086077554674 166.15082401642795 505.62472557786583 132.51584265023874 499.60406956442074"/><polygon points="185.62628113555814 493.44653594616943 198.37371886444186 475.6965860024316 195.45594311095246 505.63674733090164 188.54405688904754 487.8867973871638"/><polygon points="236.19535925332988 454.14790884201614 233.13797408000343 456.5128022263422 257.2381007921865 524.8205311069911 212.0952325411468 527.1854244913171"/><polygon points="263.46640057840517 506.6209068345083 291.20026608826146 490.1467253988099 301.9412936835829 491.18660793452335 252.7253729830837 474.712426498825"/><polygon points="296.0828502570448 469.3173410304254 343.9171497429551 454.6595065213763 312.6213245791449 526.673826811957 327.37867542085496 512.0159923029079"/><polygon points="341.53965592241195 469.87011029242626 383.7936774109213 500.8758840582353 358.4403951232805 480.457449275098 366.89293821005276 511.463223040907"/><polygon points="383.81612994141494 503.97252340606025 426.8505367252517 497.4739427562112 397.7349931040409 483.85939057712204 412.93167356262575 477.360809927273"/><polygon points="431.6874878428608 473.41647132167554 464.3125121571391 502.7962350037973 471.6904347817574 478.537098329536 424.3095652182425 507.9168620116577"/><polygon points="498.2425942169371 461.8619150879151 483.09073911639615 468.1141201659289 509.10630866235795 513.2192131674043 472.2270246709753 519.4714182454181"/>
</svg>
