<?xml version="1.0" encoding="UTF-8"?>
<svg xmlns="http://www.w3.org/2000/svg" id="RSSicon" viewBox="0 0 512 512" width="512" height="512">
  <defs>
    <style type="text/css">
      svg {
        background: black;
        margin: calc(50vh - 256px) auto 0;
      }
      
      polygon {stroke: darkorange; fill: none;}
    </style>
  </defs>
  <polygon points="10.666666666666666 10.666666666666666 32 10.666666666666666 32 32 10.666666666666666 32"/><polygon points="52.98205068574531 10.666666666666666 75.0179493142547 10.666666666666666 74.30269407765205 32 53.69730592234795 32"/><polygon points="100.68781563011862 10.666666666666666 112.6455177032147 10.666666666666666 117.05956210983632 32 96.273771223497 32"/><polygon points="145.152074858044 10.666666666666666 153.5145918086227 10.666666666666666 163.07590166512927 32 135.59076500153742 32"/><polygon points="186.88898103796222 10.666666666666666 197.11101896203778 10.666666666666666 203.67853412583779 32 180.32146587416221 32"/><polygon points="218.40712507551677 10.666666666666666 250.92620825781654 10.666666666666666 243.115828997849 32 226.2175043354843 32"/><polygon points="258.9055917732404 10.666666666666666 295.7610748934262 10.666666666666666 302.29525162928206 32 252.37141503738457 32"/><polygon points="317.18748285312546 10.666666666666666 322.8125171468744 10.666666666666666 347.12123116530466 32 292.8787688346952 32"/><polygon points="343.82237416743226 10.666666666666666 381.510959165901 10.666666666666666 355.79822023036894 32 369.5351131029643 32"/><polygon points="395.93264826657963 10.666666666666666 414.734018400087 10.666666666666666 419.9637600468336 32 390.702906619833 32"/><polygon points="432.4115573991635 10.666666666666666 463.5884426008364 10.666666666666666 461.57134528876054 32 434.42865471123935 32"/><polygon points="497.06694162892364 10.666666666666666 484.2663917044096 10.666666666666666 484.1345974411907 32 497.19873589214257 32"/><polygon points="10.666666666666666 51.27228903692803 32 55.624974501274366 32 72.37502549872563 10.666666666666666 76.72771096307197"/><polygon points="52.33501794404857 51.70912078988171 75.66498205595143 51.8141508408259 74.47288963369348 76.1858491591741 53.527110366306516 76.29087921011829"/><polygon points="98.29685215789593 54.12553733103472 115.03648117543739 51.833816422833245 116.88276866705242 76.16618357716676 96.4505646662809 73.87446266896528"/><polygon points="139.67078298407475 53.66850421829878 158.99588368259194 52.009157692854416 166.10698295898283 75.99084230714558 132.55968370768386 74.33149578170122"/><polygon points="180.6214349398859 50.73971379924759 203.3785650601141 55.68103958670016 206.23343624895185 72.31896041329983 177.76656375104815 77.26028620075242"/><polygon points="215.0695602468636 53.28363205842926 254.2637730864697 53.21484386126738 254.18741579787255 74.78515613873262 215.14591753546077 74.71636794157074"/><polygon points="268.795503303551 55.04612809762558 285.8711633631156 52.924660371801366 280.4336814922877 75.07533962819863 274.23298517437894 72.95387190237443"/><polygon points="312.28053149007354 53.327928880639845 327.71946850992634 53.62735007975303 324.43613129768283 74.37264992024697 315.56386870231705 74.67207111936015"/><polygon points="369.77121381004866 53.52485779313143 355.5621195232846 50.77722927963444 374.60739080523615 77.22277072036556 350.7259425280971 74.47514220686857"/><polygon points="387.3482337518397 53.798270414044765 423.31843291482693 51.50171102602509 414.43583139161177 76.49828897397491 396.23083527505486 74.20172958595523"/><polygon points="420.51275354127915 55.93919879759798 475.48724645872073 55.9038668174137 454.1811340297444 72.0961331825863 441.8188659702555 72.06080120240202"/><polygon points="489.1675882632812 54.73467036119565 492.1657450700521 51.959124734289894 517.5262485967871 76.04087526571011 463.8070847365462 73.26532963880436"/><polygon points="10.666666666666666 100.56248885205675 32 92.21289881440202 32 121.12043451893129 10.666666666666666 112.77084448127657"/><polygon points="55.13494383228605 96.65959356575445 72.86505616771396 96.17522106310372 74.82069579459628 117.1581122702296 53.17930420540373 116.67373976757887"/><polygon points="93.84187404616898 99.30354821328028 119.49145928716433 98.95851303790178 118.87390156347286 114.37482029543153 94.45943176986046 114.02978512005303"/><polygon points="145.81056359130562 98.2206007640969 152.85610307536106 97.59318181729367 164.3276758359338 115.74015151603965 134.33899083073288 115.11273256923641"/><polygon points="185.26431580224997 100.591515735514 198.73568419775003 100.9018088825616 207.38524621255158 112.43152445077172 176.61475378744842 112.74181759781932"/><polygon points="235.33024014539149 91.83646141215169 234.00309318794183 98.491429531942 250.4344363234918 114.84190380139131 218.8988970098415 121.49687192118162"/><polygon points="266.91154527500174 100.86383032064559 287.7551213916649 100.35186423496955 300.8073950090871 112.98146909836376 253.85927165757954 112.46950301268772"/><polygon points="327.46299195205796 100.37001671769904 312.5370080479419 93.05026158925767 330.13069271596754 120.28307174407564 309.86930728403235 112.96331661563427"/><polygon points="348.90643739514275 98.48505139289854 376.4268959381905 92.50988911005842 371.45080889019914 120.82344422327489 353.8825244431341 114.84828194043477"/><polygon points="418.10617140465916 91.14112708152997 392.56049526200746 93.48627392151946 435.56055136474544 119.84705941181386 375.1061153019212 122.19220625180334"/><polygon points="457.3049045964686 95.03850422602441 438.6950954035313 94.55913076004839 463.6918957030532 118.77420257328492 432.3081042969467 118.2948291073089"/><polygon points="454.3860243698573 94.04518777264126 526.947308963476 94.7530342191474 529.285202625553 118.58029911418592 452.04813070778033 119.28814556069206"/><polygon points="10.666666666666666 134.82579821877601 32 132.6097745845989 32 166.05689208206778 10.666666666666666 163.84086844789067"/><polygon points="51.00084589050643 131.64300410335687 76.99915410949357 140.08898539106497 76.10539617787575 158.57768127560172 51.89460382212425 167.0236625633098"/><polygon points="98.08308552607386 141.6925848474174 115.25024780725946 135.94137537996684 116.02808809887217 162.72529128669984 97.30524523446114 156.97408181924928"/><polygon points="133.21582836904318 133.8907711845549 165.4508382976235 145.3960575941062 164.92854849644704 153.2706090725605 133.73811817021965 164.7758954821118"/><polygon points="172.9490833473694 141.3173917529198 211.0509166526306 134.93620041079689 199.91896547926632 163.7304662558698 184.08103452073368 157.34927491374688"/><polygon points="220.4741952538065 143.6933462578173 248.85913807952682 142.3227163047991 242.6311413679176 156.3439503618676 226.70219196541572 154.9733204088494"/><polygon points="266.66972467607457 135.95113137578832 287.99694199059206 138.30616843399895 297.380329601578 160.36049823266774 257.2863370650886 162.71553529087836"/><polygon points="317.73707692827134 139.2266018447599 322.26292307172855 137.95540451040293 341.5744106802729 160.71126215626376 298.425589319727 159.4400648219068"/><polygon points="372.8634426696638 145.6595606480126 352.46989066366945 138.9780886796565 363.98891363806445 159.68857798701018 361.3444196952688 153.0071060186541"/><polygon points="371.7223167510506 135.74827031354837 438.94434991561604 145.23049800398596 405.2460102354954 153.43616866268073 405.4206564311712 162.9183963531183"/><polygon points="441.7599701627728 137.1245869453691 454.2400298372271 142.34863362471805 463.7247681701569 156.31803304194864 432.275231829843 161.5420797212976"/><polygon points="508.8940026063407 144.9106769296503 472.4393307269926 132.4518478812514 477.091846152377 166.21481878541528 504.24148718095626 153.7559897370164"/><polygon points="10.666666666666666 177.63452069589295 32 171.1167617308554 32 212.8832382691446 10.666666666666666 206.36547930410705"/><polygon points="53.057649428546384 176.9558899884799 74.94235057145362 180.85524313336302 74.80040470719635 203.14475686663698 53.19959529280366 207.0441100115201"/><polygon points="94.45526040211442 179.30804005374085 118.8780729312189 180.44560718510843 114.12181226263348 203.55439281489157 99.21152107069983 204.69195994625915"/><polygon points="139.2312632098635 185.00551939262783 159.4354034568032 187.35003860489238 157.77692122356402 196.64996139510762 140.88974544310267 198.99448060737217"/><polygon points="177.33681292988803 191.10978044478588 206.66318707011197 187.81349491783158 212.07062869779546 196.18650508216842 171.92937130220454 192.89021955521412"/><polygon points="223.55262732153057 174.40393983010944 245.78070601180275 181.54781032213697 247.9562390826508 202.45218967786303 221.37709425068252 209.59606016989056"/><polygon points="260.3974698227019 177.5699249666202 294.2691968439647 175.7111348435248 273.0771793062158 208.2888651564752 281.58948736045085 206.4300750333798"/><polygon points="318.5679080911787 172.87451070190204 321.4320919088212 173.6599708744962 344.2424623410813 210.3400291255038 295.7575376589186 211.12548929809796"/><polygon points="365.5623668106309 191.27123520732385 359.77096652270234 177.18033532958336 393.70734079931964 206.81966467041664 331.6259925340136 192.72876479267615"/><polygon points="391.06005056831475 191.93064083410323 419.6066160983519 178.75639921806882 399.43508169738107 205.24360078193118 411.23158496928556 192.06935916589677"/><polygon points="412.37479714242585 179.161112594714 483.62520285757404 190.90939597484137 452.99813483875835 193.09060402515863 443.00186516124154 204.838887405286"/><polygon points="463.326113431836 189.0288342788742 518.0072199014973 172.52325846473616 511.49566145645184 211.47674153526384 469.8376718768814 194.9711657211258"/><polygon points="10.666666666666666 219.59973591929528 32 223.48477704208898 32 245.84855629124434 10.666666666666666 249.73359741403803"/><polygon points="52.73594024164519 234.9661958751037 75.26405975835482 230.09849603427875 73.77305976315621 239.23483729905456 54.22694023684379 234.36713745822962"/><polygon points="97.21100050954847 230.1190116051292 116.12233282378484 220.54650620829298 118.2197340521472 248.78682712504033 95.11359928118611 239.2143217282041"/><polygon points="136.95951013370274 229.90415163401514 161.70715653296395 230.96472642864936 167.7429068676406 238.36860690468396 130.92375979902607 239.42918169931818"/><polygon points="181.84805616662055 232.38845437348579 202.15194383337945 212.00577382680072 204.3318501046972 257.3275595065326 179.6681498953028 236.94487895984753"/><polygon points="229.88053336588868 231.34655522041604 239.45279996744463 231.87873059088537 249.23442032343493 237.45460274244795 220.09891300989838 237.98677811291728"/><polygon points="265.0699598306365 219.24282747024336 289.59670683603014 210.9314808549643 303.010867498547 258.40185247836905 251.65579916811961 250.09050586308996"/><polygon points="323.6980364104476 217.47373526948522 316.30196358955226 215.65873110621285 316.81799416668537 253.67460222712046 323.1820058333145 251.8595980638481"/><polygon points="360.2459678727184 220.21871557275335 365.0873654606149 217.8411001245776 373.2656940882047 251.49223320875572 352.06763924512853 249.11461776057996"/><polygon points="397.43854752672297 233.02848915174644 413.22811913994366 236.9201028214927 403.7946094538232 232.41323051184062 406.8720572128434 236.30484418158687"/><polygon points="460.3529830036508 230.01034377730497 435.64701699634907 227.36380546159867 449.89287572565354 241.96952787173464 446.10712427434635 239.32298955602835"/><polygon points="486.27848386061606 232.12202760134446 495.0548494727172 232.75657876024903 507.2555293445915 236.5767545730843 474.0778039887418 237.21130573198886"/><polygon points="10.666666666666666 268.5711930622002 32 266.77077285533653 32 287.8958938113301 10.666666666666666 286.0954736044664"/><polygon points="51.79077429269943 267.44096704923464 76.20922570730058 256.71107198638623 76.64805185018575 297.9555946802804 51.35194814981425 287.225699617432"/><polygon points="95.32461611158612 264.50516837559394 118.00871722174719 269.8658720151406 116.85396125418968 284.800794651526 96.47937207914363 290.1614982910727"/><polygon points="132.6702147083579 251.50765385933613 165.9964519583088 264.6194142262065 161.5461191984408 290.0472524404601 137.12054746822588 303.1590128073305"/><polygon points="181.80416502036252 259.2848943689437 202.19583497963748 270.8251498987065 201.9906914106595 283.8415167679601 182.0093085893405 295.38177229772293"/><polygon points="228.02516861739056 254.24540623907447 241.30816471594275 276.5708371774352 257.38492930079855 278.09582948923145 211.94840403253477 300.42126042759213"/><polygon points="274.8156611464042 276.041593307626 279.85100552026245 269.5232003735554 283.59631071325316 285.1434662931112 271.07035595341347 278.62507335904064"/><polygon points="321.2312909743508 259.41202422074883 318.76870902564906 258.35300934099007 315.83052182938815 296.31365732567656 324.16947817061174 295.2546424459178"/><polygon points="337.14952083705623 261.0962713306354 388.183812496277 261.5243226804455 377.7538194469799 293.14234398622114 347.57951388635337 293.57039533603125"/><polygon points="385.57418401391726 276.87319737148204 425.09248265274937 278.22754307767684 419.1732123820792 276.4391235889898 391.4934542845874 277.7934692951846"/><polygon points="412.91154432455465 264.5159659848883 483.08845567544523 252.2683313029467 451.13664658466064 302.3983353637199 444.86335341533925 290.15070068177835"/><polygon points="472.61336811161055 257.4085161931475 508.7199652217227 280.49292857209156 515.3933240618991 274.17373809457507 465.9400092714342 297.25815047351915"/><polygon points="10.666666666666666 299.3079249969499 32 323.9183256246428 32 316.08167437535707 10.666666666666666 340.69207500305"/><polygon points="51.12931120169309 319.99889667225017 76.87068879830692 326.998060478892 75.17368143610682 313.0019395211079 52.82631856389319 320.0011033277497"/><polygon points="99.11242717617824 321.80287061757787 114.22090615715507 305.7095174981603 117.1117317160791 334.29048250183956 96.22160161725421 318.197129382422"/><polygon points="144.6749884461344 312.9601636702078 153.9916782205323 296.14185184375407 163.07321317375863 343.8581481562458 135.59345349290805 327.0398363297921"/><polygon points="187.12126587004957 304.20232909246124 196.87873412995043 327.9198814501274 204.85457869267654 312.0801185498725 179.14542130732346 335.79767090753865"/><polygon points="228.3376897202634 293.312562869638 240.99564361306992 301.5508352868423 233.86823738660607 338.4491647131576 235.46509594672725 346.6874371303619"/><polygon points="262.36576705892156 316.82444222506035 292.30089960774507 305.497641763162 303.7123988193534 334.5023582368379 250.95426784731322 323.17555777493953"/><polygon points="296.4439606733214 294.95084292485797 343.5560393266785 312.03496504114287 337.69407513640977 327.965034958857 302.3059248635901 345.0491570751419"/><polygon points="343.44481694467106 322.3764357258084 381.8885163886622 323.8366696364822 386.9763146242152 316.1633303635177 338.35701870911805 317.6235642741915"/><polygon points="383.7100161289136 292.60788008006523 426.95665053775303 300.87070879223074 415.7993004515546 339.12929120776914 394.86736621511204 347.39211991993466"/><polygon points="439.67594090675834 327.65696233440593 456.32405909324154 322.0145414358575 451.38290232262864 317.9854585641424 444.61709767737125 312.34303766559395"/><polygon points="485.6973242302195 293.89195786282977 495.63600910311374 293.92633403188205 501.68667199273267 346.07366596811784 479.6466613406006 346.1080421371701"/><polygon points="10.666666666666666 356.6226837918713 32 361.3820260495692 32 363.95130728376404 10.666666666666666 368.710649541462"/><polygon points="53.21582826295972 369.00680105114606 74.78417173704028 370.26724396035144 75.8462652484188 355.0660893729818 52.153734751581204 356.3265322821872"/><polygon points="91.31915238165682 367.1110749362895 122.0141809516765 362.76667480674547 117.47074805848986 362.5666585265878 95.86258527484345 358.22225839704373"/><polygon points="133.89593294887868 367.84051601542103 164.770733717788 362.09060779252616 162.74887328859947 363.2427255408071 135.91779337806722 357.4928173179122"/><polygon points="189.97745529024712 347.779186201392 194.02254470975288 350.37514149530597 197.21954027517853 374.9581918380273 186.78045972482147 377.55414713194125"/><polygon points="212.9178486976258 332.5700043184533 256.4154846357075 365.88675212538726 249.5068369371861 359.446581207946 219.8264963961472 392.76332901487996"/><polygon points="250.9759452556476 334.2812844237824 303.690721411019 346.85744585772414 279.56133335392155 378.4758874756091 275.1053333127451 391.0520489095509"/><polygon points="324.8914832875606 348.3626804680413 315.10851671243927 344.4867735663805 324.3897799235073 380.84655976695274 315.61022007649257 376.970652865292"/><polygon points="335.01650945284695 353.2187693841476 390.3168238804863 360.5716567581397 373.58051101760327 364.7616765751936 351.75282231573 372.11456394918565"/><polygon points="374.52009178356354 333.65105036983414 436.1465748831031 340.2094983138237 433.2891779835588 385.12383501950956 377.37748868310786 391.6822829634991"/><polygon points="456.31451515334754 356.87647245575323 439.68548484665234 369.5618290954026 462.7610437764234 355.7715042379307 433.2389562235765 368.45686087758"/><polygon points="458.6006439217843 367.70804893970137 522.732689411549 343.9465630897239 504.6134732175895 381.38677024360936 476.71986011574376 357.6252843936319"/><polygon points="10.666666666666666 395.7315780352953 32 400.6884189609519 32 409.97824770571475 10.666666666666666 414.93508863137134"/><polygon points="54.82949908404815 416.1353284599277 73.17050091595185 405.28866688403474 75.34263711637362 405.3779997826319 52.65736288362638 394.53133820673895"/><polygon points="90.8188869384358 375.52755402113513 122.51444639489752 416.9265685103512 115.10717095614373 393.7400981563154 98.22616237718958 435.1391126455315"/><polygon points="137.87388901303737 414.34676477816845 160.79277765362932 416.23695628979306 163.11479600109547 394.4297103768736 135.55187066557122 396.3199018884982"/><polygon points="174.92234689192333 375.79593067683436 209.07765310807667 405.6582772437207 201.57166125960612 405.0083894229459 182.42833874039388 434.87073598983227"/><polygon points="224.7770751017619 393.3035281097456 244.5562582315714 410.46845303096904 232.1806449698502 400.1982136356976 237.15268836348312 417.363138556921"/><polygon points="273.125111644328 396.81764622834135 281.5415550223386 382.5620350439 272.9404649634468 428.10463162276665 281.72620170321983 413.8490204383253"/><polygon points="302.21484611816595 387.3453155713574 337.78515388183393 385.2250102762508 315.6790786803482 425.4416563904158 324.3209213196517 423.32135109530924"/><polygon points="354.63857596536934 377.32751079809884 370.6947573679639 396.77280446128464 355.7710201531108 413.893862205382 369.5623131802225 433.3391558685678"/><polygon points="405.7746389015639 403.75242583939684 404.89202776510274 387.1761126185978 433.10503662619857 423.4905540480688 377.56163004046806 406.9142408272698"/><polygon points="435.88636158328694 380.7135840883287 460.11363841671294 390.7873298312771 438.4144600014586 419.87933683538955 457.58553999854126 429.95308257833796"/><polygon points="491.9548954503151 379.3811705760846 489.37843788301814 398.8575220257902 488.7800929284981 411.8091446408764 492.55324040483515 431.285496090582"/><polygon points="10.666666666666666 436.4419197209347 32 451.11657393411645 32 444.88342606588344 10.666666666666666 459.55808027906517"/><polygon points="53.892267014084496 459.7300993674034 74.1077329859155 451.51069377802867 72.91824999768157 444.4893062219712 55.08175000231843 436.2699006325965"/><polygon points="100.21695829845207 463.0488678797984 113.11637503488124 444.16119922701375 120.93312935156494 451.83880077298613 92.40020398176837 432.95113212020146"/><polygon points="132.84105492325293 450.2007093382457 165.82561174341376 455.9763636405069 160.25052472236854 440.02363635949297 138.41614194429815 445.7992906617542"/><polygon points="175.20591375206877 456.26104234327926 208.79408624793123 439.68264763622835 205.17144126367748 456.31735236377153 178.82855873632252 439.73895765672063"/><polygon points="219.6598146369639 429.2968884631895 249.67351869636943 449.7300782853956 245.28616282229842 446.26992171460427 224.0471705110349 466.7031115368104"/><polygon points="282.00589150091406 426.12747601188147 272.66077516575257 452.77873932676283 279.69930460443715 443.22126067323705 274.9673620622295 469.8725239881184"/><polygon points="312.4972135665797 431.00628435121337 327.50278643342017 423.45554444381594 317.91592472668464 472.54445555618395 322.08407527331525 464.9937156487865"/><polygon points="331.8410691623896 452.3220099808205 393.49226417094366 425.5402319246802 393.2827261149117 470.4597680753197 332.05060721842153 443.6779900191794"/><polygon points="371.0915646375129 452.4074691306372 439.57510202915375 450.63986800353393 411.347677287124 445.36013199646595 399.31898937954264 443.5925308693627"/><polygon points="419.4159422451535 443.9124211496037 476.5840577548464 438.08379536719576 464.35380920654023 457.9162046328041 431.64619079345965 452.0875788503962"/><polygon points="507.6135491349899 458.56313843566016 473.71978419834335 421.17154004253416 508.5089573045633 474.8284599574657 472.82437602876996 437.4368615643397"/><polygon points="10.666666666666666 459.7591359327185 32 474.8947541927337 32 506.43857914059953 10.666666666666666 521.5741974006147"/><polygon points="50.722931457221264 475.454844987442 77.27706854277874 456.69595411481396 72.12914937900541 524.6373792185193 55.87085062099459 505.87848834589124"/><polygon points="97.03067332130294 471.03537773789594 116.30266001203037 503.11595174556686 112.61088029024728 478.2173815877664 100.72245304308603 510.2979555954373"/><polygon points="146.41876458254697 483.6030149503652 152.24790208411972 476.3258751397415 160.85907553178717 505.00745819359173 137.80759113487952 497.73031838296805"/><polygon points="184.2931003391654 476.23176259765273 199.7068996608346 493.28370841089753 196.73786915156535 488.0496249224357 187.26213084843465 505.1015707356805"/><polygon points="210.88013549733904 488.44377284877567 258.4531978359943 458.8308321911186 252.38684335081587 522.5025011422147 216.94648998251745 492.8895604845576"/><polygon points="260.815788172355 497.2290121595364 293.85087849431164 454.5028181546045 275.9424305794195 526.8305151787288 278.7242360872471 484.10432117379685"/><polygon points="306.5825744108663 469.8411019551503 333.4174255891336 460.5963378926722 337.80213285678286 520.7369954406611 302.197867143217 511.49223137818296"/><polygon points="366.5109085110483 506.46101548081344 358.822424822285 452.3697007637704 388.35330197161863 528.9636325695628 336.9800313617146 474.8723178525198"/><polygon points="405.2406561827496 491.0710834859141 405.426010483917 462.1873294067389 399.55988193638063 519.1460039265943 411.106784730286 490.2622498474192"/><polygon points="433.226268371841 483.10060252491684 462.7737316281589 488.4770148228467 459.61866088541797 492.8563185104866 436.3813391145819 498.2327308084164"/><polygon points="490.65127366046715 497.9758602545289 490.6820596728661 456.9817657815547 483.58111543372706 524.3515675517785 497.7522178996062 483.35747307880433"/>
</svg>
