<?xml version="1.0" encoding="UTF-8"?>
<svg xmlns="http://www.w3.org/2000/svg" id="RSSicon" viewBox="0 0 512 512" width="512" height="512">
  <defs>
    <style type="text/css">
      svg {
        background: black;
        margin: calc(50vh - 256px) auto 0;
      }
      
      polygon {stroke: darkorange; fill: none;}
    </style>
  </defs>
  <polygon points="10.666666666666666 10.666666666666666 32 10.666666666666666 32 32 10.666666666666666 32"/><polygon points="52.9266014150376 10.666666666666666 75.0733985849624 10.666666666666666 75.42526588577834 32 52.57473411422166 32"/><polygon points="100.65394119067815 10.666666666666666 112.67939214265516 10.666666666666666 112.66313520831085 32 100.67019812502247 32"/><polygon points="142.07597303575935 10.666666666666666 156.59069363090734 10.666666666666666 163.00768798338825 32 135.65897868327843 32"/><polygon points="180.41134768758886 10.666666666666666 203.58865231241114 10.666666666666666 195.5347105660274 32 188.4652894339726 32"/><polygon points="224.08479458109846 10.666666666666666 245.24853875223485 10.666666666666666 257.4722028739472 32 211.86113045938612 32"/><polygon points="269.843529372481 10.666666666666666 284.82313729418564 10.666666666666666 290.7995194250436 32 263.867147241623 32"/><polygon points="324.5997099839098 10.666666666666666 315.4002900160901 10.666666666666666 317.48985674037607 32 322.5101432596238 32"/><polygon points="343.25033942376126 10.666666666666666 382.082993909572 10.666666666666666 364.6661574102965 32 360.6671759230368 32"/><polygon points="408.17263292370774 10.666666666666666 402.4940337429589 10.666666666666666 410.59563343412213 32 400.0710332325445 32"/><polygon points="415.27357596060136 10.666666666666666 480.7264240393985 10.666666666666666 478.0633680746677 32 417.93663192533216 32"/><polygon points="494.77757657115393 10.666666666666666 486.5557567621793 10.666666666666666 489.7404974081366 32 491.59283592519665 32"/><polygon points="10.666666666666666 51.86217730317273 32 54.25749270538967 32 73.74250729461032 10.666666666666666 76.13782269682727"/><polygon points="55.71021130397416 51.20754704808225 72.28978869602584 52.47804434699377 72.30362376931457 75.52195565300623 55.69637623068543 76.79245295191775"/><polygon points="96.95955300626116 55.05708444933771 116.37378032707215 52.45748614127218 121.06297543471769 75.54251385872783 92.27035789861563 72.94291555066229"/><polygon points="138.62221981650856 55.8740163329018 160.04444685015812 51.992386729632585 158.36632135062737 76.00761327036741 140.3003453160393 72.1259836670982"/><polygon points="182.84148716525428 51.35109809383854 201.15851283474572 54.31491748774975 193.42566335048915 73.68508251225025 190.57433664951085 76.64890190616146"/><polygon points="222.14233839295198 50.8485525686245 247.19099494038133 52.049069565054225 244.24162125439432 75.95093043494578 225.091712078939 77.1514474313755"/><polygon points="270.56544115740905 52.98917941765713 284.1012255092576 54.26200624185172 274.4479137043568 73.73799375814828 280.21875296230985 75.01082058234287"/><polygon points="313.87024124281413 51.595779496161036 326.12975875718575 54.80910704339773 321.7033459925606 73.19089295660227 318.29665400743926 76.40422050383897"/><polygon points="356.789189162061 54.38636901200401 368.54414417127225 51.6495338863713 355.5309307395241 76.3504661136287 369.8024025938092 73.61363098799599"/><polygon points="378.3652040673397 51.1546529563885 432.30146259932695 50.70844741305405 416.75209843475324 77.29155258694595 393.9145682319134 76.8453470436115"/><polygon points="438.8154194871644 50.71881327930217 457.1845805128355 51.75113631995559 461.93150736423405 76.24886368004441 434.06849263576584 77.28118672069783"/><polygon points="505.8401061756967 52.02381358024728 475.49322715763657 50.87011712520467 490.77940599371306 77.12988287479533 490.5539273396202 75.97618641975272"/><polygon points="10.666666666666666 93.07590176302814 32 100.3418138000608 32 112.99151953327251 10.666666666666666 120.25743157030517"/><polygon points="51.90838197183088 100.97065371721112 76.09161802816912 97.32573768154197 72.62845918283374 116.00759565179135 55.37154081716626 112.3626796161222"/><polygon points="90.7496954598892 92.65818874981926 122.58363787344412 97.4735892013937 120.02166230822887 115.85974413193962 93.31167102510445 120.67514458351405"/><polygon points="144.27420922335946 100.44405309510054 154.39245744330722 95.86567866135807 152.95154044153315 117.46765467197524 145.71512622513353 112.88928023823277"/><polygon points="184.37348978205367 100.88346376785273 199.62651021794633 97.21294329645528 212.99933793840137 116.12039003687804 171.00066206159863 112.44986956548058"/><polygon points="215.42882571446185 95.15497189301007 253.90450761887146 93.87924517875794 240.54268416830217 119.45408815457537 228.79064916503114 118.17836144032324"/><polygon points="251.5226576463733 101.30711200146018 303.1440090202933 95.81773432457356 279.14112909593257 117.51559900875975 275.52553757073406 112.02622133187313"/><polygon points="326.17008408497117 97.01746376713633 313.8299159150287 94.84291511929489 328.33244777299274 118.49041821403843 311.66755222700715 116.31586956619698"/><polygon points="365.74377008878923 96.9886603452954 359.589563244544 93.75489120389396 383.19981382282305 119.57844212943935 342.1335195105102 116.34467298803791"/><polygon points="390.29092890598844 98.84003944505875 420.3757377606782 93.44552183608178 432.7903735574269 119.88781149725153 377.8762931092397 114.49329388827456"/><polygon points="454.582966557574 100.91556599496386 441.41703344242586 99.97931914092831 444.6250591793458 113.354014192405 451.3749408206541 112.41776733836946"/><polygon points="500.53350098053073 98.17084464431886 480.7998323528025 92.19608844076431 491.895330142148 121.137244892569 489.43800319118526 115.16248868901445"/><polygon points="10.666666666666666 142.13888639711897 32 134.53552006243143 32 164.13114660423525 10.666666666666666 156.52778026954772"/><polygon points="51.46006963935335 146.17368359318203 76.53993036064665 134.76800030784804 73.44618136531949 163.89866635881864 54.55381863468051 152.49298307348465"/><polygon points="92.40149920513194 132.3795562437566 120.93183412820137 134.6789372820013 122.1130851132308 163.98772938466539 91.22024822010252 166.28711042291008"/><polygon points="143.96356379289102 142.06324476003135 154.70310287377566 141.43375299558036 164.86646210603834 157.23291367108632 133.80020456062834 156.60342190663533"/><polygon points="178.82547250888973 139.4259063516785 205.17452749111027 137.42981500902266 204.94168462909593 161.23685165764402 179.05831537090407 159.2407603149882"/><polygon points="215.71839149018297 141.9273228474963 253.61494184315035 140.8862967637086 245.85080656207862 157.78036990295809 223.4825267712547 156.7393438191704"/><polygon points="281.7127944752851 140.7338777790967 272.95387219138155 139.8789224859906 300.0441960259114 158.78774418067607 254.6224706407552 157.93278888756998"/><polygon points="326.25781269279736 132.55093537743727 313.7421873072025 144.34907382705708 343.7291472208958 154.3175928396096 296.2708527791041 166.11573128922942"/><polygon points="338.9020172344843 144.26823526223657 386.431316098849 141.54695624416027 385.8912055406962 157.11971042250642 339.44212779263705 154.3984314044301"/><polygon points="398.4710550475739 144.06526614413292 412.19561161909274 137.24948052702894 395.16641038929754 161.41718613963775 415.5002562773691 154.60140052253377"/><polygon points="421.66270763011084 131.22229894100758 474.33729236988904 139.4741929521813 484.3241652626501 159.19247371448537 411.67583473734976 167.4443677256591"/><polygon points="474.2450194432703 142.9371137893924 507.088313890063 133.40749615870368 476.40422479513984 165.259170507963 504.9291085381934 155.72955287727427"/><polygon points="10.666666666666666 181.63086018258366 32 187.07011834012204 32 196.92988165987796 10.666666666666666 202.36913981741634"/><polygon points="54.09203942805786 174.61178922570838 73.90796057194214 172.40071182829388 74.85478656050486 211.59928817170612 53.14521343949513 209.38821077429162"/><polygon points="100.81482768914196 177.79328333106082 112.51850564419135 185.03154167744006 119.63240949886064 198.96845832255994 93.70092383447268 206.20671666893918"/><polygon points="138.05100041564347 176.30536550208345 160.6156662510232 183.60213962485687 164.5093440835609 200.39786037514313 134.15732258310578 207.69463449791655"/><polygon points="176.61519856757914 188.4513906756917 207.38480143242086 183.23145551828708 207.9203088780327 200.76854448171292 176.0796911219673 195.5486093243083"/><polygon points="211.04632706429058 181.8962887489532 258.28700626904276 184.76951942337433 246.32097450049451 199.23048057662567 223.0123588328388 202.1037112510468"/><polygon points="275.3876219563252 178.35566759838434 279.27904471034145 178.82150152295173 281.07450796807893 205.17849847704827 273.5921586985877 205.64433240161566"/><polygon points="314.96872461006035 175.67887619489977 325.03127538993954 191.3435721980158 318.7224266931662 192.6564278019842 321.2775733068337 208.32112380510023"/><polygon points="370.72694320765 191.54001858058388 354.6063901256833 183.32106591661588 387.2040651862089 200.67893408338412 338.1292681471244 192.45998141941612"/><polygon points="410.16523088846543 190.58806016530005 400.5014357782012 173.61139174476966 402.41476463179214 210.38860825523034 408.2519020348745 193.41193983469995"/><polygon points="439.9218495912366 179.33774764553266 456.0781504087633 191.88984095771136 477.60531771498404 192.11015904228864 418.39468228501585 204.66225235446734"/><polygon points="470.2945983282188 187.70758922360667 511.03873500511446 186.82803731716828 499.4744378637123 197.17196268283172 481.85889546962096 196.29241077639333"/><polygon points="10.666666666666666 226.85213771898535 32 216.71110580017148 32 252.62222753316183 10.666666666666666 242.48119561434797"/><polygon points="53.89550091108741 216.4825496370354 74.10449908891259 220.06785823630887 75.78407420850597 249.26547509702445 52.21592579149403 252.85078369629792"/><polygon points="99.40293599026322 232.10080297520182 113.9303973430701 217.46556164928677 117.73705576827976 251.86777168404655 95.59627756505355 237.2325303581315"/><polygon points="142.61887333951532 220.22661160606822 156.04779332715137 232.8069373744786 160.23162918764987 236.52639595885472 138.4350374790168 249.1067217272651"/><polygon points="175.03373873882379 223.0611985085687 208.96626126117621 229.46256273325668 204.83720867400535 239.87077060007664 179.16279132599465 246.2721348247646"/><polygon points="230.91958134262296 220.88210194368145 238.41375199071035 236.3254854902459 233.7561330479133 233.0078478430874 235.57720028542002 248.45123138965187"/><polygon points="271.20596849650434 211.85538148649914 283.4606981701623 236.34367588575097 293.6724357954477 232.98965744758235 260.9942308712189 257.4779518468342"/><polygon points="314.3137456165197 234.0070785021118 325.68625438348016 219.28174026666466 335.08528075457684 250.05159306666866 304.91471924542304 235.32625483122152"/><polygon points="349.83696619689806 220.7687201660581 375.4963671364352 224.8234449917181 372.90589615827986 244.5098883416152 352.4274371750534 248.5646131672752"/><polygon points="387.27470099191225 226.8040195209643 423.3919656747544 215.59976165213183 430.0362016702551 253.73357168120148 380.63046499641155 242.52931381236903"/><polygon points="440.1509933072552 219.27462940039655 455.8490066927447 212.855021800603 470.3642476549879 256.47831153273034 425.635752345012 250.05870393293677"/><polygon points="463.2171321243336 231.23562209169867 518.1162012089997 224.06934646117233 484.96068556010425 245.26398687216098 496.372647773229 238.09771124163464"/><polygon points="10.666666666666666 275.19319326552124 32 251.44276520278865 32 303.223901463878 10.666666666666666 279.4734734011454"/><polygon points="55.0171181558794 254.48512821028257 72.9828818441206 273.2996024089032 72.55781798709344 281.36706425776345 55.442182012906564 300.18153845638403"/><polygon points="92.42490193301093 250.80317033639665 120.90843140032239 273.1972628027671 121.21768565034468 281.4694038638995 92.11564768298864 303.86349633027"/><polygon points="140.81561954272294 279.5982689239318 157.85104712394374 276.1078409705234 166.08214500737478 278.55882569614323 132.5845216592919 275.0683977427348"/><polygon points="189.3692250775697 273.5365878310375 194.6307749224303 275.5420295574524 206.60239912699063 279.12463710921423 177.39760087300937 281.13007883562915"/><polygon points="231.2330739437217 266.43310604964785 238.1002593896116 276.2578987768806 251.805612631787 278.408767889786 217.52772070154631 288.2335606170188"/><polygon points="272.9259678441339 278.59064216122084 281.74069882253275 265.1307915647275 303.43685945201736 289.53587510193915 251.22980721464924 276.0760245054458"/><polygon points="324.69385231715114 266.55612779651875 315.30614768284875 263.75877904167544 325.4931650451889 290.9078876249912 314.506834954811 288.1105388701479"/><polygon points="365.67112274496526 273.8838107242047 359.662210588368 274.0291303237355 365.48011389089015 280.6375363429311 359.8532194424431 280.78285594246194"/><polygon points="386.14448770657776 273.54663863842643 424.52217896008887 268.32295683645157 404.3826197880859 286.34370983021506 406.28404687858074 281.1200280282402"/><polygon points="450.0251143666137 277.2146399088828 445.9748856333862 268.186914570917 457.5068783686604 286.47975209574963 438.4931216313395 277.4520267577838"/><polygon points="453.6156840209752 263.7102835677144 527.717649312358 273.90058265886836 502.01701412437114 280.76608400779827 479.3163192089621 290.95638309895224"/><polygon points="10.666666666666666 293.77720975225117 32 324.00977817211515 32 315.99022182788474 10.666666666666666 346.2227902477487"/><polygon points="50.88370876036212 303.512860616262 77.11629123963789 303.76082413290663 72.86447174105076 336.23917586709325 55.135528258949236 336.4871393837379"/><polygon points="98.49202754363608 312.6962872824739 114.84130578969723 295.31110116825596 122.53480505985326 344.6888988317439 90.79852827348006 327.30371271752597"/><polygon points="141.95857046308285 290.69489013855366 156.70809620358384 310.7660869142164 154.65114711927654 329.2339130857835 144.01551954739014 349.3051098614462"/><polygon points="187.21066437913782 315.92467193008406 196.78933562086218 311.53687960896826 199.8484095494816 328.4631203910316 184.1515904505184 324.0753280699158"/><polygon points="227.30215038725905 303.9811071237746 242.03118294607427 315.82001623285635 238.80838432958402 324.17998376714354 230.5249490037493 336.01889287622527"/><polygon points="260.58825314329675 314.68239781439604 294.0784135233699 293.5277554909908 295.13715867570806 346.4722445090091 259.52950799095856 325.31760218560385"/><polygon points="315.8688410610998 314.7812688911896 324.1311589389001 299.7908489006265 338.6714815990261 340.2091510993734 301.3285184009738 325.2187311088103"/><polygon points="355.66139162542123 294.54248610559637 369.671941707912 299.3817124896384 358.5480583544347 340.6182875103615 366.78527497889854 345.4575138944035"/><polygon points="371.9982032970393 322.1701954256869 438.6684633696273 297.2586967763855 405.7441115600734 342.7413032236144 404.9225551065932 317.82980457431296"/><polygon points="460.08626978393096 303.7141909254879 435.9137302160689 308.5924833786389 444.69700592216634 331.40751662136097 451.30299407783355 336.285809074512"/><polygon points="468.09815951581305 299.8478426744832 513.2351738175203 301.0655402466627 526.9123533672446 338.9344597533372 454.4209799660886 340.15215732551667"/><polygon points="10.666666666666666 371.5234219992242 32 354.07767587001183 32 371.2556574633214 10.666666666666666 353.8099113341091"/><polygon points="54.39948524165273 346.5986398219483 73.60051475834727 340.9097012587507 72.47062681658177 384.42363207458254 55.52937318341823 378.73469351138493"/><polygon points="92.81506971305004 360.32952243094735 120.51826362028328 366.1960726178497 121.78438874409564 359.13726071548354 91.54894458923768 365.0038109023859"/><polygon points="135.0670201460446 358.2051351555989 163.5996465206221 338.38055474011526 158.98171720588695 386.952778593218 139.68494946077973 367.12819817773436"/><polygon points="180.87488751103993 345.80217518216085 203.12511248896007 348.2025053421067 211.2917093355091 377.13082799122657 172.7082906644909 379.5311581511724"/><polygon points="221.80974104621285 371.02246065781526 247.52359228712047 356.2990312955777 242.6242084148604 369.03430203775554 226.70912491847292 354.310872675518"/><polygon points="266.5700422466788 338.20680133102167 288.09662441998785 363.18143945717804 284.3988807382685 362.1518938761552 270.26778592839815 387.1265320023116"/><polygon points="311.3513003946232 339.74025203178604 328.6486996053767 371.2956295537353 315.6342026171497 354.03770377959796 324.3657973828502 385.5930813015472"/><polygon points="357.868223665273 358.971176010872 367.4651096680603 344.29528978526895 365.7385576671826 381.0380435480643 359.59477566615067 366.36215732246126"/><polygon points="407.63453484921683 345.97402348530073 403.0321318174498 351.54971589080526 407.724037941808 373.783617442528 402.94262872485865 379.3593098480325"/><polygon points="458.328341227367 333.596926532558 437.6716587726329 331.27762698509974 445.84226300166057 394.0557063482335 450.1577369983393 391.7364068007753"/><polygon points="485.29527013933676 340.87725659103734 496.0380631939965 370.83404499466286 521.653953513668 354.4992883386704 459.6793798196653 384.4560767422959"/><polygon points="10.666666666666666 402.31126536342197 32 407.80870708807134 32 402.8579595785953 10.666666666666666 408.35540130324466"/><polygon points="54.57416094535378 373.9017479112271 73.42583905464622 401.9799337939683 73.85543502308899 408.6867328726983 54.144564976911006 436.7649187554395"/><polygon points="91.64285925335062 417.4699310301211 121.69047407998269 390.6342269412096 120.55357486245401 420.03243972545704 92.7797584708793 393.19673563654555"/><polygon points="139.2939246303571 404.53569283960275 159.37274203630957 406.0071334642302 164.94649494856887 404.6595332024364 133.72017171809782 406.1309738270639"/><polygon points="173.1245818323752 415.67673355666705 210.8754181676248 408.2667223133542 196.88597829961122 402.39994435331243 187.11402170038878 394.9899331099996"/><polygon points="233.77380692972187 412.5747923101123 235.55952640361144 404.32202983338004 247.07974488764643 406.3446368332866 222.2535884456869 398.09187435655434"/><polygon points="268.7651976229438 388.2849289186686 285.90146904372284 404.00786782355317 277.3142200669329 406.65879884311346 277.35244659973375 422.38173774799805"/><polygon points="296.4680155712023 408.84352384474386 343.5319844287976 406.1912041149841 327.83221595877006 404.47546255168254 312.1677840412298 401.8231428219228"/><polygon points="365.18158914765985 416.1628052565934 360.1517441856734 388.67268190109365 365.392504014808 421.993984765573 359.94082931852523 394.5038614100732"/><polygon points="414.1950832304965 406.5074061932362 396.47158343617014 371.12509768190796 434.5208304028011 439.54156898475867 376.14583626386553 404.15926047343044"/><polygon points="440.942097696344 392.41120713877507 455.0579023036559 399.3102827536445 468.2924340521253 411.3563839130221 427.70756594787457 418.25545952789156"/><polygon points="474.7048193343358 408.0178317619307 506.62851399899745 376.64664006945134 486.2320876213815 434.0200265972153 495.1012457119518 402.6488349047359"/><polygon points="10.666666666666666 432.14037275909806 32 448.4799555990251 32 447.52004440097477 10.666666666666666 463.85962724090183"/><polygon points="51.44688563791026 457.04779883035366 76.55311436208974 449.1961511920773 74.40852135491524 446.8038488079226 53.59147864508476 438.95220116964623"/><polygon points="90.70421626395053 451.8476937050017 122.62911706938279 441.0239011779576 117.77951089526994 454.9760988220423 95.55382243806338 444.1523062949982"/><polygon points="135.6334304875142 453.409326412268 163.03323617915248 437.2738723646181 165.26825015315114 458.7261276353818 133.39841651351554 442.5906735877319"/><polygon points="183.0395399776968 449.8455934066045 200.9604600223032 460.41648263771725 210.11145004754945 435.58351736228263 173.88854995245055 446.1544065933954"/><polygon points="234.6060923847869 448.95529643764945 234.7272409485464 431.3992184921847 241.5627627004558 464.6007815078152 227.7705706328775 447.04470356235043"/><polygon points="252.22855553701174 432.88213488826244 302.4381111296549 429.5320644133781 294.23903790468887 466.46793558662176 260.42762876197776 463.11786511173744"/><polygon points="311.5864895268527 427.5680295246137 328.4135104731472 438.472479261848 312.3167356041088 457.5275207381519 327.68326439589106 468.4319704753862"/><polygon points="364.6410049495459 459.5455820806746 360.69232838378736 432.1017138552869 355.4133718259099 463.898286144713 369.91996150742335 436.4544179193253"/><polygon points="388.93552226902074 452.3482412402264 421.7311443976459 463.13176729270367 392.30525203495864 432.8682327072962 418.361414631708 443.6517587597735"/><polygon points="457.8203805650475 437.2527249585444 438.1796194349524 438.06286402606037 445.8045811538504 457.9371359739395 450.1954188461495 458.7472750414555"/><polygon points="505.13547267337026 439.2173608329796 476.197860659963 431.82078366636597 529.5282019686101 464.1792163336339 451.8051313647232 456.7826391670203"/><polygon points="10.666666666666666 477.31726506839453 32 500.96804315892416 32 480.3652901744091 10.666666666666666 504.0160682649387"/><polygon points="51.60507374864816 480.9202155548823 76.39492625135185 473.23514868143997 77.32909669171657 508.0981846518933 50.67090330828343 500.41311777845095"/><polygon points="99.85624916735097 507.3292180171817 113.47708416598235 457.62072117645056 120.3179358463679 523.7126121568826 93.01539748696541 474.00411531615157"/><polygon points="132.04046733174326 482.1282365323684 166.62619933492343 492.76615212732173 154.6273950840105 488.5671812060115 144.0392715826562 499.20509680096484"/><polygon points="176.87229959376754 469.93465887567316 207.12770040623246 457.2651308834571 202.20304207054093 524.0682024498761 181.79695792945907 511.3986744576601"/><polygon points="233.72237035703276 473.5386136210755 235.61096297630056 492.7998782309071 245.18546215768058 488.53345510242616 224.14787117565274 507.79471971225774"/><polygon points="252.49765352524867 504.15934972171794 302.16901314141796 457.49557281078745 277.6702682164711 523.8377605225458 276.99639845019556 477.1739836116153"/><polygon points="293.9605331168158 495.55162278256364 346.0394668831841 482.94883553490257 338.40546584741895 498.3844977984307 301.59453415258093 485.7817105507696"/><polygon points="370.6915293950085 469.38343299086097 354.64180393832476 492.27253927654726 372.33099795306447 489.060794056786 353.0023353802688 511.9499003424723"/><polygon points="379.32618843184304 468.0683517141555 431.3404782348236 469.8879359704615 402.93712066665597 511.44539736287174 407.72954600001066 513.2649816191778"/><polygon points="436.7976158037405 468.16662995090564 459.2023841962594 488.0097704003263 479.89282179866314 493.32356293300694 416.10717820133675 513.1667033824276"/><polygon points="457.2098802335389 485.1981008871264 524.1234530997943 490.8878716080793 516.0952969818454 490.44546172525395 465.23803635148784 496.1352324462069"/>
</svg>
