<?xml version="1.0" encoding="UTF-8"?>
<svg xmlns="http://www.w3.org/2000/svg" id="RSSicon" viewBox="0 0 512 512" width="512" height="512">
  <defs>
    <style type="text/css">
      svg {
        background: black;
        margin: calc(50vh - 256px) auto 0;
      }
      
      polygon {stroke: darkorange; fill: none;}
    </style>
  </defs>
  <polygon points="10.666666666666666 10.666666666666666 32 10.666666666666666 32 32 10.666666666666666 32"/><polygon points="55.46942385951054 10.666666666666666 72.53057614048946 10.666666666666666 72.69904026146091 32 55.30095973853909 32"/><polygon points="98.57650910430397 10.666666666666666 114.75682422902935 10.666666666666666 113.83972140200123 32 99.49361193133208 32"/><polygon points="139.63689302774745 10.666666666666666 159.02977363891924 10.666666666666666 164.96561886836412 32 133.70104779830257 32"/><polygon points="182.37557050133705 10.666666666666666 201.62442949866295 10.666666666666666 201.6044169784701 32 182.3955830215299 32"/><polygon points="221.6600688845346 10.666666666666666 247.6732644487987 10.666666666666666 240.75391171858757 32 228.57942161474574 32"/><polygon points="267.90678295202 10.666666666666666 286.7598837146466 10.666666666666666 302.8536581659009 32 251.8130085007657 32"/><polygon points="294.18363211763034 10.666666666666666 345.81636788236955 10.666666666666666 313.51019779489997 32 326.4898022050999 32"/><polygon points="369.50235878497557 10.666666666666666 355.8309745483577 10.666666666666666 379.35684133412093 32 345.9764919992123 32"/><polygon points="379.7455598642999 10.666666666666666 430.92110680236675 10.666666666666666 435.9125632146252 32 374.7541034520414 32"/><polygon points="442.0010438833717 10.666666666666666 453.99895611662816 10.666666666666666 437.32185432340174 32 458.67814567659815 32"/><polygon points="455.405435071624 10.666666666666666 525.9278982617093 10.666666666666666 517.2955478466706 32 464.03778548666264 32"/><polygon points="10.666666666666666 53.76202939524122 32 51.09730210447747 32 76.90269789552254 10.666666666666666 74.23797060475877"/><polygon points="55.76973508372677 52.39531942861487 72.23026491627323 51.14594845766482 75.5242926655531 76.85405154233518 52.4757073344469 75.60468057138513"/><polygon points="96.67523551919678 52.66255241874015 116.65809781413654 54.341470946038584 117.86084617867577 73.65852905396142 95.47248715465754 75.33744758125985"/><polygon points="144.69530004697924 54.159633615976304 153.97136661968744 53.64273737791942 162.82764991288303 74.35726262208058 135.83901675378365 73.8403663840237"/><polygon points="186.17627054475815 54.974328344075644 197.82372945524185 51.21015768789633 199.75041240300274 76.78984231210367 184.24958759699726 73.02567165592436"/><polygon points="212.41080556734755 51.4137339032021 256.92252776598576 54.06057868981859 244.14629898464787 73.9394213101814 225.18703434868544 76.5862660967979"/><polygon points="262.3572735594407 55.751321821148295 292.3093931072259 54.08299442506703 283.19816565536206 73.91700557493297 271.46850101130457 72.2486781788517"/><polygon points="323.0842348808939 50.671613369269025 316.91576511910597 55.926968231894904 347.83382046792724 72.0730317681051 292.16617953207265 77.32838663073098"/><polygon points="365.3829048172347 54.32638455329996 359.95042851609855 54.48222708729775 363.903952132522 73.51777291270224 361.42938120081124 73.67361544670004"/><polygon points="392.81868316274665 53.3785561004447 417.84798350392 53.6098349253051 420.30291778574633 74.39016507469489 390.3637488809203 74.6214438995553"/><polygon points="432.11629302155046 55.01407955863989 463.8837069784494 53.170269502609735 462.4458055020321 74.82973049739027 433.5541944979678 72.98592044136011"/><polygon points="460.3552333436514 53.52009318921809 520.9780999896819 51.48173790549273 495.2805637088534 76.51826209450728 486.0527696244799 74.47990681078191"/><polygon points="10.666666666666666 94.855317169877 32 94.95461513506012 32 118.37871819827319 10.666666666666666 118.47801616345632"/><polygon points="53.21650631527214 91.45245495606697 74.78349368472786 97.21380581145307 76.2365879314461 116.11952752188024 51.76341206855391 121.88087837726634"/><polygon points="98.07904446312531 99.50387951149565 115.254288870208 93.78454031506442 122.45171180936086 119.5487930182689 90.88162152397246 113.82945382183766"/><polygon points="133.2948355322472 97.17995959786809 165.3718311344195 99.27314322977028 155.9188414285483 114.06019010356303 142.7478252381184 116.15337373546522"/><polygon points="185.07858692804945 99.84741051078088 198.92141307195055 99.15152996366243 211.5941991361444 114.18180336967089 172.4058008638556 113.48592282255244"/><polygon points="223.38943432481668 98.64935945512931 245.94389900851664 97.15369283703735 236.6624244433736 116.17964049629596 232.67090888995972 114.683973878204"/><polygon points="269.92193027130014 90.66821925689422 284.7447363953665 99.56259707652288 275.49600413890596 113.77073625681044 279.17066252776067 122.6651140764391"/><polygon points="319.9472121029297 96.08737897561838 320.0527878970702 98.32059651054178 333.0781542270278 115.01273682279154 306.92184577297206 117.24595435771494"/><polygon points="364.08301323098283 99.73086503280835 361.25032010235043 94.78320192137438 364.17953159211146 118.55013141195893 361.1538017412218 113.60246830052496"/><polygon points="373.54182797425204 95.68808756826618 437.1248386924146 100.66703417670374 413.55466663401387 112.66629915662958 397.11200003265276 117.64524576506713"/><polygon points="440.754830216193 98.0796913381922 455.2451697838069 90.94373490196388 437.6513355832941 122.38959843136944 458.3486644167058 115.25364199514111"/><polygon points="474.1954108601543 91.13853889391243 507.13792247317895 92.10317082081244 472.7825811711398 121.23016251252088 508.5507521621935 122.19479443942089"/><polygon points="10.666666666666666 145.34847934356984 32 143.14538686403068 32 155.521279802636 10.666666666666666 153.31818732309685"/><polygon points="50.888569914919984 131.51123635385494 77.11143008508002 135.66060687247096 73.70141813794308 163.00605979419572 54.29858186205692 167.15543031281175"/><polygon points="96.53432137459902 143.6780918273348 116.7990119587343 142.17961674626793 112.23549187856406 156.48704992039876 101.09784145476925 154.98857483933187"/><polygon points="143.20489478314832 139.6344439176313 155.46177188351837 144.404815473249 154.30919148827613 154.2618511934177 144.35747517839056 159.03222274903538"/><polygon points="176.59380666301706 130.97383103783164 207.40619333698294 139.42660053951656 197.57460023148516 159.24006612715013 186.42539976851484 167.69283562883504"/><polygon points="215.5571216711493 142.29700170565874 253.776211662184 137.0933640105956 243.58295944125098 161.5733026560711 225.75037389208234 156.36966496100794"/><polygon points="278.0802453753814 134.3519799467445 276.5864212912852 142.61668338293978 276.87676916620103 156.0499832837269 277.7898975004656 164.31468671992218"/><polygon points="322.64017878613356 132.89870188430368 317.3598212138663 137.52169097885402 323.2969417422906 161.14497568781266 316.7030582577093 165.767964782363"/><polygon points="333.48981125832177 143.00044641919442 391.8435220750115 145.29943389858013 376.7598940761262 153.36723276808655 348.57343925720704 155.66622024747227"/><polygon points="404.66661252092155 136.79538645300892 406.0000541457451 143.76440587941914 401.64651617762513 154.90226078724754 409.0201504890415 161.87128021365777"/><polygon points="460.52802751173476 140.20549198753028 435.4719724882651 140.86151616493322 483.7717716845438 157.80515050173346 412.2282283154561 158.4611746791364"/><polygon points="504.1605315594916 145.8715058456307 477.1728017738417 136.22149536197213 490.95056350693574 162.44517130469455 490.3827698263975 152.79516082103598"/><polygon points="10.666666666666666 187.85420758914677 32 180.07903521510877 32 203.92096478489123 10.666666666666666 196.14579241085323"/><polygon points="53.34464305525008 190.56208831843932 74.65535694474991 184.92741782007164 73.2690272799784 199.07258217992836 54.7309727200216 193.43791168156068"/><polygon points="99.15623682506286 171.40701143430167 114.17709650827045 188.33832561785843 113.69824971568775 195.66167438214157 99.63508361764556 212.59298856569833"/><polygon points="142.57934202993877 177.23099299584987 156.0873246367279 181.94958302713488 152.68979832037766 202.05041697286512 145.97686834628902 206.76900700415013"/><polygon points="187.55682557065072 178.2651089717698 196.44317442934928 188.51791687153107 197.47438510452957 195.48208312846893 186.52561489547043 205.7348910282302"/><polygon points="226.48659451368513 180.73876247017037 242.84673881964818 177.39976169228632 242.66468091543453 206.60023830771368 226.66865241789878 203.26123752982963"/><polygon points="251.52681533050898 182.95201052481758 303.1398513361576 177.69792783340034 283.61326136316194 206.30207216659966 271.0534053035047 201.04798947518242"/><polygon points="301.5786642623018 183.55757780884807 338.4213357376981 178.20122930654128 336.80696064561596 205.79877069345872 303.1930393543839 200.44242219115193"/><polygon points="339.36369442207786 177.79324908804426 385.9696389112554 183.3879044296252 353.4528778615883 200.6120955703748 371.88045547174494 206.20675091195574"/><polygon points="387.30128475552397 173.7183555420006 423.36538191114266 176.00854093171543 437.9706508744686 207.99145906828457 372.696015792198 210.2816444579994"/><polygon points="444.3940004898567 173.5435530690645 451.6059995101432 186.6076197398617 468.5708362291303 197.3923802601383 427.4291637708696 210.4564469309355"/><polygon points="487.23829322891066 181.93887241291065 494.0950401044226 177.00674141324524 523.4046749641618 206.99325858675476 457.92865836917144 202.06112758708935"/><polygon points="10.666666666666666 211.8071210659473 32 230.54941652907183 32 238.78391680426148 10.666666666666666 257.526212267386"/><polygon points="52.2178656540207 221.89729634275125 75.7821343459793 235.64824597385316 72.71076584786547 233.68508735948015 55.289234152134526 247.43603699058207"/><polygon points="100.67312209849612 221.66808338967925 112.66021123483719 228.4215591635529 112.39461016498413 240.91177416978041 100.93872316834918 247.66524994365406"/><polygon points="146.0225963488183 234.97511518280075 152.6440703178484 217.14458173631522 164.57081381835656 252.1887515970181 134.09585284831013 234.35821815053257"/><polygon points="184.37671324023458 223.24441936164007 199.62328675976542 222.01976691047952 200.3294722219816 247.3135664228538 183.6705277780184 246.08891397169324"/><polygon points="236.39843378389835 220.36343567232254 232.93489954943496 218.70819664792114 244.28153188983944 250.62513668541217 225.05180144349387 248.96989766101078"/><polygon points="252.19021400466454 215.67803904784836 302.4764526620021 232.5117142783918 298.6617924180201 236.82161905494152 256.0048742486465 253.65529428548496"/><polygon points="300.09624044511776 214.4099136956569 339.90375955488213 211.21970893276904 342.9909394741256 258.1136244005643 297.0090605258743 254.9234196376764"/><polygon points="362.29460438015985 226.38364277300758 363.0387289531734 224.6728728445126 376.3015987657216 244.66046048882072 349.03173456761164 242.94969056032573"/><polygon points="411.88281047400454 213.0671326056654 398.7838561926621 220.8026641068425 419.33947389762625 248.5306692264908 391.3271927690404 256.2662007276679"/><polygon points="423.94681797301774 223.4682284703438 472.05318202698214 219.96170934721897 446.58666491938345 249.37162398611434 449.41333508061643 245.8651048629895"/><polygon points="504.73499201500215 215.89417045539344 476.5983413183311 230.3287705818742 494.93072201792717 239.0045627514591 486.4026113154061 253.43916287793988"/><polygon points="10.666666666666666 255.41693963297254 32 280.2267822737573 32 274.43988439290933 10.666666666666666 299.24972703369406"/><polygon points="51.908195454769995 258.445169754412 76.09180454523 260.4521766550956 73.11381415738737 294.214490011571 54.88618584261263 296.2214969122546"/><polygon points="97.9460959953983 279.6662509691618 115.38723733793502 256.19047188321383 115.38445039810924 298.4761947834528 97.94888293522408 275.0004156975048"/><polygon points="140.19717299841977 265.08486345030633 158.4694936682469 274.0873268583964 163.77411525900797 280.5793398082702 134.89255140765871 289.5818032163603"/><polygon points="178.36486979947094 265.87981142407796 205.63513020052906 253.13285475522147 213.08106193122802 301.5338119114451 170.91893806877198 288.7868552425887"/><polygon points="215.27160783280647 253.41097958608808 254.06172550052685 255.53669961706984 235.964694736011 299.12996704959676 233.3686385973223 301.2556870805785"/><polygon points="268.05268524203257 279.23948270273826 286.61398142463406 252.05609132273966 292.8627091415179 302.610575343927 261.80395752514875 275.42718396392837"/><polygon points="318.805866888625 264.9337173172993 321.19413311137487 259.62353894732155 334.4251513022282 295.0431277193451 305.5748486977717 289.73294934936735"/><polygon points="357.7540105801438 263.1717383241191 367.57932275318944 269.2556073333597 364.7247647212414 285.4110593333069 360.60856861209186 291.49492834254755"/><polygon points="417.9016855677994 280.1141135611361 392.7649810988672 280.67038223149603 435.3549459414369 273.9962844351706 375.31172072522975 274.55255310553054"/><polygon points="437.93711353691305 279.51280687477794 458.06288646308684 261.8218113106698 458.007506672685 292.84485535599686 437.9924933273149 275.1538597918887"/><polygon points="508.4803725221924 251.15571715298628 472.85296081114086 272.5250636883637 527.5076946159509 282.14160297830296 453.82563871738233 303.5109495136803"/><polygon points="10.666666666666666 307.7000451688588 32 321.4339376073171 32 318.5660623926828 10.666666666666666 332.29995483114106"/><polygon points="51.66987278216678 296.74332908842564 76.33012721783322 304.59709020143987 72.32266622518489 335.40290979856 55.67733377481512 343.25667091157425"/><polygon points="93.13426154973166 314.0240671638023 120.19907178360165 307.0701935011431 114.07506010370452 332.9298064988568 99.2582732296288 325.9759328361976"/><polygon points="131.14337169560852 310.68963048393937 167.52329497105816 316.30950181127133 167.28569884965088 323.69049818872855 131.3809678170158 329.3103695160605"/><polygon points="173.1272855722628 299.19602758003685 210.8727144277372 319.76729069057126 203.72993385022997 320.2327093094286 180.27006614977003 340.80397241996303"/><polygon points="226.89203384826155 325.6896652947335 242.44129948507177 296.13896351579416 255.24253624672707 343.8610364842057 214.09079708660624 314.31033470526637"/><polygon points="274.2685714394518 310.8944152474302 280.3980952272148 296.62513631383626 276.23689305048134 343.3748636861636 278.4297736161853 329.1055847525697"/><polygon points="316.5627746266383 301.23474484859094 323.43722537336157 324.2581165577083 324.98552920050867 315.74188344229157 315.0144707994912 338.76525515140895"/><polygon points="371.2273188431068 312.0246300410466 354.10601449022647 320.99306706250087 377.01606732993633 319.006932937499 348.3172660033969 327.9753699589533"/><polygon points="397.66208996706933 320.9365074963156 413.0045766995973 322.28880947212986 401.85451578138014 317.71119052787003 408.8121508852865 319.0634925036843"/><polygon points="431.75102909842167 305.2336794983097 464.2489709015782 317.11240270853915 444.2147223260766 322.88759729146074 451.7852776739233 334.7663205016902"/><polygon points="482.0660805390901 306.1331859341886 499.2672527942432 302.0597578538377 480.42808379166644 337.9402421461622 500.9052495416668 333.8668140658113"/><polygon points="10.666666666666666 364.0915281738557 32 343.0708394617304 32 382.2624938716029 10.666666666666666 361.24180515947756"/><polygon points="51.55781076492009 365.06367331334417 76.44218923507991 368.03762248057876 73.01732942573707 357.2957108527545 54.982670574262926 360.2696600199891"/><polygon points="92.6986823073897 348.0219763291403 120.63465102594361 342.3433568879298 116.32627900041683 382.98997644540344 97.00705433291648 377.311357004193"/><polygon points="143.9483439920863 339.75557271689087 154.71832267458038 346.0314503787736 167.00877775376404 379.30188295455963 131.65788891290265 385.5777606164424"/><polygon points="182.98704719746598 360.26610562085995 201.01295280253402 339.6733712645825 199.09223802247087 385.65996206875076 184.90776197752913 365.0672277124733"/><polygon points="228.8241303691095 352.94711363152965 240.50920296422382 372.1139802943304 257.3075944517286 353.21935303900284 212.0257388816047 372.3862197018036"/><polygon points="277.03327491835097 338.2791495308488 277.63339174831566 359.6495804252264 297.3718803783389 365.68375290810684 257.2947862883277 387.05418380248443"/><polygon points="319.2857879252468 353.4908186826514 320.7142120747531 357.84746247816383 319.47363122198965 367.4858708551694 320.52636877801024 371.84251465068184"/><polygon points="340.4718644819124 340.33413513005166 384.86146885142085 349.8870408481063 390.18153329218035 375.44629248522693 335.1518000411529 384.9991982032816"/><polygon points="372.5638761540446 366.79453852838486 438.10279051262205 370.64002798559056 408.4379817271553 354.6933053477427 402.2286849395113 358.5387948049484"/><polygon points="449.35882945438965 350.72113128972575 446.64117054561024 336.5404360866437 467.5106571216172 388.79289724668956 428.4893428783827 374.6122020436075"/><polygon points="454.2097595422582 348.13788995334545 527.123573791075 367.84171159967605 498.54332343995327 357.4916217336572 482.79000989338 377.1954433799878"/><polygon points="10.666666666666666 417.06597057447834 32 395.01059826647514 32 415.6560684001915 10.666666666666666 393.6006960921883"/><polygon points="51.98521466911272 379.50353439577026 76.01478533088728 398.40063172586434 77.07949758503194 412.2660349408023 50.920502414968055 431.16313227089637"/><polygon points="97.53536889508486 371.4729384171121 115.79796443824846 373.07155472982197 113.86581913595103 437.59511193684466 99.46751419738229 439.1937282495545"/><polygon points="138.15524290175028 372.1241546546777 160.5114237649164 402.3227327545644 165.40504579571746 408.3439339121022 133.26162087094923 438.54251201198895"/><polygon points="182.49587770935327 386.7817128287281 201.50412229064673 371.0397555838333 206.03418080416822 439.6269110828333 177.96581919583178 423.88495383793855"/><polygon points="230.84815595342252 373.4487929425053 238.4851773799108 392.84134456125327 240.33799560105982 417.82532210541336 228.9953377322735 437.21787372416134"/><polygon points="256.62078715487746 383.11702662643955 298.04587951178917 397.62931763096515 303.27811276896864 413.0373490357015 251.38855389769796 427.5496400402271"/><polygon points="298.9610874763062 404.0931308686101 341.0389125236937 384.5382276712775 348.4137771269771 426.1284389953891 291.5862228730228 406.5735357980565"/><polygon points="343.2842611473355 405.4926844327183 382.0490721859978 406.130557813242 387.42679418175493 404.53610885342465 337.90653915157833 405.1739822339483"/><polygon points="394.89197274705975 411.3668976158972 415.7746939196069 399.2575718024867 412.3415367387493 411.4090948641799 398.3251299279173 399.29976905076944"/><polygon points="451.71291611044194 381.8457270416393 444.28708388955795 384.17940597587864 476.89125673664995 426.487260690788 419.10874326334994 428.82093962502734"/><polygon points="499.30889814384864 385.2445674772396 482.0244351894846 381.0932238414803 496.35313318426165 429.5734428251863 484.9802001490716 425.422099189427"/><polygon points="10.666666666666666 445.4017191706355 32 441.26697839216587 32 454.733021607834 10.666666666666666 450.5982808293644"/><polygon points="53.45186614445794 419.62050654663204 74.54813385554206 453.9181654848373 75.03499682469436 442.0818345151626 52.96500317530565 476.37949345336784"/><polygon points="97.85793438239385 462.1862740784396 115.47539895093946 422.6659202745838 115.59277223496358 473.3340797254161 97.74056109836974 433.81372592156026"/><polygon points="135.52542152421393 414.94280482923654 163.14124514245276 458.85556435854966 155.05449183206463 437.14443564145023 143.61217483460206 481.05719517076335"/><polygon points="173.016159577915 414.72882910577096 210.983840422085 442.96340682912273 203.53450907410618 453.03659317087715 180.46549092589382 481.27117089422893"/><polygon points="211.00451510250093 428.99180991957604 258.3288182308324 420.8840957190765 238.14874342828307 475.11590428092336 231.18458990505025 467.00819008042384"/><polygon points="253.76042783063667 441.03264057738465 300.90623883602996 416.91576726274354 286.34405725827145 479.08423273725634 268.3226094083952 454.96735942261523"/><polygon points="327.34810443451846 436.6886851246345 312.6518955654814 433.5469041111096 340.44638879858695 462.4530958888903 299.55361120141293 459.3113148753654"/><polygon points="372.08271108788745 432.0738954600437 353.2506222454458 414.88921188233206 368.486434863676 481.1107881176678 356.8468984696573 463.9261045399562"/><polygon points="413.0696269848736 461.5673993971987 397.59703968179304 454.7057791035844 424.3652232940346 441.2942208964155 386.30144337263204 434.4326006028012"/><polygon points="460.5994544743219 448.2748167190019 435.400545525678 432.70788064970134 435.3886864639395 463.29211935029855 460.6113135360604 447.725183280998"/><polygon points="475.26724064598903 434.0334768179702 506.0660926873442 420.1053553514354 530.5978138158367 475.8946446485645 450.7355195174965 461.9665231820297"/><polygon points="10.666666666666666 452.0815333646795 32 487.9380098026301 32 493.39532353070314 10.666666666666666 529.2517999686538"/><polygon points="52.6409111686869 484.09211903579063 75.3590888313131 479.9148607859362 73.09599175928135 501.4184725473971 54.904008240718646 497.2412142975426"/><polygon points="98.4873429112866 471.43053615071574 114.84599042204671 473.2374953263117 119.65632926876553 508.09583800702154 93.67700406456778 509.9027971826175"/><polygon points="146.41698297557883 456.8135933565029 152.24968369108785 468.62269472905615 162.60527670001142 512.7106386042772 136.06138996665527 524.5197399768304"/><polygon points="171.33645645792322 499.15231033 212.66354354207678 479.54422612820156 206.2308004833052 501.7891072051317 177.7691995166948 482.1810230033333"/><polygon points="224.71475880708667 494.7269041904973 244.61857452624665 473.6071010260018 236.14771200849307 507.72623230733143 233.18562132484024 486.60642914283596"/><polygon points="276.1499982264517 503.2975897459891 278.5166684402149 481.3204030281463 298.16347121042884 500.01293030518696 256.5031954562378 478.03574358734414"/><polygon points="293.6200130640651 495.9762856918446 346.37998693593477 457.9000155672742 324.1781003109104 523.4333177660591 315.8218996890895 485.35704764148863"/><polygon points="349.3108309944553 508.71774550343275 376.022502338878 487.25875204881334 365.56753929291585 494.0745812845199 359.7657940404174 472.6155878299005"/><polygon points="389.25835093526604 477.3129742165954 421.4083157314006 454.5233202414416 409.25735451474634 526.8100130918916 401.4093121519203 504.02035911673784"/><polygon points="439.4992690003409 478.4670135476534 456.50073099965897 503.6908350192745 475.00991657105857 477.64249831405874 420.9900834289413 502.8663197856799"/><polygon points="469.75513886945646 459.6998013353051 511.5781944638768 482.6428080081323 504.49224264681396 498.69052532520095 476.8410906865193 521.6335319980282"/>
</svg>
