<?xml version="1.0" encoding="UTF-8"?>
<svg xmlns="http://www.w3.org/2000/svg" id="RSSicon" viewBox="0 0 512 512" width="512" height="512">
  <defs>
    <style type="text/css">
      svg {
        background: black;
        margin: calc(50vh - 256px) auto 0;
      }
      
      polygon {stroke: darkorange; fill: none;}
    </style>
  </defs>
  <polygon points="10.666666666666666 10.666666666666666 32 10.666666666666666 32 32 10.666666666666666 32"/><polygon points="53.89390908047129 10.666666666666666 74.10609091952871 10.666666666666666 73.63295641626958 32 54.36704358373042 32"/><polygon points="95.65805682000344 10.666666666666666 117.67527651332988 10.666666666666666 116.21481916137986 32 97.11851417195345 32"/><polygon points="143.6150044364232 10.666666666666666 155.0516622302435 10.666666666666666 164.34297956801817 32 134.32368709864852 32"/><polygon points="175.17210984619345 10.666666666666666 208.82789015380655 10.666666666666666 210.25117429305706 32 173.74882570694294 32"/><polygon points="232.59189648681064 10.666666666666666 236.74143684652267 10.666666666666666 251.3203043629169 32 218.01302897041643 32"/><polygon points="273.92346598201425 10.666666666666666 280.7432006846524 10.666666666666666 277.57100850141705 32 277.0956581652496 32"/><polygon points="297.5675996840064 10.666666666666666 342.4324003159935 10.666666666666666 317.35001573323495 32 322.64998426676493 32"/><polygon points="352.0745348998967 10.666666666666666 373.25879843343654 10.666666666666666 386.8863286990804 32 338.44700463425283 32"/><polygon points="378.79464520807977 10.666666666666666 431.87202145858686 10.666666666666666 409.6479116110341 32 401.01875505563254 32"/><polygon points="426.4798690807602 10.666666666666666 469.5201309192397 10.666666666666666 445.21459531407436 32 450.7854046859255 32"/><polygon points="501.5047037732428 10.666666666666666 479.82862956009046 10.666666666666666 523.5750485441991 32 457.75828478913405 32"/><polygon points="10.666666666666666 50.988536938895834 32 50.865536675974276 32 77.13446332402573 10.666666666666666 77.01146306110417"/><polygon points="54.03898355581167 51.904824940435304 73.96101644418833 52.06282170335961 74.53026383062472 75.93717829664038 53.46973616937528 76.0951750595647"/><polygon points="92.56646589484345 55.79383188611255 120.76686743848987 52.43036279853487 119.98210566794123 75.56963720146513 93.35122766539209 72.20616811388746"/><polygon points="132.9875746312642 53.58594448781094 165.67909203540248 54.193108845264156 154.62411022926722 73.80689115473585 144.04255643739947 74.41405551218907"/><polygon points="177.04277089999061 52.351064496034425 206.95722910000939 55.76997262937793 200.09269584491418 72.23002737062207 183.90730415508582 75.64893550396557"/><polygon points="216.76467423401354 55.37965912688369 252.56865909931977 54.06412859696506 237.11161140637066 73.93587140303494 232.22172192696266 72.6203408731163"/><polygon points="264.10976673835205 54.13905552576435 290.5568999283146 52.736607767694636 301.6313557649655 75.26339223230536 253.0353109017011 73.86094447423565"/><polygon points="296.5121469203824 53.735989789457236 343.4878530796175 52.32234547045171 338.5158941896004 75.67765452954829 301.4841058103995 74.26401021054276"/><polygon points="364.3340291844087 55.37452277668773 360.9993041489246 54.495621518025885 377.25352343903785 73.50437848197411 348.0798098942954 72.62547722331226"/><polygon points="376.96912252792384 52.849225994410645 433.6975441387428 53.067398828674584 431.9302250816453 74.93260117132542 378.73644158502134 75.15077400558935"/><polygon points="451.22398506100546 54.69745409716595 444.7760149389944 53.29083936420713 460.22262775477424 74.70916063579287 435.77737224522565 73.30254590283404"/><polygon points="477.9180329429978 51.03498529070896 503.41530039033546 53.55090491075639 524.3128201988187 74.44909508924361 457.0205131345145 76.96501470929104"/><polygon points="10.666666666666666 94.52889916331611 32 100.66011559874462 32 112.67321773458869 10.666666666666666 118.8044341700172"/><polygon points="53.44534929100473 98.83521611856786 74.55465070899527 97.06115815383149 72.50363499243792 116.27217517950183 55.496365007562076 114.49811721476546"/><polygon points="94.96241010100063 91.73168297550058 118.37092323233269 96.59400096662739 114.26824224442089 116.73933236670592 99.06509108891242 121.60165035783274"/><polygon points="134.62282143415362 93.72784420091958 164.04384523251306 91.90125289570325 163.32343628325268 121.43208043763006 135.343230383414 119.60548913241374"/><polygon points="191.59507922666288 92.47473246794195 192.40492077333712 91.41333489865245 193.3283739059115 121.91999843468086 190.6716260940885 120.85860086539137"/><polygon points="215.46359066052668 95.99396419644663 253.86974267280664 94.12954623967521 248.43810207763602 119.20378709365811 220.8952312556973 117.33936913688669"/><polygon points="280.80375449157015 100.83298533158833 273.8629121750965 98.72744557949028 286.21668868955277 114.60588775384304 268.44997797711386 112.50034800174498"/><polygon points="325.77141649693175 93.64774381262953 314.22858350306814 101.27257943962736 329.4087061949746 112.06075389370595 310.59129380502526 119.68558952070379"/><polygon points="370.39302874491904 99.57640300699681 354.9403045884142 98.17487589206912 368.21310096556823 115.15845744126419 357.120232367765 113.7569303263365"/><polygon points="375.75682814706124 96.82113677579372 434.9098385196054 94.93303249972807 420.3675239054447 118.40030083360524 390.2991427612219 116.5121965575396"/><polygon points="452.5724689552975 92.98116887014098 443.4275310447024 100.94136950691694 439.55852289323315 112.39196382641637 456.44147710676674 120.35216446319234"/><polygon points="452.29820048838775 91.7403410688187 529.0351328449456 91.23986804710746 472.8152670925632 122.09346528622585 508.51806624077005 121.59299226451462"/><polygon points="10.666666666666666 142.08317418265887 32 131.63602829373355 32 167.03063837293314 10.666666666666666 156.58349248400782"/><polygon points="52.96963338819216 140.45956101260347 75.03036661180785 141.72691792157192 76.35776719211498 156.93974874509476 51.64223280788503 158.2071056540632"/><polygon points="97.42391107498699 140.19827246434687 115.90942225834632 140.92685831832551 118.62561117450569 157.73980834834117 94.70772215882762 158.46839420231981"/><polygon points="144.54156385734083 138.7478452767224 154.12510280932585 141.66483162346506 155.617329398743 157.00183504320162 143.04933726792368 159.9188213899443"/><polygon points="184.66138917242364 134.43150241302735 199.33861082757636 136.82899517919623 197.79156969662102 161.83767148747046 186.20843030337898 164.23516425363934"/><polygon points="212.30935746265632 144.63368421404414 257.02397587067696 136.27173489536904 244.90055805690935 162.39493177129765 224.43277527642397 154.03298245262255"/><polygon points="255.90260933463202 146.32709098006652 298.7640573320346 144.19101541523804 275.59170841853955 154.47565125142864 279.0749582481271 152.33957568660017"/><polygon points="291.3811879115751 141.2444759239589 348.61881208842476 138.85269784846028 321.1454588771472 159.8139688182064 318.8545411228527 157.42219074270778"/><polygon points="342.3825074430881 133.2198624741659 382.95082589024514 142.50945191581235 367.1766571524412 156.15721475085434 358.1566761808921 165.4468041925008"/><polygon points="411.07629155687886 142.77784347968114 399.5903751097878 136.63124027092869 403.42680072853557 162.035426395738 407.23986593813106 155.88882318698555"/><polygon points="457.19120573980223 133.90871245570938 438.80879426019766 143.8995835075761 476.3138616484189 154.7670831590906 419.686138351581 164.7579542109573"/><polygon points="495.68325971273396 146.14167444132576 485.6500736205993 137.04688630950972 528.5837646929913 161.61978035715697 452.74956864034203 152.52499222534092"/><polygon points="10.666666666666666 183.4787330602156 32 172.64549115506475 32 211.35450884493525 10.666666666666666 200.5212669397844"/><polygon points="51.34736556349927 175.22403210039658 76.65263443650073 176.63324095578778 77.1473877456279 207.36675904421222 50.85261225437211 208.77596789960342"/><polygon points="91.93559051060264 184.13893882712628 121.39774282273068 175.01603798444006 112.59305406558661 208.98396201555994 100.7402792677467 199.86106117287372"/><polygon points="139.507815583305 179.57806606759812 159.1588510833617 190.5703264670563 152.38675094893134 193.4296735329437 146.27991571773535 204.42193393240188"/><polygon points="171.5797172972324 180.33668661268194 212.4202827027676 175.97840722179586 211.6297545973232 208.02159277820414 172.3702454026768 203.66331338731806"/><polygon points="215.34918221889083 186.416823529254 253.98415111444248 171.3887529250348 247.47797845547348 212.6112470749652 221.85535487785984 197.583176470746"/><polygon points="280.51145636547363 181.84946283053452 274.155210301193 189.715999184351 297.06892252706143 194.284000815649 257.5977441396052 202.15053716946548"/><polygon points="303.22497155711596 175.49633419010658 336.7750284428839 180.00386182693535 321.0751089969544 203.99613817306465 318.9248910030455 208.50366580989342"/><polygon points="366.4547241420739 185.30028543045054 358.87860919125933 182.2268083357768 370.7493033681422 201.7731916642232 354.58402996519106 198.69971456954946"/><polygon points="405.923525816965 177.08439504800566 404.7431408497016 176.71927314312447 406.8263744882355 207.28072685687553 403.8402921784311 206.91560495199434"/><polygon points="452.97695668915253 184.5314741714987 443.02304331084736 182.8596410625406 449.803492347646 201.1403589374594 446.1965076523539 199.4685258285013"/><polygon points="451.39843786528456 182.4404045359312 529.9348954680487 171.7402016759319 492.6693662780208 212.2597983240681 488.66396705531247 201.5595954640688"/><polygon points="10.666666666666666 221.37819920558545 32 234.79011050590523 32 234.54322282742808 10.666666666666666 247.95513412774787"/><polygon points="51.82127640537885 220.93197789846664 76.17872359462115 226.05219700325418 73.77622413796097 243.28113633007914 54.223775862039034 248.40135543486667"/><polygon points="100.2559927263154 216.1172404508868 113.07734060701792 221.942902677476 116.69153160245187 247.3904306558573 96.64180173088144 253.2160928824465"/><polygon points="132.34707509805142 227.82072391684488 166.31959156861527 224.16206377268782 152.00323818816472 245.1712695606455 146.66342847850197 241.51260941648843"/><polygon points="179.2369972133996 230.0499647912761 204.7630027866004 211.25740286975372 208.90547202099103 258.0759304635796 175.09452797900897 239.28336854205722"/><polygon points="216.45464651657332 228.67690347221776 252.87868681676 220.61000274151192 235.16752599075423 248.7233305918214 234.1658073425791 240.65642986111556"/><polygon points="250.84755865092063 216.40897309222657 303.819108015746 221.30859907070482 298.96178391410587 248.0247342626285 255.70488275256074 252.92436024110674"/><polygon points="309.52631865554906 235.58697456466084 330.4736813444508 230.8810861163109 324.2679230995655 238.4522472170224 315.7320769004344 233.74635876867248"/><polygon points="339.9429848645925 224.87052501726052 385.39034846874074 229.6252318367558 359.3867572869914 239.7081014965775 365.9465760463419 244.4628083160728"/><polygon points="410.13669677719315 222.46519815139172 400.5299698894735 220.30174716857198 419.5073920810751 249.03158616476134 391.1592745855915 246.8681351819416"/><polygon points="453.15653215794094 212.6965895312372 442.84346784205894 227.36444558733038 451.4653353561062 241.96888774600293 444.5346646438937 256.6367438020961"/><polygon points="496.7270601178839 211.1353830497077 484.60627321544933 227.58440592727501 516.5071421508088 241.7489274060583 464.8261911825245 258.1979502836256"/><polygon points="10.666666666666666 270.41384730665277 32 270.54493137956206 32 284.12173528710457 10.666666666666666 284.25281936001386"/><polygon points="50.700379250649256 278.7302709932872 77.29962074935075 254.19648153034788 76.2266490757211 300.4701851363188 51.7733509242789 275.9363956733794"/><polygon points="95.20005705919311 254.69425194635426 118.1332762741402 253.69118258227317 116.86635999008195 300.97548408439343 96.46697334325137 299.9724147203124"/><polygon points="131.05707343335325 262.4274822886624 167.60959323331343 282.4565657060726 153.28460178258445 272.21010096059405 145.38206488408224 292.2391843780042"/><polygon points="181.19589848793925 277.9628716260935 202.80410151206075 279.64035671019445 208.2391367639112 275.0263099564722 175.7608632360888 276.70379504057314"/><polygon points="227.77311228250025 257.6582989510413 241.56022105083306 279.75410837219295 243.7855863142222 274.9125582944737 225.5477470191111 297.00836771562535"/><polygon points="263.8816861284104 265.8864770450051 290.7849805382562 279.3837767413943 292.6262498022118 275.28288992527234 262.0404168644548 288.7801896216615"/><polygon points="295.2197999241814 269.5715106783972 344.78020007581847 263.4196321332175 328.3080408346244 291.24703453344915 311.69195916537547 285.0951559882694"/><polygon points="335.7766006889154 256.4317054950453 389.5567326444179 258.7433749629526 354.6482759979406 295.923291703714 370.6850573353927 298.2349611716213"/><polygon points="414.8656623886996 264.6427323755684 395.801004277967 266.78128879701626 419.03461883272064 287.88537786965037 391.632047833946 290.0239342910982"/><polygon points="463.96770264912027 251.78051427790408 432.0322973508796 263.7988243939273 473.0234337013491 290.8678422727393 422.97656629865077 302.8861523887625"/><polygon points="460.0078133130314 268.2839335188591 521.3255200203018 260.1111551186404 516.8195002574644 294.55551154802623 464.51383307586894 286.3827331478075"/><polygon points="10.666666666666666 321.040127704482 32 326.9296536544696 32 313.0703463455303 10.666666666666666 318.95987229551787"/><polygon points="55.002070541414334 313.426135978104 72.99792945858567 296.92153878601084 76.37272810421675 343.07846121398904 51.62727189578326 326.5738640218959"/><polygon points="94.61872781381233 310.1790133260978 118.71460551952099 315.54402391776756 121.80897418905886 324.4559760822323 91.52435914427446 329.8209866739021"/><polygon points="137.0830710977137 301.53827964990387 161.58359556895297 303.6359738575668 156.87476040314712 336.3640261424331 141.79190626351956 338.461720350096"/><polygon points="179.41534044429898 296.1143751669471 204.58465955570102 327.59305391219874 200.75079636410274 312.40694608780115 183.24920363589726 343.88562483305276"/><polygon points="226.76537241124197 302.88164675079173 242.56796092209134 326.0424949896455 256.82632367696533 313.9575050103544 212.50700965636798 337.11835324920816"/><polygon points="280.6571110412542 294.6428147446146 274.0095556254124 307.38289288208625 291.2063653027541 332.61710711791363 263.46030136391255 345.3571852553853"/><polygon points="296.63636375616886 290.98501104780183 343.363636243831 317.46676205197406 342.43605031873943 322.5332379480258 297.56394968126045 349.01498895219805"/><polygon points="351.10087526004963 319.8832099518157 374.2324580732836 317.61987683078394 361.737032743885 322.38012316921595 363.5963005894483 320.1167900481842"/><polygon points="380.63088451717636 316.6122459691509 430.0357821494903 296.61120567350196 401.20856119285435 343.38879432649793 409.4581054738123 323.387754030849"/><polygon points="418.55702314772395 318.8940719565691 477.44297685227593 291.54744979840103 449.52447543994367 348.45255020159885 446.4755245600562 321.10592804343077"/><polygon points="472.79712411823056 314.28604027628757 508.5362092151027 301.80020494172896 521.643013074143 338.1997950582709 459.69032025919023 325.7139597237123"/><polygon points="10.666666666666666 370.9639332598357 32 335.0873948558442 32 390.24593847748906 10.666666666666666 354.36940007349756"/><polygon points="50.90816465331088 359.3354326302294 77.09183534668912 357.57776015797776 75.80058356616543 367.7555731753555 52.19941643383457 365.9979007031039"/><polygon points="98.9410987618119 357.22604864295704 114.39223457152141 353.3985443910112 121.864679600065 371.93478894232203 91.46865373326831 368.1072846903762"/><polygon points="135.4232257350568 354.88655768205507 163.24344093160988 331.6444907556931 158.1662878981568 393.6888425776402 140.50037876850988 370.4467756512782"/><polygon points="180.3975014319587 331.7903466154189 203.6024985680413 364.66857299385924 212.8197391399061 360.664760339474 171.1802608600939 393.54298671791435"/><polygon points="228.0220242331173 352.1076350655293 241.31130910021602 360.9833288753805 247.87822196809145 364.35000445795276 221.45511136524186 373.225698267804"/><polygon points="267.9721756382333 358.9431741684199 286.69449102843333 366.14828544823973 291.03861897567526 359.1850478850935 263.62804769099137 366.39015916491337"/><polygon points="313.9117521978595 365.8495462858168 326.08824780214036 357.5376565400529 316.4335697460649 367.79567679328034 323.566430253935 359.48378704751644"/><polygon points="342.20268260621924 369.6657310712153 383.130650727114 350.32871846566667 386.31447540057604 375.0046148676666 339.0188579327572 355.66760226211795"/><polygon points="385.7972557197984 353.38090858885107 424.86941094686824 338.9815310177726 421.98040358239547 386.35180231556063 388.68626308427116 371.9524247444822"/><polygon points="411.88496226385274 352.88825324045143 484.11503773614714 339.84685464016127 440.3534028278005 385.486478693172 455.6465971721994 372.4450800928818"/><polygon points="495.84211897866044 366.220846323186 485.4912143546728 335.99451320546063 498.9967564723089 389.3388201278726 482.33657686102435 359.1124870101473"/><polygon points="10.666666666666666 394.78823058442475 32 403.72862776699793 32 406.9380388996687 10.666666666666666 415.8784360822419"/><polygon points="52.574303725121155 394.68915099578805 75.42569627487885 373.1900734154438 73.17622495685795 437.4765932512228 54.82377504314205 415.9775156708786"/><polygon points="97.37369717177089 401.6480721198176 115.95963616156243 401.98157783526045 114.63529552515023 408.6850888314062 98.69803780818309 409.01859454684904"/><polygon points="143.98720747396854 398.6696263236699 154.67945919269815 408.8113057969778 159.72980925315244 401.8553608696888 138.93685741351425 411.99704034299674"/><polygon points="190.12255770320417 409.74976763691114 193.87744229679583 408.888599724091 193.86783646919872 401.7780669425756 190.13216353080128 400.9168990297555"/><polygon points="232.49833473380016 404.5502517392193 236.83499859953315 415.244839045094 255.4525855882269 395.4218276215726 213.88074774510642 406.11641492744735"/><polygon points="262.35040797371477 374.11245773637324 292.31625869295186 413.35568656866803 303.3334492101664 397.3109800979986 251.33321745650025 436.5542089302934"/><polygon points="314.40993491183843 373.90836767713625 325.59006508816145 410.8592571927895 328.93191748198785 399.8074094738771 311.06808251801203 436.7582989895304"/><polygon points="347.7954774595583 383.94651073372364 377.53785587377496 391.4182166814191 389.38654455100914 419.24844998524753 335.9467887823241 426.720155932943"/><polygon points="384.8975735161045 378.2961168233875 425.7690931505621 384.0302994591372 417.9479841861262 426.6363672075294 392.71868248054045 432.37054984327915"/><polygon points="430.23260138430754 374.85109040375323 465.76739861569234 393.88821998169516 433.39009667169967 416.77844668497147 462.6099033283002 435.8155762629134"/><polygon points="467.76329014877854 396.36599825554333 513.5700431845547 395.37392211051355 482.49125623040703 415.2927445561531 498.8420771029262 414.3006684111233"/><polygon points="10.666666666666666 416.25234396187494 32 435.5014451997031 32 460.4985548002968 10.666666666666666 479.74765603812494"/><polygon points="53.15599728800382 431.0060563561939 74.84400271199618 434.7406745098881 76.89911078899974 461.2593254901118 51.100889211000265 464.993943643806"/><polygon points="93.63602209141797 454.34427576800744 119.69731124191534 461.21799903425534 120.40344412768856 434.78200096574454 92.92988920564476 441.65572423199245"/><polygon points="143.8682545210148 418.47994878167896 154.7984121456519 429.315666256157 160.10624974250229 466.6843337438429 138.5604169241644 477.52005121832093"/><polygon points="173.9378941908964 459.88735308503465 210.0621058091036 421.4148189413896 193.13782952866967 474.58518105861026 190.86217047133033 436.11264691496524"/><polygon points="217.1866454997053 424.91651463009055 252.14668783362802 449.58868383932565 257.7749511488724 446.41131616067423 211.55838218446092 471.08348536990934"/><polygon points="256.442731009085 456.76923044707166 298.22393565758165 452.86307501546577 276.7631106674863 443.1369249845341 277.90355599918036 439.2307695529282"/><polygon points="309.36318971591095 455.8365451303547 330.63681028408894 454.13529676005203 335.41905390007105 441.86470323994786 304.58094609992884 440.1634548696452"/><polygon points="353.03018208110893 411.0828332371052 372.3031512522243 457.44479682459917 381.0829984680753 438.5552031754007 344.25033486525797 484.9171667628947"/><polygon points="390.19990516282985 441.38760699364866 420.4667615038368 414.6801970839953 427.97714768468336 481.31980291600456 382.68951898198327 454.6123930063512"/><polygon points="445.6117792545767 437.89708335935524 450.3882207454232 462.7239497485162 439.2403464661158 433.2760502514837 456.7596535338841 458.10291664064465"/><polygon points="496.6719933485175 463.01562239602504 484.66133998481575 413.5165558306718 517.7222674594433 482.4834441693281 463.61106587388997 432.98437760397485"/><polygon points="10.666666666666666 482.0329713740275 32 477.29025700617814 32 504.0430763271551 10.666666666666666 499.30036195930575"/><polygon points="55.7726333857843 452.3656074344783 72.2273666142157 478.7500459497226 74.75568228520004 502.58328738361064 53.24431771479997 528.967725898855"/><polygon points="97.06936339839424 505.8497599641485 116.26396993493907 485.50152198201647 112.36788226017622 495.8318113513168 100.9654510731571 475.48357336918474"/><polygon points="143.2926482745552 478.12702790946236 155.37401839211148 480.2873382326064 165.62445524457587 501.0459951007269 133.04221142209082 503.2063054238709"/><polygon points="191.54974204155792 500.81937085352826 192.45025795844208 460.0082522315298 196.0422008906941 521.3250811018034 187.9577991093059 480.513962479805"/><polygon points="218.13879911137826 480.89390892485784 251.19453422195505 453.24026712080547 244.9807431592318 528.0930662125278 224.35259017410152 500.4394244084754"/><polygon points="265.3771768902575 474.9387238882259 289.28948977640914 493.71916547914043 276.84198848864924 487.61416785419283 277.8246781780174 506.39460944510733"/><polygon points="305.65311121582323 499.0709919026626 334.34688878417666 498.3533713785327 341.9732960348121 482.97996195480056 298.0267039651878 482.26234143067063"/><polygon points="362.746185979821 467.20863074775843 362.58714735351225 490.4166707727677 361.8890060385855 490.91666256056556 363.4443272947478 514.1247025855748"/><polygon points="397.28667069817413 494.85201748921077 413.3799959684925 484.49878014770826 409.255979923372 496.834553185625 401.4106867432946 486.4813158441225"/><polygon points="438.13575936227795 452.0638719952754 457.86424063772193 488.967707870879 479.55932121162687 492.36562546245426 416.440678788373 529.2694613380579"/><polygon points="494.93877754347955 491.09956691210687 486.3945557898537 455.9740264266771 503.9482445711932 525.3593069066562 477.3850887621401 490.2337664212264"/>
</svg>
