<?xml version="1.0" encoding="UTF-8"?>
<svg xmlns="http://www.w3.org/2000/svg" id="RSSicon" viewBox="0 0 512 512" width="512" height="512">
  <defs>
    <style type="text/css">
      svg {
        background: black;
        margin: calc(50vh - 256px) auto 0;
      }
      
      polygon {stroke: darkorange; fill: none;}
    </style>
  </defs>
  <polygon points="10.666666666666666 10.666666666666666 32 10.666666666666666 32 32 10.666666666666666 32"/><polygon points="51.62126554289301 10.666666666666666 76.37873445710699 10.666666666666666 76.62789792059142 32 51.37210207940858 32"/><polygon points="92.1179520601539 10.666666666666666 121.21538127317942 10.666666666666666 113.39148521175494 32 99.94184812157837 32"/><polygon points="133.54950412557466 10.666666666666666 165.11716254109203 10.666666666666666 155.5336661687483 32 143.13300049791837 32"/><polygon points="182.36534216954922 10.666666666666666 201.63465783045078 10.666666666666666 201.0300408079067 32 182.9699591920933 32"/><polygon points="218.66715101010465 10.666666666666666 250.66618232322867 10.666666666666666 232.1786785153066 32 237.15465481802673 32"/><polygon points="267.09596079735775 10.666666666666666 287.5707058693089 10.666666666666666 299.1538197252308 32 255.51284694143587 32"/><polygon points="291.15042711835974 10.666666666666666 348.84957288164014 10.666666666666666 336.46771006983795 32 303.53228993016194 32"/><polygon points="372.9053964161452 10.666666666666666 352.42793691718805 10.666666666666666 356.78752594732043 32 368.5458073860128 32"/><polygon points="378.36754371939435 10.666666666666666 432.2991229472723 10.666666666666666 438.5382565580881 32 372.1284101085785 32"/><polygon points="423.0145256993281 10.666666666666666 472.9854743006718 10.666666666666666 434.7739478135288 32 461.22605218647107 32"/><polygon points="453.6880183933288 10.666666666666666 527.6453149400045 10.666666666666666 474.9290201568234 32 506.40431317650985 32"/><polygon points="10.666666666666666 55.23922736593623 32 52.754842760907586 32 75.2451572390924 10.666666666666666 72.76077263406377"/><polygon points="52.598561303939086 54.84963858198272 75.40143869606092 50.67192432288756 75.40527230253741 77.32807567711244 52.59472769746258 73.15036141801728"/><polygon points="97.14768063664931 55.900702399360384 116.185652696684 52.375795449861 118.6477414872197 75.624204550139 94.68559184611361 72.09929760063962"/><polygon points="143.2427812861187 52.72220419242732 155.42388538054797 50.85505441248863 165.62153520004824 77.14494558751137 133.04513146661844 75.27779580757269"/><polygon points="175.7851564328809 55.41805827733982 208.2148435671191 53.110216299975704 195.89372245241594 74.8897837000243 188.10627754758406 72.58194172266019"/><polygon points="219.37231434905596 54.03155551194486 249.96101898427736 53.75373888114119 233.06303523167372 74.24626111885881 236.2702981016596 73.96844448805514"/><polygon points="274.0532780529551 53.721713854914725 280.61338861371155 50.710026767246994 300.71959227987134 77.28997323275301 253.9470743867953 74.27828614508527"/><polygon points="301.4075325201886 55.043702189298656 338.59246747981126 53.01503050824925 337.5749476407041 74.98496949175076 302.42505235929576 72.95629781070134"/><polygon points="342.21813657559153 50.968518087121524 383.1151967577417 55.59243954307859 385.6173426811729 72.4075604569214 339.7159906521604 77.03148191287848"/><polygon points="383.75300065532286 53.34351422848819 426.91366601134376 54.21445539155462 439.9925683646806 73.78554460844538 370.674098301986 74.65648577151181"/><polygon points="462.11236929625625 51.296709861670266 433.88763070374364 54.21990365759798 472.13959349196057 73.78009634240202 423.8604065080393 76.70329013832973"/><polygon points="497.32129736098597 54.71739555262989 484.0120359723473 51.25699659186092 504.59216425157257 76.74300340813909 476.7411690817607 73.28260444737012"/><polygon points="10.666666666666666 95.35633786550329 32 99.14103250245431 32 114.192300830879 10.666666666666666 117.97699546783002"/><polygon points="55.76823933292111 93.73216051889449 72.23176066707889 91.5597121543807 72.99038351323242 121.77362117895261 55.009616486767584 119.60117281443883"/><polygon points="95.64518444931946 99.2372953873731 117.68814888401386 95.9370657654962 120.5519529578473 117.39626756783711 92.78138037548601 114.09603794596022"/><polygon points="146.59287077006167 99.43705663492258 152.07379589660502 97.28634965035285 155.274465745573 116.04698368298047 143.3922009210937 113.89627669841073"/><polygon points="173.12767355440897 93.7002268413601 210.87232644559103 96.48168053911421 208.1568669145843 116.8516527942191 175.8431330854157 119.63310649197321"/><polygon points="216.65267547094004 93.93415703662157 252.68065786239328 92.47727951152021 244.8763136826784 120.8560538218131 224.45701965065493 119.39917629671174"/><polygon points="265.9797763862186 99.29467979523568 288.68689028044804 97.38881335534568 291.7199854646725 115.94451997798764 262.9466812019941 114.03865353809763"/><polygon points="326.548325513036 95.07530370637802 313.4516744869639 97.99948258667004 318.8893863926222 115.33385074666327 321.1106136073777 118.25802962695529"/><polygon points="345.10491008807406 91.85514182769043 380.2284232452592 91.65534423008789 366.7799533713449 121.67798910324542 358.55337996198836 121.47819150564288"/><polygon points="392.68072633349914 92.57117755911963 417.9859403331675 98.85096969160152 433.57902061445276 114.4823636417318 377.08764605221387 120.76215577421368"/><polygon points="414.97067482713004 95.92090184922482 481.02932517286985 92.11741225672802 452.5642829346075 121.2159210766053 443.4357170653924 117.4124314841085"/><polygon points="507.12428421673894 97.21870713283212 474.2090491165943 96.4924191955314 523.1987881572261 116.84091413780192 458.1345451761071 116.11462620050119"/><polygon points="10.666666666666666 131.82458030613668 32 145.9870192016165 32 152.67964746505018 10.666666666666666 166.84208636053"/><polygon points="53.53455823233418 146.56375664589356 74.46544176766582 144.05779721759947 76.54184575364181 154.6088694490672 51.45815424635819 152.10291002077312"/><polygon points="93.97926678382842 137.09459367718588 119.35406654950489 136.509812380302 121.76368555947234 162.15685428636468 91.56964777386098 161.5720729894808"/><polygon points="143.13385180399075 141.98209479745032 155.53281486267593 143.85800838338176 163.22045089271433 154.80865828328493 135.44621577395236 156.68457186921637"/><polygon points="191.4185445154725 144.76297593737894 192.5814554845275 135.00354129694588 192.70098385117296 163.6631253697208 191.29901614882704 153.90369072928775"/><polygon points="230.8055103672738 132.46099267784948 238.52782296605952 146.04492492312363 241.01045336547176 152.62174174354305 228.32287996786155 166.2056739888172"/><polygon points="270.89412560022646 145.19512764357336 283.77254106644017 140.7897009023029 301.2412819906183 157.87696576436377 253.42538467604834 153.47153902309333"/><polygon points="318.4334082666211 138.40379471842712 321.5665917333788 134.70775891700723 345.964623285019 163.95890774965946 294.0353767149809 160.26287194823956"/><polygon points="350.34242824185765 146.0325624408538 374.9909050914756 139.63017613992739 392.1926597543742 159.0364905267393 333.1406735789591 152.63410422581288"/><polygon points="375.90992382266325 138.46091125528687 434.7567428440034 139.3711654218116 402.17508115686053 159.29550124485507 408.4915855098061 160.2057554113798"/><polygon points="420.14845552764507 131.67226228226968 475.8515444723548 134.6991293156377 442.93256909441476 163.967537351029 453.0674309055851 166.994404384397"/><polygon points="481.41213643769436 133.53728914707045 499.9211968956389 145.6535956686246 484.2720373800779 153.01307099804208 497.06129595325535 165.12937751959623"/><polygon points="10.666666666666666 180.5967171348184 32 181.87663738604428 32 202.12336261395572 10.666666666666666 203.4032828651816"/><polygon points="51.48713781658957 180.12706200665735 76.51286218341043 191.07356374317445 72.21376251341263 192.92643625682555 55.786237486587375 203.87293799334265"/><polygon points="94.94737676717551 188.55216285575287 118.3859565661578 175.76237462661595 122.11623034298029 208.23762537338405 91.21710299035303 195.44783714424713"/><polygon points="146.4332697516457 176.60239798175763 152.233396915021 175.16166827928564 152.05771776715534 208.83833172071436 146.60894889951135 207.39760201824237"/><polygon points="180.6798749247788 187.1767846323791 203.3201250752212 191.89909773309319 199.50768760965315 192.10090226690681 184.49231239034685 196.8232153676209"/><polygon points="227.42634513697047 171.0127775871657 241.90698819636285 188.992521626703 238.92483234810743 195.007478373297 230.40850098522588 212.9872224128343"/><polygon points="252.72340441886485 179.12312490646045 301.9432622478018 173.98570426742526 273.6411951807749 210.01429573257474 281.0254714858917 204.87687509353955"/><polygon points="293.1213591325161 189.27519711155045 346.8786408674838 186.40208455804876 331.9083830161835 197.59791544195124 308.0916169838164 194.72480288844955"/><polygon points="330.85278214411875 184.2342506945587 394.4805511892145 188.5356510708194 356.18143071271 195.4643489291806 369.1519026206233 199.7657493054413"/><polygon points="412.77886347236813 191.03609405560087 397.8878031942985 172.2415653110919 404.2100238928995 211.7584346889081 406.4566427737671 192.96390594439913"/><polygon points="448.75635595191756 181.8313474833362 447.24364404808233 181.74994400240513 433.2247798541775 202.25005599759487 462.7752201458224 202.1686525166638"/><polygon points="471.72180276877515 187.42270427995393 509.6115305645581 175.89383639629483 519.1873481029057 208.10616360370517 462.1459852304275 196.57729572004607"/><polygon points="10.666666666666666 218.4662308998642 32 227.5416603974069 32 241.7916729359264 10.666666666666666 250.8671024334691"/><polygon points="55.05297064605884 235.70073354183148 72.94702935394116 226.7278699654475 72.76957259119374 242.60546336788582 55.230427408806264 233.63259979150183"/><polygon points="98.82478524721508 224.06862910250922 114.50854808611824 234.65257250565068 118.45162846608459 234.68076082768263 94.88170486724873 245.2647042308241"/><polygon points="134.1137581589664 221.62426287350564 164.5529085077003 222.61834193383717 153.02468930519964 246.71499139949614 145.64197736146704 247.70907045982767"/><polygon points="178.91299438299177 218.02836271740145 205.08700561700823 214.6143600725896 200.95070981172887 254.71897326074372 183.04929018827113 251.30497061593186"/><polygon points="227.3298816099914 221.13926909624644 242.00345172334193 218.4871744279515 254.34073694824892 250.84615890538183 214.9925963850844 248.19406423708688"/><polygon points="267.9115699238686 215.86195993454993 286.755096742798 225.17978364034826 290.33038393492467 244.15354969298505 264.33628273174196 253.47137339878338"/><polygon points="291.64092072981583 212.0574210564846 348.35907927018405 221.6515771644558 333.91222210722776 247.6817561688775 306.0877778927721 257.2759122768487"/><polygon points="364.54741310103145 222.87377688099588 360.7859202323018 234.02778451283794 359.00570973633387 235.30554882049537 366.3276235969994 246.45955645233744"/><polygon points="406.86760177629407 220.53131325910277 403.79906489037256 213.21504308692695 409.78304150990334 256.11829024640633 400.8836251567633 248.80202007423054"/><polygon points="442.4672745559818 223.8640823164294 453.53272544401807 231.89965441740546 439.1123426212303 237.43367891592786 456.8876573787696 245.4692510169039"/><polygon points="455.3793818867614 234.04788795114547 525.9539514465719 222.4002269674787 502.675011867606 246.93310636585463 478.6583214657273 235.28544538218785"/><polygon points="10.666666666666666 264.9464163728101 32 259.7398460240515 32 294.92682064261516 10.666666666666666 289.7202502938565"/><polygon points="51.14393163564117 280.5877622932824 76.85606836435883 275.01638999537425 72.27347053237091 279.6502766712924 55.7265294676291 274.0789043733842"/><polygon points="98.24890076079014 279.34591384260074 115.08443257254318 269.3622634435009 112.43728174223897 285.3044032231657 100.89605159109435 275.3207528240659"/><polygon points="135.87021738772836 262.58972269842656 162.79644927893833 277.65679644723883 166.23415171811288 277.0098702194278 132.4325149485538 292.0769439682401"/><polygon points="181.6413911988148 270.55882820704 202.3586088011852 251.1299448179668 212.42561826645615 303.5367218486998 171.57438173354385 284.10783845962663"/><polygon points="212.16514024137055 275.3483369842322 257.16819309196273 273.8686353626798 242.29570472428935 280.7980313039868 227.03762860904396 279.3183296824344"/><polygon points="253.41777749926356 260.41659756069345 301.24888916740304 278.8885734692616 301.0187315399156 275.77809319740504 253.64793512675104 294.2500691059732"/><polygon points="316.13696634038234 266.79595746219235 323.86303365961754 263.2905132020653 339.1660093301411 291.3761534646013 300.8339906698588 287.8707092044743"/><polygon points="359.84561440033696 252.29144075112634 365.4877189329963 270.99246181729825 370.6560149989596 283.6742048493684 354.67731833437364 302.3752259155403"/><polygon points="390.9243191543645 267.325675822748 419.7423475123021 277.05285330141436 400.24197632214066 277.61381336525227 410.42469034452597 287.34099084391863"/><polygon points="430.1462234112348 267.4502819104071 465.8537765887651 280.0077837830408 451.40924661688547 274.65888288362584 444.5907533831144 287.2163847562595"/><polygon points="482.61577693926813 281.4458399204173 498.7175563940651 253.48823633100315 505.35116270521803 301.17843033566345 475.9821706281152 273.2208267462493"/><polygon points="10.666666666666666 324.69725172765845 32 313.2727801824517 32 326.7272198175482 10.666666666666666 315.30274827234143"/><polygon points="55.58973787097653 292.34593735545496 72.41026212902347 304.86343830652316 72.13421941234621 335.1365616934767 55.86578058765379 347.6540626445449"/><polygon points="98.75528635068954 310.7863223799415 114.57804698264377 297.7256692787115 120.79974186869337 342.2743307212884 92.53359146463994 329.2136776200584"/><polygon points="146.51083223887346 299.16318497438914 152.15583442779322 321.3420142285824 164.0905704996601 318.6579857714175 134.5760961670066 340.83681502561075"/><polygon points="188.6093374451521 296.25318143626026 195.3906625548479 315.800908375238 206.35689637349213 324.1990916247619 177.64310362650787 343.7468185637396"/><polygon points="232.32302788932554 299.19764674767237 237.01030544400777 312.0562396038022 241.81455698148872 327.94376039619766 227.5187763518446 340.8023532523275"/><polygon points="251.41044570935767 314.80041972555864 303.256220957309 310.0129462681166 282.77012238879695 329.9870537318833 271.8965442778697 325.19958027444125"/><polygon points="292.1338304382382 324.59982604352797 347.8661695617617 293.028124212684 325.24307889503723 346.97187578731587 314.75692110496266 315.4001739564719"/><polygon points="343.9513294439534 308.9388389281074 381.38200388937986 311.1629187995665 373.3059962025801 328.8370812004334 352.02733713075315 331.0611610718925"/><polygon points="401.4883676739506 304.17173524474424 409.178298992716 296.65559700634464 407.49939536286206 343.34440299365525 403.16727130380457 335.82826475525565"/><polygon points="438.4019953757519 292.4319969047291 457.598004624248 292.7241284130114 472.65828328963624 347.2758715869885 423.34171671036364 347.5680030952708"/><polygon points="482.1948662129528 304.75993494737287 499.1384671203805 292.9249766578352 483.95864137095697 347.0750233421647 497.3746919623763 335.240065052627"/><polygon points="10.666666666666666 364.0417280771392 32 335.9058896585907 32 389.42744367474256 10.666666666666666 361.29160525619403"/><polygon points="55.57095655872468 344.7518495031172 72.42904344127531 334.773246297875 76.57599029007687 390.56008703545825 51.424009709923126 380.58148383021603"/><polygon points="94.62715071417728 335.520982634168 118.70618261915604 359.83304568918385 114.59464452866477 365.5002876441494 98.73868880466854 389.8123506991653"/><polygon points="141.37441081871398 368.278385878152 157.2922558479527 368.1884204116641 152.66429949067785 357.1449129216692 146.00236717598884 357.05494745518126"/><polygon points="189.3791706258846 365.07673549345395 194.6208293741154 344.83211383948424 199.47178259803664 380.501219493849 184.52821740196336 360.2565978398793"/><polygon points="218.0087817711684 365.24648471667865 251.3245515621649 358.0257102549445 238.99314686331448 367.30762307838876 230.34018647001884 360.0868486166546"/><polygon points="257.36559999131225 349.76559390932283 297.3010666753544 333.09726199815924 303.9193867497591 392.236071335174 250.74727991690753 375.5677394240104"/><polygon points="317.4860954803827 339.194699810944 322.5139045196172 341.0863603746876 342.576304330923 384.24697295864564 297.4236956690769 386.1386335223893"/><polygon points="348.48709857944885 336.08994779755517 376.8462347538844 371.3360762625288 368.5548053025308 353.99725707080444 356.7785280308025 389.2433855357781"/><polygon points="375.40538152365707 336.2465962615028 435.26128514300956 340.59550407442794 402.5725555500376 384.7378292589053 408.09411111662905 389.08673707183044"/><polygon points="446.66507667227137 331.0791045254747 449.3349233277285 338.70069346194583 444.73183553634215 386.6326398713874 451.26816446365774 394.25422880785857"/><polygon points="508.81197399337634 373.0027679510717 472.5213593399569 348.12682716035204 490.9675931935885 377.2065061729812 490.36574013974473 352.33056538226157"/><polygon points="10.666666666666666 373.5445230000196 32 381.4382463648365 32 429.2284203018301 10.666666666666666 437.12214366664705"/><polygon points="54.554966161641275 385.3717856298577 73.44503383835873 411.1541413461099 74.26765479665984 399.51252532055673 53.73234520334016 425.29488103680893"/><polygon points="99.12681396683786 394.5615606314514 114.20651936649546 405.48565673020363 121.15052272713983 405.181009936463 92.18281060619348 416.1051060352152"/><polygon points="141.35048780186995 396.05059255467575 157.31617886479674 381.2978743834041 159.36270588906623 429.3687922832625 139.30396077760045 414.6160741119909"/><polygon points="177.82553839098236 416.07005157923953 206.17446160901764 383.18372680916656 202.67994220951965 427.48293985750007 181.32005779048035 394.5966150874271"/><polygon points="233.33875685791486 386.28778205798295 235.99457647541846 384.8626669784907 238.01611042044138 425.8039996881759 231.31722291289194 424.3788846086837"/><polygon points="261.23689084789817 410.4289964945419 293.42977581876846 396.5141592785901 275.8122162651378 414.1525073880765 278.8544504015288 400.23767017212475"/><polygon points="321.51271193000986 410.53746225142004 318.48728806999003 406.4505234492452 336.74073395549647 404.2161432174214 303.2592660445034 400.1292044152466"/><polygon points="343.2422873965987 387.03845642723047 382.09104593673453 377.94798527255375 358.4068208203517 432.7186813941129 366.92651251298156 423.62821023943616"/><polygon points="379.55292277089234 401.7464034161841 431.1137438957743 405.68270942999965 434.48579258158907 404.983957236667 376.18087408507756 408.92026325048255"/><polygon points="434.39564664924956 408.13647744168895 461.60435335075033 397.73878709136187 451.45796915226134 412.92787957530476 444.54203084773854 402.5301892249777"/><polygon points="477.5106678565938 383.9359345428742 503.8226654767395 395.5781229911486 513.3154988798467 415.08854367551805 468.0178344534866 426.73073212379245"/><polygon points="10.666666666666666 418.75696067552707 32 445.77052094764304 32 450.22947905235685 10.666666666666666 477.2430393244728"/><polygon points="53.30987200570215 431.0806294521445 74.69012799429785 413.96504480271693 75.08433948751473 482.03495519728295 52.915660512485275 464.9193705478554"/><polygon points="97.422605862276 423.21149297987927 115.91072747105731 439.5974128340126 118.70516744752086 456.4025871659873 94.62816588581245 472.7885070201206"/><polygon points="133.92825167788496 448.3657941128205 164.73841498878173 447.7163121149291 162.01793504189004 448.2836878850708 136.64873162477664 447.6342058871794"/><polygon points="172.66817464822176 463.90522599098955 211.33182535177824 434.7466700502709 202.05780950432376 461.253329949729 181.94219049567624 432.09477400901034"/><polygon points="224.80949608386817 456.9692851022728 244.52383724946515 456.13526096938887 244.6351328788807 439.864739030611 224.6982004544526 439.0307148977271"/><polygon points="278.8065086638699 417.43083131655544 275.8601580027967 411.73321316092427 272.4793118124707 484.2667868390756 282.1873548541959 478.56916868344445"/><polygon points="310.76725774548544 437.3301032388855 329.23274225451445 453.5714415698347 344.03408066064674 442.4285584301652 295.96591933935315 458.6698967611144"/><polygon points="355.09019206323944 434.42916728693854 370.2431412700938 427.8661099346393 367.33508675352084 468.13389006536056 357.9982465798124 461.57083271306135"/><polygon points="383.60194484899995 422.861422066376 427.0647218176667 449.68976638682653 422.2046024662689 446.31023361317335 388.4620642003977 473.1385779336239"/><polygon points="437.07887781101647 439.46319523685906 458.9211221889834 429.94061553974007 438.9712056103353 466.0593844602598 457.0287943896646 456.5368047631408"/><polygon points="498.9688380383585 435.7478940424152 482.36449529497474 437.789485650054 504.0629408717321 458.21051434994587 477.27039246160115 460.25210595758466"/><polygon points="10.666666666666666 485.5547368219313 32 469.7888468894065 32 511.54448644392676 10.666666666666666 495.778596511402"/><polygon points="53.64508266479509 493.22585951820867 74.3549173352049 472.6971860942929 76.02016637652241 508.6361472390404 51.97983362347759 488.1074738151246"/><polygon points="93.09169183720591 472.47939887080656 120.2416414961274 468.9104834067783 120.86184144863128 512.4228499265549 92.47149188470203 508.8539344625267"/><polygon points="132.5334430814273 466.7072219975532 166.1332235852394 485.06548932656875 159.28604159280425 496.2678440067645 139.38062507386243 514.6261113357801"/><polygon points="176.92861515603622 483.5219990663993 207.07138484396378 450.9367301950122 209.2769573048527 530.3966031383211 174.7230426951473 497.81133426693395"/><polygon points="226.07379860687243 470.4546975759716 243.25953472646088 502.7755079272712 238.81106096536973 478.5578254060621 230.52227236796358 510.8786357573617"/><polygon points="267.96502116735934 473.3795117916035 286.7016454993073 498.6260928383371 294.12400569783256 482.70724049499614 260.54266096883407 507.9538215417298"/><polygon points="302.546612844862 468.5587646848707 337.4533871551379 452.557833448973 342.1090817240958 528.7754998843603 297.8909182759041 512.7745686484625"/><polygon points="342.82529928741087 505.6612234319783 382.5080340459224 486.0700218443145 377.66398745666146 495.26331148901875 347.6693458766718 475.67210990135493"/><polygon points="404.7547840062869 482.3828958673674 405.9118826603797 465.3969597702685 439.79275181819895 515.9363735630648 370.8739148484677 498.9504374659659"/><polygon points="419.0490850553212 454.3449250388536 476.9509149446787 494.3528821095945 441.3655932297764 486.9804512237388 454.6344067702235 526.9884082944797"/><polygon points="476.3939897443159 505.13427894418544 504.93934358901737 465.6127395888094 527.1579117453794 515.7205937445239 454.17542158795396 476.1990543891478"/>
</svg>
