<?xml version="1.0" encoding="UTF-8"?>
<svg xmlns="http://www.w3.org/2000/svg" id="RSSicon" viewBox="0 0 512 512" width="512" height="512">
  <defs>
    <style type="text/css">
      svg {
        background: black;
        margin: calc(50vh - 256px) auto 0;
      }
      
      polygon {stroke: darkorange; fill: none;}
    </style>
  </defs>
  <polygon points="10.666666666666666 10.666666666666666 32 10.666666666666666 32 32 10.666666666666666 32"/><polygon points="55.337848418529916 10.666666666666666 72.66215158147008 10.666666666666666 75.51397269510676 32 52.48602730489325 32"/><polygon points="99.01022811147031 10.666666666666666 114.323105221863 10.666666666666666 117.19308101214077 32 96.14025232119255 32"/><polygon points="131.20703788295918 10.666666666666666 167.4596287837075 10.666666666666666 159.38684743920146 32 139.27981922746523 32"/><polygon points="181.0724999250632 10.666666666666666 202.9275000749368 10.666666666666666 192.90807334778168 32 191.09192665221832 32"/><polygon points="211.92920728394557 10.666666666666666 257.40412604938774 10.666666666666666 255.68393834621196 32 213.64939498712135 32"/><polygon points="263.2520342296455 10.666666666666666 291.4146324370211 10.666666666666666 293.69550991463336 32 260.97115675203327 32"/><polygon points="294.8777910525766 10.666666666666666 345.1222089474233 10.666666666666666 320.1730188056422 32 319.8269811943577 32"/><polygon points="366.18494556799396 10.666666666666666 359.1483877653393 10.666666666666666 356.2363024657512 32 369.0970308675821 32"/><polygon points="379.25771444456217 10.666666666666666 431.40895222210446 10.666666666666666 394.07058972147365 32 416.596076945193 32"/><polygon points="445.85409898990025 10.666666666666666 450.14590101009964 10.666666666666666 462.8780464031449 32 433.121953596855 32"/><polygon points="474.9865174735573 10.666666666666666 506.346815859776 10.666666666666666 506.4692444868198 32 474.8640888465135 32"/><polygon points="10.666666666666666 51.10948371032661 32 51.96934712138258 32 76.03065287861742 10.666666666666666 76.8905162896734"/><polygon points="54.624901832207314 53.27184613163191 73.37509816779269 51.93294998882051 76.28591667934 76.06705001117949 51.714083320659995 74.7281538683681"/><polygon points="100.39326210813833 52.48267333352461 112.94007122519498 54.3365140238586 120.29669852242753 73.6634859761414 93.03663481090578 75.5173266664754"/><polygon points="134.96811700921708 51.099588950964275 163.6985496574496 51.585274760615526 157.92570125202548 76.41472523938448 140.7409654146412 76.90041104903572"/><polygon points="190.36409093415125 52.81356916643459 193.63590906584875 55.015967302324114 195.76313184183488 72.98403269767589 188.23686815816512 75.18643083356541"/><polygon points="214.5309332291804 51.13765327950537 254.80240010415292 53.85618976089391 245.03754904203834 74.14381023910609 224.29578429129498 76.86234672049463"/><polygon points="267.54062378211944 54.47836536435995 287.1260428845472 51.01531295904881 285.25111523326876 76.98468704095119 269.41555143339787 73.52163463564005"/><polygon points="305.47717421666414 53.635354348282625 334.52282578333575 55.598012227817335 329.8911418755857 72.40198777218266 310.1088581244142 74.36464565171738"/><polygon points="365.76782090452264 52.16402465586814 359.5655124288106 54.28956078891202 380.05961730323884 73.71043921108799 345.2737160300944 75.83597534413187"/><polygon points="408.9281920808844 53.26659082654616 401.7384745857822 54.817969863694564 397.71803292776866 73.18203013630543 412.94863373889797 74.73340917345385"/><polygon points="451.9431017460731 50.74137624839469 444.05689825392676 54.8299380489214 463.31858398229247 73.17006195107861 432.6814160177074 77.25862375160531"/><polygon points="481.5390642501907 52.20506161628804 499.7942690831426 55.185748246657475 520.6281980985511 72.81425175334252 460.7051352347821 75.79493838371197"/><polygon points="10.666666666666666 100.28264598170513 32 100.99810077694653 32 112.33523255638679 10.666666666666666 113.05068735162818"/><polygon points="51.4715192406411 98.50876926079428 76.5284807593589 95.51174414397082 76.33278041440275 117.8215891893625 51.66721958559726 114.82456407253903"/><polygon points="96.16463823983752 97.35319435475829 117.1686950934958 92.96202184729702 119.14079352671189 120.37131148603629 94.19253980662143 115.98013897857503"/><polygon points="139.50714352960662 96.16198123260656 159.15952313706006 98.04574982794253 166.87211396840704 115.28758350539078 131.79455269825965 117.17135210072675"/><polygon points="180.0783712455044 92.18527081414707 203.9216287544956 94.6259216142432 198.49876937761508 118.70741171909012 185.50123062238492 121.14806251918624"/><polygon points="214.19311523513682 99.17165209232053 255.1402180981965 97.66006521557631 258.2954936632256 115.673268117757 211.0378396701077 114.16168124101279"/><polygon points="255.8323372564634 91.7233309340731 298.8343294102032 93.25159237002543 302.7483539029093 120.08174096330788 251.91831276375734 121.61000239926021"/><polygon points="322.266793232461 92.68631723955359 317.7332067675389 94.36290532385136 341.62418110091687 118.97042800948195 298.375818899083 120.64701609377973"/><polygon points="370.13944245870636 94.84696682387388 355.1938908746269 93.19079361835914 376.63390150231766 120.14253971497418 348.6994318310156 118.48636650945943"/><polygon points="398.505391388768 101.13737020706162 412.16127527789865 95.17597796050639 433.15984748367845 118.15735537282693 377.5068191829882 112.19596312627169"/><polygon points="418.6716908162326 90.73911577417812 477.32830918376726 96.1192073332331 434.23544551479625 117.21412600010021 461.76455448520363 122.5942175591552"/><polygon points="460.2124386148489 95.31848496632348 521.1208947184844 100.10897526765051 520.1187518630637 113.22435806568281 461.2145814702695 118.01484836700983"/><polygon points="10.666666666666666 142.3017322789526 32 142.07057744741755 32 156.59608921924914 10.666666666666666 156.36493438771407"/><polygon points="52.19639992724589 145.93035579078966 75.80360007275411 134.26839911462417 72.84115256172198 164.3982675520425 55.158847438278016 152.73631087587702"/><polygon points="91.79617049864252 132.40434943732842 121.53716283469079 143.70218299171245 122.53505196176866 154.96448367495424 90.79828137156466 166.26231722933827"/><polygon points="136.33612035508744 138.42441233660495 162.33054631157924 136.89623449928666 156.54074560150497 161.77043216738002 142.12592106516172 160.24225433006174"/><polygon points="181.5468962033117 139.2617182586929 202.4531037966883 133.80571010983846 203.6075782812833 164.86095655682823 180.3924217187167 159.4049484079738"/><polygon points="226.98684708931046 144.09740219845014 242.34648624402286 132.7346015259506 242.6749476517064 165.93206514071608 226.65838568162692 154.56926446821655"/><polygon points="260.14082190411034 131.97379079117513 294.5258447625563 134.71748773633752 281.4096759020905 163.94917893032917 273.25699076457613 166.69287587549155"/><polygon points="290.77015348782925 144.7583159685631 349.22984651217064 142.6653222274155 330.8271526644348 156.0013444392512 309.1728473355651 153.9083506981036"/><polygon points="354.78142964188953 131.2452764166856 370.5519036914437 136.1323791857137 388.995240609571 162.534287480953 336.33809272376226 167.42139024998107"/><polygon points="390.7389520463269 145.84650638663615 419.9277146203397 138.78970019462284 418.3435730987376 159.87696647204385 392.32309356792905 152.82016028003054"/><polygon points="447.89106275774503 134.91200594637976 448.10893724225485 146.2663603172342 455.52017008647834 152.4003063494325 440.47982991352154 163.75466072028692"/><polygon points="498.54049564986514 132.72897028054047 482.7928376834681 137.5752689294974 527.649979350122 161.09139773716927 453.68335398321136 165.93769638612622"/><polygon points="10.666666666666666 191.50236542599058 32 188.26205089651626 32 195.73794910348374 10.666666666666666 192.49763457400942"/><polygon points="52.96696920844029 186.60144299737897 75.03303079155971 172.6381030229455 72.12712214211717 211.3618969770545 55.87287785788283 197.39855700262103"/><polygon points="93.68998038153515 173.12065953349895 119.64335295179816 190.95937924807652 115.5090395698443 193.04062075192348 97.82429376348901 210.87934046650105"/><polygon points="141.31410461215617 170.9771712062701 157.3525620545105 191.72676946487275 158.07687909041215 192.27323053512725 140.58978757625454 213.0228287937299"/><polygon points="178.17517908816563 189.39539406807327 205.82482091183437 177.75756780761157 202.84472966721415 206.24243219238843 181.15527033278585 194.60460593192673"/><polygon points="230.88056919444713 184.39072215225673 238.45276413888618 173.09342744131033 243.3010503196784 210.90657255868967 226.0322830136549 199.60927784774327"/><polygon points="263.3237021942045 189.45922750095312 291.34296447246214 174.0332474078995 283.962348393253 209.9667525921005 270.7043182734136 194.54077249904688"/><polygon points="307.575811949751 175.349200920686 332.42418805024886 172.70408964488286 332.98678103378666 211.29591035511714 307.01321896621323 208.650799079314"/><polygon points="360.76978486742075 175.31660615530052 364.5635484659125 175.19583591247755 359.67081032855464 208.80416408752245 365.6625230047786 208.68339384469948"/><polygon points="400.5835680803745 174.21896747220046 410.0830985862921 171.08420628989126 419.55291646409603 212.91579371010874 391.1137502025706 209.78103252779954"/><polygon points="415.8575187746364 175.4316079295924 480.1424812253635 174.8293298043444 447.1451836391624 209.1706701956556 448.8548163608375 208.5683920704076"/><polygon points="496.91463941800225 170.91250605197396 484.418693915331 172.38070763186636 515.2161313003015 211.61929236813364 466.1172020330317 213.08749394802604"/><polygon points="10.666666666666666 228.71469339987289 32 221.6596691062643 32 247.67366422706903 10.666666666666666 240.61863993346043"/><polygon points="53.757357100246345 216.9126032956259 74.24264289975365 223.15557418825347 72.8394689756226 246.17775914507985 55.160531024377406 252.42073003770741"/><polygon points="100.99270164724774 223.83260788427447 112.34063168608557 229.7926399175715 118.6817290980781 239.5406934157618 94.65160423525522 245.50072544905885"/><polygon points="134.50496133156958 218.61817352292815 164.1617053350971 212.69706538713987 161.32750299577168 256.6362679461934 137.339163670895 250.71515981040517"/><polygon points="186.12351418302922 237.29838859134654 197.87648581697078 233.6655379604225 203.53386128667987 235.6677953729108 180.46613871332013 232.03494474198678"/><polygon points="234.63679475654166 218.07261686779057 234.69653857679165 215.30853624755287 245.03468341815335 254.02479708578045 224.29864991517996 251.26071646554274"/><polygon points="274.796165854086 226.59524491210738 279.87050081258064 225.31560076012636 299.6602917413292 244.01773257320696 255.0063749253374 242.73808842122594"/><polygon points="321.3634016685985 220.78021510189666 318.6365983314014 236.02645785065465 345.9368308462201 233.30687548267866 294.06316915377977 248.55311823143666"/><polygon points="337.07128275088075 235.50134796201962 388.2620505824525 234.8364552470321 390.68954531658636 234.49687808630122 334.6437880167469 233.8319853713137"/><polygon points="380.2217783695663 214.5253950751461 430.4448882971003 211.20887581616373 421.9693099892006 258.12445751716956 388.697356677466 254.80793825818722"/><polygon points="424.7305472744756 222.82999164913596 471.2694527255243 214.41075156244708 481.2007246470795 254.92258177088624 414.7992753529204 246.50334168419735"/><polygon points="500.4347311743238 214.26655783670313 480.89860215900944 236.9504783587802 478.46988039178035 232.3828549745531 502.8634529415529 255.06677549663019"/><polygon points="10.666666666666666 257.5664197395444 32 264.58538920592645 32 290.0812774607402 10.666666666666666 297.1002469271222"/><polygon points="52.56237217842198 282.03826704677346 75.43762782157802 279.4439167069706 74.91787285615669 275.22274995969605 53.08212714384331 272.6283996198932"/><polygon points="100.38435934482378 278.94430005373056 112.94897398850954 269.3385352815533 121.12896831879719 285.32813138511335 92.20436501453612 275.72236661293607"/><polygon points="145.4116777156305 257.9662549419173 153.25498895103618 274.1497067885811 158.97619389044254 280.5169598780855 139.69047277622414 296.7004117247493"/><polygon points="181.65398319957515 261.5207561475782 202.34601680042485 273.97602911420495 204.10171830856746 280.6906375524617 179.89828169143254 293.14591051908843"/><polygon points="215.98147743609638 253.96264359058068 253.35185589723693 266.946520110933 245.45376223929162 287.7201465557336 223.8795710940417 300.70402307608595"/><polygon points="275.7268977058543 261.88745019102527 278.93976896081233 279.27864972325455 297.1099989031378 275.3880169434121 257.5566677635288 292.77921647564136"/><polygon points="310.6623728978244 282.15202809527335 329.3376271021755 250.8681787150693 318.001847910212 303.79848795159734 321.9981520897879 272.5146385713933"/><polygon points="359.01226547035435 254.99776917433041 366.3210678629789 275.71572567947834 376.6066849051148 278.9509409871883 348.7266484282185 299.6688974923362"/><polygon points="400.3127136510876 251.63761133556446 410.353953015579 256.3121815596704 394.6688342665445 298.3544851069962 415.99783240012215 303.0290553311022"/><polygon points="451.3303548434588 262.92963491066536 444.6696451565411 260.61386647282853 454.61570487748327 294.0528001938381 441.3842951225166 291.7370317560013"/><polygon points="482.7412323898916 260.8643579573835 498.59210094344166 276.9602556651333 524.2730666381527 277.70641100153335 457.06026669518053 293.8023087092831"/><polygon points="10.666666666666666 304.3820097854497 32 291.46511658068675 32 348.53488341931313 10.666666666666666 335.61799021455016"/><polygon points="53.09705208804887 309.51416943088304 74.90294791195113 297.1409775382176 72.20022327710768 342.8590224617823 55.79977672289231 330.48583056911684"/><polygon points="96.41114340149981 294.11536907860176 116.9221899318335 297.91925004655394 122.26476593876487 342.08074995344595 91.06856739456845 345.8846309213981"/><polygon points="133.80361818906758 293.976943067137 164.8630484775991 307.4923829054973 159.1392943167774 332.50761709450256 139.52737234988928 346.0230569328629"/><polygon points="172.28599275942696 292.01334373268026 211.71400724057304 302.94654322957234 207.90475373024512 337.05345677042754 176.09524626975488 347.98665626731963"/><polygon points="231.92040458695124 304.13854940377144 237.41292874638208 319.3552352439204 250.9881679183282 320.6447647560795 218.3451654150051 335.86145059622845"/><polygon points="252.30214754898458 325.4709930845628 302.36451911768205 303.3210303216253 277.07385938118546 336.6789696783746 277.5928072854812 314.5290069154371"/><polygon points="325.93614964479207 315.3648111918355 314.0638503552078 311.44450312647507 317.5981410150106 328.5554968735248 322.4018589849893 324.6351888081644"/><polygon points="345.69215929026024 300.2523270282534 379.641174043073 305.67768002531375 366.6902174100567 334.32231997468614 358.6431159232766 339.7476729717465"/><polygon points="409.8195944653867 323.4094870069127 400.84707220127996 301.60232590736547 401.28737835281726 338.3976740926344 409.3792883138494 316.5905129930872"/><polygon points="420.4186074899074 294.9550891357459 475.5813925100925 294.35066181754394 442.119079165843 345.64933818245595 453.8809208341569 345.044910864254"/><polygon points="455.2567401522164 324.30678650585264 526.0765931811168 313.47052405878316 530.591786422632 326.52947594121673 450.74154691070123 315.69321349414724"/><polygon points="10.666666666666666 372.27285635159177 32 361.42431029816106 32 363.9090230351722 10.666666666666666 353.0604769817415"/><polygon points="51.15056427825061 361.9484714667833 76.84943572174939 372.4635077458663 76.8799897996553 352.86982558746695 51.120010200344694 363.38486186654995"/><polygon points="92.69825474311027 355.49668055768007 120.63507859022305 353.025510109482 118.04095358035264 372.30782322385124 95.29237975298068 369.8366527756532"/><polygon points="146.62045177604583 345.7082984318901 152.04621489062086 364.13777244902644 156.4676377924158 361.1955608843068 142.1990288742509 379.62503490144314"/><polygon points="177.32072003241655 361.5382041571198 206.67927996758345 345.83423753969475 210.3301548668207 379.4990957936385 173.6698451331793 363.79512917621344"/><polygon points="211.03776832168452 332.1094172840129 258.2955650116488 372.09690064503695 245.22075354339233 353.2364326882963 224.11257978994098 393.22391604932034"/><polygon points="276.65812827794775 332.9962424139534 278.0085383887189 368.63601402872297 284.4854035670149 356.6973193046103 270.18126309965174 392.3370909193799"/><polygon points="294.49123750552 339.6258839797275 345.50876249447987 341.70941681441417 332.5785957680557 383.6239165189191 307.42140423194417 385.70744935360574"/><polygon points="351.0900639326896 335.3077246959081 374.24326940064367 372.57596406842714 361.92913490052 352.7573692649061 363.40419843281325 390.02560863742514"/><polygon points="397.1308811607754 350.4059397428773 413.5357855058912 345.7158675815387 420.6838801731833 379.61746575179455 389.98278649348333 374.92739359045595"/><polygon points="462.0640462035461 367.92442042545173 433.93595379645376 337.3576964364313 482.71619575987904 387.97563689690196 413.28380424012084 357.40891290788153"/><polygon points="473.4292380603987 354.7678215489569 507.90409527293457 359.97473982302984 495.16689521969147 365.3585935103034 486.1664381136418 370.5655117843764"/><polygon points="10.666666666666666 418.24958035213996 32 405.23446393804295 32 405.4322027286237 10.666666666666666 392.41708631452667"/><polygon points="50.680291225379605 408.7457517468246 77.3197087746204 410.10570078510693 72.73506794614914 400.5609658815597 55.264932053850856 401.920914919842"/><polygon points="93.07355018029818 393.97291204979354 120.25978315303513 399.42218781531426 112.1512947669812 411.24447885135237 101.18203856635212 416.6937546168731"/><polygon points="144.77476282457664 377.0083377431858 153.89190384209004 394.70099076842183 164.77002152971906 415.9656758982448 133.89664513694763 433.65832892348084"/><polygon points="188.17165471660638 410.29622621659144 195.82834528339362 413.3992914204123 207.65894757446284 397.26737524625435 176.34105242553716 400.3704404500752"/><polygon points="234.6638884746252 394.66560509944657 234.66944485870812 407.3962957271307 249.54677834394988 403.27037093953595 219.78655498938343 416.00106156722006"/><polygon points="268.925364272867 415.26539523769225 285.74130239379963 417.7396606149796 275.29753645768966 392.92700605168704 279.36913020897697 395.4012714289744"/><polygon points="312.44364282075117 392.2689069330437 327.5563571792487 405.58402256002 313.8089506776944 405.0826441066466 326.1910493223055 418.39775973362293"/><polygon points="360.1779885428718 415.5717144187677 365.15534479046147 381.6042010399699 374.3881014233947 429.06246562669673 350.94523190993857 395.0949522478989"/><polygon points="383.44348034926355 378.8527075564964 427.2231863174031 390.2461784600569 394.49676543913034 420.4204882066097 416.1699012275363 431.81395911017023"/><polygon points="436.9655259102457 390.8889289942269 459.0344740897542 390.0355158604802 448.49155524393836 420.63115080618644 447.5084447560615 419.77773767243974"/><polygon points="455.8705973948436 388.0729195837517 525.4627359384897 385.119967248516 513.2929617102667 425.54669941815064 468.04037162306656 422.59374708291494"/><polygon points="10.666666666666666 438.02651452913244 32 461.44996939823193 32 434.55003060176796 10.666666666666666 457.97348547086744"/><polygon points="52.208854726732056 458.7072243531927 75.79114527326794 429.3399970632621 75.55790584869642 466.6600029367378 52.44209415130358 437.2927756468072"/><polygon points="99.63582084506014 463.7763216509891 113.69751248827318 427.6856525976541 115.66555213102502 468.3143474023458 97.66778120230829 432.2236783490108"/><polygon points="135.34721190235337 453.39380542108177 163.31945476431332 446.00052709924375 154.99529582332985 449.99947290075613 143.67137084333683 442.6061945789181"/><polygon points="176.46507322904463 460.19748437636684 207.53492677095537 449.0254194463267 203.3562472704016 446.9745805536732 180.6437527295984 435.80251562363304"/><polygon points="227.4158211874927 411.8426495551945 241.91751214584062 458.9140677097318 234.62547726877395 437.0859322902681 234.70785606455937 484.1573504448054"/><polygon points="272.3722318357254 415.1865003782724 282.2944348309412 447.0593964832621 281.4081645554094 448.9406035167378 273.2585021112572 480.8134996217275"/><polygon points="318.67295453615105 460.65356639265565 321.32704546384883 450.25081401632406 336.3092414571531 445.74918598367583 303.69075854284677 435.34643360734424"/><polygon points="357.51926816147886 422.2097953671129 367.8140651718544 454.199256846627 372.70589149571543 441.8007431533729 352.6274418376178 473.79020463288697"/><polygon points="398.4933179278189 460.2851312437814 412.1733487388477 429.2851046519514 409.45815746575147 466.7148953480485 401.20850920091516 435.7148687562185"/><polygon points="434.1376186579953 418.5875298963748 461.8623813420046 444.19112314582907 454.3456398132149 451.8088768541708 441.65436018678497 477.4124701036251"/><polygon points="468.2799480310341 425.614415932638 513.0533853022991 430.95031275727445 498.8648086737581 465.04968724272544 482.46852465957517 470.3855840673619"/><polygon points="10.666666666666666 455.63265355635065 32 501.4822939307023 32 479.85103940263093 10.666666666666666 525.7006797769826"/><polygon points="53.57975574507458 459.0731658502578 74.42024425492542 500.8361830827186 75.00732564709358 480.49715025061465 52.99267435290642 522.2601674830754"/><polygon points="99.62148334404482 502.1812389213972 113.7118499892885 501.00136145027636 120.51325223069836 480.3319718830569 92.82008110263496 479.15209441193605"/><polygon points="146.4164818025608 490.92499744801034 152.25018486410588 507.99630058441255 159.15932875032732 473.3370327489207 139.50733791633937 490.4083358853229"/><polygon points="183.98298621746326 484.291797401856 200.01701378253674 452.6214295810537 203.33529287048617 528.7119037522796 180.66470712951383 497.04153593147726"/><polygon points="235.6002736505814 485.39937199064724 233.7330596827519 469.32009320997037 242.6309989947358 512.013240123363 226.70233433859752 495.933961342686"/><polygon points="273.89347118042963 469.205757090073 280.773195486237 478.6163972636002 279.5845178007595 502.71693606973304 275.08214886590713 512.1275762432603"/><polygon points="314.4809504880488 492.45433850524313 325.5190495119511 497.6484507404986 340.7862120943384 483.68488259283464 299.2137879056615 488.87899482809013"/><polygon points="335.54604043314754 499.36132442560023 389.7872929001857 494.6239168163188 388.1008965497571 486.70941651701446 337.23243678357613 481.972008907733"/><polygon points="380.76174996409895 485.85922739766323 429.9049167025677 476.3810431497439 439.941207853976 504.95229018358935 370.72545881269065 495.47410593567"/><polygon points="458.13802831685706 504.6780669963002 437.8619716831428 503.8260130608909 435.11844689935936 477.50732027244237 460.88155310064053 476.6552663370331"/><polygon points="482.27086501814983 481.18972467129964 499.0624683151834 478.52797009612146 526.8263828231906 502.8053632372118 454.50695051014276 500.1436086620336"/>
</svg>
