<?xml version="1.0" encoding="UTF-8"?>
<svg xmlns="http://www.w3.org/2000/svg" id="RSSicon" viewBox="0 0 512 512" width="512" height="512">
  <defs>
    <style type="text/css">
      svg {
        background: black;
        margin: calc(50vh - 256px) auto 0;
      }
      
      polygon {stroke: darkorange; fill: none;}
    </style>
  </defs>
  <polygon points="10.666666666666666 10.666666666666666 32 10.666666666666666 32 32 10.666666666666666 32"/><polygon points="53.78491710036897 10.666666666666666 74.21508289963103 10.666666666666666 76.88592797748606 32 51.11407202251394 32"/><polygon points="95.19667592845981 10.666666666666666 118.1366574048735 10.666666666666666 120.56095196555134 32 92.77238136778197 32"/><polygon points="137.7818254645822 10.666666666666666 160.8848412020845 10.666666666666666 164.1702067686302 32 134.49645989803648 32"/><polygon points="174.10746253939016 10.666666666666666 209.89253746060984 10.666666666666666 199.37883382421728 32 184.62116617578272 32"/><polygon points="235.87914557538025 10.666666666666666 233.45418775795306 10.666666666666666 233.34013949215984 32 235.99319384117348 32"/><polygon points="280.1208089232932 10.666666666666666 274.5458577433734 10.666666666666666 303.80730286116113 32 250.8593638055055 32"/><polygon points="300.7940104719241 10.666666666666666 339.2059895280758 10.666666666666666 336.2557407540958 32 303.74425924590406 32"/><polygon points="361.0066160842965 10.666666666666666 364.32671724903673 10.666666666666666 357.62545084655494 32 367.7078824867783 32"/><polygon points="399.4600278460047 10.666666666666666 411.2066388206619 10.666666666666666 402.74515529809696 32 407.92151136856967 32"/><polygon points="439.05787963368954 10.666666666666666 456.94212036631035 10.666666666666666 461.97222439949115 32 434.02777560050873 32"/><polygon points="500.9336946071175 10.666666666666666 480.39963872621576 10.666666666666666 517.0813013755518 32 464.2520319577815 32"/><polygon points="10.666666666666666 53.99559841679786 32 53.05773884229143 32 74.94226115770857 10.666666666666666 74.00440158320214"/><polygon points="52.276977246496614 50.75038733964767 75.72302275350339 53.95293016263877 76.88241236180134 74.04706983736124 51.11758763819866 77.24961266035233"/><polygon points="94.6833316907158 51.68753293369937 118.65000164261751 54.76392041645108 117.47794107385567 73.23607958354891 95.85539225947764 76.31246706630063"/><polygon points="138.9614421273879 53.85433250943372 159.7052245392788 52.16998089953932 167.5464322942806 75.83001910046069 131.12023437238608 74.14566749056628"/><polygon points="189.05542901915172 55.12462695806237 194.94457098084828 52.92633677679016 202.90215694416415 75.07366322320985 181.09784305583585 72.87537304193762"/><polygon points="235.85503284857458 51.688584438730224 233.47830048475873 50.93023752203199 255.15561650363952 77.06976247796801 214.1777168296938 76.31141556126977"/><polygon points="271.7403228310556 51.763959607999524 282.926343835611 52.648783067694566 274.4524481242704 75.35121693230543 280.2142185423962 76.23604039200048"/><polygon points="325.65548422095867 52.5694090018986 314.3445157790412 53.59599668566174 333.44775904633775 74.40400331433827 306.55224095366214 75.43059099810141"/><polygon points="336.1904945636292 52.69674415590284 389.14283876970404 52.586428794706535 373.2973085962792 75.41357120529347 352.03602473705405 75.30325584409717"/><polygon points="385.50811206530454 54.0793067236955 425.1585546013621 52.68881691597356 411.7414447135074 75.31118308402644 398.9252219531592 73.92069327630449"/><polygon points="435.36282923754175 52.321514350558765 460.63717076245814 54.70176494355926 465.7108777008993 73.29823505644075 430.2891222991006 75.67848564944124"/><polygon points="503.2073175297216 51.86698539421624 478.12601580361166 51.328866400411684 517.5109705164494 76.67113359958832 463.82236281688375 76.13301460578376"/><polygon points="10.666666666666666 96.64378980027851 32 99.24919798700881 32 114.0841353463245 10.666666666666666 116.6895435330548"/><polygon points="54.25123240062729 93.45491299589979 73.74876759937271 94.00429921308383 76.76858332258378 119.32903412024949 51.23141667741623 119.87842033743352"/><polygon points="90.93907076881538 100.93200636309429 122.39426256451793 93.83369476614709 117.15277168894443 119.49963856718622 96.18056164438889 112.40132697023903"/><polygon points="138.75949977712497 98.59479325621764 159.9071668895417 96.36056138500695 164.7361315860608 116.97277194832637 133.9305350806059 114.73854007711567"/><polygon points="171.18735435233842 94.94084664209244 212.81264564766158 100.4668106793018 206.12083126946092 112.86652265403151 177.87916873053908 118.39248669124088"/><polygon points="217.4213129353738 99.72422974583586 251.9120203979595 97.75383023192184 251.480600788294 115.57950310141148 217.85273254503932 113.60910358749746"/><polygon points="259.4188168585853 92.03050206432806 295.24784980808136 98.64626259054796 277.2256004744716 114.68707074278535 277.441066192195 121.30283126900525"/><polygon points="299.527894551723 97.66109230424401 340.47210544827686 97.959763551162 319.5533400322994 115.37356978217132 320.4466599677005 115.6722410290893"/><polygon points="362.1294701889865 99.51488212537653 363.20386314434677 95.11624926540536 368.83575466509933 118.21708406792796 356.4975786682339 113.81845120795678"/><polygon points="408.8899861061376 98.82462614207166 401.77668056052903 100.08247636047705 431.2556029253691 113.25085697285627 379.41106374129754 114.50870719126165"/><polygon points="430.7103429492228 94.46915290033562 465.28965705077707 95.58068638495435 461.106023727868 117.75264694837897 434.8939762721319 118.8641804329977"/><polygon points="464.64976539942995 93.30779580044117 516.6835679339033 93.0977332989705 494.63512048860673 120.23560003436282 486.6982128447265 120.02553753289214"/><polygon points="10.666666666666666 135.77495822705572 32 142.90138084817772 32 155.76528581848896 10.666666666666666 162.89170843961097"/><polygon points="55.51597368054068 138.53111204619378 72.48402631945932 144.91092304093243 76.29891736132043 153.75574362573425 51.70108263867957 160.1355546204729"/><polygon points="96.48020979654632 135.62167832624857 116.853123536787 133.93396515321982 121.64299791894433 164.73270151344687 91.69033541438898 163.04498834041812"/><polygon points="133.73278131472017 135.22180869427763 164.93388535194651 136.11795526506674 165.1560281184567 162.54871140159995 133.51063854820998 163.44485797238906"/><polygon points="176.01862139012698 144.5029509045857 207.98137860987302 145.3002305351538 195.18917778247703 153.3664361315129 188.81082221752297 154.16371576208098"/><polygon points="217.5212149511999 135.58096738635055 251.8121183821334 134.2727334888661 232.73298464704456 164.3939331778006 236.60034868628875 163.08569928031613"/><polygon points="250.9042374387319 135.88672781849343 303.7624292279347 141.7977761959117 279.15699164770024 156.868890470755 275.5096750189664 162.77993884817326"/><polygon points="300.6448576191027 133.5523761339707 339.3551423808972 143.3701483773001 316.4395028290624 155.2965182893666 323.5604971709375 165.11429053269597"/><polygon points="360.27372541867203 140.21909373651908 365.0596079146612 137.66311522641772 354.1837267162373 161.00355144024897 371.14960661709597 158.4475729301476"/><polygon points="385.17539363141276 141.40121625847715 425.49127303525387 145.72826347636524 431.58212781842013 152.93840319030144 379.0845388482465 157.26545040818954"/><polygon points="460.82822656813755 135.9276955830059 435.17177343186233 132.32197361595365 479.33456199003155 166.34469305071303 416.66543800996834 162.73897108366077"/><polygon points="481.73106228689574 134.5940246022418 499.6022710464375 134.05399384998282 474.1932993548064 164.61267281668387 507.14003397852684 164.07264206442488"/><polygon points="10.666666666666666 183.42567903822328 32 177.9456007824762 32 206.0543992175238 10.666666666666666 200.57432096177672"/><polygon points="54.10847371655548 184.7345691793962 73.89152628344452 186.0656038029673 75.18618938586434 197.9343961970327 52.813810614135654 199.2654308206038"/><polygon points="100.49995448266218 173.40804151521692 112.83337885067114 188.1717075285262 113.70076737700089 195.8282924714738 99.63256595633243 210.59195848478308"/><polygon points="139.5042035401827 189.30664953371553 159.162463126484 171.4475629232746 164.8772785422032 212.5524370767254 133.7893881244635 194.69335046628447"/><polygon points="181.07019111017385 181.6462045339989 202.92980888982615 171.8928474284594 204.5368510226945 212.1071525715406 179.4631489773055 202.3537954660011"/><polygon points="224.29372182878177 183.71215837124996 245.03961150455154 178.71256307873222 237.8219787694813 205.28743692126778 231.51135456385202 200.28784162875004"/><polygon points="280.11550876004225 171.61107762960128 274.5511579066244 181.08523113014292 294.9786733252775 202.91476886985708 259.68799334138913 212.38892237039872"/><polygon points="307.1220511838421 190.3717724645794 332.8779488161578 171.76028524628674 323.1361819677412 212.23971475371326 316.8638180322587 193.6282275354206"/><polygon points="333.90971211170734 180.8970194326009 391.4236212216259 176.5100397830768 354.4200002193973 207.4899602169232 370.91333311393595 203.1029805673991"/><polygon points="392.4773132724576 188.82394897624073 418.18935339420904 179.28889939049077 421.5664130450778 204.71110060950923 389.1002536215888 195.17605102375927"/><polygon points="449.4711452990348 181.85739226623886 446.5288547009651 179.51874099961324 448.93118048968205 204.48125900038676 447.06881951031784 202.14260773376114"/><polygon points="467.3680165814691 187.54206316019207 513.9653167518642 175.76211967759488 512.0851872215354 208.23788032240512 469.24814611179784 196.45793683980793"/><polygon points="10.666666666666666 217.42609053058956 32 214.90564720765536 32 254.42768612567795 10.666666666666666 251.90724280274375"/><polygon points="52.96029016533633 235.8633515548209 75.03970983466367 218.38247210140892 76.02304736493956 250.9508612319244 51.97695263506044 233.46998177851242"/><polygon points="91.79526702502234 237.0563089788613 121.53806630831097 234.40497306062773 112.06524767662495 234.9283602727056 101.26808565670837 232.27702435447202"/><polygon points="141.37541398547663 223.72414719476552 157.29125268119006 216.12854334823396 158.0939153995661 253.20478998509935 140.57275126710059 245.6091861385678"/><polygon points="185.84007799643408 212.1516887275919 198.15992200356592 233.89493878826963 207.2463812692078 235.4383945450637 176.7536187307922 257.18164460574144"/><polygon points="231.17565003881865 216.7665301233914 238.15768329451467 235.49827327826787 236.80535447967256 233.83506005506544 232.52797885366076 252.56680320994192"/><polygon points="269.50531893529467 225.81203814470052 285.16134773137196 214.84399382003488 279.160630205193 254.48933951329843 275.5060364614736 243.5212951886328"/><polygon points="321.318348347142 216.16092366153856 318.6816516528579 214.572324394621 321.5953182069308 254.7610089387123 318.4046817930691 253.17240967179475"/><polygon points="340.21726803042264 234.50785373678798 385.1160653029106 222.6140542556085 363.17475189033007 246.71927907772482 362.1585814430032 234.82547959654534"/><polygon points="381.50985762549345 234.27111900345201 429.1568090411732 225.29928902712896 412.5556815029048 244.03404430620435 398.1109851637618 235.0622143298813"/><polygon points="429.7922952849279 232.4409110587987 466.207704715072 217.50622501939867 454.2500602413409 251.82710831393464 441.74993975865897 236.89242227453462"/><polygon points="493.0911138571477 231.25968754569084 488.24221947618554 220.04022092001625 491.8594594356344 249.29311241331706 489.47387389769887 238.07364578764248"/><polygon points="10.666666666666666 267.26145105211504 32 281.59747519538973 32 273.0691914712769 10.666666666666666 287.4052156145516"/><polygon points="51.83232271119671 256.9695152877938 76.16767728880329 269.6396480091002 74.05845222701642 285.02701865756643 53.941547772983576 297.69715137887283"/><polygon points="96.70672938257174 250.9458186579803 116.62660395076158 271.85780337851156 112.16056768641519 282.80886328815507 101.17276564691812 303.7208480086863"/><polygon points="131.63535821586896 274.883186607518 167.03130845079772 255.5479356032129 156.2806883657313 299.1187310634537 142.3859783009354 279.78348005914864"/><polygon points="189.84457519325903 259.8823898324405 194.15542480674097 269.9048055335338 202.95507094197703 284.7618611331328 181.04492905802297 294.78427683422615"/><polygon points="237.31565890118372 264.3852566214857 232.0176744321496 276.49131269768816 241.84409904629777 278.17535396897847 227.48923428703554 290.2814100451809"/><polygon points="272.3824097668291 269.5841927398425 282.28425689983754 260.7301279709799 279.2291599835271 293.93653869568675 275.43750668313953 285.08247392682415"/><polygon points="311.28635581998304 251.17919738072806 328.71364418001684 250.68521031370156 344.78850484789666 303.98145635296504 295.2114951521032 303.4874692859386"/><polygon points="338.1778421823209 268.0718739137388 387.15549115101237 255.89629265485308 365.02226718380064 298.77037401181354 360.3110661495326 286.59479275292784"/><polygon points="409.5076472376462 279.6176440132532 401.1590194290204 271.19551152746016 403.53744172768467 283.4711551392065 407.12922493898196 275.04902265341343"/><polygon points="460.82395673181594 265.3716194036194 435.17604326818395 254.203288095672 458.7520142853375 300.4633785709946 437.2479857146624 289.29504726304725"/><polygon points="498.1192076524192 251.50092507350703 483.21412568091404 280.82506671714134 506.6961632256836 273.8415999495253 474.63717010764964 303.1657415931596"/><polygon points="10.666666666666666 326.1311245704872 32 318.3895706524191 32 321.6104293475808 10.666666666666666 313.8688754295127"/><polygon points="55.84079422594529 299.3420342920209 72.15920577405471 306.7628334363013 73.63128188603642 333.23716656369857 54.36871811396358 340.657965707979"/><polygon points="98.29620540621121 308.5252847432028 115.0371279271221 320.7172646289913 118.47774675537505 319.2827353710086 94.85558657795826 331.4747152567971"/><polygon points="135.6600727641801 294.7618276725094 163.0065939024866 302.4861292289732 164.08339228217713 337.5138707710267 134.58327438448956 345.2381723274905"/><polygon points="179.48434454612226 319.2842330410979 204.51565545387774 296.7754165811973 205.5294648772562 343.2245834188026 178.4705351227438 320.715766958902"/><polygon points="232.21837339100395 322.68470805834403 237.11495994232936 300.6007541378774 238.3610813080322 339.3992458621225 230.97225202530112 317.31529194165586"/><polygon points="265.4586586253036 303.2361238782187 289.20800804136303 302.65015190020335 287.4104589697512 337.34984809979653 267.25620769691545 336.7638761217812"/><polygon points="295.51805482086905 322.20456548077794 344.48194517913083 313.992126061015 330.15421845108 326.0078739389849 309.8457815489199 317.79543451922194"/><polygon points="344.9250452119103 323.4018091514244 380.40828812142297 312.03728979991223 376.2757372125999 327.96271020008766 349.05759612073336 316.5981908485755"/><polygon points="398.4105522838932 327.36665208097764 412.25611438277343 326.6730858469325 428.835977587857 313.3269141530674 381.83068907880966 312.63334791902224"/><polygon points="424.4618362426395 313.99651157386205 471.5381637573604 309.4395285829615 484.9843239323141 330.5604714170384 411.0156760676858 326.00348842613784"/><polygon points="470.39884709698424 309.0557776218707 510.934486236349 309.6383696991818 477.8930423329122 330.3616303008181 503.44029100042104 330.9442223781292"/><polygon points="10.666666666666666 350.4078471575709 32 346.6698226964736 32 378.66351063685966 10.666666666666666 374.92548617576233"/><polygon points="55.069274994382965 339.7356288680014 72.93072500561703 360.35588799033036 72.47350053862222 364.9774453430029 55.526499461377774 385.59770446533184"/><polygon points="92.73427126293652 335.4958324286565 120.5990620703968 333.64783056611833 115.95334046845296 391.6855027672149 97.37999286488035 389.83750090467674"/><polygon points="145.11662040011242 340.4371429345807 153.55004626655426 372.3379825676176 154.81061543024683 352.99535076571567 143.85605123641986 384.89619039875254"/><polygon points="171.40185326163055 340.2884460177103 212.59814673836945 337.61967193022593 204.8765377593933 387.7136614031073 179.1234622406067 385.04488731562293"/><polygon points="220.6383205287711 349.0145573637667 248.69501280456223 334.89170615109896 234.57063598689962 390.4416271822343 234.7626973464337 376.31877596956656"/><polygon points="255.95306585612087 356.4923790674221 298.71360081054576 333.2538825931558 278.4695034548103 392.07945074017744 276.1971632118563 368.84095426591114"/><polygon points="296.71389415759495 366.0257209704813 343.28610584240494 371.616205926039 344.32581831716834 353.71712740729424 295.67418168283155 359.30761236285196"/><polygon points="332.6065259830308 343.32080439706135 392.72680735030247 345.52475534435496 392.7410059817538 379.8085779889783 332.59232735157946 382.0125289362719"/><polygon points="380.4000520193188 343.8390103534996 430.2666146473478 362.2673473722011 424.38568008722314 363.0659859611322 386.2809865794435 381.49432297983367"/><polygon points="420.2169250608507 368.26770754333245 475.7830749391492 338.3217512891728 475.9939697435835 387.01158204416043 420.0060302564164 357.0656257900008"/><polygon points="468.5007211714483 356.6061298772124 512.832612161885 335.1068265562445 503.7043380483613 390.22650677708873 477.62899528497195 368.72720345612083"/><polygon points="10.666666666666666 391.9964147977031 32 412.2056081387493 32 398.4610585279173 10.666666666666666 418.67025186896353"/><polygon points="54.790043896807546 411.20583264766236 73.20995610319245 400.31316311290965 74.65481782633888 410.353503553757 53.345182173661115 399.46083401900427"/><polygon points="93.55715606524406 398.9096970483367 119.77617726808926 371.1985759411145 118.02397830176879 439.46809072555214 95.30935503156452 411.75696961832995"/><polygon points="138.76933909543743 392.54176185181177 159.89732757122925 371.7706201884698 157.1384671272558 438.8960464781968 141.52819953941088 418.12490481485486"/><polygon points="177.32755509787222 408.86467905675573 206.67244490212778 417.1792008677881 198.58260038164363 393.48746579887853 185.41739961835637 401.8019876099109"/><polygon points="218.64690851121756 371.59411125499275 250.68642482211575 415.264538177579 255.86995212837445 395.4021284890876 213.46338120495886 439.0725554116739"/><polygon points="261.3379108463255 403.69357191931977 293.32875582034114 406.9988164770076 301.6137734886419 403.667850189659 253.05289317802468 406.97309474734686"/><polygon points="317.2762627614216 396.5291010172616 322.7237372385783 377.8758283689766 312.39268027770345 432.79083829769 327.60731972229644 414.137565649405"/><polygon points="370.0489207797257 382.369938271577 355.2844125536076 395.0260187101808 355.0370419839907 415.64064795648585 370.29629134934254 428.29672839508964"/><polygon points="392.2362398114576 399.8409491910457 418.430426855209 399.0635156199418 439.88137679866776 411.6031510467248 370.78528986799887 410.82571747562093"/><polygon points="447.76140688512663 401.4105299186559 448.23859311487325 401.1384514047773 466.4647452382517 409.52821526188933 429.5352547617482 409.2561367480107"/><polygon points="479.2236497846809 390.3125314262235 502.10968354865236 414.6321158979609 492.93327356667146 396.03455076870574 488.4000597666618 420.35413524044316"/><polygon points="10.666666666666666 444.53036168364616 32 410.6709076786789 32 485.329092321321 10.666666666666666 451.4696383163537"/><polygon points="55.93819765794633 446.35082204816626 72.06180234205367 455.13382448411335 75.54384421396908 440.86617551588654 52.456155786030926 449.6491779518336"/><polygon points="93.27475705766811 448.9249163342681 120.0585762756652 416.297425147268 121.68051068700011 479.7025748527319 91.6528226463332 447.07508366573177"/><polygon points="145.3101792054819 427.2889731358126 153.3564874611848 431.26639115004656 157.2227877830871 464.7336088499533 141.44387888357957 468.71102686418726"/><polygon points="174.0511522896419 420.27821217905756 209.9488477103581 450.4912903799058 210.58736890259263 445.50870962009407 173.41263109740737 475.7217878209423"/><polygon points="213.6322775339111 461.3691578721018 255.70105579942222 423.0721259665244 238.63429201383707 472.92787403347546 230.69904131949625 434.63084212789806"/><polygon points="263.7718133590009 412.29723568158363 290.89485330766576 411.4629721068769 298.63562213328095 484.53702789312297 256.0310445333857 483.70276431841626"/><polygon points="318.88973767864064 445.98219567137585 321.11026232135924 421.5975420199283 327.52606523321174 474.4024579800716 312.47393476678815 450.01780432862404"/><polygon points="367.7005335448441 457.86163733380715 357.63279978848914 420.8714947391209 374.33386601491344 475.12850526087897 350.9994673184198 438.13836266619273"/><polygon points="388.6538040197255 439.8866175842858 422.01286264694113 437.4076275442007 418.23534209135204 458.5923724557992 392.4313245753146 456.1133824157141"/><polygon points="461.68398286591923 437.0659169468961 434.31601713408065 451.0290928228241 482.91717715551636 444.9709071771758 413.08282284448353 458.9340830531038"/><polygon points="478.82709223136936 463.6884299781599 502.5062411019639 443.01216861620674 476.800579841621 452.98783138379315 504.53275349171224 432.31157002184"/><polygon points="10.666666666666666 471.3991427485862 32 480.4895014910104 32 500.84383184232286 10.666666666666666 509.93419058474706"/><polygon points="53.947046553803695 503.0364950945878 74.05295344619631 501.0923160787974 75.5958950256749 480.24101725453585 52.404104974325094 478.29683823874547"/><polygon points="98.21899697274657 467.3846934311473 115.11433636058675 483.96272953720967 116.7592895008353 497.3706037961236 96.57404383249802 513.948639902186"/><polygon points="136.22957154279788 488.0156959434707 162.4370951238688 469.56120455909326 157.9558194033051 511.77212877424 140.7108472633616 493.31763738986257"/><polygon points="178.15366787829953 491.00611754357294 205.84633212170047 461.23054713980525 195.77807303799597 520.102786193528 188.22192696200403 490.3272157897603"/><polygon points="235.12358439055217 493.6548483966191 234.20974894278115 461.7927144703655 237.40902260312438 519.5406188629677 231.92431073020893 487.67848493671414"/><polygon points="253.20432119805236 480.6750209436467 301.4623454686143 464.35098071203674 303.84508288639404 516.9823526212965 250.8215837802726 500.65831238968656"/><polygon points="295.9323818433934 476.6366702839584 344.0676181566065 478.8215802379495 330.5748584435575 502.51175309538377 309.4251415564424 504.6966630493749"/><polygon points="337.8511038100908 488.10800134377115 387.48222952324244 466.74272681351664 386.178051102532 514.5906065198167 339.1552822308013 493.2253319895621"/><polygon points="413.259445406319 505.60332756696596 397.4072212603476 489.79079842081336 422.97109792547616 491.5425349125199 387.69556874119047 475.7300057663673"/><polygon points="427.9486480410626 483.58232698630974 468.0513519589373 486.3817928358978 478.71394907096277 494.9515404974355 417.2860509290371 497.7510063470235"/><polygon points="479.96381493839846 462.24559670651774 501.3695183949348 495.9654248062899 491.15911885783805 485.36790852704337 490.1742144754952 519.0877366268155"/>
</svg>
