<?xml version="1.0" encoding="UTF-8"?>
<svg xmlns="http://www.w3.org/2000/svg" id="RSSicon" viewBox="0 0 512 512" width="512" height="512">
  <defs>
    <style type="text/css">
      svg {
        background: black;
        margin: calc(50vh - 256px) auto 0;
      }
      
      polygon {stroke: darkorange; fill: none;}
    </style>
  </defs>
  <polygon points="10.666666666666666 10.666666666666666 32 10.666666666666666 32 32 10.666666666666666 32"/><polygon points="54.069971132567595 10.666666666666666 73.93002886743241 10.666666666666666 73.72889670976474 32 54.27110329023526 32"/><polygon points="94.83125534111342 10.666666666666666 118.5020779922199 10.666666666666666 114.0271150149381 32 99.30621831839521 32"/><polygon points="131.78770453291617 10.666666666666666 166.87896213375052 10.666666666666666 166.59647267688018 32 132.0701939897865 32"/><polygon points="189.0715345604497 10.666666666666666 194.9284654395503 10.666666666666666 198.33971775101983 32 185.66028224898017 32"/><polygon points="216.0096305251286 10.666666666666666 253.3237028082047 10.666666666666666 256.75550380013954 32 212.57782953319378 32"/><polygon points="262.1844879625483 10.666666666666666 292.4821787041183 10.666666666666666 291.3092229722414 32 263.3574436944252 32"/><polygon points="313.6500543152852 10.666666666666666 326.34994568471467 10.666666666666666 343.59888383903103 32 296.40111616096885 32"/><polygon points="356.78413831086266 10.666666666666666 368.5491950224706 10.666666666666666 388.0190912179456 32 337.3142421153877 32"/><polygon points="407.0665821976971 10.666666666666666 403.60008446896956 10.666666666666666 392.6659520890674 32 418.00071457759924 32"/><polygon points="412.9663812565799 10.666666666666666 483.03361874342 10.666666666666666 447.7571759928201 32 448.24282400717976 32"/><polygon points="507.99322978625094 10.666666666666666 473.3401035470823 10.666666666666666 509.6547533050323 32 471.678580028301 32"/><polygon points="10.666666666666666 51.5426845594506 32 53.87336133662604 32 74.12663866337397 10.666666666666666 76.45731544054941"/><polygon points="55.60737569585652 52.299085762581086 72.39262430414348 54.66187185681771 74.1026692578409 73.33812814318229 53.8973307421591 75.70091423741891"/><polygon points="95.0538664540427 53.75876634044303 118.27946687929061 53.21059192724877 119.84053419758658 74.78940807275123 93.49279913574674 74.24123365955697"/><polygon points="145.38163024227026 51.10334683859738 153.28503642439642 55.919080809011355 152.56586067774842 72.08091919098865 146.10080598891827 76.89665316140263"/><polygon points="182.0812696028434 53.56694857235382 201.9187303971566 55.67901117271694 207.91276229650254 72.32098882728306 176.08723770349746 74.43305142764618"/><polygon points="232.80475805580107 53.79840450054795 236.52857527753224 53.9676964089745 236.98945689694324 74.03230359102551 232.34387643639008 74.20159549945205"/><polygon points="275.4282958977704 54.284135157315305 279.23837076889623 51.720180537118665 285.32732011626945 76.27981946288133 269.3393465503972 73.7158648426847"/><polygon points="323.8996937188045 54.27983060507567 316.1003062811954 51.67799237123642 336.6615965096522 76.32200762876359 303.3384034903477 73.72016939492434"/><polygon points="332.42335217981855 52.96743858961239 392.9099811535147 55.179583421992334 352.94158620168633 72.82041657800767 372.3917471316469 75.03256141038761"/><polygon points="371.6769977529319 55.09071988278091 438.9896689137347 54.695960288518876 393.6631804533906 73.30403971148112 417.003486213276 72.90928011721908"/><polygon points="460.96081020400436 52.52576663393615 435.0391897959955 55.677241292122204 439.6767256992336 72.3227587078778 456.3232743007663 75.47423336606386"/><polygon points="482.0161088446845 55.24120244350846 499.3172244886488 54.48305411501869 530.2578528411648 73.51694588498131 451.0754804921685 72.75879755649154"/><polygon points="10.666666666666666 92.05349315713127 32 92.15970739302354 32 121.17362594030978 10.666666666666666 121.27984017620204"/><polygon points="52.52527521389292 96.66667927746344 75.47472478610709 92.15142585085245 74.2945637084144 121.18190748248087 53.7054362915856 116.66665405586987"/><polygon points="93.70674384898241 100.05569017931666 119.6265894843509 91.68656617483593 118.4574091600968 121.64676715849738 94.87592417323651 113.27764315401666"/><polygon points="142.01377319008375 95.20835845156017 156.65289347658293 100.86875209396068 153.27946624873653 112.46458123937263 145.38720041793016 118.12497488177314"/><polygon points="182.6445021718276 100.6923707922231 201.3554978281724 92.01293029018353 211.0353205531032 121.32040304314978 172.9646794468968 112.64096254111021"/><polygon points="235.33822072320928 96.97678039421943 233.99511261012404 94.35456294884463 247.64426399180223 118.97877038448868 221.68906934153108 116.35655293911388"/><polygon points="254.38775574047764 95.95146081633978 300.278910926189 99.76461262759173 281.27112164692545 113.56872070574158 273.3955450197412 117.38187251699354"/><polygon points="301.344601986188 93.61071120594244 338.65539801381186 94.24728234560146 324.15779656579343 119.08605098773185 315.84220343420645 119.72262212739088"/><polygon points="335.5027968941435 93.03139424408921 389.83053643918976 100.87555807208483 386.8309120580076 112.45777526124849 338.5024212753257 120.3019390892441"/><polygon points="404.97925493375163 94.57304398101603 405.687411732915 97.33905786658369 438.2839876733802 115.99427546674963 372.38267899328645 118.76028935231729"/><polygon points="423.9517414657875 92.98555839187021 472.0482585342124 98.61697748399834 465.469674804993 114.71635584933497 430.53032519500687 120.3477749414631"/><polygon points="457.3627629963104 101.01233210036337 523.9705703370229 94.82872334222297 525.7151690473042 118.50460999111034 455.618164286029 112.32100123296995"/><polygon points="10.666666666666666 145.93436566781503 32 133.9850844761877 32 164.681582190479 10.666666666666666 152.73230099885166"/><polygon points="53.74307172761084 143.51097441110514 74.25692827238916 135.92904317476717 75.9273680912231 162.7376234918995 52.072631908776906 155.15569225556155"/><polygon points="95.2183284483874 138.49515457183756 118.11500488494592 142.93105527212634 117.47582953716991 155.73561139454034 95.8575037961634 160.17151209482913"/><polygon points="137.46479637735752 138.09772911247447 161.20187028930917 139.94733516303575 152.15646762122688 158.71933150363094 146.5101990454398 160.56893755419222"/><polygon points="188.22963138188 146.43321430928845 195.77036861812 140.14726189871948 208.3485944536655 158.5194047679472 175.6514055463345 152.23345235737824"/><polygon points="211.04840560501412 141.53990661514436 258.2849277283192 142.2863490106578 256.96403776056667 156.38031765600888 212.36929557276665 157.12676005152233"/><polygon points="257.6570178424506 135.22891637910118 297.009648824216 134.47809118309962 293.1174730045274 164.18857548356706 261.5491936621392 163.4377502875655"/><polygon points="293.89043200402824 146.0691493890881 346.10956799597164 133.75563993864122 336.28672532288033 164.91102672802546 303.71327467711956 152.5975172775786"/><polygon points="352.6674597284338 139.14620691603403 372.66587360489945 138.30496188568748 374.0747860247779 160.3617047809792 351.25854730855536 159.52045975063265"/><polygon points="385.92733627462985 143.47797248524003 424.7393303920368 138.04215425812987 435.2058724454996 160.62451240853682 375.460794221167 155.18869418142665"/><polygon points="413.7084260244853 135.65105543046423 482.2915739755146 134.6026938853175 465.72779186899504 164.06397278134918 430.27220813100485 163.01561123620246"/><polygon points="501.8224654158344 140.3043876982272 479.51086791749884 136.31562006765066 487.7330386299219 162.35104659901603 493.60029470341135 158.36227896843948"/><polygon points="10.666666666666666 182.75141702242507 32 190.09861060512847 32 193.90138939487153 10.666666666666666 201.24858297757493"/><polygon points="51.00680909026086 183.89929302252514 76.99319090973914 173.43300408989268 74.05939351581642 210.56699591010732 53.940606484183576 200.10070697747486"/><polygon points="98.99337702871318 187.83020825262727 114.33995630462013 190.06317832075297 116.03305488285903 193.93682167924703 97.30027845047428 196.16979174737273"/><polygon points="131.8708548101116 188.29558094382145 166.79581185655508 186.04800611514804 157.07222665799554 197.95199388485196 141.59444000867114 195.70441905617855"/><polygon points="171.81992621834468 182.0919627782983 212.18007378165532 176.2488643663792 197.9562295646407 207.7511356336208 186.0437704353593 201.9080372217017"/><polygon points="227.62587403139727 178.115597340632 241.70745930193604 181.2062620562933 240.59706770811601 202.7937379437067 228.7362656252173 205.884402659368"/><polygon points="252.61525927875851 177.05691843487483 302.0514073879081 179.36413395603915 290.9047387245036 204.63586604396085 263.761927942163 206.94308156512517"/><polygon points="306.61770121735395 180.74119947208663 333.38229878264593 174.31811021015235 336.93117919586496 209.68188978984765 303.06882080413493 203.25880052791337"/><polygon points="354.09574354262077 183.8488826098868 371.2375897907125 175.3044066889768 384.4715210677833 208.6955933110232 340.86181226554993 200.1511173901132"/><polygon points="389.4009448403821 178.56330119135356 421.2657218262845 178.46384811995068 415.2894835720975 205.53615188004932 395.37718309456915 205.43669880864644"/><polygon points="446.8820829480573 184.37409802495972 449.1179170519426 178.14956873109247 476.00614327615324 205.85043126890753 419.99385672384665 199.62590197504028"/><polygon points="475.77274008011415 172.5925220186906 505.5605932532191 182.37018133002582 493.1682648134739 201.62981866997418 488.16506851985935 211.4074779813094"/><polygon points="10.666666666666666 227.22093443123308 32 218.87187571371334 32 250.46145761961998 10.666666666666666 242.11239890210024"/><polygon points="51.316382140919046 221.69108842122736 76.68361785908095 229.44822938260418 76.83291471253605 239.88510395072913 51.167085287463955 247.64224491210595"/><polygon points="91.77574630001709 229.94324459467157 121.55758703331622 235.22409324709642 114.44230290593845 234.1092400862369 98.89103042739487 239.39008873866175"/><polygon points="136.2120376485762 222.0560711794173 162.4546290180905 220.2064722869916 161.29344488210776 249.1268610463417 137.37322178455892 247.277262153916"/><polygon points="191.16004885425502 215.37548609688244 192.83995114574498 232.6011522944939 203.92863297444524 236.73218103883943 180.07136702555476 253.95784723645087"/><polygon points="215.47729730116043 211.98446317641293 253.85603603217288 229.5689795247 238.3916337468746 239.7643538086333 230.94169958645872 257.3488701569204"/><polygon points="255.67107025575774 211.47458967994248 298.9955964109089 225.77795272337988 303.0217736943182 243.55538060995343 251.64489297234846 257.85874365339083"/><polygon points="301.80275979226076 218.6671599337695 338.1972402077391 226.38943944020588 331.02630779217606 242.94389389312744 308.97369220782383 250.6661733995638"/><polygon points="333.730677149783 234.42067965626111 391.60265618355027 234.8869894571216 360.4407286009917 234.44634387621173 364.89260473234157 234.9126536770722"/><polygon points="373.61492315290377 232.84155655725826 437.05174351376286 216.57972322878751 431.3256704857843 252.7536101045458 379.3409961808823 236.49177677607506"/><polygon points="418.1846796519642 219.1850328479723 477.8153203480357 222.07885540561296 480.71918747924565 247.25447792772036 415.28081252075424 250.148300485361"/><polygon points="483.9290174348134 218.75202780475885 497.4043158985199 233.9406741739496 521.6114363386633 235.39265915938373 459.72189699467 250.58130552857446"/><polygon points="10.666666666666666 273.05152912692876 32 278.1286015114762 32 276.53806515519045 10.666666666666666 281.6151375397379"/><polygon points="53.834984048396635 269.304246923554 74.16501595160337 254.7097268214753 75.93073507554871 299.9569398451913 52.06926492445129 285.36241974311264"/><polygon points="98.91040121924496 253.44532248972203 114.42293211408835 252.693921618518 114.71512422359457 301.9727450481486 98.61820910973874 301.22134417694457"/><polygon points="132.206506815514 275.82793588246034 166.4601598511527 274.5972626446134 162.9473581221356 280.0694040220532 135.7193085445311 278.8387307842063"/><polygon points="178.66723012581005 265.77215698842656 205.33276987418995 267.7331605812551 212.3951134323321 286.9335060854115 171.6048865676679 288.89450967824007"/><polygon points="233.79409334325823 271.30072257354334 235.5392399900751 254.82718408437742 254.30938172883603 299.8394825822892 215.02395160449728 283.3659440931233"/><polygon points="278.8135359936098 273.4483494879462 275.85313067305685 263.4914801690757 289.8958505293212 291.1751864975909 264.77081613734543 281.21831717872044"/><polygon points="311.49476062339636 263.4743279353775 328.5052393766035 263.119794221145 323.8512891658481 291.5468724455216 316.1487108341518 291.1923387312891"/><polygon points="345.0761546181718 268.2992225218492 380.25717871516144 266.7541633800235 365.21494841961874 287.91250328664313 360.1183849137145 286.36744414481745"/><polygon points="384.6845317308081 270.1720009020866 425.98213493585854 255.65985035245296 410.16581751789687 299.00681631421367 400.50084914876976 284.49466576458"/><polygon points="412.4771899474473 269.3959632703291 483.5228100525526 261.8590922625683 432.9419543017109 292.8075744040983 463.058045698289 285.2707033963375"/><polygon points="462.7942227998733 282.27548689267576 518.53911053346 268.3006993605774 491.22197386170103 286.3659673060892 490.1113594716322 272.39117977399087"/><polygon points="10.666666666666666 302.703082390799 32 317.62225605170437 32 322.3777439482955 10.666666666666666 337.2969176092009"/><polygon points="51.16603981249431 295.47912911257635 76.83396018750568 301.57194389306767 72.67908229336568 338.4280561069322 55.32091770663432 344.52087088742354"/><polygon points="92.18342170008168 311.3042368639049 121.14991163325163 293.211517250235 119.5656548960057 346.7884827497649 93.76767843732762 328.69576313609497"/><polygon points="136.4861018311034 290.81250134615965 162.18056483556327 318.0281704561415 158.6269592499667 321.9718295438584 140.0397074167 349.18749865384024"/><polygon points="190.76659869504408 304.3930159034232 193.23340130495592 300.64122691185514 203.18005411839755 339.35877308814474 180.81994588160245 335.6069840965767"/><polygon points="230.78463613704372 327.39635242563094 238.5486971962896 313.5809114023769 243.2017291965213 326.419088597623 226.131604136812 312.60364757436895"/><polygon points="258.2977328154527 295.7088893732121 296.3689338512139 309.0534826801499 283.5165491662201 330.94651731985 271.1501175004465 344.29111062678777"/><polygon points="296.7797436240454 308.92698298767334 343.2202563759545 307.98409531218664 342.86337452257004 332.01590468781325 297.13662547742985 331.07301701232655"/><polygon points="352.2568199516858 320.76459284967666 373.07651338164743 311.8176605006203 358.85623373181954 328.18233949937957 366.4770996015137 319.2354071503232"/><polygon points="410.080093554976 298.8220266941399 400.58657311169065 305.3664335898477 424.2019594550041 334.6335664101522 386.4647072116625 341.17797330586"/><polygon points="426.5262100666562 304.3855808599993 469.4737899333437 291.4807595734683 472.5958649474374 348.5192404265316 423.4041350525625 335.61441914000056"/><polygon points="475.2461087595548 311.1110860215119 506.0872245737785 292.8561438237005 485.98629213145034 347.1438561762994 495.3470412018829 328.888913978488"/><polygon points="10.666666666666666 341.56837138887664 32 345.0576933504367 32 380.27563998289656 10.666666666666666 383.7649619444566"/><polygon points="54.157820462226965 371.0145162714874 73.84217953777303 352.29899800153163 76.87572844712462 373.0343353318016 51.12427155287539 354.31881706184583"/><polygon points="98.91144348129795 337.2620106444212 114.42188985203536 334.4327233817161 113.92111307550861 390.9006099516172 99.4122202578247 388.07132268891206"/><polygon points="142.14553599183049 342.6226191233425 156.5211306748362 344.81056865338127 162.2956244102604 380.522764679952 136.3710422564063 382.7107142099908"/><polygon points="182.997056607735 370.63485290395215 201.002943392265 341.54915248127986 204.3415423247059 383.7841808520534 179.6584576752941 354.6984804293811"/><polygon points="222.48268622855934 338.73742676346683 246.85064710477397 369.4536161304558 249.53092737633736 355.87971720287743 219.80240595699595 386.59590656986643"/><polygon points="278.8713990647131 349.9773634826384 275.7952676019535 358.56637167310384 275.1208097120585 366.7669616602294 279.54585695460815 375.35596985069486"/><polygon points="300.7284012636666 346.6226538847595 339.27159873633326 354.74661677197594 345.3546352379293 370.5867165613573 294.6453647620706 378.7106794485738"/><polygon points="330.96745576436695 351.8506313697506 394.3658775689663 352.7931638950735 366.9781451034953 372.54016943825974 358.35518822983795 373.48270196358266"/><polygon points="384.58433258446115 343.13997658461756 426.0823340822055 340.1374645311976 400.5532923367006 385.19586880213564 410.113374329966 382.1933567487157"/><polygon points="416.7303884343012 332.62089122223495 479.2696115656987 332.95412513407956 451.08441099574026 392.3792081992537 444.91558900425963 392.7124421110983"/><polygon points="461.0978308910934 333.57284135270186 520.2355024422399 335.27917474486384 474.23576118759195 390.0541585884694 507.0975721457413 391.7604919806314"/><polygon points="10.666666666666666 389.70576831770313 32 415.575033627726 32 395.09163303894064 10.666666666666666 420.9608983489635"/><polygon points="54.43732144011515 411.0355891728378 73.56267855988486 406.3678654449353 72.78086107670295 404.2988012217313 55.219138923297045 399.63107749382885"/><polygon points="97.62891739585376 418.5528946487336 115.70441593747955 405.6214645880166 115.10695202488711 405.04520207865005 98.22638130844621 392.113772017933"/><polygon points="139.56146209431887 403.1455748110808 159.10520457234782 380.37761469840336 156.84721457142555 430.28905196826327 141.81945209524113 407.52109185558584"/><polygon points="186.4728043485796 376.52778441285153 197.5271956514204 378.4098294703578 193.19551003688917 432.2568371963088 190.80448996311083 434.1388822538151"/><polygon points="215.92748996642737 390.46930822986195 253.40584336690594 413.916998773085 236.92692456044975 396.7496678935816 232.40640877288357 420.1973584368047"/><polygon points="280.12701237766436 382.8027672658607 274.53965428900227 373.4385573584035 294.47031058117784 437.22810930826313 260.1963560854888 427.8638994008059"/><polygon points="301.1742237727163 405.1222861439748 338.8257762272836 375.09025110292947 319.89773211228623 435.57641556373716 320.10226788771365 405.5443805226918"/><polygon points="368.6433473741599 409.26145555210155 356.6899859591734 382.0322975445555 393.88758256733934 428.63436912211114 331.4457507659939 401.4052111145651"/><polygon points="412.11914638257196 399.2621645962517 398.5475202840947 380.25555259804275 395.5270481560439 430.4111140686239 415.1396185106227 411.40450207041494"/><polygon points="452.80440444596564 406.4698756641927 443.19559555403424 393.0651578711868 444.3211498951947 417.60150879547984 451.6788501048052 404.1967910024739"/><polygon points="458.7802042778767 378.3983150488049 522.5531290554566 414.11578948265077 508.70290522518803 396.55087718401586 472.6304281081452 432.26835161786175"/><polygon points="10.666666666666666 434.1780852319167 32 436.3383144553699 32 459.66168554462996 10.666666666666666 461.82191476808316"/><polygon points="50.96334103486938 429.0800334761849 77.03665896513063 463.11293250963007 72.10797902803108 432.8870674903698 55.89202097196892 466.919966523815"/><polygon points="98.12760250959415 445.39754568609084 115.20573082373916 421.17904492207145 115.11059490400693 474.82095507792843 98.22273842932638 450.60245431390905"/><polygon points="145.91523893307905 459.93680177980104 152.75142773358763 441.6528430071739 162.4614386029716 454.347156992826 136.20522806369507 436.06319822019884"/><polygon points="189.1987865991312 411.08086836206405 194.8012134008688 414.87325461905203 212.78833300790956 481.12674538094785 171.21166699209044 484.91913163793583"/><polygon points="231.89669306899427 424.30524965459307 237.43664026433905 427.5578571425828 242.5410096984599 468.4421428574171 226.7923236348734 471.6947503454068"/><polygon points="281.2870556389715 425.248473328999 273.37961102769515 425.64393164264015 295.57910032430254 470.35606835735973 259.0875663423641 470.7515266710009"/><polygon points="297.1023820942859 461.07621003679776 342.897617905714 450.8144574432599 338.2591564765064 445.18554255673996 301.7408435234935 434.9237899632021"/><polygon points="365.89747794909294 442.5451669202638 359.4358553842403 415.75181398253443 394.22629656871436 480.24818601746546 331.1070367646189 453.4548330797361"/><polygon points="413.6482435849049 447.8710613983557 397.01842308176174 420.58871743290706 429.40905130285756 475.4112825670928 381.25761536380907 448.12893860164417"/><polygon points="449.83308329530496 450.24556326979183 446.1669167046949 416.83457422383174 466.6294887920314 479.16542577616815 429.3705112079685 445.75443673020806"/><polygon points="486.4671314862968 437.4331576488976 494.86620184703645 414.43567274767713 473.9384688496251 481.56432725232276 507.39486448370815 458.5668423511023"/><polygon points="10.666666666666666 454.1442593471179 32 487.2195390464957 32 494.11379428683756 10.666666666666666 527.1890739862154"/><polygon points="50.91493914071581 501.7338601502655 77.0850608592842 487.9679973028835 75.2130465880615 493.3653360304498 52.78695341193849 479.59947318306774"/><polygon points="99.96470781240401 489.4695308298797 113.3686255209293 486.25682204492153 122.66178453758793 495.0765112884117 90.67154879574538 491.86380250345354"/><polygon points="142.87530646739958 485.6666770154241 155.7913601992671 473.35877117561944 158.44010398461623 507.9745621577138 140.22656268205046 495.66665631790914"/><polygon points="188.67189570144257 476.098095062267 195.32810429855743 453.5883411538483 208.83196130467516 527.7449921794849 175.16803869532484 505.23523827106624"/><polygon points="230.92841838078402 455.6985902430589 238.4049149525493 482.1271550570779 251.6819255192768 499.20617827625534 217.6514078140565 525.6347430902744"/><polygon points="276.9972258142512 458.97218544796885 277.66944085241545 455.2045442602488 293.52071897225255 526.1287890730845 261.1459476944141 522.3611478853644"/><polygon points="310.98081115710744 468.59015924204925 329.01918884289245 507.9232361609348 340.2718888137914 473.4100971723985 299.7281111862085 512.743174091284"/><polygon points="366.8081620362964 458.0988337591491 358.5251712970369 495.52819504785265 392.74627710980053 485.8051382854806 332.5870562235327 523.2344995741842"/><polygon points="406.8758820398811 487.2177542197802 403.7907846267855 454.9927899555365 408.24857349983245 526.3405433777967 402.4180931668342 494.11557911355305"/><polygon points="439.3513984405898 494.11106724409484 456.6486015594101 507.5214878371011 454.95644828316375 473.81184549623214 441.04355171683613 487.2222660892384"/><polygon points="453.78906524459563 472.686525619256 527.5442680887377 508.3388494012778 498.4905429184126 472.99448393205546 482.84279041492067 508.6468077140773"/>
</svg>
