<?xml version="1.0" encoding="UTF-8"?>
<svg xmlns="http://www.w3.org/2000/svg" id="RSSicon" viewBox="0 0 512 512" width="512" height="512">
  <defs>
    <style type="text/css">
      svg {
        background: black;
        margin: calc(50vh - 256px) auto 0;
      }
      
      polygon {stroke: darkorange; fill: none;}
    </style>
  </defs>
  <polygon points="10.666666666666666 10.666666666666666 32 10.666666666666666 32 32 10.666666666666666 32"/><polygon points="52.23575418125414 10.666666666666666 75.76424581874586 10.666666666666666 72.74844847955579 32 55.25155152044421 32"/><polygon points="97.48701509105419 10.666666666666666 115.84631824227912 10.666666666666666 118.75021097953558 32 94.58312235379773 32"/><polygon points="142.70497278209533 10.666666666666666 155.96169388457136 10.666666666666666 161.85735076502888 32 136.8093159016378 32"/><polygon points="191.95320782372218 10.666666666666666 192.04679217627782 10.666666666666666 204.37236450921156 32 179.62763549078844 32"/><polygon points="227.7226007258755 10.666666666666666 241.6107326074578 10.666666666666666 256.04221723773526 32 213.29111609559808 32"/><polygon points="266.5204387700882 10.666666666666666 288.1462278965784 10.666666666666666 293.76767254227354 32 260.8989941243931 32"/><polygon points="313.3336824484386 10.666666666666666 326.6663175515613 10.666666666666666 341.0977978042096 32 298.90220219579027 32"/><polygon points="338.26819192504047 10.666666666666666 387.0651414082928 10.666666666666666 389.0964634953669 32 336.23686983796637 32"/><polygon points="398.884647964713 10.666666666666666 411.78201870195363 10.666666666666666 393.08536229301586 32 417.58130437365077 32"/><polygon points="442.6880001383326 10.666666666666666 453.3119998616673 10.666666666666666 453.70752248837374 32 442.29247751162615 32"/><polygon points="474.5734879392419 10.666666666666666 506.75984539409137 10.666666666666666 478.919871289662 32 502.41346204367125 32"/><polygon points="10.666666666666666 53.087061798638146 32 51.05291606862393 32 76.94708393137607 10.666666666666666 74.91293820136185"/><polygon points="53.41243946651023 53.021486203637046 74.58756053348978 53.67047373244526 76.70713429452942 74.32952626755474 51.292865705470575 74.97851379636296"/><polygon points="94.01467878856695 51.111878606590686 119.31865454476636 55.29981465893422 114.21795061568137 72.70018534106578 99.11538271765194 76.88812139340932"/><polygon points="137.82814165609125 51.85998254446262 160.83852501057544 51.84752777263331 153.1395041488973 76.15247222736669 145.5271625177694 76.14001745553739"/><polygon points="175.4379448510317 52.68896699197346 208.5620551489683 51.644079770857495 198.87360392172332 76.35592022914251 185.12639607827668 75.31103300802654"/><polygon points="231.7521682905962 52.97787001342575 237.58116504273713 54.87498130226415 253.63903051560078 73.12501869773585 215.69430281773253 75.02212998657424"/><polygon points="252.5015626212248 54.180708209663315 302.16510404544186 54.218184039461136 277.8777409943634 73.78181596053886 276.7889256723032 73.81929179033668"/><polygon points="323.0321500002256 50.71885964545208 316.9678499997743 53.63915892696285 326.41307461292513 74.36084107303715 313.58692538707476 77.28114035454793"/><polygon points="365.7640876983226 55.57459177492899 359.56924563501065 51.756316213668754 380.6131570076023 76.24368378633125 344.72017632573096 72.42540822507101"/><polygon points="405.1446473398442 54.74245341633863 405.52201932682243 51.390753893898406 422.95252504951253 76.6092461061016 387.7141416171541 73.25754658366138"/><polygon points="442.78777111615994 50.83337637020698 453.21222888383994 50.98969996825903 460.97354188647705 77.01030003174097 435.02645811352284 77.16662362979302"/><polygon points="495.215782134251 51.90134554767529 486.11755119908224 55.0757094992334 510.9464953569743 72.9242905007666 470.38683797635895 76.09865445232471"/><polygon points="10.666666666666666 94.97571901932034 32 97.81534953079372 32 115.51798380253959 10.666666666666666 118.35761431401298"/><polygon points="53.077174431452406 97.37102695682876 74.9228255685476 91.84275492616148 73.04275441510205 121.49057840717184 54.95724558489795 115.96230637650456"/><polygon points="98.61250360543035 96.9321736734865 114.72082972790297 101.28503134814744 115.44142084546397 112.04830198518587 97.89191248786935 116.40115965984681"/><polygon points="130.68357403049794 99.2434949243528 167.98309263616875 96.63137502048617 155.5090712734975 116.70195831284714 143.15759539316917 114.08983840898051"/><polygon points="191.08598516345745 92.96759198652231 192.91401483654255 91.40304200176341 212.81724607937497 121.9302913315699 171.18275392062503 120.365741346811"/><polygon points="222.5068683601429 97.36998463125558 246.8264649731904 99.78490160666443 237.8654400833306 113.54843172666888 231.4678932500027 115.96334870207774"/><polygon points="276.23112291924986 99.05436817363415 278.4355437474168 100.6156366883583 301.8528598384891 112.71769664497502 252.8138068281775 114.27896515969917"/><polygon points="323.33063689976854 94.50826444756018 316.66936310023135 99.72550734954342 322.57478495199877 113.6078259837899 317.4252150480011 118.82506888577313"/><polygon points="341.54251192667505 94.8895912043349 383.7908214066582 91.53284110176949 384.91110677392805 121.80049223156382 340.4222265594052 118.44374212899841"/><polygon points="379.00288650358567 93.80481904707601 431.66378016308096 100.38925277864263 417.99327427558404 112.94408055469069 392.6733923910826 119.5285142862573"/><polygon points="448.02490733429875 90.79559497594045 447.97509266570114 101.03838883342426 442.2192910827352 112.29494449990905 453.7807089172647 122.53773835739287"/><polygon points="455.33190312197877 92.6323302766515 526.0014302113544 93.07078050999115 525.1051638841983 120.26255282334216 456.2281694491349 120.70100305668181"/><polygon points="10.666666666666666 139.76289766076965 32 136.70130960941182 32 161.96535705725486 10.666666666666666 158.90376900589703"/><polygon points="54.70502070908087 136.69054429653727 73.29497929091913 145.55400381538496 73.53637562203394 153.11266285128173 54.463624377966056 161.97612237012942"/><polygon points="99.55486113397042 141.69993949871096 113.7784721993629 138.33520624918222 116.75294760761052 160.33146041748446 96.58038572572279 156.96672716795572"/><polygon points="134.3640806809029 142.3045336083655 164.30258598576378 140.35234194990133 160.8503323534568 158.31432471676536 137.8163343132099 156.3621330583012"/><polygon points="178.66523161927952 132.9768299407574 205.33476838072048 143.08714553646317 194.2606617627134 155.57952113020352 189.7393382372866 165.6898367259093"/><polygon points="211.64615112305825 141.8862606413835 257.68718221027507 143.79486353043478 246.76373105462085 154.8718031362319 222.56960227871247 156.78040602528318"/><polygon points="256.3455628130016 133.41288407079588 298.321103853665 132.3117589380325 301.6711270176211 166.35490772863417 252.99553964904555 165.2537825958708"/><polygon points="304.5907251953038 132.94802802050253 335.4092748046961 145.26757851326917 346.4381606755275 153.3990881533975 293.5618393244724 165.71863864616415"/><polygon points="346.6457298119188 136.31378604045557 378.6876035214145 134.05932920849847 386.9695781931931 164.60733745816822 338.36375514014014 162.35288062621112"/><polygon points="378.72433266939873 138.06253194976622 431.9423339972679 136.62894620914048 406.094589759357 162.0377204575262 404.5720769073096 160.60413471690046"/><polygon points="455.7070338006546 142.3950168064705 440.2929661993453 142.47086738295903 482.5784796571871 156.19579928370766 413.4215203428128 156.2716498601962"/><polygon points="482.4103848469597 130.99354655079424 498.92294848637357 138.46832818341952 473.24760116864945 160.19833848324717 508.0857321646838 167.67312011587245"/><polygon points="10.666666666666666 175.2193679461158 32 183.7202469846974 32 200.2797530153026 10.666666666666666 208.7806320538842"/><polygon points="51.60189611010969 189.82421197133507 76.39810388989031 171.52415467488382 72.36248387987828 212.47584532511618 55.63751612012171 194.17578802866493"/><polygon points="98.02295345251427 183.7365548418938 115.31037988081904 182.33828437204068 114.54063805258775 201.66171562795932 98.79269528074556 200.2634451581062"/><polygon points="140.68335202808996 190.40844917971447 157.98331463857673 189.64471673806796 153.96550431707928 194.35528326193204 144.7011623495874 193.59155082028553"/><polygon points="184.00208698925937 184.11928275059572 199.99791301074063 180.47301309937552 202.21841553812052 203.52698690062448 181.78158446187948 199.88071724940428"/><polygon points="233.6854088233635 184.40853386809192 235.6479245099698 179.15257080781606 244.36287771039736 204.84742919218394 224.97045562293596 199.59146613190808"/><polygon points="270.27161447689343 180.70542019066943 284.3950521897732 183.61666230433224 284.123201435301 200.38333769566776 270.54346523136564 203.29457980933057"/><polygon points="301.2058455668471 186.72032693548772 338.7941544331528 179.3947028307008 316.6708397028779 204.6052971692992 323.329160297122 197.27967306451228"/><polygon points="338.42910563630807 190.43447537320688 386.9042276970252 179.4733152055847 369.2938926299602 204.5266847944153 356.03944070337303 193.56552462679312"/><polygon points="409.68201394308375 181.69721537733233 400.9846527235829 189.35605518807952 392.5961304171585 194.64394481192048 418.0705362495081 202.30278462266767"/><polygon points="452.9109664738367 183.39436771702893 443.0890335261632 190.3000118295666 485.18280332349275 193.6999881704334 410.81719667650714 200.60563228297107"/><polygon points="502.36557735493346 172.93678809438853 478.9677559783998 191.0765613718138 484.86289365019877 192.9234386281862 496.4704396831345 211.06321190561147"/><polygon points="10.666666666666666 234.63580567960665 32 215.986031807823 32 253.34730152551032 10.666666666666666 234.69752765372667"/><polygon points="55.139723873681966 225.50023594201426 72.86027612631803 223.66551949517228 74.88822162756985 245.66781383816104 53.11177837243015 243.83309739131906"/><polygon points="94.82041475248292 226.86944554433057 118.5129185808504 234.54817548695218 121.03553545732805 234.78515784638114 92.29779787600526 242.46388778900274"/><polygon points="145.94004925755374 224.2750987276723 152.72661740911295 223.05683031010793 159.24481967886462 246.2765030232254 139.42184698780207 245.05823460566103"/><polygon points="172.341847568653 215.00609237020552 211.658152431347 225.42149024127855 201.47119979145845 243.91184309205477 182.52880020854155 254.3272409631278"/><polygon points="217.65083139318287 217.59270906484096 251.68250194015044 235.28732279210345 256.78435174403114 234.04601054122986 212.54898158930214 251.74062426849235"/><polygon points="252.27521367738433 232.20591984022536 302.3914529892823 225.1023159664041 276.63602410340565 244.23101736692922 278.030642563261 237.12741349310795"/><polygon points="292.14837549212376 231.2149317214491 347.8516245078761 226.28442220915875 338.8947698301349 243.04891112417457 301.10523016986497 238.11840161188422"/><polygon points="364.0803227822847 236.844246711052 361.25301055104853 224.49258534517858 371.2590294027572 244.84074798815473 354.07430393057604 232.48908662228132"/><polygon points="407.26820702336494 232.8196009787954 403.3984596433017 227.87501224028424 439.4776110647246 241.45832109304908 371.189055601942 236.51373235453792"/><polygon points="448.49192092967104 229.55931297296104 447.50807907032885 220.67555982389538 465.5755515588115 248.65777350943793 430.42444844118836 239.77402036037228"/><polygon points="453.3225411044148 221.71481515902042 528.0107922289185 220.9312056211187 484.1599277716789 248.40212771221462 497.17340556165436 247.6185181743129"/><polygon points="10.666666666666666 278.89526958363393 32 267.3072460092785 32 287.3594206573881 10.666666666666666 275.7713970830327"/><polygon points="50.77330836458218 256.8001036007884 77.22669163541782 281.8562801247231 73.01419958628718 272.8103865419435 54.98580041371282 297.8665630658782"/><polygon points="91.9297652667876 271.45177811747266 121.40356806654572 272.78084561698574 119.79032136438663 281.8858210496809 93.54301196894669 283.214888549194"/><polygon points="134.28000475114567 268.5445087090571 164.38666191552102 253.9812492741708 161.69198642507612 300.6854173924958 136.97468024159056 286.12215795760955"/><polygon points="190.20619603062315 266.8166355561191 193.79380396937685 257.533163537684 207.71297923491963 297.1335031289826 176.28702076508037 287.85003111054755"/><polygon points="215.62525288785787 276.0227832547746 253.70808044547545 252.49642418261766 253.647129587213 302.17024248404897 215.68620374612033 278.64388341189203"/><polygon points="264.7034338937779 265.80349234647446 289.9632327728887 265.00774958751776 272.83746625691725 289.65891707914886 281.8292004097494 288.8631743201922"/><polygon points="310.2309642651001 258.08509627638773 329.7690357348998 267.27220781319863 339.13291753367366 287.394458853468 300.8670824663262 296.5815703902789"/><polygon points="334.56707172199367 260.1322689457772 390.7662616113396 277.16640532977084 356.3769596142728 277.5002613368958 368.9563737190605 294.53439772088944"/><polygon points="394.5933231329029 269.98918488034604 416.0733435337637 272.421002654512 412.31182405404365 282.24566401215463 398.354842612623 284.6774817863206"/><polygon points="444.84098561764455 255.1328767001382 451.15901438235534 275.53205194047024 462.84384967253015 279.1346147261964 433.15615032746973 299.53378996652845"/><polygon points="457.80517683541734 250.67801863746254 523.5281564979159 265.18614503367905 510.69537156599614 289.4805216329876 470.6379617673371 303.98864802920406"/><polygon points="10.666666666666666 310.65027947407106 32 323.9043411165672 32 316.0956588834327 10.666666666666666 329.34972052592883"/><polygon points="52.100135999240585 295.8291947787136 75.89986400075942 295.2612971418783 72.44920313893782 344.7387028581216 55.55079686106218 344.1708052212863"/><polygon points="96.95068917238743 290.86816007234677 116.38264416094589 316.5618940998498 113.44979439915423 323.4381059001501 99.88353893417909 349.1318399276531"/><polygon points="146.5430181619675 307.46003383620854 152.1236485046992 305.51258275924147 153.48702736875896 334.4874172407584 145.17963929790773 332.53996616379135"/><polygon points="174.4501180710635 309.4187815828809 209.5498819289365 318.71029518823786 205.80130013260626 321.289704811762 178.19869986739374 330.581218417119"/><polygon points="227.8131467341033 292.38323659080567 241.52018659923002 319.533157157579 252.49851551142976 320.4668428424209 216.83481782190356 347.6167634091942"/><polygon points="250.8031794202336 327.08355374444363 303.863487246433 321.35535958251944 293.5450566558046 318.64464041748045 261.121610010862 312.91644625555625"/><polygon points="310.06572223085436 327.8098383866665 329.9342777691455 326.67018015849277 336.165390059566 313.3298198415071 303.8346099404339 312.1901616133334"/><polygon points="371.3839027266173 317.5489006758549 353.94943060671596 299.57883533419226 354.25442635256854 340.4211646658076 371.0789069807647 322.451099324145"/><polygon points="406.40751203361447 321.99778578016276 404.25915463305216 310.48048730755977 402.4735319518616 329.5195126924401 408.193134714805 318.00221421983713"/><polygon points="422.99965576318107 322.6658254180971 473.0003442368188 302.98801457123193 463.096939773867 337.01198542876796 432.9030602261329 317.3341745819028"/><polygon points="498.83024990077377 292.2202738786726 482.5030834325595 304.9279655559292 475.8220212296902 335.0720344440707 505.51131210364304 347.7797261213273"/><polygon points="10.666666666666666 333.1790535662439 32 336.67227089969845 32 388.6610624336348 10.666666666666666 392.15427976708935"/><polygon points="53.18163721244143 342.3927312471971 74.81836278755857 344.9713774270263 74.64158964194988 380.36195590630695 53.35841035805012 382.94060208613615"/><polygon points="90.66899087493475 372.619815476427 122.66434245839856 333.0190924760019 119.39891216230365 392.31424085733136 93.93442117102967 352.71351785690626"/><polygon points="140.15262255851 368.6999740184834 158.5140441081567 372.38695321270495 167.59229381799761 352.9463801206283 131.07437284866907 356.6333593148499"/><polygon points="188.15335890653824 355.5510393538821 195.84664109346176 371.6196334359016 202.4148132839508 353.71369989743164 181.5851867160492 369.78229397945114"/><polygon points="236.20682943384304 354.8095884375724 233.12650389949027 368.6727857735154 248.20688118516892 356.66054755981787 221.1264521481644 370.52374489576084"/><polygon points="272.64840260735605 369.3846366328722 282.0182640593106 367.2582931396057 294.4218557595457 358.07504019372755 260.24481090712095 355.9486967004611"/><polygon points="309.3348335481385 358.062388098634 330.6651664518614 358.9762369996448 347.5082174189617 366.35709633368845 292.4917825810382 367.27094523469924"/><polygon points="360.7596845992323 370.8531134186824 364.57364873410097 366.30358494539615 389.6144136636765 359.0297483879371 335.71891966965677 354.48021991465083"/><polygon points="372.45952531318187 372.2406013245083 438.20714135348476 351.67585322798993 409.6755639031083 373.6574801053433 400.99110276355833 353.09273200882495"/><polygon points="454.9957443537704 344.45468633278466 441.00425564622947 363.9128807192391 474.7549825923924 361.42045261409413 421.24501740760746 380.8786470005486"/><polygon points="494.25515762685325 339.0421106628261 487.07817570648 360.9298613251358 491.43310566721834 364.40347200819747 489.9002276661149 386.2912226705072"/><polygon points="10.666666666666666 417.366378981572 32 400.72651753187023 32 409.9401491347964 10.666666666666666 393.30028768509464"/><polygon points="55.003741332297594 401.72312133711836 72.9962586677024 393.6716406472941 75.86663614732075 416.9950260193725 52.13336385267925 408.9435453295483"/><polygon points="97.13533739202695 388.0449191088027 116.19799594130636 418.5157174618618 119.88315943819539 392.1509492048048 93.45017389513792 422.62174755786396"/><polygon points="144.07587957957304 393.18466432593783 154.59078708709364 398.1174224673239 157.79059972016478 412.54924419934275 140.8760669465019 417.4820023407288"/><polygon points="174.05154698716922 379.6675051915877 209.94845301283078 398.07687714167287 195.01657419083634 412.58978952499376 188.98342580916366 430.99916147507895"/><polygon points="212.41123691771355 401.80560066672405 256.92209641561976 374.0776578557686 248.8061036862263 436.589008810898 220.52722964710702 408.8610659999426"/><polygon points="255.80380654586483 371.3848705314362 298.8628601208018 395.9985899915268 272.48911728185556 414.66807667513984 282.1775493848111 439.2817961352304"/><polygon points="313.9278750416417 411.54197428491443 326.0721249583582 408.17720612716096 313.53746869494836 402.48946053950567 326.4625313050515 399.1246923817522"/><polygon points="346.661190719421 386.85799522881024 378.6721426139123 380.37445435800845 363.85730645136664 430.2922123086582 361.4760268819666 423.8086714378564"/><polygon points="380.71119035043597 416.08641280656866 429.95547631623066 411.4029815392356 431.17420820729103 399.263685127431 379.4924584593756 394.58025386009797"/><polygon points="458.562906119014 377.8795350031078 437.4370938809859 378.8175404871019 459.341094033886 431.84912617956473 436.6589059661139 432.78713166355885"/><polygon points="479.2185420069211 388.8223189936976 502.11479132641216 382.2995647055692 525.4879528895201 428.36710196109743 455.8453804438132 421.84434767296904"/><polygon points="10.666666666666666 428.7577082526632 32 446.37679434574244 32 449.62320565425745 10.666666666666666 467.2422917473367"/><polygon points="50.86848970871739 418.02164145266124 77.13151029128261 454.1225093962417 72.08304288239925 441.8774906037582 55.916957117600745 477.97835854733864"/><polygon points="94.51982681416098 460.8161423093686 118.81350651917234 451.8295547003575 119.42388041260166 444.1704452996424 93.90945292073165 435.18385769063127"/><polygon points="144.96773101329873 423.9286532135832 153.69893565336795 432.4000447706859 158.3286318647154 463.599955229314 140.3380348019513 472.0713467864167"/><polygon points="175.660053978665 462.48521975187873 208.339946021335 414.580372486938 205.95508166307258 481.41962751306187 178.04491833692742 433.51478024812116"/><polygon points="234.18684600226456 417.8835068953555 235.14648733106876 449.4678705157628 253.26813589613738 446.5321294842371 216.06519743719593 478.1164931046444"/><polygon points="270.5541029218232 450.4780019285455 284.11256374484344 430.9007321386702 280.3827631180686 465.0992678613297 274.283903548598 445.5219980714544"/><polygon points="301.3417422424648 414.93063504389636 338.65825775753507 447.9929044798809 341.5467180587836 448.007095520119 298.4532819412163 481.0693649561035"/><polygon points="343.66491595311743 426.49985826906004 381.6684173802158 449.5085492659412 391.4046880887684 446.4914507340587 333.92864524456485 469.50014173093984"/><polygon points="372.3565849660115 448.0578079233148 438.31008170065513 457.78762859506014 432.86902840938615 438.21237140493974 377.7976382572805 447.9421920766851"/><polygon points="446.97172810628314 461.09431167389357 449.02827189371675 463.96777197575966 434.18533412123367 432.0322280242402 461.8146658787662 434.9056883261063"/><polygon points="464.33947953940446 451.2995060550736 516.9938537939288 414.4547208649521 488.2007415561855 481.5452791350478 493.13259177714775 444.7004939449263"/><polygon points="10.666666666666666 507.5149693234685 32 460.4050217213149 32 520.9283116120183 10.666666666666666 473.81836400986475"/><polygon points="51.916775770778635 493.56128911812596 76.08322422922137 479.1237971350231 76.87959380219245 502.20953619831016 51.120406197807554 487.7720442152073"/><polygon points="100.41126060587243 509.22581645597654 112.92207272746089 461.58019838425514 114.21538052681555 519.7531349490781 99.11795280651776 472.1075168773567"/><polygon points="132.6365038167333 497.5827788387349 166.0301628499334 454.6081793340039 163.37888602314337 526.7251539993293 135.28778064352332 483.75055449459836"/><polygon points="170.89259936866907 501.7795249870531 213.10740063133093 451.90644790523885 197.83893994175784 529.4268854280944 186.16106005824216 479.55380834628016"/><polygon points="212.26389218152997 481.286730557452 257.06944115180335 486.3264300835947 249.63015155950507 495.00690324973857 219.70318177382825 500.04660277588124"/><polygon points="251.81998609083226 462.66810746202214 302.84668057583434 475.36195163449185 297.6426198521675 505.9713816988414 257.0240468144991 518.6652258713111"/><polygon points="318.48317294693356 501.4653666048782 321.5168270530663 507.16759790225444 322.6179518374522 474.1657354310788 317.3820481625477 479.86796672845503"/><polygon points="336.26493517888 453.4313032861761 389.06839815445323 498.20548447323984 354.1743424843267 483.1278488600934 371.15899084900656 527.9020300471572"/><polygon points="402.3562356451539 463.51490596500906 408.3104310215127 459.11956984418873 405.19340042717835 522.2137634891445 405.4732662394883 517.8184273683241"/><polygon points="431.03877758324643 453.21011947638993 464.96122241675346 487.1680009194014 443.6794253596764 494.1653324139319 452.3205746403235 528.1232138569434"/><polygon points="485.9633460781891 509.28716835412564 495.36998725514417 461.637195977234 479.7162494267323 519.6961373560993 501.61708390660095 472.0461649792076"/>
</svg>
