<?xml version="1.0" encoding="UTF-8"?>
<svg xmlns="http://www.w3.org/2000/svg" id="RSSicon" viewBox="0 0 512 512" width="512" height="512">
  <defs>
    <style type="text/css">
      svg {
        background: black;
        margin: calc(50vh - 256px) auto 0;
      }
      
      polygon {stroke: darkorange; fill: none;}
    </style>
  </defs>
  <polygon points="10.666666666666666 10.666666666666666 32 10.666666666666666 32 32 10.666666666666666 32"/><polygon points="50.7597157379627 10.666666666666666 77.2402842620373 10.666666666666666 75.75582892569489 32 52.24417107430512 32"/><polygon points="97.95152253001777 10.666666666666666 115.38181080331555 10.666666666666666 113.7019926889349 32 99.63134064439842 32"/><polygon points="132.70709894569407 10.666666666666666 165.95956772097261 10.666666666666666 152.09741596106568 32 146.569250705601 32"/><polygon points="171.88501388561076 10.666666666666666 212.11498611438924 10.666666666666666 195.47436053666522 32 188.52563946333478 32"/><polygon points="222.46235290665655 10.666666666666666 246.87098042667677 10.666666666666666 242.49368998766556 32 226.83964334566775 32"/><polygon points="256.13474035401794 10.666666666666666 298.5319263126487 10.666666666666666 302.4975860582105 32 252.16908060845608 32"/><polygon points="301.6222610187529 10.666666666666666 338.377738981247 10.666666666666666 346.21463483450856 32 293.7853651654913 32"/><polygon points="363.1049716463693 10.666666666666666 362.228361686964 10.666666666666666 384.91053881638834 32 340.4227945169449 32"/><polygon points="381.5272144441653 10.666666666666666 429.13945222250135 10.666666666666666 435.7279968416509 32 374.9386698250157 32"/><polygon points="426.9274573164372 10.666666666666666 469.0725426835627 10.666666666666666 433.93975111871464 32 462.06024888128525 32"/><polygon points="458.564223202119 10.666666666666666 522.7691101312142 10.666666666666666 474.919273444116 32 506.41405988921724 32"/><polygon points="10.666666666666666 54.75677219106517 32 51.027914320703914 32 76.97208567929609 10.666666666666666 73.24322780893483"/><polygon points="53.92593397261164 51.80569822475867 74.07406602738837 53.56161121307255 73.59862194060905 74.43838878692745 54.40137805939095 76.19430177524133"/><polygon points="100.79542133534622 53.79865578740376 112.5379119979871 51.646438817753605 115.27112777297451 76.3535611822464 98.0622055603588 74.20134421259624"/><polygon points="135.56425885468667 52.05525407192423 163.10240781198002 52.51281071998531 158.05982670232942 75.48718928001469 140.60683996433727 75.94474592807578"/><polygon points="181.25445485713934 53.08954450453671 202.74554514286066 53.62589178369208 205.51636927775462 74.37410821630792 178.48363072224538 74.9104554954633"/><polygon points="227.2540775956815 50.684804325080734 242.0792557376518 52.46452080354254 249.2890702150973 75.53547919645746 220.04426311823602 77.31519567491927"/><polygon points="280.8920618325135 52.84427249190699 273.77460483415314 55.324877207107455 300.15254390913924 72.67512279289255 254.5141227575274 75.15572750809301"/><polygon points="299.0538812032264 53.186937726746265 340.9461187967735 53.73721771303934 317.6969234469407 74.26278228696066 322.3030765530592 74.81306227325373"/><polygon points="348.3663540233413 52.83128269194184 376.966979309992 53.639260621696096 355.00852520961155 74.3607393783039 370.3248081237217 75.16871730805816"/><polygon points="378.37052193448676 52.13846898355143 432.29614473217987 55.74538968930159 431.21881529535807 72.25461031069841 379.44785137130856 75.86153101644858"/><polygon points="412.44880316716115 54.20585207807281 483.55119683283874 51.150911190317046 460.00148742933584 76.84908880968295 435.99851257066405 73.79414792192719"/><polygon points="502.75055828022005 51.27837366149748 478.5827750531132 52.33499917918901 506.0494432949615 75.66500082081099 475.28389003837174 76.72162633850252"/><polygon points="10.666666666666666 92.71236085283022 32 98.90810110170608 32 114.42523223162723 10.666666666666666 120.6209724805031"/><polygon points="53.877632401339284 98.72144650783787 74.12236759866072 91.38379573273791 72.36425863218902 121.9495376005954 55.63574136781097 114.61188682549545"/><polygon points="98.15130398709792 98.81941652914439 115.1820293462354 93.3195671492974 120.9550497078654 120.01376618403592 92.37828362546792 114.51391680418892"/><polygon points="135.30198801990994 90.73090038719609 163.36467864675674 99.14836249828038 155.113886791827 114.18497083505294 143.55277987483967 122.60243294613723"/><polygon points="189.34221114440516 98.28258719723917 194.65778885559484 91.91135485042855 208.8995453128686 121.42197848290476 175.1004546871314 115.05074613609415"/><polygon points="233.72082443196774 94.87223643254384 235.61250890136557 97.70757746381531 251.6574338902247 115.625755869518 217.67589944310862 118.46109690078947"/><polygon points="276.6561043115357 92.00495691627067 278.0105623551309 95.8511579850544 296.9023469789637 117.48217534827891 257.76431968770294 121.32837641706264"/><polygon points="293.5892939278965 93.48853069478425 346.4107060721034 95.30405463895303 335.21739736127364 118.02927869438028 304.78260263872625 119.84480263854907"/><polygon points="343.3019422746218 93.39562403157353 382.03139105871145 97.39276380256882 356.3705854521646 115.94056953076449 368.96274788116864 119.93770930175978"/><polygon points="417.34023769325063 97.41642121721438 393.326428973416 99.45905874921381 437.0969867465396 113.8742745841195 373.56967992012704 115.91691211611894"/><polygon points="462.03358820423534 96.36113316381481 433.96641179576454 99.21315316209667 474.91187733094193 114.12018017123664 421.08812266905795 116.9722001695185"/><polygon points="469.2621672864138 95.97522467061998 512.0711660469194 95.75258828616853 499.55995158872037 117.58074504716478 481.7733817446129 117.35810866271333"/><polygon points="10.666666666666666 142.63544198716215 32 136.65361866058055 32 162.01304800608614 10.666666666666666 156.03122467950453"/><polygon points="54.3214658266989 142.06431123839687 73.6785341733011 141.8705406294817 73.81172645034404 156.796126037185 54.18827354965596 156.60235542826982"/><polygon points="95.96093927499652 133.25970311846274 117.3723940583368 142.5330174361787 113.52886892786081 156.13364923048798 99.8044644054725 165.40696354820395"/><polygon points="138.67024466354593 134.0328547758719 159.99642200312076 140.2682347511199 163.87803849465573 158.39843191554678 134.78862817201096 164.6338118907948"/><polygon points="183.47490248957223 139.05361911256975 200.52509751042777 140.68079675276917 211.1651178446727 157.98586991389752 172.8348821553273 159.61304755409694"/><polygon points="231.54775189213234 132.24081378222215 237.78558144120097 132.35741945395145 247.8745138998927 166.30924721271523 221.45881943344062 166.42585288444454"/><polygon points="277.9204037372645 133.45675327640427 276.7462629294021 141.5785640810556 292.36525851953076 157.0881025856111 262.3014081471359 165.20991339026241"/><polygon points="295.433606322707 137.60687677940047 344.56639367729287 141.40413222758713 326.4606165688194 157.26253443907956 313.5393834311805 161.05978988726622"/><polygon points="360.77627825143446 137.46166760619946 364.5570550818988 140.50604856252752 387.4720258071259 158.16061810413916 337.8613075262074 161.20499906046723"/><polygon points="377.9536438519724 139.8215951854159 432.7130228146942 132.02229037196292 405.03907742746543 166.64437629470376 405.6275892392012 158.84507148125078"/><polygon points="411.9732936993426 143.05819924955344 484.0267063006573 135.96392144300944 481.31512931434025 162.70274522365725 414.68487068565963 155.60846741711325"/><polygon points="496.02588564753404 144.44733550141572 485.3074476857992 138.5348063911855 494.69551103480364 160.1318602754812 486.6378222985296 154.21933116525096"/><polygon points="10.666666666666666 188.99308624498832 32 172.238167576994 32 211.761832423006 10.666666666666666 195.00691375501168"/><polygon points="52.57345123372486 182.64252669522406 75.42654876627515 174.48112721409905 75.80525168425095 209.51887278590095 52.19474831574906 201.35747330477594"/><polygon points="91.0208529438672 174.34154011182054 122.31248038946612 190.07377467994814 115.72750408413793 193.92622532005186 97.60582924919538 209.65845988817946"/><polygon points="141.43801539825208 190.85316139991608 157.2286512684146 183.94298833353974 160.69870916958806 200.05701166646026 137.96795749707863 193.14683860008392"/><polygon points="188.19939480125169 180.5116379568233 195.80060519874831 186.90433791698715 200.70234628683397 197.09566208301285 183.29765371316603 203.4883620431767"/><polygon points="215.59179838997233 176.90344150135587 253.741534943361 176.93581276900582 244.0663582072373 207.06418723099418 225.266975126096 207.09655849864413"/><polygon points="278.32145984241924 182.38490321836224 276.3452068242474 180.96596818942064 277.6493892159019 203.03403181057936 277.0172774507647 201.61509678163776"/><polygon points="323.1013496775546 175.31990196468047 316.8986503224453 185.69020303117577 334.8091622813459 198.30979696882423 305.190837718654 208.68009803531953"/><polygon points="358.7796808777365 191.24507119339955 366.55365245559676 177.9579853529443 371.5549223231495 206.0420146470557 353.77841101018373 192.75492880660045"/><polygon points="400.5739023411525 179.41399033895715 410.0927643255141 184.10517121873352 402.46400691687444 199.89482878126648 408.2026597497922 204.58600966104285"/><polygon points="450.2705157056141 177.07189007130435 445.72948429438577 181.7883391080932 470.88867240243394 202.2116608919068 425.11132759756595 206.92810992869565"/><polygon points="452.6240651590953 179.3037081793851 528.709268174238 189.21147237022097 477.2979228746585 194.78852762977903 504.03541045867473 204.6962918206149"/><polygon points="10.666666666666666 214.39248566000705 32 218.11281780215793 32 251.22051553117538 10.666666666666666 254.94084767332626"/><polygon points="51.41871300211602 211.18576877809696 76.58128699788398 224.88428277286098 73.28567257854182 244.44905056047233 54.71432742145818 258.1475645552364"/><polygon points="98.46897753805037 227.8314933572379 114.86435579528295 214.09962102405342 113.96111224714716 255.2337123092799 99.37222108618616 241.50183997609543"/><polygon points="131.6173483470068 226.20704628703808 167.04931831965987 236.89972318989894 161.63266754228445 232.43361014343438 137.03399912438223 243.12628704629523"/><polygon points="171.33924251936998 230.93467201464435 212.66075748063002 222.7478432170548 208.53736381675785 246.58549011627852 175.46263618324215 238.39866131868897"/><polygon points="211.77211587776063 212.41692419931894 257.56121745557266 212.0300240739091 253.050163312139 257.3033092594242 216.2831700211943 256.9164091340144"/><polygon points="263.4611550765811 234.41228464147412 291.2055115900855 213.90118883106723 294.3296784021247 255.43214450226608 260.3369882645419 234.9210486918592"/><polygon points="300.2147181980999 212.54178523594493 339.7852818019 226.36937310421848 318.9495381765618 242.96396022911483 321.05046182343807 256.7915480973884"/><polygon points="347.9975490789276 233.78203511073696 377.33578425440567 235.873115601935 391.3058996549739 233.4602177313983 334.02743367835933 235.55129822259636"/><polygon points="416.7560015148514 237.33085054909887 393.91066515181524 235.28171149022265 415.77416490737437 234.05162184311067 394.89250175929226 232.00248278423445"/><polygon points="413.36140302789534 224.39783601277676 482.63859697210455 229.5770771479703 435.24316980157175 239.75625618536301 460.75683019842813 244.93549732055655"/><polygon points="500.7129490246322 226.77627613777602 480.62038430870103 226.3346339604885 509.7485356761676 242.9986993728448 471.58479765716567 242.5570571955573"/><polygon points="10.666666666666666 281.10820296273596 32 278.13743960015233 32 276.5292270665143 10.666666666666666 273.55846370393067"/><polygon points="52.421547520819 280.21496603312585 75.57845247918101 252.38575570724643 77.31226493577634 302.2809109594202 50.68773506422365 274.4517006335408"/><polygon points="100.90171047746958 278.04487916902434 112.43162285586374 270.5864416086304 120.03629802907828 284.0802250580362 93.29703530425503 276.6217874976423"/><polygon points="142.89947838405666 261.85333133156945 155.76718828261002 280.2545827924633 166.33636569715958 274.41208387420335 132.3303009695071 292.8133353350972"/><polygon points="191.05049898915533 255.1715007844286 192.94950101084467 275.48751791023255 195.25537355252618 279.1791487564341 188.74462644747382 299.49516588223804"/><polygon points="224.68225096847382 264.0047677357546 244.6510823648595 260.22050166231566 241.610775913842 294.446165004351 227.72255741949132 290.661898930912"/><polygon points="268.70500627572784 262.0729110507531 285.9616603909388 261.4317956840819 302.55706375355714 293.2348709825847 252.10960291310948 292.59375561591355"/><polygon points="327.6653444789743 254.94511491404023 312.3346555210256 276.38684240360294 337.6036498170811 278.2798242630637 302.3963501829188 299.7215517526264"/><polygon points="346.62645853419696 265.1629545187836 378.7068747991363 257.6295868384173 352.90274638564733 297.0370798282493 372.4305869476859 289.50371214788305"/><polygon points="392.5799665699392 273.5480484824195 418.08670009672744 274.475187071259 401.6287609459204 280.19147959540766 409.0379057207462 281.1186181842471"/><polygon points="434.291214081584 257.16647207135486 461.7087859184159 252.5579827747005 480.4053654164395 302.1086838919661 415.5946345835604 297.50019459531177"/><polygon points="455.8630533909773 254.7248149610426 525.4702799423559 270.18577805509204 511.4729554848114 284.4808886115746 469.86037784852186 299.941851705624"/><polygon points="10.666666666666666 320.47780152305234 32 323.7397419047623 32 316.2602580952376 10.666666666666666 319.52219847694755"/><polygon points="53.47879004703768 296.7734744567288 74.52120995296232 313.03099823094766 72.13473870710683 326.9690017690522 55.865261292893166 343.22652554327107"/><polygon points="94.24845912625824 319.6563868740542 119.08487420707507 304.184699252626 112.12771296592418 335.8153007473739 101.20562036740914 320.3436131259457"/><polygon points="131.69422725970583 307.1289403561967 166.97243940696086 295.82142700870224 160.951745865192 344.17857299129764 137.71492080147468 332.87105964380316"/><polygon points="189.0681573480152 308.5540877280771 194.9318426519848 326.9489901168947 192.1332159824706 313.05100988310517 191.8667840175294 331.4459122719228"/><polygon points="218.56668632079857 302.33951899810916 250.76664701253475 315.5466705044147 256.698489392504 324.4533294955852 212.63484394082937 337.66048100189073"/><polygon points="273.14188656755834 292.0583766054403 281.5247800991083 298.908566555258 281.3045194173298 341.0914334447419 273.36214724933683 347.9416233945596"/><polygon points="325.3359531680701 308.7917751526737 314.6640468319298 294.84452365511606 326.83430460604046 345.1554763448838 313.1656953939594 331.20822484732616"/><polygon points="331.5297318261939 315.1093878411394 393.8036015071394 312.93286167465243 362.9059900412542 327.06713832534746 362.42734329207906 324.8906121588605"/><polygon points="373.76470370237416 318.84352111767475 436.90196296429247 314.3030957392031 419.2072539477299 325.69690426079677 391.45941271893673 321.15647888232513"/><polygon points="444.5639802979286 323.42182167766714 451.4360197020713 327.8927931944509 454.60194470582246 312.10720680554897 441.3980552941774 316.57817832233275"/><polygon points="474.9460806677603 305.44789929046556 506.38725266557293 316.40563469783245 506.0199664865477 323.59436530216743 475.3133668467856 334.55210070953433"/><polygon points="10.666666666666666 347.2896094334151 32 362.7523447639528 32 362.58098856938045 10.666666666666666 378.0437238999182"/><polygon points="53.39735738307624 351.49474206372247 74.60264261692376 372.10595999976374 76.97427563158573 353.2273733335695 51.02572436841427 373.8385912696108"/><polygon points="99.66475962806516 339.17809097523747 113.66857370526816 341.38722556626004 113.68116226165098 383.9461077670732 99.65217107168233 386.1552423580958"/><polygon points="136.64093039721033 362.3339316401562 162.02573626945636 369.82482716925733 155.35637059917642 355.5085061640759 143.31029606749027 362.99940169317705"/><polygon points="181.29372246287457 372.24977835107643 202.70627753712543 371.28077587669765 197.1434878831667 354.0525574566356 186.8565121168333 353.0835549822568"/><polygon points="225.82818294059427 355.08948232070185 243.50515039273904 371.33947589062143 237.46557495359352 353.9938574427118 231.8677583797398 370.2438510126314"/><polygon points="254.28586885550064 346.89162972854206 300.38079781116596 367.2948544684904 303.27496158509405 358.03847886484283 251.39170508157255 378.4417036047912"/><polygon points="308.9729496462044 341.67400559353604 331.02705035379546 336.34706601437097 327.68965740182364 388.9862673189623 312.31034259817625 383.6593277397972"/><polygon points="368.78341330711646 344.24653418583665 356.5499200262168 338.3601481547868 373.7577474764752 386.97318517854643 351.5755858568581 381.0867991474966"/><polygon points="396.24598484420045 347.04189944309564 414.4206818224662 373.06603467052275 419.38684160043886 352.2672986628105 391.2798250662278 378.2914338902376"/><polygon points="448.0262929809445 343.8322856383302 447.9737070190554 332.40153535754695 467.663943849723 392.9317979757863 428.3360561502769 381.5010476950031"/><polygon points="496.68700629094405 355.32091938119595 484.6463270423892 361.93040501051746 517.5994712699112 363.4029283228158 463.73386206342207 370.0124139521373"/><polygon points="10.666666666666666 378.04254084808514 32 415.0882020263657 32 395.5784646403009 10.666666666666666 432.6241258185815"/><polygon points="55.11821558310107 404.7949943773974 72.88178441689892 383.16080584468193 72.66156926853259 427.5058608219847 55.33843073146741 405.8716722892692"/><polygon points="98.39063276840082 401.92761312259734 114.9427005649325 417.3278410617279 114.8134638004314 393.33882560493873 98.51986953290191 408.7390535440693"/><polygon points="138.57206642767622 395.87225597915244 160.09460023899047 375.64444129656016 156.50168931542737 435.02222537010647 142.16497735123932 414.7944106875142"/><polygon points="183.76822201670592 405.8216935072146 200.23177798329408 376.01412522849864 197.85281213568607 434.652541438168 186.14718786431393 404.844973159452"/><polygon points="213.17138334727437 397.3824214205844 256.16194998605897 395.5195701262765 241.56449764011887 415.1470965403901 227.76883569321444 413.2842452460822"/><polygon points="271.8570983977295 371.3453996261784 282.80956826893714 397.5110144859279 295.51290544882255 413.15565218073874 259.1537612178441 439.32126704048824"/><polygon points="308.9817840889541 407.02411829933624 331.0182159110458 379.0409819945265 339.8728275884763 431.62568467214015 300.1271724115236 403.6425483673304"/><polygon points="349.29551195503416 371.54312548483404 376.0378213782991 402.18768327078266 382.955967323634 408.478983395884 342.37736600969924 439.1235411818326"/><polygon points="398.87796352679925 393.01718557920174 411.7887031398674 382.10430550106565 438.23381667934996 428.562361165601 372.4328499873167 417.6494810874649"/><polygon points="415.6918702041096 389.09525522115746 480.3081297958903 393.7942523380563 454.76940721056985 416.8724143286103 441.23059278943003 421.57141144550917"/><polygon points="454.7917994339319 375.4252770394929 526.5415338994013 410.46694943939576 515.9871646618205 400.19971722727087 465.3461686715127 435.2413896271737"/><polygon points="10.666666666666666 451.7629136111403 32 414.0772251187651 32 481.9227748812348 10.666666666666666 444.2370863888596"/><polygon points="54.53710494805838 462.7866104570512 73.46289505194162 434.07546294777086 73.29306697343037 461.924537052229 54.70693302656962 433.2133895429487"/><polygon points="99.77747652483667 451.6039659616071 113.55585680849664 410.88283604153617 119.75989105761694 485.1171639584637 93.57344227571637 444.39603403839277"/><polygon points="134.11174351847222 433.1626444937948 164.55492314819446 452.53530750822375 161.40850217957833 443.46469249177613 137.25816448708835 462.8373555062051"/><polygon points="176.96353381877043 427.747748199644 207.03646618122957 435.21826814738534 210.0840295497687 460.78173185261454 173.9159704502313 468.2522518003559"/><polygon points="227.75820466864715 441.72522143646233 241.57512866468616 438.98666564579963 238.9788438578335 457.01333435420025 230.3544894754998 454.27477856353755"/><polygon points="271.92779629888054 424.4964156845374 282.7388703677861 413.88782407923827 302.4154525468542 482.1121759207616 252.25121411981243 471.5035843154625"/><polygon points="295.46043520448376 459.8943352075905 344.5395647955161 410.982784352071 314.54313727538505 485.0172156479289 325.45686272461484 436.1056647924094"/><polygon points="356.20071137447997 455.4399166491702 369.1326219588533 437.76738338410865 373.4149262036177 458.23261661589123 351.91840712971555 440.5600833508297"/><polygon points="416.3556699754838 434.88267657959113 394.3109966911828 413.06013257482414 398.44606007507787 482.93986742517575 412.22060659158876 461.11732342040875"/><polygon points="430.9398607729051 420.2575675108494 465.0601392270948 441.45391932458676 452.1816634238041 454.5460806754131 443.8183365761958 475.7424324891505"/><polygon points="476.14691434703866 440.39404580868893 505.1864189862946 457.31000323037057 520.4295242197968 438.6899967696293 460.90380911353645 455.60595419131096"/><polygon points="10.666666666666666 464.4303002363838 32 495.0614382463308 32 486.27189508700246 10.666666666666666 516.9030330969495"/><polygon points="55.80961910468157 493.82674470330005 72.19038089531843 486.80904236527095 72.03574644337913 494.5242909680623 55.964253556620875 487.5065886300332"/><polygon points="96.38042566613959 500.60202460455605 116.95290766719373 472.66590145300415 121.85872743704 508.6674318803291 91.47460589629331 480.7313087287772"/><polygon points="138.0132418753566 469.91914585999535 160.65342479131007 483.22025802184083 155.04326260999213 498.1130753114924 143.62340405667456 511.4141874733379"/><polygon points="173.11632883699681 492.6241903737642 210.88367116300319 501.2458228770256 200.89320056407183 480.08751045630765 183.10679943592817 488.7091429595691"/><polygon points="232.78347910552412 482.96018261850014 236.5498542278092 492.2001976988873 249.55601227521302 489.133135634446 219.7773210581203 498.3731507148331"/><polygon points="256.78252216163696 469.88483060050464 297.88414450502967 479.1279394320575 297.8687808179731 502.2053939012758 256.7978858486935 511.4485027328286"/><polygon points="303.61075503124863 461.8214288554941 336.38924496875126 465.13348779098135 330.4625546950965 516.1998455423519 309.5374453049034 519.5119044778392"/><polygon points="339.7690355153702 500.26558304848544 385.56429781796305 450.7110806711841 373.4881918851682 530.6222526621491 351.84514144816507 481.0677502848478"/><polygon points="394.5775114839976 453.2728392432092 416.089155182669 490.7420277502076 413.39670959341015 490.59130558312563 397.2699570732565 528.060494090124"/><polygon points="448.55344257011535 450.8896027900164 447.44655742988454 493.7596467487186 465.70962490863906 487.5736865846147 430.29037509136083 530.4437305433169"/><polygon points="478.83465167131163 463.5618374772672 502.4986816620216 458.66196110708916 509.6577866396189 522.6713722262441 471.67554669371435 517.771495856066"/>
</svg>
