<?xml version="1.0" encoding="UTF-8"?>
<svg xmlns="http://www.w3.org/2000/svg" id="RSSicon" viewBox="0 0 512 512" width="512" height="512">
  <defs>
    <style type="text/css">
      svg {
        background: black;
        margin: calc(50vh - 256px) auto 0;
      }
      
      polygon {stroke: darkorange; fill: none;}
    </style>
  </defs>
  <polygon points="10.666666666666666 10.666666666666666 32 10.666666666666666 32 32 10.666666666666666 32"/><polygon points="50.98565629583425 10.666666666666666 77.01434370416575 10.666666666666666 75.87538359246592 32 52.124616407534084 32"/><polygon points="92.84044670198787 10.666666666666666 120.49288663134544 10.666666666666666 115.71366303257929 32 97.61967030075402 32"/><polygon points="136.63148493250756 10.666666666666666 162.03518173415912 10.666666666666666 164.64343548439288 32 134.0232311822738 32"/><polygon points="182.74229621853075 10.666666666666666 201.25770378146925 10.666666666666666 210.35571283403166 32 173.64428716596834 32"/><polygon points="213.06769430607153 10.666666666666666 256.2656390272618 10.666666666666666 242.43231458944246 32 226.90101874389086 32"/><polygon points="271.06117670906997 10.666666666666666 283.60548995759666 10.666666666666666 288.63373717443415 32 266.0329294922325 32"/><polygon points="325.13127506509454 10.666666666666666 314.86872493490534 10.666666666666666 333.310495236719 32 306.68950476328087 32"/><polygon points="359.12822764486106 10.666666666666666 366.2051056884722 10.666666666666666 367.7235559062133 32 357.60977742712 32"/><polygon points="403.34515002377515 10.666666666666666 407.3215166428915 10.666666666666666 410.54474536348886 32 400.12192130317777 32"/><polygon points="432.36113589616957 10.666666666666666 463.6388641038303 10.666666666666666 471.44601358198264 32 424.55398641801725 32"/><polygon points="482.87117610975065 10.666666666666666 498.4621572235826 10.666666666666666 496.1785898034311 32 485.15474352990213 32"/><polygon points="10.666666666666666 55.746062885000114 32 55.5196191093131 32 72.4803808906869 10.666666666666666 72.25393711499989"/><polygon points="53.38031149248003 53.8779665246071 74.61968850751997 51.36785363900213 77.21993566284719 76.63214636099788 50.780064337152815 74.1220334753929"/><polygon points="100.03694250302051 52.06847477459684 113.2963908303128 50.73641994651852 116.39973460663775 77.26358005348149 96.93359872669556 75.93152522540316"/><polygon points="135.39445343548908 52.032067004494714 163.2722132311776 53.03130066853913 159.88579264292554 74.96869933146087 138.78087402374115 75.9679329955053"/><polygon points="172.99173207789465 50.97487538227838 211.00826792210535 53.10509492339787 202.8101185618229 74.89490507660213 181.1898814381771 77.02512461772163"/><polygon points="224.01160476748288 52.28642573122303 245.32172856585044 53.90089973144178 256.1839191011537 74.09910026855822 213.14941423217957 75.71357426877698"/><polygon points="262.39118379045897 50.991553488942714 292.27548287620766 53.73071488854224 280.8765452700302 74.26928511145776 273.79012139663644 77.00844651105729"/><polygon points="326.33815899540986 52.35500921436742 313.66184100459003 52.92533900836557 336.9923835808485 75.07466099163443 303.00761641915136 75.64499078563259"/><polygon points="363.90243529520876 50.694207932359106 361.4308980381245 55.08564549115505 378.50308913462595 72.91435450884495 346.8302441987073 77.3057920676409"/><polygon points="387.6201784683544 55.065340273916306 423.0464881983122 51.19895651830238 427.76853304074785 76.80104348169762 382.8981336259188 72.9346597260837"/><polygon points="423.35747395838087 55.97426850509195 472.642526041619 55.84681384731424 484.18237063075395 72.15318615268576 411.81762936924594 72.02573149490806"/><polygon points="458.6209618932402 52.37329708532054 522.7123714400931 52.40250002990142 483.8852041701508 75.59749997009858 497.44812916318244 75.62670291467947"/><polygon points="10.666666666666666 98.93826115519417 32 99.7076638997084 32 113.62566943362492 10.666666666666666 114.39507217813915"/><polygon points="53.83307192798489 100.74112033251217 74.16692807201511 93.74267377590695 72.90893828267885 119.59065955742636 55.09106171732115 112.59221300082115"/><polygon points="94.56182575706276 101.29885472615364 118.77150757627055 93.74877487304589 120.51926476822696 119.58455846028743 92.81406856510635 112.03447860717968"/><polygon points="132.34811155440315 99.86781509617816 166.31855511226354 96.78629886782821 154.41633773309457 116.5470344655051 144.25032893357212 113.46551823715515"/><polygon points="183.53150894156312 95.97962883730088 200.46849105843688 97.45935144582681 203.8662781271213 115.8739818875065 180.1337218728787 117.35370449603244"/><polygon points="227.44721301823745 99.05833663279108 241.88612031509587 96.8186591785151 242.34827246206595 116.51467415481821 226.98506087126736 114.27499670054223"/><polygon points="259.8149030327909 98.50896504888507 294.85176363387575 98.04956599734734 298.34627801084577 115.28376733598597 256.32038865582086 114.82436828444824"/><polygon points="299.3931176439817 95.92934157784197 340.60688235601816 97.98109845668063 315.2872417904117 115.35223487665269 324.7127582095882 117.40399175549135"/><polygon points="366.9988282323433 100.37333885083817 358.33450510098993 98.6925488471357 363.4550346869553 114.64078448619762 361.87829864637797 112.95999448249515"/><polygon points="390.3528681900808 98.19190230458048 420.3137984765858 96.19086029256835 412.19176512582453 117.14247304076497 398.4749015408421 115.14143102875283"/><polygon points="436.81936917021056 96.30884614814126 459.1806308297893 94.87022812828634 439.3180379906651 118.46310520504697 456.68196200933477 117.02448718519206"/><polygon points="451.34248544504317 100.92862010175054 529.9908478882901 94.39723226610434 500.04442859551784 118.93610106722898 481.2889047378154 112.40471323158278"/><polygon points="10.666666666666666 130.88705045899232 32 136.04062860719745 32 162.62603805946924 10.666666666666666 167.77961620767437"/><polygon points="50.99111290291968 140.82428036822628 77.00888709708032 137.74815082367945 72.13245561544885 160.91851584298723 55.86754438455115 157.8423862984404"/><polygon points="98.93738086317171 144.3881278191435 114.3959524701616 138.52971611995628 113.39555261800393 160.1369505467104 99.93778071532938 154.27853884752318"/><polygon points="131.57651522073672 133.40229926892835 167.09015144592996 146.6036096648872 165.17089456274547 152.0630570017795 133.4957721039212 165.26436739773834"/><polygon points="183.67780637352593 142.22026669494642 200.32219362647407 133.9151273507274 202.69748088372216 164.75153931593928 181.30251911627784 156.44639997172027"/><polygon points="228.51003997368966 143.56469473434188 240.82329335964366 132.56972352998065 253.6283628680387 166.09694313668604 215.70497046529462 155.1019719323248"/><polygon points="278.9179705209755 132.2296890823476 275.74869614569116 145.63425237412176 291.3486876754853 153.03241429254493 263.31797899118135 166.4369775843191"/><polygon points="292.16994762423894 132.38759675676113 347.83005237576094 141.9913417287878 327.81127639548515 156.67532493787888 312.18872360451473 166.27906990990556"/><polygon points="366.56145195133337 132.9037124438566 358.7718813819999 130.72815020504532 385.35055153681947 167.93851646162136 339.9827817965138 165.7629542228101"/><polygon points="389.84840829155286 131.19769433230618 420.81825837511377 135.13708432666078 435.04233100429434 163.5295823400059 375.6243356623723 167.4689723343605"/><polygon points="438.70360347127286 146.23188124188817 457.29639652872703 146.41151012684824 443.04707181702935 152.25515653981844 452.95292818297054 152.4347854247785"/><polygon points="493.0257523344914 142.00127848784825 488.30758099884184 134.6374066714092 479.51164369343917 164.0292599952575 501.8216896398941 156.66538817881843"/><polygon points="10.666666666666666 187.1256515582591 32 180.7374624083697 32 203.2625375916303 10.666666666666666 196.8743484417409"/><polygon points="54.06292621842533 172.12968645812492 73.93707378157467 178.512422413276 72.0266365701906 205.487577586724 55.973363429809396 211.87031354187508"/><polygon points="100.79774008061888 183.7950927469903 112.53559325271443 189.82793071879576 113.19162806974762 194.17206928120424 100.14170526358569 200.2049072530097"/><polygon points="145.41424038136373 179.73840684463315 153.25242628530296 188.0182682611714 153.77989503230103 195.9817317388286 144.88677163436566 204.26159315536685"/><polygon points="189.58901676213495 173.43000048404863 194.41098323786505 177.39757300052395 205.22406352100614 206.60242699947605 178.77593647899386 210.56999951595137"/><polygon points="211.7750785547395 180.85300223393781 257.5582547785938 185.64353264793596 242.32218321612473 198.35646735206404 227.0111501172086 203.14699776606219"/><polygon points="263.83868004167306 171.3563965421664 290.82798662499357 180.30998985694868 287.59140821718523 203.69001014305132 267.0752584494814 212.6436034578336"/><polygon points="305.66292705907904 189.3359984297885 334.33707294092085 173.8622665360714 340.89463219783346 210.1377334639286 299.1053678021664 194.6640015702115"/><polygon points="360.354139598286 188.97224505672088 364.97919373504726 190.1017936389476 359.72436666347903 193.8982063610524 365.6089666698542 195.02775494327912"/><polygon points="381.86552881283205 182.3939828695975 428.8011378538346 181.3272233899803 413.8189492978294 202.6727766100197 396.8477173688372 201.6060171304025"/><polygon points="450.13857451162096 171.58573350919818 445.8614254883789 173.8211662382689 453.0887579939835 210.1788337617311 442.9112420060164 212.41426649080182"/><polygon points="464.0682555719956 191.0245384764558 517.2650777613377 189.1192984616004 517.490240970315 194.8807015383996 463.84309236301834 192.9754615235442"/><polygon points="10.666666666666666 234.41972300522573 32 224.2074008650452 32 245.1259324682881 10.666666666666666 234.91361032810758"/><polygon points="53.82114845717857 228.28534745802926 74.17885154282143 211.10917391244632 76.93042235294669 258.224159420887 51.06957764705331 241.04798587530405"/><polygon points="98.18549555095507 232.89041072482328 115.14783778237825 234.4890494928611 118.29449314565794 234.8442838404722 95.03884018767538 236.44292260851003"/><polygon points="144.93778751321537 217.92057186944905 153.72887915345132 236.50946976027657 162.97480403204608 232.82386357305674 135.6918626346206 251.41276146388427"/><polygon points="177.61599726557657 215.31850093424242 206.38400273442343 237.1102701326384 198.40979563347193 232.22306320069492 185.59020436652807 254.0148323990909"/><polygon points="219.9210907183471 221.2120340688695 249.4122426149862 220.9060109824382 253.52606630453127 248.4273223508951 215.80726702880204 248.1212992644638"/><polygon points="266.98346132459324 211.74596505609043 287.6832053420734 228.4665071488276 302.9633273985275 240.86682618450573 251.70333926813913 257.5873682772429"/><polygon points="323.0663689959204 220.63285627221086 316.9336310040795 214.86901635323738 326.0479222456482 254.46431698009593 313.9520777543517 248.70047706112246"/><polygon points="361.22524008449363 221.34446835470212 364.1080932488396 224.13973665272562 362.9231290880701 245.1935966806077 362.4102042452632 247.9888649786312"/><polygon points="373.08687580145124 213.8183650274505 437.5797908652154 237.03042690681312 439.2947746198176 232.3029064265202 371.37189204684904 255.5149683058828"/><polygon points="445.6640812447562 220.73728379454292 450.3359187552437 215.42273570986882 446.64528722350076 253.9105976234645 449.3547127764991 248.5960495387904"/><polygon points="490.98954618792027 216.71659126237785 490.343787145413 234.89650978558635 514.7669226588075 234.43682354774697 466.5664106745258 252.61674207095547"/><polygon points="10.666666666666666 254.52251524908172 32 276.4536216249677 32 278.21304504169893 10.666666666666666 300.1441514175849"/><polygon points="55.02459417457999 261.68998315866367 72.97540582542001 275.6207388018221 72.86162098336277 279.04592786484454 55.138379016637224 292.97668350800296"/><polygon points="96.03972189597118 257.10287902988364 117.29361143736213 257.7911072939287 119.05692686056696 296.87555937273794 94.27640647276635 297.563787636783"/><polygon points="135.69686045860925 273.4747296812906 162.96980620805743 269.1745864495043 164.1387846783401 285.4920802171623 134.52788198832658 281.191936985376"/><polygon points="190.91450845383162 271.3083436259833 193.08549154616838 263.8964565195666 196.41400499317874 290.77021014710004 187.58599500682126 283.35832304068333"/><polygon points="234.5747263549989 268.52493925728805 234.75860697833443 260.92491984512196 249.32950147265655 293.74174682154467 220.00383186067677 286.1417274093786"/><polygon points="260.78975686399525 260.4025305767225 293.8769098026714 275.2111098548896 282.51788125942824 279.455556811777 272.1487854072384 294.26413608994415"/><polygon points="302.0790557372151 276.2379338921604 337.92094426278476 267.11159628252085 314.6189365536468 287.5550703841458 325.3810634463531 278.4287327745062"/><polygon points="369.1240821526693 256.4764631683099 356.20925118066395 253.8083965567154 369.8835227397559 300.8582701099512 355.44981059357735 298.1902034983567"/><polygon points="388.11500316252307 276.46287615764334 422.55166350414356 257.9380379602053 407.130283919316 296.72862870646134 403.5363827473506 278.2037905090233"/><polygon points="427.6831078127692 265.21409908785506 468.3168921872307 258.303916983463 481.66143795783967 296.3627496832036 414.3385620421602 289.45256757881157"/><polygon points="459.0849122010842 269.38795934725385 522.2484211322491 257.42421894953833 506.1834459693122 297.2424477171283 475.1498873640211 285.2787073194128"/><polygon points="10.666666666666666 311.9725734998757 32 299.78668365217266 32 340.21331634782723 10.666666666666666 328.0274265001242"/><polygon points="52.91807244192053 305.34727953714855 75.08192755807947 325.2541668506064 72.66308917461765 314.7458331493935 55.33691082538235 334.65272046285133"/><polygon points="94.42568885891032 326.29807080573863 118.907644474423 313.48544075228676 119.71824403292939 326.5145592477131 93.61508930040392 313.70192919426125"/><polygon points="138.30703537057218 327.07687751328086 160.3596312960945 299.8594719707778 154.6427205343973 340.1405280292221 144.02394613226937 312.923122486719"/><polygon points="189.39083872296638 297.6129535453018 194.60916127703362 321.01369256635155 205.87073367227254 318.98630743364834 178.12926632772746 342.38704645469807"/><polygon points="227.410037869754 315.2166493302735 241.9232954635793 322.2787168013536 248.00485664242768 317.7212831986463 221.32847669090563 324.78335066972636"/><polygon points="253.4865887572713 320.19317697894655 301.1800779093953 316.97734772593225 279.15018424085446 323.02265227406764 275.51648242581217 319.80682302105333"/><polygon points="316.16578103968084 324.1966641630454 323.83421896031905 319.4233969199517 339.1699228942591 320.5766030800482 300.83007710574077 315.8033358369545"/><polygon points="359.25513798051867 307.53437410745386 366.0781953528146 313.56439740288056 363.9122396971959 326.4356025971193 361.42109363613736 332.46562589254603"/><polygon points="394.40699081589435 294.35155732429183 416.2596758507723 298.9118539025036 437.9758696018547 341.0881460974963 372.69079706481193 345.64844267570805"/><polygon points="431.75540251241375 296.3959588130833 464.24459748758613 320.16631211321834 437.5855309257634 319.83368788678155 458.4144690742365 343.60404118691656"/><polygon points="477.8446063117713 316.3928898797506 503.48872702156194 291.8447420649892 485.8003049061498 348.1552579350107 495.53302842718347 323.6071101202493"/><polygon points="10.666666666666666 336.3919997042714 32 353.2620499936294 32 372.0712833397039 10.666666666666666 388.94133362906183"/><polygon points="54.265745596519984 344.7912572209953 73.73425440348002 349.09705556034504 72.74164254442515 376.2362777729882 55.25835745557485 380.54207611233795"/><polygon points="98.13720449667538 331.688104549999 115.19612883665793 341.56456697316077 121.10779754313063 383.7687663601725 92.22553579020268 393.64522878333423"/><polygon points="137.938488764023 343.2338943156327 160.7281779026437 332.787981678442 155.52219396378035 392.54535165489125 143.14447270288633 382.09943901770055"/><polygon points="175.02346292476534 352.1847469391935 208.97653707523466 357.1594962573902 210.45163830342108 368.1738370759431 173.54836169657892 373.1485863941398"/><polygon points="210.71532864486608 359.32931624810345 258.61800468846724 357.7007781494478 242.1134102865583 367.6325551838855 227.21992304677502 366.0040170852298"/><polygon points="277.5702575232375 357.946135652839 277.0964091434291 336.8824186094988 302.9755955241819 388.45091472383444 251.6910711424847 367.38719768049424"/><polygon points="312.9720312525126 363.7364730005678 327.0279687474873 370.975150857963 339.703517417261 354.35818247537026 300.29648258273886 361.59686033276546"/><polygon points="337.9188160960487 331.9155368237381 387.41451723728454 350.2650652066427 372.9553187941414 375.06826812669055 352.37801453919184 393.4177965095952"/><polygon points="398.04787736315853 369.483627626823 412.6187893035081 333.15244915863775 422.1059371194199 392.1808841746955 388.56072954724675 355.84970570651024"/><polygon points="428.03003699740475 349.4759428781374 467.96996300259514 360.72098967559725 454.8968512612872 364.612343657736 441.10314873871266 375.85739045519585"/><polygon points="473.6387455341898 368.9173289524995 507.69458779914345 362.91766390037986 518.6547420416538 362.4156694329534 462.67859129167954 356.4160043808338"/><polygon points="10.666666666666666 385.80988533207557 32 386.4887746992417 32 424.17789196742496 10.666666666666666 424.85678133459106"/><polygon points="55.39131258132674 384.39565148991124 72.60868741867327 417.5970140627634 76.75206331390527 393.06965260390325 51.24793668609473 426.2710151767554"/><polygon points="99.31165591300582 414.9866521480098 114.02167742032749 386.3659382081339 115.53095536142364 424.3007284585327 97.80237797190968 395.68001451865683"/><polygon points="142.4835693481832 389.65099901039326 156.18309731848348 382.6031884681528 164.25428220804676 428.06347819851385 134.41238445861993 421.01566765627337"/><polygon points="182.42401513774288 372.3744211812158 201.57598486225712 383.2622099396001 193.23197820556945 427.40445672706653 190.76802179443055 438.29224548545085"/><polygon points="233.01240791654882 375.55306819290087 236.3209254167845 409.50297917016746 249.03762510193454 401.16368749649916 220.29570823139878 435.11359847376576"/><polygon points="277.6481282593017 390.2943337435045 277.01853840736493 386.849735801573 290.0003898062763 423.81693086509364 264.6662768603903 420.3723329231621"/><polygon points="308.41485770569125 372.952750688374 331.58514229430864 406.6218672157593 347.94048665852955 404.0447994509073 292.05951334147034 437.7139159782926"/><polygon points="338.00550131561596 371.56986637904305 387.3278320177173 375.2292951824217 384.5250443616907 435.4373714842449 340.8082889716426 439.0968002876236"/><polygon points="390.52030227804005 388.4874417896422 420.1463643886266 387.9994599455943 431.0215086107668 422.6672067210723 379.64515805589986 422.1792248770244"/><polygon points="450.12706380542096 397.8920605616825 445.8729361945789 412.6391187831632 437.332058016531 398.0275478835034 458.6679419834689 412.7746061049841"/><polygon points="500.89658211745984 404.6312187522167 480.4367512158734 386.75296679352317 511.39848868207724 423.91369987314346 469.934844651256 406.03544791444995"/><polygon points="10.666666666666666 418.73594392400616 32 411.26442558476157 32 484.7355744152383 10.666666666666666 477.2640560759937"/><polygon points="53.82836145240859 444.5285404022362 74.17163854759141 436.7274351342995 73.75984025299779 459.27256486570036 54.24015974700221 451.47145959776367"/><polygon points="92.36568704415801 452.5920690726178 120.9676462891753 450.27988204438753 117.45555418275192 445.72011795561235 95.87777915058139 443.4079309273821"/><polygon points="137.42414477842266 431.33585797368994 161.24252188824403 451.9630354772796 159.25718017823277 444.03696452272027 139.4094864884339 464.66414202630995"/><polygon points="185.60882821260418 462.7453940647318 198.39117178739582 452.3605578744617 208.24662916119854 443.6394421255382 175.75337083880146 433.2546059352681"/><polygon points="214.86701032364087 457.0981206565289 254.46632300969245 437.1466146168572 257.13912528567334 458.85338538314267 212.19420804765997 438.90187934347097"/><polygon points="271.42471126161547 447.7429708488611 283.24195540505116 410.86801676303105 272.93016004714826 485.13198323696884 281.73650661951837 448.2570291511388"/><polygon points="304.4922374461384 444.3961308762559 335.5077625538615 430.82446796202925 340.25421696424405 465.17553203797064 299.74578303575584 451.603869123744"/><polygon points="361.3398991930592 411.05646418242617 363.9934341402741 446.7065735773198 368.6678002244683 449.2934264226801 356.66553310886496 484.9435358175737"/><polygon points="379.0459626349161 449.8249679138582 431.6207040317505 448.11545631556004 426.7134505152427 447.88454368443985 383.95321615142393 446.1750320861417"/><polygon points="450.40227187802225 413.47418848711493 445.59772812197764 448.6350865336166 450.2680059578579 447.3649134663833 445.731994042142 482.52581151288496"/><polygon points="473.2893812589356 448.8059806128505 508.0439520743977 449.9175611725736 475.7336778669639 446.0824388274263 505.59965546636937 447.1940193871494"/><polygon points="10.666666666666666 479.9139091583236 32 459.0417692871811 32 522.2915640461522 10.666666666666666 501.4194241750097"/><polygon points="52.82200954402788 507.9283218369612 75.17799045597212 491.24263797995036 74.91895998198267 490.0906953533829 53.08104001801733 473.4050114963721"/><polygon points="95.50642104345627 488.4240806626099 117.82691228987704 506.3313757316563 117.5125800205114 475.00195760167696 95.82075331282192 492.90925267072333"/><polygon points="130.93802620727686 487.4859992344212 167.72864045938982 451.1971932857234 166.14349036448692 530.1361400476098 132.52317630217976 493.8473340989121"/><polygon points="188.6422037314697 487.4300511997158 195.3577962685303 502.25641755683176 196.40376093986347 479.0769157765015 187.59623906013653 493.90328213361744"/><polygon points="215.0901705462291 470.1722315525017 254.2431627871042 458.0815706746163 234.04840159355635 523.251762658717 235.28493173977697 511.16110178083153"/><polygon points="273.6338354105277 484.6034820361903 281.03283125613893 464.2304941465489 302.18543939022277 517.1028391867843 252.48122727644386 496.72985129714294"/><polygon points="308.3042412522047 501.19032596753584 331.6957587477952 484.93486492202294 316.3409036418222 496.3984684113103 323.6590963581777 480.1430073657974"/><polygon points="331.5011314292536 463.6654874337988 393.8322019040797 494.54412450222725 374.0815263145505 486.789208831106 351.25180701878276 517.6678458995344"/><polygon points="373.69981923607105 456.7727450180993 436.9668474305956 457.49673661682857 414.19972126776287 523.8365967165047 396.46694539890376 524.560588315234"/><polygon points="432.7510362846887 478.12737655902976 463.24896371531116 457.1355734909536 474.5536279662868 524.1977598423797 421.4463720337131 503.2059567743035"/><polygon points="463.70799764405376 465.85564003492254 517.6253356892795 464.2510403275396 530.1629554858475 517.0822930057936 451.17037784748567 515.4776932984107"/>
</svg>
