<?xml version="1.0" encoding="UTF-8"?>
<svg xmlns="http://www.w3.org/2000/svg" id="RSSicon" viewBox="0 0 512 512" width="512" height="512">
  <defs>
    <style type="text/css">
      svg {
        background: black;
        margin: calc(50vh - 256px) auto 0;
      }
      
      polygon {stroke: darkorange; fill: none;}
    </style>
  </defs>
  <polygon points="10.666666666666666 10.666666666666666 32 10.666666666666666 32 32 10.666666666666666 32"/><polygon points="54.36743092460483 10.666666666666666 73.63256907539517 10.666666666666666 75.69906283645378 32 52.30093716354622 32"/><polygon points="93.985802898175 10.666666666666666 119.34753043515832 10.666666666666666 113.97973743053697 32 99.35359590279634 32"/><polygon points="132.69926336835465 10.666666666666666 165.96740329831204 10.666666666666666 157.84460172465674 32 140.82206494200994 32"/><polygon points="172.2519630962869 10.666666666666666 211.7480369037131 10.666666666666666 208.0850945320202 32 175.9149054679798 32"/><polygon points="227.69925821062745 10.666666666666666 241.63407512270587 10.666666666666666 254.04205848343545 32 215.29127484989786 32"/><polygon points="255.39567274993334 10.666666666666666 299.2709939167333 10.666666666666666 294.0182903425892 32 260.64837632407745 32"/><polygon points="313.4866934689627 10.666666666666666 326.5133065310372 10.666666666666666 319.95303591841196 32 320.04696408158793 32"/><polygon points="367.9566954981608 10.666666666666666 357.37663783517246 10.666666666666666 362.5992697517172 32 362.73406358161606 32"/><polygon points="375.39814842766043 10.666666666666666 435.2685182390062 10.666666666666666 436.02929104930985 32 374.6373756173568 32"/><polygon points="463.59464269981527 10.666666666666666 432.4053573001846 10.666666666666666 447.7499671558319 32 448.250032844168 32"/><polygon points="503.58904531322696 10.666666666666666 477.7442880201063 10.666666666666666 521.0107689359857 32 460.3225643973476 32"/><polygon points="10.666666666666666 52.41119838929429 32 54.949676600168914 32 73.05032339983109 10.666666666666666 75.58880161070572"/><polygon points="55.741404540826366 53.19168172078923 72.25859545917363 54.08174662977511 74.3726386906709 73.91825337022489 53.6273613093291 74.80831827921077"/><polygon points="93.91443808880986 53.20765278714538 119.41889524452345 53.93336818861878 112.69657989849128 74.06663181138121 100.63675343484203 74.79234721285462"/><polygon points="140.03455969496784 50.85656929064966 158.63210697169885 51.783488737135144 167.61603812234185 76.21651126286486 131.05062854432484 77.14343070935034"/><polygon points="188.1002168908774 55.77900445907797 195.8997831091226 54.02535548068995 193.55340630761802 73.97464451931005 190.44659369238198 72.22099554092203"/><polygon points="218.56615457590502 52.632107865584175 250.7671787574283 52.612825721297675 245.24555847380856 75.38717427870233 224.08777485952476 75.36789213441583"/><polygon points="282.6608345054763 53.540802745569124 272.0058321611903 54.53019804583937 292.52694252450476 73.46980195416063 262.13972414216187 74.45919725443088"/><polygon points="304.32226513246644 52.85781259831617 335.67773486753345 51.794915148575726 341.6597131081278 76.20508485142427 298.3402868918721 75.14218740168383"/><polygon points="366.30482402301277 51.7043754712693 359.0285093103205 51.044197756662726 387.2275808508306 76.95580224333727 338.1057524825027 76.2956245287307"/><polygon points="378.02027441483256 52.07608379549532 432.6463922518341 50.79149898213362 438.673736254551 77.20850101786638 371.99293041211564 75.92391620450468"/><polygon points="424.98411098961657 53.87813876912723 471.0158890103833 52.467253997059224 474.93270152179053 75.53274600294078 421.06729847820935 74.12186123087277"/><polygon points="466.15736360622094 55.3073659221601 515.1759697271124 55.647876391267594 515.5255682662797 72.3521236087324 465.80776506705354 72.6926340778399"/><polygon points="10.666666666666666 97.49657269837084 32 92.6012325367241 32 120.73210079660922 10.666666666666666 115.83676063496247"/><polygon points="53.26152507209342 97.12458264884249 74.73847492790658 98.5648359167156 76.38886337691264 114.76849741661772 51.61113662308737 116.20875068449082"/><polygon points="91.42072488249876 96.80494465817587 121.91260845083455 97.83079445948746 118.60158808640122 115.50253887384585 94.73174524693209 116.52838867515744"/><polygon points="139.33213155110573 93.87978671135353 159.33453511556095 99.84554730532416 153.74677250005905 113.48778602800915 144.91989416660763 119.45354662197978"/><polygon points="183.63506734218933 101.27018448543149 200.36493265781067 93.45054025954764 192.35956670539022 119.88279307378568 191.64043329460978 112.06314884790183"/><polygon points="220.75115537754675 100.00213846600305 248.58217795578656 95.9709723195039 254.1598444940554 117.36236101382941 215.17348883927792 113.33119486733027"/><polygon points="274.16369477858785 93.9892038257779 280.5029718880788 100.6274437574246 280.18474747794284 112.70588957590871 274.4819191887238 119.34412950755541"/><polygon points="307.54356443716125 94.59102218649059 332.45643556283864 92.48281663878295 349.0718312497615 120.85051669455036 290.9281687502384 118.74231114684272"/><polygon points="354.64548566953056 95.701813839972 370.6878476638027 100.59076723136049 358.7285658388036 112.74256610197283 366.60476749452965 117.63151949336131"/><polygon points="381.1762740152802 96.25206923571014 429.4903926513864 92.44337413973892 430.9764620483186 120.8899591935944 379.69020461834805 117.08126409762318"/><polygon points="411.4116077296743 93.96210021836588 484.5883922703256 91.87786113745912 470.9489807298019 121.4554721958742 425.05101927019797 119.37123311496744"/><polygon points="490.17431990671685 92.23249255058667 491.1590134266164 94.17596968818468 515.9539975042753 119.15736364514864 465.379335829058 121.10084078274664"/><polygon points="10.666666666666666 135.82480359231042 32 144.11748326422108 32 154.5491834024456 10.666666666666666 162.84186307435627"/><polygon points="52.857925099303614 139.25339612973343 75.14207490069639 137.8058900558264 72.71586784241136 160.86077661084028 55.284132157588644 159.41327053693325"/><polygon points="99.52396072467256 130.7828292606937 113.80937260866075 143.33694711647615 120.48014083903254 155.32971955019053 92.85319249430077 167.883837405973"/><polygon points="138.76688734205902 142.83757375894322 159.89977932460766 133.52847768868872 155.86654185491926 165.13818897797796 142.80012481174742 155.82909290772346"/><polygon points="182.4522028220045 137.11106894206327 201.5477971779955 142.37947978195524 202.61165258443202 156.28718688471145 181.38834741556798 161.55559772460342"/><polygon points="211.03903586126253 141.79761576844294 258.2942974720708 140.3230175850522 238.50335172683745 158.34364908161447 230.82998160649586 156.86905089822375"/><polygon points="273.52059400736334 141.88966170777354 281.1460726593033 142.31822571061784 284.06797179291664 156.34844095604885 270.59869487375 156.77700495889314"/><polygon points="304.7430781705321 142.659642654444 335.2569218294678 133.799140413321 315.3962360849523 164.8675262533457 324.6037639150476 156.00702401222267"/><polygon points="355.5768601073921 138.7022619046733 369.75647322594114 136.11683124014152 385.68397458373914 162.54983542652516 339.6493587495941 159.9644047619934"/><polygon points="412.0719844055412 143.7752298093564 398.59468226112546 130.8995089247927 406.08950962792204 167.76715774187397 404.5771570387446 154.89143685731028"/><polygon points="457.9158270175511 135.38358878623387 438.08417298244876 145.9749166066322 466.27129051071825 152.69175006003448 429.72870948928164 163.2830778804328"/><polygon points="505.10094123856504 138.86718547091255 476.2323920947682 144.51843977042657 518.6714382765592 154.14822689624012 462.66189505677403 159.79948119575414"/><polygon points="10.666666666666666 180.12604243141595 32 172.8811638915081 32 211.1188361084919 10.666666666666666 203.87395756858405"/><polygon points="52.26046657718642 179.72852383726166 75.73953342281358 180.61897877395742 75.99267935652462 203.38102122604258 52.00732064347538 204.27147616273834"/><polygon points="99.09964496549887 182.79350070703057 114.23368836783445 186.89044636855095 116.60607046591349 197.10955363144905 96.72726286741982 201.20649929296943"/><polygon points="130.67067653781314 191.58936112800836 167.99599012885355 176.03765242187282 164.78074496610444 207.96234757812718 133.88592170056225 192.41063887199164"/><polygon points="185.59252612718635 171.01481365421915 198.40747387281365 187.4514914862031 205.30380543649966 196.5485085137969 178.69619456350034 212.98518634578085"/><polygon points="229.4501123898157 187.54414804525862 239.8832209435176 174.93410810327134 239.31244793658945 209.06589189672866 230.02088539674386 196.45585195474138"/><polygon points="282.03958932573306 171.76148165192157 272.62707734093357 180.23942436963972 303.7753602552367 203.76057563036028 250.8913064114299 212.23851834807843"/><polygon points="312.94066966029254 190.3750814486551 327.05933033970734 189.3996381845201 342.8301255387498 194.6003618154799 297.16987446125006 193.6249185513449"/><polygon points="345.8032154749386 187.9778021736078 379.53011785839465 173.15430283013592 372.48486295362045 210.84569716986408 352.8484703797128 196.0221978263922"/><polygon points="394.75156521477015 179.24707789589678 415.9151014518965 177.69886782501771 430.96936508990103 206.30113217498229 379.6973015767656 204.75292210410322"/><polygon points="442.6663054878751 186.84121211259617 453.3336945121248 181.49923086366695 441.200842968106 202.50076913633305 454.7991570318939 197.15878788740383"/><polygon points="469.22407539441497 177.3880094054009 512.1092579389183 182.1427880577488 511.05417843746864 201.8572119422512 470.2791548958646 206.6119905945991"/><polygon points="10.666666666666666 212.80922270204508 32 229.60981507250946 32 239.72351826082385 10.666666666666666 256.52411063128824"/><polygon points="51.4819418978618 224.19478503800372 76.5180581021382 210.87464243805417 77.22014132248682 258.4586908952791 50.77985867751318 245.1385482953296"/><polygon points="98.37325253284698 224.91802976841913 114.96008080048634 226.67021727242243 117.96380347120743 242.66311606091088 95.36952986212589 244.41530356491418"/><polygon points="137.76870905011427 227.79494126176172 160.89795761655242 214.67597003445817 163.2953174223205 254.65736329887514 135.3713492443462 241.5383920715716"/><polygon points="174.14870775691824 217.10101889619557 209.85129224308176 215.50845864235538 210.94267518578442 253.82487469097794 173.05732481421558 252.23231443713775"/><polygon points="220.50359606545246 233.72129719056505 248.82973726788086 233.95508124811707 237.567673721789 235.37825208521625 231.76565961154432 235.61203614276826"/><polygon points="262.1353186563014 237.08375509711516 292.5313480103652 233.53844060704913 276.23376667476174 235.7948927262842 278.4328999919049 232.24957823621816"/><polygon points="315.00656348308496 223.7593116856831 324.9934365169149 232.78226928799714 325.461739027775 236.55106404533618 314.53826097222486 245.57402164765023"/><polygon points="371.9025243239648 217.69287928365154 353.43080900936843 221.09117542634615 360.02206174970127 248.24215790698716 365.311271583632 251.64045404968178"/><polygon points="370.82945697426527 236.6653118600101 439.83720969240136 235.29405607038345 403.50983104482856 234.03927726294987 407.15683562183807 232.66802147332322"/><polygon points="433.0844044441982 230.64170970772952 462.9155955558017 211.91389508166813 454.0269313922819 257.41943825166516 441.973068607718 238.6916236256038"/><polygon points="503.39199086157134 217.01410934600537 477.9413424717619 231.0926420168725 487.8561095342625 238.2406913164608 493.47722379907077 252.31922398732794"/><polygon points="10.666666666666666 268.84289200020004 32 255.0894940643595 32 299.5771726023071 10.666666666666666 285.8237746664666"/><polygon points="54.01314138273834 251.90142519461622 73.98685861726166 279.63835148345674 73.53921628153593 275.0283151832099 54.46078371846407 302.76524147205043"/><polygon points="97.67734651565686 267.1760920025189 115.65598681767645 273.071721969827 113.06536510469081 281.5949446968396 100.2679682286425 287.49057466414774"/><polygon points="144.86805924588353 267.5654049199388 153.79860742078316 251.47689316773855 159.6655046841371 303.18977349892805 139.0011619825296 287.1012617467278"/><polygon points="183.26715107843216 278.89615290268716 200.73284892156784 275.3544665698255 197.79288025087072 279.31220009684114 186.20711974912928 275.77051376397947"/><polygon points="221.19161067114277 268.04751524584384 248.14172266219055 252.33528676209886 252.69024454345387 302.33137990456777 216.64308878987944 286.6191514208228"/><polygon points="262.4073146072248 252.7960164011438 292.2593520594418 275.2971431985454 290.0738693261307 279.3695234681212 264.5927973405359 301.87065026552284"/><polygon points="313.0413986181416 278.92028965125587 326.9586013818583 260.823857301342 343.54882905569315 293.8428093653246 296.45117094430674 275.74637701541076"/><polygon points="332.4636153407634 269.98562782534697 392.86971799256986 260.0708057625766 375.63981687181916 294.59586090409005 349.6935164615141 284.68103884131966"/><polygon points="416.84256317737646 271.3227148491285 393.82410348929017 262.1366927636206 416.8262854011465 292.529973903046 393.84038126552014 283.34395181753814"/><polygon points="433.3057969460535 275.67579522946755 462.6942030539464 278.1843018527722 438.3599251271831 276.48236481389443 457.6400748728168 278.9908714371991"/><polygon points="464.35282916777567 254.36223466269587 516.9805041655576 266.1281908813155 491.2777257967929 288.5384757853511 490.0556075365404 300.30443200397076"/><polygon points="10.666666666666666 314.8212676358524 32 302.8797210037997 32 337.12027899620017 10.666666666666666 325.1787323641475"/><polygon points="51.76025449792106 322.09801662446444 76.23974550207895 299.4847346349743 75.03542864891482 340.5152653650256 52.96457135108518 317.90198337553545"/><polygon points="93.88293599607405 312.4406847860727 119.45039733725926 295.3525369571372 119.91870422386887 344.6474630428627 93.41462910946444 327.55931521392716"/><polygon points="137.27347062332723 299.1536853550828 161.39319604333946 302.67052526907565 165.79560386569213 337.32947473092423 132.87106280097456 340.8463146449171"/><polygon points="180.47513076389393 298.36760872197567 203.52486923610607 316.09511896752167 193.3675087400555 323.9048810324782 190.6324912599445 341.6323912780242"/><polygon points="226.29639639153464 310.9808641416793 243.03693694179867 312.89724817079815 251.28052152585852 327.10275182920174 218.0528118074748 329.01913585832057"/><polygon points="277.6317470638742 316.6757576837561 277.03491960279246 327.98603267903553 277.893510025271 312.01396732096435 276.77315664139564 323.3242423162438"/><polygon points="327.3647644127405 300.0331617179686 312.6352355872594 299.6593104408863 323.16163937662026 340.34068955911357 316.83836062337963 339.9668382820313"/><polygon points="359.37353584938575 322.95310344941487 365.9597974839475 301.2504061106008 382.7510110904301 338.7495938893991 342.58232224290316 317.046896550585"/><polygon points="399.00140023364753 307.82589190952905 411.6652664330191 316.07363454704694 398.1627393308283 323.92636545295295 412.50392733583834 332.17410809047084"/><polygon points="423.0083331401882 302.35816599000736 472.9916668598117 322.8874715137507 455.10740775593075 317.1125284862492 440.89259224406914 337.6418340099925"/><polygon points="504.6030897552984 317.9095356408298 476.73024357803484 322.0151210385638 525.5815047718086 317.9848789614361 455.7518285615247 322.0904643591701"/><polygon points="10.666666666666666 356.38977516024465 32 340.6743747032839 32 384.65895863004937 10.666666666666666 368.9435581730886"/><polygon points="53.66737015159052 336.3482795970682 74.33262984840948 367.6586382596724 74.93888552749857 357.67469507366087 53.06111447250144 388.98505373626506"/><polygon points="95.17794388207255 367.1995667321761 118.15538945126076 367.1551994717982 117.79369257134206 358.17813386153506 95.53964076199125 358.13376660115716"/><polygon points="136.79985452866907 338.17499585476736 161.8668121379976 344.2437528534066 156.08301745708548 381.08958047992667 142.5836492095812 387.1583374785659"/><polygon points="171.2980166306716 352.281778163355 212.7019833693284 353.4676191773382 199.77785455647438 371.8657141559951 184.22214544352562 373.05155516997826"/><polygon points="214.34807216625043 351.019123425408 254.98526116708288 360.70393267823636 258.0536563811381 364.6294006550969 211.2796769521952 374.31420990792526"/><polygon points="278.0743754694548 338.71635117565353 276.5922911972118 360.6122223782528 293.6419306721339 364.72111095508046 261.0247359945327 386.61698215767973"/><polygon points="317.57437353747696 359.4117820926221 322.4256264625229 370.06455216258826 341.0740781068339 355.268781170745 298.925921893166 365.92155124071115"/><polygon points="346.35757213621395 361.47411113220517 378.9757611971193 333.76332528563216 375.69128626279553 391.5700080477011 349.6420470705377 363.8592222011281"/><polygon points="397.0473978913383 349.16164113814085 413.61926877532835 364.56185111120635 402.1274881128788 360.7714822221269 408.53917855378785 376.1716921951924"/><polygon points="425.18169325244224 369.74450883306406 470.81830674755764 369.75719096865043 442.4809482292006 355.5761423646828 453.5190517707993 355.5888245002692"/><polygon points="492.7613450448376 357.76646422827423 488.5719882884957 349.0842040873771 472.3684869693049 376.24912924595617 508.96484636402835 367.566869105059"/><polygon points="10.666666666666666 391.5426658824756 32 401.80117256004945 32 408.8654941066172 10.666666666666666 419.124000784191"/><polygon points="54.93298079048352 408.84863514861416 73.06701920951647 383.1808328002609 74.61533449809772 427.48583386640576 53.384665501902276 401.81803151805246"/><polygon points="101.32004832924144 372.4881581313018 112.01328500409187 408.908532558149 112.39272103353302 401.75813410851765 100.94061229980029 438.1785085353648"/><polygon points="140.7236136413405 417.24221813508433 157.94305302532618 380.2091578486498 152.11690206315313 430.45750881801683 146.54976460351355 393.4244485315823"/><polygon points="175.9113513843732 403.0253891289374 208.0886486156268 395.7087760911234 192.37776079726981 414.9578905755432 191.62223920273019 407.64127753772925"/><polygon points="227.24510854815756 379.35251608694796 242.08822478517575 417.1479524598911 240.6218639673444 393.51871420677554 228.7114693659889 431.31415057971867"/><polygon points="253.04914457342642 384.53662941250553 301.6175220932402 371.5125419592032 299.1868610908758 439.15412470746344 255.4798055757908 426.1300372541611"/><polygon points="310.52110713486445 385.9774301984881 329.47889286513544 385.6565389695017 346.9783849626352 425.01012769716493 293.0216150373647 424.68923646817854"/><polygon points="335.48407115915165 388.5739984145688 389.8492621741816 403.1640645539412 390.532753712545 407.5026021127254 334.80057962078826 422.09266825209784"/><polygon points="395.6541269411583 381.70773802870553 415.0125397255083 385.3096230355225 419.2476225858052 425.3570436311441 391.41904408086145 428.9589286379611"/><polygon points="425.3479194740827 418.32515186250436 470.6520805259172 411.41066619479545 477.5261000699593 399.2560004718712 418.4738999300406 392.3415148041623"/><polygon points="458.101791041549 388.6982042835147 523.2315422917843 416.2376823879136 491.75526807399496 394.42898427875303 489.5780652593383 421.9684623831519"/><polygon points="10.666666666666666 453.1069296548578 32 454.81005630316866 32 441.1899436968312 10.666666666666666 442.89307034514206"/><polygon points="53.78901197654478 421.1869433985039 74.21098802345522 461.90506717805306 75.80378282369445 434.0949328219468 52.19621717630555 474.813056601496"/><polygon points="99.77390085673234 428.6487266123262 113.55943247660097 455.23638375145845 113.5485657548348 440.76361624854144 99.78476757849852 467.3512733876737"/><polygon points="140.5198858376075 437.27273189983987 158.1467808290592 431.0234844629795 159.48866383552755 464.97651553702036 139.17800283113914 458.72726810016"/><polygon points="175.53339087959174 458.4888098626272 208.46660912040826 442.92007528203396 192.64803783269122 453.0799247179659 191.35196216730878 437.5111901373727"/><polygon points="237.24643013085034 420.6022446327119 232.08690320248297 413.40899592412336 252.6068613788496 482.5910040758765 216.7264719544837 475.39775536728797"/><polygon points="282.40002235044506 432.65169270462684 272.2666443162216 445.58700294368515 280.20615813875884 450.41299705631474 274.4605085279078 463.34830729537305"/><polygon points="316.122303652347 420.67558811851313 323.8776963476529 426.0258634037676 322.01748273652265 469.9741365962323 317.98251726347723 475.32441188148675"/><polygon points="359.3806628931525 445.31549367388715 365.9526704401808 415.86456803520934 370.79232523542294 480.13543196479054 354.5410080979103 450.68450632611274"/><polygon points="386.1045563676786 458.86018294962366 424.56211029898805 461.05689834802934 430.16977974572865 434.94310165197055 380.496886920938 437.1398170503762"/><polygon points="439.360808671417 455.0242377856478 456.6391913285829 413.7612147326006 456.7673490569745 482.2387852673993 439.23265094302536 440.9757622143521"/><polygon points="493.33046891579824 458.0537029385109 488.002864417535 435.27849087869777 490.5379177208414 460.7215091213021 490.79541561249187 437.94629706148896"/><polygon points="10.666666666666666 457.65040013007086 32 464.3733479579837 32 516.9599853753496 10.666666666666666 523.6829332032623"/><polygon points="55.578945160867924 454.24241549734 72.42105483913207 504.4004195606514 73.57603943338559 476.93291377268184 54.42396056661441 527.0909178359932"/><polygon points="95.44704077940796 493.24383126546263 117.88629255392536 498.93051051834937 116.03820377391963 482.4028228149839 97.29512955941368 488.0895020678706"/><polygon points="133.05546904391016 468.65737406285973 165.61119762275652 505.4288418207478 162.2069755491748 475.9044915125855 136.45969111749187 512.6759592704735"/><polygon points="175.44488663538772 491.79737239424435 208.55511336461228 479.8230023498439 207.1262645690262 501.5103309834894 176.8737354309738 489.5359609390889"/><polygon points="221.06492849414732 496.5615146244576 248.268404839186 466.61419978110445 242.30670416114071 514.7191335522288 227.0266291721926 484.7718187088757"/><polygon points="266.24245951594594 488.8225853291999 288.4242071507207 472.7684102418825 277.40226343012927 508.56492309145074 277.26440323653736 492.51074800413335"/><polygon points="323.41164544554965 502.0219066383043 316.58835455445023 488.9854441960246 343.1645799178257 492.34788913730864 296.8354200821742 479.31142669502896"/><polygon points="345.7160992463212 502.77471815385286 379.61723408701204 465.2702102770037 354.3062068022586 516.0631230563296 371.02712653107466 478.5586151794804"/><polygon points="396.0614456383056 488.4442763048072 414.60522102836103 491.2803600525174 436.8942211145905 490.0529732808159 373.77244555207614 492.88905702852605"/><polygon points="417.62624170403006 467.9137442365469 478.3737582959698 487.39715578405475 461.61072880831745 493.9361775492785 434.38927119168244 513.4195890967864"/><polygon points="478.912351189423 457.4771700143061 502.42098214391024 480.92137412334927 500.84789350124214 500.411959209984 480.4854398320911 523.8561633190271"/>
</svg>
