<?xml version="1.0" encoding="UTF-8"?>
<svg xmlns="http://www.w3.org/2000/svg" id="RSSicon" viewBox="0 0 512 512" width="512" height="512">
  <defs>
    <style type="text/css">
      svg {
        background: black;
        margin: calc(50vh - 256px) auto 0;
      }
      
      polygon {stroke: darkorange; fill: none;}
    </style>
  </defs>
  <polygon points="10.666666666666666 10.666666666666666 32 10.666666666666666 32 32 10.666666666666666 32"/><polygon points="54.18764753724236 10.666666666666666 73.81235246275764 10.666666666666666 73.12226795029927 32 54.877732049700725 32"/><polygon points="92.81280665227038 10.666666666666666 120.52052668106293 10.666666666666666 115.61828397275367 32 97.71504936057964 32"/><polygon points="131.2952413878066 10.666666666666666 167.37142527886007 10.666666666666666 154.3364624965389 32 144.3302041701278 32"/><polygon points="176.1197232236392 10.666666666666666 207.8802767763608 10.666666666666666 207.17586947178992 32 176.82413052821008 32"/><polygon points="235.99902006807062 10.666666666666666 233.3343132652627 10.666666666666666 246.724664735344 32 222.60866859798932 32"/><polygon points="258.1760093266647 10.666666666666666 296.4906573400019 10.666666666666666 297.6006050328146 32 257.06606163385203 32"/><polygon points="310.8846516195606 10.666666666666666 329.1153483804393 10.666666666666666 312.41673732809136 32 327.5832626719085 32"/><polygon points="370.85404594928684 10.666666666666666 354.4792873840464 10.666666666666666 369.12032184836966 32 356.2130114849636 32"/><polygon points="373.24246453558453 10.666666666666666 437.4242021310821 10.666666666666666 421.3552100085618 32 389.3114566581048 32"/><polygon points="415.9059747135146 10.666666666666666 480.0940252864853 10.666666666666666 469.5433538308653 32 426.45664616913456 32"/><polygon points="464.2683479028421 10.666666666666666 517.0649854304912 10.666666666666666 488.2098085106951 32 493.12352482263816 32"/><polygon points="10.666666666666666 51.853594682430426 32 53.722308924402896 32 74.2776910755971 10.666666666666666 76.14640531756957"/><polygon points="55.8343070069997 54.707715777913776 72.1656929930003 50.90410916760185 77.13338013386704 77.09589083239815 50.86661986613297 73.29228422208622"/><polygon points="92.92136027850944 55.71507823261197 120.41197305482387 52.15579448802994 114.9885192973106 75.84420551197006 98.34481403602271 72.28492176738803"/><polygon points="146.5010153631234 51.36374003524449 152.16565130354329 53.340826484921664 166.7222179743266 74.65917351507834 131.94444869234007 76.63625996475551"/><polygon points="176.4818390398928 51.36466973047254 207.5181609601072 55.44741321985828 194.5460268136589 72.55258678014172 189.4539731863411 76.63533026952746"/><polygon points="215.62082090372925 54.52338883258955 253.71251242960406 55.86931369699673 246.23473713566403 72.13068630300327 223.09859619766928 73.47661116741044"/><polygon points="259.1994913413996 51.65768087508643 295.467175325267 51.495312844667104 281.2907529101901 76.5046871553329 273.3759137564765 76.34231912491357"/><polygon points="312.09077073032194 54.874318115043295 327.90922926967795 52.14676775627825 341.36539204874236 75.85323224372175 298.6346079512575 73.1256818849567"/><polygon points="368.43134346099345 55.65777797018518 356.9019898723398 54.237152773441956 382.0608201294769 73.76284722655804 343.27251320385636 72.34222202981482"/><polygon points="401.08526443151897 52.16373526679774 409.58140223514766 54.454733802886366 410.0801230717992 73.54526619711363 400.5865435948674 75.83626473320227"/><polygon points="412.517380620992 54.04266937385425 483.4826193790079 54.20641822458811 445.18226868058144 73.7935817754119 450.81773131941844 73.95733062614575"/><polygon points="505.8568131743325 54.184209152859616 475.47652015900076 51.85585737237644 482.5891215512005 76.14414262762357 498.74421178213277 73.81579084714039"/><polygon points="10.666666666666666 92.1753899750853 32 91.32237261882752 32 122.0109607145058 10.666666666666666 121.15794335824802"/><polygon points="54.51030141356727 97.29347630732752 73.48969858643274 91.67945324767093 75.9684973384864 121.65388008566238 52.0315026615136 116.03985702600579"/><polygon points="97.25608924979679 93.46052522163416 116.07724408353653 100.69857255875007 118.52897930941708 112.63476077458324 94.80435402391623 119.87280811169916"/><polygon points="138.1606049073139 94.46178799973057 160.50606175935278 97.73286070714876 153.11928222405737 115.60047262618455 145.5473844426093 118.87154533360274"/><polygon points="190.83915636502587 98.51705412038392 193.16084363497413 97.36504597871077 196.45992656540685 115.96828735462255 187.54007343459315 114.8162792129494"/><polygon points="217.6128494154661 100.13920593873132 251.72048391786723 93.50655785558496 234.31435686108165 119.82677547774836 235.01897647225167 113.19412739460199"/><polygon points="272.4929339610238 94.04583197672238 282.1737327056428 91.20460055466641 287.57974865468856 122.1287327786669 267.08691801197807 119.28750135661093"/><polygon points="292.2123296365703 100.3641521871134 347.7876703634296 91.92437575417617 336.0974998118625 121.40895757915715 303.90250018813737 112.96918114621991"/><polygon points="350.5545105088416 91.84567573276635 374.77882282449167 97.71711040968319 388.06208648835496 115.61622292365013 337.2712468449783 121.48765760056696"/><polygon points="408.2861960527958 95.23375326415902 402.38047061387084 96.76324435284485 429.56538254168487 116.57008898048846 381.10128412498176 118.0995800691743"/><polygon points="442.4662706984015 95.14583508891536 453.5337293015984 96.47027596912102 434.7339299081673 116.8630573642123 461.2660700918326 118.18749824441795"/><polygon points="473.2290936771078 93.16976271659655 508.10423965622545 98.48679346588546 504.366755219678 114.84653986744786 476.96657811365526 120.16357061673676"/><polygon points="10.666666666666666 139.86025223002798 32 142.58928125306238 32 156.0773854136043 10.666666666666666 158.8064144366387"/><polygon points="54.29048220179314 145.4565607674428 73.70951779820686 131.36972751971024 73.46259118964268 167.29693914695645 54.53740881035732 153.2101058992239"/><polygon points="96.3522913977542 140.24710547436038 116.98104193557911 146.49576046506832 116.92169622153217 152.17090620159837 96.41163711180114 158.4195611923063"/><polygon points="139.76927610009295 131.5823454230099 158.89739056657373 142.81533581040065 156.0966374765061 155.85133085626603 142.5700291901606 167.08432124365677"/><polygon points="173.7835219050021 146.37769402364157 210.2164780949979 132.07181991676913 211.86332496360075 166.59484674989756 172.13667503639925 152.28897264302512"/><polygon points="218.0790343401502 138.19734667625642 251.2542989931831 140.6323067761953 248.39326614895253 158.0343598904714 220.94006718438078 160.46931999041027"/><polygon points="253.4198897865697 141.4191331478316 301.2467768800969 145.78100026918705 275.81093079504166 152.88566639747964 278.855735871625 157.2475335188351"/><polygon points="303.7261123781529 135.82060682412197 336.273887621847 135.85850646197883 338.24074620155363 162.80816020468785 301.75925379844625 162.84605984254472"/><polygon points="334.46223977766675 144.3512324428144 390.8710935556665 137.02782875901107 381.94953154585517 161.6388379076556 343.3838017874781 154.3154342238523"/><polygon points="407.0496084081711 139.07664959574925 403.61705825849555 142.5153361651493 439.82134475270936 156.15133050151738 370.84532191395726 159.59001707091744"/><polygon points="412.20523406117104 138.017053878025 483.79476593882885 133.83283145045968 438.4224640214391 164.833835216207 457.5775359785608 160.6496127886417"/><polygon points="463.08466966642595 145.0877098401931 518.2486636669073 138.23288612555515 497.92282609469817 160.43378054111153 483.4105072386351 153.5789568264736"/><polygon points="10.666666666666666 188.39060179408153 32 181.23087028698728 32 202.76912971301272 10.666666666666666 195.60939820591847"/><polygon points="53.4539990162434 171.91525258575422 74.5460009837566 190.36014026040024 77.10321903171544 193.63985973959976 50.89678096828456 212.08474741424578"/><polygon points="93.68599025003323 188.08102278769675 119.64734308330009 188.68654213061794 119.27338436249309 195.31345786938206 94.05994897084022 195.91897721230325"/><polygon points="146.66614875215768 172.8832759593912 152.000517914509 189.44233730232395 153.9305457735752 194.55766269767605 144.73612089309148 211.1167240406088"/><polygon points="180.24383150288196 175.57085841374956 203.75616849711804 180.4665141024498 202.63083958274456 203.5334858975502 181.36916041725544 208.42914158625044"/><polygon points="223.01390238974383 174.17275533091825 246.31943094358948 173.87153700942025 251.21078012588677 210.12846299057975 218.12255320744654 209.82724466908175"/><polygon points="267.3620359768143 183.71283021975748 287.30463068985233 182.63686161445202 296.2358011155835 201.36313838554798 258.4308655510831 200.28716978024252"/><polygon points="308.7818823628239 186.62911554299274 331.21811763717596 171.51504885925874 320.40107335369487 212.48495114074126 319.598926646305 197.37088445700726"/><polygon points="361.49785082961233 184.6611609979602 363.8354825037209 171.59919301092478 355.3821922013422 212.40080698907522 369.95114113199105 199.3388390020398"/><polygon points="375.6803059876454 174.13915054152827 434.98636067902123 173.41436889789472 418.56184432096137 210.58563110210528 392.10482234570526 209.86084945847173"/><polygon points="457.3684965601266 172.74445303519076 438.6315034398733 178.59647735357754 473.7447674424105 205.40352264642246 422.2552325575894 211.25554696480924"/><polygon points="482.0832212414641 179.0121070752744 499.25011209186914 179.31710600069542 522.2186789977503 204.68289399930458 459.11465433558294 204.9878929247256"/><polygon points="10.666666666666666 236.88603618312965 32 229.60051321833865 32 239.73282011499467 10.666666666666666 232.44729715020367"/><polygon points="51.842429390123364 218.95581868100902 76.15757060987664 215.53104606801125 76.91778158133725 253.80228726532206 51.08221841866275 250.3775146523243"/><polygon points="93.28873318272922 234.39790138052336 120.0446001506041 226.2155703637855 114.3017362253988 243.1177629695478 99.03159710793452 234.93543195280995"/><polygon points="134.78241814446696 233.49440021979626 163.88424852219973 225.54451015512143 156.52330364753482 243.78882317821189 142.14336301913187 235.83893311353705"/><polygon points="174.28996040460987 217.96732613130263 209.71003959539013 232.15332815070047 196.30723665915528 237.18000518263284 187.69276334084472 251.3660072020307"/><polygon points="226.52628835952237 214.14234373156725 242.80704497381095 225.22343444849255 242.63989598583225 244.10989888484076 226.69343734750106 255.19098960176606"/><polygon points="255.75352438532812 225.94618922512475 298.91314228133854 235.05422687316877 291.7666669523699 234.27910646016454 262.8999997142967 243.38714410820856"/><polygon points="292.7563919403449 215.78829140185496 347.243608059655 219.65326975381907 330.35150262366875 249.68006357951424 309.64849737633114 253.54504193147835"/><polygon points="372.7233335223012 213.47305898972064 352.6099998110321 234.00739742027088 352.6525466701167 235.32593591306244 372.68078666321657 255.86027434361267"/><polygon points="387.002417017644 221.2136682557911 423.6642496490226 216.83647508712278 405.60380637991966 252.49685824621054 405.06286028674697 248.1196650775422"/><polygon points="428.42007604982007 234.73344400808543 467.5799239501798 211.64910742420187 442.47652881478166 257.68422590913144 453.5234711852182 234.5998893252479"/><polygon points="476.16999522663576 228.39475630833343 505.1633381066975 219.1772341766119 474.1540239784803 250.1560991567214 507.17930935485293 240.9385770249999"/><polygon points="10.666666666666666 269.8448057898049 32 255.65362383208043 32 299.0130428345862 10.666666666666666 284.8218608768617"/><polygon points="53.63290465186278 267.33417450624194 74.36709534813721 259.1136401087166 73.97563892077645 295.55302655795003 54.02436107922356 287.3324921604247"/><polygon points="97.41427137099332 279.07219952388596 115.91906196234 277.83436108723663 120.81350144390358 276.83230557943 92.51983188942974 275.5944671427807"/><polygon points="132.62421083316818 254.09523594492433 166.0424558334985 276.5286502781518 167.90698429001165 278.1380163885148 130.75968237665504 300.57143072174233"/><polygon points="176.95417917686478 269.29544346385205 207.04582082313522 279.26631002844124 200.5742231266312 275.4003566382254 183.4257768733688 285.3712232028146"/><polygon points="211.19003191615138 281.19491864171516 258.14330141718193 271.8499701995126 239.64736086545992 282.81669646715403 229.6859724678734 273.47174802495147"/><polygon points="274.68727699592625 278.70064240342583 279.9793896707404 282.43004823717513 286.51190368265463 272.2366184294915 268.154762984012 275.9660242632408"/><polygon points="315.67993550829453 269.80279718637433 324.32006449170535 279.6250545584571 317.24297744442663 275.0416121082095 322.75702255557326 284.8638694802923"/><polygon points="367.75358019551595 261.8514901846528 357.5797531378173 250.82131932626376 389.99297785840884 303.8453473404029 335.3403554749244 292.81517648201384"/><polygon points="385.26166206579984 278.5438813954697 425.4050046008668 276.56342160715025 392.46909082667105 278.1032450595164 418.1975758399956 276.1227852711969"/><polygon points="431.86303420677405 273.3924285475675 464.13696579322584 255.35438393842168 464.3811295409064 299.31228272824495 431.6188704590935 281.27423811909915"/><polygon points="467.6439390016552 278.95606697260735 513.689394331678 260.4298009921057 488.067941183364 294.23686567456093 493.2653921499693 275.7105996940593"/><polygon points="10.666666666666666 303.45292072807126 32 301.86748047945264 32 338.13251952054725 10.666666666666666 336.5470792719286"/><polygon points="50.770670615475005 301.71989702152484 77.229329384525 314.49008813775737 73.99626863227034 325.5099118622425 54.00373136772966 338.28010297847504"/><polygon points="91.96475742429301 322.3831887324693 121.3685759090403 319.83627453197875 114.07549408863694 320.16372546802114 99.25783924469637 317.6168112675306"/><polygon points="136.8021521080891 299.092772194167 161.86451455857758 291.97281673064583 167.84087686687525 348.02718326935405 130.82578979979144 340.90722780583286"/><polygon points="186.75925393291834 320.4819019020106 197.24074606708166 316.76533164517485 198.4960638742983 323.23466835482503 185.5039361257017 319.5180980979893"/><polygon points="231.4226563142374 318.4894209317431 237.9106770190959 318.08947564073 254.51736523756364 321.9105243592699 214.81596809576968 321.5105790682568"/><polygon points="266.5483190937055 314.94437584895024 288.1183475729611 320.25660568800345 289.5519421863344 319.74339431199644 265.11472448033226 325.05562415104964"/><polygon points="292.44617650106113 317.4498050067636 347.55382349893875 297.78067505697334 326.2588570720069 342.21932494302655 313.741142927993 322.5501949932363"/><polygon points="347.76742443280773 324.2093911624735 377.5659089005255 325.8707378650477 366.5358420942857 314.12926213495217 358.79749123904753 315.7906088375264"/><polygon points="400.09465531582924 293.7468015646625 410.5720113508374 326.75588756160334 405.64200833081674 313.24411243839654 405.0246583358499 346.25319843533737"/><polygon points="424.6374804995141 307.25739695614783 471.3625195004858 295.55169985516704 433.5445233036054 344.44830014483284 462.4554766963945 332.74260304385206"/><polygon points="509.15139558796005 297.16076255733856 472.1819377453732 304.75779838695087 495.7970134424777 335.242201613049 485.53631989085557 342.83923744266133"/><polygon points="10.666666666666666 352.4418659679595 32 356.51555715706115 32 368.8177761762721 10.666666666666666 372.8914673653738"/><polygon points="52.41675790148797 364.9595388341131 75.58324209851203 357.93369604787597 74.94712643999334 367.3996372854573 53.05287356000667 360.37379449922014"/><polygon points="90.92631637632415 372.22729676931453 122.40701695700916 361.32621650298734 116.97473847871618 364.0071168303459 96.35859485461714 353.1060365640187"/><polygon points="132.89926232525278 343.59351527212067 165.7674043414139 355.6962026138055 154.29498728036995 369.63713071952776 144.37167938629673 381.7398180612126"/><polygon points="191.46477942638478 360.04244931535715 192.53522057361522 371.01168516601444 210.00221905935103 354.3216481673188 173.99778094064897 365.2908840179761"/><polygon points="232.8286845033794 365.7629951688348 236.5046488299539 373.20208408487343 246.51681630133288 352.1312492484598 222.81651703200043 359.5703381644985"/><polygon points="277.209098971356 359.63305931638894 277.4575676953106 365.0277205026551 289.81914506987243 360.30561283067817 264.8475215967942 365.7002740169443"/><polygon points="316.8858873644823 336.4524402486181 323.1141126355176 370.4103620897734 323.0094903062544 354.92297124355986 316.9905096937455 388.8808930847152"/><polygon points="356.9985696283839 336.2014481772033 368.33476370494935 360.8885061758659 353.2556443860388 364.44482715746733 372.07768894729446 389.13188515612995"/><polygon points="387.3477069648213 337.80178211974254 423.3189597018453 350.3477007561022 410.60277786231404 374.98563257723106 400.0638888043526 387.5315512135907"/><polygon points="448.7973592542119 350.45434935215803 447.20264074578796 362.80594076453974 441.85434171923043 362.5273925687935 454.14565828076945 374.8789839811752"/><polygon points="453.319484202817 364.1910909491505 528.0138491305163 343.68078516152127 514.1260160090959 381.652548171812 467.2073173242373 361.14224238418274"/><polygon points="10.666666666666666 375.1891671294732 32 381.36630266467694 32 429.3003640019897 10.666666666666666 435.4774995371934"/><polygon points="51.486913572043655 414.2994522621742 76.51308642795635 394.4973545890192 77.1989938179723 416.1693120776474 50.801006182027706 396.3672144044924"/><polygon points="97.27157453662281 397.6682999892962 116.0617587967105 395.4559292136322 121.58977159649197 415.2107374530344 91.74356173684134 412.9983666773704"/><polygon points="144.9154030339791 396.681232673443 153.7512636326876 409.55578413887645 158.3455525395413 401.1108825277902 140.32111412712538 413.98543399322364"/><polygon points="189.47664058860659 381.69422257948554 194.52335941139341 412.1598445947222 201.68439657855888 398.50682207194444 182.31560342144112 428.9724440871811"/><polygon points="227.60266352772078 373.4563153460774 241.73066980561254 402.9583613124003 257.83019370277225 407.7083053542663 211.50313963056107 437.2103513205892"/><polygon points="259.29902094385454 389.3862170426663 295.3676457228121 389.7012228559304 278.72367887311924 420.96544381073625 275.9429877935474 421.2804496240003"/><polygon points="304.2881442007194 377.57837231517686 335.7118557992805 391.14588538239445 327.4063431046152 419.5207812842722 312.5936568953847 433.08829435148976"/><polygon points="333.8665359877984 396.03184939358823 391.46679734553487 376.3077986612189 357.9311305659695 434.35886800544773 367.40220276736375 414.6348172730784"/><polygon points="414.2455574539964 386.7836651797369 396.4211092126702 395.2951506450994 422.07752866965586 415.37151602156723 388.58913799701077 423.88300148692974"/><polygon points="426.46200301035185 373.5589765090473 469.53799698964804 397.81901928677956 481.2875776728069 412.84764737988706 414.712422327193 437.10769015761934"/><polygon points="492.61094491707706 391.0977367663149 488.7223884162562 386.7157153171996 489.57942612958084 423.950951349467 491.7539072037524 419.56892990035175"/><polygon points="10.666666666666666 422.14635250726695 32 413.002053467124 32 482.9979465328759 10.666666666666666 473.85364749273293"/><polygon points="55.87403320262781 450.67632546993764 72.12596679737219 459.4970947113888 76.85959041302436 436.5029052886111 51.140409586975636 445.32367453006225"/><polygon points="96.18310861155537 443.43150170792944 117.15022472177795 459.422115075466 117.22240116427892 436.57788492453386 96.1109321690544 452.56849829207044"/><polygon points="143.3493670791096 430.31004648004136 155.31729958755707 418.04276607574764 161.8477459639994 477.95723392425225 136.8189207026673 465.6899535199585"/><polygon points="179.5525339013407 455.10419344257156 204.4474660986593 434.7038692721503 198.12796265278567 461.2961307278496 185.87203734721433 440.89580655742833"/><polygon points="220.12719734220522 443.82423600069234 249.2061359911281 418.3633148182159 240.36306757852822 477.636685181784 228.9702657548051 452.17576399930755"/><polygon points="267.8566348168929 413.26119886346805 286.81003184977374 427.2833196333104 273.85745784347483 468.7166803666895 280.8092088231918 482.73880113653183"/><polygon points="307.7710447748842 414.1276408158983 332.22895522511567 418.6023351139409 328.59494625734686 477.397664886059 311.405053742653 481.8723591841016"/><polygon points="368.6752131021676 420.9381965036878 356.65812023116564 459.61179274117734 374.9746468186602 436.38820725882255 350.3586865146731 475.0618034963121"/><polygon points="374.2847881604966 442.6955984458163 436.38187850617004 419.33283360034864 415.48310452217856 476.66716639965125 395.18356214448806 453.3044015541836"/><polygon points="454.2872370239618 411.9847017594075 441.7127629760381 456.90116698618135 443.7048577248273 439.09883301381853 452.29514227517257 484.01529824059236"/><polygon points="502.2741424483076 416.2844959836129 479.05919088502566 418.12947519810535 504.8778108052631 477.87052480189453 476.45552252807016 479.715504016387"/><polygon points="10.666666666666666 451.47513944155634 32 454.4329324514255 32 526.9004008819078 10.666666666666666 529.8581938917769"/><polygon points="51.09687258403243 501.35389414661074 76.90312741596756 494.51178858888 76.08425652363195 486.82154474445326 51.91574347636805 479.9794391867225"/><polygon points="97.81961464411742 501.48542953884737 115.51371868921589 486.18900739177076 114.03853642207865 495.1443259415625 99.29479691125466 479.8479037944859"/><polygon points="133.76200052287007 464.9039296388923 164.90466614379662 488.7928316952254 157.9433084778103 492.54050163810786 140.7233581888564 516.429403694441"/><polygon points="175.64366464871821 457.0291155267511 208.35633535128179 456.82960377979424 196.10829688323813 524.503729553539 187.89170311676187 524.3042178065821"/><polygon points="228.37908965306758 473.734149374155 240.95424368026573 457.8225179229975 252.59292807026625 523.5108154103358 216.74040526306706 507.5991839591783"/><polygon points="250.9097282766234 466.0829741285786 303.7569383900432 484.3045422223132 287.8878564489328 497.02879111102004 266.77881021773385 515.2503592047547"/><polygon points="302.5697084116819 495.41729100721557 337.43029158831797 475.6023716783428 343.09734850939003 505.73096165499044 296.90265149060986 485.9160423261177"/><polygon points="363.31397767735757 466.11469405640105 362.0193556559757 464.23393812025705 376.68581176981525 517.0993952130761 348.647521563518 515.2186392769322"/><polygon points="374.0837595317802 483.66104836377093 436.58290713488645 495.15452305916716 433.35700371837527 486.1788102741661 377.30966294829136 497.6722849695623"/><polygon points="442.90903143969194 464.7462783588452 453.09096856030794 498.3494168150505 471.45703008247796 482.98391651828274 424.54296991752193 516.5870549744881"/><polygon points="507.0265632901811 508.3351761844648 474.30677004315214 461.466975152278 515.6410157322811 519.8663581810553 465.69231760105214 472.9981571488685"/>
</svg>
