<?xml version="1.0" encoding="UTF-8"?>
<svg xmlns="http://www.w3.org/2000/svg" id="RSSicon" viewBox="0 0 512 512" width="512" height="512">
  <defs>
    <style type="text/css">
      svg {
        background: black;
        margin: calc(50vh - 256px) auto 0;
      }
      
      polygon {stroke: darkorange; fill: none;}
    </style>
  </defs>
  <polygon points="10.666666666666666 10.666666666666666 32 10.666666666666666 32 32 10.666666666666666 32"/><polygon points="51.60055216174176 10.666666666666666 76.39944783825824 10.666666666666666 76.09851816934668 32 51.90148183065332 32"/><polygon points="98.29515273147824 10.666666666666666 115.03818060185507 10.666666666666666 115.8136812924236 32 97.51965204090972 32"/><polygon points="144.65025299031254 10.666666666666666 154.01641367635415 10.666666666666666 157.30028342149825 32 141.36638324516844 32"/><polygon points="178.2866301028778 10.666666666666666 205.7133698971222 10.666666666666666 202.2540632688869 32 181.7459367311131 32"/><polygon points="235.24148854186254 10.666666666666666 234.09184479147078 10.666666666666666 247.07202232201584 32 222.26131101131747 32"/><polygon points="270.71278699779 10.666666666666666 283.95387966887665 10.666666666666666 301.24781694024114 32 253.4188497264255 32"/><polygon points="317.92795786011874 10.666666666666666 322.07204213988115 10.666666666666666 313.44049372512006 32 326.5595062748798 32"/><polygon points="334.1435914555397 10.666666666666666 391.18974187779355 10.666666666666666 366.22547163276687 32 359.1078617005664 32"/><polygon points="383.00943698304997 10.666666666666666 427.65722968361666 10.666666666666666 410.7915048679021 32 399.8751617987645 32"/><polygon points="417.7460136629766 10.666666666666666 478.25398633702326 10.666666666666666 463.1332321803061 32 432.8667678196938 32"/><polygon points="464.1050909738425 10.666666666666666 517.2282423594908 10.666666666666666 480.7310707346873 32 500.60226259864595 32"/><polygon points="10.666666666666666 53.332425641591286 32 52.92126232803572 32 75.07873767196428 10.666666666666666 74.66757435840871"/><polygon points="51.15106594836422 52.90177667188503 76.84893405163578 51.46990126629724 74.56664468654179 76.53009873370276 53.43335531345821 75.09822332811497"/><polygon points="99.07020876766619 52.240957033373576 114.26312456566713 53.04774181055128 114.81585769549008 74.95225818944871 98.51747563784323 75.75904296662642"/><polygon points="143.66554515949392 54.70369814948067 155.00112150717277 52.60083165777958 153.93027890374762 75.39916834222042 144.73638776291907 73.29630185051933"/><polygon points="186.08362838416875 51.75715562080782 197.91637161583125 50.77336033536339 201.3224687828474 77.22663966463661 182.6775312171526 76.24284437919218"/><polygon points="221.30031633339237 52.762196877657104 248.03301699994094 54.243811878962134 255.07524958029322 73.75618812103787 214.2580837530401 75.2378031223429"/><polygon points="257.76055281914086 50.66825331096107 296.9061138475258 54.3870462811955 284.5011114599989 73.6129537188045 270.1655552066677 77.33174668903894"/><polygon points="317.10840941857555 55.30105326999687 322.89159058142434 51.51333486570419 345.69511275806957 76.48666513429582 294.3048872419303 72.69894673000313"/><polygon points="364.78355401528603 55.083942532765995 360.54977931804723 51.702274157526276 379.9771715682068 76.29772584247372 345.35616176512644 72.916057467234"/><polygon points="392.1726506260094 54.26705102086002 418.49401604065724 54.31410563808877 418.8976458555104 73.68589436191124 391.7690208111562 73.73294897913998"/><polygon points="454.9282687287738 52.47188452322413 441.0717312712261 53.29560930705098 481.13851681000693 74.70439069294902 414.86148318999295 75.52811547677587"/><polygon points="504.64256068420815 55.43402064190973 476.6907726491251 51.419653461102165 526.373483476496 76.58034653889784 454.9598498568373 72.56597935809026"/><polygon points="10.666666666666666 97.70616556998988 32 91.96662487944519 32 121.36670845388812 10.666666666666666 115.62716776334344"/><polygon points="51.963530963807635 96.50761499574027 76.03646903619236 101.02209332353324 74.3098073721209 112.31124000980007 53.69019262787911 116.82571833759305"/><polygon points="100.54789926858365 95.16598064875785 112.78543406474967 97.22792206293165 114.55595491100952 116.10541127040166 98.77737842232379 118.16735268457546"/><polygon points="133.720693144085 95.55436432818092 164.94597352258168 100.52519820133296 164.8644343039435 112.80813513200036 133.80223236272317 117.77896900515239"/><polygon points="178.44002409738124 91.85039988015734 205.55997590261876 99.61277794521149 194.20801889214184 113.72055538812182 189.79198110785816 121.48293345317597"/><polygon points="224.1711263577715 99.83805789079237 245.16220697556182 93.37279024658952 240.22299027550883 119.9605430867438 229.11034305782448 113.49527544254094"/><polygon points="262.13705570862214 92.68463919248391 292.5296109580445 97.47902253971785 293.83726011739986 115.85431079361547 260.82940654926676 120.6486941408494"/><polygon points="306.95439421960924 95.68379428349614 333.04560578039064 95.03018600492302 342.6710436520563 118.30314732841029 297.3289563479436 117.64953904983717"/><polygon points="341.4448853679255 100.29922461130064 383.88844796540775 100.64407602527572 353.4251082546989 112.68925730805759 371.90822507863436 113.03410872203267"/><polygon points="398.71144102566427 91.41524813107277 411.95522564100236 97.39250732425633 397.7291275319299 115.94082600907699 412.9375391347367 121.91808520226054"/><polygon points="458.486564933657 101.00100166048915 437.5134350663429 98.36666002930909 462.24315229674954 114.96667330402423 433.75684770325034 112.33233167284416"/><polygon points="487.18159494408053 100.21470103035854 494.1517383892527 94.62464876618718 502.11962490363254 118.70868456714614 479.2137084297007 113.11863230297477"/><polygon points="10.666666666666666 134.16870510796412 32 139.22156881026095 32 159.44509785640574 10.666666666666666 164.49796155870257"/><polygon points="51.63225531244932 146.6188214932019 76.36774468755068 137.89053827090268 73.35959406732552 160.776128395764 54.64040593267448 152.0478451734648"/><polygon points="95.90752880240396 146.2674413706765 117.42580453092935 146.6333958660212 117.23669049123215 152.03327080064548 96.09664284210116 152.3992252959902"/><polygon points="133.9424984354087 146.29903130482282 164.72416823125798 133.13040168516216 161.3812224301218 165.53626498150453 137.2854442365449 152.36763536184387"/><polygon points="189.84000564217877 138.85398215677304 194.15999435782123 132.79590369086776 196.4019351027984 165.87076297579893 187.5980648972016 159.81268450989364"/><polygon points="223.16920842264818 143.09718694006634 246.16412491068513 141.0489697219602 244.55063939342313 157.6176969447065 224.7826939399102 155.56947972660035"/><polygon points="258.4790298126445 135.78262542974696 296.1876368540221 133.71226649319155 301.9389247917323 164.95440017347514 252.72774187493434 162.88404123691973"/><polygon points="298.9840804454452 142.63154038856223 341.01591955455467 144.80592750594823 327.7175378805646 153.86073916071845 312.2824621194353 156.03512627810446"/><polygon points="337.1219498460796 138.37168518535142 388.21138348725367 132.89591988553764 354.8744216911835 165.77074678112905 370.45891164214976 160.29498148131526"/><polygon points="378.8516293297124 136.66457496073255 431.8150373369542 142.68502734009897 399.42713161856784 155.98163932656772 411.2395350480988 162.00209170593413"/><polygon points="435.0039738063077 141.55111587099344 460.99602619369216 140.5685671135726 464.613105170753 158.09809955309407 431.3868948292469 157.11555079567324"/><polygon points="504.55545231864596 144.7476824026312 476.7778810146873 140.186385080783 510.12279726664417 158.4802815858837 471.2105360666891 153.9189842640355"/><polygon points="10.666666666666666 180.3555306312129 32 183.66082743461857 32 200.33917256538143 10.666666666666666 203.6444693687871"/><polygon points="54.91459295158624 183.62912698105825 73.08540704841376 181.336811173734 74.30414088306412 202.663188826266 53.69585911693588 200.37087301894175"/><polygon points="93.54964997551697 174.82269276075368 119.78368335781634 171.06435074168257 116.96431225434972 212.93564925831743 96.3690210789836 209.17730723924632"/><polygon points="145.22171159336563 174.07732586846458 153.44495507330106 183.45575245162493 158.6003335236576 200.54424754837507 140.06633314300908 209.92267413153542"/><polygon points="189.96788764497686 183.20546444825038 194.03211235502314 182.9947862402763 195.30401697070894 201.0052137597237 188.69598302929106 200.79453555174962"/><polygon points="224.9252318159771 190.30510696424946 244.40810151735622 190.7324413218684 238.77466117164715 193.2675586781316 230.55867216168616 193.69489303575054"/><polygon points="254.3472251589487 182.00334522818713 300.3194415077179 191.95708991039538 291.06005878750983 192.04291008960462 263.6066078791568 201.99665477181287"/><polygon points="301.66066474034653 177.31568141617697 338.33933525965335 176.260318378144 336.91787196513087 207.739681621856 303.082128034869 206.68431858382303"/><polygon points="354.66903444615735 191.22758775605544 370.6642988871759 177.29117765522116 392.04547927756994 206.70882234477884 333.2878540557633 192.77241224394456"/><polygon points="398.367124197938 185.8568685307022 412.29954246872865 191.03181218822644 425.4557128459751 192.96818781177356 385.21095382069154 198.1431314692978"/><polygon points="458.0269937774142 175.19428794959904 437.9730062225857 184.44091169566462 479.58349859218316 199.55908830433538 416.4165014078167 208.80571205040096"/><polygon points="477.41262798116145 179.18087188232482 503.9207053521718 177.02785536992718 529.0274753993876 206.97214463007282 452.3058579339456 204.81912811767518"/><polygon points="10.666666666666666 214.45868068022318 32 210.66948484799303 32 258.6638484853403 10.666666666666666 254.87465265311013"/><polygon points="54.82000885116827 211.04978551673318 73.17999114883173 227.3328104413604 76.67723601172032 242.0005228919729 51.32276398827968 258.2835478166001"/><polygon points="93.86207809144884 219.55818406348675 119.47125524188448 225.02177464182807 114.85383039987195 244.31155869150524 98.47950293346136 249.77514926984657"/><polygon points="141.27498806489362 222.05649535279494 157.39167860177307 233.36974710428535 165.979950154245 235.96358622904796 132.6867165124217 247.27683798053837"/><polygon points="189.18152403384502 221.1284974079417 194.81847596615498 223.56181354568508 204.46552832754935 245.77151978764823 179.53447167245065 248.20483592539162"/><polygon points="216.42416112254128 211.77121948796935 252.90917221079204 227.4635985500463 250.43734916458078 241.86973478328702 218.89598416875253 257.56211384536397"/><polygon points="264.76299776415857 231.22452507509468 289.90366890250806 224.45601781319866 286.26856910774455 244.87731552013466 268.3980975589221 238.10880825823864"/><polygon points="317.63449214233526 221.51184568515478 322.3655078576646 228.61474393152858 342.4554634120742 240.71858940180473 297.5445365879257 247.82148764817853"/><polygon points="330.85954543549707 225.0023089868086 394.4737878978362 237.0489610757721 381.6922975095705 232.28437225756122 343.64103582376276 244.3310243465247"/><polygon points="376.68631940272405 226.6915908423085 433.9803472639426 236.00009918876654 408.5585472922309 233.33323414456677 402.1081193744357 242.64174249102481"/><polygon points="442.19619347226774 219.47396084802855 453.80380652773215 220.9056072028063 483.81029149444237 248.42772613052702 412.1897085055575 249.85937248530476"/><polygon points="470.95280688153156 226.782915836486 510.3805264518017 235.2254873191157 498.749513526796 234.1078460142176 482.58381980653724 242.5504174968473"/><polygon points="10.666666666666666 258.2056916043543 32 254.82175399195398 32 299.84491267471265 10.666666666666666 296.46097506231234"/><polygon points="50.722717942744296 257.1449765419539 77.2772820572557 273.9995270933066 72.90882308032998 280.66713957336003 55.09117691967002 297.52169012471273"/><polygon points="91.00216217223932 269.3765442625231 122.33117116109399 277.5952683636789 121.4064324517152 277.07139830298775 91.92690088161811 285.2901224041435"/><polygon points="132.87350892606813 278.4043305580789 165.79315774059856 269.73072882673404 155.52048449946204 284.9359378399326 143.14618216720464 276.2623361085877"/><polygon points="180.70162494249246 272.01992018369407 203.29837505750754 277.56889168640714 200.1871736896581 277.0977749802595 183.8128263103419 282.64674648297256"/><polygon points="212.87949744591813 274.6634641976114 256.45383588741515 267.8245451438589 236.58528686022117 286.8421215228077 232.74804647311214 280.0032024690552"/><polygon points="253.0391195256483 263.888601737679 301.62754714101834 261.27378864819445 278.9219886654217 293.3928780184722 275.74467800124495 290.77806492898765"/><polygon points="301.94375973805523 269.0193298761572 338.05624026194465 262.6996480392538 342.7872914280396 291.9670186274128 297.21270857196026 285.6473367905094"/><polygon points="337.272356252099 272.6974015614091 388.0609770812343 264.9315111280534 367.8644906818879 289.73515553861324 357.46884265144536 281.96926510525753"/><polygon points="394.07463907921596 278.8811210716175 416.5920275874507 277.1009621786199 403.11175336257384 277.5657044880467 407.5549133040928 275.78554559504914"/><polygon points="417.6482506562958 257.80073342589685 478.3517493437041 260.9407000179544 466.63158763122266 293.72596664871224 429.36841236877723 296.8659332407698"/><polygon points="499.70643014301425 254.10400115499024 481.626903190319 263.56272652907023 484.11204004732014 291.1039401375964 497.2212932860131 300.56266551167636"/><polygon points="10.666666666666666 320.05645334338226 32 316.3007243113353 32 323.6992756886646 10.666666666666666 319.9435466566176"/><polygon points="51.188877252747666 299.08790774111884 76.81112274725234 316.12591594702025 72.20003774067601 323.87408405297964 55.799962259324 340.91209225888105"/><polygon points="90.83038629645334 294.3555704292435 122.50294703687997 298.64180841373854 117.58290433563884 341.35819158626134 95.75042899769447 345.64442957075636"/><polygon points="136.07423483945578 294.7617914818233 162.5924318272109 315.81223884919206 167.0209822264734 324.18776115080783 131.6456844401933 345.2382085181766"/><polygon points="171.85766265345885 301.36458806299026 212.14233734654115 306.5091648831253 192.46656356785778 333.49083511687456 191.53343643214222 338.6354119370096"/><polygon points="228.27340268792628 295.29519205961265 241.05993064540704 311.7263641240361 252.62708676783592 328.2736358759638 216.7062465654974 344.70480794038724"/><polygon points="282.4518890756328 299.66689191546493 272.21477759103385 302.5610356611786 275.12761251595526 337.4389643388213 279.53905415071137 340.33310808453496"/><polygon points="313.62464278605114 302.7280002145777 326.37535721394875 319.5011421523998 319.2090123271282 320.4988578476001 320.79098767287167 337.27199978542217"/><polygon points="360.27877669579243 316.906029045142 365.0545566375408 292.02923585914925 354.50370814937065 347.97076414085063 370.8296251839626 323.09397095485787"/><polygon points="395.8698326697228 309.4055381885556 414.7968339969438 290.77260450350855 431.1628485051484 349.22739549649134 379.5038181615182 330.59446181144426"/><polygon points="435.70517821399477 316.46066950261417 460.2948217860051 299.99992306111994 480.4774356196467 340.00007693887994 415.5225643803532 323.5393304973857"/><polygon points="479.2982493211855 326.0051421164567 502.03508401214776 300.8183774394291 500.32588929297134 339.18162256057076 481.0074440403619 313.9948578835432"/><polygon points="10.666666666666666 368.98190710584066 32 345.690693154622 32 379.64264017871125 10.666666666666666 356.3514262274926"/><polygon points="54.20747725336779 368.7290094605145 73.79252274663222 364.4625159234698 74.78658725921841 360.87081740986343 53.21341274078159 356.6043238728188"/><polygon points="100.83585646236058 357.78110560574606 112.49747687097273 367.8712096994383 115.0636776246308 357.462123633895 98.26965570870252 367.5522277275872"/><polygon points="134.2365334458386 335.73154688438984 164.43013322082808 345.174827337441 164.16077212940186 380.15850599589226 134.50589453726482 389.6017864489434"/><polygon points="189.68506000785766 361.9408164137107 194.31493999214234 371.61480656385874 198.86647556195973 353.7185267694745 185.13352443804027 363.39251691962255"/><polygon points="228.66080015623254 366.377540892455 240.67253317710077 367.3213175218656 243.06508911607526 358.0120158114677 226.26824421725806 358.95579244087827"/><polygon points="265.52541690506905 345.7769112507958 289.1412497615976 344.9892323421313 273.83655981386204 380.34410099120197 280.8301068528046 379.55642208253744"/><polygon points="303.4825939505686 360.7944473979879 336.51740604943126 335.6092438363885 326.11727689544404 389.72408949694477 313.88272310455585 364.5388859353454"/><polygon points="356.36618090978595 337.53496135525126 368.9671524235473 369.10156711508984 388.019980968999 356.2317662182434 337.31335236433426 387.798371978082"/><polygon points="384.7526644798062 366.39749391616067 425.91400218686044 372.9530847544011 428.46114752924376 352.38024857893214 382.20551913742287 358.9358394171726"/><polygon points="422.3535192446275 362.1690189177764 473.6464807553724 340.6130937422561 451.0077964006756 384.72023959107713 444.9922035993243 363.1643144155569"/><polygon points="507.4907223350724 349.00428585948004 473.84261099826085 340.0723794557981 518.030947042135 385.26095387753514 463.3023862911982 376.3290474738532"/><polygon points="10.666666666666666 390.94958415474173 32 387.7555925329892 32 422.9110741336774 10.666666666666666 419.7170825119249"/><polygon points="52.671681913699615 406.32296351292615 75.32831808630038 390.90481313273875 73.9143959828985 419.7618535339279 54.0856040171015 404.3437031537405"/><polygon points="90.77808354967375 418.33404752441646 122.55524978365956 378.20064601879 116.76482079703067 432.46602064787663 96.56851253630265 392.33261914225017"/><polygon points="135.24912311278794 398.83207555998837 163.41754355387874 410.15877750852263 154.0645732762792 400.507889158144 144.6020933903875 411.83459110667826"/><polygon points="177.6498371724419 391.0387289465072 206.3501628275581 377.15297416269067 209.73885325308297 433.51369250397596 174.26114674691703 419.6279377201594"/><polygon points="221.7893937062354 375.1948495412079 247.54393962709793 401.0279003741073 243.28088989191363 409.63876629255935 226.05244344141968 435.47181712545876"/><polygon points="268.2426163170818 375.399640934064 286.42405034958483 404.7815469242795 276.16411097288403 405.88511974238713 278.5025556937826 435.26702573260263"/><polygon points="325.49663839422624 398.40233170779754 314.50336160577365 405.62395952238916 328.10173513294563 405.0427071442775 311.89826486705425 412.2643349588691"/><polygon points="362.24151910501746 410.84444005197594 363.0918142283158 388.054073858141 386.7727444091331 422.6125928085256 338.56058892420015 399.8222266146907"/><polygon points="391.6479333143197 407.8643421312402 419.01873335234694 386.2781153689708 394.4381159362823 424.3885512976958 416.2285507303843 402.8023245354264"/><polygon points="411.92735834145776 408.56359138560714 484.0726416585421 415.0709061185827 463.13629881029533 395.59576054808394 432.86370118970456 402.1030752810595"/><polygon points="507.46535674857034 414.8549197257534 473.8679765847629 417.32796136059335 510.2672437128651 393.3387053060733 471.0660896204682 395.8117469409132"/><polygon points="10.666666666666666 416.1016142701754 32 435.6027253502699 32 460.39727464973 10.666666666666666 479.8983857298245"/><polygon points="54.02255017941052 427.0748786628309 73.97744982058947 448.0602242391932 72.32330568712744 447.9397757608067 55.676694312872556 468.925121337169"/><polygon points="94.33766823565743 410.71117095444527 118.99566509767588 446.1097450742982 116.0315312987971 449.8902549257017 97.30180203453621 485.2888290455546"/><polygon points="146.331232347103 437.09471881255746 152.3354343195637 441.3369049902668 156.84818608996787 454.66309500973307 141.81848057669882 458.9052811874424"/><polygon points="179.03573168533194 445.5440070679017 204.96426831466806 440.1170860001608 207.5574174891422 455.8829139998391 176.4425825108578 450.4559929320982"/><polygon points="222.83444702703187 421.7454681383069 246.49888630630144 411.24458787522525 256.73202919662214 484.75541212477464 212.60130413671118 474.254531861693"/><polygon points="254.9344133899761 443.77039809102996 299.7322532766905 444.10252854947964 273.68523347755684 451.89747145052024 280.9814331891098 452.2296019089699"/><polygon points="291.21177178845466 426.013701856597 348.78822821154523 413.70347951892734 345.3485411184405 482.29652048107255 294.6514588815594 469.9862981434029"/><polygon points="359.2626228000201 438.7361382775455 366.07071053331316 449.65461400604937 357.834315263449 446.3453859939505 367.49901806988424 457.2638617224544"/><polygon points="398.3560070002666 451.20771099300674 412.31065966640006 421.1838843249419 404.50230451510305 474.816115675058 406.1643621515636 444.79228900699314"/><polygon points="442.87601906309885 439.74186413069674 453.12398093690103 434.4526605600003 451.9602146658512 461.5473394399996 444.0397853341487 456.25813586930315"/><polygon points="475.64445381299674 438.9674390013621 505.6888795203365 421.13343184385866 507.3916644206148 474.8665681561412 473.94166891271846 457.0325609986378"/><polygon points="10.666666666666666 456.1177187357038 32 492.14636391695797 32 489.1869694163753 10.666666666666666 525.2156145976294"/><polygon points="53.9500403993888 501.3188359284625 74.0499596006112 479.6075958506372 73.71520237819895 501.72573748269605 54.28479762180105 480.0144974048708"/><polygon points="93.28073110863319 456.85013381295107 120.05260222470012 487.7044367317415 116.925831250845 493.62889660159175 96.40750208248832 524.4831995203822"/><polygon points="146.0901607569795 504.1883272805132 152.5765059096872 457.95252354996387 159.86617161758383 523.3808097833694 138.80049504908285 477.14500605282007"/><polygon points="176.77438057107136 477.68863329675054 207.22561942892864 483.3624380371005 193.7939660662508 497.97089529623275 190.2060339337492 503.6447000365827"/><polygon points="233.63270098813317 455.8248557641064 235.70063234520015 452.35554652981045 235.19716081383584 528.9777868035228 234.13617251949748 525.5084775692269"/><polygon points="271.70262135591537 504.9259890966135 282.96404531075126 494.3846048231795 273.1520816941299 486.9487285101538 281.51458497253674 476.4073442367198"/><polygon points="324.28008255638036 501.8015809547872 315.7199174436195 499.0558523979351 338.9694268202995 482.27748093539816 301.0305731797004 479.53175237854606"/><polygon points="361.6487944488375 477.0477244767676 363.68453888449574 471.7467324363107 354.71044339192014 509.58660089702255 370.6228899414131 504.28560885656566"/><polygon points="373.5234995468683 479.2904152713785 437.1431671197983 498.32677090491063 436.15928036810845 483.0065624284226 374.5073862985582 502.04291806195477"/><polygon points="412.5723802112291 507.4860001329099 483.4276197887708 490.7694077462343 447.86393690173196 490.56392558709894 448.1360630982679 473.84733320042335"/><polygon points="497.85382904803004 459.8951589181255 483.4795042853032 509.09048661061814 516.577253775795 472.2428467227151 464.7560795575382 521.4381744152078"/>
</svg>
