<?xml version="1.0" encoding="UTF-8"?>
<svg xmlns="http://www.w3.org/2000/svg" id="RSSicon" viewBox="0 0 512 512" width="512" height="512">
  <defs>
    <style type="text/css">
      svg {
        background: black;
        margin: calc(50vh - 256px) auto 0;
      }
      
      polygon {stroke: darkorange; fill: none;}
    </style>
  </defs>
  <polygon points="10.666666666666666 10.666666666666666 32 10.666666666666666 32 32 10.666666666666666 32"/><polygon points="51.3056007183253 10.666666666666666 76.6943992816747 10.666666666666666 73.24176867374902 32 54.75823132625097 32"/><polygon points="90.80407843679977 10.666666666666666 122.52925489653354 10.666666666666666 116.78590811443723 32 96.54742521889608 32"/><polygon points="139.21532124004932 10.666666666666666 159.45134542661737 10.666666666666666 167.69574400972698 32 130.9709226569397 32"/><polygon points="177.71148322351243 10.666666666666666 206.28851677648757 10.666666666666666 197.5280394731899 32 186.4719605268101 32"/><polygon points="232.16811203857745 10.666666666666666 237.16522129475587 10.666666666666666 248.38045676813135 32 220.95287656520196 32"/><polygon points="279.051693290812 10.666666666666666 275.6149733758546 10.666666666666666 274.59236210729733 32 280.0743045593693 32"/><polygon points="304.4795697569691 10.666666666666666 335.5204302430308 10.666666666666666 343.89469487944785 32 296.10530512055203 32"/><polygon points="341.93080974287767 10.666666666666666 383.4025235904556 10.666666666666666 358.3709880781786 32 366.9623452551547 32"/><polygon points="376.47160116888745 10.666666666666666 434.1950654977792 10.666666666666666 409.7131104742458 32 400.9535561924208 32"/><polygon points="445.25423056490166 10.666666666666666 450.7457694350982 10.666666666666666 436.5090332808568 32 459.4909667191431 32"/><polygon points="503.4932950749653 10.666666666666666 477.84003825836794 10.666666666666666 521.772064268775 32 459.5612690645583 32"/><polygon points="10.666666666666666 54.465769741527765 32 53.76158712056128 32 74.23841287943871 10.666666666666666 73.53423025847223"/><polygon points="52.53043816938779 53.45460655332824 75.46956183061221 55.514905056220776 73.05750333865842 72.48509494377922 54.94249666134157 74.54539344667177"/><polygon points="93.8863047401567 54.159751897920664 119.44702859317661 54.101066661020134 120.46579651434453 73.89893333897987 92.86753681898878 73.84024810207933"/><polygon points="136.35828423828005 54.18106673030922 162.30838242838664 55.7685746033097 167.03159334607324 72.2314253966903 131.63507332059345 73.81893326969077"/><polygon points="187.1800110905962 54.880659084857456 196.8199889094038 54.05439202222564 209.98198663838534 73.94560797777436 174.01801336161466 73.11934091514254"/><polygon points="216.02166787985314 51.76187492757218 253.31166545348017 52.380635901089 234.5714433110776 75.619364098911 234.76189002225573 76.23812507242782"/><polygon points="275.82540570170823 53.76285111809066 278.8412609649584 54.142652894696944 282.9977037033277 73.85734710530306 271.6689629633389 74.23714888190935"/><polygon points="298.3118982981616 53.432113066410395 341.68810170183826 54.10460752279799 338.59222423477274 73.89539247720201 301.40777576522714 74.5678869335896"/><polygon points="347.565376475941 54.73579280373382 377.7679568573923 52.107774255561765 363.7742608500095 75.89222574443824 361.55907248332375 73.26420719626617"/><polygon points="396.68767304284137 53.0709970705503 413.97899362382526 50.67291636485365 410.0036026016736 77.32708363514635 400.663064064993 74.92900292944971"/><polygon points="448.19976660663923 51.472818739302454 447.80023339336066 53.00312689436534 459.61771574710866 74.99687310563466 436.3822842528912 76.52718126069755"/><polygon points="508.20415136202837 54.825370343194315 473.1291819713049 52.01243644147977 511.4696262476 75.98756355852024 469.86370708573327 73.17462965680569"/><polygon points="10.666666666666666 94.60968235315914 32 91.35813525956532 32 121.975198073768 10.666666666666666 118.72365098017417"/><polygon points="53.616376133007634 92.08527087679826 74.38362386699237 94.24286902295401 74.34521221878097 119.0904643103793 53.654787781219035 121.24806245653505"/><polygon points="92.17201232216736 99.80275556788315 121.16132101116595 96.28655377043032 119.18189153682545 117.046779562903 94.15144179650787 113.53057776545016"/><polygon points="132.20557620525275 90.92852604496599 166.46109046141393 94.85793745288011 166.66640845308098 118.4753958804532 132.0002582135857 122.40480728836732"/><polygon points="187.02406745685727 96.1831577854033 196.97593254314273 95.19609608261159 195.5970418753765 118.13723725072172 188.4029581246235 117.15017554793002"/><polygon points="211.74305247023753 100.99959000504253 257.59028086309576 100.3119935267964 241.79475224622314 113.02133980653691 227.53858108711017 112.33374332829078"/><polygon points="253.8730660945168 91.37985984375604 300.79360057214984 97.03834275755317 303.23139243885447 116.29499057578015 251.4352742278122 121.95347348957728"/><polygon points="319.04942736587736 96.10044078089032 320.9505726341225 99.43107564578864 312.2047721817656 113.90225768754468 327.7952278182343 117.23289255244299"/><polygon points="367.6207170779391 99.09038260475583 357.71261625539415 94.29623122048224 387.47429790678933 119.03710211285107 337.8590354265439 114.24295072857748"/><polygon points="418.2760026066912 95.76510215135526 392.39066405997545 96.63131855016542 396.2528051382752 116.7020147831679 414.4138615283914 117.56823118197805"/><polygon points="425.33407036620434 92.39258941103685 470.66592963379554 90.76329814982331 472.8181742057026 122.57003518351 423.1818257942973 120.94074392229646"/><polygon points="498.21326660495953 98.71500148377687 483.12006672837373 98.88963931443709 481.3439907443956 114.44369401889622 499.98934258893763 114.61833184955644"/><polygon points="10.666666666666666 141.56210506138274 32 144.37658766319407 32 154.2900790034726 10.666666666666666 157.10456160528395"/><polygon points="52.98799438783641 135.02821021772726 75.01200561216359 135.80791024523364 75.83855665448581 162.85875642143304 52.16144334551419 163.63845644893942"/><polygon points="96.7427247572947 144.08041270369424 116.59060857603862 131.74458496185994 118.36765527537054 166.92208170480674 94.96567805796278 154.58625396297245"/><polygon points="146.19206216790354 135.34805674126312 152.47460449876314 136.844799512512 155.88113317335163 161.8218671541547 142.78553349331506 163.31860992540356"/><polygon points="178.16569005216533 145.32790022362312 205.83430994783467 138.7929596858591 202.45564983408963 159.87370698080758 181.54435016591037 153.33876644304357"/><polygon points="218.67244243053062 137.5790633381208 250.6608909028027 144.48779459307934 252.92920276842523 154.17887207358734 216.4041305649081 161.0876033285459"/><polygon points="272.45753835232546 139.20796454835582 282.20912831434117 143.74778861337398 300.68460755798594 154.9188780532927 253.9820591086807 159.45870211831087"/><polygon points="296.11272781587957 137.10530644952289 343.8872721841203 133.19347908530122 344.3020460455751 165.47318758136547 295.6979539544248 161.5613602171438"/><polygon points="367.2882935472368 135.12366302258937 358.0450397860965 144.59477603532886 394.10778999955926 154.07189063133782 331.225543333774 163.54300364407732"/><polygon points="382.1279639546178 140.471643123252 428.5387027120488 140.94695740027294 432.1390731890751 157.71970926639375 378.52759347759155 158.1950235434147"/><polygon points="413.83174966355847 139.46761796585753 482.1682503364414 139.83672487570098 456.75019872409524 158.8299417909657 439.24980127590464 159.19904870080916"/><polygon points="505.66891105692855 134.3001435840811 475.6644222764047 133.97753168387052 486.0853224613496 164.68913498279616 495.24801087198364 164.3665230825856"/><polygon points="10.666666666666666 174.3996240248176 32 172.35092992738703 32 211.64907007261297 10.666666666666666 209.6003759751824"/><polygon points="54.22107491254956 179.50168057965402 73.77892508745043 184.31857206267927 75.16664208819486 199.68142793732073 52.833357911805145 204.49831942034598"/><polygon points="91.34529095694053 181.015093005799 121.98804237639278 172.94701076216347 115.33956557639053 211.05298923783653 97.99376775694279 202.984906994201"/><polygon points="142.40701750438802 179.38035273635074 156.25964916227866 179.83547778449622 164.18276799950357 204.16452221550378 134.48389866716312 204.61964726364926"/><polygon points="173.31669438728275 172.74497073123362 210.68330561271725 189.83523680832894 202.25903952275638 194.16476319167106 181.74096047724362 211.25502926876638"/><polygon points="234.09541673021536 190.07268252165088 235.23791660311795 184.9799572606855 242.33135229233721 199.0200427393145 227.0019810409961 193.92731747834912"/><polygon points="262.9449844335209 177.88985601402555 291.7216822331457 185.09394136828965 279.4618036619799 198.90605863171035 275.20486300468673 206.11014398597445"/><polygon points="320.43759569780906 186.75105953245097 319.5624043021908 187.43399754365242 319.14281698329097 196.56600245634758 320.8571830167089 197.24894046754903"/><polygon points="333.27088438598275 174.00777672241523 392.0624489473505 177.90253556021833 391.50205379140596 206.09746443978167 333.8312795419273 209.99222327758477"/><polygon points="408.2778606085501 182.07210817554926 402.38880605811653 180.05055046379874 405.492515737168 203.94944953620126 405.17415092949864 201.92789182445074"/><polygon points="432.59056238522055 188.30401812007324 463.40943761477934 178.32897326854874 484.1182839249661 205.67102673145126 411.8817160750338 195.69598187992676"/><polygon points="488.4333094162707 189.0680545561944 492.9000239170626 181.69489730527354 478.0380771780123 202.30510269472646 503.29525615532094 194.9319454438056"/><polygon points="10.666666666666666 236.9743933045401 32 225.7612915336777 32 243.5720417996556 10.666666666666666 232.35894002879323"/><polygon points="54.4760819340964 225.11809308996362 73.5239180659036 231.84766651121325 76.408269842398 237.48566682212007 51.59173015760201 244.2152402433697"/><polygon points="98.50347818504935 221.34109264150635 114.82985514828397 236.9802783254729 117.66903180324333 232.3530550078604 95.66430153008999 247.99224069182696"/><polygon points="142.1712351503418 211.1701184952948 156.49543151632489 219.67541791425526 163.4953003761876 249.65791541907805 135.17136629047909 258.1632148380385"/><polygon points="181.96458333714872 236.98990305956062 202.03541666285128 217.94074248575632 194.94251593387077 251.392590847577 189.05748406612923 232.3434302737727"/><polygon points="221.53056189894266 226.89810407041702 247.80277143439065 223.05983893462258 257.4562537865076 246.27349439871074 211.8770795468257 242.4352292629163"/><polygon points="254.21434419887487 236.41190152551275 300.45232246779176 229.17500171035354 287.79475625028255 240.15833162297977 266.8719104163841 232.92143180782057"/><polygon points="316.79630126075074 218.52165377533888 323.20369873924915 222.56787514937935 339.86930399034304 246.76545818395397 300.13069600965684 250.81167955799444"/><polygon points="359.15106503767 220.5677182828886 366.1822682956633 223.1195442278495 366.7512800970846 246.2137891054838 358.58205323624867 248.76561505044472"/><polygon points="389.276274565006 214.02185887316696 421.3903921016606 225.40197498337406 410.1048801834968 243.93135834995925 400.56178648316984 255.31147446016635"/><polygon points="426.85742679480427 214.93890480393256 469.1425732051956 231.02359758523895 476.9440110489643 238.30973574809437 419.0559889510356 254.39442852940076"/><polygon points="486.32287142722225 222.11980631246595 495.010461906111 229.61560345576365 486.1326120741621 239.71772987756967 495.20072125917113 247.21352702086736"/><polygon points="10.666666666666666 254.84559379978094 32 261.17585322111535 32 293.4908134455513 10.666666666666666 299.8210728668857"/><polygon points="51.25078522751831 251.0281637558777 76.7492147724817 261.4304861748713 72.50982540494009 293.2361804917953 55.490174595059905 303.63850291078893"/><polygon points="94.80189364476274 262.3492281885145 118.53143968857057 278.8559946273471 116.80543429217738 275.8106720393195 96.52789904115593 292.31743847815216"/><polygon points="139.6286262842518 257.6263886087579 159.0380403824149 278.0580465967722 167.37197552046356 276.6086200698944 131.29469114620312 297.0402780579087"/><polygon points="186.7245612304484 279.17692819517345 197.2754387695516 264.5623485371975 209.67413823501442 290.1043181294691 174.32586176498558 275.4897384714932"/><polygon points="219.42685847547418 276.66768488078594 249.90647485785914 258.64200801631904 257.18727130990993 296.0246586503476 212.14606202342338 277.9989817858807"/><polygon points="274.5573281278706 262.91456430785365 280.109338538796 277.1029241722731 292.89368116581136 277.5637424943935 261.77298550085527 291.752102358813"/><polygon points="315.18055278600724 261.5426705937029 324.81944721399265 270.4695720615677 345.014182920963 284.1970946050989 294.9858170790369 293.12399607296373"/><polygon points="365.22959034775795 270.65733137045044 360.1037429855753 253.25047431792723 388.16513841240527 301.4161923487394 337.168194920928 284.0093352962162"/><polygon points="416.37597577629106 274.8615525005834 394.2906908903756 260.6884697622795 434.49693002282805 293.9781969043871 376.1697366438386 279.80511416608323"/><polygon points="461.3140700268658 263.53681731852953 434.6859299731341 264.1637484820383 482.20998887560864 290.50291818462836 413.79001112439124 291.1298493481371"/><polygon points="502.8276836292827 262.5496197064197 478.50564970405054 258.562962471517 475.3238237067619 296.10370419514965 506.00950962657134 292.1170469602469"/><polygon points="10.666666666666666 326.94703107073843 32 305.98536575689576 32 334.0146342431041 10.666666666666666 313.05296892926145"/><polygon points="50.94650845463518 296.15600128039017 77.05349154536482 319.27405311750744 74.72777091001981 320.72594688249245 53.27222908998019 343.8439987196097"/><polygon points="91.14179954112147 295.2866825814526 122.19153379221184 308.57411579370347 113.4861618250116 331.4258842062964 99.84717150832171 344.71331741854726"/><polygon points="145.450799222424 311.7322223469942 153.2158674442427 316.0175558786128 162.771072035151 323.98244412138706 135.89559463151568 328.2677776530057"/><polygon points="172.30745678941736 327.5503468958866 211.69254321058264 297.37298835411264 209.3957322428439 342.62701164588725 174.6042677571561 312.4496531041133"/><polygon points="210.9890753632056 310.69198772796994 258.3442579701277 314.58981819705775 253.5846833276068 325.41018180294213 215.74865000572652 329.30801227202994"/><polygon points="279.99299301257594 297.8140643365495 274.6736736540907 296.26012538161564 288.0695738057255 343.73987461838425 266.59709286094113 342.1859356634504"/><polygon points="300.7414994381853 297.0128434438447 339.25850056181457 301.49717362229075 336.59872399682183 338.50282637770914 303.40127600317805 342.9871565561552"/><polygon points="331.314107874169 297.6385236106037 394.01922545916426 292.1484629292004 358.32873046057426 347.8515370707995 367.004602872759 342.36147638939616"/><polygon points="397.0584095429157 308.14779192329075 413.60825712375095 295.2252816167613 428.49372229887325 344.77471838323856 382.1729443677934 331.85220807670913"/><polygon points="435.85335385251864 326.25533869308055 460.14664614748125 291.52663461145295 466.25145876807363 348.47336538854694 429.74854123192625 313.74466130691934"/><polygon points="470.37990974663063 320.2682458156307 510.9534235867026 318.3757194614948 480.194944519767 321.6242805385051 501.1383888135663 319.7317541843692"/><polygon points="10.666666666666666 345.57385863515674 32 339.6486115199217 32 385.68472181341156 10.666666666666666 379.7594746981765"/><polygon points="52.253194898091365 370.54064224143065 75.74680510190863 343.7255463877914 74.16652283296834 381.6077869455419 53.83347716703166 354.7926910919026"/><polygon points="100.066696443946 344.416254634402 113.26663688938731 357.8751096957901 118.6634002330467 367.45822363754314 94.66993310028661 380.9170786989313"/><polygon points="134.21700919372213 334.0268888404511 164.44965747294455 338.97023945437064 152.79440903903912 386.3630938789626 145.87225762762756 391.3064444928822"/><polygon points="182.26692272892706 352.8295096975271 201.73307727107294 373.2111700388702 197.02640839018014 352.12216329446306 186.97359160981986 372.50382363580616"/><polygon points="228.44456287040938 365.1582774145528 240.88877046292393 373.32208644016424 233.22019270975306 352.011246893169 236.11314062358025 360.17505591878046"/><polygon points="280.33272769480146 332.68811095958733 274.33393897186517 358.800857446306 292.0023622727171 366.53247588702726 262.6643043939495 392.6452223737459"/><polygon points="313.68518824423745 359.282478941661 326.31481175576243 343.8984270341284 346.1352488380264 381.43490629920484 293.86475116197346 366.05085439167226"/><polygon points="371.624494854588 365.5598267620647 353.70883847874524 353.5626504869656 360.25384055335405 371.77068284636766 365.0794927799792 359.77350657126857"/><polygon points="402.47832323191295 364.46823076458384 408.1883434347537 352.34446624878433 411.2851601928861 372.98886708454893 399.3815064737805 360.8651025687494"/><polygon points="422.9994883543922 358.36039286931657 473.0005116456077 354.676905729613 478.0814746263252 370.65642760372026 417.9185253736747 366.9729404640167"/><polygon points="502.4826663172406 336.6619787598323 478.85066701609264 359.1154918738755 521.2439085570587 366.21784145945776 460.08942477627454 388.67135457350093"/><polygon points="10.666666666666666 373.23928478827884 32 393.2328409411655 32 417.43382572550115 10.666666666666666 437.4273818783878"/><polygon points="51.285756972656706 414.2538165909133 76.7142430273433 375.04236742623834 72.72410636892133 435.6242992404283 55.275893631078674 396.41285007575334"/><polygon points="93.45027991458997 407.08295461697037 119.88305341874334 383.789637827778 120.92862481785058 426.87702883888863 92.40470851548274 403.58371204969626"/><polygon points="145.5605179619763 413.2151550160171 153.10614870469038 410.7036160586843 164.18335114649182 399.9630506079823 134.48331552017487 397.45151165064954"/><polygon points="189.59403494713027 418.61145914021057 194.40596505286973 400.41400966811483 200.31986617307865 410.2526569985518 183.68013382692135 392.05520752645606"/><polygon points="236.68495235945585 413.84708756824324 232.64838097387747 386.3440335447899 238.15027790926763 424.3226331218767 231.18305542406569 396.8195790984234"/><polygon points="253.0893485352186 394.4402409790767 301.577318131448 391.4488577079804 297.9726205233398 419.21780895868625 256.69404614332683 416.22642568758994"/><polygon points="294.741140295671 375.51685831137655 345.25885970432887 406.273559014622 318.7963824096886 404.39310765204465 321.2036175903113 435.1498083552901"/><polygon points="360.67814557904256 382.4596900534808 364.6551877542907 398.81312984075356 378.85452866212853 411.85353682591307 346.4788046712047 428.2069766131858"/><polygon points="391.8619699678478 387.1621673712539 418.8046966988188 400.47505991808 415.59096158600704 410.19160674858665 395.0757050806596 423.50449929541276"/><polygon points="415.4937785267457 409.9905650510941 480.5062214732542 403.89228035474076 446.7883065644452 406.77438631192587 449.2116934355547 400.6761016155725"/><polygon points="485.3132889030944 396.5393646139523 496.02004443023884 382.63078649113424 484.33445221445254 428.0358801755324 496.9988811188807 414.12730205271436"/><polygon points="10.666666666666666 457.79621184544504 32 426.3664750258845 32 469.6335249741154 10.666666666666666 438.20378815455484"/><polygon points="55.28560473997145 434.37458993828545 72.71439526002855 444.273685378554 76.40718428281154 451.7263146214459 51.592815717188465 461.62541006171443"/><polygon points="90.94656314241254 461.20601611939907 122.38677019092077 419.62906433823184 116.23739187705817 476.37093566176804 97.09594145627514 434.7939838806008"/><polygon points="139.76331798800766 414.9249539921517 158.90334867865903 416.38423954982466 160.27417756315094 479.61576045017523 138.39248910351574 481.0750460078482"/><polygon points="177.81233522615992 454.1580086859458 206.18766477384008 422.7849653760513 203.2423884429948 473.2150346239486 180.7576115570052 441.8419913140541"/><polygon points="210.6851465288039 413.7015266763374 258.6481868045294 429.6088031373442 255.29825660939494 466.3911968626557 214.03507672393837 482.2984733236625"/><polygon points="250.81657085123783 411.01594259454293 303.8500958154288 427.922365284804 301.86611135113895 468.07763471519587 252.80055531552765 484.98405740545695"/><polygon points="292.6798560679789 422.9431088651245 347.320143932021 438.73260551746097 321.2786637832518 457.2673944825389 318.7213362167481 473.0568911348754"/><polygon points="346.94759701248466 449.49213641052785 378.3857363208486 458.7557930284485 360.6617223430429 437.24420697155136 364.67161099029033 446.50786358947204"/><polygon points="378.6557299365782 461.9847350246644 432.0109367300884 458.4698225881187 422.26602644408587 437.5301774118812 388.40064022258076 434.01526497533547"/><polygon points="448.01578288899157 462.5125267239856 447.9842171110083 426.96794239771737 468.8225986546498 469.0320576022825 427.17740134535006 433.48747327601427"/><polygon points="475.1138462276773 433.1685885331601 506.21948710565596 449.9325855905857 481.2180989595007 446.0674144094142 500.11523437383255 462.83141146683977"/><polygon points="10.666666666666666 457.16647968280824 32 475.2480654507934 32 506.0852678825399 10.666666666666666 524.166853650525"/><polygon points="55.13500203306633 503.34562925966696 72.86499796693367 506.6767423911736 75.86303173200704 474.65659094215965 52.136968267992955 477.9877040736663"/><polygon points="94.83319322773018 462.7417500881088 118.50014010560314 493.42862013735447 120.9571476067898 487.9047131959788 92.37618572654351 518.5915832452245"/><polygon points="134.1510447987044 479.2625302503819 164.5156218679623 465.1722115682833 154.5059440364225 516.16112176505 144.16072263024418 502.0708030829514"/><polygon points="177.9485645273303 467.73498946860843 206.0514354726697 462.85120003493415 194.73358978667662 518.482133298399 189.26641021332338 513.5983438647248"/><polygon points="235.32872907873434 494.54309934593533 234.00460425459897 501.0572874374284 241.29001821338508 480.2760458959049 228.04331511994823 486.7902339873979"/><polygon points="280.8665512701283 485.6344640657543 273.80011539653833 482.25691237775374 287.78764759389895 499.0764209555795 266.8790190727677 495.69886926757897"/><polygon points="318.44383874168614 478.2608378271986 321.55616125831375 484.0693827069326 330.1540458028474 497.2639506264007 309.8459541971525 503.07249550613466"/><polygon points="343.89175600028517 458.34130223307284 381.4415773330481 455.60299394917126 354.36669095543175 525.730339384162 370.9666423779015 522.9920311002604"/><polygon points="377.5702564053728 469.57963326194215 433.09641026129384 465.8941802670449 428.44549391147 515.4391530662884 382.2211727551966 511.7537000713911"/><polygon points="440.7914513611256 451.35726357748905 455.2085486388743 469.0527348715639 469.19435467668734 512.2805984617694 426.80564532331255 529.9760697558443"/><polygon points="481.45295503271973 485.12433990374143 499.88037830061353 453.8123061008682 525.2151951259382 527.521027232465 456.11813820739513 496.2089934295918"/>
</svg>
