<?xml version="1.0" encoding="UTF-8"?>
<svg xmlns="http://www.w3.org/2000/svg" id="RSSicon" viewBox="0 0 512 512" width="512" height="512">
  <defs>
    <style type="text/css">
      svg {
        background: black;
        margin: calc(50vh - 256px) auto 0;
      }
      
      polygon {stroke: darkorange; fill: none;}
    </style>
  </defs>
  <polygon points="10.666666666666666 10.666666666666666 32 10.666666666666666 32 32 10.666666666666666 32"/><polygon points="51.24393590982659 10.666666666666666 76.75606409017341 10.666666666666666 73.5753325778583 32 54.424667422141695 32"/><polygon points="97.54590396363443 10.666666666666666 115.78742936969888 10.666666666666666 115.67006150645794 32 97.66327182687537 32"/><polygon points="132.51195412470238 10.666666666666666 166.1547125419643 10.666666666666666 155.72923271823987 32 142.93743394842681 32"/><polygon points="191.11544834969928 10.666666666666666 192.88455165030072 10.666666666666666 209.78920840648104 32 174.21079159351896 32"/><polygon points="227.37415119333457 10.666666666666666 241.95918213999875 10.666666666666666 250.19281219346115 32 219.14052113987216 32"/><polygon points="264.52522997499386 10.666666666666666 290.14143669167277 10.666666666666666 279.87288147243396 32 274.79378519423267 32"/><polygon points="322.80303632099196 10.666666666666666 317.1969636790079 10.666666666666666 332.9745779848732 32 307.0254220151267 32"/><polygon points="355.85884998286326 10.666666666666666 369.47448335047 10.666666666666666 384.8741825088181 32 340.4591508245152 32"/><polygon points="412.96018478629657 10.666666666666666 397.70648188037006 10.666666666666666 438.84982628788964 32 371.816840378777 32"/><polygon points="454.191371742059 10.666666666666666 441.8086282579409 10.666666666666666 457.0382011612515 32 438.9617988387484 32"/><polygon points="494.9877875531471 10.666666666666666 486.34554578018617 10.666666666666666 504.10999848335706 32 477.2233348499762 32"/><polygon points="10.666666666666666 51.18417622852354 32 53.20374465298281 32 74.7962553470172 10.666666666666666 76.81582377147646"/><polygon points="52.24986835839217 53.88541326988164 75.75013164160782 53.348802274811526 74.32715526772188 74.65119772518847 53.67284473227812 74.11458673011836"/><polygon points="94.40170324504344 53.010399921231 118.93163008828988 53.254734999915584 114.34804031317861 74.74526500008442 98.9852930201547 74.989600078769"/><polygon points="136.45676276510497 52.57103060673726 162.20990390156172 50.8839534565236 155.9530167054441 77.1160465434764 142.7136499612226 75.42896939326275"/><polygon points="191.41025847453687 51.272017755978666 192.58974152546313 51.15495807007542 193.14989956401686 76.84504192992458 190.85010043598314 76.72798224402133"/><polygon points="217.9293277385559 52.68433328983367 251.4040055947774 52.12310420113893 257.02728408991936 75.87689579886107 212.30604924341398 75.31566671016634"/><polygon points="251.7989041510364 54.501010867244815 302.86776251563026 55.99367090393932 289.1330384026859 72.00632909606068 265.53362826398075 73.49898913275518"/><polygon points="306.8718079225025 52.78510154539096 333.1281920774974 51.79928624508852 317.1853174387052 76.20071375491149 322.81468256129466 75.21489845460904"/><polygon points="343.60823900579476 51.70038305321529 381.7250943275385 52.99148073941431 394.2392349509582 75.0085192605857 331.0940983823751 76.29961694678471"/><polygon points="386.8827000244131 52.928660287137625 423.7839666422535 55.12354576996865 438.3412636022938 72.87645423003134 372.32540306437284 75.07133971286238"/><polygon points="461.5594594453672 55.77409606317536 434.44054055463266 52.50806335195064 478.01784938361743 75.49193664804936 417.98215061638246 72.22590393682464"/><polygon points="506.9618384920394 54.733205435062104 474.37149484129384 52.01324373145343 525.8110221023584 75.98675626854657 455.5223112309749 73.2667945649379"/><polygon points="10.666666666666666 95.3543533063697 32 94.91770370176003 32 118.41562963157328 10.666666666666666 117.97898002696361"/><polygon points="54.551553895754395 98.09897795380321 73.4484461042456 93.27984600700421 75.54094990574067 120.0534873263291 52.459050094259325 115.2343553795301"/><polygon points="95.8766684021082 92.53156971676864 117.45666493122512 99.197923846733 119.76952860621576 114.13540948660031 93.56380472711756 120.80176361656467"/><polygon points="133.29653353014078 93.57553563025431 165.3701331365259 98.33511570811439 163.33340998431714 114.99821762521893 135.33325668234954 119.757797703079"/><polygon points="180.82209662090636 92.2441773615587 203.17790337909364 91.34737602736905 199.1504975339717 121.98595730596426 184.8495024660283 121.08915597177462"/><polygon points="230.51778227289086 92.05552236024074 238.81555106044246 98.5271904320816 233.56702539322924 114.80614290125172 235.76630794010407 121.27781097309257"/><polygon points="282.4361166524923 101.27315614649459 272.23055001417436 99.67971093638252 295.32402246644756 113.6536223969508 259.34264420021907 112.06017718683873"/><polygon points="302.44873786378287 95.8371199992973 337.551262136217 93.05852022142409 333.90303682406625 120.27481311190922 306.09696317593364 117.49621333403601"/><polygon points="358.28513060235406 100.42210828736711 367.0482027309792 101.13308328525726 356.44457159923826 112.20025004807606 368.888761734095 112.9112250459662"/><polygon points="403.7486503084535 97.86170820364522 406.91801635821315 97.96642020181423 402.8368347817725 115.36691313151908 407.82983188489413 115.47162512968809"/><polygon points="423.25914976630787 100.9452990190991 472.740850233692 97.25535103690356 468.1382255866729 116.07798229642975 427.861774413327 112.38803431423422"/><polygon points="483.06930912491424 97.42687186340542 498.264024208419 100.44207993629618 499.8815038907587 112.89125339703713 481.45182944257454 115.90646146992789"/><polygon points="10.666666666666666 135.61520098573106 32 140.79083669940047 32 157.8758299672662 10.666666666666666 163.05146568093562"/><polygon points="55.49339195882601 139.59512732823774 72.50660804117399 136.87425360917385 73.45299859044657 161.79241305749284 54.547001409553424 159.07153933842895"/><polygon points="99.74920781904602 142.2745272546976 113.5841255142873 133.91693558810954 117.84393682090223 164.74973107855715 95.48939651243109 156.39213941196908"/><polygon points="137.33271314521218 139.14128910396366 161.3339535214545 145.94910823558592 155.3318840898354 152.71755843108076 143.3347825768313 159.52537756270303"/><polygon points="175.22977710722932 140.84057561967464 208.77022289277068 135.707473203691 201.1039377174149 162.9591934629757 182.8960622825851 157.82609104699205"/><polygon points="226.33366434776588 145.84312732075512 242.99966898556744 132.9232170599421 242.39752015714205 165.7434496067246 226.93581317619126 152.82353934591157"/><polygon points="276.1953129578529 142.15001813278948 278.47135370881375 132.81563973315392 292.0791429748815 165.85102693351277 262.5875236917851 156.5166485338772"/><polygon points="295.42742701180896 142.86736505683547 344.5725729881909 134.7028075105665 322.7421268810722 163.9638591561002 317.2578731189277 155.79930160983122"/><polygon points="360.41375868961916 131.33474217136745 364.9195746437141 131.58949203207493 382.7386729050683 167.07717463459176 342.59466042826494 167.33192449529923"/><polygon points="373.4745562995824 143.24679588362724 437.19211036708424 139.55159021665636 413.89803333918087 159.11507645001032 396.76863332748576 155.41987078303944"/><polygon points="412.99649973217925 134.2499524478471 483.00350026782064 144.46692350141836 465.81492583029 154.19974316524832 430.1850741697099 164.41671421881958"/><polygon points="474.16469762603157 141.13131989914544 507.1686357073017 143.80471370330466 526.3632678527651 154.86195296336203 454.97006548056805 157.53534676752125"/><polygon points="10.666666666666666 184.12205206627743 32 186.94069681012698 32 197.05930318987302 10.666666666666666 199.87794793372257"/><polygon points="50.96826340379795 191.9851206430072 77.03173659620205 185.90488252117103 77.33113038117736 198.09511747882897 50.66886961882264 192.0148793569928"/><polygon points="95.9854237705579 180.18674655012106 117.34790956277541 185.25968873509424 121.61939610677243 198.74031126490576 91.71393722656089 203.81325344987894"/><polygon points="133.44471728529345 187.48748853519277 165.22194938137324 181.44616505982412 160.6269386982594 202.55383494017588 138.03972796840728 196.51251146480723"/><polygon points="188.89840998644183 179.99829407935061 195.10159001355817 176.61554538688074 205.00941508145462 207.38445461311926 178.99058491854538 204.00170592064939"/><polygon points="219.8841911577735 178.9667981119527 249.4491421755598 177.80911561971647 258.3478176679208 206.19088438028353 210.98551566541246 205.0332018880473"/><polygon points="262.38469966776347 181.10392369036325 292.28196699890316 182.25787084536847 303.1113847553363 201.74212915463153 251.5552819113303 202.89607630963675"/><polygon points="323.45575903315 179.20362359034954 316.5442409668499 180.20201611840884 314.8712921630392 203.79798388159116 325.1287078369607 204.79637640965046"/><polygon points="362.088908566467 180.77924275141015 363.24442476686625 177.71777559315956 353.79525151015645 206.28222440684044 371.5380818231768 203.22075724858985"/><polygon points="395.77495910412694 175.07856724182338 414.8917075625397 185.88840297152748 403.79910218624195 198.11159702847252 406.8675644804247 208.92143275817662"/><polygon points="411.3715620450522 183.80485574791948 484.6284379549477 182.64713393995305 460.08397352767685 201.35286606004695 435.91602647232304 200.19514425208052"/><polygon points="451.83299095165825 180.40102638904435 529.500342381675 173.75699552772303 497.3853285069948 210.24300447227697 483.94800482633843 203.59897361095565"/><polygon points="10.666666666666666 213.88997899561525 32 227.11896643835004 32 242.21436689498327 10.666666666666666 255.44335433771806"/><polygon points="55.49481389983656 225.9232174788664 72.50518610016344 214.3068257845755 73.43050651031143 255.02650754875782 54.56949348968857 243.4101158544669"/><polygon points="98.763073424343 236.02063902939716 114.57025990899031 219.1587428857998 120.86138591855439 250.17459044753352 92.47194741477892 233.31269430393615"/><polygon points="133.5751755960025 214.39357618468173 165.09149107066418 215.9066710563145 155.25789494388493 253.4266622770188 143.40877172278175 254.93975714865158"/><polygon points="180.76136907628307 232.87956815856342 203.23863092371693 217.72612705162217 198.77318316061212 251.60720628171114 185.22681683938788 236.4537651747699"/><polygon points="212.32699421237845 224.43802509711972 257.00633912095486 237.2930321097501 253.72940049778828 232.0403012235832 215.60393283554504 244.8953082362136"/><polygon points="262.5188263777602 222.62612033272865 292.1478402889064 213.78293167906202 292.65243353174026 255.5504016542713 262.01423313492637 246.70721300060467"/><polygon points="324.38283499293516 222.262362747589 315.6171650070647 233.09384096678252 321.8986057058066 236.2394923665508 318.1013942941933 247.0709705857443"/><polygon points="370.1933162704738 227.11707068901484 355.14001706285944 210.77798335860604 366.51329119629565 258.5553499747273 358.8200421370376 242.21626264431848"/><polygon points="399.54750431557017 233.46473839123675 411.11916235109646 233.77089106867862 414.34956294104205 235.5624422646547 396.3171037256246 235.86859494209656"/><polygon points="449.70913271113864 215.01054925588662 446.29086728886125 210.91895832716926 474.5424090742499 258.41437500616405 421.45759092574997 254.3227840774467"/><polygon points="476.90801422455576 212.2740863103959 504.4253191087775 223.16523225698256 487.00916646480556 246.16810107635075 494.3241668685277 257.0592470229374"/><polygon points="10.666666666666666 266.7151427494671 32 274.794474659843 32 279.87219200682364 10.666666666666666 287.95152391719955"/><polygon points="55.36173468832966 253.6305690199313 72.63826531167034 266.2720005930823 73.26516074517335 288.39466607358435 54.73483925482665 301.03609764673536"/><polygon points="94.07267752376757 256.3946253568062 119.26065580956575 256.2143091151416 120.70130879045264 298.45235755152504 92.63202454288067 298.2720413098604"/><polygon points="142.0796242591195 275.9734191182814 156.5870424075472 277.2406389058017 160.12194059125733 277.42602776086494 138.54472607540936 278.6932475483852"/><polygon points="170.93719396634162 266.61008576761736 213.06280603365838 256.5097501720736 211.20943858413546 298.156916494593 172.79056141586454 288.05658089904927"/><polygon points="221.95662675829422 272.02294758985437 247.3767065750391 257.74614546091186 246.80345180447495 296.92052120575477 222.52988152885837 282.64371907681226"/><polygon points="278.43497946946167 268.5811236576783 276.23168719720496 279.1387568369042 298.1742965483392 275.52790982976245 256.4923701183274 286.08554300898834"/><polygon points="321.6851073641013 263.46217721444435 318.31489263589856 269.621809656308 314.1833331700173 285.0448570103586 325.8166668299826 291.2044894522223"/><polygon points="350.26427752203983 251.23119189405483 375.0690558112934 253.7231457353011 363.5279347942448 300.9435209313655 361.80539853908846 303.43547477261177"/><polygon points="398.98399155001346 270.7209657694315 411.6826751166532 253.52594736256475 394.6403363679962 301.1407193041019 416.0263302986704 283.94570089723516"/><polygon points="459.38963354915217 272.4440154417039 436.6103664508477 278.44044797904695 468.49455330746014 276.2262186876197 427.50544669253975 282.2226512249627"/><polygon points="508.9837607310666 258.64155116956437 472.3495726022667 253.83483673238717 479.21413330959666 300.8318299342794 502.1192000237366 296.02511549710226"/><polygon points="10.666666666666666 316.37344760387106 32 295.8880187585122 32 344.1119812414877 10.666666666666666 323.62655239612883"/><polygon points="52.913939907579355 314.89870294828796 75.08606009242065 293.0204871541318 72.38058527236122 346.9795128458681 55.619414727638784 325.1012970517119"/><polygon points="95.85182890252243 322.80603015750285 117.48150443081089 314.9620152800861 116.3243875893654 325.03798471991377 97.00894574396791 317.19396984249704"/><polygon points="136.09222171987057 315.40138210001925 162.57444494679612 299.7456539912461 162.66667620819857 340.25434600875377 135.99999045846812 324.59861789998064"/><polygon points="188.38680966387528 292.92798186773564 195.61319033612472 314.65804135465265 209.90972151169066 325.34195864534723 174.09027848830934 347.07201813226425"/><polygon points="214.78003141928232 322.3377892070569 254.553301914051 315.47182575284296 235.5050197437017 324.5281742471569 233.82831358963162 317.662210792943"/><polygon points="265.4542185764348 301.60478346414214 289.2124480902318 322.5410395418597 296.818984922059 317.4589604581402 257.84768174460766 338.39521653585774"/><polygon points="292.8739887706493 325.0657327678253 347.1260112293506 298.22854842810693 343.34189756498705 341.77145157189295 296.65810243501284 314.9342672321746"/><polygon points="366.7056414873073 322.5537702861599 358.627691846026 321.52904840723454 373.7028274669524 318.47095159276535 351.6305058663809 317.44622971384"/><polygon points="402.10399903816995 300.46496487311356 408.5626676284967 315.6185339461242 408.347580158194 324.38146605387567 402.31908650847265 339.5350351268863"/><polygon points="459.98221419998254 301.67474260379475 436.01778580001735 295.012343375174 472.45763144178727 344.9876566248259 423.5423685582126 338.32525739620513"/><polygon points="456.95154034526524 312.25140890090637 524.381792988068 319.1759351219811 510.55053691247826 320.82406487801876 470.782796420855 327.7485910990935"/><polygon points="10.666666666666666 342.0201741903196 32 357.531717165967 32 367.80161616736626 10.666666666666666 383.31315914301365"/><polygon points="54.219055313994446 340.255372091755 73.78094468600555 343.29078072360755 73.93357709985389 382.0425526097257 54.06642290014611 385.07796124157824"/><polygon points="97.19815757031705 348.2486304841269 116.13517576301626 339.3369841792775 116.48180340814164 385.99634915405574 96.85152992519167 377.08470284920634"/><polygon points="146.02482541762146 344.7637765640268 152.64184124904523 360.8790402326797 156.60870153140434 364.45429310065356 142.05796513526235 380.5695567693065"/><polygon points="171.0812633036529 332.058963654357 212.9187366963471 363.7640343328391 201.51336795627685 361.56929900049414 182.48663204372315 393.27436967897626"/><polygon points="232.0388658050934 368.91886866548504 237.29446752823992 345.932997067287 256.80315137281593 379.4003362660463 212.53018196051738 356.4144646678482"/><polygon points="255.5394405003284 365.1284062793615 299.12722616633823 366.75720974703523 290.9700527189173 358.576123586298 263.6966139477493 360.20492705397174"/><polygon points="299.0524106037904 357.3037694066611 340.9475893962095 336.6771968063426 313.67133187275465 388.6561365269907 326.32866812724524 368.02956392667215"/><polygon points="359.6951929468622 354.9082087533495 365.63814038647104 360.1018420375793 359.2545424474881 365.231491295754 366.07879088584514 370.42512457998373"/><polygon points="370.71281149903064 354.12960935416083 439.953855167636 332.96766537543107 427.994141764967 392.3656679579022 382.6725249016996 371.2037239791724"/><polygon points="448.03260545366686 343.6043291729459 447.967394546333 338.02830728325984 481.63790935076884 387.3050260500734 414.36209064923105 381.7290041603874"/><polygon points="477.62506936564387 364.8742756191088 503.7082639676894 339.35651419905236 504.49746849775715 385.9768191342809 476.8358648355761 360.45905771422446"/><polygon points="10.666666666666666 374.949630383663 32 416.03214947842406 32 394.63451718824257 10.666666666666666 435.7170362830036"/><polygon points="55.87213082921793 410.4770906776724 72.12786917078208 386.3767321713223 74.8444523141415 424.2899344953443 53.1555476858585 400.18957598899425"/><polygon points="93.84978410033423 386.85784378065915 119.48354923299908 407.539640471999 120.44723921447984 403.1270261946676 92.88609411885348 423.8088228860075"/><polygon points="139.9045824372021 399.7153925738179 158.7620842294646 402.0396637044216 157.86897531724838 408.627002962245 140.7976913494183 410.95127409284873"/><polygon points="175.13731178578817 412.2519345512152 208.86268821421183 415.1685427921529 197.70588092087104 395.49812387451374 186.29411907912896 398.41473211545144"/><polygon points="236.81758206412547 398.26130465903185 232.51575126920784 377.4420447182207 243.06453580314266 433.22462194844593 226.26879753019065 412.4053620076348"/><polygon points="253.1109172862236 381.6522798314272 301.55574938044305 372.63347543704145 286.22590769573645 438.0331912296252 268.4407589709302 429.0143868352394"/><polygon points="307.9068518513962 404.9679159336916 332.0931481486037 418.48992897063687 328.236369324268 392.17673769602976 311.76363067573186 405.69875073297504"/><polygon points="357.12922639421504 378.8843559298748 368.2041069391182 391.7557048612678 358.8651713559044 418.9109618053988 366.46816197742885 431.7823107367918"/><polygon points="381.6330626882718 390.40499638829067 429.0336039783948 376.265920566811 392.301519333574 434.4007460998556 418.36514733309264 420.26167027837596"/><polygon points="454.7155112634805 401.42567555294113 441.2844887365194 401.08323644167905 438.9882859515184 409.5834302249876 457.0117140484815 409.2409911137255"/><polygon points="499.94547040253224 418.339609083998 481.387862930801 404.1889502940512 478.99480209196474 406.4777163726154 502.3385312413685 392.3270575826686"/><polygon points="10.666666666666666 457.47238077986043 32 440.2437562282817 32 455.7562437717182 10.666666666666666 438.52761922013946"/><polygon points="53.59788742804138 462.67532076767606 74.40211257195861 443.48719678510633 75.26211033639362 452.51280321489355 52.73788966360638 433.32467923232383"/><polygon points="98.05367445781482 456.04224241408116 115.27965887551849 453.74135913109865 118.99998704335489 442.25864086890124 94.33334628997842 439.9577575859187"/><polygon points="142.22716429489302 435.27244314007146 156.43950237177367 415.6769309216813 167.7870487159816 480.3230690783186 130.8796179506851 460.7275568599284"/><polygon points="177.5306022289315 430.3135024933048 206.4693977710685 450.74911191663375 211.15919472746816 445.25088808336614 172.84080527253184 465.6864975066951"/><polygon points="230.15868053613758 430.1835680114981 239.17465279719573 412.6432724097208 247.9070062391252 483.3567275902791 221.42632709420812 465.8164319885018"/><polygon points="279.2360962239818 415.050408506623 275.4305704426848 440.9428119725308 294.10607374203374 455.05718802746907 260.5605929246329 480.9495914933769"/><polygon points="327.8923612646819 417.0865824409444 312.107638735318 456.1474897465844 343.0680996185079 439.85251025341546 296.93190038149197 478.91341755905546"/><polygon points="368.14756298765076 411.7312167408425 357.1857703456825 441.51950848841904 352.9238681884633 454.48049151158085 372.40946514486996 484.2687832591574"/><polygon points="398.2271009324918 425.8036671047407 412.43956573417483 444.0385516161692 425.4463447974215 451.9614483838307 385.22032186924514 470.19633289525916"/><polygon points="443.2528371474434 443.67139328932666 452.74716285255647 437.3387372012753 436.5603758071579 458.6612627987246 459.43962419284196 452.3286067106732"/><polygon points="485.91695879335094 435.5702910813441 495.4163745399823 433.03961238944214 527.9233672670965 462.96038761055775 453.40996606623673 460.42970891865576"/><polygon points="10.666666666666666 503.04904850042226 32 468.0119532230405 32 513.3213801102927 10.666666666666666 478.284284832911"/><polygon points="55.42189440638907 501.6637292707353 72.57810559361093 506.1959158328294 76.1121851594943 475.13741750050383 51.8878148405057 479.66960406259795"/><polygon points="97.27750185370411 502.430719413591 116.0558314796292 490.48197936675496 120.31745620986864 490.8513539665783 93.01587712346468 478.90261391974224"/><polygon points="144.6822620274263 479.0862160537937 153.98440463924038 457.451284891971 153.5257520998691 523.8820484413623 145.1409145667976 502.24711727953957"/><polygon points="184.63014059770808 463.5217606786658 199.36985940229192 469.2367367281812 212.85083871715273 512.0965966051521 171.14916128284727 517.8115726546674"/><polygon points="227.03993157947997 488.31704361400233 242.29340175385335 486.1414232313207 240.9603120011352 495.19191010201257 228.3730213321981 493.0162897193309"/><polygon points="259.6660504259444 456.30483785823213 295.00061624072225 506.48106379200397 293.59108334583357 474.8522695413293 261.07558332083306 525.0284954751011"/><polygon points="296.81597315318334 495.9232376354017 343.18402684681655 504.9991184768363 313.6256664574013 476.33421485649694 326.3743335425986 485.4100956979316"/><polygon points="341.3976865149161 465.88231739837096 383.9356468184172 464.6432217713304 355.55454046188856 516.6901115620028 369.7787928714447 515.4510159349624"/><polygon points="380.57506940468323 458.12808910835747 430.0915972619834 505.1291456178682 395.0766468998043 476.2041877154651 415.5900197668623 523.2052442249758"/><polygon points="423.0488003039084 497.19526372171276 472.95119969609146 476.14843320515166 434.6189777731498 505.1849001281816 461.38102222685006 484.1380696116205"/><polygon points="489.1329171230138 461.9322488988944 492.2004162103195 482.0598843156102 514.9441057579731 499.27344901772307 466.38922757536005 519.4010844344389"/>
</svg>
