<?xml version="1.0" encoding="UTF-8"?>
<svg xmlns="http://www.w3.org/2000/svg" id="RSSicon" viewBox="0 0 512 512" width="512" height="512">
  <defs>
    <style type="text/css">
      svg {
        background: black;
        margin: calc(50vh - 256px) auto 0;
      }
      
      polygon {stroke: darkorange; fill: none;}
    </style>
  </defs>
  <polygon points="10.666666666666666 10.666666666666666 32 10.666666666666666 32 32 10.666666666666666 32"/><polygon points="53.75026195808933 10.666666666666666 74.24973804191066 10.666666666666666 72.56827645689285 32 55.431723543107154 32"/><polygon points="91.96008633696498 10.666666666666666 121.37324699636834 10.666666666666666 119.04189086622898 32 94.29144246710433 32"/><polygon points="132.7840571847166 10.666666666666666 165.88260948195008 10.666666666666666 163.28910670296224 32 135.37755996370444 32"/><polygon points="172.642209207394 10.666666666666666 211.357790792606 10.666666666666666 201.32324976216034 32 182.67675023783966 32"/><polygon points="213.21000266849336 10.666666666666666 256.12333066483995 10.666666666666666 234.7952123976527 32 234.5381209356806 32"/><polygon points="258.7118171794735 10.666666666666666 295.95484948719314 10.666666666666666 293.8562214669927 32 260.81044519967395 32"/><polygon points="314.5119894991329 10.666666666666666 325.488010500867 10.666666666666666 323.414904040239 32 316.5850959597609 32"/><polygon points="371.7077685567838 10.666666666666666 353.6255647765495 10.666666666666666 374.85981790539734 32 350.4735154279359 32"/><polygon points="397.6441949409592 10.666666666666666 413.0224717257074 10.666666666666666 428.1829979397892 32 382.48366872687745 32"/><polygon points="440.1198071075205 10.666666666666666 455.8801928924794 10.666666666666666 478.30120761513746 32 417.69879238486243 32"/><polygon points="481.61976686363545 10.666666666666666 499.7135664696978 10.666666666666666 528.7497294882642 32 452.58360384506904 32"/><polygon points="10.666666666666666 53.049440411952496 32 54.94141157800351 32 73.05858842199649 10.666666666666666 74.95055958804751"/><polygon points="54.95848837751288 53.46454335622767 73.04151162248712 52.52419924334858 73.31190647360656 75.47580075665141 54.688093526393445 74.53545664377233"/><polygon points="98.68815656833519 54.47956478263935 114.64517676499813 53.8162278884125 119.47962805846882 74.1837721115875 93.8537052748645 73.52043521736064"/><polygon points="135.44344315359123 55.419169901237645 163.22322351307545 52.668595824673844 155.40129016411316 75.33140417532616 143.26537650255352 72.58083009876235"/><polygon points="187.08160763455126 55.430683931349556 196.91839236544874 55.57274083230264 205.29868761461893 72.42725916769736 178.70131238538107 72.56931606865045"/><polygon points="210.9208861564995 54.064747676476216 258.41244717683384 54.52833547705026 238.63637676424287 73.47166452294974 230.69695656909045 73.93525232352378"/><polygon points="258.3544537910275 54.487463761674576 296.31221287563915 53.28480159455377 275.23998861098346 74.71519840544623 279.42667805568317 73.51253623832542"/><polygon points="291.83425270075946 54.22809656298925 348.1657472992404 54.89137473541431 336.00689136235235 73.1086252645857 303.99310863764754 73.77190343701075"/><polygon points="357.986207053236 52.31932204573752 367.34712628009726 55.41829093684738 376.8649621315534 72.58170906315263 348.46837120177986 75.68067795426248"/><polygon points="393.1614480074904 53.291244462303915 417.50521865917625 52.07420064418264 404.7793730087049 75.92579935581736 405.8872936579617 74.70875553769609"/><polygon points="445.91244327680147 51.071704213358665 450.0875567231984 51.031838317566695 467.6192974412231 76.9681616824333 428.38070255877676 76.92829578664134"/><polygon points="463.2851384261816 55.955851781893315 518.0481949071517 53.262209717739616 488.31506480922803 74.73779028226039 493.0182685241052 72.04414821810668"/><polygon points="10.666666666666666 92.64702811604185 32 94.70325751182229 32 118.63007582151103 10.666666666666666 120.68630521729146"/><polygon points="52.96095432713709 95.76502540018214 75.03904567286291 100.03164238332883 77.00677356169845 113.30169095000448 50.99322643830155 117.56830793315117"/><polygon points="91.02507642883175 92.5815019889405 122.30825690450156 93.29943505916887 118.78517472601635 120.03389827416444 94.54815860731696 120.75183134439281"/><polygon points="142.8116339868563 100.22547415937616 155.8550326798104 95.57162370334522 156.20101240323336 117.76170962998809 142.46565426343332 113.10785917395715"/><polygon points="177.6560175685646 97.07555230317703 206.3439824314354 95.12938296220013 211.6571658643972 118.20395037113319 172.3428341356028 116.25778103015628"/><polygon points="216.9946176673031 95.93641556232879 252.33871566603023 90.86906524665197 238.35781764742154 122.46426808668134 230.97551568591177 117.39691777100452"/><polygon points="268.3797682264809 96.6407420141449 286.2868984401857 94.5019482037788 284.7919940675561 118.83138512955452 269.8746725991105 116.69259131918841"/><polygon points="296.36749534544657 96.23619841892072 343.6325046545533 93.13758763674781 314.7846907662683 120.1957456965855 325.2153092337316 117.09713491441259"/><polygon points="353.36041958157006 94.32604839760766 371.9729137517632 99.2002110839643 352.6390678919327 114.13312224936901 372.69426544140055 119.00728493572565"/><polygon points="373.02095230352745 100.25019219644224 437.6457143631392 97.30044722313133 429.74100192876716 116.03288611020199 380.92566473789947 113.08314113689107"/><polygon points="425.0854907014239 101.2526323202457 470.914509298576 91.34545763284927 484.9713584333863 121.98787570048404 411.0286415666136 112.08070101308762"/><polygon points="483.3069616048435 93.63783244995831 498.0263717284898 92.14823815936313 508.7402283547532 121.18509517397018 472.5931049785801 119.695500883375"/><polygon points="10.666666666666666 140.97813738798723 32 137.0017744524688 32 161.6648922141979 10.666666666666666 157.68852927867945"/><polygon points="51.295979359288275 141.55916627139376 76.70402064071173 134.87328828031525 72.86426772936906 163.79337838635143 55.13573227063094 157.10750039527292"/><polygon points="98.07037753110475 145.98402665005355 115.26295580222856 133.08533189581647 112.48039793541803 165.58133477085022 100.85293539791529 152.68264001661314"/><polygon points="140.5513775517011 142.51062842024703 158.11528911496558 137.31451590501206 163.81097149379508 161.35215076165463 134.8556951728716 156.15603824641966"/><polygon points="179.6588802606114 134.10781773973721 204.3411197393886 137.61829119674056 212.46782344067134 161.04837546992613 171.53217655932866 164.55884892692947"/><polygon points="236.8802827868711 138.48183678775234 232.4530505464622 142.50969692184947 248.1411320709301 156.15696974481722 221.19220126240322 160.18482987891434"/><polygon points="250.67738537570622 142.36936256044874 303.9892812909604 144.22699136358113 275.9950700531752 154.43967530308555 278.67159661349143 156.29730410621795"/><polygon points="297.2635336525366 131.306643167853 342.7364663474633 142.146038844858 324.6823527757786 156.5206278218087 315.3176472242213 167.3600234988137"/><polygon points="365.4085225824558 140.90958995794486 359.92481075087744 132.55041440741928 355.97696122130185 166.1162522592474 369.3563721120314 157.75707670872183"/><polygon points="418.4148338981915 138.47166241519554 392.25183276847514 136.86133397031261 409.10177526221815 161.80533269635407 401.5648914044485 160.19500425147115"/><polygon points="451.6054446731764 141.50726771555014 444.3945553268235 143.18572420671592 444.5664112224493 155.48094245995077 451.4335887775506 157.15939895111654"/><polygon points="475.7247450598042 137.98074750152136 505.60858827352905 133.0712237337528 517.5797230850415 165.5954429329139 463.7536102482918 160.68591916514532"/><polygon points="10.666666666666666 186.9614341627544 32 178.4221145588142 32 205.5778854411858 10.666666666666666 197.0385658372456"/><polygon points="54.329951203351655 181.18869158148735 73.67004879664835 178.97017568768516 74.50941445901717 205.02982431231484 53.49058554098284 202.81130841851265"/><polygon points="96.90309708078252 173.84931898340702 116.4302362525508 189.83283989110163 120.17872297686094 194.16716010889837 93.15461035647238 210.15068101659298"/><polygon points="146.14006518707276 172.10320539588014 152.52660147959392 187.16465724745865 167.37655842793438 196.83534275254135 131.2901082387323 211.89679460411986"/><polygon points="189.9891539799098 185.70469051924067 194.0108460200902 185.27736293415995 201.33175210474 198.72263706584005 182.66824789526 198.29530948075933"/><polygon points="227.45931249851674 176.2955660612948 241.87402083481658 178.10039290306813 258.4342693423193 205.89960709693187 210.89906399101403 207.7044339387052"/><polygon points="265.93369215496267 187.75761395699678 288.73297451170396 179.86291793103544 287.9608374923804 204.13708206896456 266.70582917428624 196.24238604300322"/><polygon points="323.42034492392213 179.2270708926791 316.57965507607776 183.79546966248185 326.41601706263816 200.20453033751815 313.5839829373617 204.7729291073209"/><polygon points="334.82222033051175 183.69071222519116 390.5111130028215 181.97512063771052 391.5666067154175 202.02487936228948 333.76672661791577 200.30928777480884"/><polygon points="382.7143189131611 191.5246893338684 427.95234775350553 182.82968783397476 397.299974344091 201.17031216602524 413.3666923225756 192.4753106661316"/><polygon points="444.4596889139237 185.94049458241508 451.5403110860762 185.37509981252498 473.5136071603105 198.62490018747502 422.48639283968936 198.05950541758492"/><polygon points="461.77387677445955 171.03697590554572 519.5594565588736 183.2245380494392 507.08920633839114 200.7754619505608 474.2441269949421 212.96302409445428"/><polygon points="10.666666666666666 231.11149301144337 32 211.76822331130512 32 257.5651100220282 10.666666666666666 238.22184032188994"/><polygon points="51.85535700956406 217.7832402164423 76.14464299043594 226.21646465098007 73.73183834180215 243.11686868235324 54.268161658197855 251.55009311689102"/><polygon points="101.2039563133732 234.478530094359 112.12937701996012 233.88373590156684 117.90590371834548 235.44959743176648 95.42742961498783 234.8548032389743"/><polygon points="141.84014788072042 236.21196364732538 156.82651878594626 211.87106186132144 167.4180826045012 257.4622714720119 131.2485840621655 233.12136968600794"/><polygon points="176.69212669686456 235.7283144014311 207.30787330313544 213.75337877590255 207.4217656635934 255.57995455743077 176.5782343364066 233.6050189319022"/><polygon points="226.813204928153 211.48240631640567 242.52012840518032 226.07873537302618 257.05680854581027 243.25459796030714 212.27652478752307 257.85092701692764"/><polygon points="269.80892444113505 231.39920236013438 284.8577422255316 234.27583726707638 279.5737510135064 235.05749606625693 275.0929156531602 237.93413097319893"/><polygon points="322.7542234672475 230.3224681474841 317.24577653275236 215.94883465359877 318.75658235991546 253.38449867973455 321.24341764008443 239.0108651858492"/><polygon points="351.8306610961194 215.391831649727 373.50267223721386 227.361203042416 373.2579659654585 241.9721302909173 352.0753673678748 253.9415016836063"/><polygon points="374.97507662881037 231.7033408396509 435.69159003785626 211.69261179247698 407.29920324461136 257.6407215408563 403.36746342205527 237.6299924936824"/><polygon points="432.7487971349 234.02969583414338 463.2512028650999 221.42913425529093 480.45473848623607 247.90419907804238 415.5452615137638 235.30363749918993"/><polygon points="460.2396366545345 229.1694997053041 521.0936966787988 220.48496448408233 501.2414366201751 248.848368849251 480.0918967131582 240.1638336280292"/><polygon points="10.666666666666666 270.80807049024986 32 277.14614395738687 32 277.52052270927976 10.666666666666666 283.85859617641677"/><polygon points="55.919288807343506 274.94491422867424 72.0807111926565 275.1086509889854 74.49039604654546 279.5580156776812 53.509603953454544 279.7217524379924"/><polygon points="94.16713603333571 256.155225382056 119.1661972999976 259.4640743004495 114.08410428928012 295.2025923662171 99.2492290440532 298.5114412846106"/><polygon points="133.9448606166625 271.76342209423393 164.72180605000418 282.1590271012501 167.60749892183986 272.5076395654165 131.05916774482682 282.9032445724327"/><polygon points="175.96009510953002 267.0343778309721 208.03990489046998 260.22935260338676 203.96303608991605 294.43731406327987 180.03696391008395 287.6322888356945"/><polygon points="228.26157181582 279.8384731990293 241.07176151751332 261.6160823581247 255.51410428733945 293.05058430854194 213.81922904599386 274.82819346763733"/><polygon points="250.79947262249658 271.7107836227269 303.86719404417005 270.39339187723516 279.34881450480145 284.27327478943147 275.3178521618652 282.9558830439397"/><polygon points="295.72069189898286 262.71740546419556 344.279308101017 280.5048187260581 348.4196174154603 274.16184794060854 291.58038258453956 291.94926120247106"/><polygon points="360.53239623261504 251.39673237484848 364.8009371007182 259.56939019831594 360.6090419542185 295.0972764683507 364.72429137911473 303.2699342918181"/><polygon points="374.3763811537159 254.35362607576135 436.29028551295073 251.0534382410892 402.76204233976205 303.6132284255774 407.9046243269046 300.3130405909053"/><polygon points="459.3802310506074 274.7237962098442 436.6197689493925 262.07860759368486 469.3735911339485 292.58805907298176 426.6264088660514 279.94287045682245"/><polygon points="453.2818655867721 269.6841257016528 528.0514677465611 271.17127997361575 507.31748034234846 283.4953866930509 474.0158529909848 284.9825409650138"/><polygon points="10.666666666666666 292.60265114296476 32 305.21953749687685 32 334.78046250312303 10.666666666666666 347.3973488570351"/><polygon points="53.031788050377436 310.12313151869273 74.96821194962257 311.68702075371976 75.33027230504783 328.3129792462801 52.66972769495218 329.87686848130716"/><polygon points="96.3131007727145 296.7788859705419 117.02023256061881 326.89636806535503 119.79054779100197 313.10363193464485 93.54278554233134 343.22111402945796"/><polygon points="144.69970836690555 315.42529604909845 153.96695829976113 325.37421676694925 163.57485568860744 314.62578323305064 135.09181097805924 324.57470395090144"/><polygon points="177.30493391162847 325.64087303137757 206.69506608837153 300.6638218686792 192.71020930011736 339.3361781313207 191.28979069988264 314.3591269686223"/><polygon points="213.0545166172915 291.3267544913707 256.27881671604183 310.8172069923186 251.05892576546412 329.1827930076813 218.2744075678692 348.6732455086292"/><polygon points="268.15522365968144 306.3595688556915 286.5114430069852 310.70424532285966 296.33085684238085 329.2957546771402 258.3358098242858 333.64043114430837"/><polygon points="318.9193981257414 314.0381001541335 321.0806018742585 307.9146066692594 321.8886648404664 332.0853933307405 318.1113351595335 325.9618998458664"/><polygon points="335.3813264815022 301.55011615339225 389.9520068518311 308.218544571718 373.29889506377873 331.7814554282819 352.0344382695545 338.44988384660763"/><polygon points="377.185924331419 309.6671898708874 433.4807423352476 317.8864415354491 424.2323992418813 322.1135584645508 386.43426742478533 330.3328101291125"/><polygon points="462.18616931530573 321.9829713483922 433.81383068469415 310.28219350513234 480.2207051460518 329.71780649486755 415.7792948539481 318.0170286516077"/><polygon points="490.75286108663573 320.7357611965971 490.5804722466975 297.0674995362868 479.34041963382646 342.9325004637131 501.9929136995068 319.2642388034028"/><polygon points="10.666666666666666 336.55595544741266 32 352.58364075799796 32 372.7496925753353 10.666666666666666 388.7773778859206"/><polygon points="53.180573251873476 348.1251504404827 74.81942674812653 330.72846116228493 76.61818746173326 394.6048721710483 51.38181253826675 377.2081828928506"/><polygon points="97.8678837560009 340.77558676756564 115.46544957733242 347.574058618311 113.43357683261571 377.75927471502223 99.8997565007176 384.5577465657676"/><polygon points="133.18203334640705 332.28773635555024 165.48463332025963 332.4439863182143 163.99855541056633 392.889347015119 134.66811125610036 393.045596977783"/><polygon points="185.09822566813196 353.45296826367627 198.90177433186804 331.83857249036464 202.5964847673522 393.4947608429686 181.4035152326478 371.880365069657"/><polygon points="214.0176291658874 371.1522157548077 255.31570416744592 352.8400891563007 251.1308924235097 372.4932441770326 218.20244090982362 354.1811175785256"/><polygon points="279.49935469959024 370.00322245868387 275.1673119670764 332.75137904391227 279.8693969897668 392.581954289421 274.7972696768998 355.3301108746494"/><polygon points="322.42236490552546 362.661857182331 317.57763509447443 338.75787064097926 316.5023436902537 386.575462692354 323.49765630974616 362.67147615100225"/><polygon points="353.033901683373 363.6795880132921 372.29943164996024 359.52317725901196 362.90357465142193 365.8101560743213 362.4297586819113 361.65374532004114"/><polygon points="408.77259039121003 350.1563521009554 401.8940762754566 365.0355903159678 395.46314627753475 360.29774301736546 415.2035203891319 375.17698123237784"/><polygon points="439.2323892383304 372.33402882346337 456.76761076166946 357.0322625972872 461.6871693280204 368.3010707360461 434.3128306719795 352.9993045098699"/><polygon points="490.7839481239923 355.138451336231 490.549385209341 331.2818945481896 521.4354134070807 394.05143878514366 459.89791992625265 370.19488199710224"/><polygon points="10.666666666666666 384.9957997090192 32 373.9760013379247 32 436.69066532874194 10.666666666666666 425.67086695764743"/><polygon points="53.88029094724422 385.4002755111829 74.11970905275578 408.45565924893333 74.11760374267507 402.2110074177333 53.88239625732493 425.26639115548375"/><polygon points="94.84705253201682 418.61365947548984 118.4862808013165 397.0798939127223 114.29859211939669 413.58677275394433 99.03474121393663 392.0530071911768"/><polygon points="133.07418578781895 400.3435496216878 165.59248087884774 394.64473926023794 167.38530980730167 416.0219274064287 131.28135685936502 410.3231170449788"/><polygon points="173.80508505920824 393.6852049152355 210.19491494079176 403.70045713136176 202.23912594422612 406.96620953530487 181.76087405577388 416.98146175143114"/><polygon points="211.53519452298895 374.71446298904226 257.79813881034437 373.59770890973846 236.15568423951706 437.06895775692817 233.17764909381626 435.95220367762437"/><polygon points="267.51945108294467 371.0280913054181 287.14721558372196 413.91501969234605 291.036018840412 396.7516469743206 263.63064782625463 439.6385753612485"/><polygon points="314.67993611101804 410.19230276144543 325.32006388898185 393.2039547255369 343.8665311990386 417.4627119411297 296.1334688009613 400.4743639052212"/><polygon points="349.21776425839903 399.8554496450878 376.1155690749342 388.8382355311963 386.94368563685 421.82843113547034 338.3896476964833 410.81121702157884"/><polygon points="390.00707401442344 413.6738605279928 420.6595926522432 383.1998006797411 425.66462819156436 427.46686598692554 385.00203847510227 396.9928061386738"/><polygon points="425.9738469484437 376.7145039524371 470.0261530515562 417.6293246989037 457.8728223302342 393.0373419677629 438.1271776697657 433.95216271422953"/><polygon points="482.2024207551648 409.80311822361875 499.1309125781685 399.5896563498392 500.2023973274807 411.07701031682745 481.13093600585256 400.8635484430479"/><polygon points="10.666666666666666 418.83520550482797 32 430.88665710009946 32 465.11334289990043 10.666666666666666 477.1647944951719"/><polygon points="52.147783202376694 448.1751262068103 75.8522167976233 434.4211761242265 74.65223156493411 461.57882387577337 53.34776843506589 447.82487379318957"/><polygon points="101.03673940068809 443.59229839184206 112.29659393264522 432.9177454348319 113.0177605873823 463.082254565168 100.31557274595102 452.4077016081578"/><polygon points="138.19297083131275 447.1325768847075 160.47369583535394 421.4439012597262 152.81686754860795 474.5560987402737 145.84979911805874 448.8674231152924"/><polygon points="175.57768499586533 462.0812009082108 208.42231500413467 441.6816282840341 196.4391377109535 454.3183717159658 187.5608622890465 433.9187990917891"/><polygon points="220.06361712406897 418.1250987139763 249.26971620926435 460.1303868314768 239.59810508579287 435.8696131685231 229.73522824754045 477.8749012860236"/><polygon points="263.5899959753662 443.6311192762624 291.0766706913004 425.24232767537376 301.965693251804 470.7576723246261 252.70097341486263 452.3688807237375"/><polygon points="295.7414889445032 448.7273052121168 344.2585110554967 435.23956339496107 322.86136059507396 460.7604366050388 317.1386394049259 447.2726947878831"/><polygon points="350.5372503461803 423.56050393888614 374.79608298715294 442.7099518707925 379.0843348574058 453.2900481292074 346.24899847592746 472.43949606111374"/><polygon points="408.1524074034048 457.7190167104819 402.5142592632618 439.16535526634334 425.8669905066608 456.83464473365655 384.79967616000584 438.28098328951796"/><polygon points="449.5654682992999 451.78446811256055 446.4345317007 438.5698139906459 440.3477169270214 457.430186009354 455.6522830729785 444.21553188743934"/><polygon points="479.54043710228825 439.92687260081203 501.792896231045 414.9375170753581 517.9534152036699 481.0624829246418 463.37991812966334 456.07312739918785"/><polygon points="10.666666666666666 459.7469439012544 32 462.14548054609725 32 519.187852787236 10.666666666666666 521.5863894320788"/><polygon points="53.71407366508846 467.1648896249294 74.28592633491154 475.5582478253148 74.96741063356762 505.77508550801844 53.032589366432376 514.1684437084039"/><polygon points="97.09278428159224 464.89960201635125 116.24054905174107 467.336284994074 121.14693005708038 513.9970483392593 92.18640327625293 516.433731316982"/><polygon points="133.58486288629396 469.82295373494105 165.08180378037272 507.143291667179 156.26674504121436 474.19004166615423 142.39992162545232 511.5103795983922"/><polygon points="177.84962745479538 452.3859387770093 206.15037254520462 476.0036077903369 208.34316402349708 505.32972554299636 175.65683597650292 528.947394556324"/><polygon points="236.13381967285986 462.4440322158579 233.19951366047346 468.6047047730636 236.33909712668847 512.7286285602697 232.99423620664484 518.8893011174754"/><polygon points="282.14782736369585 501.10713547654285 272.5188393029708 469.6854685073986 302.5726349851571 511.6478648259347 252.09403168150953 480.2261978567904"/><polygon points="315.6798512898494 485.62632128964975 324.3201487101505 457.7253823555543 327.719021750631 523.607950977779 312.2809782493689 495.7070120436835"/><polygon points="366.7165035151855 467.65690869832997 358.6168298181478 490.5360894585982 378.5192873765677 490.79724387473505 346.81404595676554 513.6764246350033"/><polygon points="376.14064364006964 507.4474589366806 434.526023026597 461.23959392781114 429.31129363272385 520.0937394055221 381.3553730339428 473.88587439665264"/><polygon points="414.3561275847072 466.09685030679117 481.64387241529266 472.31948676501554 473.3155698636469 509.0138465683177 422.684430136353 515.236483026542"/><polygon points="471.3346930562726 488.19351717594486 509.99864027706064 493.76229864632523 497.17399874769046 487.571034687008 484.1593345856428 493.1398161573884"/>
</svg>
