<?xml version="1.0" encoding="UTF-8"?>
<svg xmlns="http://www.w3.org/2000/svg" id="RSSicon" viewBox="0 0 512 512" width="512" height="512">
  <defs>
    <style type="text/css">
      svg {
        background: black;
        margin: calc(50vh - 256px) auto 0;
      }
      
      polygon {stroke: darkorange; fill: none;}
    </style>
  </defs>
  <polygon points="10.666666666666666 10.666666666666666 32 10.666666666666666 32 32 10.666666666666666 32"/><polygon points="52.766836623751374 10.666666666666666 75.23316337624863 10.666666666666666 73.74392851566253 32 54.256071484337475 32"/><polygon points="91.96184486140235 10.666666666666666 121.37148847193096 10.666666666666666 113.80847753360707 32 99.52485579972624 32"/><polygon points="144.83034442529046 10.666666666666666 153.83632224137622 10.666666666666666 162.82017868469512 32 135.84648798197156 32"/><polygon points="182.1368774654188 10.666666666666666 201.8631225345812 10.666666666666666 199.45242031298076 32 184.54757968701924 32"/><polygon points="223.42074428340095 10.666666666666666 245.91258904993236 10.666666666666666 236.93874350084863 32 232.39458983248468 32"/><polygon points="281.089205301795 10.666666666666666 273.5774613648716 10.666666666666666 276.31160649032876 32 278.3550601763379 32"/><polygon points="321.71516576110486 10.666666666666666 318.28483423889503 10.666666666666666 327.84283537751224 32 312.15716462248764 32"/><polygon points="341.27333778527816 10.666666666666666 384.0599955480551 10.666666666666666 385.4341317483757 32 339.89920158495755 32"/><polygon points="399.41230805534946 10.666666666666666 411.2543586113172 10.666666666666666 439.64037740017045 32 371.0262892664962 32"/><polygon points="436.7327906644246 10.666666666666666 459.2672093355753 10.666666666666666 443.89215398894595 32 452.10784601105394 32"/><polygon points="483.78780809535743 10.666666666666666 497.5455252379758 10.666666666666666 495.2380052874949 32 486.09532804583836 32"/><polygon points="10.666666666666666 52.90742284697775 32 53.78173003443827 32 74.21826996556173 10.666666666666666 75.09257715302225"/><polygon points="55.94700658724809 54.97095085783349 72.0529934127519 51.6765536138198 76.41387232193583 76.32344638618021 51.58612767806417 73.02904914216651"/><polygon points="96.14997307339783 55.31513495432999 117.18336025993548 54.24282744795121 120.34823891320475 73.7571725520488 92.98509442012856 72.68486504567001"/><polygon points="143.39571700242567 52.32594565465986 155.27094966424102 53.052486900132365 152.22913461660983 74.94751309986763 146.43753205005686 75.67405434534014"/><polygon points="182.11191057685667 51.57371318428143 201.88808942314333 51.70305831794285 212.96123847701986 76.29694168205715 171.03876152298014 76.42628681571857"/><polygon points="226.85269636248188 50.76860661860039 242.48063697085144 52.34375653299556 256.69535652031084 75.65624346700444 212.63797681302248 77.23139338139961"/><polygon points="268.40726271521356 54.47591490473911 286.25940395145307 54.04686153263694 279.28652956327886 73.95313846736306 275.38013710338777 73.52408509526089"/><polygon points="301.7328308198057 54.916022067641336 338.2671691801942 55.3647283709513 341.5116291241349 72.6352716290487 298.488370875865 73.08397793235866"/><polygon points="335.47123608862444 55.34090240066284 389.8620972447088 55.73793139769279 366.34614901966495 72.26206860230721 358.9871843136683 72.65909759933716"/><polygon points="412.7912912657215 51.512455133959584 397.87537540094513 51.57008517933029 417.61728621816394 76.42991482066971 393.0493804485027 76.48754486604042"/><polygon points="440.6370190145812 51.22889120995548 455.3629809854187 51.65645364794032 459.91344366611617 76.34354635205969 436.0865563338837 76.77110879004452"/><polygon points="502.13721960791713 55.33661599756034 479.1961137254161 55.45274976806351 484.3234095874532 72.54725023193649 497.00992374588003 72.66338400243967"/><polygon points="10.666666666666666 90.83229123961462 32 94.13846248278992 32 119.1948708505434 10.666666666666666 122.5010420937187"/><polygon points="53.41773848781972 95.2217861515881 74.58226151218028 101.10793073788628 73.49181345792624 112.22540259544704 54.50818654207376 118.11154718174521"/><polygon points="99.11764085357454 99.18482842130261 114.21569247975877 100.57516086355531 114.28634158960568 112.758172469778 99.04699174372763 114.1485049120307"/><polygon points="142.41492262794196 96.6171504307807 156.25174403872472 93.68453473421921 155.77942855142626 119.6487985991141 142.88723811524042 116.71618290255262"/><polygon points="179.89188867159737 96.54994922839204 204.10811132840263 93.51350088772709 206.76318441494183 119.81983244560622 177.23681558505817 116.78338410494128"/><polygon points="236.5585363561949 98.81375185328021 232.7747969771384 93.27687820864085 255.43426977519377 120.05645512469246 213.89906355813955 114.5195814800531"/><polygon points="280.50893583572895 92.14043165881985 274.1577308309377 98.77683582299397 284.3299306185723 114.55649751033934 270.33673604809434 121.19290167451346"/><polygon points="301.18425537968596 93.6937023903471 338.8157446203139 98.88612458506753 341.2857560984725 114.44720874826578 298.71424390152737 119.63963094298622"/><polygon points="339.5026640779317 97.48970836154469 385.8306692554016 95.23258129742614 370.38712550373975 118.10075203590718 354.9462078295935 115.84362497178863"/><polygon points="397.44265686151954 98.14857395882876 413.2240098051471 101.05940874579882 404.99722939864 112.2739245875345 405.6694372680266 115.18475937450455"/><polygon points="445.78756026782696 91.31314896781201 450.2124397321729 91.7824986021841 437.50238126252884 121.55083473114921 458.49761873747104 122.0201843655213"/><polygon points="499.975937995583 100.41133008497695 481.35739533775023 100.54886215717498 484.9694921342442 112.78447117615833 496.36384119908905 112.92200324835636"/><polygon points="10.666666666666666 135.50926497654072 32 146.42644882541668 32 152.24021784125 10.666666666666666 163.15740169012597"/><polygon points="55.30157103170221 145.6051199633995 72.69842896829779 133.6206352824005 74.40761074155019 165.04603138426617 53.59238925844981 153.0615467032672"/><polygon points="93.08584925103722 132.97803025729544 120.2474840822961 143.06974449031847 120.03209796643141 155.59692217634822 93.3012353669019 165.68863640937124"/><polygon points="131.25027517570106 140.21109709813808 167.41639149096562 131.65358999558651 158.40100663554816 167.01307667108017 140.26566003111853 158.4555695685286"/><polygon points="171.033372424301 132.59993060374615 212.966627575699 145.72048366611463 203.55527130894268 152.94618300055205 180.44472869105732 166.06673606292054"/><polygon points="220.567709775352 146.09290634347184 248.7656235579813 135.38712971044203 242.25991056908583 163.27953695622466 227.07342276424748 152.57376032319485"/><polygon points="270.90804723759095 137.55940408605647 283.7586194290757 132.3079599820337 301.023895853572 166.35870668463298 253.64277081309461 161.1072625806102"/><polygon points="310.9745258878008 131.43379010706826 329.0254741121991 144.6716619990357 346.6382045188741 153.99500466763098 293.3617954811258 167.23287655959842"/><polygon points="360.0184898863424 141.68097917386262 365.31484344699084 138.37353950327113 385.0985146898822 160.29312716339555 340.23481864345104 156.98568749280406"/><polygon points="418.29326732291554 141.92470269473276 392.3733993437511 133.91505978222602 439.94809938092044 164.75160688444066 370.7185672857462 156.74196397193393"/><polygon points="457.50597906659294 131.73481386572124 438.49402093340694 140.6151220179965 476.8600254820404 158.0515446486702 419.1399745179595 166.93185280094545"/><polygon points="502.21146822391114 137.4430912212188 479.1218651094221 141.54074216540755 499.0175944749393 157.12592450125914 482.31573885839396 161.2235754454479"/><polygon points="10.666666666666666 184.71476984574093 32 175.59765853900612 32 208.40234146099388 10.666666666666666 199.28523015425907"/><polygon points="50.796703519351325 184.46918384919732 77.20329648064867 172.51311035380297 74.64795485269806 211.48688964619703 53.352045147301936 199.53081615080268"/><polygon points="91.42034215160844 180.1881623912622 121.91299118172488 185.88562961259615 117.3664600085305 198.11437038740385 95.96687332480282 203.8118376087378"/><polygon points="133.45037313143368 183.80017860423013 165.216293535233 189.85860533932967 165.95401846116437 194.14139466067033 132.71264820550232 200.19982139576987"/><polygon points="178.11212571127874 185.49743921486942 205.88787428872126 182.31880840677556 199.06772800721865 201.68119159322444 184.93227199278135 198.50256078513058"/><polygon points="225.0782739848686 189.8147122492224 244.25505934846473 185.74477967690464 256.1424863581582 198.25522032309536 213.19084697517513 194.1852877507776"/><polygon points="253.97903587425435 182.7964153202309 300.6876307924123 185.63340109600387 293.98987251672463 198.36659890399613 260.676794149942 201.2035846797691"/><polygon points="318.99125412092434 179.89415263240673 321.00874587907555 174.36682340924736 327.21169559554534 209.63317659075264 312.78830440445455 204.10584736759327"/><polygon points="342.4904530277411 177.2881727803332 382.84288030559213 174.86226694052456 380.42809365360637 209.13773305947544 344.9052396797269 206.7118272196668"/><polygon points="418.29464555477676 172.7136836528848 392.37202111188986 179.2726309383396 408.6772846817623 204.7273690616604 401.98938198490436 211.2863163471152"/><polygon points="411.42539574511153 184.96775769679394 484.57460425488836 177.195772451472 473.2508228974149 206.804227548528 422.749177102585 199.03224230320606"/><polygon points="468.4827960309855 174.00583183729492 512.8505373023477 174.3923879077594 519.4952229467439 209.6076120922406 461.83811038658934 209.99416816270508"/><polygon points="10.666666666666666 222.68269810197202 32 211.79195260602313 32 257.5413807273102 10.666666666666666 246.6506352313613"/><polygon points="50.94218836015052 235.85205447426992 77.05781163984949 223.77461761926546 75.47308054142738 245.55871571406786 52.52691945857262 233.4812788590634"/><polygon points="100.19019413018266 232.66616977335715 113.14313920315065 211.87289615409438 113.81251493531076 257.4604371792389 99.52081839802256 236.66716355997616"/><polygon points="141.3235622252873 235.15539324789535 157.34310444137938 225.95285175402927 160.81358299083027 243.38048157930405 137.85308367583642 234.17794008543797"/><polygon points="188.74009252235376 230.88682725361716 195.25990747764624 214.55046019806872 209.9071472100255 254.7828731352646 174.0928527899745 238.44650607971616"/><polygon points="222.55832574874646 220.81361583416532 246.77500758458686 225.87027962074603 234.47098928906345 243.46305371258728 234.86234404426986 248.519717499168"/><polygon points="274.97368774484517 234.67348706184964 279.69297892182146 237.06325936854634 302.9067833909602 232.27007396478697 251.75988327570641 234.65984627148367"/><polygon points="300.6709841717318 211.41186061052585 339.3290158282681 224.27499609961262 319.21867633681563 245.0583372337207 320.78132366318425 257.92147272280744"/><polygon points="372.0815567248958 211.30489886046453 353.25177660843747 233.3139213637591 371.03226495628815 236.0194119695742 354.3010683770451 258.02843447286875"/><polygon points="395.3806855348369 213.56040781460592 415.2859811318297 224.5877894046697 436.7327888295465 244.7455439286636 373.9338778371201 255.7729255187274"/><polygon points="425.42335777763634 224.54529913147113 470.57664222236355 215.52249791375016 444.2616130410783 253.81083541958316 451.7383869589216 244.7880342018622"/><polygon points="463.7675743409761 211.07161928626093 517.5657589923571 235.01860691328451 476.2930925610169 234.3147264200488 505.04024077231634 258.2617140470724"/><polygon points="10.666666666666666 272.6637813159708 32 277.23958759779174 32 277.4270790688749 10.666666666666666 282.0028853506958"/><polygon points="52.70722645227994 254.15868892074943 75.29277354772006 272.39604226326776 72.8009792080422 282.27062440339887 55.19902079195781 300.5079777459172"/><polygon points="101.04740467409833 277.4491927231937 112.28592865923498 277.7496916719248 116.7028113988509 276.91697499474185 96.63052193448242 277.21747394347295"/><polygon points="136.85871227035105 256.2834749521349 161.80795439631564 272.223515263879 167.72750225937784 282.44315140278763 130.93916440728884 298.38319171453173"/><polygon points="172.44774052964127 253.1796392181714 211.55225947035873 264.6816109374044 193.91270978959264 289.9850557292622 190.08729021040736 301.48702744849527"/><polygon points="214.39618724177882 254.17766944227236 254.9371460915545 271.3032057569097 248.84980906668196 283.36346090975695 220.48352426665136 300.48899722439427"/><polygon points="260.1632932944809 265.399876681973 294.5033733721857 250.74061055377723 273.51064141655996 303.9260561128894 281.15602525010667 289.2667899846936"/><polygon points="320.11743075133865 268.7840691246366 319.88256924866124 274.89431279572943 339.963732598536 279.7723538709372 300.0362674014639 285.88259754203006"/><polygon points="333.6565071764804 269.2144238789711 391.6768261568529 270.6845214390037 365.13003944033846 283.98214522766295 360.2032938929948 285.4522427876955"/><polygon points="399.39065919712993 271.20304596485454 411.2760074695367 262.17776003312014 393.6139500262955 292.4889066335465 417.0527166403711 283.4636207018121"/><polygon points="424.313758327301 272.68897760503546 471.6862416726989 280.3371575485382 461.1476216482361 274.32950911812844 434.8523783517638 281.97768906163117"/><polygon points="479.29091000177266 273.9776261812671 502.0424233315606 264.0418247625766 493.79988899589375 290.62484190409003 487.5334443374395 280.6890404853995"/><polygon points="10.666666666666666 316.78022363585694 32 313.79077781513996 32 326.2092221848599 10.666666666666666 323.21977636414294"/><polygon points="53.47842084423942 319.23836581131195 74.52157915576058 313.5612831340744 73.07268998616996 326.43871686592547 54.92731001383004 320.76163418868794"/><polygon points="90.74950067954725 320.5986659966297 122.58383265378606 327.5103106775251 118.56330149013658 312.48968932247476 94.77003184319673 319.4013340033702"/><polygon points="142.11922168149366 297.5852691391348 156.54744498517303 309.83223283969386 159.30325493655567 330.167767160306 139.363411730111 342.41473086086506"/><polygon points="184.72908942843077 315.7635718741864 199.27091057156923 297.7608301013335 200.7766225931644 342.2391698986664 183.2233774068356 324.23642812581346"/><polygon points="224.3393813630692 316.97457199437457 244.9939519702641 319.6344888593133 235.9977202971632 320.3655111406866 233.33561303617012 323.0254280056253"/><polygon points="278.29635400878016 310.70896594575584 276.3703126578865 300.50590526254473 287.2971274559324 339.49409473745516 267.3695392107342 329.29103405424405"/><polygon points="295.07198265629154 295.5475415524105 344.92801734370835 298.1754833384894 333.10173658528043 341.8245166615105 306.89826341471945 344.4524584475894"/><polygon points="358.7338559695265 318.3234240592239 366.5994773638068 308.39330841766485 353.2857822270384 331.60669158233503 372.04755110629486 321.676575940776"/><polygon points="388.16308578161966 325.5370410737865 422.503580885047 318.4157827971068 392.358158312274 321.5842172028931 418.30850835439264 314.4629589262134"/><polygon points="448.6260195572032 295.8187568537568 447.37398044279666 295.88602204719587 463.2457648815021 344.113977952804 432.7542351184978 344.1812431462431"/><polygon points="498.2877596271398 307.60855239922194 483.04557370619347 321.26163778060953 527.90447177697 318.73836221939035 453.4288615563633 332.39144760077795"/><polygon points="10.666666666666666 351.70659268048786 32 343.44747693091574 32 381.8858564024175 10.666666666666666 373.6267406528454"/><polygon points="52.69771676292537 331.9329486349442 75.30228323707463 358.0506758761693 72.42642049634381 367.28265745716396 55.57357950365619 393.4003846983891"/><polygon points="97.73289604149838 370.81313064165147 115.60043729183494 344.849949907889 119.06543215558617 380.48338342544423 94.26790117774715 354.5202026916818"/><polygon points="141.008037532434 365.10689923753637 157.65862913423268 369.97499829467847 162.77880626659993 355.3583350386548 135.88786040006676 360.2264340957969"/><polygon points="173.72704471068536 369.79940870740876 210.27295528931464 343.7775069751085 198.41600166319606 381.55582635822475 185.58399833680394 355.5339246259245"/><polygon points="211.7331669080111 365.64866426488044 257.60016642532224 336.48836704572295 253.95658377147143 388.8449662876103 215.37674956186189 359.6846690684528"/><polygon points="264.2029421067414 347.24050994381355 290.46372455992525 347.2687178293812 301.51625399445237 378.06461550395204 253.15041267221426 378.0928233895197"/><polygon points="322.0558081181776 354.04774588165344 317.9441918818223 368.149511653486 339.5221604272989 357.18382167984726 300.477839572701 371.2855874516798"/><polygon points="358.94544494269076 337.3830433095124 366.3878883906425 343.68610106158314 370.11580875157466 381.6472322717501 355.2175245817586 387.95029002382086"/><polygon points="415.5871542512869 342.426833609848 395.0795124153797 346.0417699072303 423.77303887325536 379.291563426103 386.89362779341127 382.90649972348524"/><polygon points="461.5250879634206 353.5080674752277 434.47491203657927 355.80478230045634 446.02440543633065 369.5285510328769 449.97559456366923 371.8252658581056"/><polygon points="490.1487412557788 369.400852580447 491.18459207755444 349.3971179520062 528.6044582998068 375.93621538132703 452.72887503352644 355.93248075288625"/><polygon points="10.666666666666666 386.1627771018209 32 403.32595916330337 32 407.34070750336326 10.666666666666666 424.50388956484574"/><polygon points="51.447684276966875 401.21528019434487 76.55231572303313 401.9775801449552 73.49669949282652 408.68908652171143 54.50330050717348 409.45138647232176"/><polygon points="97.01225729096733 370.90005317277235 116.32107604236599 379.7806674246308 120.31259942263085 430.88599924203584 93.02073391070246 439.7666134938943"/><polygon points="135.20205800076803 380.80101823376907 163.46460866589865 394.2187816226206 165.88981366625015 416.447885044046 132.77685300041654 429.86564843289756"/><polygon points="181.30026280652604 411.8891942718343 202.69973719347396 416.93880370013767 210.468425689858 393.72786296652896 173.531574310142 398.77747239483233"/><polygon points="234.0017776672119 372.7903531655619 235.3315556661214 374.5392966972704 252.70049660814743 436.1273699693962 216.63283672518588 437.87631350110473"/><polygon points="266.5027045903198 392.0959808709209 288.1639620763468 391.31187554902175 276.21553869938145 419.3547911176449 278.4511279672852 418.5706857957457"/><polygon points="293.68863010971893 404.22550331340926 346.31136989028096 400.6499371357953 335.27474821854923 410.0167295308713 304.72525178145065 406.44116335325737"/><polygon points="372.3467255752435 378.3539681163363 352.98660775808975 383.89773508607277 367.5531339591728 426.76893158059386 357.7801993741605 432.3126985503303"/><polygon points="402.4350266253837 384.4229150507215 408.2316400412829 383.40594073129864 413.85935161971656 427.260725935368 396.80731504695007 426.24375161594514"/><polygon points="412.71981147069545 375.5490384528512 483.28018852930444 384.5362869942586 457.3213400232812 426.130379672408 438.6786599767187 435.1176282138154"/><polygon points="482.40908429929476 414.9318483146883 498.9242490340385 380.46448698835746 476.429316241134 430.20217967830916 504.90401709219924 395.73481835197833"/><polygon points="10.666666666666666 440.39976892657495 32 453.91323880128044 32 442.08676119871944 10.666666666666666 455.60023107342494"/><polygon points="55.68260628682066 452.83828454290574 72.31739371317934 445.9040117568701 75.89720376766657 450.0959882431298 52.10279623233343 443.16171545709415"/><polygon points="93.99063953777696 420.84043144653737 119.34269379555636 429.0088934429759 114.93505124940225 466.991106557024 98.39828208393106 475.1595685534625"/><polygon points="134.42956199516232 437.76910463377794 164.23710467150437 444.5545666421708 153.32276280998465 451.4454333578291 145.34390385668203 458.23089536622194"/><polygon points="189.20052486738166 435.4854434101648 194.79947513261834 460.3137959348025 199.7656274286186 435.6862040651974 184.2343725713814 460.5145565898351"/><polygon points="213.23629865257007 447.35531411054524 256.0970346807632 415.3822751754578 240.25849503241852 480.6177248245421 229.0748383009148 448.64468588945465"/><polygon points="260.2185805613443 411.92506130437914 294.4480861053223 431.998614519707 287.2792507760551 464.00138548029287 267.3874158906115 484.07493869562074"/><polygon points="293.1436256754811 458.7235333970764 346.8563743245188 434.93073659116396 324.8451434867473 461.0692634088359 315.1548565132526 437.2764666029235"/><polygon points="372.50949685912303 458.1667011249635 352.8238364742102 446.9611183488198 354.8201805729862 449.0388816511801 370.51315276034705 437.8332988750364"/><polygon points="406.82200595157775 413.56321962235654 403.8446607150889 421.9724040574698 415.921709239087 474.02759594253007 394.7449574275796 482.43678037764334"/><polygon points="411.6238676586428 446.4510930260985 484.3761323413571 462.80911130259557 473.9006245898561 433.1908886974043 422.0993754101438 449.5489069739014"/><polygon points="476.68041046681026 453.3135660762417 504.652922866523 437.1300161546981 513.563307038396 458.86998384530176 467.7700262949373 442.68643392375816"/><polygon points="10.666666666666666 456.59075760710414 32 504.99654773460026 32 476.336785598733 10.666666666666666 524.7425757262291"/><polygon points="53.36209861352102 465.3391042773906 74.63790138647897 460.1555207124984 73.86042696279796 521.1778126208349 54.13957303720204 515.9942290559427"/><polygon points="94.30231710565712 468.10300074071284 119.03101622767619 473.7347504245311 112.78700515487724 507.59858290880214 100.54632817845608 513.2303325926205"/><polygon points="138.54791507874813 485.06847002964884 160.11875158791855 500.7141315113784 152.4853399975656 480.61920182195485 146.18132666910108 496.2648633036844"/><polygon points="171.8404545415512 457.455608797682 212.1595454584488 496.4948848870001 207.97667356527677 484.83844844633313 176.02332643472323 523.8777245356513"/><polygon points="223.7774091658523 496.73165254432314 245.555924167481 499.8772862154113 253.26094014405896 481.45604711792197 216.07239318927435 484.6016807890101"/><polygon points="268.76314592774355 483.6049046003254 285.9035207389231 491.7526430197812 284.80480374481067 489.58069031355205 269.86186292185596 497.72842873300783"/><polygon points="312.08255833584366 456.1012708831728 327.91744166415623 474.53968491171383 347.54748232848794 506.7936484216194 292.45251767151194 525.2320624501605"/><polygon points="356.7802732932196 476.673275475053 368.5530600401137 461.7115030885202 381.90082483879223 519.621830244813 343.432508494541 504.66005785828025"/><polygon points="395.2465216260966 486.47461702761785 415.42014504057005 500.22334792214156 394.3436588755183 481.1099854111917 416.3230077911483 494.8587163057154"/><polygon points="459.9606474423749 456.9615548803006 436.03935255762497 483.85188416076346 476.52469235577246 497.4814491725698 419.4753076442274 524.3717784530327"/><polygon points="469.1136805829123 477.8768983347339 512.2196527504209 466.7233219252684 523.7324362260026 514.6100114080649 457.60089710733064 503.4564349985994"/>
</svg>
