<?xml version="1.0" encoding="UTF-8"?>
<svg xmlns="http://www.w3.org/2000/svg" id="RSSicon" viewBox="0 0 512 512" width="512" height="512">
  <defs>
    <style type="text/css">
      svg {
        background: black;
        margin: calc(50vh - 256px) auto 0;
      }
      
      polygon {stroke: darkorange; fill: none;}
    </style>
  </defs>
  <polygon points="10.666666666666666 10.666666666666666 32 10.666666666666666 32 32 10.666666666666666 32"/><polygon points="55.63986961878519 10.666666666666666 72.36013038121482 10.666666666666666 76.83198227888747 32 51.168017721112534 32"/><polygon points="91.079471680385 10.666666666666666 122.25386165294832 10.666666666666666 115.83189131010114 32 97.50144202323217 32"/><polygon points="143.15007905576942 10.666666666666666 155.51658761089726 10.666666666666666 162.98542288575757 32 135.6812437809091 32"/><polygon points="175.00826368909662 10.666666666666666 208.99173631090338 10.666666666666666 202.9058052012773 32 181.0941947987227 32"/><polygon points="223.40390014938367 10.666666666666666 245.92943318394964 10.666666666666666 257.7053950635714 32 211.6279382697619 32"/><polygon points="274.2291941181992 10.666666666666666 280.43747254846744 10.666666666666666 300.6591539221816 32 254.00751274448504 32"/><polygon points="314.5942958440175 10.666666666666666 325.4057041559824 10.666666666666666 315.7570667226614 32 324.24293327733847 32"/><polygon points="346.4614742371068 10.666666666666666 378.87185909622644 10.666666666666666 367.5959100343255 32 357.73742329900773 32"/><polygon points="375.8393178212841 10.666666666666666 434.8273488453825 10.666666666666666 437.39102913603966 32 373.27563753062697 32"/><polygon points="448.6031377653266 10.666666666666666 447.3968622346733 10.666666666666666 438.8024149649277 32 457.19758503507217 32"/><polygon points="480.8614504548587 10.666666666666666 500.47188287847456 10.666666666666666 490.35781058703617 32 490.9755227462971 32"/><polygon points="10.666666666666666 54.08232044252766 32 55.426630356271765 32 72.57336964372824 10.666666666666666 73.91767955747234"/><polygon points="54.829777328917615 53.44106969863964 73.17022267108239 52.54533713648365 72.13824797760736 75.45466286351635 55.86175202239264 74.55893030136036"/><polygon points="95.21797664112827 54.62376247570461 118.11535669220504 52.847196416504104 116.91768232141315 75.1528035834959 96.41565101192016 73.37623752429539"/><polygon points="132.4037004704112 54.342467474603176 166.2629661962555 52.92566476175295 166.26658117751882 75.07433523824706 132.40008548914787 73.65753252539682"/><polygon points="183.14757253819107 52.844092411760954 200.85242746180893 55.11339562973379 205.7785170087019 72.88660437026621 178.2214829912981 75.15590758823905"/><polygon points="222.94995364293257 52.59656968768065 246.38337969040074 54.22738415657115 240.6544973944843 73.77261584342885 228.678835938849 75.40343031231936"/><polygon points="259.18782396373825 55.22225075069821 295.4788427029284 51.05788733023646 298.28463096584596 76.94211266976355 256.38203570082067 72.77774924930179"/><polygon points="304.30396315683885 51.026112472065066 335.69603684316104 53.45102737514313 342.874042740074 74.54897262485687 297.1259572599259 76.97388752793493"/><polygon points="338.21460733105664 51.1872162423417 387.1187260022766 51.3816081670293 372.362402908008 76.6183918329707 352.97093042532526 76.81278375765831"/><polygon points="389.09046869419745 53.46475714038984 421.5761979724692 54.51155622490233 421.9993504572597 73.48844377509768 388.6673162094069 74.53524285961015"/><polygon points="428.5506512460364 54.69707881453684 467.4493487539635 52.85771861803546 480.9898013948807 75.14228138196454 415.0101986051192 73.30292118546316"/><polygon points="492.2389377719461 51.89834525029767 489.09439556138716 51.06817658647586 510.55254405059543 76.93182341352414 470.7807892827378 76.10165474970233"/><polygon points="10.666666666666666 94.58562902717523 32 91.29373808004101 32 122.0395952532923 10.666666666666666 118.74770430615808"/><polygon points="52.178293903908454 97.7835743293058 75.82170609609155 91.26946084224411 77.21464862439025 122.0638724910892 50.78535137560975 115.54975900402752"/><polygon points="92.68863961727168 91.9347968132529 120.64469371606164 92.46913410840583 121.0805091412202 120.86419922492749 92.25282419211311 121.39853652008041"/><polygon points="137.975556961946 95.98964452966942 160.69110970472067 93.06505739237518 160.9158792911951 120.26827594095813 137.7507873754716 117.3436888036639"/><polygon points="180.5534979348408 92.74982769704314 203.4465020651592 97.25153531617826 196.99522015125874 116.08179801715505 187.00477984874126 120.58350563629017"/><polygon points="221.6741987922743 99.97446716216237 247.65913454105902 96.7568075160214 234.15706391232516 116.57652581731192 235.17626942100816 113.35886617117094"/><polygon points="265.19449889687843 92.12591142000215 289.4721677697882 91.96245125208155 277.42861398770236 121.37088208125176 277.23805267896427 121.20742191333116"/><polygon points="312.31601564041745 93.32448794761243 327.68398435958244 98.08073400985937 339.8303124655243 115.25259932347394 300.1696875344756 120.00884538572089"/><polygon points="365.36450769428313 97.59576769459701 359.9688256390501 100.08845942200136 391.0589376335058 113.24487391133195 334.27439569982744 115.7375656387363"/><polygon points="371.361013781303 91.77744672206217 439.30565288536366 96.47953144868697 418.72423510868913 116.85380188464634 391.9424315579775 121.55588661127115"/><polygon points="448.73398398024557 92.0196305774857 447.2660160197543 90.8605088067203 455.81563118517533 122.47282452661301 440.18436881482455 121.31370275584761"/><polygon points="503.28902350477915 93.95201833981265 478.0443098285541 97.62491215959585 529.9197093839106 115.70842117373746 451.41362394942274 119.38131499352066"/><polygon points="10.666666666666666 141.1052922705783 32 131.33438763266957 32 167.3322790339971 10.666666666666666 157.56137439608838"/><polygon points="55.22655831562135 145.03997524728152 72.77344168437865 130.68699149106618 72.44963211492401 167.9796751756005 55.55036788507598 153.62669141938517"/><polygon points="92.46850173190182 146.29624204957227 120.86483160143149 143.87905344117533 112.03586809804642 154.78761322549136 101.2974652352869 152.37042461709441"/><polygon points="134.54012375386964 142.98135662760296 164.12654291279705 137.9946451402525 158.14232178567468 160.6720215264142 140.524344880992 155.68531003906372"/><polygon points="188.3726685543383 146.3247922739724 195.6273314456617 135.26667830283276 206.2050158633939 163.39998836383393 177.7949841366061 152.34187439269428"/><polygon points="225.55247234995238 140.9703859759005 243.78086098338093 133.40920653478506 253.54239620964006 165.25746013188163 215.79093712369325 157.69628069076617"/><polygon points="256.3421016094528 139.8903120339249 298.3245650572138 144.86969331761776 300.0645842323639 153.79697334904893 254.6020824343027 158.77635463274177"/><polygon points="303.2466682746853 137.98791901547952 336.7533317253146 136.3521234647832 315.24368887540203 162.31454320188348 324.75631112459786 160.67874765118717"/><polygon points="352.8761302325619 141.96567679068932 372.4572031007714 145.68242850551138 352.87829186116016 152.9842381611553 372.4550414721731 156.70098987597737"/><polygon points="410.0433251875799 139.34023855514582 400.6233414790867 140.89438452518633 412.06674691487416 157.77228214148036 398.59991975179247 159.32642811152087"/><polygon points="442.2409962220216 136.65295935618 453.7590037779783 139.5205802595631 475.86977793511954 159.14608640710358 420.13022206488034 162.0137073104867"/><polygon points="479.10643926633725 133.08349070280917 502.226894066996 131.65494457701027 525.475572415018 167.01172208965642 455.8577609183153 165.5831759638575"/><polygon points="10.666666666666666 188.64386652338533 32 173.49040295151156 32 210.50959704848844 10.666666666666666 195.35613347661467"/><polygon points="54.024444738737124 177.74426480261494 73.97555526126288 171.2149679465578 74.57401374555775 212.7850320534422 53.42598625444225 206.25573519738506"/><polygon points="95.42830141699474 183.2338024985168 117.90503191633857 171.79086298748464 118.63754333936265 212.20913701251536 94.69578999397066 200.7661975014832"/><polygon points="131.12530279110462 178.0424431429496 167.54136387556207 178.5199483053469 152.46362180071094 205.4800516946531 146.20304486595575 205.9575568570504"/><polygon points="183.65173909542284 189.9958016287266 200.34826090457716 191.7368026044902 201.8701122037595 192.2631973955098 182.1298877962405 194.0041983712734"/><polygon points="223.99974899804906 182.09250651006863 245.33358433528426 170.84784437544286 246.75118154658495 213.15215562455714 222.58215178674837 201.90749348993137"/><polygon points="276.95379371466885 189.19456241734838 277.7128729519978 174.6749380199552 287.5137917998663 209.3250619800448 267.15287486680035 194.80543758265162"/><polygon points="321.27277608461304 190.69546780609937 318.72722391538684 191.19167935140268 334.5509555289869 192.80832064859732 305.449044471013 193.30453219390063"/><polygon points="356.1500806007103 191.76967258836896 369.183252732623 190.80038549513213 376.22633847605783 193.19961450486787 349.1069948572754 192.23032741163104"/><polygon points="400.39008589460207 176.27207227917842 410.27658077206456 172.76534981916762 412.8011857988287 211.23465018083238 397.8654808678379 207.72792772082158"/><polygon points="440.0746130603779 176.9540630922784 455.925386939622 175.5686897671586 452.8361220943409 208.4313102328414 443.163877905659 207.0459369077216"/><polygon points="455.0364129759173 173.61530568824318 526.296920357416 184.86099014420182 497.5416164927244 199.13900985579818 483.79171684060884 210.38469431175682"/><polygon points="10.666666666666666 225.8369585888499 32 223.92308638789416 32 245.41024694543916 10.666666666666666 243.4963747444834"/><polygon points="51.582634398123965 212.92417670662772 76.41736560187604 229.18067452663638 72.3594933725937 240.15265880669693 55.640506627406296 256.40915662670557"/><polygon points="90.81864848064318 230.3572122544135 122.51468485269014 229.00626948592554 114.32925419980286 240.32706384740777 99.00407913353045 238.97612107891982"/><polygon points="145.05221739093417 235.90888609073588 153.6144492757325 229.0074280700127 153.40908815676383 240.3259052633206 145.25757850990286 233.42444724259744"/><polygon points="175.49431451692283 234.10992180491363 208.50568548307717 228.28869457516763 194.58071078946796 241.0446387581657 189.41928921053204 235.2234115284197"/><polygon points="231.17772658624278 211.67375434938845 238.15560674709053 219.84692335683852 249.00950123399204 249.4864099764948 220.32383209934127 257.65957898394487"/><polygon points="253.89712822335923 228.76213748575734 300.7695384433074 223.74228116348002 288.7756736625669 245.5910521698533 265.89099300409976 240.57119584757598"/><polygon points="291.2663822229107 223.29134369712446 348.7336177770892 233.39702137100446 314.3313192620037 235.93631196232886 325.66868073799617 246.04198963620885"/><polygon points="338.4731751459423 236.85542507393205 386.86015818739094 223.7924232454156 374.221116720115 245.54091008791772 351.11221661321827 232.47790825940126"/><polygon points="408.00148129792603 212.20049831830366 402.6651853687406 229.4752360209099 396.2517998004213 239.8580973124234 414.41486686624535 257.1328350150296"/><polygon points="419.2197993999929 228.5489572257393 476.780200600007 211.94410329444582 460.5515597379207 257.3892300388875 435.4484402620792 240.78437610759403"/><polygon points="491.0747113024062 223.7720360988523 490.2586220309271 232.54306737182765 519.5797151478333 236.79026596150567 461.7536181855 245.561297234481"/><polygon points="10.666666666666666 279.51621005447595 32 271.5516967471271 32 283.11496991953953 10.666666666666666 275.1504566121907"/><polygon points="53.492719774786906 270.21773683310005 74.5072802252131 263.06793907946513 72.8207608776048 291.5987275872015 55.1792391223952 284.4489298335666"/><polygon points="97.89623144357483 267.17583068179607 115.43710188975848 252.18503822515308 117.7349225690122 302.4816284415135 95.59841076432112 287.49083598487056"/><polygon points="142.83833132764184 250.92078577339245 155.82833533902485 268.81574059663376 163.67612739204998 285.85092607003287 134.9905392746167 303.74588089327415"/><polygon points="186.33198404205064 251.6296876693052 197.66801595794936 257.5344836929585 208.70369327310837 297.13218297370815 175.29630672689163 303.0369789973614"/><polygon points="234.25139136971617 267.0892258084063 235.08194196361714 257.0191472434518 255.89003282183143 297.6475194232148 213.4433005115019 287.57744085826033"/><polygon points="271.2600296654139 251.49364941741098 283.4066370012527 261.06744770200424 293.72697231192296 293.5992189646624 260.93969435474366 303.1730172492556"/><polygon points="307.1818396672774 270.0654769524601 332.81816033272247 259.0585817862903 315.15136272971944 295.60808488037634 324.84863727028045 284.60118971420655"/><polygon points="333.19206059739236 251.45183928265536 392.1412727359409 264.52479195682287 392.3430174863759 290.14187470984376 332.99031584695734 303.2148273840113"/><polygon points="397.88008722297275 266.5572554401689 412.7865794436939 277.8662922978757 437.03299971081736 276.8003743687909 373.63366695584926 288.10941122649774"/><polygon points="413.4895544592433 253.4252984030454 482.51044554075656 250.73350948522915 463.86870901274483 303.9331571814375 432.13129098725506 301.2413682636212"/><polygon points="484.1884317787172 253.1776778923609 497.14490155461607 262.31993655128383 497.902365130072 292.3467301153828 483.4309682032613 301.48898877430577"/><polygon points="10.666666666666666 316.6630899131352 32 323.9724429515503 32 316.0275570484496 10.666666666666666 323.3369100868647"/><polygon points="54.52149180509063 317.40422528906896 73.47850819490937 319.46289598245914 72.92179370517078 320.53710401754074 55.078206294829215 322.5957747109309"/><polygon points="95.82817259099157 297.7508099132945 117.50516074234174 315.53107852433385 113.22755856326488 324.46892147566604 100.10577477006844 342.24919008670537"/><polygon points="138.2176981381134 311.5945927607591 160.44896852855328 298.30353887969045 162.81673689376817 341.69646112030944 135.84992977289852 328.4054072392408"/><polygon points="173.92399916696672 315.26519466273544 210.07600083303328 299.53685956550817 209.53489269630586 340.4631404344917 174.46510730369414 324.73480533726445"/><polygon points="219.8279205201219 293.1560537600384 249.50541281321142 323.9389370406926 232.3201016528479 316.06106295930726 237.0132316804854 346.8439462399615"/><polygon points="250.8050184917974 299.59449825712056 303.86164817486923 318.6788253402464 303.8903723245071 321.32117465975347 250.77629434215953 340.4055017428793"/><polygon points="299.76910016524346 311.7831154041476 340.2308998347564 304.115421558001 320.762281425042 335.8845784419989 319.2377185749579 328.21688459585226"/><polygon points="348.5629117627622 305.11401259405886 376.77042157057105 308.0012774040697 353.3636067782394 331.9987225959302 371.96972655509387 334.885987405941"/><polygon points="404.7288683897889 304.7998278770052 405.93779827687774 303.75845270996496 402.5852237317912 336.24154729003493 408.08144293487544 335.2001721229947"/><polygon points="434.77134405549293 301.9912801353677 461.22865594450695 299.7339283454879 474.9268034607903 340.26607165451196 421.07319653920956 338.0087198646322"/><polygon points="487.6855573597027 290.76946662237816 493.64777597363053 308.1266683629739 479.0602100677099 331.873331637026 502.2731232656234 349.2305333776217"/><polygon points="10.666666666666666 358.096557610932 32 359.34381712094296 32 365.9895162123903 10.666666666666666 367.23677572240126"/><polygon points="51.12705771318245 339.9688799748538 76.87294228681755 355.8680438022826 72.08334232813856 369.46528953105064 55.916657671861444 385.36445335847947"/><polygon points="98.99204466254454 335.6994542833596 114.34128867078877 338.3252593768295 115.5118771280363 387.0080739565038 97.82145620529701 389.63387904997364"/><polygon points="132.4975832730135 352.4565058156437 166.16908339365318 336.58049145496784 153.8548059639098 388.7528418783654 144.8118607027569 372.87682751768955"/><polygon points="179.58675807853942 344.25066172952694 204.41324192146058 371.4532260492947 203.2698459398397 353.88010728403856 180.7301540601603 381.0826716038063"/><polygon points="236.42859993343092 350.5711642210318 232.9047333999024 332.4371930624838 235.8905196064963 392.89614027084946 233.44281372683702 374.7621691123015"/><polygon points="272.8004991387706 362.01985183511056 281.86616752789604 350.4974662917593 301.9160991064431 374.835867041574 252.75056756022354 363.3134814982227"/><polygon points="312.10374812437635 346.1012660780789 327.89625187562353 352.6083531065814 319.97177111510797 372.7249802267519 320.0282288848919 379.2320672552544"/><polygon points="357.81524610677434 340.6668656122272 367.5180872265589 370.53941856863935 359.5456985559648 354.7939147646939 365.78763477736845 384.6664677211061"/><polygon points="398.7761751312033 365.2985163750846 411.89049153546335 356.66060994840126 420.6179185472915 368.672723384932 390.04874811937515 360.03481695824865"/><polygon points="459.59090988087837 353.42452481734625 436.4090901191215 371.5707712788392 468.88104518663187 353.7625620544941 427.118954813368 371.908808515987"/><polygon points="497.7645950782363 346.38651225418414 483.56873825509695 342.2260612681424 505.19493302091894 383.10727206519084 476.1384003124143 378.9468210791491"/><polygon points="10.666666666666666 401.730589450061 32 413.9438484612445 32 396.72281820542213 10.666666666666666 408.9360772166056"/><polygon points="55.32826536973106 372.2677648803969 72.67173463026894 405.6334796549804 73.13742312249079 405.0331870116862 54.86257687750921 438.39890178626973"/><polygon points="96.88394025055145 386.95966865406336 116.44939308278187 394.6066875519687 119.45157628166827 416.0599791146979 93.88175705166505 423.70699801260326"/><polygon points="146.5041792781349 383.3152248453509 152.1624873885318 392.2351381844792 157.4174593146521 418.43152848218745 141.2492073520146 427.35144182131575"/><polygon points="186.615115853492 380.0086332449691 197.384884146508 413.1699732019123 194.47560265683774 397.49669346475434 189.52439734316226 430.65803342169755"/><polygon points="217.49707366858416 410.09104473751523 251.83625966474915 418.38914932164516 246.06979904513636 392.27751734502147 223.26353428819695 400.5756219291514"/><polygon points="252.33807071851516 393.71517933139734 302.3285959481515 404.79315264119725 288.30522903443807 405.8735140254694 266.36143763222856 416.9514873352693"/><polygon points="316.75636248266113 395.10715849369376 323.24363751733875 405.00268916815855 314.38901386181385 405.6639774985081 325.61098613818604 415.55950817297287"/><polygon points="352.1629478189649 402.2921031986038 373.1703855143684 380.5830474845066 363.41622122488184 430.08361918216 361.9171121084514 408.37456346806283"/><polygon points="376.6317940312504 399.30733002114835 434.0348726354162 415.7013538947689 421.859438485952 394.96531277189774 388.8072281807146 411.3593366455183"/><polygon points="425.9248062789173 402.25995357048265 470.0751937210826 393.741585967336 445.86343409088954 416.92508069933064 450.13656590911035 408.406713096184"/><polygon points="479.0470416712576 393.36887504765997 502.28629166207566 398.5392690180762 487.1438145866298 412.12739764859043 494.18951874670347 417.29779161900666"/><polygon points="10.666666666666666 429.0018515929082 32 424.8101224973032 32 471.1898775026967 10.666666666666666 466.99814840709166"/><polygon points="53.523610158322235 459.3020231846921 74.47638984167776 420.67263286428965 73.34012357396323 475.32736713571023 54.659876426036774 436.6979768153078"/><polygon points="94.36853261516801 455.9341449338201 118.9648007181653 434.6638639121825 118.26376736048103 461.3361360878174 95.06956597285229 440.0658550661798"/><polygon points="132.09697414735325 422.14639615120075 166.56969251931343 414.1604499337528 156.97159467973583 481.8395500662471 141.69507198693086 473.85360384879914"/><polygon points="187.44797620988518 410.9672193335746 196.55202379011482 437.6300232626151 196.4653930417536 458.3699767373848 187.5346069582464 485.0327806664253"/><polygon points="224.59307672973102 419.47337329875705 244.7402566036023 460.74355616753263 246.36193195693406 435.25644383246726 222.97140137639926 476.52662670124283"/><polygon points="272.8714213748531 417.034886504784 281.7952452918135 450.2073566199104 275.8520953050504 445.7926433800895 278.81457136161623 478.96511349521586"/><polygon points="302.10007954042356 422.1904205925373 337.8999204595763 437.4931476898819 343.44102972442016 458.506852310118 296.5589702755797 473.8095794074626"/><polygon points="339.7253042653225 430.22487335147696 385.60802906801075 422.4437282322693 353.2242554999974 473.5562717677306 372.10907783333585 465.7751266485229"/><polygon points="397.1302780835273 433.9279775721898 413.53638858313934 451.49257185586475 437.8958554475872 444.50742814413513 372.7708112190794 462.0720224278101"/><polygon points="441.8788144668322 456.76289968174365 454.1211855331677 418.6004543741542 481.2719818173632 477.3995456258457 414.7280181826367 439.23710031825624"/><polygon points="500.94809037980286 456.63240898330304 480.3852429535304 431.95679669557256 511.6533841052267 464.0432033044273 469.6799492281066 439.36759101669685"/><polygon points="10.666666666666666 467.5964240471076 32 482.72212403333583 32 498.6112092999974 10.666666666666666 513.7369092862257"/><polygon points="55.766305074091306 508.3688899420581 72.2336949259087 481.94078694836054 72.11685755500669 499.3925463849727 55.88314244499331 472.96444339127515"/><polygon points="99.27438575296995 458.2130981340263 114.05894758036337 497.2139136010376 120.23130438706804 484.1194197322957 93.10202894626528 523.1202351993069"/><polygon points="143.87530034451748 473.7288738042979 154.7913663221492 451.01510861763586 159.9255595895021 530.3182247156974 138.7411070771646 507.60445952903535"/><polygon points="189.43140508330833 476.69595606532243 194.56859491669167 500.58868049856795 204.42477931210178 480.7446528347653 179.57522068789822 504.6373772680108"/><polygon points="231.0983329301322 477.4141499349467 238.23500040320113 464.5502091881364 241.39382208810068 516.7831241451969 227.93951124523264 503.91918339838656"/><polygon points="264.9626334573639 460.3061252172111 289.70403320930274 477.4843335005445 285.49396210522065 503.84899983278876 269.172704561446 521.0272081161221"/><polygon points="302.46659715256544 498.08238099390553 337.53340284743444 455.74379654064694 346.40241382859574 525.5895367926863 293.59758617140415 483.2509523394277"/><polygon points="341.5726331733971 456.5156920026768 383.76070015993616 497.4405187499741 379.99138893874795 483.89281458335915 345.3419443945853 524.8176413306564"/><polygon points="390.5826822497718 502.9783871038603 420.08398441689485 461.86594577156853 408.84710984676775 519.4673875617648 401.8195568198989 478.35494622947294"/><polygon points="432.8184991646661 498.6367549953335 463.1815008353338 469.52674295955273 433.77989453395594 511.8065903737805 462.22010546604395 482.69657833799977"/><polygon points="461.93086838067944 472.0109543331861 519.4024649526539 490.7394573788227 511.500798076 490.59387595451057 469.83253525733323 509.3223790001472"/>
</svg>
